G04 Layer_Physical_Order=2*
G04 Layer_Color=32768*
%FSLAX25Y25*%
%MOIN*%
G70*
G01*
G75*
%ADD33C,0.04000*%
G04:AMPARAMS|DCode=34|XSize=184.016mil|YSize=184.016mil|CornerRadius=0mil|HoleSize=0mil|Usage=FLASHONLY|Rotation=0.000|XOffset=0mil|YOffset=0mil|HoleType=Round|Shape=Relief|Width=10mil|Gap=10mil|Entries=4|*
%AMTHD34*
7,0,0,0.18402,0.16402,0.01000,45*
%
%ADD34THD34*%
%ADD35C,0.07000*%
%ADD36C,0.08331*%
G04:AMPARAMS|DCode=37|XSize=103.307mil|YSize=103.307mil|CornerRadius=0mil|HoleSize=0mil|Usage=FLASHONLY|Rotation=0.000|XOffset=0mil|YOffset=0mil|HoleType=Round|Shape=Relief|Width=10mil|Gap=10mil|Entries=4|*
%AMTHD37*
7,0,0,0.10331,0.08331,0.01000,45*
%
%ADD37THD37*%
%ADD38C,0.08000*%
G04:AMPARAMS|DCode=39|XSize=100mil|YSize=100mil|CornerRadius=0mil|HoleSize=0mil|Usage=FLASHONLY|Rotation=0.000|XOffset=0mil|YOffset=0mil|HoleType=Round|Shape=Relief|Width=10mil|Gap=10mil|Entries=4|*
%AMTHD39*
7,0,0,0.10000,0.08000,0.01000,45*
%
%ADD39THD39*%
%ADD40C,0.09906*%
G04:AMPARAMS|DCode=41|XSize=122.992mil|YSize=122.992mil|CornerRadius=0mil|HoleSize=0mil|Usage=FLASHONLY|Rotation=0.000|XOffset=0mil|YOffset=0mil|HoleType=Round|Shape=Relief|Width=10mil|Gap=10mil|Entries=4|*
%AMTHD41*
7,0,0,0.12299,0.10299,0.01000,45*
%
%ADD41THD41*%
%ADD42C,0.05969*%
%ADD43C,0.05575*%
G04:AMPARAMS|DCode=44|XSize=75.748mil|YSize=75.748mil|CornerRadius=0mil|HoleSize=0mil|Usage=FLASHONLY|Rotation=0.000|XOffset=0mil|YOffset=0mil|HoleType=Round|Shape=Relief|Width=10mil|Gap=10mil|Entries=4|*
%AMTHD44*
7,0,0,0.07575,0.05575,0.01000,45*
%
%ADD44THD44*%
D33*
X0Y-0D02*
X393701Y0D01*
X393701Y354331D02*
X393701Y0D01*
X-0Y354331D02*
X393701D01*
X-0D02*
X0Y-0D01*
D34*
X377953Y15748D02*
D03*
Y338583D02*
D03*
X15748D02*
D03*
Y15748D02*
D03*
D35*
X342520Y98425D02*
D03*
Y88583D02*
D03*
Y108268D02*
D03*
X271654D02*
D03*
Y88583D02*
D03*
Y98425D02*
D03*
X240158D02*
D03*
Y88583D02*
D03*
Y108268D02*
D03*
X169291D02*
D03*
Y88583D02*
D03*
Y98425D02*
D03*
D36*
X356299Y275118D02*
D03*
Y255118D02*
D03*
Y305118D02*
D03*
X33465Y303937D02*
D03*
Y243937D02*
D03*
Y283937D02*
D03*
D37*
X356299Y295118D02*
D03*
Y265118D02*
D03*
X33465Y293937D02*
D03*
Y253937D02*
D03*
D38*
X285276Y259150D02*
D03*
Y269150D02*
D03*
Y249150D02*
D03*
Y289150D02*
D03*
Y299150D02*
D03*
Y279150D02*
D03*
Y319150D02*
D03*
Y309150D02*
D03*
Y223150D02*
D03*
Y233150D02*
D03*
Y193150D02*
D03*
Y213150D02*
D03*
Y203150D02*
D03*
Y163150D02*
D03*
Y183150D02*
D03*
Y173150D02*
D03*
X295276Y329150D02*
D03*
Y339150D02*
D03*
X105276Y303150D02*
D03*
Y293150D02*
D03*
Y283150D02*
D03*
Y263150D02*
D03*
Y273150D02*
D03*
Y233150D02*
D03*
X115276D02*
D03*
Y253150D02*
D03*
Y243150D02*
D03*
Y263150D02*
D03*
Y203150D02*
D03*
Y213150D02*
D03*
Y193150D02*
D03*
X105276D02*
D03*
Y213150D02*
D03*
Y203150D02*
D03*
X115276Y173150D02*
D03*
Y183150D02*
D03*
Y163150D02*
D03*
X105276D02*
D03*
Y183150D02*
D03*
Y173150D02*
D03*
X295276Y163150D02*
D03*
Y183150D02*
D03*
Y173150D02*
D03*
Y193150D02*
D03*
Y213150D02*
D03*
Y203150D02*
D03*
Y223150D02*
D03*
Y233150D02*
D03*
Y319150D02*
D03*
Y289150D02*
D03*
Y299150D02*
D03*
Y279150D02*
D03*
Y259150D02*
D03*
Y269150D02*
D03*
Y249150D02*
D03*
D39*
X105276Y243150D02*
D03*
Y253150D02*
D03*
X295276Y309150D02*
D03*
D40*
X177165Y35433D02*
D03*
X228346D02*
D03*
X279528D02*
D03*
X330709D02*
D03*
X62992Y35433D02*
D03*
X114173D02*
D03*
D41*
X187165Y25433D02*
D03*
X167165D02*
D03*
Y45433D02*
D03*
X187165D02*
D03*
X238347D02*
D03*
X218347D02*
D03*
Y25433D02*
D03*
X238347D02*
D03*
X289528D02*
D03*
X269528D02*
D03*
Y45433D02*
D03*
X289528D02*
D03*
X340709D02*
D03*
X320709D02*
D03*
Y25433D02*
D03*
X340709D02*
D03*
X72992Y25433D02*
D03*
X52992D02*
D03*
Y45433D02*
D03*
X72992D02*
D03*
X124173D02*
D03*
X104173D02*
D03*
Y25433D02*
D03*
X124173D02*
D03*
D42*
X168012Y198819D02*
D03*
X192539Y157106D02*
D03*
X267342Y157106D02*
D03*
X45650Y83051D02*
D03*
Y110610D02*
D03*
X100020Y125610D02*
D03*
Y98051D02*
D03*
X45650Y142106D02*
D03*
X100020Y157106D02*
D03*
X69587Y223721D02*
D03*
X193602Y71240D02*
D03*
X295965D02*
D03*
X318209Y109862D02*
D03*
X215846D02*
D03*
X173228Y231614D02*
D03*
X228346D02*
D03*
X255906D02*
D03*
X207480Y218819D02*
D03*
X139764Y199508D02*
D03*
X223130Y198819D02*
D03*
X250689D02*
D03*
X198031Y188976D02*
D03*
Y193996D02*
D03*
X138169Y142106D02*
D03*
X127953Y181102D02*
D03*
X307087Y122047D02*
D03*
X204724D02*
D03*
X228346Y133858D02*
D03*
X66437Y184547D02*
D03*
X76635Y184547D02*
D03*
X145669Y231614D02*
D03*
D43*
X234252Y226378D02*
D03*
X265748Y222441D02*
D03*
X179134Y226378D02*
D03*
X183071Y222441D02*
D03*
X155512D02*
D03*
X151575Y226378D02*
D03*
X261811D02*
D03*
X238189Y222441D02*
D03*
X80709Y216535D02*
D03*
X247638Y230315D02*
D03*
D44*
X55512Y105905D02*
D03*
Y78347D02*
D03*
X89764Y102756D02*
D03*
X45669Y137008D02*
D03*
X138189Y225197D02*
D03*
X165354Y225590D02*
D03*
X220472Y225197D02*
D03*
M02*
