G04 Layer_Color=16711935*
%FSLAX25Y25*%
%MOIN*%
G70*
G01*
G75*
%ADD58C,0.20485*%
%ADD59C,0.06800*%
%ADD60C,0.07099*%
%ADD61C,0.08300*%
%ADD62C,0.10249*%
D58*
X377953Y15748D02*
D03*
Y338583D02*
D03*
X15748D02*
D03*
Y15748D02*
D03*
D59*
X342520Y98425D02*
D03*
Y88583D02*
D03*
Y108268D02*
D03*
X271654D02*
D03*
Y88583D02*
D03*
Y98425D02*
D03*
X240158D02*
D03*
Y88583D02*
D03*
Y108268D02*
D03*
X169291D02*
D03*
Y88583D02*
D03*
Y98425D02*
D03*
D60*
X356299Y275118D02*
D03*
Y255118D02*
D03*
Y305118D02*
D03*
Y295118D02*
D03*
Y265118D02*
D03*
X33465Y293937D02*
D03*
Y303937D02*
D03*
Y243937D02*
D03*
Y253937D02*
D03*
Y283937D02*
D03*
D61*
X285276Y259150D02*
D03*
Y269150D02*
D03*
Y249150D02*
D03*
Y289150D02*
D03*
Y299150D02*
D03*
Y279150D02*
D03*
Y319150D02*
D03*
Y309150D02*
D03*
Y223150D02*
D03*
Y233150D02*
D03*
Y193150D02*
D03*
Y213150D02*
D03*
Y203150D02*
D03*
Y163150D02*
D03*
Y183150D02*
D03*
Y173150D02*
D03*
X295276Y329150D02*
D03*
Y339150D02*
D03*
X105276Y303150D02*
D03*
Y293150D02*
D03*
Y283150D02*
D03*
Y263150D02*
D03*
Y273150D02*
D03*
Y243150D02*
D03*
Y253150D02*
D03*
Y233150D02*
D03*
X115276D02*
D03*
Y253150D02*
D03*
Y243150D02*
D03*
Y263150D02*
D03*
Y203150D02*
D03*
Y213150D02*
D03*
Y193150D02*
D03*
X105276D02*
D03*
Y213150D02*
D03*
Y203150D02*
D03*
X115276Y173150D02*
D03*
Y183150D02*
D03*
Y163150D02*
D03*
X105276D02*
D03*
Y183150D02*
D03*
Y173150D02*
D03*
X295276Y163150D02*
D03*
Y183150D02*
D03*
Y173150D02*
D03*
Y193150D02*
D03*
Y213150D02*
D03*
Y203150D02*
D03*
Y223150D02*
D03*
Y233150D02*
D03*
Y319150D02*
D03*
Y309150D02*
D03*
Y289150D02*
D03*
Y299150D02*
D03*
Y279150D02*
D03*
Y259150D02*
D03*
Y269150D02*
D03*
Y249150D02*
D03*
D62*
X177165Y35433D02*
D03*
X187165Y25433D02*
D03*
X167165D02*
D03*
Y45433D02*
D03*
X187165D02*
D03*
X238347D02*
D03*
X218347D02*
D03*
Y25433D02*
D03*
X238347D02*
D03*
X228346Y35433D02*
D03*
X279528D02*
D03*
X289528Y25433D02*
D03*
X269528D02*
D03*
Y45433D02*
D03*
X289528D02*
D03*
X340709D02*
D03*
X320709D02*
D03*
Y25433D02*
D03*
X340709D02*
D03*
X330709Y35433D02*
D03*
X62992Y35433D02*
D03*
X72992Y25433D02*
D03*
X52992D02*
D03*
Y45433D02*
D03*
X72992D02*
D03*
X124173D02*
D03*
X104173D02*
D03*
Y25433D02*
D03*
X124173D02*
D03*
X114173Y35433D02*
D03*
M02*
