G04 Layer_Physical_Order=4*
G04 Layer_Color=16711680*
%FSLAX25Y25*%
%MOIN*%
G70*
G01*
G75*
%ADD22C,0.00984*%
%ADD24C,0.07874*%
%ADD25C,0.03937*%
%ADD26C,0.19685*%
%ADD27C,0.06000*%
%ADD28C,0.06299*%
%ADD29C,0.07500*%
%ADD30C,0.09449*%
%ADD31C,0.03937*%
%ADD32C,0.03150*%
G36*
X369992Y345957D02*
X369154Y344975D01*
X368262Y343520D01*
X367609Y341944D01*
X367211Y340284D01*
X367116Y339083D01*
X377953D01*
Y338583D01*
X378453D01*
Y327746D01*
X379654Y327840D01*
X381314Y328239D01*
X382890Y328892D01*
X384346Y329784D01*
X385327Y330622D01*
X385827Y330391D01*
X385827Y23939D01*
X385327Y23709D01*
X384346Y24547D01*
X382890Y25439D01*
X381314Y26092D01*
X379654Y26490D01*
X378453Y26585D01*
Y15748D01*
X377953D01*
Y15248D01*
X367116D01*
X367211Y14047D01*
X367609Y12387D01*
X368262Y10810D01*
X369154Y9355D01*
X369992Y8374D01*
X369761Y7874D01*
X23939Y7874D01*
X23709Y8374D01*
X24547Y9355D01*
X25439Y10810D01*
X26092Y12387D01*
X26490Y14047D01*
X26585Y15248D01*
X15748D01*
Y15748D01*
X15248D01*
Y26585D01*
X14047Y26490D01*
X12387Y26092D01*
X10810Y25439D01*
X9355Y24547D01*
X8374Y23709D01*
X7874Y23939D01*
X7874Y330391D01*
X8374Y330622D01*
X9355Y329784D01*
X10810Y328892D01*
X12387Y328239D01*
X14047Y327840D01*
X15248Y327746D01*
Y338583D01*
X15748D01*
Y339083D01*
X26585D01*
X26490Y340284D01*
X26092Y341944D01*
X25439Y343520D01*
X24547Y344975D01*
X23709Y345957D01*
X23939Y346457D01*
X369761Y346457D01*
X369992Y345957D01*
D02*
G37*
%LPC*%
G36*
X269028Y51141D02*
X268033Y51010D01*
X266641Y50433D01*
X265445Y49516D01*
X264527Y48320D01*
X263950Y46927D01*
X263820Y45933D01*
X269028D01*
Y51141D01*
D02*
G37*
G36*
X167665D02*
Y45933D01*
X172873D01*
X172742Y46927D01*
X172166Y48320D01*
X171248Y49516D01*
X170052Y50433D01*
X168660Y51010D01*
X167665Y51141D01*
D02*
G37*
G36*
X270028D02*
Y45933D01*
X275236D01*
X275105Y46927D01*
X274528Y48320D01*
X273610Y49516D01*
X272414Y50433D01*
X271022Y51010D01*
X270028Y51141D01*
D02*
G37*
G36*
X166665D02*
X165671Y51010D01*
X164278Y50433D01*
X163083Y49516D01*
X162165Y48320D01*
X161588Y46927D01*
X161457Y45933D01*
X166665D01*
Y51141D01*
D02*
G37*
G36*
X58700Y44933D02*
X53492D01*
Y39725D01*
X54487Y39856D01*
X55879Y40433D01*
X57075Y41350D01*
X57992Y42546D01*
X58569Y43939D01*
X58700Y44933D01*
D02*
G37*
G36*
X109881D02*
X104673D01*
Y39725D01*
X105668Y39856D01*
X107060Y40433D01*
X108256Y41350D01*
X109174Y42546D01*
X109750Y43939D01*
X109881Y44933D01*
D02*
G37*
G36*
X129881Y44933D02*
X124673D01*
Y39725D01*
X125668Y39856D01*
X127060Y40433D01*
X128256Y41350D01*
X129174Y42546D01*
X129750Y43939D01*
X129881Y44933D01*
D02*
G37*
G36*
X186665Y51141D02*
X185671Y51010D01*
X184279Y50433D01*
X183083Y49516D01*
X182165Y48320D01*
X181588Y46927D01*
X181457Y45933D01*
X186665D01*
Y51141D01*
D02*
G37*
G36*
X290028D02*
Y45933D01*
X295236D01*
X295105Y46927D01*
X294528Y48320D01*
X293610Y49516D01*
X292414Y50433D01*
X291022Y51010D01*
X290028Y51141D01*
D02*
G37*
G36*
X340209D02*
X339214Y51010D01*
X337822Y50433D01*
X336626Y49516D01*
X335708Y48320D01*
X335132Y46927D01*
X335001Y45933D01*
X340209D01*
Y51141D01*
D02*
G37*
G36*
X341209D02*
Y45933D01*
X346417D01*
X346286Y46927D01*
X345709Y48320D01*
X344791Y49516D01*
X343596Y50433D01*
X342203Y51010D01*
X341209Y51141D01*
D02*
G37*
G36*
X289028D02*
X288033Y51010D01*
X286641Y50433D01*
X285445Y49516D01*
X284527Y48320D01*
X283950Y46927D01*
X283820Y45933D01*
X289028D01*
Y51141D01*
D02*
G37*
G36*
X187665D02*
Y45933D01*
X192873D01*
X192742Y46927D01*
X192166Y48320D01*
X191248Y49516D01*
X190052Y50433D01*
X188660Y51010D01*
X187665Y51141D01*
D02*
G37*
G36*
X237846D02*
X236852Y51010D01*
X235460Y50433D01*
X234264Y49516D01*
X233346Y48320D01*
X232769Y46927D01*
X232639Y45933D01*
X237846D01*
Y51141D01*
D02*
G37*
G36*
X238846D02*
Y45933D01*
X244054D01*
X243923Y46927D01*
X243347Y48320D01*
X242429Y49516D01*
X241233Y50433D01*
X239841Y51010D01*
X238846Y51141D01*
D02*
G37*
G36*
X340209Y44933D02*
X335001D01*
X335132Y43939D01*
X335708Y42546D01*
X336626Y41350D01*
X337822Y40433D01*
X339214Y39856D01*
X340209Y39725D01*
Y44933D01*
D02*
G37*
G36*
X346417D02*
X341209D01*
Y39725D01*
X342203Y39856D01*
X343596Y40433D01*
X344791Y41350D01*
X345709Y42546D01*
X346286Y43939D01*
X346417Y44933D01*
D02*
G37*
G36*
X217846Y44933D02*
X212638D01*
X212769Y43939D01*
X213346Y42546D01*
X214264Y41350D01*
X215460Y40433D01*
X216852Y39856D01*
X217846Y39725D01*
Y44933D01*
D02*
G37*
G36*
X295236Y44933D02*
X290028D01*
Y39725D01*
X291022Y39856D01*
X292414Y40433D01*
X293610Y41350D01*
X294528Y42546D01*
X295105Y43939D01*
X295236Y44933D01*
D02*
G37*
G36*
X237846D02*
X232639D01*
X232769Y43939D01*
X233346Y42546D01*
X234264Y41350D01*
X235460Y40433D01*
X236852Y39856D01*
X237846Y39725D01*
Y44933D01*
D02*
G37*
G36*
X244054D02*
X238846D01*
Y39725D01*
X239841Y39856D01*
X241233Y40433D01*
X242429Y41350D01*
X243347Y42546D01*
X243923Y43939D01*
X244054Y44933D01*
D02*
G37*
G36*
X289028D02*
X283820D01*
X283950Y43939D01*
X284527Y42546D01*
X285445Y41350D01*
X286641Y40433D01*
X288033Y39856D01*
X289028Y39725D01*
Y44933D01*
D02*
G37*
G36*
X320209Y44933D02*
X315001D01*
X315132Y43939D01*
X315708Y42546D01*
X316626Y41350D01*
X317822Y40433D01*
X319214Y39856D01*
X320209Y39725D01*
Y44933D01*
D02*
G37*
G36*
X72492D02*
X67284D01*
X67415Y43939D01*
X67992Y42546D01*
X68909Y41350D01*
X70105Y40433D01*
X71498Y39856D01*
X72492Y39725D01*
Y44933D01*
D02*
G37*
G36*
X78700D02*
X73492D01*
Y39725D01*
X74487Y39856D01*
X75879Y40433D01*
X77075Y41350D01*
X77992Y42546D01*
X78569Y43939D01*
X78700Y44933D01*
D02*
G37*
G36*
X123673D02*
X118465D01*
X118596Y43939D01*
X119173Y42546D01*
X120090Y41350D01*
X121286Y40433D01*
X122679Y39856D01*
X123673Y39725D01*
Y44933D01*
D02*
G37*
G36*
X103673Y44933D02*
X98465D01*
X98596Y43939D01*
X99173Y42546D01*
X100091Y41350D01*
X101286Y40433D01*
X102679Y39856D01*
X103673Y39725D01*
Y44933D01*
D02*
G37*
G36*
X172873Y44933D02*
X167665D01*
Y39725D01*
X168660Y39856D01*
X170052Y40433D01*
X171248Y41350D01*
X172166Y42546D01*
X172742Y43939D01*
X172873Y44933D01*
D02*
G37*
G36*
X275236D02*
X270028D01*
Y39725D01*
X271022Y39856D01*
X272414Y40433D01*
X273610Y41350D01*
X274528Y42546D01*
X275105Y43939D01*
X275236Y44933D01*
D02*
G37*
G36*
X52492Y44933D02*
X47284D01*
X47415Y43939D01*
X47992Y42546D01*
X48909Y41350D01*
X50105Y40433D01*
X51498Y39856D01*
X52492Y39725D01*
Y44933D01*
D02*
G37*
G36*
X217846Y51141D02*
X216852Y51010D01*
X215460Y50433D01*
X214264Y49516D01*
X213346Y48320D01*
X212769Y46927D01*
X212638Y45933D01*
X217846D01*
Y51141D01*
D02*
G37*
G36*
X240158Y92220D02*
X239216Y92096D01*
X238339Y91733D01*
X237585Y91155D01*
X237007Y90401D01*
X236644Y89524D01*
X236520Y88583D01*
X236644Y87641D01*
X237007Y86764D01*
X237585Y86011D01*
X238339Y85433D01*
X239216Y85069D01*
X240158Y84945D01*
X241099Y85069D01*
X241976Y85433D01*
X242729Y86011D01*
X243308Y86764D01*
X243671Y87641D01*
X243795Y88583D01*
X243671Y89524D01*
X243308Y90401D01*
X242729Y91155D01*
X241976Y91733D01*
X241099Y92096D01*
X240158Y92220D01*
D02*
G37*
G36*
X271654D02*
X270712Y92096D01*
X269835Y91733D01*
X269081Y91155D01*
X268503Y90401D01*
X268140Y89524D01*
X268016Y88583D01*
X268140Y87641D01*
X268503Y86764D01*
X269081Y86011D01*
X269835Y85433D01*
X270712Y85069D01*
X271654Y84945D01*
X272595Y85069D01*
X273472Y85433D01*
X274226Y86011D01*
X274804Y86764D01*
X275167Y87641D01*
X275291Y88583D01*
X275167Y89524D01*
X274804Y90401D01*
X274226Y91155D01*
X273472Y91733D01*
X272595Y92096D01*
X271654Y92220D01*
D02*
G37*
G36*
X342520D02*
X341578Y92096D01*
X340701Y91733D01*
X339948Y91155D01*
X339370Y90401D01*
X339006Y89524D01*
X338882Y88583D01*
X339006Y87641D01*
X339370Y86764D01*
X339948Y86011D01*
X340701Y85433D01*
X341578Y85069D01*
X342520Y84945D01*
X343461Y85069D01*
X344338Y85433D01*
X345092Y86011D01*
X345670Y86764D01*
X346033Y87641D01*
X346157Y88583D01*
X346033Y89524D01*
X345670Y90401D01*
X345092Y91155D01*
X344338Y91733D01*
X343461Y92096D01*
X342520Y92220D01*
D02*
G37*
G36*
X169291D02*
X168350Y92096D01*
X167473Y91733D01*
X166719Y91155D01*
X166141Y90401D01*
X165778Y89524D01*
X165654Y88583D01*
X165778Y87641D01*
X166141Y86764D01*
X166719Y86011D01*
X167473Y85433D01*
X168350Y85069D01*
X169291Y84945D01*
X170233Y85069D01*
X171110Y85433D01*
X171863Y86011D01*
X172441Y86764D01*
X172805Y87641D01*
X172929Y88583D01*
X172805Y89524D01*
X172441Y90401D01*
X171863Y91155D01*
X171110Y91733D01*
X170233Y92096D01*
X169291Y92220D01*
D02*
G37*
G36*
X33465Y288520D02*
X32278Y288363D01*
X31173Y287906D01*
X30224Y287177D01*
X29496Y286228D01*
X29038Y285123D01*
X28882Y283937D01*
X29038Y282751D01*
X29496Y281646D01*
X30224Y280697D01*
X50929Y259992D01*
Y122371D01*
X42409Y113851D01*
X41681Y112901D01*
X41223Y111796D01*
X41067Y110610D01*
Y83051D01*
X41223Y81865D01*
X41681Y80760D01*
X42409Y79811D01*
X43358Y79083D01*
X44464Y78625D01*
X45650Y78469D01*
X46836Y78625D01*
X47941Y79083D01*
X48890Y79811D01*
X49618Y80760D01*
X50076Y81865D01*
X50232Y83051D01*
Y108712D01*
X58752Y117232D01*
X59480Y118181D01*
X59938Y119286D01*
X60094Y120472D01*
Y261890D01*
X60016Y262483D01*
X59938Y263076D01*
X59480Y264181D01*
X58752Y265130D01*
X36705Y287177D01*
X35756Y287906D01*
X34651Y288363D01*
X33465Y288520D01*
D02*
G37*
G36*
X55012Y80878D02*
X54840Y80855D01*
X54213Y80596D01*
X53675Y80183D01*
X53263Y79645D01*
X53003Y79019D01*
X52981Y78847D01*
X55012D01*
Y80878D01*
D02*
G37*
G36*
X56012D02*
Y78847D01*
X58043D01*
X58020Y79019D01*
X57761Y79645D01*
X57348Y80183D01*
X56810Y80596D01*
X56184Y80855D01*
X56012Y80878D01*
D02*
G37*
G36*
X169291Y102063D02*
X168350Y101939D01*
X167473Y101575D01*
X166719Y100997D01*
X166141Y100244D01*
X165778Y99367D01*
X165654Y98425D01*
X165778Y97484D01*
X166141Y96606D01*
X166719Y95853D01*
X167473Y95275D01*
X168350Y94912D01*
X169291Y94788D01*
X170233Y94912D01*
X171110Y95275D01*
X171863Y95853D01*
X172441Y96606D01*
X172805Y97484D01*
X172929Y98425D01*
X172805Y99367D01*
X172441Y100244D01*
X171863Y100997D01*
X171110Y101575D01*
X170233Y101939D01*
X169291Y102063D01*
D02*
G37*
G36*
X92295Y102256D02*
X90264D01*
Y100225D01*
X90436Y100247D01*
X91062Y100507D01*
X91600Y100919D01*
X92013Y101457D01*
X92272Y102084D01*
X92295Y102256D01*
D02*
G37*
G36*
X89264Y105287D02*
X89092Y105264D01*
X88465Y105005D01*
X87927Y104592D01*
X87515Y104054D01*
X87255Y103428D01*
X87233Y103256D01*
X89264D01*
Y105287D01*
D02*
G37*
G36*
X90264D02*
Y103256D01*
X92295D01*
X92272Y103428D01*
X92013Y104054D01*
X91600Y104592D01*
X91062Y105005D01*
X90436Y105264D01*
X90264Y105287D01*
D02*
G37*
G36*
X89264Y102256D02*
X87233D01*
X87255Y102084D01*
X87515Y101457D01*
X87927Y100919D01*
X88465Y100507D01*
X89092Y100247D01*
X89264Y100225D01*
Y102256D01*
D02*
G37*
G36*
X240158Y102063D02*
X239216Y101939D01*
X238339Y101575D01*
X237585Y100997D01*
X237007Y100244D01*
X236644Y99367D01*
X236520Y98425D01*
X236644Y97484D01*
X237007Y96606D01*
X237585Y95853D01*
X238339Y95275D01*
X239216Y94912D01*
X240158Y94788D01*
X241099Y94912D01*
X241976Y95275D01*
X242729Y95853D01*
X243308Y96606D01*
X243671Y97484D01*
X243795Y98425D01*
X243671Y99367D01*
X243308Y100244D01*
X242729Y100997D01*
X241976Y101575D01*
X241099Y101939D01*
X240158Y102063D01*
D02*
G37*
G36*
X271654D02*
X270712Y101939D01*
X269835Y101575D01*
X269081Y100997D01*
X268503Y100244D01*
X268140Y99367D01*
X268016Y98425D01*
X268140Y97484D01*
X268503Y96606D01*
X269081Y95853D01*
X269835Y95275D01*
X270712Y94912D01*
X271654Y94788D01*
X272595Y94912D01*
X273472Y95275D01*
X274226Y95853D01*
X274804Y96606D01*
X275167Y97484D01*
X275291Y98425D01*
X275167Y99367D01*
X274804Y100244D01*
X274226Y100997D01*
X273472Y101575D01*
X272595Y101939D01*
X271654Y102063D01*
D02*
G37*
G36*
X342520D02*
X341578Y101939D01*
X340701Y101575D01*
X339948Y100997D01*
X339370Y100244D01*
X339006Y99367D01*
X338882Y98425D01*
X339006Y97484D01*
X339370Y96606D01*
X339948Y95853D01*
X340701Y95275D01*
X341578Y94912D01*
X342520Y94788D01*
X343461Y94912D01*
X344338Y95275D01*
X345092Y95853D01*
X345670Y96606D01*
X346033Y97484D01*
X346157Y98425D01*
X346033Y99367D01*
X345670Y100244D01*
X345092Y100997D01*
X344338Y101575D01*
X343461Y101939D01*
X342520Y102063D01*
D02*
G37*
G36*
X124673Y51141D02*
Y45933D01*
X129881D01*
X129750Y46927D01*
X129174Y48320D01*
X128256Y49516D01*
X127060Y50433D01*
X125668Y51010D01*
X124673Y51141D01*
D02*
G37*
G36*
X218847Y51141D02*
Y45933D01*
X224054D01*
X223923Y46927D01*
X223347Y48320D01*
X222429Y49516D01*
X221233Y50433D01*
X219841Y51010D01*
X218847Y51141D01*
D02*
G37*
G36*
X321209D02*
Y45933D01*
X326417D01*
X326286Y46927D01*
X325709Y48320D01*
X324791Y49516D01*
X323596Y50433D01*
X322203Y51010D01*
X321209Y51141D01*
D02*
G37*
G36*
X123673Y51141D02*
X122679Y51010D01*
X121286Y50433D01*
X120090Y49516D01*
X119173Y48320D01*
X118596Y46927D01*
X118465Y45933D01*
X123673D01*
Y51141D01*
D02*
G37*
G36*
X320209Y51141D02*
X319214Y51010D01*
X317822Y50433D01*
X316626Y49516D01*
X315708Y48320D01*
X315132Y46927D01*
X315001Y45933D01*
X320209D01*
Y51141D01*
D02*
G37*
G36*
X72492Y51141D02*
X71498Y51010D01*
X70105Y50433D01*
X68909Y49516D01*
X67992Y48320D01*
X67415Y46927D01*
X67284Y45933D01*
X72492D01*
Y51141D01*
D02*
G37*
G36*
X73492D02*
Y45933D01*
X78700D01*
X78569Y46927D01*
X77992Y48320D01*
X77075Y49516D01*
X75879Y50433D01*
X74487Y51010D01*
X73492Y51141D01*
D02*
G37*
G36*
X52492D02*
X51498Y51010D01*
X50105Y50433D01*
X48909Y49516D01*
X47992Y48320D01*
X47415Y46927D01*
X47284Y45933D01*
X52492D01*
Y51141D01*
D02*
G37*
G36*
X295965Y73837D02*
X295292Y73749D01*
X294666Y73489D01*
X294128Y73076D01*
X293716Y72539D01*
X293456Y71912D01*
X293368Y71240D01*
X293456Y70568D01*
X293716Y69942D01*
X294128Y69404D01*
X294666Y68991D01*
X295292Y68732D01*
X295965Y68643D01*
X296637Y68732D01*
X297263Y68991D01*
X297801Y69404D01*
X298214Y69942D01*
X298473Y70568D01*
X298562Y71240D01*
X298473Y71912D01*
X298214Y72539D01*
X297801Y73076D01*
X297263Y73489D01*
X296637Y73749D01*
X295965Y73837D01*
D02*
G37*
G36*
X55012Y77846D02*
X52981D01*
X53003Y77674D01*
X53263Y77048D01*
X53675Y76510D01*
X54213Y76097D01*
X54840Y75838D01*
X55012Y75815D01*
Y77846D01*
D02*
G37*
G36*
X58043D02*
X56012D01*
Y75815D01*
X56184Y75838D01*
X56810Y76097D01*
X57348Y76510D01*
X57761Y77048D01*
X58020Y77674D01*
X58043Y77846D01*
D02*
G37*
G36*
X193602Y73837D02*
X192930Y73749D01*
X192304Y73489D01*
X191766Y73076D01*
X191353Y72539D01*
X191094Y71912D01*
X191005Y71240D01*
X191094Y70568D01*
X191353Y69942D01*
X191766Y69404D01*
X192304Y68991D01*
X192930Y68732D01*
X193602Y68643D01*
X194274Y68732D01*
X194901Y68991D01*
X195439Y69404D01*
X195852Y69942D01*
X196111Y70568D01*
X196199Y71240D01*
X196111Y71912D01*
X195852Y72539D01*
X195439Y73076D01*
X194901Y73489D01*
X194274Y73749D01*
X193602Y73837D01*
D02*
G37*
G36*
X103673Y51141D02*
X102679Y51010D01*
X101286Y50433D01*
X100091Y49516D01*
X99173Y48320D01*
X98596Y46927D01*
X98465Y45933D01*
X103673D01*
Y51141D01*
D02*
G37*
G36*
X53492D02*
Y45933D01*
X58700D01*
X58569Y46927D01*
X57992Y48320D01*
X57075Y49516D01*
X55879Y50433D01*
X54487Y51010D01*
X53492Y51141D01*
D02*
G37*
G36*
X104673D02*
Y45933D01*
X109881D01*
X109750Y46927D01*
X109174Y48320D01*
X108256Y49516D01*
X107060Y50433D01*
X105668Y51010D01*
X104673Y51141D01*
D02*
G37*
G36*
X192873Y44933D02*
X187665D01*
Y39725D01*
X188660Y39856D01*
X190052Y40433D01*
X191248Y41350D01*
X192166Y42546D01*
X192742Y43939D01*
X192873Y44933D01*
D02*
G37*
G36*
X129881Y24933D02*
X124673D01*
Y19725D01*
X125668Y19856D01*
X127060Y20433D01*
X128256Y21350D01*
X129174Y22546D01*
X129750Y23939D01*
X129881Y24933D01*
D02*
G37*
G36*
X52492Y24933D02*
X47284D01*
X47415Y23939D01*
X47992Y22546D01*
X48909Y21350D01*
X50105Y20433D01*
X51498Y19856D01*
X52492Y19725D01*
Y24933D01*
D02*
G37*
G36*
X103673D02*
X98465D01*
X98596Y23939D01*
X99173Y22546D01*
X100091Y21350D01*
X101286Y20433D01*
X102679Y19856D01*
X103673Y19725D01*
Y24933D01*
D02*
G37*
G36*
X78700Y24933D02*
X73492D01*
Y19725D01*
X74487Y19856D01*
X75879Y20433D01*
X77075Y21350D01*
X77992Y22546D01*
X78569Y23939D01*
X78700Y24933D01*
D02*
G37*
G36*
X320209Y24933D02*
X315001D01*
X315132Y23939D01*
X315708Y22546D01*
X316626Y21350D01*
X317822Y20433D01*
X319214Y19856D01*
X320209Y19725D01*
Y24933D01*
D02*
G37*
G36*
X172873D02*
X167665D01*
Y19725D01*
X168660Y19856D01*
X170052Y20433D01*
X171248Y21350D01*
X172166Y22546D01*
X172742Y23939D01*
X172873Y24933D01*
D02*
G37*
G36*
X275236D02*
X270028D01*
Y19725D01*
X271022Y19856D01*
X272414Y20433D01*
X273610Y21350D01*
X274528Y22546D01*
X275105Y23939D01*
X275236Y24933D01*
D02*
G37*
G36*
X58700Y24933D02*
X53492D01*
Y19725D01*
X54487Y19856D01*
X55879Y20433D01*
X57075Y21350D01*
X57992Y22546D01*
X58569Y23939D01*
X58700Y24933D01*
D02*
G37*
G36*
X340209Y31141D02*
X339214Y31010D01*
X337822Y30433D01*
X336626Y29516D01*
X335708Y28320D01*
X335132Y26927D01*
X335001Y25933D01*
X340209D01*
Y31141D01*
D02*
G37*
G36*
X238846D02*
Y25933D01*
X244054D01*
X243923Y26927D01*
X243347Y28320D01*
X242429Y29516D01*
X241233Y30433D01*
X239841Y31010D01*
X238846Y31141D01*
D02*
G37*
G36*
X341209D02*
Y25933D01*
X346417D01*
X346286Y26927D01*
X345709Y28320D01*
X344791Y29516D01*
X343596Y30433D01*
X342203Y31010D01*
X341209Y31141D01*
D02*
G37*
G36*
X237846D02*
X236852Y31010D01*
X235460Y30433D01*
X234264Y29516D01*
X233346Y28320D01*
X232769Y26927D01*
X232639Y25933D01*
X237846D01*
Y31141D01*
D02*
G37*
G36*
X109881Y24933D02*
X104673D01*
Y19725D01*
X105668Y19856D01*
X107060Y20433D01*
X108256Y21350D01*
X109174Y22546D01*
X109750Y23939D01*
X109881Y24933D01*
D02*
G37*
G36*
X123673Y24933D02*
X118465D01*
X118596Y23939D01*
X119173Y22546D01*
X120090Y21350D01*
X121286Y20433D01*
X122679Y19856D01*
X123673Y19725D01*
Y24933D01*
D02*
G37*
G36*
X72492D02*
X67284D01*
X67415Y23939D01*
X67992Y22546D01*
X68909Y21350D01*
X70105Y20433D01*
X71498Y19856D01*
X72492Y19725D01*
Y24933D01*
D02*
G37*
G36*
X224054Y24933D02*
X218847D01*
Y19725D01*
X219841Y19856D01*
X221233Y20433D01*
X222429Y21350D01*
X223347Y22546D01*
X223923Y23939D01*
X224054Y24933D01*
D02*
G37*
G36*
X326417D02*
X321209D01*
Y19725D01*
X322203Y19856D01*
X323596Y20433D01*
X324791Y21350D01*
X325709Y22546D01*
X326286Y23939D01*
X326417Y24933D01*
D02*
G37*
G36*
X186665Y24933D02*
X181457D01*
X181588Y23939D01*
X182165Y22546D01*
X183083Y21350D01*
X184279Y20433D01*
X185671Y19856D01*
X186665Y19725D01*
Y24933D01*
D02*
G37*
G36*
X269028Y24933D02*
X263820D01*
X263950Y23939D01*
X264527Y22546D01*
X265445Y21350D01*
X266641Y20433D01*
X268033Y19856D01*
X269028Y19725D01*
Y24933D01*
D02*
G37*
G36*
X16248Y26585D02*
Y16248D01*
X26585D01*
X26490Y17449D01*
X26092Y19109D01*
X25439Y20686D01*
X24547Y22141D01*
X23439Y23439D01*
X22141Y24547D01*
X20686Y25439D01*
X19109Y26092D01*
X17449Y26490D01*
X16248Y26585D01*
D02*
G37*
G36*
X377453D02*
X376251Y26490D01*
X374592Y26092D01*
X373015Y25439D01*
X371560Y24547D01*
X370262Y23439D01*
X369154Y22141D01*
X368262Y20686D01*
X367609Y19109D01*
X367211Y17449D01*
X367116Y16248D01*
X377453D01*
Y26585D01*
D02*
G37*
G36*
X166665Y24933D02*
X161457D01*
X161588Y23939D01*
X162165Y22546D01*
X163083Y21350D01*
X164278Y20433D01*
X165671Y19856D01*
X166665Y19725D01*
Y24933D01*
D02*
G37*
G36*
X289028Y24933D02*
X283820D01*
X283950Y23939D01*
X284527Y22546D01*
X285445Y21350D01*
X286641Y20433D01*
X288033Y19856D01*
X289028Y19725D01*
Y24933D01*
D02*
G37*
G36*
X192873D02*
X187665D01*
Y19725D01*
X188660Y19856D01*
X190052Y20433D01*
X191248Y21350D01*
X192166Y22546D01*
X192742Y23939D01*
X192873Y24933D01*
D02*
G37*
G36*
X295236D02*
X290028D01*
Y19725D01*
X291022Y19856D01*
X292414Y20433D01*
X293610Y21350D01*
X294528Y22546D01*
X295105Y23939D01*
X295236Y24933D01*
D02*
G37*
G36*
X217846Y24933D02*
X212638D01*
X212769Y23939D01*
X213346Y22546D01*
X214264Y21350D01*
X215460Y20433D01*
X216852Y19856D01*
X217846Y19725D01*
Y24933D01*
D02*
G37*
G36*
X340209Y24933D02*
X335001D01*
X335132Y23939D01*
X335708Y22546D01*
X336626Y21350D01*
X337822Y20433D01*
X339214Y19856D01*
X340209Y19725D01*
Y24933D01*
D02*
G37*
G36*
X244054D02*
X238846D01*
Y19725D01*
X239841Y19856D01*
X241233Y20433D01*
X242429Y21350D01*
X243347Y22546D01*
X243923Y23939D01*
X244054Y24933D01*
D02*
G37*
G36*
X346417D02*
X341209D01*
Y19725D01*
X342203Y19856D01*
X343596Y20433D01*
X344791Y21350D01*
X345709Y22546D01*
X346286Y23939D01*
X346417Y24933D01*
D02*
G37*
G36*
X237846D02*
X232639D01*
X232769Y23939D01*
X233346Y22546D01*
X234264Y21350D01*
X235460Y20433D01*
X236852Y19856D01*
X237846Y19725D01*
Y24933D01*
D02*
G37*
G36*
X166665Y31141D02*
X165671Y31010D01*
X164278Y30433D01*
X163083Y29516D01*
X162165Y28320D01*
X161588Y26927D01*
X161457Y25933D01*
X166665D01*
Y31141D01*
D02*
G37*
G36*
X177165Y40810D02*
X175774Y40627D01*
X174477Y40089D01*
X173363Y39235D01*
X172509Y38121D01*
X171972Y36825D01*
X171789Y35433D01*
X171972Y34042D01*
X172509Y32745D01*
X173363Y31631D01*
X174477Y30777D01*
X175774Y30240D01*
X177165Y30056D01*
X178557Y30240D01*
X179854Y30777D01*
X180967Y31631D01*
X181822Y32745D01*
X182359Y34042D01*
X182542Y35433D01*
X182359Y36825D01*
X181822Y38121D01*
X180967Y39235D01*
X179854Y40089D01*
X178557Y40627D01*
X177165Y40810D01*
D02*
G37*
G36*
X228346D02*
X226955Y40627D01*
X225658Y40089D01*
X224545Y39235D01*
X223690Y38121D01*
X223153Y36825D01*
X222970Y35433D01*
X223153Y34042D01*
X223690Y32745D01*
X224545Y31631D01*
X225658Y30777D01*
X226955Y30240D01*
X228346Y30056D01*
X229738Y30240D01*
X231035Y30777D01*
X232148Y31631D01*
X233003Y32745D01*
X233540Y34042D01*
X233723Y35433D01*
X233540Y36825D01*
X233003Y38121D01*
X232148Y39235D01*
X231035Y40089D01*
X229738Y40627D01*
X228346Y40810D01*
D02*
G37*
G36*
X279528D02*
X278136Y40627D01*
X276839Y40089D01*
X275726Y39235D01*
X274871Y38121D01*
X274334Y36825D01*
X274151Y35433D01*
X274334Y34042D01*
X274871Y32745D01*
X275726Y31631D01*
X276839Y30777D01*
X278136Y30240D01*
X279528Y30056D01*
X280919Y30240D01*
X282216Y30777D01*
X283330Y31631D01*
X284184Y32745D01*
X284721Y34042D01*
X284904Y35433D01*
X284721Y36825D01*
X284184Y38121D01*
X283330Y39235D01*
X282216Y40089D01*
X280919Y40627D01*
X279528Y40810D01*
D02*
G37*
G36*
X104673Y31141D02*
Y25933D01*
X109881D01*
X109750Y26927D01*
X109174Y28320D01*
X108256Y29516D01*
X107060Y30433D01*
X105668Y31010D01*
X104673Y31141D01*
D02*
G37*
G36*
X52492D02*
X51498Y31010D01*
X50105Y30433D01*
X48909Y29516D01*
X47992Y28320D01*
X47415Y26927D01*
X47284Y25933D01*
X52492D01*
Y31141D01*
D02*
G37*
G36*
X103673D02*
X102679Y31010D01*
X101286Y30433D01*
X100091Y29516D01*
X99173Y28320D01*
X98596Y26927D01*
X98465Y25933D01*
X103673D01*
Y31141D01*
D02*
G37*
G36*
X53492D02*
Y25933D01*
X58700D01*
X58569Y26927D01*
X57992Y28320D01*
X57075Y29516D01*
X55879Y30433D01*
X54487Y31010D01*
X53492Y31141D01*
D02*
G37*
G36*
X330709Y40810D02*
X329317Y40627D01*
X328020Y40089D01*
X326907Y39235D01*
X326052Y38121D01*
X325515Y36825D01*
X325332Y35433D01*
X325515Y34042D01*
X326052Y32745D01*
X326907Y31631D01*
X328020Y30777D01*
X329317Y30240D01*
X330709Y30056D01*
X332100Y30240D01*
X333397Y30777D01*
X334511Y31631D01*
X335365Y32745D01*
X335902Y34042D01*
X336085Y35433D01*
X335902Y36825D01*
X335365Y38121D01*
X334511Y39235D01*
X333397Y40089D01*
X332100Y40627D01*
X330709Y40810D01*
D02*
G37*
G36*
X224054Y44933D02*
X218847D01*
Y39725D01*
X219841Y39856D01*
X221233Y40433D01*
X222429Y41350D01*
X223347Y42546D01*
X223923Y43939D01*
X224054Y44933D01*
D02*
G37*
G36*
X326417D02*
X321209D01*
Y39725D01*
X322203Y39856D01*
X323596Y40433D01*
X324791Y41350D01*
X325709Y42546D01*
X326286Y43939D01*
X326417Y44933D01*
D02*
G37*
G36*
X186665Y44933D02*
X181457D01*
X181588Y43939D01*
X182165Y42546D01*
X183083Y41350D01*
X184279Y40433D01*
X185671Y39856D01*
X186665Y39725D01*
Y44933D01*
D02*
G37*
G36*
X269028Y44933D02*
X263820D01*
X263950Y43939D01*
X264527Y42546D01*
X265445Y41350D01*
X266641Y40433D01*
X268033Y39856D01*
X269028Y39725D01*
Y44933D01*
D02*
G37*
G36*
X62992Y40810D02*
X61601Y40627D01*
X60304Y40089D01*
X59190Y39235D01*
X58336Y38121D01*
X57799Y36825D01*
X57615Y35433D01*
X57799Y34042D01*
X58336Y32745D01*
X59190Y31631D01*
X60304Y30777D01*
X61601Y30240D01*
X62992Y30056D01*
X64384Y30240D01*
X65680Y30777D01*
X66794Y31631D01*
X67649Y32745D01*
X68186Y34042D01*
X68369Y35433D01*
X68186Y36825D01*
X67649Y38121D01*
X66794Y39235D01*
X65680Y40089D01*
X64384Y40627D01*
X62992Y40810D01*
D02*
G37*
G36*
X114173D02*
X112782Y40627D01*
X111485Y40089D01*
X110371Y39235D01*
X109517Y38121D01*
X108980Y36825D01*
X108797Y35433D01*
X108980Y34042D01*
X109517Y32745D01*
X110371Y31631D01*
X111485Y30777D01*
X112782Y30240D01*
X114173Y30056D01*
X115565Y30240D01*
X116862Y30777D01*
X117975Y31631D01*
X118830Y32745D01*
X119367Y34042D01*
X119550Y35433D01*
X119367Y36825D01*
X118830Y38121D01*
X117975Y39235D01*
X116862Y40089D01*
X115565Y40627D01*
X114173Y40810D01*
D02*
G37*
G36*
X166665Y44933D02*
X161457D01*
X161588Y43939D01*
X162165Y42546D01*
X163083Y41350D01*
X164278Y40433D01*
X165671Y39856D01*
X166665Y39725D01*
Y44933D01*
D02*
G37*
G36*
X321209Y31141D02*
Y25933D01*
X326417D01*
X326286Y26927D01*
X325709Y28320D01*
X324791Y29516D01*
X323596Y30433D01*
X322203Y31010D01*
X321209Y31141D01*
D02*
G37*
G36*
X167665Y31141D02*
Y25933D01*
X172873D01*
X172742Y26927D01*
X172166Y28320D01*
X171248Y29516D01*
X170052Y30433D01*
X168660Y31010D01*
X167665Y31141D01*
D02*
G37*
G36*
X270028D02*
Y25933D01*
X275236D01*
X275105Y26927D01*
X274528Y28320D01*
X273610Y29516D01*
X272414Y30433D01*
X271022Y31010D01*
X270028Y31141D01*
D02*
G37*
G36*
X218847Y31141D02*
Y25933D01*
X224054D01*
X223923Y26927D01*
X223347Y28320D01*
X222429Y29516D01*
X221233Y30433D01*
X219841Y31010D01*
X218847Y31141D01*
D02*
G37*
G36*
X269028D02*
X268033Y31010D01*
X266641Y30433D01*
X265445Y29516D01*
X264527Y28320D01*
X263950Y26927D01*
X263820Y25933D01*
X269028D01*
Y31141D01*
D02*
G37*
G36*
X217846Y31141D02*
X216852Y31010D01*
X215460Y30433D01*
X214264Y29516D01*
X213346Y28320D01*
X212769Y26927D01*
X212638Y25933D01*
X217846D01*
Y31141D01*
D02*
G37*
G36*
X320209D02*
X319214Y31010D01*
X317822Y30433D01*
X316626Y29516D01*
X315708Y28320D01*
X315132Y26927D01*
X315001Y25933D01*
X320209D01*
Y31141D01*
D02*
G37*
G36*
X186665D02*
X185671Y31010D01*
X184279Y30433D01*
X183083Y29516D01*
X182165Y28320D01*
X181588Y26927D01*
X181457Y25933D01*
X186665D01*
Y31141D01*
D02*
G37*
G36*
X123673Y31141D02*
X122679Y31010D01*
X121286Y30433D01*
X120090Y29516D01*
X119173Y28320D01*
X118596Y26927D01*
X118465Y25933D01*
X123673D01*
Y31141D01*
D02*
G37*
G36*
X73492D02*
Y25933D01*
X78700D01*
X78569Y26927D01*
X77992Y28320D01*
X77075Y29516D01*
X75879Y30433D01*
X74487Y31010D01*
X73492Y31141D01*
D02*
G37*
G36*
X124673D02*
Y25933D01*
X129881D01*
X129750Y26927D01*
X129174Y28320D01*
X128256Y29516D01*
X127060Y30433D01*
X125668Y31010D01*
X124673Y31141D01*
D02*
G37*
G36*
X72492D02*
X71498Y31010D01*
X70105Y30433D01*
X68909Y29516D01*
X67992Y28320D01*
X67415Y26927D01*
X67284Y25933D01*
X72492D01*
Y31141D01*
D02*
G37*
G36*
X289028Y31141D02*
X288033Y31010D01*
X286641Y30433D01*
X285445Y29516D01*
X284527Y28320D01*
X283950Y26927D01*
X283820Y25933D01*
X289028D01*
Y31141D01*
D02*
G37*
G36*
X187665D02*
Y25933D01*
X192873D01*
X192742Y26927D01*
X192166Y28320D01*
X191248Y29516D01*
X190052Y30433D01*
X188660Y31010D01*
X187665Y31141D01*
D02*
G37*
G36*
X290028D02*
Y25933D01*
X295236D01*
X295105Y26927D01*
X294528Y28320D01*
X293610Y29516D01*
X292414Y30433D01*
X291022Y31010D01*
X290028Y31141D01*
D02*
G37*
G36*
X104776Y257875D02*
X104036Y257777D01*
X102880Y257299D01*
X101888Y256537D01*
X101127Y255545D01*
X100648Y254390D01*
X100550Y253650D01*
X104776D01*
Y257875D01*
D02*
G37*
G36*
X105776D02*
Y253650D01*
X110001D01*
X109903Y254390D01*
X109425Y255545D01*
X108663Y256537D01*
X107671Y257299D01*
X106516Y257777D01*
X105776Y257875D01*
D02*
G37*
G36*
X32965Y258057D02*
X32381Y257980D01*
X31372Y257562D01*
X30505Y256896D01*
X29840Y256030D01*
X29422Y255020D01*
X29345Y254437D01*
X32965D01*
Y258057D01*
D02*
G37*
G36*
X356299Y258906D02*
X355319Y258777D01*
X354405Y258399D01*
X353621Y257797D01*
X353018Y257012D01*
X352640Y256099D01*
X352511Y255118D01*
X352640Y254138D01*
X353018Y253224D01*
X353621Y252439D01*
X354405Y251837D01*
X355319Y251459D01*
X356299Y251330D01*
X357280Y251459D01*
X358193Y251837D01*
X358978Y252439D01*
X359580Y253224D01*
X359958Y254138D01*
X360087Y255118D01*
X359958Y256099D01*
X359580Y257012D01*
X358978Y257797D01*
X358193Y258399D01*
X357280Y258777D01*
X356299Y258906D01*
D02*
G37*
G36*
X115276Y257543D02*
X114138Y257394D01*
X113079Y256955D01*
X112169Y256257D01*
X111470Y255346D01*
X111031Y254287D01*
X110882Y253150D01*
X111031Y252012D01*
X111470Y250953D01*
X112169Y250043D01*
X113079Y249344D01*
X114138Y248905D01*
X115276Y248756D01*
X116413Y248905D01*
X117473Y249344D01*
X118383Y250043D01*
X119081Y250953D01*
X119520Y252012D01*
X119669Y253150D01*
X119520Y254287D01*
X119081Y255346D01*
X118383Y256257D01*
X117473Y256955D01*
X116413Y257394D01*
X115276Y257543D01*
D02*
G37*
G36*
X32965Y253437D02*
X29345D01*
X29422Y252854D01*
X29840Y251844D01*
X30505Y250977D01*
X31372Y250312D01*
X32381Y249894D01*
X32965Y249817D01*
Y253437D01*
D02*
G37*
G36*
X37584D02*
X33965D01*
Y249817D01*
X34548Y249894D01*
X35557Y250312D01*
X36424Y250977D01*
X37089Y251844D01*
X37507Y252854D01*
X37584Y253437D01*
D02*
G37*
G36*
X33965Y258057D02*
Y254437D01*
X37584D01*
X37507Y255020D01*
X37089Y256030D01*
X36424Y256896D01*
X35557Y257562D01*
X34548Y257980D01*
X33965Y258057D01*
D02*
G37*
G36*
X360419Y264618D02*
X356799D01*
Y260999D01*
X357382Y261075D01*
X358392Y261493D01*
X359259Y262159D01*
X359924Y263025D01*
X360342Y264035D01*
X360419Y264618D01*
D02*
G37*
G36*
X355799D02*
X352180D01*
X352256Y264035D01*
X352675Y263025D01*
X353340Y262159D01*
X354206Y261493D01*
X355216Y261075D01*
X355799Y260999D01*
Y264618D01*
D02*
G37*
G36*
X285276Y273544D02*
X284138Y273394D01*
X283079Y272955D01*
X282169Y272257D01*
X281470Y271346D01*
X281031Y270287D01*
X280882Y269150D01*
X281031Y268012D01*
X281470Y266953D01*
X282169Y266043D01*
X283079Y265344D01*
X284138Y264905D01*
X285276Y264756D01*
X286413Y264905D01*
X287473Y265344D01*
X288383Y266043D01*
X289081Y266953D01*
X289520Y268012D01*
X289669Y269150D01*
X289520Y270287D01*
X289081Y271346D01*
X288383Y272257D01*
X287473Y272955D01*
X286413Y273394D01*
X285276Y273544D01*
D02*
G37*
G36*
X115276Y267544D02*
X114138Y267394D01*
X113079Y266955D01*
X112169Y266257D01*
X111470Y265347D01*
X111031Y264287D01*
X110882Y263150D01*
X111031Y262012D01*
X111470Y260953D01*
X112169Y260043D01*
X113079Y259344D01*
X114138Y258905D01*
X115276Y258756D01*
X116413Y258905D01*
X117473Y259344D01*
X118383Y260043D01*
X119081Y260953D01*
X119520Y262012D01*
X119669Y263150D01*
X119520Y264287D01*
X119081Y265347D01*
X118383Y266257D01*
X117473Y266955D01*
X116413Y267394D01*
X115276Y267544D01*
D02*
G37*
G36*
X285276Y263544D02*
X284138Y263394D01*
X283079Y262955D01*
X282169Y262257D01*
X281470Y261347D01*
X281031Y260287D01*
X280882Y259150D01*
X281031Y258012D01*
X281470Y256953D01*
X282169Y256043D01*
X283079Y255344D01*
X284138Y254905D01*
X285276Y254756D01*
X286413Y254905D01*
X287473Y255344D01*
X288383Y256043D01*
X289081Y256953D01*
X289520Y258012D01*
X289669Y259150D01*
X289520Y260287D01*
X289081Y261347D01*
X288383Y262257D01*
X287473Y262955D01*
X286413Y263394D01*
X285276Y263544D01*
D02*
G37*
G36*
X295276D02*
X294138Y263394D01*
X293079Y262955D01*
X292169Y262257D01*
X291470Y261347D01*
X291031Y260287D01*
X290882Y259150D01*
X291031Y258012D01*
X291470Y256953D01*
X292169Y256043D01*
X293079Y255344D01*
X294138Y254905D01*
X295276Y254756D01*
X296413Y254905D01*
X297473Y255344D01*
X298382Y256043D01*
X299081Y256953D01*
X299520Y258012D01*
X299670Y259150D01*
X299520Y260287D01*
X299081Y261347D01*
X298382Y262257D01*
X297473Y262955D01*
X296413Y263394D01*
X295276Y263544D01*
D02*
G37*
G36*
X105276Y267544D02*
X104138Y267394D01*
X103079Y266955D01*
X102169Y266257D01*
X101470Y265347D01*
X101031Y264287D01*
X100882Y263150D01*
X101031Y262012D01*
X101470Y260953D01*
X102169Y260043D01*
X103079Y259344D01*
X104138Y258905D01*
X105276Y258756D01*
X106413Y258905D01*
X107473Y259344D01*
X108382Y260043D01*
X109081Y260953D01*
X109520Y262012D01*
X109669Y263150D01*
X109520Y264287D01*
X109081Y265347D01*
X108382Y266257D01*
X107473Y266955D01*
X106413Y267394D01*
X105276Y267544D01*
D02*
G37*
G36*
X145669Y234211D02*
X144997Y234123D01*
X144371Y233863D01*
X143833Y233451D01*
X143420Y232913D01*
X143161Y232286D01*
X143072Y231614D01*
X143161Y230942D01*
X143420Y230316D01*
X143833Y229778D01*
X144371Y229365D01*
X144997Y229106D01*
X145669Y229017D01*
X146342Y229106D01*
X146968Y229365D01*
X147506Y229778D01*
X147918Y230316D01*
X148178Y230942D01*
X148266Y231614D01*
X148178Y232286D01*
X147918Y232913D01*
X147506Y233451D01*
X146968Y233863D01*
X146342Y234123D01*
X145669Y234211D01*
D02*
G37*
G36*
X173228D02*
X172556Y234123D01*
X171930Y233863D01*
X171392Y233451D01*
X170979Y232913D01*
X170720Y232286D01*
X170631Y231614D01*
X170720Y230942D01*
X170979Y230316D01*
X171392Y229778D01*
X171930Y229365D01*
X172556Y229106D01*
X173228Y229017D01*
X173900Y229106D01*
X174527Y229365D01*
X175065Y229778D01*
X175477Y230316D01*
X175737Y230942D01*
X175825Y231614D01*
X175737Y232286D01*
X175477Y232913D01*
X175065Y233451D01*
X174527Y233863D01*
X173900Y234123D01*
X173228Y234211D01*
D02*
G37*
G36*
X228346D02*
X227674Y234123D01*
X227048Y233863D01*
X226510Y233451D01*
X226097Y232913D01*
X225838Y232286D01*
X225749Y231614D01*
X225838Y230942D01*
X226097Y230316D01*
X226510Y229778D01*
X227048Y229365D01*
X227674Y229106D01*
X228346Y229017D01*
X229019Y229106D01*
X229645Y229365D01*
X230183Y229778D01*
X230596Y230316D01*
X230855Y230942D01*
X230943Y231614D01*
X230855Y232286D01*
X230596Y232913D01*
X230183Y233451D01*
X229645Y233863D01*
X229019Y234123D01*
X228346Y234211D01*
D02*
G37*
G36*
X285276Y237544D02*
X284138Y237394D01*
X283079Y236955D01*
X282169Y236257D01*
X281470Y235347D01*
X281031Y234287D01*
X280882Y233150D01*
X281031Y232012D01*
X281470Y230953D01*
X281481Y230939D01*
X278040Y227498D01*
X263686D01*
X263384Y227950D01*
X262662Y228432D01*
X261811Y228602D01*
X260960Y228432D01*
X260239Y227950D01*
X259936Y227498D01*
X236127D01*
X235824Y227950D01*
X235103Y228432D01*
X234252Y228602D01*
X233401Y228432D01*
X232680Y227950D01*
X232197Y227229D01*
X232028Y226378D01*
X232197Y225527D01*
X232680Y224805D01*
X233401Y224323D01*
X234252Y224154D01*
X235103Y224323D01*
X235824Y224805D01*
X236127Y225258D01*
X259936D01*
X260239Y224805D01*
X260960Y224323D01*
X261811Y224154D01*
X262662Y224323D01*
X263384Y224805D01*
X263686Y225258D01*
X278504D01*
X278932Y225343D01*
X279296Y225586D01*
X283065Y229355D01*
X283079Y229344D01*
X284138Y228905D01*
X285276Y228756D01*
X286413Y228905D01*
X287473Y229344D01*
X288383Y230043D01*
X289081Y230953D01*
X289520Y232012D01*
X289669Y233150D01*
X289520Y234287D01*
X289081Y235347D01*
X288383Y236257D01*
X287473Y236955D01*
X286413Y237394D01*
X285276Y237544D01*
D02*
G37*
G36*
X247638Y232539D02*
X246787Y232369D01*
X246065Y231887D01*
X245583Y231166D01*
X245414Y230315D01*
X245583Y229464D01*
X246065Y228743D01*
X246787Y228260D01*
X247638Y228091D01*
X248489Y228260D01*
X249210Y228743D01*
X249692Y229464D01*
X249862Y230315D01*
X249692Y231166D01*
X249210Y231887D01*
X248489Y232369D01*
X247638Y232539D01*
D02*
G37*
G36*
X105276Y237544D02*
X104138Y237394D01*
X103079Y236955D01*
X102169Y236257D01*
X101470Y235347D01*
X101031Y234287D01*
X100882Y233150D01*
X101031Y232012D01*
X101470Y230953D01*
X102169Y230043D01*
X103079Y229344D01*
X104138Y228905D01*
X105276Y228756D01*
X106413Y228905D01*
X107473Y229344D01*
X108382Y230043D01*
X109081Y230953D01*
X109520Y232012D01*
X109669Y233150D01*
X109520Y234287D01*
X109081Y235347D01*
X108382Y236257D01*
X107473Y236955D01*
X106413Y237394D01*
X105276Y237544D01*
D02*
G37*
G36*
X115276D02*
X114138Y237394D01*
X113079Y236955D01*
X112169Y236257D01*
X111470Y235347D01*
X111031Y234287D01*
X110882Y233150D01*
X111031Y232012D01*
X111470Y230953D01*
X112169Y230043D01*
X113079Y229344D01*
X114138Y228905D01*
X115276Y228756D01*
X116413Y228905D01*
X117473Y229344D01*
X118383Y230043D01*
X119081Y230953D01*
X119520Y232012D01*
X119669Y233150D01*
X119520Y234287D01*
X119081Y235347D01*
X118383Y236257D01*
X117473Y236955D01*
X116413Y237394D01*
X115276Y237544D01*
D02*
G37*
G36*
X255906Y234211D02*
X255233Y234123D01*
X254607Y233863D01*
X254069Y233451D01*
X253656Y232913D01*
X253397Y232286D01*
X253309Y231614D01*
X253397Y230942D01*
X253656Y230316D01*
X254069Y229778D01*
X254607Y229365D01*
X255233Y229106D01*
X255906Y229017D01*
X256578Y229106D01*
X257204Y229365D01*
X257742Y229778D01*
X258155Y230316D01*
X258414Y230942D01*
X258503Y231614D01*
X258414Y232286D01*
X258155Y232913D01*
X257742Y233451D01*
X257204Y233863D01*
X256578Y234123D01*
X255906Y234211D01*
D02*
G37*
G36*
X110001Y252650D02*
X105276D01*
X100550D01*
X100648Y251910D01*
X101127Y250754D01*
X101888Y249762D01*
X102880Y249001D01*
X104036Y248522D01*
X104948Y248402D01*
Y247897D01*
X104036Y247777D01*
X102880Y247299D01*
X101888Y246537D01*
X101127Y245545D01*
X100648Y244390D01*
X100550Y243650D01*
X105276D01*
X110001D01*
X109903Y244390D01*
X109425Y245545D01*
X108663Y246537D01*
X107671Y247299D01*
X106516Y247777D01*
X105603Y247897D01*
Y248402D01*
X106516Y248522D01*
X107671Y249001D01*
X108663Y249762D01*
X109425Y250754D01*
X109903Y251910D01*
X110001Y252650D01*
D02*
G37*
G36*
X285276Y253543D02*
X284138Y253394D01*
X283079Y252955D01*
X282169Y252257D01*
X281470Y251346D01*
X281031Y250287D01*
X280882Y249150D01*
X281031Y248012D01*
X281470Y246953D01*
X282169Y246043D01*
X283079Y245344D01*
X284138Y244905D01*
X285276Y244756D01*
X286413Y244905D01*
X287473Y245344D01*
X288383Y246043D01*
X289081Y246953D01*
X289520Y248012D01*
X289669Y249150D01*
X289520Y250287D01*
X289081Y251346D01*
X288383Y252257D01*
X287473Y252955D01*
X286413Y253394D01*
X285276Y253543D01*
D02*
G37*
G36*
X295276D02*
X294138Y253394D01*
X293079Y252955D01*
X292169Y252257D01*
X291470Y251346D01*
X291031Y250287D01*
X290882Y249150D01*
X291031Y248012D01*
X291470Y246953D01*
X291481Y246939D01*
X287788Y243246D01*
X223228D01*
X223228Y243246D01*
X222800Y243161D01*
X222436Y242918D01*
X207016Y227498D01*
X181009D01*
X180706Y227950D01*
X179985Y228432D01*
X179134Y228602D01*
X178283Y228432D01*
X177561Y227950D01*
X177259Y227498D01*
X167098D01*
X166653Y227840D01*
X166026Y228099D01*
X165354Y228188D01*
X164682Y228099D01*
X164056Y227840D01*
X163610Y227498D01*
X153450D01*
X153147Y227950D01*
X152426Y228432D01*
X151575Y228602D01*
X150724Y228432D01*
X150002Y227950D01*
X149520Y227229D01*
X149351Y226378D01*
X149520Y225527D01*
X150002Y224805D01*
X150724Y224323D01*
X151575Y224154D01*
X152426Y224323D01*
X153147Y224805D01*
X153450Y225258D01*
X162801D01*
X162846Y224918D01*
X163105Y224292D01*
X163283Y224061D01*
X163036Y223561D01*
X157387D01*
X157084Y224013D01*
X156363Y224496D01*
X155512Y224665D01*
X154661Y224496D01*
X153939Y224013D01*
X153457Y223292D01*
X153288Y222441D01*
X153457Y221590D01*
X153939Y220868D01*
X154661Y220386D01*
X155512Y220217D01*
X156363Y220386D01*
X157084Y220868D01*
X157387Y221321D01*
X181196D01*
X181498Y220868D01*
X182220Y220386D01*
X183071Y220217D01*
X183922Y220386D01*
X184643Y220868D01*
X184946Y221321D01*
X205690D01*
X205860Y220821D01*
X205644Y220655D01*
X205231Y220117D01*
X204972Y219491D01*
X204883Y218819D01*
X204972Y218147D01*
X205231Y217520D01*
X205644Y216983D01*
X206182Y216570D01*
X206808Y216310D01*
X207480Y216222D01*
X208153Y216310D01*
X208779Y216570D01*
X209317Y216983D01*
X209729Y217520D01*
X209989Y218147D01*
X210077Y218819D01*
X209989Y219491D01*
X209729Y220117D01*
X209317Y220655D01*
X209101Y220821D01*
X209270Y221321D01*
X211024D01*
X211452Y221406D01*
X211816Y221649D01*
X228417Y238250D01*
X288591D01*
X291481Y235360D01*
X291470Y235347D01*
X291031Y234287D01*
X290882Y233150D01*
X291031Y232012D01*
X291470Y230953D01*
X292169Y230043D01*
X293079Y229344D01*
X294138Y228905D01*
X295276Y228756D01*
X296413Y228905D01*
X297473Y229344D01*
X298382Y230043D01*
X299081Y230953D01*
X299520Y232012D01*
X299670Y233150D01*
X299520Y234287D01*
X299081Y235347D01*
X298382Y236257D01*
X297473Y236955D01*
X296413Y237394D01*
X295276Y237544D01*
X294138Y237394D01*
X293079Y236955D01*
X293065Y236944D01*
X289847Y240162D01*
X289484Y240405D01*
X289055Y240490D01*
X227953D01*
X227524Y240405D01*
X227161Y240162D01*
X210560Y223561D01*
X184946D01*
X184643Y224013D01*
X183922Y224496D01*
X183071Y224665D01*
X182220Y224496D01*
X181498Y224013D01*
X181196Y223561D01*
X167673D01*
X167426Y224061D01*
X167603Y224292D01*
X167863Y224918D01*
X167908Y225258D01*
X177259D01*
X177561Y224805D01*
X178283Y224323D01*
X179134Y224154D01*
X179985Y224323D01*
X180706Y224805D01*
X181009Y225258D01*
X207480D01*
X207909Y225343D01*
X208272Y225586D01*
X223692Y241006D01*
X288252D01*
X288681Y241091D01*
X289044Y241334D01*
X293065Y245355D01*
X293079Y245344D01*
X294138Y244905D01*
X295276Y244756D01*
X296413Y244905D01*
X297473Y245344D01*
X298382Y246043D01*
X299081Y246953D01*
X299520Y248012D01*
X299670Y249150D01*
X299520Y250287D01*
X299081Y251346D01*
X298382Y252257D01*
X297473Y252955D01*
X296413Y253394D01*
X295276Y253543D01*
D02*
G37*
G36*
X33465Y247725D02*
X32484Y247596D01*
X31570Y247218D01*
X30786Y246616D01*
X30184Y245831D01*
X29805Y244917D01*
X29676Y243937D01*
X29805Y242956D01*
X30184Y242043D01*
X30786Y241258D01*
X31570Y240656D01*
X32484Y240278D01*
X33465Y240149D01*
X34445Y240278D01*
X35359Y240656D01*
X36143Y241258D01*
X36745Y242043D01*
X37124Y242956D01*
X37253Y243937D01*
X37124Y244917D01*
X36745Y245831D01*
X36143Y246616D01*
X35359Y247218D01*
X34445Y247596D01*
X33465Y247725D01*
D02*
G37*
G36*
X104776Y242650D02*
X100550D01*
X100648Y241910D01*
X101127Y240754D01*
X101888Y239762D01*
X102880Y239001D01*
X104036Y238522D01*
X104776Y238424D01*
Y242650D01*
D02*
G37*
G36*
X110001D02*
X105776D01*
Y238424D01*
X106516Y238522D01*
X107671Y239001D01*
X108663Y239762D01*
X109425Y240754D01*
X109903Y241910D01*
X110001Y242650D01*
D02*
G37*
G36*
X115276Y247544D02*
X114138Y247394D01*
X113079Y246955D01*
X112169Y246257D01*
X111470Y245346D01*
X111031Y244287D01*
X110882Y243150D01*
X111031Y242012D01*
X111470Y240953D01*
X112169Y240043D01*
X113079Y239344D01*
X114138Y238905D01*
X115276Y238756D01*
X116413Y238905D01*
X117473Y239344D01*
X118383Y240043D01*
X119081Y240953D01*
X119520Y242012D01*
X119669Y243150D01*
X119520Y244287D01*
X119081Y245346D01*
X118383Y246257D01*
X117473Y246955D01*
X116413Y247394D01*
X115276Y247544D01*
D02*
G37*
G36*
X295276Y273544D02*
X294138Y273394D01*
X293079Y272955D01*
X292169Y272257D01*
X291470Y271346D01*
X291031Y270287D01*
X290882Y269150D01*
X291031Y268012D01*
X291470Y266953D01*
X292169Y266043D01*
X293079Y265344D01*
X294138Y264905D01*
X295276Y264756D01*
X296413Y264905D01*
X297473Y265344D01*
X298382Y266043D01*
X299081Y266953D01*
X299520Y268012D01*
X299670Y269150D01*
X299520Y270287D01*
X299081Y271346D01*
X298382Y272257D01*
X297473Y272955D01*
X296413Y273394D01*
X295276Y273544D01*
D02*
G37*
G36*
X294776Y308650D02*
X290550D01*
X290648Y307910D01*
X291126Y306754D01*
X291888Y305762D01*
X292880Y305000D01*
X294036Y304522D01*
X294776Y304424D01*
Y308650D01*
D02*
G37*
G36*
X300001D02*
X295776D01*
Y304424D01*
X296516Y304522D01*
X297671Y305000D01*
X298663Y305762D01*
X299425Y306754D01*
X299903Y307910D01*
X300001Y308650D01*
D02*
G37*
G36*
X285276Y313544D02*
X284138Y313394D01*
X283079Y312955D01*
X282169Y312257D01*
X281470Y311347D01*
X281031Y310287D01*
X280882Y309150D01*
X281031Y308012D01*
X281470Y306953D01*
X282169Y306043D01*
X283079Y305344D01*
X284138Y304905D01*
X285276Y304756D01*
X286413Y304905D01*
X287473Y305344D01*
X288383Y306043D01*
X289081Y306953D01*
X289520Y308012D01*
X289669Y309150D01*
X289520Y310287D01*
X289081Y311347D01*
X288383Y312257D01*
X287473Y312955D01*
X286413Y313394D01*
X285276Y313544D01*
D02*
G37*
G36*
X356299Y308906D02*
X355319Y308777D01*
X354405Y308399D01*
X353621Y307797D01*
X353018Y307012D01*
X352640Y306099D01*
X352511Y305118D01*
X352640Y304138D01*
X353018Y303224D01*
X353621Y302439D01*
X354405Y301837D01*
X355319Y301459D01*
X356299Y301330D01*
X357280Y301459D01*
X358193Y301837D01*
X358978Y302439D01*
X359580Y303224D01*
X359958Y304138D01*
X360087Y305118D01*
X359958Y306099D01*
X359580Y307012D01*
X358978Y307797D01*
X358193Y308399D01*
X357280Y308777D01*
X356299Y308906D01*
D02*
G37*
G36*
X355799Y299238D02*
X355216Y299161D01*
X354206Y298743D01*
X353340Y298078D01*
X352675Y297211D01*
X352256Y296201D01*
X352180Y295618D01*
X355799D01*
Y299238D01*
D02*
G37*
G36*
X356799Y299238D02*
Y295618D01*
X360419D01*
X360342Y296201D01*
X359924Y297211D01*
X359259Y298078D01*
X358392Y298743D01*
X357382Y299161D01*
X356799Y299238D01*
D02*
G37*
G36*
X105276Y307543D02*
X104138Y307394D01*
X103079Y306955D01*
X102169Y306257D01*
X101470Y305346D01*
X101031Y304287D01*
X100882Y303150D01*
X101031Y302012D01*
X101470Y300953D01*
X102169Y300043D01*
X103079Y299344D01*
X104138Y298905D01*
X105276Y298756D01*
X106413Y298905D01*
X107473Y299344D01*
X108382Y300043D01*
X109081Y300953D01*
X109520Y302012D01*
X109669Y303150D01*
X109520Y304287D01*
X109081Y305346D01*
X108382Y306257D01*
X107473Y306955D01*
X106413Y307394D01*
X105276Y307543D01*
D02*
G37*
G36*
X294776Y313875D02*
X294036Y313777D01*
X292880Y313299D01*
X291888Y312537D01*
X291126Y311545D01*
X290648Y310390D01*
X290550Y309650D01*
X294776D01*
Y313875D01*
D02*
G37*
G36*
X26585Y338083D02*
X16248D01*
Y327746D01*
X17449Y327840D01*
X19109Y328239D01*
X20686Y328892D01*
X22141Y329784D01*
X23439Y330892D01*
X24547Y332190D01*
X25439Y333645D01*
X26092Y335222D01*
X26490Y336881D01*
X26585Y338083D01*
D02*
G37*
G36*
X377453D02*
X367116D01*
X367211Y336881D01*
X367609Y335222D01*
X368262Y333645D01*
X369154Y332190D01*
X370262Y330892D01*
X371560Y329784D01*
X373015Y328892D01*
X374592Y328239D01*
X376251Y327840D01*
X377453Y327746D01*
Y338083D01*
D02*
G37*
G36*
X295276Y343544D02*
X294138Y343394D01*
X293079Y342955D01*
X292169Y342257D01*
X291470Y341347D01*
X291031Y340287D01*
X290882Y339150D01*
X291031Y338012D01*
X291470Y336953D01*
X292169Y336043D01*
X293079Y335344D01*
X294138Y334905D01*
X295276Y334756D01*
X296413Y334905D01*
X297473Y335344D01*
X298382Y336043D01*
X299081Y336953D01*
X299520Y338012D01*
X299670Y339150D01*
X299520Y340287D01*
X299081Y341347D01*
X298382Y342257D01*
X297473Y342955D01*
X296413Y343394D01*
X295276Y343544D01*
D02*
G37*
G36*
Y333543D02*
X294138Y333394D01*
X293079Y332955D01*
X292169Y332257D01*
X291470Y331347D01*
X291031Y330287D01*
X290882Y329150D01*
X291031Y328012D01*
X291470Y326953D01*
X292169Y326043D01*
X293079Y325344D01*
X294138Y324905D01*
X295276Y324756D01*
X296413Y324905D01*
X297473Y325344D01*
X298382Y326043D01*
X299081Y326953D01*
X299520Y328012D01*
X299670Y329150D01*
X299520Y330287D01*
X299081Y331347D01*
X298382Y332257D01*
X297473Y332955D01*
X296413Y333394D01*
X295276Y333543D01*
D02*
G37*
G36*
X295776Y313875D02*
Y309650D01*
X300001D01*
X299903Y310390D01*
X299425Y311545D01*
X298663Y312537D01*
X297671Y313299D01*
X296516Y313777D01*
X295776Y313875D01*
D02*
G37*
G36*
X285276Y323544D02*
X284138Y323394D01*
X283079Y322955D01*
X282169Y322257D01*
X281470Y321346D01*
X281031Y320287D01*
X280882Y319150D01*
X281031Y318012D01*
X281470Y316953D01*
X282169Y316043D01*
X283079Y315344D01*
X284138Y314905D01*
X285276Y314756D01*
X286413Y314905D01*
X287473Y315344D01*
X288383Y316043D01*
X289081Y316953D01*
X289520Y318012D01*
X289669Y319150D01*
X289520Y320287D01*
X289081Y321346D01*
X288383Y322257D01*
X287473Y322955D01*
X286413Y323394D01*
X285276Y323544D01*
D02*
G37*
G36*
X295276D02*
X294138Y323394D01*
X293079Y322955D01*
X292169Y322257D01*
X291470Y321346D01*
X291031Y320287D01*
X290882Y319150D01*
X291031Y318012D01*
X291470Y316953D01*
X292169Y316043D01*
X293079Y315344D01*
X294138Y314905D01*
X295276Y314756D01*
X296413Y314905D01*
X297473Y315344D01*
X298382Y316043D01*
X299081Y316953D01*
X299520Y318012D01*
X299670Y319150D01*
X299520Y320287D01*
X299081Y321346D01*
X298382Y322257D01*
X297473Y322955D01*
X296413Y323394D01*
X295276Y323544D01*
D02*
G37*
G36*
X285276Y283543D02*
X284138Y283394D01*
X283079Y282955D01*
X282169Y282257D01*
X281470Y281347D01*
X281031Y280287D01*
X280882Y279150D01*
X281031Y278012D01*
X281470Y276953D01*
X282169Y276043D01*
X283079Y275344D01*
X284138Y274905D01*
X285276Y274756D01*
X286413Y274905D01*
X287473Y275344D01*
X288383Y276043D01*
X289081Y276953D01*
X289520Y278012D01*
X289669Y279150D01*
X289520Y280287D01*
X289081Y281347D01*
X288383Y282257D01*
X287473Y282955D01*
X286413Y283394D01*
X285276Y283543D01*
D02*
G37*
G36*
X295276D02*
X294138Y283394D01*
X293079Y282955D01*
X292169Y282257D01*
X291470Y281347D01*
X291031Y280287D01*
X290882Y279150D01*
X291031Y278012D01*
X291470Y276953D01*
X292169Y276043D01*
X293079Y275344D01*
X294138Y274905D01*
X295276Y274756D01*
X296413Y274905D01*
X297473Y275344D01*
X298382Y276043D01*
X299081Y276953D01*
X299520Y278012D01*
X299670Y279150D01*
X299520Y280287D01*
X299081Y281347D01*
X298382Y282257D01*
X297473Y282955D01*
X296413Y283394D01*
X295276Y283543D01*
D02*
G37*
G36*
X105276Y287544D02*
X104138Y287394D01*
X103079Y286955D01*
X102169Y286257D01*
X101470Y285347D01*
X101031Y284287D01*
X100882Y283150D01*
X101031Y282012D01*
X101470Y280953D01*
X102169Y280043D01*
X103079Y279344D01*
X104138Y278905D01*
X105276Y278756D01*
X106413Y278905D01*
X107473Y279344D01*
X108382Y280043D01*
X109081Y280953D01*
X109520Y282012D01*
X109669Y283150D01*
X109520Y284287D01*
X109081Y285347D01*
X108382Y286257D01*
X107473Y286955D01*
X106413Y287394D01*
X105276Y287544D01*
D02*
G37*
G36*
X356299Y278906D02*
X355319Y278777D01*
X354405Y278399D01*
X353621Y277797D01*
X353018Y277012D01*
X352640Y276099D01*
X352511Y275118D01*
X352640Y274138D01*
X353018Y273224D01*
X353621Y272439D01*
X354405Y271837D01*
X355319Y271459D01*
X356299Y271330D01*
X357280Y271459D01*
X358193Y271837D01*
X358978Y272439D01*
X359580Y273224D01*
X359958Y274138D01*
X360087Y275118D01*
X359958Y276099D01*
X359580Y277012D01*
X358978Y277797D01*
X358193Y278399D01*
X357280Y278777D01*
X356299Y278906D01*
D02*
G37*
G36*
X355799Y269238D02*
X355216Y269161D01*
X354206Y268743D01*
X353340Y268078D01*
X352675Y267211D01*
X352256Y266201D01*
X352180Y265618D01*
X355799D01*
Y269238D01*
D02*
G37*
G36*
X356799Y269238D02*
Y265618D01*
X360419D01*
X360342Y266201D01*
X359924Y267211D01*
X359259Y268078D01*
X358392Y268743D01*
X357382Y269161D01*
X356799Y269238D01*
D02*
G37*
G36*
X105276Y277543D02*
X104138Y277394D01*
X103079Y276955D01*
X102169Y276257D01*
X101470Y275346D01*
X101031Y274287D01*
X100882Y273150D01*
X101031Y272012D01*
X101470Y270953D01*
X102169Y270043D01*
X103079Y269344D01*
X104138Y268905D01*
X105276Y268756D01*
X106413Y268905D01*
X107473Y269344D01*
X108382Y270043D01*
X109081Y270953D01*
X109520Y272012D01*
X109669Y273150D01*
X109520Y274287D01*
X109081Y275346D01*
X108382Y276257D01*
X107473Y276955D01*
X106413Y277394D01*
X105276Y277543D01*
D02*
G37*
G36*
X285276Y293544D02*
X284138Y293394D01*
X283079Y292955D01*
X282169Y292257D01*
X281470Y291347D01*
X281031Y290287D01*
X280882Y289150D01*
X281031Y288012D01*
X281470Y286953D01*
X282169Y286043D01*
X283079Y285344D01*
X284138Y284905D01*
X285276Y284756D01*
X286413Y284905D01*
X287473Y285344D01*
X288383Y286043D01*
X289081Y286953D01*
X289520Y288012D01*
X289669Y289150D01*
X289520Y290287D01*
X289081Y291347D01*
X288383Y292257D01*
X287473Y292955D01*
X286413Y293394D01*
X285276Y293544D01*
D02*
G37*
G36*
X355799Y294618D02*
X352180D01*
X352256Y294035D01*
X352675Y293025D01*
X353340Y292159D01*
X354206Y291493D01*
X355216Y291075D01*
X355799Y290999D01*
Y294618D01*
D02*
G37*
G36*
X285276Y303543D02*
X284138Y303394D01*
X283079Y302955D01*
X282169Y302257D01*
X281470Y301346D01*
X281031Y300287D01*
X280882Y299150D01*
X281031Y298012D01*
X281470Y296953D01*
X282169Y296043D01*
X283079Y295344D01*
X284138Y294905D01*
X285276Y294756D01*
X286413Y294905D01*
X287473Y295344D01*
X288383Y296043D01*
X289081Y296953D01*
X289520Y298012D01*
X289669Y299150D01*
X289520Y300287D01*
X289081Y301346D01*
X288383Y302257D01*
X287473Y302955D01*
X286413Y303394D01*
X285276Y303543D01*
D02*
G37*
G36*
X295276D02*
X294138Y303394D01*
X293079Y302955D01*
X292169Y302257D01*
X291470Y301346D01*
X291031Y300287D01*
X290882Y299150D01*
X291031Y298012D01*
X291470Y296953D01*
X292169Y296043D01*
X293079Y295344D01*
X294138Y294905D01*
X295276Y294756D01*
X296413Y294905D01*
X297473Y295344D01*
X298382Y296043D01*
X299081Y296953D01*
X299520Y298012D01*
X299670Y299150D01*
X299520Y300287D01*
X299081Y301346D01*
X298382Y302257D01*
X297473Y302955D01*
X296413Y303394D01*
X295276Y303543D01*
D02*
G37*
G36*
X360419Y294618D02*
X356799D01*
Y290999D01*
X357382Y291075D01*
X358392Y291493D01*
X359259Y292159D01*
X359924Y293025D01*
X360342Y294035D01*
X360419Y294618D01*
D02*
G37*
G36*
X295276Y293544D02*
X294138Y293394D01*
X293079Y292955D01*
X292169Y292257D01*
X291470Y291347D01*
X291031Y290287D01*
X290882Y289150D01*
X291031Y288012D01*
X291470Y286953D01*
X292169Y286043D01*
X293079Y285344D01*
X294138Y284905D01*
X295276Y284756D01*
X296413Y284905D01*
X297473Y285344D01*
X298382Y286043D01*
X299081Y286953D01*
X299520Y288012D01*
X299670Y289150D01*
X299520Y290287D01*
X299081Y291347D01*
X298382Y292257D01*
X297473Y292955D01*
X296413Y293394D01*
X295276Y293544D01*
D02*
G37*
G36*
X105276Y297544D02*
X104138Y297394D01*
X103079Y296955D01*
X102169Y296257D01*
X101470Y295346D01*
X101031Y294287D01*
X100882Y293150D01*
X101031Y292012D01*
X101470Y290953D01*
X102169Y290043D01*
X103079Y289344D01*
X104138Y288905D01*
X105276Y288756D01*
X106413Y288905D01*
X107473Y289344D01*
X108382Y290043D01*
X109081Y290953D01*
X109520Y292012D01*
X109669Y293150D01*
X109520Y294287D01*
X109081Y295346D01*
X108382Y296257D01*
X107473Y296955D01*
X106413Y297394D01*
X105276Y297544D01*
D02*
G37*
G36*
X32965Y293437D02*
X29345D01*
X29422Y292854D01*
X29840Y291844D01*
X30505Y290978D01*
X31372Y290312D01*
X32381Y289894D01*
X32965Y289817D01*
Y293437D01*
D02*
G37*
G36*
X220972Y227728D02*
Y225697D01*
X223004D01*
X222981Y225869D01*
X222722Y226495D01*
X222309Y227033D01*
X221771Y227446D01*
X221145Y227705D01*
X220972Y227728D01*
D02*
G37*
G36*
X100020Y159703D02*
X99348Y159615D01*
X98721Y159355D01*
X98183Y158943D01*
X97771Y158405D01*
X97511Y157779D01*
X97423Y157106D01*
X97511Y156434D01*
X97771Y155808D01*
X98183Y155270D01*
X98721Y154857D01*
X99348Y154598D01*
X100020Y154509D01*
X100692Y154598D01*
X101318Y154857D01*
X101856Y155270D01*
X102269Y155808D01*
X102528Y156434D01*
X102617Y157106D01*
X102528Y157779D01*
X102269Y158405D01*
X101856Y158943D01*
X101318Y159355D01*
X100692Y159615D01*
X100020Y159703D01*
D02*
G37*
G36*
X105276Y167543D02*
X104138Y167394D01*
X103079Y166955D01*
X102169Y166257D01*
X101470Y165347D01*
X101031Y164287D01*
X100882Y163150D01*
X101031Y162012D01*
X101470Y160953D01*
X102169Y160043D01*
X103079Y159344D01*
X104138Y158905D01*
X105276Y158756D01*
X106413Y158905D01*
X107473Y159344D01*
X108382Y160043D01*
X109081Y160953D01*
X109520Y162012D01*
X109669Y163150D01*
X109520Y164287D01*
X109081Y165347D01*
X108382Y166257D01*
X107473Y166955D01*
X106413Y167394D01*
X105276Y167543D01*
D02*
G37*
G36*
X115276D02*
X114138Y167394D01*
X113079Y166955D01*
X112169Y166257D01*
X111470Y165347D01*
X111031Y164287D01*
X110882Y163150D01*
X111031Y162012D01*
X111470Y160953D01*
X112169Y160043D01*
X113079Y159344D01*
X114138Y158905D01*
X115276Y158756D01*
X116413Y158905D01*
X117473Y159344D01*
X118383Y160043D01*
X119081Y160953D01*
X119520Y162012D01*
X119669Y163150D01*
X119520Y164287D01*
X119081Y165347D01*
X118383Y166257D01*
X117473Y166955D01*
X116413Y167394D01*
X115276Y167543D01*
D02*
G37*
G36*
X192539Y159703D02*
X191867Y159615D01*
X191241Y159355D01*
X190703Y158943D01*
X190290Y158405D01*
X190031Y157779D01*
X189942Y157106D01*
X190031Y156434D01*
X190290Y155808D01*
X190703Y155270D01*
X191241Y154857D01*
X191867Y154598D01*
X192539Y154509D01*
X193211Y154598D01*
X193838Y154857D01*
X194376Y155270D01*
X194788Y155808D01*
X195048Y156434D01*
X195136Y157106D01*
X195048Y157779D01*
X194788Y158405D01*
X194376Y158943D01*
X193838Y159355D01*
X193211Y159615D01*
X192539Y159703D01*
D02*
G37*
G36*
X45650Y144703D02*
X44978Y144615D01*
X44351Y144355D01*
X43813Y143943D01*
X43400Y143405D01*
X43141Y142779D01*
X43053Y142106D01*
X43141Y141434D01*
X43400Y140808D01*
X43813Y140270D01*
X44351Y139857D01*
X44432Y139824D01*
Y139282D01*
X44371Y139257D01*
X43833Y138844D01*
X43420Y138306D01*
X43161Y137680D01*
X43138Y137508D01*
X48201D01*
X48178Y137680D01*
X47918Y138306D01*
X47506Y138844D01*
X46968Y139257D01*
X46887Y139291D01*
Y139832D01*
X46948Y139857D01*
X47486Y140270D01*
X47899Y140808D01*
X48158Y141434D01*
X48247Y142106D01*
X48158Y142779D01*
X47899Y143405D01*
X47486Y143943D01*
X46948Y144355D01*
X46322Y144615D01*
X45650Y144703D01*
D02*
G37*
G36*
X138169Y144703D02*
X137497Y144615D01*
X136871Y144355D01*
X136333Y143943D01*
X135920Y143405D01*
X135661Y142779D01*
X135572Y142106D01*
X135661Y141434D01*
X135920Y140808D01*
X136333Y140270D01*
X136871Y139857D01*
X137497Y139598D01*
X138169Y139509D01*
X138841Y139598D01*
X139468Y139857D01*
X140006Y140270D01*
X140418Y140808D01*
X140678Y141434D01*
X140766Y142106D01*
X140678Y142779D01*
X140418Y143405D01*
X140006Y143943D01*
X139468Y144355D01*
X138841Y144615D01*
X138169Y144703D01*
D02*
G37*
G36*
X267342Y159703D02*
X266670Y159615D01*
X266044Y159355D01*
X265506Y158943D01*
X265093Y158405D01*
X264834Y157779D01*
X264745Y157106D01*
X264834Y156434D01*
X265093Y155808D01*
X265506Y155270D01*
X266044Y154857D01*
X266670Y154598D01*
X267342Y154509D01*
X268015Y154598D01*
X268641Y154857D01*
X269179Y155270D01*
X269592Y155808D01*
X269851Y156434D01*
X269939Y157106D01*
X269851Y157779D01*
X269592Y158405D01*
X269179Y158943D01*
X268641Y159355D01*
X268015Y159615D01*
X267342Y159703D01*
D02*
G37*
G36*
X285276Y167543D02*
X284138Y167394D01*
X283079Y166955D01*
X282169Y166257D01*
X281470Y165347D01*
X281031Y164287D01*
X280882Y163150D01*
X281031Y162012D01*
X281470Y160953D01*
X282169Y160043D01*
X283079Y159344D01*
X284138Y158905D01*
X285276Y158756D01*
X286413Y158905D01*
X287473Y159344D01*
X288383Y160043D01*
X289081Y160953D01*
X289520Y162012D01*
X289669Y163150D01*
X289520Y164287D01*
X289081Y165347D01*
X288383Y166257D01*
X287473Y166955D01*
X286413Y167394D01*
X285276Y167543D01*
D02*
G37*
G36*
X295276Y177543D02*
X294138Y177394D01*
X293079Y176955D01*
X292169Y176257D01*
X291470Y175347D01*
X291031Y174287D01*
X290882Y173150D01*
X291031Y172012D01*
X291470Y170953D01*
X292169Y170043D01*
X293079Y169344D01*
X294138Y168905D01*
X295276Y168756D01*
X296413Y168905D01*
X297473Y169344D01*
X298382Y170043D01*
X299081Y170953D01*
X299520Y172012D01*
X299670Y173150D01*
X299520Y174287D01*
X299081Y175347D01*
X298382Y176257D01*
X297473Y176955D01*
X296413Y177394D01*
X295276Y177543D01*
D02*
G37*
G36*
X127953Y183699D02*
X127281Y183611D01*
X126654Y183352D01*
X126116Y182939D01*
X125704Y182401D01*
X125444Y181774D01*
X125356Y181102D01*
X125444Y180430D01*
X125704Y179804D01*
X126116Y179266D01*
X126654Y178853D01*
X127281Y178594D01*
X127953Y178505D01*
X128625Y178594D01*
X129251Y178853D01*
X129789Y179266D01*
X130202Y179804D01*
X130461Y180430D01*
X130550Y181102D01*
X130461Y181774D01*
X130202Y182401D01*
X129789Y182939D01*
X129251Y183352D01*
X128625Y183611D01*
X127953Y183699D01*
D02*
G37*
G36*
X105276Y187543D02*
X104138Y187394D01*
X103079Y186955D01*
X102169Y186257D01*
X101470Y185347D01*
X101031Y184287D01*
X100882Y183150D01*
X101031Y182012D01*
X101470Y180953D01*
X102169Y180043D01*
X103079Y179344D01*
X104138Y178905D01*
X105276Y178756D01*
X106413Y178905D01*
X107473Y179344D01*
X108382Y180043D01*
X109081Y180953D01*
X109520Y182012D01*
X109669Y183150D01*
X109520Y184287D01*
X109081Y185347D01*
X108382Y186257D01*
X107473Y186955D01*
X106413Y187394D01*
X105276Y187543D01*
D02*
G37*
G36*
X285276Y177543D02*
X284138Y177394D01*
X283079Y176955D01*
X282169Y176257D01*
X281470Y175347D01*
X281031Y174287D01*
X280882Y173150D01*
X281031Y172012D01*
X281470Y170953D01*
X282169Y170043D01*
X283079Y169344D01*
X284138Y168905D01*
X285276Y168756D01*
X286413Y168905D01*
X287473Y169344D01*
X288383Y170043D01*
X289081Y170953D01*
X289520Y172012D01*
X289669Y173150D01*
X289520Y174287D01*
X289081Y175347D01*
X288383Y176257D01*
X287473Y176955D01*
X286413Y177394D01*
X285276Y177543D01*
D02*
G37*
G36*
X295276Y167543D02*
X294138Y167394D01*
X293079Y166955D01*
X292169Y166257D01*
X291470Y165347D01*
X291031Y164287D01*
X290882Y163150D01*
X291031Y162012D01*
X291470Y160953D01*
X292169Y160043D01*
X293079Y159344D01*
X294138Y158905D01*
X295276Y158756D01*
X296413Y158905D01*
X297473Y159344D01*
X298382Y160043D01*
X299081Y160953D01*
X299520Y162012D01*
X299670Y163150D01*
X299520Y164287D01*
X299081Y165347D01*
X298382Y166257D01*
X297473Y166955D01*
X296413Y167394D01*
X295276Y167543D01*
D02*
G37*
G36*
X105276Y177543D02*
X104138Y177394D01*
X103079Y176955D01*
X102169Y176257D01*
X101470Y175347D01*
X101031Y174287D01*
X100882Y173150D01*
X101031Y172012D01*
X101470Y170953D01*
X102169Y170043D01*
X103079Y169344D01*
X104138Y168905D01*
X105276Y168756D01*
X106413Y168905D01*
X107473Y169344D01*
X108382Y170043D01*
X109081Y170953D01*
X109520Y172012D01*
X109669Y173150D01*
X109520Y174287D01*
X109081Y175347D01*
X108382Y176257D01*
X107473Y176955D01*
X106413Y177394D01*
X105276Y177543D01*
D02*
G37*
G36*
X115276D02*
X114138Y177394D01*
X113079Y176955D01*
X112169Y176257D01*
X111470Y175347D01*
X111031Y174287D01*
X110882Y173150D01*
X111031Y172012D01*
X111470Y170953D01*
X112169Y170043D01*
X113079Y169344D01*
X114138Y168905D01*
X115276Y168756D01*
X116413Y168905D01*
X117473Y169344D01*
X118383Y170043D01*
X119081Y170953D01*
X119520Y172012D01*
X119669Y173150D01*
X119520Y174287D01*
X119081Y175347D01*
X118383Y176257D01*
X117473Y176955D01*
X116413Y177394D01*
X115276Y177543D01*
D02*
G37*
G36*
X271654Y111905D02*
X270712Y111781D01*
X269835Y111418D01*
X269081Y110840D01*
X268503Y110086D01*
X268140Y109209D01*
X268016Y108268D01*
X268140Y107326D01*
X268503Y106449D01*
X269081Y105696D01*
X269835Y105118D01*
X270712Y104754D01*
X271654Y104630D01*
X272595Y104754D01*
X273472Y105118D01*
X274226Y105696D01*
X274804Y106449D01*
X275167Y107326D01*
X275291Y108268D01*
X275167Y109209D01*
X274804Y110086D01*
X274226Y110840D01*
X273472Y111418D01*
X272595Y111781D01*
X271654Y111905D01*
D02*
G37*
G36*
X342520D02*
X341578Y111781D01*
X340701Y111418D01*
X339948Y110840D01*
X339370Y110086D01*
X339006Y109209D01*
X338882Y108268D01*
X339006Y107326D01*
X339370Y106449D01*
X339948Y105696D01*
X340701Y105118D01*
X341578Y104754D01*
X342520Y104630D01*
X343461Y104754D01*
X344338Y105118D01*
X345092Y105696D01*
X345670Y106449D01*
X346033Y107326D01*
X346157Y108268D01*
X346033Y109209D01*
X345670Y110086D01*
X345092Y110840D01*
X344338Y111418D01*
X343461Y111781D01*
X342520Y111905D01*
D02*
G37*
G36*
X55012Y108437D02*
X54840Y108414D01*
X54213Y108155D01*
X53675Y107742D01*
X53263Y107204D01*
X53003Y106578D01*
X52981Y106405D01*
X55012D01*
Y108437D01*
D02*
G37*
G36*
X240158Y111905D02*
X239216Y111781D01*
X238339Y111418D01*
X237585Y110840D01*
X237007Y110086D01*
X236644Y109209D01*
X236520Y108268D01*
X236644Y107326D01*
X237007Y106449D01*
X237585Y105696D01*
X238339Y105118D01*
X239216Y104754D01*
X240158Y104630D01*
X241099Y104754D01*
X241976Y105118D01*
X242729Y105696D01*
X243308Y106449D01*
X243671Y107326D01*
X243795Y108268D01*
X243671Y109209D01*
X243308Y110086D01*
X242729Y110840D01*
X241976Y111418D01*
X241099Y111781D01*
X240158Y111905D01*
D02*
G37*
G36*
X55012Y105405D02*
X52981D01*
X53003Y105233D01*
X53263Y104607D01*
X53675Y104069D01*
X54213Y103656D01*
X54840Y103397D01*
X55012Y103374D01*
Y105405D01*
D02*
G37*
G36*
X58043D02*
X56012D01*
Y103374D01*
X56184Y103397D01*
X56810Y103656D01*
X57348Y104069D01*
X57761Y104607D01*
X58020Y105233D01*
X58043Y105405D01*
D02*
G37*
G36*
X169291Y111905D02*
X168350Y111781D01*
X167473Y111418D01*
X166719Y110840D01*
X166141Y110086D01*
X165778Y109209D01*
X165654Y108268D01*
X165778Y107326D01*
X166141Y106449D01*
X166719Y105696D01*
X167473Y105118D01*
X168350Y104754D01*
X169291Y104630D01*
X170233Y104754D01*
X171110Y105118D01*
X171863Y105696D01*
X172441Y106449D01*
X172805Y107326D01*
X172929Y108268D01*
X172805Y109209D01*
X172441Y110086D01*
X171863Y110840D01*
X171110Y111418D01*
X170233Y111781D01*
X169291Y111905D01*
D02*
G37*
G36*
X56012Y108437D02*
Y106405D01*
X58043D01*
X58020Y106578D01*
X57761Y107204D01*
X57348Y107742D01*
X56810Y108155D01*
X56184Y108414D01*
X56012Y108437D01*
D02*
G37*
G36*
X228346Y136455D02*
X227674Y136367D01*
X227048Y136107D01*
X226510Y135695D01*
X226097Y135157D01*
X225838Y134530D01*
X225749Y133858D01*
X225838Y133186D01*
X226097Y132560D01*
X226510Y132022D01*
X227048Y131609D01*
X227674Y131350D01*
X228346Y131261D01*
X229019Y131350D01*
X229645Y131609D01*
X230183Y132022D01*
X230596Y132560D01*
X230855Y133186D01*
X230943Y133858D01*
X230855Y134530D01*
X230596Y135157D01*
X230183Y135695D01*
X229645Y136107D01*
X229019Y136367D01*
X228346Y136455D01*
D02*
G37*
G36*
X45169Y136508D02*
X43138D01*
X43161Y136336D01*
X43420Y135709D01*
X43833Y135171D01*
X44371Y134759D01*
X44997Y134499D01*
X45169Y134477D01*
Y136508D01*
D02*
G37*
G36*
X48201D02*
X46169D01*
Y134477D01*
X46341Y134499D01*
X46968Y134759D01*
X47506Y135171D01*
X47918Y135709D01*
X48178Y136336D01*
X48201Y136508D01*
D02*
G37*
G36*
X250689Y201416D02*
X250017Y201327D01*
X249391Y201068D01*
X248853Y200655D01*
X248440Y200117D01*
X248181Y199491D01*
X248092Y198819D01*
Y158760D01*
X248181Y158088D01*
X248440Y157461D01*
X248853Y156923D01*
X285565Y120211D01*
X286103Y119798D01*
X286729Y119539D01*
X287402Y119450D01*
X307087D01*
X307759Y119539D01*
X308385Y119798D01*
X308923Y120211D01*
X309336Y120749D01*
X309595Y121375D01*
X309684Y122047D01*
X309595Y122719D01*
X309336Y123346D01*
X308923Y123884D01*
X308385Y124296D01*
X307759Y124556D01*
X307087Y124644D01*
X288477D01*
X253286Y159836D01*
Y198819D01*
X253198Y199491D01*
X252938Y200117D01*
X252525Y200655D01*
X251988Y201068D01*
X251361Y201327D01*
X250689Y201416D01*
D02*
G37*
G36*
X215846Y112459D02*
X215174Y112371D01*
X214548Y112111D01*
X214010Y111699D01*
X213597Y111161D01*
X213338Y110534D01*
X213249Y109862D01*
X213338Y109190D01*
X213597Y108564D01*
X214010Y108026D01*
X214548Y107613D01*
X215174Y107354D01*
X215846Y107265D01*
X216519Y107354D01*
X217145Y107613D01*
X217683Y108026D01*
X218096Y108564D01*
X218355Y109190D01*
X218443Y109862D01*
X218355Y110534D01*
X218096Y111161D01*
X217683Y111699D01*
X217145Y112111D01*
X216519Y112371D01*
X215846Y112459D01*
D02*
G37*
G36*
X318209D02*
X317536Y112371D01*
X316910Y112111D01*
X316372Y111699D01*
X315960Y111161D01*
X315700Y110534D01*
X315612Y109862D01*
X315700Y109190D01*
X315960Y108564D01*
X316372Y108026D01*
X316910Y107613D01*
X317536Y107354D01*
X318209Y107265D01*
X318881Y107354D01*
X319507Y107613D01*
X320045Y108026D01*
X320458Y108564D01*
X320717Y109190D01*
X320806Y109862D01*
X320717Y110534D01*
X320458Y111161D01*
X320045Y111699D01*
X319507Y112111D01*
X318881Y112371D01*
X318209Y112459D01*
D02*
G37*
G36*
X198031Y196593D02*
X197359Y196505D01*
X196733Y196245D01*
X196195Y195832D01*
X195782Y195295D01*
X195523Y194668D01*
X195434Y193996D01*
X195523Y193324D01*
X195782Y192698D01*
X196195Y192160D01*
X196716Y191760D01*
X196733Y191654D01*
Y191318D01*
X196716Y191213D01*
X196195Y190813D01*
X195782Y190275D01*
X195523Y189648D01*
X195434Y188976D01*
Y172047D01*
X195523Y171375D01*
X195782Y170749D01*
X196195Y170211D01*
X202127Y164279D01*
Y122047D01*
X202216Y121375D01*
X202475Y120749D01*
X202888Y120211D01*
X203426Y119798D01*
X204052Y119539D01*
X204724Y119450D01*
X205397Y119539D01*
X206023Y119798D01*
X206561Y120211D01*
X206974Y120749D01*
X207233Y121375D01*
X207322Y122047D01*
Y165354D01*
X207233Y166026D01*
X206974Y166653D01*
X206561Y167191D01*
X200628Y173123D01*
Y188976D01*
X200540Y189648D01*
X200281Y190275D01*
X199868Y190813D01*
X199347Y191213D01*
X199330Y191318D01*
Y191654D01*
X199347Y191760D01*
X199868Y192160D01*
X200281Y192698D01*
X200540Y193324D01*
X200628Y193996D01*
X200540Y194668D01*
X200281Y195295D01*
X199868Y195832D01*
X199330Y196245D01*
X198704Y196505D01*
X198031Y196593D01*
D02*
G37*
G36*
X115276Y187543D02*
X114138Y187394D01*
X113079Y186955D01*
X112169Y186257D01*
X111470Y185347D01*
X111031Y184287D01*
X110882Y183150D01*
X111031Y182012D01*
X111470Y180953D01*
X112169Y180043D01*
X113079Y179344D01*
X114138Y178905D01*
X115276Y178756D01*
X116413Y178905D01*
X117473Y179344D01*
X118383Y180043D01*
X119081Y180953D01*
X119520Y182012D01*
X119669Y183150D01*
X119520Y184287D01*
X119081Y185347D01*
X118383Y186257D01*
X117473Y186955D01*
X116413Y187394D01*
X115276Y187543D01*
D02*
G37*
G36*
X34344Y308520D02*
X33465D01*
X32278Y308363D01*
X31173Y307906D01*
X30224Y307177D01*
X29496Y306228D01*
X29038Y305123D01*
X28882Y303937D01*
X29038Y302751D01*
X29496Y301646D01*
X30224Y300697D01*
X31173Y299968D01*
X32278Y299511D01*
X32291Y299509D01*
X33207Y298593D01*
X33028Y298065D01*
X32381Y297980D01*
X31372Y297562D01*
X30505Y296897D01*
X29840Y296030D01*
X29422Y295020D01*
X29345Y294437D01*
X33465D01*
Y293937D01*
X33965D01*
Y289817D01*
X34548Y289894D01*
X35557Y290312D01*
X36424Y290978D01*
X37089Y291844D01*
X37507Y292854D01*
X37593Y293501D01*
X38120Y293680D01*
X82244Y249556D01*
Y218663D01*
X81803Y218427D01*
X81560Y218590D01*
X80709Y218759D01*
X79858Y218590D01*
X79136Y218108D01*
X78654Y217387D01*
X78485Y216535D01*
X78654Y215684D01*
X79136Y214963D01*
X79858Y214481D01*
X80709Y214312D01*
X81269Y214423D01*
X81722Y214034D01*
X81638Y213395D01*
Y139409D01*
X81794Y138223D01*
X82252Y137118D01*
X82980Y136169D01*
X95437Y123712D01*
Y98051D01*
X95593Y96865D01*
X96051Y95760D01*
X96779Y94811D01*
X97728Y94083D01*
X98834Y93625D01*
X100020Y93469D01*
X101206Y93625D01*
X102311Y94083D01*
X103260Y94811D01*
X103988Y95760D01*
X104446Y96865D01*
X104602Y98051D01*
Y125610D01*
X104446Y126796D01*
X103988Y127901D01*
X103260Y128851D01*
X90803Y141308D01*
Y211728D01*
X91063Y212357D01*
X91253Y212815D01*
X91331Y213408D01*
X91409Y214001D01*
Y251454D01*
X91331Y252047D01*
X91253Y252640D01*
X90795Y253746D01*
X90067Y254695D01*
X37584Y307177D01*
X36635Y307906D01*
X35530Y308363D01*
X34344Y308520D01*
D02*
G37*
G36*
X295276Y227543D02*
X294138Y227394D01*
X293079Y226955D01*
X292169Y226257D01*
X291470Y225346D01*
X291031Y224287D01*
X290882Y223150D01*
X291031Y222012D01*
X291470Y220953D01*
X292169Y220043D01*
X293079Y219344D01*
X294138Y218905D01*
X295276Y218756D01*
X296413Y218905D01*
X297473Y219344D01*
X298382Y220043D01*
X299081Y220953D01*
X299520Y222012D01*
X299670Y223150D01*
X299520Y224287D01*
X299081Y225346D01*
X298382Y226257D01*
X297473Y226955D01*
X296413Y227394D01*
X295276Y227543D01*
D02*
G37*
G36*
X69587Y226318D02*
X68915Y226229D01*
X68288Y225970D01*
X67750Y225557D01*
X67338Y225019D01*
X67078Y224393D01*
X66990Y223721D01*
X67078Y223048D01*
X67338Y222422D01*
X67750Y221884D01*
X68288Y221471D01*
X68915Y221212D01*
X69587Y221123D01*
X70259Y221212D01*
X70885Y221471D01*
X71423Y221884D01*
X71836Y222422D01*
X72095Y223048D01*
X72184Y223721D01*
X72095Y224393D01*
X71836Y225019D01*
X71423Y225557D01*
X70885Y225970D01*
X70259Y226229D01*
X69587Y226318D01*
D02*
G37*
G36*
X295276Y217544D02*
X294138Y217394D01*
X293079Y216955D01*
X292169Y216257D01*
X291470Y215347D01*
X291031Y214287D01*
X290882Y213150D01*
X291031Y212012D01*
X291470Y210953D01*
X292169Y210043D01*
X293079Y209344D01*
X294138Y208905D01*
X295276Y208756D01*
X296413Y208905D01*
X297473Y209344D01*
X298382Y210043D01*
X299081Y210953D01*
X299520Y212012D01*
X299670Y213150D01*
X299520Y214287D01*
X299081Y215347D01*
X298382Y216257D01*
X297473Y216955D01*
X296413Y217394D01*
X295276Y217544D01*
D02*
G37*
G36*
X105276D02*
X104138Y217394D01*
X103079Y216955D01*
X102169Y216257D01*
X101470Y215347D01*
X101031Y214287D01*
X100882Y213150D01*
X101031Y212012D01*
X101470Y210953D01*
X102169Y210043D01*
X103079Y209344D01*
X104138Y208905D01*
X105276Y208756D01*
X106413Y208905D01*
X107473Y209344D01*
X108382Y210043D01*
X109081Y210953D01*
X109520Y212012D01*
X109669Y213150D01*
X109520Y214287D01*
X109081Y215347D01*
X108382Y216257D01*
X107473Y216955D01*
X106413Y217394D01*
X105276Y217544D01*
D02*
G37*
G36*
X115276D02*
X114138Y217394D01*
X113079Y216955D01*
X112169Y216257D01*
X111470Y215347D01*
X111031Y214287D01*
X110882Y213150D01*
X111031Y212012D01*
X111470Y210953D01*
X112169Y210043D01*
X113079Y209344D01*
X114138Y208905D01*
X115276Y208756D01*
X116413Y208905D01*
X117473Y209344D01*
X118383Y210043D01*
X119081Y210953D01*
X119520Y212012D01*
X119669Y213150D01*
X119520Y214287D01*
X119081Y215347D01*
X118383Y216257D01*
X117473Y216955D01*
X116413Y217394D01*
X115276Y217544D01*
D02*
G37*
G36*
X285276D02*
X284138Y217394D01*
X283079Y216955D01*
X282169Y216257D01*
X281470Y215347D01*
X281031Y214287D01*
X280882Y213150D01*
X281031Y212012D01*
X281470Y210953D01*
X282169Y210043D01*
X283079Y209344D01*
X284138Y208905D01*
X285276Y208756D01*
X286413Y208905D01*
X287473Y209344D01*
X288383Y210043D01*
X289081Y210953D01*
X289520Y212012D01*
X289669Y213150D01*
X289520Y214287D01*
X289081Y215347D01*
X288383Y216257D01*
X287473Y216955D01*
X286413Y217394D01*
X285276Y217544D01*
D02*
G37*
G36*
X137689Y224697D02*
X135658D01*
X135680Y224525D01*
X135940Y223898D01*
X136353Y223360D01*
X136890Y222948D01*
X137517Y222688D01*
X137689Y222666D01*
Y224697D01*
D02*
G37*
G36*
Y227728D02*
X137517Y227705D01*
X136890Y227446D01*
X136353Y227033D01*
X135940Y226495D01*
X135680Y225869D01*
X135658Y225697D01*
X137689D01*
Y227728D01*
D02*
G37*
G36*
X138689D02*
Y225697D01*
X140720D01*
X140698Y225869D01*
X140438Y226495D01*
X140025Y227033D01*
X139488Y227446D01*
X138861Y227705D01*
X138689Y227728D01*
D02*
G37*
G36*
X219972D02*
X219800Y227705D01*
X219174Y227446D01*
X218636Y227033D01*
X218223Y226495D01*
X217964Y225869D01*
X217941Y225697D01*
X219972D01*
Y227728D01*
D02*
G37*
G36*
X285276Y227543D02*
X284138Y227394D01*
X283079Y226955D01*
X282169Y226257D01*
X281470Y225346D01*
X281031Y224287D01*
X280936Y223561D01*
X267623D01*
X267320Y224013D01*
X266599Y224496D01*
X265748Y224665D01*
X264897Y224496D01*
X264176Y224013D01*
X263873Y223561D01*
X240064D01*
X239761Y224013D01*
X239040Y224496D01*
X238189Y224665D01*
X237338Y224496D01*
X236616Y224013D01*
X236134Y223292D01*
X235965Y222441D01*
X236134Y221590D01*
X236616Y220868D01*
X237338Y220386D01*
X238189Y220217D01*
X239040Y220386D01*
X239761Y220868D01*
X240064Y221321D01*
X263873D01*
X264176Y220868D01*
X264897Y220386D01*
X265748Y220217D01*
X266599Y220386D01*
X267320Y220868D01*
X267623Y221321D01*
X281318D01*
X281470Y220953D01*
X282169Y220043D01*
X283079Y219344D01*
X284138Y218905D01*
X285276Y218756D01*
X286413Y218905D01*
X287473Y219344D01*
X288383Y220043D01*
X289081Y220953D01*
X289520Y222012D01*
X289669Y223150D01*
X289520Y224287D01*
X289081Y225346D01*
X288383Y226257D01*
X287473Y226955D01*
X286413Y227394D01*
X285276Y227543D01*
D02*
G37*
G36*
X140720Y224697D02*
X138689D01*
Y222666D01*
X138861Y222688D01*
X139488Y222948D01*
X140025Y223360D01*
X140438Y223898D01*
X140698Y224525D01*
X140720Y224697D01*
D02*
G37*
G36*
X219972D02*
X217941D01*
X217964Y224525D01*
X218223Y223898D01*
X218636Y223360D01*
X219174Y222948D01*
X219800Y222688D01*
X219972Y222666D01*
Y224697D01*
D02*
G37*
G36*
X223004D02*
X220972D01*
Y222666D01*
X221145Y222688D01*
X221771Y222948D01*
X222309Y223360D01*
X222722Y223898D01*
X222981Y224525D01*
X223004Y224697D01*
D02*
G37*
G36*
X105276Y197544D02*
X104138Y197394D01*
X103079Y196955D01*
X102169Y196257D01*
X101470Y195347D01*
X101031Y194287D01*
X100882Y193150D01*
X101031Y192012D01*
X101470Y190953D01*
X102169Y190043D01*
X103079Y189344D01*
X104138Y188905D01*
X105276Y188756D01*
X106413Y188905D01*
X107473Y189344D01*
X108382Y190043D01*
X109081Y190953D01*
X109520Y192012D01*
X109669Y193150D01*
X109520Y194287D01*
X109081Y195347D01*
X108382Y196257D01*
X107473Y196955D01*
X106413Y197394D01*
X105276Y197544D01*
D02*
G37*
G36*
X115276D02*
X114138Y197394D01*
X113079Y196955D01*
X112169Y196257D01*
X111470Y195347D01*
X111031Y194287D01*
X110882Y193150D01*
X111031Y192012D01*
X111470Y190953D01*
X112169Y190043D01*
X113079Y189344D01*
X114138Y188905D01*
X115276Y188756D01*
X116413Y188905D01*
X117473Y189344D01*
X118383Y190043D01*
X119081Y190953D01*
X119520Y192012D01*
X119669Y193150D01*
X119520Y194287D01*
X119081Y195347D01*
X118383Y196257D01*
X117473Y196955D01*
X116413Y197394D01*
X115276Y197544D01*
D02*
G37*
G36*
X285276D02*
X284138Y197394D01*
X283079Y196955D01*
X282169Y196257D01*
X281470Y195347D01*
X281031Y194287D01*
X280882Y193150D01*
X281031Y192012D01*
X281470Y190953D01*
X282169Y190043D01*
X283079Y189344D01*
X284138Y188905D01*
X285276Y188756D01*
X286413Y188905D01*
X287473Y189344D01*
X288383Y190043D01*
X289081Y190953D01*
X289520Y192012D01*
X289669Y193150D01*
X289520Y194287D01*
X289081Y195347D01*
X288383Y196257D01*
X287473Y196955D01*
X286413Y197394D01*
X285276Y197544D01*
D02*
G37*
G36*
X66437Y187144D02*
X65765Y187056D01*
X65139Y186796D01*
X64601Y186384D01*
X64188Y185846D01*
X63929Y185219D01*
X63840Y184547D01*
X63929Y183875D01*
X64188Y183249D01*
X64601Y182711D01*
X65139Y182298D01*
X65765Y182039D01*
X66437Y181950D01*
X67109Y182039D01*
X67735Y182298D01*
X68273Y182711D01*
X68686Y183249D01*
X68946Y183875D01*
X69034Y184547D01*
X68946Y185219D01*
X68686Y185846D01*
X68273Y186384D01*
X67735Y186796D01*
X67109Y187056D01*
X66437Y187144D01*
D02*
G37*
G36*
X285276Y187543D02*
X284138Y187394D01*
X283079Y186955D01*
X282169Y186257D01*
X281470Y185347D01*
X281031Y184287D01*
X280882Y183150D01*
X281031Y182012D01*
X281470Y180953D01*
X282169Y180043D01*
X283079Y179344D01*
X284138Y178905D01*
X285276Y178756D01*
X286413Y178905D01*
X287473Y179344D01*
X288383Y180043D01*
X289081Y180953D01*
X289520Y182012D01*
X289669Y183150D01*
X289520Y184287D01*
X289081Y185347D01*
X288383Y186257D01*
X287473Y186955D01*
X286413Y187394D01*
X285276Y187543D01*
D02*
G37*
G36*
X295276D02*
X294138Y187394D01*
X293079Y186955D01*
X292169Y186257D01*
X291470Y185347D01*
X291031Y184287D01*
X290882Y183150D01*
X291031Y182012D01*
X291470Y180953D01*
X292169Y180043D01*
X293079Y179344D01*
X294138Y178905D01*
X295276Y178756D01*
X296413Y178905D01*
X297473Y179344D01*
X298382Y180043D01*
X299081Y180953D01*
X299520Y182012D01*
X299670Y183150D01*
X299520Y184287D01*
X299081Y185347D01*
X298382Y186257D01*
X297473Y186955D01*
X296413Y187394D01*
X295276Y187543D01*
D02*
G37*
G36*
X76635Y187144D02*
X75963Y187056D01*
X75337Y186796D01*
X74799Y186384D01*
X74386Y185846D01*
X74127Y185219D01*
X74038Y184547D01*
X74127Y183875D01*
X74386Y183249D01*
X74799Y182711D01*
X75337Y182298D01*
X75963Y182039D01*
X76635Y181950D01*
X77307Y182039D01*
X77934Y182298D01*
X78472Y182711D01*
X78884Y183249D01*
X79144Y183875D01*
X79232Y184547D01*
X79144Y185219D01*
X78884Y185846D01*
X78472Y186384D01*
X77934Y186796D01*
X77307Y187056D01*
X76635Y187144D01*
D02*
G37*
G36*
X295276Y197544D02*
X294138Y197394D01*
X293079Y196955D01*
X292169Y196257D01*
X291470Y195347D01*
X291031Y194287D01*
X290882Y193150D01*
X291031Y192012D01*
X291470Y190953D01*
X292169Y190043D01*
X293079Y189344D01*
X294138Y188905D01*
X295276Y188756D01*
X296413Y188905D01*
X297473Y189344D01*
X298382Y190043D01*
X299081Y190953D01*
X299520Y192012D01*
X299670Y193150D01*
X299520Y194287D01*
X299081Y195347D01*
X298382Y196257D01*
X297473Y196955D01*
X296413Y197394D01*
X295276Y197544D01*
D02*
G37*
G36*
X115276Y207543D02*
X114138Y207394D01*
X113079Y206955D01*
X112169Y206257D01*
X111470Y205346D01*
X111031Y204287D01*
X110882Y203150D01*
X111031Y202012D01*
X111470Y200953D01*
X112169Y200043D01*
X113079Y199344D01*
X114138Y198905D01*
X115276Y198756D01*
X116413Y198905D01*
X117473Y199344D01*
X118383Y200043D01*
X119081Y200953D01*
X119520Y202012D01*
X119669Y203150D01*
X119520Y204287D01*
X119081Y205346D01*
X118383Y206257D01*
X117473Y206955D01*
X116413Y207394D01*
X115276Y207543D01*
D02*
G37*
G36*
X285276D02*
X284138Y207394D01*
X283079Y206955D01*
X282169Y206257D01*
X281470Y205346D01*
X281031Y204287D01*
X280882Y203150D01*
X281031Y202012D01*
X281470Y200953D01*
X282169Y200043D01*
X283079Y199344D01*
X284138Y198905D01*
X285276Y198756D01*
X286413Y198905D01*
X287473Y199344D01*
X288383Y200043D01*
X289081Y200953D01*
X289520Y202012D01*
X289669Y203150D01*
X289520Y204287D01*
X289081Y205346D01*
X288383Y206257D01*
X287473Y206955D01*
X286413Y207394D01*
X285276Y207543D01*
D02*
G37*
G36*
X295276D02*
X294138Y207394D01*
X293079Y206955D01*
X292169Y206257D01*
X291470Y205346D01*
X291031Y204287D01*
X290882Y203150D01*
X291031Y202012D01*
X291470Y200953D01*
X292169Y200043D01*
X293079Y199344D01*
X294138Y198905D01*
X295276Y198756D01*
X296413Y198905D01*
X297473Y199344D01*
X298382Y200043D01*
X299081Y200953D01*
X299520Y202012D01*
X299670Y203150D01*
X299520Y204287D01*
X299081Y205346D01*
X298382Y206257D01*
X297473Y206955D01*
X296413Y207394D01*
X295276Y207543D01*
D02*
G37*
G36*
X105276D02*
X104138Y207394D01*
X103079Y206955D01*
X102169Y206257D01*
X101470Y205346D01*
X101031Y204287D01*
X100882Y203150D01*
X101031Y202012D01*
X101470Y200953D01*
X102169Y200043D01*
X103079Y199344D01*
X104138Y198905D01*
X105276Y198756D01*
X106413Y198905D01*
X107473Y199344D01*
X108382Y200043D01*
X109081Y200953D01*
X109520Y202012D01*
X109669Y203150D01*
X109520Y204287D01*
X109081Y205346D01*
X108382Y206257D01*
X107473Y206955D01*
X106413Y207394D01*
X105276Y207543D01*
D02*
G37*
G36*
X168012Y201416D02*
X167340Y201327D01*
X166713Y201068D01*
X166175Y200655D01*
X165763Y200117D01*
X165503Y199491D01*
X165415Y198819D01*
X165503Y198147D01*
X165763Y197520D01*
X166175Y196983D01*
X166713Y196570D01*
X167340Y196310D01*
X168012Y196222D01*
X168684Y196310D01*
X169310Y196570D01*
X169848Y196983D01*
X170261Y197520D01*
X170520Y198147D01*
X170609Y198819D01*
X170520Y199491D01*
X170261Y200117D01*
X169848Y200655D01*
X169310Y201068D01*
X168684Y201327D01*
X168012Y201416D01*
D02*
G37*
G36*
X223130D02*
X222458Y201327D01*
X221831Y201068D01*
X221294Y200655D01*
X220881Y200117D01*
X220621Y199491D01*
X220533Y198819D01*
X220621Y198147D01*
X220881Y197520D01*
X221294Y196983D01*
X221831Y196570D01*
X222458Y196310D01*
X223130Y196222D01*
X223802Y196310D01*
X224428Y196570D01*
X224966Y196983D01*
X225379Y197520D01*
X225639Y198147D01*
X225727Y198819D01*
X225639Y199491D01*
X225379Y200117D01*
X224966Y200655D01*
X224428Y201068D01*
X223802Y201327D01*
X223130Y201416D01*
D02*
G37*
G36*
X139764Y202105D02*
X139092Y202016D01*
X138465Y201757D01*
X137927Y201344D01*
X137515Y200806D01*
X137255Y200180D01*
X137167Y199508D01*
X137255Y198836D01*
X137515Y198209D01*
X137927Y197671D01*
X138465Y197259D01*
X139092Y196999D01*
X139764Y196911D01*
X140436Y196999D01*
X141062Y197259D01*
X141600Y197671D01*
X142013Y198209D01*
X142272Y198836D01*
X142361Y199508D01*
X142272Y200180D01*
X142013Y200806D01*
X141600Y201344D01*
X141062Y201757D01*
X140436Y202016D01*
X139764Y202105D01*
D02*
G37*
%LPD*%
D22*
X155512Y222441D02*
X183071D01*
X151575Y226378D02*
X179134D01*
X265748Y222441D02*
X284567D01*
X285276Y223150D01*
X278504Y226378D02*
X285276Y233150D01*
X234252Y226378D02*
X261811D01*
X278504D01*
X238189Y222441D02*
X265748D01*
X183071D02*
X211024D01*
X227953Y239370D01*
X179134Y226378D02*
X207480D01*
X289055Y239370D02*
X295276Y233150D01*
X227953Y239370D02*
X289055D01*
X207480Y226378D02*
X223228Y242126D01*
X288252D01*
X295276Y249150D01*
D24*
X45650Y83051D02*
Y110610D01*
X33465Y303937D02*
X34344D01*
X100020Y98051D02*
Y125610D01*
X45650Y110610D02*
X55512Y120472D01*
Y261890D01*
X33465Y283937D02*
X55512Y261890D01*
X86221Y139409D02*
X100020Y125610D01*
X86221Y139409D02*
Y213395D01*
X86827Y214001D01*
Y251454D01*
X34344Y303937D02*
X86827Y251454D01*
D25*
X287402Y122047D02*
X307087D01*
X250689Y158760D02*
X287402Y122047D01*
X250689Y158760D02*
Y198819D01*
X198031Y172047D02*
Y188976D01*
Y172047D02*
X204724Y165354D01*
Y122047D02*
Y165354D01*
D26*
X377953Y15748D02*
D03*
Y338583D02*
D03*
X15748D02*
D03*
Y15748D02*
D03*
D27*
X342520Y98425D02*
D03*
Y88583D02*
D03*
Y108268D02*
D03*
X271654D02*
D03*
Y88583D02*
D03*
Y98425D02*
D03*
X240158D02*
D03*
Y88583D02*
D03*
Y108268D02*
D03*
X169291D02*
D03*
Y88583D02*
D03*
Y98425D02*
D03*
D28*
X356299Y275118D02*
D03*
Y255118D02*
D03*
Y305118D02*
D03*
Y295118D02*
D03*
Y265118D02*
D03*
X33465Y293937D02*
D03*
Y303937D02*
D03*
Y243937D02*
D03*
Y253937D02*
D03*
Y283937D02*
D03*
D29*
X285276Y259150D02*
D03*
Y269150D02*
D03*
Y249150D02*
D03*
Y289150D02*
D03*
Y299150D02*
D03*
Y279150D02*
D03*
Y319150D02*
D03*
Y309150D02*
D03*
Y223150D02*
D03*
Y233150D02*
D03*
Y193150D02*
D03*
Y213150D02*
D03*
Y203150D02*
D03*
Y163150D02*
D03*
Y183150D02*
D03*
Y173150D02*
D03*
X295276Y329150D02*
D03*
Y339150D02*
D03*
X105276Y303150D02*
D03*
Y293150D02*
D03*
Y283150D02*
D03*
Y263150D02*
D03*
Y273150D02*
D03*
Y243150D02*
D03*
Y253150D02*
D03*
Y233150D02*
D03*
X115276D02*
D03*
Y253150D02*
D03*
Y243150D02*
D03*
Y263150D02*
D03*
Y203150D02*
D03*
Y213150D02*
D03*
Y193150D02*
D03*
X105276D02*
D03*
Y213150D02*
D03*
Y203150D02*
D03*
X115276Y173150D02*
D03*
Y183150D02*
D03*
Y163150D02*
D03*
X105276D02*
D03*
Y183150D02*
D03*
Y173150D02*
D03*
X295276Y163150D02*
D03*
Y183150D02*
D03*
Y173150D02*
D03*
Y193150D02*
D03*
Y213150D02*
D03*
Y203150D02*
D03*
Y223150D02*
D03*
Y233150D02*
D03*
Y319150D02*
D03*
Y309150D02*
D03*
Y289150D02*
D03*
Y299150D02*
D03*
Y279150D02*
D03*
Y259150D02*
D03*
Y269150D02*
D03*
Y249150D02*
D03*
D30*
X177165Y35433D02*
D03*
X187165Y25433D02*
D03*
X167165D02*
D03*
Y45433D02*
D03*
X187165D02*
D03*
X238347D02*
D03*
X218347D02*
D03*
Y25433D02*
D03*
X238347D02*
D03*
X228346Y35433D02*
D03*
X279528D02*
D03*
X289528Y25433D02*
D03*
X269528D02*
D03*
Y45433D02*
D03*
X289528D02*
D03*
X340709D02*
D03*
X320709D02*
D03*
Y25433D02*
D03*
X340709D02*
D03*
X330709Y35433D02*
D03*
X62992Y35433D02*
D03*
X72992Y25433D02*
D03*
X52992D02*
D03*
Y45433D02*
D03*
X72992D02*
D03*
X124173D02*
D03*
X104173D02*
D03*
Y25433D02*
D03*
X124173D02*
D03*
X114173Y35433D02*
D03*
D31*
X168012Y198819D02*
D03*
X192539Y157106D02*
D03*
X267342Y157106D02*
D03*
X45650Y83051D02*
D03*
Y110610D02*
D03*
X100020Y125610D02*
D03*
Y98051D02*
D03*
X45650Y142106D02*
D03*
X100020Y157106D02*
D03*
X69587Y223721D02*
D03*
X193602Y71240D02*
D03*
X295965D02*
D03*
X318209Y109862D02*
D03*
X215846D02*
D03*
X173228Y231614D02*
D03*
X228346D02*
D03*
X255906D02*
D03*
X207480Y218819D02*
D03*
X139764Y199508D02*
D03*
X223130Y198819D02*
D03*
X250689D02*
D03*
X198031Y188976D02*
D03*
Y193996D02*
D03*
X138169Y142106D02*
D03*
X127953Y181102D02*
D03*
X307087Y122047D02*
D03*
X204724D02*
D03*
X228346Y133858D02*
D03*
X66437Y184547D02*
D03*
X76635Y184547D02*
D03*
X145669Y231614D02*
D03*
D32*
X234252Y226378D02*
D03*
X265748Y222441D02*
D03*
X179134Y226378D02*
D03*
X183071Y222441D02*
D03*
X155512D02*
D03*
X151575Y226378D02*
D03*
X261811D02*
D03*
X238189Y222441D02*
D03*
X55512Y105905D02*
D03*
Y78347D02*
D03*
X89764Y102756D02*
D03*
X80709Y216535D02*
D03*
X45669Y137008D02*
D03*
X138189Y225197D02*
D03*
X165354Y225590D02*
D03*
X220472Y225197D02*
D03*
X247638Y230315D02*
D03*
M02*
