G04*
G04 #@! TF.GenerationSoftware,Altium Limited,Altium Designer,19.0.10 (269)*
G04*
G04 Layer_Color=65535*
%FSLAX25Y25*%
%MOIN*%
G70*
G01*
G75*
%ADD10C,0.00787*%
%ADD11C,0.01000*%
D10*
X119474Y45374D02*
Y54823D01*
X124986D01*
Y45374D02*
Y54823D01*
X119474Y45374D02*
X124986D01*
X107663D02*
Y54823D01*
X113175D01*
Y45374D02*
Y54823D01*
X107663Y45374D02*
X113175D01*
X148819Y95669D02*
X158268D01*
X148819D02*
Y101181D01*
X158268D01*
Y95669D02*
Y101181D01*
X133071Y95669D02*
X142520D01*
X133071D02*
Y101181D01*
X142520D01*
Y95669D02*
Y101181D01*
X117323Y95669D02*
X126772D01*
X117323D02*
Y101181D01*
X126772D01*
Y95669D02*
Y101181D01*
X101575D02*
X111024D01*
Y95669D02*
Y101181D01*
X101575Y95669D02*
X111024D01*
X101575D02*
Y101181D01*
X168504Y120866D02*
X177953D01*
Y115354D02*
Y120866D01*
X168504Y115354D02*
X177953D01*
X168504D02*
Y120866D01*
D11*
X126772Y45374D02*
Y51372D01*
X129771D01*
X130770Y50372D01*
Y48373D01*
X129771Y47373D01*
X126772D01*
X128771D02*
X130770Y45374D01*
X132770Y51372D02*
X136768D01*
Y50372D01*
X132770Y46374D01*
Y45374D01*
X169078Y124260D02*
Y130258D01*
X172077D01*
X173077Y129259D01*
Y127259D01*
X172077Y126260D01*
X169078D01*
X171078D02*
X173077Y124260D01*
X179075Y130258D02*
X177076Y129259D01*
X175076Y127259D01*
Y125260D01*
X176076Y124260D01*
X178075D01*
X179075Y125260D01*
Y126260D01*
X178075Y127259D01*
X175076D01*
X94488Y45374D02*
Y51372D01*
X97487D01*
X98487Y50372D01*
Y48373D01*
X97487Y47373D01*
X94488D01*
X96487D02*
X98487Y45374D01*
X104485Y51372D02*
X100486D01*
Y48373D01*
X102486Y49373D01*
X103485D01*
X104485Y48373D01*
Y46374D01*
X103485Y45374D01*
X101486D01*
X100486Y46374D01*
X102149Y104575D02*
Y110573D01*
X105148D01*
X106148Y109574D01*
Y107574D01*
X105148Y106574D01*
X102149D01*
X104149D02*
X106148Y104575D01*
X111146D02*
Y110573D01*
X108147Y107574D01*
X112146D01*
X117930Y104530D02*
Y110528D01*
X120929D01*
X121929Y109528D01*
Y107529D01*
X120929Y106529D01*
X117930D01*
X119929D02*
X121929Y104530D01*
X123928Y109528D02*
X124928Y110528D01*
X126927D01*
X127927Y109528D01*
Y108529D01*
X126927Y107529D01*
X125927D01*
X126927D01*
X127927Y106529D01*
Y105530D01*
X126927Y104530D01*
X124928D01*
X123928Y105530D01*
X133630Y104530D02*
Y110528D01*
X136629D01*
X137629Y109528D01*
Y107529D01*
X136629Y106529D01*
X133630D01*
X135629D02*
X137629Y104530D01*
X143627D02*
X139628D01*
X143627Y108529D01*
Y109528D01*
X142627Y110528D01*
X140628D01*
X139628Y109528D01*
X149430Y104530D02*
Y110528D01*
X152429D01*
X153429Y109528D01*
Y107529D01*
X152429Y106529D01*
X149430D01*
X151429D02*
X153429Y104530D01*
X155428D02*
X157427D01*
X156428D01*
Y110528D01*
X155428Y109528D01*
M02*
