M48
;Layer_Color=9474304
;FILE_FORMAT=2:5
INCH,LZ
;TYPE=PLATED
T1F00S00C0.01181
T2F00S00C0.03937
T3F00S00C0.05906
T4F00S00C0.06299
T5F00S00C0.12008
%
T01
X0119193Y0133858
X0124902
X0130905Y0137795
X0136811
X0155709
X0161417Y0133858
X0109252Y013608
X0103445Y0133858
T02
X0085394Y0021969
X0096299
X0107205
X0101752Y003315
X0112657
X0090847
X0079941
X0123563
X0134468
X0145374
X015628
X0150827Y0021969
X0139921
X0129016
X011811
T03
X0035433Y0070866
X0090551
X0145669
X0200787
T04
X0025433Y0060866
Y0080866
X0045433
Y0060866
X0080551
Y0080866
X0100551
Y0060866
X0135669
Y0080866
X0155669
Y0060866
X0190787
Y0080866
X0210787
Y0060866
X0146653Y0125984
X0149016Y0145669
X0087205
X0089567Y0125984
T05
X0052559Y0027559
X0183661
M30
