G04*
G04 #@! TF.GenerationSoftware,Altium Limited,Altium Designer,19.0.10 (269)*
G04*
G04 Layer_Color=8388736*
%FSLAX25Y25*%
%MOIN*%
G70*
G01*
G75*
%ADD12R,0.03150X0.01772*%
%ADD13R,0.01772X0.03150*%
%ADD14C,0.08661*%
%ADD15C,0.09449*%
%ADD16C,0.19685*%
%ADD17C,0.06299*%
D12*
X122230Y47244D02*
D03*
Y52953D02*
D03*
X110419Y47244D02*
D03*
Y52953D02*
D03*
D13*
X156398Y98425D02*
D03*
X150689D02*
D03*
X140650D02*
D03*
X134941D02*
D03*
X124902D02*
D03*
X119193D02*
D03*
X103445D02*
D03*
X109153D02*
D03*
X170374Y118110D02*
D03*
X176083D02*
D03*
D14*
X146653Y125984D02*
D03*
X89567D02*
D03*
X149016Y145669D02*
D03*
X87205D02*
D03*
D15*
X25433Y80866D02*
D03*
X45433D02*
D03*
Y60866D02*
D03*
X25433D02*
D03*
X35433Y70866D02*
D03*
X80551Y80866D02*
D03*
X100551D02*
D03*
Y60866D02*
D03*
X80551D02*
D03*
X90551Y70866D02*
D03*
X135669Y80866D02*
D03*
X155669D02*
D03*
Y60866D02*
D03*
X135669D02*
D03*
X145669Y70866D02*
D03*
X190787Y80866D02*
D03*
X210787D02*
D03*
Y60866D02*
D03*
X190787D02*
D03*
X200787Y70866D02*
D03*
D16*
X183661Y27559D02*
D03*
X52559D02*
D03*
D17*
X118110Y21969D02*
D03*
X129016D02*
D03*
X139921D02*
D03*
X150827D02*
D03*
X85394D02*
D03*
X96299D02*
D03*
X107205D02*
D03*
X112657Y33150D02*
D03*
X101752D02*
D03*
X90847D02*
D03*
X156280D02*
D03*
X145374D02*
D03*
X134468D02*
D03*
X123563D02*
D03*
X79941D02*
D03*
M02*
