G04*
G04 #@! TF.GenerationSoftware,Altium Limited,Altium Designer,19.0.10 (269)*
G04*
G04 Layer_Physical_Order=2*
G04 Layer_Color=16711680*
%FSLAX25Y25*%
%MOIN*%
G70*
G01*
G75*
%ADD10C,0.00787*%
%ADD14C,0.08661*%
%ADD15C,0.09449*%
%ADD16C,0.19685*%
%ADD17C,0.06299*%
%ADD19C,0.03937*%
%ADD20C,0.03937*%
%ADD21O,0.01181X0.07874*%
G36*
X165354Y114173D02*
X137824D01*
Y118074D01*
X137933Y118236D01*
X138025Y118701D01*
Y125394D01*
X138006Y125488D01*
Y126115D01*
X144022Y132131D01*
X159505D01*
X159585Y132026D01*
X160122Y131615D01*
X160747Y131356D01*
X161417Y131268D01*
X162088Y131356D01*
X162713Y131615D01*
X163249Y132026D01*
X163661Y132563D01*
X163920Y133188D01*
X164008Y133858D01*
X163920Y134529D01*
X163661Y135154D01*
X163249Y135690D01*
X162713Y136102D01*
X162088Y136361D01*
X161417Y136449D01*
X160747Y136361D01*
X160122Y136102D01*
X159585Y135690D01*
X159174Y135154D01*
X158915Y134529D01*
X158866Y134157D01*
X143602D01*
X143514Y134140D01*
X143267Y134601D01*
X145449Y136782D01*
X153348D01*
X153465Y136500D01*
X153877Y135963D01*
X154413Y135552D01*
X155038Y135293D01*
X155709Y135205D01*
X156379Y135293D01*
X157004Y135552D01*
X157541Y135963D01*
X157952Y136500D01*
X158211Y137125D01*
X158299Y137795D01*
X158211Y138466D01*
X157952Y139091D01*
X157541Y139627D01*
X157004Y140039D01*
X156379Y140298D01*
X155709Y140386D01*
X155038Y140298D01*
X154413Y140039D01*
X153877Y139627D01*
X153465Y139091D01*
X153348Y138808D01*
X145029D01*
X144641Y138731D01*
X144313Y138512D01*
X135042Y129241D01*
X134965Y129189D01*
X132803Y127027D01*
X132303Y127234D01*
Y130211D01*
X137371Y135278D01*
X137481Y135293D01*
X138106Y135552D01*
X138643Y135963D01*
X139055Y136500D01*
X139313Y137125D01*
X139402Y137795D01*
X139313Y138466D01*
X139055Y139091D01*
X138643Y139627D01*
X138106Y140039D01*
X137481Y140298D01*
X136811Y140386D01*
X136141Y140298D01*
X135516Y140039D01*
X134979Y139627D01*
X134567Y139091D01*
X134309Y138466D01*
X134220Y137795D01*
X134309Y137125D01*
X134567Y136500D01*
X134979Y135963D01*
X134992Y135766D01*
X130573Y131347D01*
X130354Y131018D01*
X130277Y130630D01*
Y126432D01*
X130192Y126348D01*
X130047Y126252D01*
X129795D01*
X129402Y126515D01*
X128937Y126608D01*
X128472Y126515D01*
X127982Y126789D01*
Y129772D01*
X131622Y133412D01*
X131842Y133741D01*
X131919Y134128D01*
Y135435D01*
X132201Y135552D01*
X132737Y135963D01*
X133149Y136500D01*
X133408Y137125D01*
X133496Y137795D01*
X133408Y138466D01*
X133149Y139091D01*
X132737Y139627D01*
X132201Y140039D01*
X131576Y140298D01*
X130905Y140386D01*
X130235Y140298D01*
X129610Y140039D01*
X129074Y139627D01*
X128662Y139091D01*
X128403Y138466D01*
X128315Y137795D01*
X128403Y137125D01*
X128662Y136500D01*
X129074Y135963D01*
X129610Y135552D01*
X129892Y135435D01*
Y134548D01*
X127341Y131997D01*
X126964Y132327D01*
X127145Y132563D01*
X127404Y133188D01*
X127492Y133858D01*
X127404Y134529D01*
X127145Y135154D01*
X126733Y135690D01*
X126197Y136102D01*
X125572Y136361D01*
X124902Y136449D01*
X124231Y136361D01*
X123606Y136102D01*
X123070Y135690D01*
X122658Y135154D01*
X122399Y134529D01*
X122311Y133858D01*
X122399Y133188D01*
X122658Y132563D01*
X123070Y132026D01*
X123606Y131615D01*
X123938Y131477D01*
Y126821D01*
X123561Y126560D01*
X123438Y126527D01*
X123031Y126608D01*
X122567Y126515D01*
X122076Y126789D01*
Y131274D01*
X121999Y131662D01*
X121779Y131991D01*
X121337Y132433D01*
X121437Y132563D01*
X121695Y133188D01*
X121784Y133858D01*
X121695Y134529D01*
X121437Y135154D01*
X121025Y135690D01*
X120488Y136102D01*
X119863Y136361D01*
X119193Y136449D01*
X118522Y136361D01*
X117898Y136102D01*
X117361Y135690D01*
X116949Y135154D01*
X116691Y134529D01*
X116602Y133858D01*
X116691Y133188D01*
X116949Y132563D01*
X117361Y132026D01*
X117898Y131615D01*
X118522Y131356D01*
X119193Y131268D01*
X119585Y131319D01*
X120050Y130854D01*
Y127224D01*
X119561Y126761D01*
X119427Y126766D01*
X111458Y134735D01*
X111496Y134785D01*
X111754Y135409D01*
X111843Y136080D01*
X111754Y136750D01*
X111496Y137375D01*
X111084Y137912D01*
X110547Y138323D01*
X109923Y138582D01*
X109252Y138671D01*
X108581Y138582D01*
X107957Y138323D01*
X107420Y137912D01*
X107008Y137375D01*
X106750Y136750D01*
X106661Y136080D01*
X106750Y135409D01*
X107008Y134785D01*
X107420Y134248D01*
X107957Y133836D01*
X108581Y133578D01*
X109252Y133489D01*
X109770Y133557D01*
X116290Y127037D01*
X116200Y126513D01*
X115834Y126374D01*
X115686Y126472D01*
X115490Y126766D01*
X111887Y130369D01*
X111558Y130589D01*
X111170Y130666D01*
X108070D01*
X105830Y132906D01*
X105947Y133188D01*
X106035Y133858D01*
X105947Y134529D01*
X105689Y135154D01*
X105277Y135690D01*
X104740Y136102D01*
X104115Y136361D01*
X103445Y136449D01*
X102774Y136361D01*
X102149Y136102D01*
X101613Y135690D01*
X101201Y135154D01*
X100943Y134529D01*
X100854Y133858D01*
X100943Y133188D01*
X101201Y132563D01*
X101613Y132026D01*
X102149Y131615D01*
X102774Y131356D01*
X103445Y131268D01*
X104115Y131356D01*
X104398Y131473D01*
X106934Y128936D01*
X107263Y128717D01*
X107650Y128640D01*
X110751D01*
X112353Y127037D01*
X112263Y126513D01*
X111897Y126374D01*
X111685Y126515D01*
X111221Y126608D01*
X110756Y126515D01*
X110362Y126252D01*
X110110D01*
X109716Y126515D01*
X109252Y126608D01*
X108787Y126515D01*
X108394Y126252D01*
X108142D01*
X107748Y126515D01*
X107283Y126608D01*
X106819Y126515D01*
X106425Y126252D01*
X106173D01*
X105780Y126515D01*
X105315Y126608D01*
X104850Y126515D01*
X104457Y126252D01*
X104205D01*
X103811Y126515D01*
X103347Y126608D01*
X102882Y126515D01*
X102488Y126252D01*
X102236D01*
X101842Y126515D01*
X101378Y126608D01*
X100913Y126515D01*
X100520Y126252D01*
X100257Y125858D01*
X100164Y125394D01*
Y118701D01*
X100257Y118236D01*
X100520Y117842D01*
X100913Y117579D01*
X101378Y117487D01*
X101842Y117579D01*
X102236Y117842D01*
X102488D01*
X102882Y117579D01*
X103347Y117487D01*
X103811Y117579D01*
X104205Y117842D01*
X104457D01*
X104850Y117579D01*
X105315Y117487D01*
X105780Y117579D01*
X106173Y117842D01*
X106425D01*
X106819Y117579D01*
X107283Y117487D01*
X107748Y117579D01*
X108142Y117842D01*
X108394D01*
X108787Y117579D01*
X109252Y117487D01*
X109716Y117579D01*
X110110Y117842D01*
X110362D01*
X110756Y117579D01*
X111221Y117487D01*
X111685Y117579D01*
X112079Y117842D01*
X112331D01*
X112724Y117579D01*
X113189Y117487D01*
X113654Y117579D01*
X114047Y117842D01*
X114299D01*
X114693Y117579D01*
X115157Y117487D01*
X115622Y117579D01*
X116113Y117306D01*
Y115266D01*
X115020Y114173D01*
X70866D01*
Y153543D01*
X165354D01*
Y114173D01*
D02*
G37*
G36*
X232283Y3937D02*
X3937D01*
Y153543D01*
X70217D01*
X70217Y153543D01*
Y114173D01*
X70407Y113714D01*
X70866Y113524D01*
X115020D01*
X115479Y113714D01*
X116572Y114807D01*
X116762Y115266D01*
Y116781D01*
X117126Y117079D01*
X117581Y117170D01*
X118081Y116871D01*
Y112624D01*
X114142Y108685D01*
X113859Y108802D01*
X113189Y108890D01*
X47244D01*
X46574Y108802D01*
X45949Y108543D01*
X45412Y108131D01*
X33601Y96320D01*
X33189Y95784D01*
X32931Y95159D01*
X32842Y94488D01*
Y75556D01*
X32748Y75517D01*
X31636Y74664D01*
X30782Y73551D01*
X30246Y72256D01*
X30063Y70866D01*
X30246Y69476D01*
X30782Y68181D01*
X31636Y67069D01*
X32748Y66215D01*
X32842Y66176D01*
Y57244D01*
X32931Y56574D01*
X33189Y55949D01*
X33601Y55412D01*
X43601Y45412D01*
X44138Y45000D01*
X44763Y44742D01*
X45433Y44653D01*
X86584D01*
X97984Y33254D01*
X97970Y33150D01*
X98099Y32171D01*
X98477Y31259D01*
X99078Y30475D01*
X99861Y29874D01*
X100773Y29496D01*
X101752Y29368D01*
X102731Y29496D01*
X103643Y29874D01*
X104426Y30475D01*
X105027Y31259D01*
X105405Y32171D01*
X105534Y33150D01*
X105405Y34128D01*
X105027Y35041D01*
X104426Y35824D01*
X103643Y36425D01*
X102731Y36803D01*
X101752Y36932D01*
X101647Y36918D01*
X89489Y49076D01*
X88953Y49488D01*
X88328Y49747D01*
X87657Y49835D01*
X46506D01*
X38024Y58317D01*
Y66176D01*
X38118Y66215D01*
X39230Y67069D01*
X40084Y68181D01*
X40620Y69476D01*
X40803Y70866D01*
X40620Y72256D01*
X40084Y73551D01*
X39230Y74664D01*
X38118Y75517D01*
X38024Y75556D01*
Y93415D01*
X48317Y103709D01*
X113189D01*
X113859Y103797D01*
X114484Y104056D01*
X115021Y104467D01*
X115433Y105004D01*
X115691Y105629D01*
X115780Y106299D01*
X115691Y106970D01*
X115575Y107252D01*
X119811Y111488D01*
X120030Y111817D01*
X120108Y112205D01*
Y117306D01*
X120598Y117579D01*
X121063Y117487D01*
X121528Y117579D01*
X121763Y117737D01*
X121885Y117554D01*
X122411Y117202D01*
X122531Y117178D01*
Y122047D01*
X123531D01*
Y117143D01*
X123987Y116871D01*
Y105735D01*
X116958Y98706D01*
X116676Y98822D01*
X116005Y98911D01*
X100257D01*
X99587Y98822D01*
X98962Y98564D01*
X98425Y98152D01*
X88719Y88446D01*
X88308Y87910D01*
X88049Y87285D01*
X87960Y86614D01*
Y75556D01*
X87866Y75517D01*
X86754Y74664D01*
X85900Y73551D01*
X85364Y72256D01*
X85181Y70866D01*
X85364Y69476D01*
X85900Y68181D01*
X86754Y67069D01*
X87866Y66215D01*
X87960Y66176D01*
Y55256D01*
X88049Y54585D01*
X88308Y53961D01*
X88719Y53424D01*
X108889Y33254D01*
X108876Y33150D01*
X109004Y32171D01*
X109382Y31259D01*
X109983Y30475D01*
X110766Y29874D01*
X111679Y29496D01*
X112657Y29368D01*
X113636Y29496D01*
X114549Y29874D01*
X115332Y30475D01*
X115933Y31259D01*
X116311Y32171D01*
X116439Y33150D01*
X116311Y34128D01*
X115933Y35041D01*
X115332Y35824D01*
X114549Y36425D01*
X113636Y36803D01*
X112657Y36932D01*
X112553Y36918D01*
X93142Y56329D01*
Y66176D01*
X93236Y66215D01*
X94349Y67069D01*
X95202Y68181D01*
X95739Y69476D01*
X95921Y70866D01*
X95739Y72256D01*
X95202Y73551D01*
X94349Y74664D01*
X93236Y75517D01*
X93142Y75556D01*
Y85541D01*
X101330Y93729D01*
X116005D01*
X116676Y93818D01*
X117300Y94077D01*
X117837Y94488D01*
X118249Y95025D01*
X118508Y95649D01*
X118596Y96320D01*
X118508Y96991D01*
X118391Y97273D01*
X125716Y104599D01*
X125936Y104927D01*
X126013Y105315D01*
Y117306D01*
X126504Y117579D01*
X126969Y117487D01*
X127433Y117579D01*
X127668Y117736D01*
X127790Y117554D01*
X128316Y117202D01*
X128437Y117178D01*
Y122047D01*
X129437D01*
Y117143D01*
X129892Y116871D01*
Y104723D01*
X129610Y104606D01*
X129074Y104194D01*
X128662Y103657D01*
X128403Y103033D01*
X128315Y102362D01*
X128403Y101692D01*
X128662Y101067D01*
X129074Y100530D01*
X143079Y86525D01*
Y75556D01*
X142984Y75517D01*
X141872Y74664D01*
X141018Y73551D01*
X140482Y72256D01*
X140299Y70866D01*
X140482Y69476D01*
X141018Y68181D01*
X141872Y67069D01*
X142984Y66215D01*
X143079Y66176D01*
Y56329D01*
X123668Y36918D01*
X123563Y36932D01*
X122584Y36803D01*
X121672Y36425D01*
X120889Y35824D01*
X120288Y35041D01*
X119910Y34128D01*
X119781Y33150D01*
X119910Y32171D01*
X120288Y31259D01*
X120889Y30475D01*
X121672Y29874D01*
X122584Y29496D01*
X123563Y29368D01*
X124542Y29496D01*
X125454Y29874D01*
X126237Y30475D01*
X126838Y31259D01*
X127216Y32171D01*
X127345Y33150D01*
X127331Y33254D01*
X147501Y53424D01*
X147913Y53961D01*
X148172Y54585D01*
X148260Y55256D01*
Y66176D01*
X148354Y66215D01*
X149467Y67069D01*
X150320Y68181D01*
X150857Y69476D01*
X151040Y70866D01*
X150857Y72256D01*
X150320Y73551D01*
X149467Y74664D01*
X148354Y75517D01*
X148260Y75556D01*
Y87598D01*
X148172Y88269D01*
X147913Y88894D01*
X147501Y89430D01*
X132737Y104194D01*
X132201Y104606D01*
X131919Y104723D01*
Y117306D01*
X132410Y117579D01*
X132874Y117487D01*
X133339Y117579D01*
X133574Y117737D01*
X133696Y117554D01*
X134222Y117202D01*
X134343Y117178D01*
Y122047D01*
X135343D01*
Y117143D01*
X135798Y116871D01*
Y111494D01*
X135875Y111106D01*
X136095Y110777D01*
X140185Y106687D01*
X140068Y106405D01*
X139980Y105735D01*
X140068Y105064D01*
X140326Y104439D01*
X140738Y103903D01*
X141275Y103491D01*
X141900Y103232D01*
X142570Y103144D01*
X184531D01*
X198197Y89478D01*
Y75556D01*
X198102Y75517D01*
X196990Y74664D01*
X196136Y73551D01*
X195600Y72256D01*
X195417Y70866D01*
X195600Y69476D01*
X196136Y68181D01*
X196990Y67069D01*
X198102Y66215D01*
X198197Y66176D01*
Y60128D01*
X196528Y58459D01*
X196104Y58742D01*
X196364Y59372D01*
X196495Y60366D01*
X191287D01*
Y55158D01*
X192282Y55289D01*
X192911Y55550D01*
X193194Y55126D01*
X187903Y49835D01*
X148563D01*
X147892Y49747D01*
X147268Y49488D01*
X146731Y49076D01*
X134573Y36918D01*
X134468Y36932D01*
X133490Y36803D01*
X132578Y36425D01*
X131794Y35824D01*
X131193Y35041D01*
X130815Y34128D01*
X130687Y33150D01*
X130815Y32171D01*
X131193Y31259D01*
X131794Y30475D01*
X132578Y29874D01*
X133490Y29496D01*
X134468Y29368D01*
X135447Y29496D01*
X136360Y29874D01*
X137143Y30475D01*
X137744Y31259D01*
X138122Y32171D01*
X138251Y33150D01*
X138237Y33254D01*
X149636Y44653D01*
X188976D01*
X189647Y44742D01*
X190272Y45000D01*
X190808Y45412D01*
X202619Y57223D01*
X203031Y57760D01*
X203290Y58385D01*
X203378Y59055D01*
Y66176D01*
X203473Y66215D01*
X204585Y67069D01*
X205438Y68181D01*
X205975Y69476D01*
X206158Y70866D01*
X205975Y72256D01*
X205438Y73551D01*
X204585Y74664D01*
X203473Y75517D01*
X203378Y75556D01*
Y90551D01*
X203290Y91222D01*
X203031Y91847D01*
X202619Y92383D01*
X187436Y107566D01*
X186899Y107978D01*
X186275Y108237D01*
X185604Y108325D01*
X142570D01*
X141900Y108237D01*
X141618Y108120D01*
X137824Y111913D01*
Y113524D01*
X165354D01*
X165814Y113714D01*
X166004Y114173D01*
Y153543D01*
X166004Y153543D01*
X232283D01*
Y3937D01*
D02*
G37*
%LPC*%
G36*
X149516Y150980D02*
Y146169D01*
X154327D01*
X154209Y147061D01*
X153672Y148358D01*
X152818Y149471D01*
X151704Y150326D01*
X150407Y150863D01*
X149516Y150980D01*
D02*
G37*
G36*
X148516D02*
X147624Y150863D01*
X146327Y150326D01*
X145214Y149471D01*
X144359Y148358D01*
X143822Y147061D01*
X143705Y146169D01*
X148516D01*
Y150980D01*
D02*
G37*
G36*
X87705D02*
Y146169D01*
X92516D01*
X92398Y147061D01*
X91861Y148358D01*
X91007Y149471D01*
X89893Y150326D01*
X88596Y150863D01*
X87705Y150980D01*
D02*
G37*
G36*
X86705D02*
X85813Y150863D01*
X84516Y150326D01*
X83403Y149471D01*
X82548Y148358D01*
X82011Y147061D01*
X81894Y146169D01*
X86705D01*
Y150980D01*
D02*
G37*
G36*
X92516Y145169D02*
X87705D01*
Y140358D01*
X88596Y140476D01*
X89893Y141013D01*
X91007Y141867D01*
X91861Y142981D01*
X92398Y144278D01*
X92516Y145169D01*
D02*
G37*
G36*
X154327Y145169D02*
X149516D01*
Y140358D01*
X150407Y140476D01*
X151704Y141013D01*
X152818Y141867D01*
X153672Y142981D01*
X154209Y144278D01*
X154327Y145169D01*
D02*
G37*
G36*
X148516D02*
X143705D01*
X143822Y144278D01*
X144359Y142981D01*
X145214Y141867D01*
X146327Y141013D01*
X147624Y140476D01*
X148516Y140358D01*
Y145169D01*
D02*
G37*
G36*
X86705Y145169D02*
X81894D01*
X82011Y144278D01*
X82548Y142981D01*
X83403Y141867D01*
X84516Y141013D01*
X85813Y140476D01*
X86705Y140358D01*
Y145169D01*
D02*
G37*
G36*
X90067Y131295D02*
Y126484D01*
X94878D01*
X94760Y127376D01*
X94223Y128673D01*
X93369Y129786D01*
X92255Y130641D01*
X90958Y131178D01*
X90067Y131295D01*
D02*
G37*
G36*
X147153D02*
Y126484D01*
X151964D01*
X151847Y127376D01*
X151310Y128673D01*
X150455Y129786D01*
X149342Y130641D01*
X148045Y131178D01*
X147153Y131295D01*
D02*
G37*
G36*
X146153D02*
X145262Y131178D01*
X143965Y130641D01*
X142852Y129786D01*
X141997Y128673D01*
X141460Y127376D01*
X141343Y126484D01*
X146153D01*
Y131295D01*
D02*
G37*
G36*
X89067D02*
X88175Y131178D01*
X86879Y130641D01*
X85765Y129786D01*
X84911Y128673D01*
X84373Y127376D01*
X84256Y126484D01*
X89067D01*
Y131295D01*
D02*
G37*
G36*
X94878Y125484D02*
X90067D01*
Y120673D01*
X90958Y120791D01*
X92255Y121328D01*
X93369Y122182D01*
X94223Y123296D01*
X94760Y124593D01*
X94878Y125484D01*
D02*
G37*
G36*
X151964D02*
X147153D01*
Y120673D01*
X148045Y120791D01*
X149342Y121328D01*
X150455Y122182D01*
X151310Y123296D01*
X151847Y124593D01*
X151964Y125484D01*
D02*
G37*
G36*
X146153D02*
X141343D01*
X141460Y124593D01*
X141997Y123296D01*
X142852Y122182D01*
X143965Y121328D01*
X145262Y120791D01*
X146153Y120673D01*
Y125484D01*
D02*
G37*
G36*
X89067D02*
X84256D01*
X84373Y124593D01*
X84911Y123296D01*
X85765Y122182D01*
X86879Y121328D01*
X88175Y120791D01*
X89067Y120673D01*
Y125484D01*
D02*
G37*
G36*
X156169Y86574D02*
Y81366D01*
X161377D01*
X161246Y82361D01*
X160670Y83753D01*
X159752Y84949D01*
X158556Y85866D01*
X157164Y86443D01*
X156169Y86574D01*
D02*
G37*
G36*
X155169D02*
X154175Y86443D01*
X152782Y85866D01*
X151587Y84949D01*
X150669Y83753D01*
X150092Y82361D01*
X149961Y81366D01*
X155169D01*
Y86574D01*
D02*
G37*
G36*
X191287D02*
Y81366D01*
X196495D01*
X196364Y82361D01*
X195788Y83753D01*
X194870Y84949D01*
X193674Y85866D01*
X192282Y86443D01*
X191287Y86574D01*
D02*
G37*
G36*
X81051D02*
Y81366D01*
X86259D01*
X86128Y82361D01*
X85551Y83753D01*
X84634Y84949D01*
X83438Y85866D01*
X82046Y86443D01*
X81051Y86574D01*
D02*
G37*
G36*
X25933D02*
Y81366D01*
X31141D01*
X31010Y82361D01*
X30433Y83753D01*
X29516Y84949D01*
X28320Y85866D01*
X26927Y86443D01*
X25933Y86574D01*
D02*
G37*
G36*
X136169Y86574D02*
Y81366D01*
X141377D01*
X141246Y82361D01*
X140670Y83753D01*
X139752Y84949D01*
X138556Y85866D01*
X137164Y86443D01*
X136169Y86574D01*
D02*
G37*
G36*
X211287Y86574D02*
Y81366D01*
X216495D01*
X216365Y82361D01*
X215788Y83753D01*
X214870Y84949D01*
X213674Y85866D01*
X212282Y86443D01*
X211287Y86574D01*
D02*
G37*
G36*
X101051D02*
Y81366D01*
X106259D01*
X106128Y82361D01*
X105551Y83753D01*
X104634Y84949D01*
X103438Y85866D01*
X102046Y86443D01*
X101051Y86574D01*
D02*
G37*
G36*
X45933D02*
Y81366D01*
X51141D01*
X51010Y82361D01*
X50433Y83753D01*
X49516Y84949D01*
X48320Y85866D01*
X46927Y86443D01*
X45933Y86574D01*
D02*
G37*
G36*
X210287D02*
X209293Y86443D01*
X207901Y85866D01*
X206705Y84949D01*
X205787Y83753D01*
X205210Y82361D01*
X205079Y81366D01*
X210287D01*
Y86574D01*
D02*
G37*
G36*
X100051D02*
X99057Y86443D01*
X97664Y85866D01*
X96469Y84949D01*
X95551Y83753D01*
X94974Y82361D01*
X94843Y81366D01*
X100051D01*
Y86574D01*
D02*
G37*
G36*
X44933D02*
X43939Y86443D01*
X42546Y85866D01*
X41350Y84949D01*
X40433Y83753D01*
X39856Y82361D01*
X39725Y81366D01*
X44933D01*
Y86574D01*
D02*
G37*
G36*
X135169D02*
X134175Y86443D01*
X132782Y85866D01*
X131587Y84949D01*
X130669Y83753D01*
X130092Y82361D01*
X129961Y81366D01*
X135169D01*
Y86574D01*
D02*
G37*
G36*
X190287D02*
X189293Y86443D01*
X187900Y85866D01*
X186705Y84949D01*
X185787Y83753D01*
X185210Y82361D01*
X185079Y81366D01*
X190287D01*
Y86574D01*
D02*
G37*
G36*
X24933D02*
X23939Y86443D01*
X22546Y85866D01*
X21350Y84949D01*
X20433Y83753D01*
X19856Y82361D01*
X19725Y81366D01*
X24933D01*
Y86574D01*
D02*
G37*
G36*
X80051D02*
X79057Y86443D01*
X77664Y85866D01*
X76468Y84949D01*
X75551Y83753D01*
X74974Y82361D01*
X74843Y81366D01*
X80051D01*
Y86574D01*
D02*
G37*
G36*
X135169Y80366D02*
X129961D01*
X130092Y79372D01*
X130669Y77979D01*
X131587Y76783D01*
X132782Y75866D01*
X134175Y75289D01*
X135169Y75158D01*
Y80366D01*
D02*
G37*
G36*
X155169Y80366D02*
X149961D01*
X150092Y79372D01*
X150669Y77979D01*
X151587Y76783D01*
X152782Y75866D01*
X154175Y75289D01*
X155169Y75158D01*
Y80366D01*
D02*
G37*
G36*
X196495Y80366D02*
X191287D01*
Y75158D01*
X192282Y75289D01*
X193674Y75866D01*
X194870Y76783D01*
X195788Y77979D01*
X196364Y79372D01*
X196495Y80366D01*
D02*
G37*
G36*
X86259D02*
X81051D01*
Y75158D01*
X82046Y75289D01*
X83438Y75866D01*
X84634Y76783D01*
X85551Y77979D01*
X86128Y79372D01*
X86259Y80366D01*
D02*
G37*
G36*
X31141D02*
X25933D01*
Y75158D01*
X26927Y75289D01*
X28320Y75866D01*
X29516Y76783D01*
X30433Y77979D01*
X31010Y79372D01*
X31141Y80366D01*
D02*
G37*
G36*
X216495D02*
X211287D01*
Y75158D01*
X212282Y75289D01*
X213674Y75866D01*
X214870Y76783D01*
X215788Y77979D01*
X216365Y79372D01*
X216495Y80366D01*
D02*
G37*
G36*
X106259D02*
X101051D01*
Y75158D01*
X102046Y75289D01*
X103438Y75866D01*
X104634Y76783D01*
X105551Y77979D01*
X106128Y79372D01*
X106259Y80366D01*
D02*
G37*
G36*
X51141D02*
X45933D01*
Y75158D01*
X46927Y75289D01*
X48320Y75866D01*
X49516Y76783D01*
X50433Y77979D01*
X51010Y79372D01*
X51141Y80366D01*
D02*
G37*
G36*
X100051D02*
X94843D01*
X94974Y79372D01*
X95551Y77979D01*
X96469Y76783D01*
X97664Y75866D01*
X99057Y75289D01*
X100051Y75158D01*
Y80366D01*
D02*
G37*
G36*
X44933D02*
X39725D01*
X39856Y79372D01*
X40433Y77979D01*
X41350Y76783D01*
X42546Y75866D01*
X43939Y75289D01*
X44933Y75158D01*
Y80366D01*
D02*
G37*
G36*
X210287D02*
X205079D01*
X205210Y79372D01*
X205787Y77979D01*
X206705Y76783D01*
X207901Y75866D01*
X209293Y75289D01*
X210287Y75158D01*
Y80366D01*
D02*
G37*
G36*
X190287D02*
X185079D01*
X185210Y79372D01*
X185787Y77979D01*
X186705Y76783D01*
X187900Y75866D01*
X189293Y75289D01*
X190287Y75158D01*
Y80366D01*
D02*
G37*
G36*
X80051D02*
X74843D01*
X74974Y79372D01*
X75551Y77979D01*
X76468Y76783D01*
X77664Y75866D01*
X79057Y75289D01*
X80051Y75158D01*
Y80366D01*
D02*
G37*
G36*
X24933D02*
X19725D01*
X19856Y79372D01*
X20433Y77979D01*
X21350Y76783D01*
X22546Y75866D01*
X23939Y75289D01*
X24933Y75158D01*
Y80366D01*
D02*
G37*
G36*
X161377Y80366D02*
X156169D01*
Y75158D01*
X157164Y75289D01*
X158556Y75866D01*
X159752Y76783D01*
X160670Y77979D01*
X161246Y79372D01*
X161377Y80366D01*
D02*
G37*
G36*
X141377Y80366D02*
X136169D01*
Y75158D01*
X137164Y75289D01*
X138556Y75866D01*
X139752Y76783D01*
X140670Y77979D01*
X141246Y79372D01*
X141377Y80366D01*
D02*
G37*
G36*
X191287Y66574D02*
Y61366D01*
X196495D01*
X196364Y62361D01*
X195788Y63753D01*
X194870Y64949D01*
X193674Y65866D01*
X192282Y66443D01*
X191287Y66574D01*
D02*
G37*
G36*
X81051D02*
Y61366D01*
X86259D01*
X86128Y62361D01*
X85551Y63753D01*
X84634Y64949D01*
X83438Y65866D01*
X82046Y66443D01*
X81051Y66574D01*
D02*
G37*
G36*
X25933D02*
Y61366D01*
X31141D01*
X31010Y62361D01*
X30433Y63753D01*
X29516Y64949D01*
X28320Y65866D01*
X26927Y66443D01*
X25933Y66574D01*
D02*
G37*
G36*
X211287D02*
Y61366D01*
X216495D01*
X216365Y62361D01*
X215788Y63753D01*
X214870Y64949D01*
X213674Y65866D01*
X212282Y66443D01*
X211287Y66574D01*
D02*
G37*
G36*
X210287D02*
X209293Y66443D01*
X207901Y65866D01*
X206705Y64949D01*
X205787Y63753D01*
X205210Y62361D01*
X205079Y61366D01*
X210287D01*
Y66574D01*
D02*
G37*
G36*
X156169D02*
Y61366D01*
X161377D01*
X161246Y62361D01*
X160670Y63753D01*
X159752Y64949D01*
X158556Y65866D01*
X157164Y66443D01*
X156169Y66574D01*
D02*
G37*
G36*
X155169D02*
X154175Y66443D01*
X152782Y65866D01*
X151587Y64949D01*
X150669Y63753D01*
X150092Y62361D01*
X149961Y61366D01*
X155169D01*
Y66574D01*
D02*
G37*
G36*
X101051D02*
Y61366D01*
X106259D01*
X106128Y62361D01*
X105551Y63753D01*
X104634Y64949D01*
X103438Y65866D01*
X102046Y66443D01*
X101051Y66574D01*
D02*
G37*
G36*
X100051D02*
X99057Y66443D01*
X97664Y65866D01*
X96469Y64949D01*
X95551Y63753D01*
X94974Y62361D01*
X94843Y61366D01*
X100051D01*
Y66574D01*
D02*
G37*
G36*
X45933D02*
Y61366D01*
X51141D01*
X51010Y62361D01*
X50433Y63753D01*
X49516Y64949D01*
X48320Y65866D01*
X46927Y66443D01*
X45933Y66574D01*
D02*
G37*
G36*
X44933D02*
X43939Y66443D01*
X42546Y65866D01*
X41350Y64949D01*
X40433Y63753D01*
X39856Y62361D01*
X39725Y61366D01*
X44933D01*
Y66574D01*
D02*
G37*
G36*
X80051D02*
X79057Y66443D01*
X77664Y65866D01*
X76468Y64949D01*
X75551Y63753D01*
X74974Y62361D01*
X74843Y61366D01*
X80051D01*
Y66574D01*
D02*
G37*
G36*
X190287D02*
X189293Y66443D01*
X187900Y65866D01*
X186705Y64949D01*
X185787Y63753D01*
X185210Y62361D01*
X185079Y61366D01*
X190287D01*
Y66574D01*
D02*
G37*
G36*
X24933D02*
X23939Y66443D01*
X22546Y65866D01*
X21350Y64949D01*
X20433Y63753D01*
X19856Y62361D01*
X19725Y61366D01*
X24933D01*
Y66574D01*
D02*
G37*
G36*
X136169D02*
Y61366D01*
X141377D01*
X141246Y62361D01*
X140670Y63753D01*
X139752Y64949D01*
X138556Y65866D01*
X137164Y66443D01*
X136169Y66574D01*
D02*
G37*
G36*
X135169D02*
X134175Y66443D01*
X132782Y65866D01*
X131587Y64949D01*
X130669Y63753D01*
X130092Y62361D01*
X129961Y61366D01*
X135169D01*
Y66574D01*
D02*
G37*
G36*
Y60366D02*
X129961D01*
X130092Y59372D01*
X130669Y57979D01*
X131587Y56783D01*
X132782Y55866D01*
X134175Y55289D01*
X135169Y55158D01*
Y60366D01*
D02*
G37*
G36*
X86259Y60366D02*
X81051D01*
Y55158D01*
X82046Y55289D01*
X83438Y55866D01*
X84634Y56783D01*
X85551Y57979D01*
X86128Y59372D01*
X86259Y60366D01*
D02*
G37*
G36*
X31141D02*
X25933D01*
Y55158D01*
X26927Y55289D01*
X28320Y55866D01*
X29516Y56783D01*
X30433Y57979D01*
X31010Y59372D01*
X31141Y60366D01*
D02*
G37*
G36*
X216495D02*
X211287D01*
Y55158D01*
X212282Y55289D01*
X213674Y55866D01*
X214870Y56783D01*
X215788Y57979D01*
X216365Y59372D01*
X216495Y60366D01*
D02*
G37*
G36*
X210287D02*
X205079D01*
X205210Y59372D01*
X205787Y57979D01*
X206705Y56783D01*
X207901Y55866D01*
X209293Y55289D01*
X210287Y55158D01*
Y60366D01*
D02*
G37*
G36*
X161377D02*
X156169D01*
Y55158D01*
X157164Y55289D01*
X158556Y55866D01*
X159752Y56783D01*
X160670Y57979D01*
X161246Y59372D01*
X161377Y60366D01*
D02*
G37*
G36*
X155169D02*
X149961D01*
X150092Y59372D01*
X150669Y57979D01*
X151587Y56783D01*
X152782Y55866D01*
X154175Y55289D01*
X155169Y55158D01*
Y60366D01*
D02*
G37*
G36*
X106259D02*
X101051D01*
Y55158D01*
X102046Y55289D01*
X103438Y55866D01*
X104634Y56783D01*
X105551Y57979D01*
X106128Y59372D01*
X106259Y60366D01*
D02*
G37*
G36*
X100051D02*
X94843D01*
X94974Y59372D01*
X95551Y57979D01*
X96469Y56783D01*
X97664Y55866D01*
X99057Y55289D01*
X100051Y55158D01*
Y60366D01*
D02*
G37*
G36*
X51141D02*
X45933D01*
Y55158D01*
X46927Y55289D01*
X48320Y55866D01*
X49516Y56783D01*
X50433Y57979D01*
X51010Y59372D01*
X51141Y60366D01*
D02*
G37*
G36*
X44933D02*
X39725D01*
X39856Y59372D01*
X40433Y57979D01*
X41350Y56783D01*
X42546Y55866D01*
X43939Y55289D01*
X44933Y55158D01*
Y60366D01*
D02*
G37*
G36*
X190287D02*
X185079D01*
X185210Y59372D01*
X185787Y57979D01*
X186705Y56783D01*
X187900Y55866D01*
X189293Y55289D01*
X190287Y55158D01*
Y60366D01*
D02*
G37*
G36*
X80051D02*
X74843D01*
X74974Y59372D01*
X75551Y57979D01*
X76468Y56783D01*
X77664Y55866D01*
X79057Y55289D01*
X80051Y55158D01*
Y60366D01*
D02*
G37*
G36*
X24933D02*
X19725D01*
X19856Y59372D01*
X20433Y57979D01*
X21350Y56783D01*
X22546Y55866D01*
X23939Y55289D01*
X24933Y55158D01*
Y60366D01*
D02*
G37*
G36*
X141377Y60366D02*
X136169D01*
Y55158D01*
X137164Y55289D01*
X138556Y55866D01*
X139752Y56783D01*
X140670Y57979D01*
X141246Y59372D01*
X141377Y60366D01*
D02*
G37*
G36*
X145374Y36932D02*
X144395Y36803D01*
X143483Y36425D01*
X142700Y35824D01*
X142099Y35041D01*
X141721Y34128D01*
X141592Y33150D01*
X141721Y32171D01*
X142099Y31259D01*
X142700Y30475D01*
X143483Y29874D01*
X144395Y29496D01*
X145374Y29368D01*
X146353Y29496D01*
X147265Y29874D01*
X148048Y30475D01*
X148649Y31259D01*
X149027Y32171D01*
X149156Y33150D01*
X149027Y34128D01*
X148649Y35041D01*
X148048Y35824D01*
X147265Y36425D01*
X146353Y36803D01*
X145374Y36932D01*
D02*
G37*
G36*
X90847D02*
X89868Y36803D01*
X88955Y36425D01*
X88172Y35824D01*
X87571Y35041D01*
X87193Y34128D01*
X87064Y33150D01*
X87193Y32171D01*
X87571Y31259D01*
X88172Y30475D01*
X88955Y29874D01*
X89868Y29496D01*
X90847Y29368D01*
X91825Y29496D01*
X92738Y29874D01*
X93521Y30475D01*
X94122Y31259D01*
X94500Y32171D01*
X94628Y33150D01*
X94500Y34128D01*
X94122Y35041D01*
X93521Y35824D01*
X92738Y36425D01*
X91825Y36803D01*
X90847Y36932D01*
D02*
G37*
G36*
X156280D02*
X155301Y36803D01*
X154389Y36425D01*
X153605Y35824D01*
X153004Y35041D01*
X152626Y34128D01*
X152498Y33150D01*
X152626Y32171D01*
X153004Y31259D01*
X153237Y30955D01*
Y27403D01*
X151496Y25662D01*
X150827Y25750D01*
X149848Y25622D01*
X148936Y25244D01*
X148152Y24643D01*
X148088Y24559D01*
X142660D01*
X142596Y24643D01*
X141812Y25244D01*
X140900Y25622D01*
X139921Y25750D01*
X138942Y25622D01*
X138030Y25244D01*
X137247Y24643D01*
X137183Y24559D01*
X131754D01*
X131690Y24643D01*
X130907Y25244D01*
X129995Y25622D01*
X129016Y25750D01*
X128037Y25622D01*
X127125Y25244D01*
X126341Y24643D01*
X126277Y24559D01*
X120849D01*
X120784Y24643D01*
X120001Y25244D01*
X119089Y25622D01*
X118110Y25750D01*
X117131Y25622D01*
X116219Y25244D01*
X115436Y24643D01*
X115372Y24559D01*
X109943D01*
X109879Y24643D01*
X109096Y25244D01*
X108184Y25622D01*
X107205Y25750D01*
X106226Y25622D01*
X105314Y25244D01*
X104531Y24643D01*
X104466Y24559D01*
X99038D01*
X98974Y24643D01*
X98190Y25244D01*
X97278Y25622D01*
X96299Y25750D01*
X95320Y25622D01*
X94408Y25244D01*
X93625Y24643D01*
X93561Y24559D01*
X88132D01*
X88068Y24643D01*
X87285Y25244D01*
X86373Y25622D01*
X85394Y25750D01*
X84671Y25655D01*
X84396Y25866D01*
X83772Y26124D01*
X83512Y26159D01*
X82669Y27001D01*
Y30546D01*
X83216Y31259D01*
X83594Y32171D01*
X83723Y33150D01*
X83594Y34128D01*
X83216Y35041D01*
X82615Y35824D01*
X81832Y36425D01*
X80920Y36803D01*
X79941Y36932D01*
X78962Y36803D01*
X78050Y36425D01*
X77267Y35824D01*
X76666Y35041D01*
X76288Y34128D01*
X76159Y33150D01*
X76288Y32171D01*
X76666Y31259D01*
X77267Y30475D01*
X77488Y30305D01*
Y25928D01*
X77576Y25258D01*
X77835Y24633D01*
X78247Y24096D01*
X80553Y21790D01*
X81090Y21378D01*
X81714Y21120D01*
X81724Y21118D01*
X81741Y20990D01*
X82118Y20077D01*
X82719Y19294D01*
X83503Y18693D01*
X84415Y18315D01*
X85394Y18187D01*
X86373Y18315D01*
X87285Y18693D01*
X88068Y19294D01*
X88132Y19378D01*
X93561D01*
X93625Y19294D01*
X94408Y18693D01*
X95320Y18315D01*
X96299Y18187D01*
X97278Y18315D01*
X98190Y18693D01*
X98974Y19294D01*
X99038Y19378D01*
X104466D01*
X104531Y19294D01*
X105314Y18693D01*
X106226Y18315D01*
X107205Y18187D01*
X108184Y18315D01*
X109096Y18693D01*
X109879Y19294D01*
X109943Y19378D01*
X115372D01*
X115436Y19294D01*
X116219Y18693D01*
X117131Y18315D01*
X118110Y18187D01*
X119089Y18315D01*
X120001Y18693D01*
X120784Y19294D01*
X120849Y19378D01*
X126277D01*
X126341Y19294D01*
X127125Y18693D01*
X128037Y18315D01*
X129016Y18187D01*
X129995Y18315D01*
X130907Y18693D01*
X131690Y19294D01*
X131754Y19378D01*
X137183D01*
X137247Y19294D01*
X138030Y18693D01*
X138942Y18315D01*
X139921Y18187D01*
X140900Y18315D01*
X141812Y18693D01*
X142596Y19294D01*
X142660Y19378D01*
X148088D01*
X148152Y19294D01*
X148936Y18693D01*
X149848Y18315D01*
X150827Y18187D01*
X151806Y18315D01*
X152718Y18693D01*
X153501Y19294D01*
X154102Y20077D01*
X154480Y20990D01*
X154530Y21369D01*
X156762Y23601D01*
X156965Y23685D01*
X157501Y24096D01*
X157659Y24255D01*
X158071Y24791D01*
X158330Y25416D01*
X158418Y26087D01*
Y30064D01*
X158954Y30475D01*
X159555Y31259D01*
X159933Y32171D01*
X160062Y33150D01*
X159933Y34128D01*
X159555Y35041D01*
X158954Y35824D01*
X158170Y36425D01*
X157258Y36803D01*
X156280Y36932D01*
D02*
G37*
G36*
X183661Y38034D02*
X182023Y37905D01*
X180424Y37521D01*
X178906Y36892D01*
X177505Y36033D01*
X176255Y34966D01*
X175187Y33716D01*
X174328Y32315D01*
X173699Y30796D01*
X173316Y29198D01*
X173187Y27559D01*
X173316Y25920D01*
X173699Y24322D01*
X174328Y22804D01*
X175187Y21402D01*
X176255Y20152D01*
X177505Y19085D01*
X178906Y18226D01*
X180424Y17597D01*
X182023Y17213D01*
X183661Y17084D01*
X185300Y17213D01*
X186898Y17597D01*
X188417Y18226D01*
X189818Y19085D01*
X191068Y20152D01*
X192136Y21402D01*
X192994Y22804D01*
X193624Y24322D01*
X194007Y25920D01*
X194136Y27559D01*
X194007Y29198D01*
X193624Y30796D01*
X192994Y32315D01*
X192136Y33716D01*
X191068Y34966D01*
X189818Y36033D01*
X188417Y36892D01*
X186898Y37521D01*
X185300Y37905D01*
X183661Y38034D01*
D02*
G37*
G36*
X52559D02*
X50920Y37905D01*
X49322Y37521D01*
X47804Y36892D01*
X46402Y36033D01*
X45152Y34966D01*
X44085Y33716D01*
X43226Y32315D01*
X42597Y30796D01*
X42213Y29198D01*
X42084Y27559D01*
X42213Y25920D01*
X42597Y24322D01*
X43226Y22804D01*
X44085Y21402D01*
X45152Y20152D01*
X46402Y19085D01*
X47804Y18226D01*
X49322Y17597D01*
X50920Y17213D01*
X52559Y17084D01*
X54198Y17213D01*
X55796Y17597D01*
X57314Y18226D01*
X58716Y19085D01*
X59966Y20152D01*
X61033Y21402D01*
X61892Y22804D01*
X62521Y24322D01*
X62905Y25920D01*
X63034Y27559D01*
X62905Y29198D01*
X62521Y30796D01*
X61892Y32315D01*
X61033Y33716D01*
X59966Y34966D01*
X58716Y36033D01*
X57314Y36892D01*
X55796Y37521D01*
X54198Y37905D01*
X52559Y38034D01*
D02*
G37*
%LPD*%
D10*
X114484Y112205D02*
X117126Y114846D01*
Y122047D01*
X136811Y111494D02*
X142570Y105735D01*
X136811Y111494D02*
Y122047D01*
X116005Y96320D02*
X125000Y105315D01*
X113189Y106299D02*
X119095Y112205D01*
X109252Y135508D02*
X118710Y126050D01*
X109252Y135508D02*
Y136080D01*
X143602Y133144D02*
X160703D01*
X136993Y126535D02*
X143602Y133144D01*
X136993Y125443D02*
Y126535D01*
X160703Y133144D02*
X161417Y133858D01*
X135707Y128473D02*
X145029Y137795D01*
X155709D01*
X135681Y128473D02*
X135707D01*
X133258Y126050D02*
X135681Y128473D01*
X130905Y134128D02*
Y137795D01*
X126969Y130192D02*
X130905Y134128D01*
X126969Y122047D02*
Y130192D01*
X136811Y136152D02*
Y137795D01*
X131290Y130630D02*
X136811Y136152D01*
X131290Y125884D02*
Y130630D01*
X130905Y125500D02*
X131290Y125884D01*
X130905Y122047D02*
Y125500D01*
X136811Y125261D02*
X136993Y125443D01*
X136811Y122047D02*
Y125261D01*
X133258Y125884D02*
Y126050D01*
X132874Y125500D02*
X133258Y125884D01*
X132874Y122047D02*
Y125500D01*
X124902Y133858D02*
X124951Y133809D01*
Y122097D02*
Y133809D01*
Y122097D02*
X125000Y122047D01*
X119193Y133144D02*
Y133858D01*
Y133144D02*
X121063Y131274D01*
Y122047D02*
Y131274D01*
X118710Y125884D02*
Y126050D01*
Y125884D02*
X119095Y125500D01*
Y122047D02*
Y125500D01*
X103445Y133858D02*
X107650Y129653D01*
X111170D01*
X114773Y126050D01*
Y125884D02*
Y126050D01*
Y125884D02*
X115157Y125500D01*
Y122047D02*
Y125500D01*
X130905Y102362D02*
Y122047D01*
X119095Y112205D02*
Y122047D01*
X125000Y105315D02*
Y122047D01*
D14*
X146653Y125984D02*
D03*
X89567D02*
D03*
X149016Y145669D02*
D03*
X87205D02*
D03*
D15*
X25433Y80866D02*
D03*
X45433D02*
D03*
Y60866D02*
D03*
X25433D02*
D03*
X35433Y70866D02*
D03*
X80551Y80866D02*
D03*
X100551D02*
D03*
Y60866D02*
D03*
X80551D02*
D03*
X90551Y70866D02*
D03*
X135669Y80866D02*
D03*
X155669D02*
D03*
Y60866D02*
D03*
X135669D02*
D03*
X145669Y70866D02*
D03*
X190787Y80866D02*
D03*
X210787D02*
D03*
Y60866D02*
D03*
X190787D02*
D03*
X200787Y70866D02*
D03*
D16*
X183661Y27559D02*
D03*
X52559D02*
D03*
D17*
X118110Y21969D02*
D03*
X129016D02*
D03*
X139921D02*
D03*
X150827D02*
D03*
X85394D02*
D03*
X96299D02*
D03*
X107205D02*
D03*
X112657Y33150D02*
D03*
X101752D02*
D03*
X90847D02*
D03*
X156280D02*
D03*
X145374D02*
D03*
X134468D02*
D03*
X123563D02*
D03*
X79941D02*
D03*
D19*
X142570Y105735D02*
X185604D01*
X200787Y90551D01*
X100257Y96320D02*
X116005D01*
X90551Y86614D02*
X100257Y96320D01*
X47244Y106299D02*
X113189D01*
X35433Y94488D02*
X47244Y106299D01*
X200787Y70866D02*
Y90551D01*
X130905Y102362D02*
X145669Y87598D01*
Y70866D02*
Y87598D01*
X35433Y70866D02*
Y94488D01*
X90551Y70866D02*
Y86614D01*
X155426Y25928D02*
X155669D01*
X151466Y21969D02*
X155426Y25928D01*
X150827Y21969D02*
X151466D01*
X155669Y25928D02*
X155827Y26087D01*
Y32698D01*
X156280Y33150D01*
X80079Y25928D02*
X82385Y23622D01*
X83101D01*
X84755Y21969D01*
X85394D01*
X80079Y25928D02*
Y33012D01*
X79941Y33150D02*
X80079Y33012D01*
X139921Y21969D02*
X150827D01*
X129016D02*
X139921D01*
X118110D02*
X129016D01*
X107205D02*
X118110D01*
X96299D02*
X107205D01*
X85394D02*
X96299D01*
X90551Y55256D02*
X112657Y33150D01*
X188976Y47244D02*
X200787Y59055D01*
X148563Y47244D02*
X188976D01*
X123563Y33150D02*
X145669Y55256D01*
X87657Y47244D02*
X101752Y33150D01*
X45433Y47244D02*
X87657D01*
X200787Y59055D02*
Y70866D01*
X145669Y55256D02*
Y70866D01*
X90551Y55256D02*
Y70866D01*
X134468Y33150D02*
X148563Y47244D01*
X35433Y57244D02*
X45433Y47244D01*
X35433Y57244D02*
Y70866D01*
D20*
X109252Y136080D02*
D03*
X155709Y137795D02*
D03*
X130905D02*
D03*
X136811D02*
D03*
X161417Y133858D02*
D03*
X124902D02*
D03*
X119193D02*
D03*
X103445D02*
D03*
D21*
X121063Y122047D02*
D03*
X119095D02*
D03*
X126969D02*
D03*
X128937D02*
D03*
X134843D02*
D03*
X136811D02*
D03*
X111221D02*
D03*
X113189D02*
D03*
X103347D02*
D03*
X105315D02*
D03*
X115157D02*
D03*
X117126D02*
D03*
X107283D02*
D03*
X109252D02*
D03*
X123031D02*
D03*
X125000D02*
D03*
X130905D02*
D03*
X132874D02*
D03*
X101378D02*
D03*
M02*
