G04*
G04 #@! TF.GenerationSoftware,Altium Limited,Altium Designer,19.0.10 (269)*
G04*
G04 Layer_Physical_Order=2*
G04 Layer_Color=32768*
%FSLAX25Y25*%
%MOIN*%
G70*
G01*
G75*
%ADD28C,0.04000*%
%ADD29C,0.07543*%
%ADD30C,0.10299*%
%ADD31C,0.07622*%
G04:AMPARAMS|DCode=32|XSize=130.866mil|YSize=130.866mil|CornerRadius=0mil|HoleSize=0mil|Usage=FLASHONLY|Rotation=0.000|XOffset=0mil|YOffset=0mil|HoleType=Round|Shape=Relief|Width=10mil|Gap=10mil|Entries=4|*
%AMTHD32*
7,0,0,0.13087,0.11087,0.01000,45*
%
%ADD32THD32*%
%ADD33C,0.08000*%
G04:AMPARAMS|DCode=34|XSize=100mil|YSize=100mil|CornerRadius=0mil|HoleSize=0mil|Usage=FLASHONLY|Rotation=0.000|XOffset=0mil|YOffset=0mil|HoleType=Round|Shape=Relief|Width=10mil|Gap=10mil|Entries=4|*
%AMTHD34*
7,0,0,0.10000,0.08000,0.01000,45*
%
%ADD34THD34*%
%ADD35C,0.08331*%
G04:AMPARAMS|DCode=36|XSize=103.307mil|YSize=103.307mil|CornerRadius=0mil|HoleSize=0mil|Usage=FLASHONLY|Rotation=0.000|XOffset=0mil|YOffset=0mil|HoleType=Round|Shape=Relief|Width=10mil|Gap=10mil|Entries=4|*
%AMTHD36*
7,0,0,0.10331,0.08331,0.01000,45*
%
%ADD36THD36*%
G04:AMPARAMS|DCode=37|XSize=184.016mil|YSize=184.016mil|CornerRadius=0mil|HoleSize=0mil|Usage=FLASHONLY|Rotation=0.000|XOffset=0mil|YOffset=0mil|HoleType=Round|Shape=Relief|Width=10mil|Gap=10mil|Entries=4|*
%AMTHD37*
7,0,0,0.18402,0.16402,0.01000,45*
%
%ADD37THD37*%
%ADD38C,0.06362*%
G04:AMPARAMS|DCode=39|XSize=83.622mil|YSize=83.622mil|CornerRadius=0mil|HoleSize=0mil|Usage=FLASHONLY|Rotation=0.000|XOffset=0mil|YOffset=0mil|HoleType=Round|Shape=Relief|Width=10mil|Gap=10mil|Entries=4|*
%AMTHD39*
7,0,0,0.08362,0.06362,0.01000,45*
%
%ADD39THD39*%
D28*
X0Y0D02*
Y393701D01*
X393701D01*
Y0D02*
Y393701D01*
X0Y0D02*
X393701D01*
D29*
X220472Y47244D02*
D03*
X230472D02*
D03*
X210472D02*
D03*
X177165D02*
D03*
X167165D02*
D03*
X187165D02*
D03*
X135984Y319134D02*
D03*
X115984D02*
D03*
X125984D02*
D03*
X135984Y256142D02*
D03*
X115984D02*
D03*
X125984D02*
D03*
X135984Y228583D02*
D03*
X115984D02*
D03*
X125984D02*
D03*
X135984Y165591D02*
D03*
X115984D02*
D03*
X125984D02*
D03*
D30*
X11811Y165945D02*
D03*
Y227756D02*
D03*
X31496Y168307D02*
D03*
Y225394D02*
D03*
D31*
X251969Y47244D02*
D03*
X47244Y259842D02*
D03*
Y362205D02*
D03*
Y31496D02*
D03*
Y133858D02*
D03*
X141732Y47244D02*
D03*
D32*
X266929Y16535D02*
D03*
X237008D02*
D03*
X16535Y244882D02*
D03*
Y274803D02*
D03*
Y347244D02*
D03*
Y377165D02*
D03*
Y16535D02*
D03*
Y46457D02*
D03*
Y118898D02*
D03*
Y148819D02*
D03*
X156693Y16535D02*
D03*
X126772D02*
D03*
D33*
X278425Y97087D02*
D03*
X98425Y227087D02*
D03*
Y217087D02*
D03*
Y197087D02*
D03*
Y207087D02*
D03*
Y167087D02*
D03*
Y127087D02*
D03*
Y147087D02*
D03*
Y137087D02*
D03*
Y97087D02*
D03*
Y117087D02*
D03*
Y107087D02*
D03*
X288425Y97087D02*
D03*
Y117087D02*
D03*
Y107087D02*
D03*
Y127087D02*
D03*
Y147087D02*
D03*
Y137087D02*
D03*
Y157087D02*
D03*
Y167087D02*
D03*
Y253087D02*
D03*
Y223087D02*
D03*
Y233087D02*
D03*
Y213087D02*
D03*
Y193087D02*
D03*
Y203087D02*
D03*
Y183087D02*
D03*
X278425Y107087D02*
D03*
Y117087D02*
D03*
Y127087D02*
D03*
Y137087D02*
D03*
Y147087D02*
D03*
Y157087D02*
D03*
Y167087D02*
D03*
D34*
X98425Y177087D02*
D03*
Y187087D02*
D03*
X288425Y243087D02*
D03*
D35*
X375984Y208661D02*
D03*
Y188661D02*
D03*
Y238661D02*
D03*
Y97953D02*
D03*
Y137953D02*
D03*
Y77953D02*
D03*
D36*
Y228661D02*
D03*
Y198661D02*
D03*
Y127953D02*
D03*
Y87953D02*
D03*
D37*
X15748Y86614D02*
D03*
Y307087D02*
D03*
X377953Y377953D02*
D03*
Y15748D02*
D03*
D38*
X132264Y82303D02*
D03*
X182697Y67303D02*
D03*
X318898Y188976D02*
D03*
X318898Y122047D02*
D03*
Y129921D02*
D03*
Y137795D02*
D03*
Y145669D02*
D03*
Y161417D02*
D03*
Y153543D02*
D03*
Y169291D02*
D03*
Y177165D02*
D03*
X137795Y201024D02*
D03*
X215384Y190591D02*
D03*
X224410Y145669D02*
D03*
X224903Y157974D02*
D03*
X215453Y125984D02*
D03*
X137146Y299449D02*
D03*
X114823Y185276D02*
D03*
X114173Y278150D02*
D03*
X349410Y238494D02*
D03*
X348425Y77785D02*
D03*
Y97785D02*
D03*
X349410Y137785D02*
D03*
Y208494D02*
D03*
X188602Y245689D02*
D03*
Y316555D02*
D03*
X173602Y258248D02*
D03*
Y187382D02*
D03*
X261437Y67303D02*
D03*
X155886Y121673D02*
D03*
X211004Y82303D02*
D03*
X206319Y106673D02*
D03*
X206319Y142106D02*
D03*
X155886Y157106D02*
D03*
X267717Y142549D02*
D03*
X214567Y296890D02*
D03*
Y261457D02*
D03*
Y226024D02*
D03*
X246417Y346102D02*
D03*
X265748Y194528D02*
D03*
X265748Y229961D02*
D03*
Y265394D02*
D03*
X265748Y300827D02*
D03*
D39*
X255906Y291339D02*
D03*
Y255906D02*
D03*
Y185039D02*
D03*
Y220472D02*
D03*
M02*
