G04*
G04 #@! TF.GenerationSoftware,Altium Limited,Altium Designer,19.1.5 (86)*
G04*
G04 Layer_Color=8388736*
%FSLAX25Y25*%
%MOIN*%
G70*
G01*
G75*
%ADD15R,0.03950X0.04737*%
%ADD16O,0.07296X0.03359*%
%ADD17R,0.03950X0.02572*%
%ADD18R,0.02847X0.02847*%
%ADD19R,0.02847X0.02847*%
%ADD20R,0.04737X0.03359*%
%ADD21R,0.05918X0.03950*%
%ADD22R,0.02572X0.03950*%
%ADD23O,0.02572X0.06312*%
%ADD24O,0.01981X0.06312*%
%ADD25R,0.03950X0.05918*%
%ADD26O,0.10642X0.07099*%
%ADD27C,0.10249*%
%ADD28C,0.07099*%
%ADD29C,0.08300*%
%ADD30C,0.20485*%
D15*
X18610Y113673D02*
D03*
X24122D02*
D03*
X120866Y106299D02*
D03*
X115354D02*
D03*
D16*
X229035Y157106D02*
D03*
Y152106D02*
D03*
Y147106D02*
D03*
Y142106D02*
D03*
X251279Y157106D02*
D03*
Y152106D02*
D03*
Y147106D02*
D03*
Y142106D02*
D03*
X154232Y157106D02*
D03*
Y152106D02*
D03*
Y147106D02*
D03*
Y142106D02*
D03*
X176476Y157106D02*
D03*
Y152106D02*
D03*
Y147106D02*
D03*
Y142106D02*
D03*
X193602Y98051D02*
D03*
Y93051D02*
D03*
Y88051D02*
D03*
Y83051D02*
D03*
X215846Y98051D02*
D03*
Y93051D02*
D03*
Y88051D02*
D03*
Y83051D02*
D03*
X295965Y98051D02*
D03*
Y93051D02*
D03*
Y88051D02*
D03*
Y83051D02*
D03*
X318209Y98051D02*
D03*
Y93051D02*
D03*
Y88051D02*
D03*
Y83051D02*
D03*
X61713Y157106D02*
D03*
Y152106D02*
D03*
Y147106D02*
D03*
Y142106D02*
D03*
X83957Y157106D02*
D03*
Y152106D02*
D03*
Y147106D02*
D03*
Y142106D02*
D03*
X61713Y125610D02*
D03*
Y120610D02*
D03*
Y115610D02*
D03*
Y110610D02*
D03*
X83957Y125610D02*
D03*
Y120610D02*
D03*
Y115610D02*
D03*
Y110610D02*
D03*
X61713Y98051D02*
D03*
Y93051D02*
D03*
Y88051D02*
D03*
Y83051D02*
D03*
X83957Y98051D02*
D03*
Y93051D02*
D03*
Y88051D02*
D03*
Y83051D02*
D03*
D17*
X368110Y260728D02*
D03*
Y255020D02*
D03*
X326772Y75000D02*
D03*
Y80709D02*
D03*
X287402Y75886D02*
D03*
Y81595D02*
D03*
X224410Y75886D02*
D03*
Y81595D02*
D03*
X185039Y75886D02*
D03*
Y81595D02*
D03*
X236221Y177165D02*
D03*
Y171457D02*
D03*
X263780Y177165D02*
D03*
Y171457D02*
D03*
X181102Y177165D02*
D03*
Y171457D02*
D03*
X153543Y177165D02*
D03*
Y171457D02*
D03*
X61024Y211713D02*
D03*
Y217421D02*
D03*
X86614Y211713D02*
D03*
Y217421D02*
D03*
X96457Y118996D02*
D03*
Y113287D02*
D03*
X104331Y118996D02*
D03*
Y113287D02*
D03*
X112205Y113287D02*
D03*
Y118996D02*
D03*
X49213Y124902D02*
D03*
Y119193D02*
D03*
X41339Y124902D02*
D03*
Y119193D02*
D03*
X33465D02*
D03*
Y124902D02*
D03*
X49213Y97342D02*
D03*
Y91634D02*
D03*
X41339D02*
D03*
Y97342D02*
D03*
X96457Y91437D02*
D03*
Y85728D02*
D03*
X104331D02*
D03*
Y91437D02*
D03*
D18*
X250354Y185039D02*
D03*
X253583D02*
D03*
X250354Y190945D02*
D03*
X253583D02*
D03*
X312992Y104331D02*
D03*
X316220D02*
D03*
X210630D02*
D03*
X213858D02*
D03*
X300827Y76772D02*
D03*
X297598D02*
D03*
X198465D02*
D03*
X195236D02*
D03*
X236575Y185039D02*
D03*
X239803D02*
D03*
X264134D02*
D03*
X267362D02*
D03*
X222795Y185039D02*
D03*
X226024D02*
D03*
X222795Y190945D02*
D03*
X226024D02*
D03*
X181457Y185039D02*
D03*
X184685D02*
D03*
X167677Y185039D02*
D03*
X170905D02*
D03*
X167677Y190945D02*
D03*
X170905D02*
D03*
X153898Y185039D02*
D03*
X157126D02*
D03*
X140118Y185039D02*
D03*
X143347D02*
D03*
X140118Y190945D02*
D03*
X143347D02*
D03*
X74449Y208661D02*
D03*
X71220D02*
D03*
X63346Y169291D02*
D03*
X66575D02*
D03*
X78386D02*
D03*
X75157D02*
D03*
X252323Y228346D02*
D03*
X255551D02*
D03*
X252323Y222441D02*
D03*
X255551D02*
D03*
X224764Y228346D02*
D03*
X227992D02*
D03*
X224764Y222441D02*
D03*
X227992D02*
D03*
X142087D02*
D03*
X145315D02*
D03*
X169646Y228346D02*
D03*
X172874D02*
D03*
X169646Y222441D02*
D03*
X172874D02*
D03*
X142087Y228346D02*
D03*
X145315D02*
D03*
X203110Y214567D02*
D03*
X206339D02*
D03*
D19*
X261811Y161063D02*
D03*
Y157835D02*
D03*
X326772Y103976D02*
D03*
Y100748D02*
D03*
X287402Y103976D02*
D03*
Y100748D02*
D03*
X224410Y103976D02*
D03*
Y100748D02*
D03*
X185039Y103976D02*
D03*
Y100748D02*
D03*
X218504Y138150D02*
D03*
Y141378D02*
D03*
X143701Y138150D02*
D03*
Y141378D02*
D03*
X187008Y161063D02*
D03*
Y157835D02*
D03*
X190945Y202402D02*
D03*
Y199173D02*
D03*
X51181Y138150D02*
D03*
Y141378D02*
D03*
X94488Y161063D02*
D03*
Y157835D02*
D03*
Y129567D02*
D03*
Y126339D02*
D03*
X51181Y106653D02*
D03*
Y109882D02*
D03*
Y79094D02*
D03*
Y82323D02*
D03*
X94488Y102008D02*
D03*
Y98779D02*
D03*
D20*
X207480Y202756D02*
D03*
X198031Y199016D02*
D03*
Y206496D02*
D03*
D21*
X246063Y203445D02*
D03*
Y209941D02*
D03*
X218504Y203445D02*
D03*
Y209941D02*
D03*
X163386Y203445D02*
D03*
Y209941D02*
D03*
X135827Y203445D02*
D03*
Y209941D02*
D03*
X328740Y261122D02*
D03*
Y254626D02*
D03*
X328740Y268406D02*
D03*
Y274902D02*
D03*
X328740Y297933D02*
D03*
Y304429D02*
D03*
X61024Y244783D02*
D03*
Y251279D02*
D03*
Y284154D02*
D03*
Y290650D02*
D03*
X61024Y304429D02*
D03*
Y297933D02*
D03*
D22*
X304035Y122047D02*
D03*
X298327D02*
D03*
X321949D02*
D03*
X327658D02*
D03*
X292224D02*
D03*
X286516D02*
D03*
X201673D02*
D03*
X195965D02*
D03*
X189862D02*
D03*
X184153D02*
D03*
X207776D02*
D03*
X213484D02*
D03*
X219587D02*
D03*
X225295D02*
D03*
X310138D02*
D03*
X315846D02*
D03*
D23*
X81791Y200591D02*
D03*
X79232D02*
D03*
X76673D02*
D03*
X74114D02*
D03*
X71555D02*
D03*
X68996D02*
D03*
X66437D02*
D03*
X63878D02*
D03*
X81791Y177362D02*
D03*
X79232D02*
D03*
X76673D02*
D03*
X74114D02*
D03*
X71555D02*
D03*
X68996D02*
D03*
X66437D02*
D03*
X63878D02*
D03*
D24*
X255906Y197835D02*
D03*
X257874D02*
D03*
X259842D02*
D03*
X261811D02*
D03*
X263780D02*
D03*
X255906Y215551D02*
D03*
X257874D02*
D03*
X259842D02*
D03*
X261811D02*
D03*
X263780D02*
D03*
X228346Y197835D02*
D03*
X230315D02*
D03*
X232283D02*
D03*
X234252D02*
D03*
X236221D02*
D03*
X228346Y215551D02*
D03*
X230315D02*
D03*
X232283D02*
D03*
X234252D02*
D03*
X236221D02*
D03*
X173228Y197835D02*
D03*
X175197D02*
D03*
X177165D02*
D03*
X179134D02*
D03*
X181102D02*
D03*
X173228Y215551D02*
D03*
X175197D02*
D03*
X177165D02*
D03*
X179134D02*
D03*
X181102D02*
D03*
X145669Y197835D02*
D03*
X147638D02*
D03*
X149606D02*
D03*
X151575D02*
D03*
X153543D02*
D03*
X145669Y215551D02*
D03*
X147638D02*
D03*
X149606D02*
D03*
X151575D02*
D03*
X153543D02*
D03*
D25*
X69587Y216535D02*
D03*
X76083D02*
D03*
D26*
X342520Y108425D02*
D03*
Y88425D02*
D03*
Y98425D02*
D03*
X271654Y108425D02*
D03*
Y88425D02*
D03*
Y98425D02*
D03*
X240158Y108425D02*
D03*
Y88425D02*
D03*
Y98425D02*
D03*
X169291Y108425D02*
D03*
Y88425D02*
D03*
Y98425D02*
D03*
D27*
X114173Y35433D02*
D03*
X124173Y25433D02*
D03*
X104173D02*
D03*
Y45433D02*
D03*
X124173D02*
D03*
X72992D02*
D03*
X52992D02*
D03*
Y25433D02*
D03*
X72992D02*
D03*
X62992Y35433D02*
D03*
X330709Y35433D02*
D03*
X340709Y25433D02*
D03*
X320709D02*
D03*
Y45433D02*
D03*
X340709D02*
D03*
X289528D02*
D03*
X269528D02*
D03*
Y25433D02*
D03*
X289528D02*
D03*
X279528Y35433D02*
D03*
X228346D02*
D03*
X238347Y25433D02*
D03*
X218347D02*
D03*
Y45433D02*
D03*
X238347D02*
D03*
X187165D02*
D03*
X167165D02*
D03*
Y25433D02*
D03*
X187165D02*
D03*
X177165Y35433D02*
D03*
D28*
X33465Y283937D02*
D03*
Y253937D02*
D03*
Y243937D02*
D03*
Y303937D02*
D03*
Y293937D02*
D03*
X356299Y265118D02*
D03*
Y295118D02*
D03*
Y305118D02*
D03*
Y255118D02*
D03*
Y275118D02*
D03*
D29*
X295276Y249150D02*
D03*
Y269150D02*
D03*
Y259150D02*
D03*
Y279150D02*
D03*
Y299150D02*
D03*
Y289150D02*
D03*
Y309150D02*
D03*
Y319150D02*
D03*
Y233150D02*
D03*
Y223150D02*
D03*
Y203150D02*
D03*
Y213150D02*
D03*
Y193150D02*
D03*
Y173150D02*
D03*
Y183150D02*
D03*
Y163150D02*
D03*
X105276Y173150D02*
D03*
Y183150D02*
D03*
Y163150D02*
D03*
X115276D02*
D03*
Y183150D02*
D03*
Y173150D02*
D03*
X105276Y203150D02*
D03*
Y213150D02*
D03*
Y193150D02*
D03*
X115276D02*
D03*
Y213150D02*
D03*
Y203150D02*
D03*
Y263150D02*
D03*
Y243150D02*
D03*
Y253150D02*
D03*
Y233150D02*
D03*
X105276D02*
D03*
Y253150D02*
D03*
Y243150D02*
D03*
Y273150D02*
D03*
Y263150D02*
D03*
Y283150D02*
D03*
Y293150D02*
D03*
Y303150D02*
D03*
X295276Y339150D02*
D03*
Y329150D02*
D03*
X285276Y173150D02*
D03*
Y183150D02*
D03*
Y163150D02*
D03*
Y203150D02*
D03*
Y213150D02*
D03*
Y193150D02*
D03*
Y233150D02*
D03*
Y223150D02*
D03*
Y309150D02*
D03*
Y319150D02*
D03*
Y279150D02*
D03*
Y299150D02*
D03*
Y289150D02*
D03*
Y249150D02*
D03*
Y269150D02*
D03*
Y259150D02*
D03*
D30*
X15748Y15748D02*
D03*
Y338583D02*
D03*
X377953D02*
D03*
Y15748D02*
D03*
M02*
