G04*
G04 #@! TF.GenerationSoftware,Altium Limited,Altium Designer,19.0.10 (269)*
G04*
G04 Layer_Physical_Order=1*
G04 Layer_Color=255*
%FSLAX25Y25*%
%MOIN*%
G70*
G01*
G75*
%ADD11C,0.00787*%
%ADD13C,0.01000*%
%ADD15R,0.02362X0.02756*%
%ADD16R,0.03937X0.04724*%
%ADD17C,0.03937*%
%ADD18O,0.06299X0.09843*%
%ADD19C,0.08661*%
%ADD20C,0.07087*%
%ADD21O,0.14173X0.10236*%
%ADD22O,0.10236X0.14173*%
%ADD23C,0.07500*%
%ADD24C,0.06299*%
%ADD25C,0.19685*%
%ADD26C,0.07874*%
%ADD27C,0.05906*%
G36*
X369992Y385327D02*
X369154Y384346D01*
X368262Y382890D01*
X367609Y381314D01*
X367211Y379654D01*
X367116Y378453D01*
X377953D01*
Y377953D01*
X378453D01*
Y367116D01*
X379654Y367211D01*
X381314Y367609D01*
X382890Y368262D01*
X384346Y369154D01*
X385327Y369992D01*
X385827Y369761D01*
X385827Y23939D01*
X385327Y23709D01*
X384346Y24547D01*
X382890Y25439D01*
X381314Y26092D01*
X379654Y26490D01*
X378453Y26585D01*
Y15748D01*
X377953D01*
Y15248D01*
X367116D01*
X367211Y14047D01*
X367609Y12387D01*
X368262Y10810D01*
X369154Y9355D01*
X369992Y8374D01*
X369761Y7874D01*
X7874Y7874D01*
Y78423D01*
X8374Y78653D01*
X9355Y77815D01*
X10810Y76924D01*
X12387Y76270D01*
X14047Y75872D01*
X15248Y75778D01*
Y86614D01*
Y97451D01*
X14047Y97356D01*
X12387Y96958D01*
X10810Y96305D01*
X9355Y95413D01*
X8374Y94575D01*
X7874Y94806D01*
Y162220D01*
X8374Y162359D01*
X9321Y161632D01*
X10522Y161135D01*
X11811Y160965D01*
X13100Y161135D01*
X14194Y161588D01*
X14566Y161480D01*
X14771Y161363D01*
X14824Y161206D01*
X14923Y161093D01*
X14981Y160953D01*
X15082Y160911D01*
X15155Y160829D01*
X15305Y160819D01*
X15445Y160761D01*
X39370D01*
X39834Y160953D01*
X40026Y161417D01*
Y232283D01*
X39834Y232748D01*
X39370Y232940D01*
X15445D01*
X15305Y232882D01*
X15155Y232872D01*
X15082Y232789D01*
X14981Y232748D01*
X14923Y232608D01*
X14824Y232494D01*
X14771Y232338D01*
X14566Y232221D01*
X14194Y232113D01*
X13100Y232566D01*
X11811Y232735D01*
X10522Y232566D01*
X9321Y232068D01*
X8374Y231342D01*
X7874Y231481D01*
Y298895D01*
X8374Y299126D01*
X9355Y298288D01*
X10810Y297396D01*
X12387Y296743D01*
X14047Y296344D01*
X15248Y296250D01*
Y307087D01*
Y317923D01*
X14047Y317829D01*
X12387Y317430D01*
X10810Y316777D01*
X9355Y315885D01*
X8374Y315048D01*
X7874Y315278D01*
Y385827D01*
X369761Y385827D01*
X369992Y385327D01*
D02*
G37*
G36*
X39370Y161417D02*
X15445D01*
X15284Y161891D01*
X15613Y162143D01*
X16467Y163257D01*
X17005Y164553D01*
X17122Y165445D01*
X11811D01*
Y165945D01*
X11311D01*
Y171256D01*
X10419Y171138D01*
X9123Y170601D01*
X8374Y170027D01*
X7874Y170273D01*
Y223427D01*
X8374Y223674D01*
X9123Y223099D01*
X10419Y222562D01*
X11311Y222445D01*
Y227756D01*
X11811D01*
Y228256D01*
X17122D01*
X17005Y229148D01*
X16467Y230444D01*
X15613Y231558D01*
X15284Y231810D01*
X15445Y232283D01*
X39370D01*
Y161417D01*
D02*
G37*
%LPC*%
G36*
X17035Y385232D02*
Y377665D01*
X22683D01*
Y379134D01*
X22565Y380333D01*
X22215Y381487D01*
X21647Y382549D01*
X20883Y383481D01*
X19951Y384245D01*
X18888Y384814D01*
X17735Y385163D01*
X17035Y385232D01*
D02*
G37*
G36*
X16035Y385232D02*
X15336Y385163D01*
X14183Y384814D01*
X13120Y384245D01*
X12188Y383481D01*
X11424Y382549D01*
X10856Y381487D01*
X10506Y380333D01*
X10388Y379134D01*
Y377665D01*
X16035D01*
Y385232D01*
D02*
G37*
G36*
Y376665D02*
X10388D01*
Y375197D01*
X10506Y373997D01*
X10856Y372844D01*
X11424Y371781D01*
X12188Y370850D01*
X13120Y370085D01*
X14183Y369517D01*
X15336Y369167D01*
X16035Y369098D01*
Y376665D01*
D02*
G37*
G36*
X22683D02*
X17035D01*
Y369098D01*
X17735Y369167D01*
X18888Y369517D01*
X19951Y370085D01*
X20883Y370850D01*
X21647Y371781D01*
X22215Y372844D01*
X22565Y373997D01*
X22683Y375197D01*
Y376665D01*
D02*
G37*
G36*
X377453Y377453D02*
X367116D01*
X367211Y376251D01*
X367609Y374592D01*
X368262Y373015D01*
X369154Y371560D01*
X370262Y370262D01*
X371560Y369154D01*
X373015Y368262D01*
X374592Y367609D01*
X376251Y367211D01*
X377453Y367116D01*
Y377453D01*
D02*
G37*
G36*
X47244Y366390D02*
X46161Y366248D01*
X45151Y365829D01*
X44285Y365164D01*
X43619Y364297D01*
X43201Y363288D01*
X43059Y362205D01*
X43201Y361122D01*
X43619Y360112D01*
X44285Y359245D01*
X45151Y358580D01*
X46161Y358162D01*
X47244Y358019D01*
X48327Y358162D01*
X49337Y358580D01*
X50204Y359245D01*
X50869Y360112D01*
X51287Y361122D01*
X51429Y362205D01*
X51287Y363288D01*
X50869Y364297D01*
X50204Y365164D01*
X49337Y365829D01*
X48327Y366248D01*
X47244Y366390D01*
D02*
G37*
G36*
X17035Y355311D02*
Y347744D01*
X22683D01*
Y349213D01*
X22565Y350412D01*
X22215Y351565D01*
X21647Y352628D01*
X20883Y353560D01*
X19951Y354324D01*
X18888Y354892D01*
X17735Y355242D01*
X17035Y355311D01*
D02*
G37*
G36*
X16035D02*
X15336Y355242D01*
X14183Y354892D01*
X13120Y354324D01*
X12188Y353560D01*
X11424Y352628D01*
X10856Y351565D01*
X10506Y350412D01*
X10388Y349213D01*
Y347744D01*
X16035D01*
Y355311D01*
D02*
G37*
G36*
Y346744D02*
X10388D01*
Y345276D01*
X10506Y344076D01*
X10856Y342923D01*
X11424Y341860D01*
X12188Y340929D01*
X13120Y340164D01*
X14183Y339596D01*
X15336Y339246D01*
X16035Y339177D01*
Y346744D01*
D02*
G37*
G36*
X22683D02*
X17035D01*
Y339177D01*
X17735Y339246D01*
X18888Y339596D01*
X19951Y340164D01*
X20883Y340929D01*
X21647Y341860D01*
X22215Y342923D01*
X22565Y344076D01*
X22683Y345276D01*
Y346744D01*
D02*
G37*
G36*
X188602Y319152D02*
X187930Y319064D01*
X187304Y318804D01*
X186766Y318391D01*
X186353Y317854D01*
X186094Y317227D01*
X186005Y316555D01*
X186094Y315883D01*
X186353Y315257D01*
X186766Y314719D01*
X187304Y314306D01*
X187930Y314047D01*
X188602Y313958D01*
X189275Y314047D01*
X189901Y314306D01*
X190439Y314719D01*
X190851Y315257D01*
X191111Y315883D01*
X191199Y316555D01*
X191111Y317227D01*
X190851Y317854D01*
X190439Y318391D01*
X189901Y318804D01*
X189275Y319064D01*
X188602Y319152D01*
D02*
G37*
G36*
X135984Y324694D02*
X135004Y324565D01*
X134090Y324186D01*
X133306Y323584D01*
X132703Y322800D01*
X132325Y321886D01*
X132196Y320905D01*
Y317362D01*
X132325Y316382D01*
X132703Y315468D01*
X133306Y314683D01*
X134090Y314081D01*
X135004Y313703D01*
X135984Y313574D01*
X136965Y313703D01*
X137878Y314081D01*
X138663Y314683D01*
X139265Y315468D01*
X139644Y316382D01*
X139773Y317362D01*
Y320905D01*
X139644Y321886D01*
X139265Y322800D01*
X138663Y323584D01*
X137878Y324186D01*
X136965Y324565D01*
X135984Y324694D01*
D02*
G37*
G36*
X125984D02*
X125004Y324565D01*
X124090Y324186D01*
X123305Y323584D01*
X122704Y322800D01*
X122325Y321886D01*
X122196Y320905D01*
Y317362D01*
X122325Y316382D01*
X122704Y315468D01*
X123305Y314683D01*
X124090Y314081D01*
X125004Y313703D01*
X125984Y313574D01*
X126965Y313703D01*
X127878Y314081D01*
X128663Y314683D01*
X129265Y315468D01*
X129643Y316382D01*
X129773Y317362D01*
Y320905D01*
X129643Y321886D01*
X129265Y322800D01*
X128663Y323584D01*
X127878Y324186D01*
X126965Y324565D01*
X125984Y324694D01*
D02*
G37*
G36*
X115984D02*
X115004Y324565D01*
X114090Y324186D01*
X113305Y323584D01*
X112704Y322800D01*
X112325Y321886D01*
X112196Y320905D01*
Y317362D01*
X112325Y316382D01*
X112704Y315468D01*
X113305Y314683D01*
X114090Y314081D01*
X115004Y313703D01*
X115984Y313574D01*
X116965Y313703D01*
X117878Y314081D01*
X118663Y314683D01*
X119265Y315468D01*
X119643Y316382D01*
X119773Y317362D01*
Y320905D01*
X119643Y321886D01*
X119265Y322800D01*
X118663Y323584D01*
X117878Y324186D01*
X116965Y324565D01*
X115984Y324694D01*
D02*
G37*
G36*
X16248Y317923D02*
Y307587D01*
X26585D01*
X26490Y308788D01*
X26092Y310448D01*
X25439Y312024D01*
X24547Y313479D01*
X23439Y314777D01*
X22141Y315885D01*
X20686Y316777D01*
X19109Y317430D01*
X17449Y317829D01*
X16248Y317923D01*
D02*
G37*
G36*
X137146Y302046D02*
X136474Y301957D01*
X135847Y301698D01*
X135309Y301285D01*
X134897Y300747D01*
X134637Y300121D01*
X134549Y299449D01*
X134637Y298777D01*
X134897Y298150D01*
X135309Y297612D01*
X135847Y297200D01*
X136474Y296940D01*
X137146Y296852D01*
X137818Y296940D01*
X138444Y297200D01*
X138982Y297612D01*
X139395Y298150D01*
X139654Y298777D01*
X139743Y299449D01*
X139654Y300121D01*
X139395Y300747D01*
X138982Y301285D01*
X138444Y301698D01*
X137818Y301957D01*
X137146Y302046D01*
D02*
G37*
G36*
X26585Y306587D02*
X16248D01*
Y296250D01*
X17449Y296344D01*
X19109Y296743D01*
X20686Y297396D01*
X22141Y298288D01*
X23439Y299396D01*
X24547Y300694D01*
X25439Y302149D01*
X26092Y303726D01*
X26490Y305385D01*
X26585Y306587D01*
D02*
G37*
G36*
X214567Y299487D02*
X213895Y299398D01*
X213268Y299139D01*
X212731Y298726D01*
X212318Y298188D01*
X212058Y297562D01*
X211970Y296890D01*
X212058Y296218D01*
X212318Y295591D01*
X212731Y295053D01*
X213268Y294641D01*
X213895Y294381D01*
X214567Y294293D01*
X215239Y294381D01*
X215865Y294641D01*
X216403Y295053D01*
X216816Y295591D01*
X217075Y296218D01*
X217164Y296890D01*
X217075Y297562D01*
X216816Y298188D01*
X216403Y298726D01*
X215865Y299139D01*
X215239Y299398D01*
X214567Y299487D01*
D02*
G37*
G36*
X256405Y294267D02*
Y291839D01*
X258834D01*
X258798Y292113D01*
X258499Y292836D01*
X258023Y293456D01*
X257403Y293932D01*
X256680Y294231D01*
X256405Y294267D01*
D02*
G37*
G36*
X255405D02*
X255131Y294231D01*
X254408Y293932D01*
X253788Y293456D01*
X253312Y292836D01*
X253013Y292113D01*
X252977Y291839D01*
X255405D01*
Y294267D01*
D02*
G37*
G36*
X258834Y290839D02*
X256405D01*
Y288410D01*
X256680Y288446D01*
X257403Y288746D01*
X258023Y289221D01*
X258499Y289842D01*
X258798Y290564D01*
X258834Y290839D01*
D02*
G37*
G36*
X255405D02*
X252977D01*
X253013Y290564D01*
X253312Y289842D01*
X253788Y289221D01*
X254408Y288746D01*
X255131Y288446D01*
X255405Y288410D01*
Y290839D01*
D02*
G37*
G36*
X114173Y280747D02*
X113501Y280658D01*
X112875Y280399D01*
X112337Y279986D01*
X111924Y279448D01*
X111665Y278822D01*
X111576Y278150D01*
X111665Y277477D01*
X111924Y276851D01*
X112337Y276313D01*
X112875Y275901D01*
X113501Y275641D01*
X114173Y275553D01*
X114845Y275641D01*
X115472Y275901D01*
X116010Y276313D01*
X116422Y276851D01*
X116682Y277477D01*
X116770Y278150D01*
X116682Y278822D01*
X116422Y279448D01*
X116010Y279986D01*
X115472Y280399D01*
X114845Y280658D01*
X114173Y280747D01*
D02*
G37*
G36*
X17035Y282870D02*
Y275303D01*
X22683D01*
Y276772D01*
X22565Y277971D01*
X22215Y279124D01*
X21647Y280187D01*
X20883Y281119D01*
X19951Y281883D01*
X18888Y282451D01*
X17735Y282801D01*
X17035Y282870D01*
D02*
G37*
G36*
X16035D02*
X15336Y282801D01*
X14183Y282451D01*
X13120Y281883D01*
X12188Y281119D01*
X11424Y280187D01*
X10856Y279124D01*
X10506Y277971D01*
X10388Y276772D01*
Y275303D01*
X16035D01*
Y282870D01*
D02*
G37*
G36*
X22683Y274303D02*
X17035D01*
Y266736D01*
X17735Y266805D01*
X18888Y267155D01*
X19951Y267723D01*
X20883Y268488D01*
X21647Y269419D01*
X22215Y270482D01*
X22565Y271635D01*
X22683Y272835D01*
Y274303D01*
D02*
G37*
G36*
X16035D02*
X10388D01*
Y272835D01*
X10506Y271635D01*
X10856Y270482D01*
X11424Y269419D01*
X12188Y268488D01*
X13120Y267723D01*
X14183Y267155D01*
X15336Y266805D01*
X16035Y266736D01*
Y274303D01*
D02*
G37*
G36*
X214567Y264054D02*
X213895Y263965D01*
X213268Y263706D01*
X212731Y263293D01*
X212318Y262755D01*
X212058Y262129D01*
X211970Y261457D01*
X212058Y260785D01*
X212318Y260158D01*
X212731Y259620D01*
X213268Y259208D01*
X213895Y258948D01*
X214567Y258860D01*
X215239Y258948D01*
X215865Y259208D01*
X216403Y259620D01*
X216816Y260158D01*
X217075Y260785D01*
X217164Y261457D01*
X217075Y262129D01*
X216816Y262755D01*
X216403Y263293D01*
X215865Y263706D01*
X215239Y263965D01*
X214567Y264054D01*
D02*
G37*
G36*
X256405Y258834D02*
Y256405D01*
X258834D01*
X258798Y256680D01*
X258499Y257403D01*
X258023Y258023D01*
X257403Y258499D01*
X256680Y258798D01*
X256405Y258834D01*
D02*
G37*
G36*
X255405D02*
X255131Y258798D01*
X254408Y258499D01*
X253788Y258023D01*
X253312Y257403D01*
X253013Y256680D01*
X252977Y256405D01*
X255405D01*
Y258834D01*
D02*
G37*
G36*
X47244Y264028D02*
X46161Y263885D01*
X45151Y263467D01*
X44285Y262802D01*
X43619Y261935D01*
X43201Y260926D01*
X43059Y259842D01*
X43201Y258759D01*
X43619Y257750D01*
X44285Y256883D01*
X45151Y256218D01*
X46161Y255800D01*
X47244Y255657D01*
X48327Y255800D01*
X49337Y256218D01*
X50204Y256883D01*
X50869Y257750D01*
X51287Y258759D01*
X51429Y259842D01*
X51287Y260926D01*
X50869Y261935D01*
X50204Y262802D01*
X49337Y263467D01*
X48327Y263885D01*
X47244Y264028D01*
D02*
G37*
G36*
X258834Y255405D02*
X256405D01*
Y252977D01*
X256680Y253013D01*
X257403Y253312D01*
X258023Y253788D01*
X258499Y254408D01*
X258798Y255131D01*
X258834Y255405D01*
D02*
G37*
G36*
X255405D02*
X252977D01*
X253013Y255131D01*
X253312Y254408D01*
X253788Y253788D01*
X254408Y253312D01*
X255131Y253013D01*
X255405Y252977D01*
Y255405D01*
D02*
G37*
G36*
X135984Y261702D02*
X135004Y261573D01*
X134090Y261194D01*
X133306Y260592D01*
X132703Y259807D01*
X132325Y258894D01*
X132196Y257913D01*
Y254370D01*
X132325Y253390D01*
X132703Y252476D01*
X133306Y251691D01*
X134090Y251089D01*
X135004Y250711D01*
X135984Y250582D01*
X136965Y250711D01*
X137878Y251089D01*
X138663Y251691D01*
X139265Y252476D01*
X139644Y253390D01*
X139773Y254370D01*
Y257913D01*
X139644Y258894D01*
X139265Y259807D01*
X138663Y260592D01*
X137878Y261194D01*
X136965Y261573D01*
X135984Y261702D01*
D02*
G37*
G36*
X125984D02*
X125004Y261573D01*
X124090Y261194D01*
X123305Y260592D01*
X122704Y259807D01*
X122325Y258894D01*
X122196Y257913D01*
Y254370D01*
X122325Y253390D01*
X122704Y252476D01*
X123305Y251691D01*
X124090Y251089D01*
X125004Y250711D01*
X125984Y250582D01*
X126965Y250711D01*
X127878Y251089D01*
X128663Y251691D01*
X129265Y252476D01*
X129643Y253390D01*
X129773Y254370D01*
Y257913D01*
X129643Y258894D01*
X129265Y259807D01*
X128663Y260592D01*
X127878Y261194D01*
X126965Y261573D01*
X125984Y261702D01*
D02*
G37*
G36*
X115984D02*
X115004Y261573D01*
X114090Y261194D01*
X113305Y260592D01*
X112704Y259807D01*
X112325Y258894D01*
X112196Y257913D01*
Y254370D01*
X112325Y253390D01*
X112704Y252476D01*
X113305Y251691D01*
X114090Y251089D01*
X115004Y250711D01*
X115984Y250582D01*
X116965Y250711D01*
X117878Y251089D01*
X118663Y251691D01*
X119265Y252476D01*
X119643Y253390D01*
X119773Y254370D01*
Y257913D01*
X119643Y258894D01*
X119265Y259807D01*
X118663Y260592D01*
X117878Y261194D01*
X116965Y261573D01*
X115984Y261702D01*
D02*
G37*
G36*
X288425Y257481D02*
X287288Y257331D01*
X286228Y256892D01*
X285318Y256194D01*
X284620Y255284D01*
X284181Y254224D01*
X284031Y253087D01*
X284181Y251949D01*
X284620Y250890D01*
X285318Y249980D01*
X286228Y249281D01*
X287288Y248842D01*
X288425Y248693D01*
X289562Y248842D01*
X290622Y249281D01*
X291532Y249980D01*
X292230Y250890D01*
X292669Y251949D01*
X292819Y253087D01*
X292669Y254224D01*
X292230Y255284D01*
X291532Y256194D01*
X290622Y256892D01*
X289562Y257331D01*
X288425Y257481D01*
D02*
G37*
G36*
X17035Y252949D02*
Y245382D01*
X22683D01*
Y246850D01*
X22565Y248050D01*
X22215Y249203D01*
X21647Y250266D01*
X20883Y251198D01*
X19951Y251962D01*
X18888Y252530D01*
X17735Y252880D01*
X17035Y252949D01*
D02*
G37*
G36*
X16035D02*
X15336Y252880D01*
X14183Y252530D01*
X13120Y251962D01*
X12188Y251198D01*
X11424Y250266D01*
X10856Y249203D01*
X10506Y248050D01*
X10388Y246850D01*
Y245382D01*
X16035D01*
Y252949D01*
D02*
G37*
G36*
X288925Y247812D02*
Y243587D01*
X293150D01*
X293053Y244327D01*
X292574Y245482D01*
X291813Y246474D01*
X290821Y247236D01*
X289665Y247714D01*
X288925Y247812D01*
D02*
G37*
G36*
X287925Y247812D02*
X287185Y247714D01*
X286030Y247236D01*
X285037Y246474D01*
X284276Y245482D01*
X283798Y244327D01*
X283700Y243587D01*
X287925D01*
Y247812D01*
D02*
G37*
G36*
X173602Y260845D02*
X172930Y260757D01*
X172304Y260497D01*
X171766Y260084D01*
X171353Y259546D01*
X171094Y258920D01*
X171005Y258248D01*
X171094Y257576D01*
X171353Y256949D01*
X171766Y256412D01*
X172304Y255999D01*
X172930Y255739D01*
X173602Y255651D01*
X174275Y255739D01*
X174901Y255999D01*
X175439Y256412D01*
X175851Y256949D01*
X175922Y257120D01*
X194041D01*
X206224Y244937D01*
X206153Y244767D01*
X206064Y244094D01*
X206153Y243422D01*
X206412Y242796D01*
X206825Y242258D01*
X207363Y241845D01*
X207989Y241586D01*
X208661Y241497D01*
X209334Y241586D01*
X209960Y241845D01*
X210498Y242258D01*
X210911Y242796D01*
X211170Y243422D01*
X211258Y244094D01*
X211170Y244767D01*
X210911Y245393D01*
X210498Y245931D01*
X209960Y246344D01*
X209334Y246603D01*
X208661Y246691D01*
X207989Y246603D01*
X207819Y246532D01*
X195306Y259046D01*
X194940Y259290D01*
X194508Y259376D01*
X194508Y259376D01*
X175922D01*
X175851Y259546D01*
X175439Y260084D01*
X174901Y260497D01*
X174275Y260757D01*
X173602Y260845D01*
D02*
G37*
G36*
X293150Y242587D02*
X288925D01*
Y238362D01*
X289665Y238459D01*
X290821Y238937D01*
X291813Y239699D01*
X292574Y240691D01*
X293053Y241847D01*
X293150Y242587D01*
D02*
G37*
G36*
X287925D02*
X283700D01*
X283798Y241847D01*
X284276Y240691D01*
X285037Y239699D01*
X286030Y238937D01*
X287185Y238459D01*
X287925Y238361D01*
Y242587D01*
D02*
G37*
G36*
X16035Y244382D02*
X10388D01*
Y242913D01*
X10506Y241714D01*
X10856Y240561D01*
X11424Y239498D01*
X12188Y238566D01*
X13120Y237802D01*
X14183Y237234D01*
X15336Y236884D01*
X16035Y236815D01*
Y244382D01*
D02*
G37*
G36*
X22683D02*
X17035D01*
Y236815D01*
X17735Y236884D01*
X18888Y237234D01*
X19951Y237802D01*
X20883Y238566D01*
X21647Y239498D01*
X22215Y240561D01*
X22565Y241714D01*
X22683Y242913D01*
Y244382D01*
D02*
G37*
G36*
X349410Y241091D02*
X348737Y241003D01*
X348111Y240743D01*
X347573Y240331D01*
X347160Y239793D01*
X346901Y239166D01*
X346812Y238494D01*
X346901Y237822D01*
X347160Y237196D01*
X347573Y236658D01*
X348111Y236245D01*
X348737Y235986D01*
X349410Y235897D01*
X350082Y235986D01*
X350708Y236245D01*
X351246Y236658D01*
X351659Y237196D01*
X351918Y237822D01*
X352007Y238494D01*
X351918Y239166D01*
X351659Y239793D01*
X351246Y240331D01*
X350708Y240743D01*
X350082Y241003D01*
X349410Y241091D01*
D02*
G37*
G36*
X375984Y242450D02*
X375004Y242321D01*
X374090Y241942D01*
X373306Y241340D01*
X372704Y240556D01*
X372325Y239642D01*
X372196Y238661D01*
X372325Y237681D01*
X372704Y236767D01*
X373306Y235983D01*
X374090Y235381D01*
X375004Y235002D01*
X375984Y234873D01*
X376965Y235002D01*
X377878Y235381D01*
X378663Y235983D01*
X379265Y236767D01*
X379644Y237681D01*
X379773Y238661D01*
X379644Y239642D01*
X379265Y240556D01*
X378663Y241340D01*
X377878Y241942D01*
X376965Y242321D01*
X375984Y242450D01*
D02*
G37*
G36*
X376484Y232781D02*
Y229161D01*
X380104D01*
X380027Y229745D01*
X379609Y230754D01*
X378944Y231621D01*
X378077Y232286D01*
X377067Y232704D01*
X376484Y232781D01*
D02*
G37*
G36*
X375484Y232781D02*
X374901Y232704D01*
X373891Y232286D01*
X373025Y231621D01*
X372360Y230754D01*
X371941Y229745D01*
X371865Y229161D01*
X375484D01*
Y232781D01*
D02*
G37*
G36*
X288425Y237480D02*
X287288Y237331D01*
X286228Y236892D01*
X285318Y236194D01*
X284620Y235284D01*
X284181Y234224D01*
X284031Y233087D01*
X284181Y231949D01*
X284620Y230890D01*
X285318Y229980D01*
X286228Y229281D01*
X287288Y228842D01*
X288425Y228693D01*
X289562Y228842D01*
X290622Y229281D01*
X291532Y229980D01*
X292230Y230890D01*
X292669Y231949D01*
X292819Y233087D01*
X292669Y234224D01*
X292230Y235284D01*
X291532Y236194D01*
X290622Y236892D01*
X289562Y237331D01*
X288425Y237480D01*
D02*
G37*
G36*
X188602Y248286D02*
X187930Y248198D01*
X187304Y247938D01*
X186766Y247525D01*
X186353Y246988D01*
X186094Y246361D01*
X186005Y245689D01*
X186094Y245017D01*
X186353Y244391D01*
X186766Y243853D01*
X187304Y243440D01*
X187930Y243180D01*
X188602Y243092D01*
X189275Y243180D01*
X189901Y243440D01*
X190439Y243853D01*
X190551Y243999D01*
X191414D01*
X206224Y229189D01*
X206153Y229019D01*
X206064Y228346D01*
X206153Y227674D01*
X206412Y227048D01*
X206825Y226510D01*
X207363Y226097D01*
X207989Y225838D01*
X208661Y225749D01*
X209334Y225838D01*
X209960Y226097D01*
X210498Y226510D01*
X210911Y227048D01*
X211170Y227674D01*
X211258Y228346D01*
X211170Y229019D01*
X210911Y229645D01*
X210498Y230183D01*
X209960Y230596D01*
X209334Y230855D01*
X208661Y230943D01*
X207989Y230855D01*
X207819Y230784D01*
X192678Y245925D01*
X192313Y246169D01*
X191881Y246255D01*
X191881Y246255D01*
X191125D01*
X191111Y246361D01*
X190851Y246988D01*
X190439Y247525D01*
X189901Y247938D01*
X189275Y248198D01*
X188602Y248286D01*
D02*
G37*
G36*
X380104Y228161D02*
X376484D01*
Y224542D01*
X377067Y224619D01*
X378077Y225037D01*
X378944Y225702D01*
X379609Y226569D01*
X380027Y227578D01*
X380104Y228161D01*
D02*
G37*
G36*
X375484D02*
X371865D01*
X371941Y227578D01*
X372360Y226569D01*
X373025Y225702D01*
X373891Y225037D01*
X374901Y224619D01*
X375484Y224542D01*
Y228161D01*
D02*
G37*
G36*
X214567Y228621D02*
X213895Y228532D01*
X213268Y228273D01*
X212731Y227860D01*
X212318Y227322D01*
X212058Y226696D01*
X211970Y226024D01*
X212058Y225352D01*
X212318Y224725D01*
X212731Y224187D01*
X213268Y223775D01*
X213895Y223515D01*
X214567Y223427D01*
X215239Y223515D01*
X215865Y223775D01*
X216403Y224187D01*
X216816Y224725D01*
X217075Y225352D01*
X217164Y226024D01*
X217075Y226696D01*
X216816Y227322D01*
X216403Y227860D01*
X215865Y228273D01*
X215239Y228532D01*
X214567Y228621D01*
D02*
G37*
G36*
X135984Y234143D02*
X135004Y234014D01*
X134090Y233635D01*
X133306Y233033D01*
X132703Y232248D01*
X132325Y231335D01*
X132196Y230354D01*
Y226811D01*
X132325Y225831D01*
X132703Y224917D01*
X133306Y224132D01*
X134090Y223530D01*
X135004Y223152D01*
X135984Y223023D01*
X136965Y223152D01*
X137878Y223530D01*
X138663Y224132D01*
X139265Y224917D01*
X139644Y225831D01*
X139773Y226811D01*
Y230354D01*
X139644Y231335D01*
X139265Y232248D01*
X138663Y233033D01*
X137878Y233635D01*
X136965Y234014D01*
X135984Y234143D01*
D02*
G37*
G36*
X125984D02*
X125004Y234014D01*
X124090Y233635D01*
X123305Y233033D01*
X122704Y232248D01*
X122325Y231335D01*
X122196Y230354D01*
Y226811D01*
X122325Y225831D01*
X122704Y224917D01*
X123305Y224132D01*
X124090Y223530D01*
X125004Y223152D01*
X125984Y223023D01*
X126965Y223152D01*
X127878Y223530D01*
X128663Y224132D01*
X129265Y224917D01*
X129643Y225831D01*
X129773Y226811D01*
Y230354D01*
X129643Y231335D01*
X129265Y232248D01*
X128663Y233033D01*
X127878Y233635D01*
X126965Y234014D01*
X125984Y234143D01*
D02*
G37*
G36*
X115984D02*
X115004Y234014D01*
X114090Y233635D01*
X113305Y233033D01*
X112704Y232248D01*
X112325Y231335D01*
X112196Y230354D01*
Y226811D01*
X112325Y225831D01*
X112704Y224917D01*
X113305Y224132D01*
X114090Y223530D01*
X115004Y223152D01*
X115984Y223023D01*
X116965Y223152D01*
X117878Y223530D01*
X118663Y224132D01*
X119265Y224917D01*
X119643Y225831D01*
X119773Y226811D01*
Y230354D01*
X119643Y231335D01*
X119265Y232248D01*
X118663Y233033D01*
X117878Y233635D01*
X116965Y234014D01*
X115984Y234143D01*
D02*
G37*
G36*
X256405Y223401D02*
Y220972D01*
X258834D01*
X258798Y221247D01*
X258499Y221970D01*
X258023Y222590D01*
X257403Y223065D01*
X256680Y223364D01*
X256405Y223401D01*
D02*
G37*
G36*
X255405D02*
X255131Y223364D01*
X254408Y223065D01*
X253788Y222590D01*
X253312Y221970D01*
X253013Y221247D01*
X252977Y220972D01*
X255405D01*
Y223401D01*
D02*
G37*
G36*
X288425Y227481D02*
X287288Y227331D01*
X286228Y226892D01*
X285318Y226194D01*
X284620Y225284D01*
X284181Y224224D01*
X284031Y223087D01*
X284181Y221949D01*
X284620Y220890D01*
X285318Y219980D01*
X286228Y219281D01*
X287288Y218842D01*
X288425Y218693D01*
X289562Y218842D01*
X290622Y219281D01*
X291532Y219980D01*
X292230Y220890D01*
X292669Y221949D01*
X292819Y223087D01*
X292669Y224224D01*
X292230Y225284D01*
X291532Y226194D01*
X290622Y226892D01*
X289562Y227331D01*
X288425Y227481D01*
D02*
G37*
G36*
X258834Y219972D02*
X256405D01*
Y217544D01*
X256680Y217580D01*
X257403Y217880D01*
X258023Y218355D01*
X258499Y218975D01*
X258798Y219697D01*
X258834Y219972D01*
D02*
G37*
G36*
X255405D02*
X252977D01*
X253013Y219697D01*
X253312Y218975D01*
X253788Y218355D01*
X254408Y217880D01*
X255131Y217580D01*
X255405Y217544D01*
Y219972D01*
D02*
G37*
G36*
X246417Y350685D02*
X98071D01*
X96885Y350529D01*
X95780Y350071D01*
X94831Y349343D01*
X75500Y330012D01*
X74772Y329063D01*
X74314Y327958D01*
X74236Y327365D01*
X74158Y326772D01*
Y227756D01*
X74202Y227421D01*
X74158Y227087D01*
Y211699D01*
X74236Y211106D01*
X74314Y210513D01*
X74772Y209408D01*
X75500Y208459D01*
X80112Y203846D01*
X81061Y203118D01*
X82167Y202660D01*
X82760Y202582D01*
X83353Y202504D01*
X98425D01*
X99611Y202660D01*
X100716Y203118D01*
X101665Y203846D01*
X102394Y204795D01*
X102852Y205901D01*
X103008Y207087D01*
X102852Y208273D01*
X102394Y209378D01*
X101665Y210327D01*
X100716Y211055D01*
X99611Y211513D01*
X98425Y211669D01*
X85251D01*
X83323Y213597D01*
Y222504D01*
X98425D01*
X99611Y222660D01*
X100716Y223118D01*
X101665Y223846D01*
X102394Y224795D01*
X102852Y225901D01*
X103008Y227087D01*
X102852Y228273D01*
X102394Y229378D01*
X101665Y230327D01*
X100716Y231055D01*
X99611Y231513D01*
X98425Y231669D01*
X83323D01*
Y324873D01*
X99969Y341520D01*
X244519D01*
X261165Y324873D01*
Y300827D01*
Y213618D01*
X211026D01*
X210911Y213897D01*
X210498Y214435D01*
X209960Y214847D01*
X209334Y215107D01*
X208661Y215195D01*
X207989Y215107D01*
X207363Y214847D01*
X206825Y214435D01*
X206412Y213897D01*
X206153Y213271D01*
X206064Y212598D01*
X206153Y211926D01*
X206412Y211300D01*
X206825Y210762D01*
X207363Y210349D01*
X207989Y210090D01*
X208661Y210001D01*
X209334Y210090D01*
X209960Y210349D01*
X210498Y210762D01*
X210911Y211300D01*
X211026Y211579D01*
X261165D01*
Y194528D01*
X261322Y193342D01*
X261779Y192236D01*
X262508Y191287D01*
X263457Y190559D01*
X264562Y190101D01*
X265748Y189945D01*
X266934Y190101D01*
X268039Y190559D01*
X268086Y190595D01*
X284281Y174399D01*
X284281Y174399D01*
X284647Y174155D01*
X285079Y174069D01*
X285079Y174069D01*
X291338D01*
X291339Y174069D01*
X291770Y174155D01*
X292136Y174399D01*
X307687Y189950D01*
X307932Y190316D01*
X308018Y190748D01*
X308018Y190748D01*
Y193882D01*
X309465D01*
Y199819D01*
X304315D01*
Y193882D01*
X305762D01*
Y191215D01*
X290871Y176325D01*
X285546D01*
X269681Y192190D01*
X269717Y192236D01*
X270174Y193342D01*
X270331Y194528D01*
Y212598D01*
Y300827D01*
Y326772D01*
X270174Y327958D01*
X269717Y329063D01*
X268988Y330012D01*
X249658Y349343D01*
X248709Y350071D01*
X247603Y350529D01*
X246417Y350685D01*
D02*
G37*
G36*
X98425Y221480D02*
X97288Y221331D01*
X96228Y220892D01*
X95318Y220194D01*
X94620Y219284D01*
X94181Y218224D01*
X94031Y217087D01*
X94181Y215949D01*
X94620Y214890D01*
X95318Y213980D01*
X96228Y213281D01*
X97288Y212842D01*
X98425Y212693D01*
X99562Y212842D01*
X100622Y213281D01*
X101532Y213980D01*
X102230Y214890D01*
X102669Y215949D01*
X102819Y217087D01*
X102669Y218224D01*
X102230Y219284D01*
X101532Y220194D01*
X100622Y220892D01*
X99562Y221331D01*
X98425Y221480D01*
D02*
G37*
G36*
X288425Y217480D02*
X287288Y217331D01*
X286228Y216892D01*
X285318Y216194D01*
X284620Y215284D01*
X284181Y214224D01*
X284031Y213087D01*
X284181Y211949D01*
X284620Y210890D01*
X285318Y209980D01*
X286228Y209281D01*
X287288Y208842D01*
X288425Y208693D01*
X289562Y208842D01*
X290622Y209281D01*
X291532Y209980D01*
X292230Y210890D01*
X292669Y211949D01*
X292819Y213087D01*
X292669Y214224D01*
X292230Y215284D01*
X291532Y216194D01*
X290622Y216892D01*
X289562Y217331D01*
X288425Y217480D01*
D02*
G37*
G36*
X349410Y211091D02*
X348737Y211003D01*
X348111Y210743D01*
X347573Y210331D01*
X347160Y209793D01*
X346901Y209166D01*
X346812Y208494D01*
X346901Y207822D01*
X347160Y207196D01*
X347573Y206658D01*
X348111Y206245D01*
X348737Y205986D01*
X349410Y205897D01*
X350082Y205986D01*
X350708Y206245D01*
X351246Y206658D01*
X351659Y207196D01*
X351918Y207822D01*
X352007Y208494D01*
X351918Y209166D01*
X351659Y209793D01*
X351246Y210331D01*
X350708Y210743D01*
X350082Y211003D01*
X349410Y211091D01*
D02*
G37*
G36*
X375984Y212450D02*
X375004Y212321D01*
X374090Y211942D01*
X373306Y211340D01*
X372704Y210556D01*
X372325Y209642D01*
X372196Y208661D01*
X372325Y207681D01*
X372704Y206767D01*
X373306Y205983D01*
X374090Y205381D01*
X375004Y205002D01*
X375984Y204873D01*
X376965Y205002D01*
X377878Y205381D01*
X378663Y205983D01*
X379265Y206767D01*
X379644Y207681D01*
X379773Y208661D01*
X379644Y209642D01*
X379265Y210556D01*
X378663Y211340D01*
X377878Y211942D01*
X376965Y212321D01*
X375984Y212450D01*
D02*
G37*
G36*
X376484Y202781D02*
Y199161D01*
X380104D01*
X380027Y199745D01*
X379609Y200754D01*
X378944Y201621D01*
X378077Y202286D01*
X377067Y202704D01*
X376484Y202781D01*
D02*
G37*
G36*
X375484Y202781D02*
X374901Y202704D01*
X373891Y202286D01*
X373025Y201621D01*
X372360Y200754D01*
X371941Y199745D01*
X371865Y199161D01*
X375484D01*
Y202781D01*
D02*
G37*
G36*
X288425Y207481D02*
X287288Y207331D01*
X286228Y206892D01*
X285318Y206194D01*
X284620Y205284D01*
X284181Y204224D01*
X284031Y203087D01*
X284181Y201949D01*
X284620Y200890D01*
X285318Y199980D01*
X286228Y199281D01*
X287288Y198842D01*
X288425Y198693D01*
X289562Y198842D01*
X290622Y199281D01*
X291532Y199980D01*
X292230Y200890D01*
X292669Y201949D01*
X292819Y203087D01*
X292669Y204224D01*
X292230Y205284D01*
X291532Y206194D01*
X290622Y206892D01*
X289562Y207331D01*
X288425Y207481D01*
D02*
G37*
G36*
X137795Y203621D02*
X137123Y203532D01*
X136497Y203273D01*
X135959Y202860D01*
X135546Y202322D01*
X135287Y201696D01*
X135198Y201024D01*
X135287Y200352D01*
X135546Y199725D01*
X135959Y199187D01*
X136497Y198775D01*
X137123Y198515D01*
X137795Y198427D01*
X138467Y198515D01*
X139094Y198775D01*
X139632Y199187D01*
X140044Y199725D01*
X140304Y200352D01*
X140392Y201024D01*
X140304Y201696D01*
X140044Y202322D01*
X139632Y202860D01*
X139094Y203273D01*
X138467Y203532D01*
X137795Y203621D01*
D02*
G37*
G36*
X380104Y198161D02*
X376484D01*
Y194542D01*
X377067Y194619D01*
X378077Y195037D01*
X378944Y195702D01*
X379609Y196569D01*
X380027Y197578D01*
X380104Y198161D01*
D02*
G37*
G36*
X375484D02*
X371865D01*
X371941Y197578D01*
X372360Y196569D01*
X373025Y195702D01*
X373891Y195037D01*
X374901Y194619D01*
X375484Y194542D01*
Y198161D01*
D02*
G37*
G36*
X98425Y201481D02*
X97288Y201331D01*
X96228Y200892D01*
X95318Y200194D01*
X94620Y199284D01*
X94181Y198224D01*
X94031Y197087D01*
X94181Y195949D01*
X94620Y194890D01*
X95318Y193980D01*
X96228Y193281D01*
X97288Y192842D01*
X98425Y192693D01*
X99562Y192842D01*
X100622Y193281D01*
X101532Y193980D01*
X102230Y194890D01*
X102669Y195949D01*
X102819Y197087D01*
X102669Y198224D01*
X102230Y199284D01*
X101532Y200194D01*
X100622Y200892D01*
X99562Y201331D01*
X98425Y201481D01*
D02*
G37*
G36*
X288425Y197480D02*
X287288Y197331D01*
X286228Y196892D01*
X285318Y196194D01*
X284620Y195283D01*
X284181Y194224D01*
X284031Y193087D01*
X284181Y191949D01*
X284620Y190890D01*
X285318Y189980D01*
X286228Y189281D01*
X287288Y188842D01*
X288425Y188693D01*
X289562Y188842D01*
X290622Y189281D01*
X291532Y189980D01*
X292230Y190890D01*
X292669Y191949D01*
X292819Y193087D01*
X292669Y194224D01*
X292230Y195283D01*
X291532Y196194D01*
X290622Y196892D01*
X289562Y197331D01*
X288425Y197480D01*
D02*
G37*
G36*
X208661Y199447D02*
X207989Y199359D01*
X207363Y199100D01*
X206825Y198687D01*
X206412Y198149D01*
X206153Y197523D01*
X206064Y196850D01*
X206153Y196178D01*
X206412Y195552D01*
X206825Y195014D01*
X207363Y194601D01*
X207989Y194342D01*
X208661Y194253D01*
X209334Y194342D01*
X209504Y194413D01*
X212850Y191067D01*
X212787Y190591D01*
X212875Y189918D01*
X213135Y189292D01*
X213547Y188754D01*
X214085Y188341D01*
X214712Y188082D01*
X215384Y187994D01*
X216056Y188082D01*
X216682Y188341D01*
X217220Y188754D01*
X217633Y189292D01*
X217892Y189918D01*
X217981Y190591D01*
X217892Y191263D01*
X217633Y191889D01*
X217220Y192427D01*
X216682Y192840D01*
X216056Y193099D01*
X215384Y193188D01*
X214712Y193099D01*
X214214Y192893D01*
X211099Y196008D01*
X211170Y196178D01*
X211258Y196850D01*
X211170Y197523D01*
X210911Y198149D01*
X210498Y198687D01*
X209960Y199100D01*
X209334Y199359D01*
X208661Y199447D01*
D02*
G37*
G36*
X98925Y191812D02*
Y187587D01*
X103150D01*
X103053Y188327D01*
X102574Y189482D01*
X101813Y190474D01*
X100821Y191236D01*
X99665Y191714D01*
X98925Y191812D01*
D02*
G37*
G36*
X97925D02*
X97185Y191714D01*
X96030Y191236D01*
X95038Y190474D01*
X94276Y189482D01*
X93797Y188327D01*
X93700Y187587D01*
X97925D01*
Y191812D01*
D02*
G37*
G36*
X317732Y199819D02*
X312583D01*
Y193882D01*
X316137D01*
X317770Y192249D01*
Y191296D01*
X317599Y191226D01*
X317061Y190813D01*
X316649Y190275D01*
X316389Y189648D01*
X316301Y188976D01*
X316389Y188304D01*
X316649Y187678D01*
X317061Y187140D01*
X317599Y186727D01*
X318226Y186468D01*
X318898Y186379D01*
X319570Y186468D01*
X320196Y186727D01*
X320734Y187140D01*
X321147Y187678D01*
X321406Y188304D01*
X321495Y188976D01*
X321406Y189648D01*
X321147Y190275D01*
X320734Y190813D01*
X320196Y191226D01*
X320026Y191296D01*
Y192717D01*
X319940Y193148D01*
X319695Y193514D01*
X319695Y193514D01*
X317732Y195477D01*
Y199819D01*
D02*
G37*
G36*
X256405Y187968D02*
Y185539D01*
X258834D01*
X258798Y185814D01*
X258499Y186536D01*
X258023Y187156D01*
X257403Y187632D01*
X256680Y187932D01*
X256405Y187968D01*
D02*
G37*
G36*
X255405D02*
X255131Y187932D01*
X254408Y187632D01*
X253788Y187156D01*
X253312Y186536D01*
X253013Y185814D01*
X252977Y185539D01*
X255405D01*
Y187968D01*
D02*
G37*
G36*
X375984Y192450D02*
X375004Y192321D01*
X374090Y191942D01*
X373306Y191340D01*
X372704Y190556D01*
X372325Y189642D01*
X372196Y188661D01*
X372325Y187681D01*
X372704Y186767D01*
X373306Y185983D01*
X374090Y185381D01*
X375004Y185002D01*
X375984Y184873D01*
X376965Y185002D01*
X377878Y185381D01*
X378663Y185983D01*
X379265Y186767D01*
X379644Y187681D01*
X379773Y188661D01*
X379644Y189642D01*
X379265Y190556D01*
X378663Y191340D01*
X377878Y191942D01*
X376965Y192321D01*
X375984Y192450D01*
D02*
G37*
G36*
X173602Y189979D02*
X172930Y189890D01*
X172304Y189631D01*
X171766Y189218D01*
X171353Y188680D01*
X171094Y188054D01*
X171005Y187382D01*
X171094Y186710D01*
X171353Y186083D01*
X171766Y185546D01*
X172304Y185133D01*
X172930Y184873D01*
X173602Y184785D01*
X174275Y184873D01*
X174901Y185133D01*
X175439Y185546D01*
X175851Y186083D01*
X176111Y186710D01*
X176199Y187382D01*
X176111Y188054D01*
X175851Y188680D01*
X175439Y189218D01*
X174901Y189631D01*
X174275Y189890D01*
X173602Y189979D01*
D02*
G37*
G36*
X114823Y187873D02*
X114151Y187784D01*
X113524Y187525D01*
X112987Y187112D01*
X112574Y186574D01*
X112314Y185948D01*
X112226Y185276D01*
X112314Y184603D01*
X112574Y183977D01*
X112987Y183439D01*
X113524Y183027D01*
X114151Y182767D01*
X114823Y182679D01*
X115495Y182767D01*
X116121Y183027D01*
X116659Y183439D01*
X117072Y183977D01*
X117331Y184603D01*
X117420Y185276D01*
X117331Y185948D01*
X117072Y186574D01*
X116659Y187112D01*
X116121Y187525D01*
X115495Y187784D01*
X114823Y187873D01*
D02*
G37*
G36*
X258834Y184539D02*
X256405D01*
Y182111D01*
X256680Y182147D01*
X257403Y182446D01*
X258023Y182922D01*
X258499Y183542D01*
X258798Y184264D01*
X258834Y184539D01*
D02*
G37*
G36*
X255405D02*
X252977D01*
X253013Y184264D01*
X253312Y183542D01*
X253788Y182922D01*
X254408Y182446D01*
X255131Y182147D01*
X255405Y182111D01*
Y184539D01*
D02*
G37*
G36*
X288425Y187480D02*
X287288Y187331D01*
X286228Y186892D01*
X285318Y186194D01*
X284620Y185284D01*
X284181Y184224D01*
X284031Y183087D01*
X284181Y181949D01*
X284620Y180890D01*
X285318Y179980D01*
X286228Y179281D01*
X287288Y178842D01*
X288425Y178693D01*
X289562Y178842D01*
X290622Y179281D01*
X291532Y179980D01*
X292230Y180890D01*
X292669Y181949D01*
X292819Y183087D01*
X292669Y184224D01*
X292230Y185284D01*
X291532Y186194D01*
X290622Y186892D01*
X289562Y187331D01*
X288425Y187480D01*
D02*
G37*
G36*
X208661Y183699D02*
X207989Y183611D01*
X207363Y183351D01*
X206825Y182939D01*
X206412Y182401D01*
X206153Y181774D01*
X206064Y181102D01*
X206153Y180430D01*
X206224Y180260D01*
X168494Y142530D01*
X168249Y142164D01*
X168163Y141732D01*
X168163Y141732D01*
Y100113D01*
X163667Y95616D01*
X129921D01*
X129921Y95616D01*
X129490Y95530D01*
X129124Y95286D01*
X129124Y95286D01*
X121250Y87412D01*
X121005Y87046D01*
X120919Y86614D01*
X120919Y86614D01*
Y74803D01*
X120919Y74803D01*
X121005Y74371D01*
X121250Y74006D01*
X129124Y66132D01*
X129124Y66132D01*
X129490Y65887D01*
X129921Y65801D01*
X129921Y65801D01*
X179467D01*
X179588Y65508D01*
X180158Y64765D01*
X180902Y64194D01*
X181768Y63836D01*
X182697Y63713D01*
X337943D01*
X338872Y63836D01*
X339738Y64194D01*
X340481Y64765D01*
X350963Y75247D01*
X351534Y75991D01*
X351893Y76856D01*
X352015Y77785D01*
X351893Y78715D01*
X351534Y79580D01*
X350963Y80324D01*
X350220Y80894D01*
X349354Y81253D01*
X348425Y81375D01*
X347496Y81253D01*
X346630Y80894D01*
X345887Y80324D01*
X336456Y70893D01*
X182697D01*
X182697Y70893D01*
X181768Y70771D01*
X180902Y70412D01*
X180158Y69841D01*
X179588Y69098D01*
X179229Y68232D01*
X179206Y68057D01*
X130388D01*
X123175Y75270D01*
Y86147D01*
X130388Y93360D01*
X164134D01*
X164134Y93360D01*
X164566Y93446D01*
X164931Y93691D01*
X170089Y98848D01*
X170089Y98848D01*
X170334Y99214D01*
X170419Y99646D01*
X170419Y99646D01*
Y141265D01*
X207819Y178665D01*
X207989Y178594D01*
X208661Y178505D01*
X209334Y178594D01*
X209960Y178853D01*
X210498Y179266D01*
X210911Y179804D01*
X211170Y180430D01*
X211258Y181102D01*
X211170Y181774D01*
X210911Y182401D01*
X210498Y182939D01*
X209960Y183351D01*
X209334Y183611D01*
X208661Y183699D01*
D02*
G37*
G36*
X103150Y186587D02*
X98425D01*
X93700D01*
X93797Y185847D01*
X94276Y184691D01*
X95038Y183699D01*
X96030Y182938D01*
X97185Y182459D01*
X98097Y182339D01*
Y181834D01*
X97185Y181714D01*
X96030Y181236D01*
X95038Y180474D01*
X94276Y179482D01*
X93797Y178327D01*
X93700Y177587D01*
X98425D01*
X103150D01*
X103053Y178327D01*
X102574Y179482D01*
X101813Y180474D01*
X100821Y181236D01*
X99665Y181714D01*
X98753Y181834D01*
Y182339D01*
X99665Y182459D01*
X100821Y182938D01*
X101813Y183699D01*
X102574Y184691D01*
X103053Y185847D01*
X103150Y186587D01*
D02*
G37*
G36*
X318898Y179762D02*
X318226Y179674D01*
X317599Y179414D01*
X317061Y179002D01*
X316649Y178464D01*
X316389Y177838D01*
X316301Y177165D01*
X316343Y176843D01*
X316004Y176492D01*
X315567Y176643D01*
Y177181D01*
X311992D01*
Y173213D01*
Y169276D01*
X315567D01*
Y169814D01*
X316004Y169965D01*
X316343Y169614D01*
X316301Y169291D01*
X316389Y168619D01*
X316649Y167993D01*
X317061Y167455D01*
X317599Y167042D01*
X318226Y166783D01*
X318898Y166694D01*
X319570Y166783D01*
X320196Y167042D01*
X320734Y167455D01*
X321147Y167993D01*
X321406Y168619D01*
X321495Y169291D01*
X321406Y169964D01*
X321147Y170590D01*
X320734Y171128D01*
X320196Y171540D01*
X319570Y171800D01*
X318898Y171888D01*
X318226Y171800D01*
X318055Y171729D01*
X317727Y172057D01*
X317361Y172302D01*
X316929Y172388D01*
X316929Y172388D01*
X315567D01*
Y174069D01*
X316929D01*
X316929Y174069D01*
X317361Y174155D01*
X317727Y174399D01*
X318055Y174727D01*
X318226Y174657D01*
X318898Y174568D01*
X319570Y174657D01*
X320196Y174916D01*
X320734Y175329D01*
X321147Y175867D01*
X321406Y176493D01*
X321495Y177165D01*
X321406Y177838D01*
X321147Y178464D01*
X320734Y179002D01*
X320196Y179414D01*
X319570Y179674D01*
X318898Y179762D01*
D02*
G37*
G36*
X310055Y177181D02*
X306480D01*
Y176325D01*
X304331D01*
X304331Y176325D01*
X303899Y176239D01*
X303533Y175995D01*
X303533Y175994D01*
X294084Y166546D01*
X293840Y166180D01*
X293754Y165748D01*
X293754Y165748D01*
Y154010D01*
X290630Y150886D01*
X290622Y150892D01*
X289562Y151331D01*
X288425Y151480D01*
X287288Y151331D01*
X286228Y150892D01*
X285318Y150194D01*
X284620Y149284D01*
X284181Y148224D01*
X284031Y147087D01*
X284181Y145949D01*
X284620Y144890D01*
X285318Y143980D01*
X286228Y143281D01*
X287288Y142842D01*
X288425Y142693D01*
X289562Y142842D01*
X290622Y143281D01*
X291532Y143980D01*
X292230Y144890D01*
X292669Y145949D01*
X292819Y147087D01*
X292669Y148224D01*
X292230Y149284D01*
X292225Y149291D01*
X295222Y152289D01*
X295722Y152082D01*
Y145979D01*
X290630Y140886D01*
X290622Y140892D01*
X289562Y141331D01*
X288425Y141481D01*
X287288Y141331D01*
X286228Y140892D01*
X285318Y140194D01*
X284620Y139284D01*
X284181Y138224D01*
X284031Y137087D01*
X284181Y135949D01*
X284620Y134890D01*
X285318Y133980D01*
X286228Y133281D01*
X287288Y132842D01*
X288425Y132693D01*
X289562Y132842D01*
X290622Y133281D01*
X291532Y133980D01*
X292230Y134890D01*
X292669Y135949D01*
X292819Y137087D01*
X292669Y138224D01*
X292230Y139284D01*
X292225Y139291D01*
X297191Y144257D01*
X297691Y144050D01*
Y137947D01*
X290630Y130886D01*
X290622Y130892D01*
X289562Y131331D01*
X288425Y131481D01*
X287288Y131331D01*
X286228Y130892D01*
X285318Y130194D01*
X284620Y129283D01*
X284181Y128224D01*
X284031Y127087D01*
X284181Y125949D01*
X284620Y124890D01*
X285318Y123980D01*
X286228Y123281D01*
X287288Y122842D01*
X288425Y122693D01*
X289562Y122842D01*
X290622Y123281D01*
X291532Y123980D01*
X292230Y124890D01*
X292669Y125949D01*
X292819Y127087D01*
X292669Y128224D01*
X292230Y129283D01*
X292225Y129291D01*
X299159Y136226D01*
X299659Y136019D01*
Y129916D01*
X290630Y120886D01*
X290622Y120892D01*
X289562Y121331D01*
X288425Y121481D01*
X287288Y121331D01*
X286228Y120892D01*
X285318Y120194D01*
X284620Y119283D01*
X284181Y118224D01*
X284031Y117087D01*
X284181Y115949D01*
X284620Y114890D01*
X285318Y113980D01*
X286228Y113281D01*
X287288Y112842D01*
X288425Y112693D01*
X289562Y112842D01*
X290622Y113281D01*
X291532Y113980D01*
X292230Y114890D01*
X292669Y115949D01*
X292819Y117087D01*
X292669Y118224D01*
X292230Y119283D01*
X292225Y119291D01*
X301128Y128194D01*
X301628Y127987D01*
Y121885D01*
X290630Y110886D01*
X290622Y110892D01*
X289562Y111331D01*
X288425Y111480D01*
X287288Y111331D01*
X286228Y110892D01*
X285318Y110194D01*
X284620Y109283D01*
X284181Y108224D01*
X284031Y107087D01*
X284181Y105949D01*
X284620Y104890D01*
X285318Y103980D01*
X286228Y103281D01*
X287288Y102842D01*
X288425Y102693D01*
X289562Y102842D01*
X290622Y103281D01*
X291532Y103980D01*
X292230Y104890D01*
X292669Y105949D01*
X292819Y107087D01*
X292669Y108224D01*
X292230Y109283D01*
X292225Y109291D01*
X303096Y120163D01*
X303596Y119956D01*
Y113853D01*
X290630Y100886D01*
X290622Y100892D01*
X289562Y101331D01*
X288425Y101480D01*
X287288Y101331D01*
X286228Y100892D01*
X285318Y100194D01*
X284620Y99284D01*
X284181Y98224D01*
X284031Y97087D01*
X284181Y95949D01*
X284620Y94890D01*
X285318Y93980D01*
X286228Y93281D01*
X286988Y92967D01*
X286889Y92466D01*
X284641D01*
X282225Y94882D01*
X282230Y94890D01*
X282669Y95949D01*
X282819Y97087D01*
X282669Y98224D01*
X282230Y99284D01*
X281532Y100194D01*
X280622Y100892D01*
X279562Y101331D01*
X278425Y101480D01*
X277288Y101331D01*
X276228Y100892D01*
X275318Y100194D01*
X274620Y99284D01*
X274181Y98224D01*
X274031Y97087D01*
X274181Y95949D01*
X274620Y94890D01*
X275318Y93980D01*
X276228Y93281D01*
X277288Y92842D01*
X278425Y92693D01*
X279562Y92842D01*
X280622Y93281D01*
X280629Y93287D01*
X283376Y90541D01*
X283376Y90541D01*
X283742Y90297D01*
X284173Y90211D01*
X284173Y90211D01*
X290551D01*
X290551Y90211D01*
X290983Y90297D01*
X291349Y90541D01*
X309065Y108257D01*
X309065Y108257D01*
X309310Y108624D01*
X309396Y109055D01*
X309396Y109055D01*
Y122031D01*
X309896D01*
Y103617D01*
X294021Y87742D01*
X275270D01*
X272388Y90625D01*
Y99454D01*
X276221Y103287D01*
X276228Y103281D01*
X277288Y102842D01*
X278425Y102693D01*
X279562Y102842D01*
X280622Y103281D01*
X281532Y103980D01*
X282230Y104890D01*
X282669Y105949D01*
X282819Y107087D01*
X282669Y108224D01*
X282230Y109283D01*
X281532Y110194D01*
X280622Y110892D01*
X279562Y111331D01*
X278425Y111480D01*
X277288Y111331D01*
X276228Y110892D01*
X275318Y110194D01*
X274620Y109283D01*
X274181Y108224D01*
X274031Y107087D01*
X274181Y105949D01*
X274620Y104890D01*
X274626Y104882D01*
X270462Y100719D01*
X270218Y100353D01*
X270132Y99921D01*
X270132Y99921D01*
Y90158D01*
X270132Y90158D01*
X270218Y89726D01*
X270462Y89360D01*
X274006Y85817D01*
X274006Y85817D01*
X274372Y85572D01*
X274803Y85486D01*
X274803Y85486D01*
X294488D01*
X294488Y85486D01*
X294920Y85572D01*
X295286Y85817D01*
X311821Y102352D01*
X311821Y102352D01*
X312066Y102718D01*
X312152Y103150D01*
X312152Y103150D01*
Y122031D01*
X315567D01*
Y122570D01*
X316004Y122721D01*
X316343Y122370D01*
X316301Y122047D01*
X316389Y121375D01*
X316649Y120749D01*
X317061Y120211D01*
X317599Y119798D01*
X318226Y119539D01*
X318898Y119450D01*
X319570Y119539D01*
X320196Y119798D01*
X320734Y120211D01*
X321147Y120749D01*
X321406Y121375D01*
X321495Y122047D01*
X321406Y122719D01*
X321147Y123346D01*
X320734Y123884D01*
X320196Y124296D01*
X319570Y124556D01*
X318898Y124644D01*
X318226Y124556D01*
X318055Y124485D01*
X317727Y124813D01*
X317361Y125058D01*
X316929Y125144D01*
X316929Y125144D01*
X315567D01*
Y126825D01*
X316929D01*
X316929Y126825D01*
X317361Y126911D01*
X317727Y127155D01*
X318055Y127483D01*
X318226Y127413D01*
X318898Y127324D01*
X319570Y127413D01*
X320196Y127672D01*
X320734Y128085D01*
X321147Y128623D01*
X321406Y129249D01*
X321495Y129921D01*
X321406Y130593D01*
X321147Y131220D01*
X320734Y131758D01*
X320196Y132170D01*
X319570Y132430D01*
X318898Y132518D01*
X318226Y132430D01*
X317599Y132170D01*
X317061Y131758D01*
X316649Y131220D01*
X316389Y130593D01*
X316301Y129921D01*
X316343Y129598D01*
X316004Y129248D01*
X315567Y129399D01*
Y129937D01*
X311992D01*
Y128499D01*
X311492Y128292D01*
X311034Y128750D01*
X310668Y128995D01*
X310236Y129081D01*
X310055Y129515D01*
Y129937D01*
X306480D01*
Y125969D01*
Y122031D01*
X307140D01*
Y109522D01*
X292959Y95341D01*
X292535Y95625D01*
X292669Y95949D01*
X292819Y97087D01*
X292669Y98224D01*
X292230Y99284D01*
X292225Y99291D01*
X305522Y112588D01*
X305522Y112588D01*
X305767Y112954D01*
X305852Y113386D01*
Y135556D01*
X308075Y137779D01*
X310055D01*
Y141717D01*
Y145685D01*
X306480D01*
Y144829D01*
X304724D01*
X304724Y144829D01*
X304293Y144743D01*
X303927Y144498D01*
X303927Y144498D01*
X302415Y142987D01*
X301915Y143194D01*
Y150714D01*
X305585Y154384D01*
X306480D01*
Y153528D01*
X310055D01*
Y157465D01*
Y161433D01*
X306480D01*
Y160577D01*
X305150D01*
X305150Y160577D01*
X304718Y160491D01*
X304352Y160246D01*
X304352Y160246D01*
X298478Y154373D01*
X297978Y154580D01*
Y164493D01*
X303617Y170132D01*
X306480D01*
Y169276D01*
X310055D01*
Y173213D01*
Y177181D01*
D02*
G37*
G36*
X103150Y176587D02*
X98925D01*
Y172361D01*
X99665Y172459D01*
X100821Y172938D01*
X101813Y173699D01*
X102574Y174691D01*
X103053Y175847D01*
X103150Y176587D01*
D02*
G37*
G36*
X97925D02*
X93700D01*
X93797Y175847D01*
X94276Y174691D01*
X95038Y173699D01*
X96030Y172938D01*
X97185Y172459D01*
X97925Y172361D01*
Y176587D01*
D02*
G37*
G36*
X208661Y167951D02*
X207989Y167863D01*
X207363Y167603D01*
X206825Y167191D01*
X206412Y166653D01*
X206153Y166026D01*
X206064Y165354D01*
X206153Y164682D01*
X206224Y164512D01*
X192116Y150404D01*
X191871Y150038D01*
X191785Y149606D01*
X191785Y149606D01*
Y82330D01*
X137314D01*
X134802Y84842D01*
X134059Y85412D01*
X133193Y85771D01*
X132264Y85893D01*
X131335Y85771D01*
X130469Y85412D01*
X129726Y84842D01*
X129155Y84098D01*
X128796Y83232D01*
X128674Y82303D01*
X128796Y81374D01*
X129155Y80508D01*
X129726Y79765D01*
X133288Y76202D01*
X134032Y75631D01*
X134898Y75273D01*
X135827Y75150D01*
X329380D01*
X330309Y75273D01*
X331175Y75631D01*
X331918Y76202D01*
X350963Y95247D01*
X351534Y95991D01*
X351893Y96856D01*
X352015Y97785D01*
X351893Y98715D01*
X351534Y99580D01*
X350963Y100324D01*
X350220Y100894D01*
X349354Y101253D01*
X348425Y101375D01*
X347496Y101253D01*
X346630Y100894D01*
X345887Y100324D01*
X327893Y82330D01*
X214590D01*
X214471Y83232D01*
X214113Y84098D01*
X213542Y84842D01*
X212799Y85412D01*
X211933Y85771D01*
X211004Y85893D01*
X210075Y85771D01*
X209209Y85412D01*
X208466Y84842D01*
X207895Y84098D01*
X207537Y83232D01*
X207418Y82330D01*
X194041D01*
Y149139D01*
X207819Y162916D01*
X207989Y162846D01*
X208661Y162757D01*
X209334Y162846D01*
X209960Y163105D01*
X210498Y163518D01*
X210911Y164056D01*
X211170Y164682D01*
X211258Y165354D01*
X211170Y166026D01*
X210911Y166653D01*
X210498Y167191D01*
X209960Y167603D01*
X209334Y167863D01*
X208661Y167951D01*
D02*
G37*
G36*
X288425Y171481D02*
X287288Y171331D01*
X286228Y170892D01*
X285318Y170194D01*
X284620Y169283D01*
X284181Y168224D01*
X284031Y167087D01*
X284181Y165949D01*
X284620Y164890D01*
X285318Y163980D01*
X286228Y163281D01*
X287288Y162842D01*
X288425Y162693D01*
X289562Y162842D01*
X290622Y163281D01*
X291532Y163980D01*
X292230Y164890D01*
X292669Y165949D01*
X292819Y167087D01*
X292669Y168224D01*
X292230Y169283D01*
X291532Y170194D01*
X290622Y170892D01*
X289562Y171331D01*
X288425Y171481D01*
D02*
G37*
G36*
X278425D02*
X277288Y171331D01*
X276228Y170892D01*
X275318Y170194D01*
X274620Y169283D01*
X274181Y168224D01*
X274031Y167087D01*
X274181Y165949D01*
X274620Y164890D01*
X275318Y163980D01*
X276228Y163281D01*
X277288Y162842D01*
X278425Y162693D01*
X279562Y162842D01*
X280622Y163281D01*
X281532Y163980D01*
X282230Y164890D01*
X282669Y165949D01*
X282819Y167087D01*
X282669Y168224D01*
X282230Y169283D01*
X281532Y170194D01*
X280622Y170892D01*
X279562Y171331D01*
X278425Y171481D01*
D02*
G37*
G36*
X98425D02*
X97288Y171331D01*
X96228Y170892D01*
X95318Y170194D01*
X94620Y169283D01*
X94181Y168224D01*
X94031Y167087D01*
X94181Y165949D01*
X94620Y164890D01*
X95318Y163980D01*
X96228Y163281D01*
X97288Y162842D01*
X98425Y162693D01*
X99562Y162842D01*
X100622Y163281D01*
X101532Y163980D01*
X102230Y164890D01*
X102669Y165949D01*
X102819Y167087D01*
X102669Y168224D01*
X102230Y169283D01*
X101532Y170194D01*
X100622Y170892D01*
X99562Y171331D01*
X98425Y171481D01*
D02*
G37*
G36*
X318898Y164014D02*
X318226Y163926D01*
X317599Y163666D01*
X317061Y163254D01*
X316649Y162716D01*
X316389Y162090D01*
X316301Y161417D01*
X316343Y161094D01*
X316004Y160744D01*
X315567Y160895D01*
Y161433D01*
X311992D01*
Y157465D01*
Y153528D01*
X315567D01*
Y154066D01*
X316004Y154217D01*
X316343Y153866D01*
X316301Y153543D01*
X316389Y152871D01*
X316649Y152245D01*
X317061Y151707D01*
X317599Y151294D01*
X318226Y151035D01*
X318898Y150946D01*
X319570Y151035D01*
X320196Y151294D01*
X320734Y151707D01*
X321147Y152245D01*
X321406Y152871D01*
X321495Y153543D01*
X321406Y154216D01*
X321147Y154842D01*
X320734Y155380D01*
X320196Y155792D01*
X319570Y156052D01*
X318898Y156140D01*
X318226Y156052D01*
X318055Y155981D01*
X317727Y156309D01*
X317361Y156554D01*
X316929Y156640D01*
X316929Y156640D01*
X315567D01*
Y158321D01*
X316929D01*
X316929Y158321D01*
X317361Y158407D01*
X317727Y158651D01*
X318055Y158979D01*
X318226Y158909D01*
X318898Y158820D01*
X319570Y158909D01*
X320196Y159168D01*
X320734Y159581D01*
X321147Y160119D01*
X321406Y160745D01*
X321495Y161417D01*
X321406Y162090D01*
X321147Y162716D01*
X320734Y163254D01*
X320196Y163666D01*
X319570Y163926D01*
X318898Y164014D01*
D02*
G37*
G36*
X135984Y171151D02*
X135004Y171021D01*
X134090Y170643D01*
X133306Y170041D01*
X132703Y169256D01*
X132325Y168343D01*
X132196Y167362D01*
Y163819D01*
X132325Y162838D01*
X132703Y161925D01*
X133306Y161140D01*
X134090Y160538D01*
X135004Y160160D01*
X135984Y160031D01*
X136965Y160160D01*
X137878Y160538D01*
X138663Y161140D01*
X139265Y161925D01*
X139644Y162838D01*
X139773Y163819D01*
Y167362D01*
X139644Y168343D01*
X139265Y169256D01*
X138663Y170041D01*
X137878Y170643D01*
X136965Y171021D01*
X135984Y171151D01*
D02*
G37*
G36*
X125984D02*
X125004Y171021D01*
X124090Y170643D01*
X123305Y170041D01*
X122704Y169256D01*
X122325Y168343D01*
X122196Y167362D01*
Y163819D01*
X122325Y162838D01*
X122704Y161925D01*
X123305Y161140D01*
X124090Y160538D01*
X125004Y160160D01*
X125984Y160031D01*
X126965Y160160D01*
X127878Y160538D01*
X128663Y161140D01*
X129265Y161925D01*
X129643Y162838D01*
X129773Y163819D01*
Y167362D01*
X129643Y168343D01*
X129265Y169256D01*
X128663Y170041D01*
X127878Y170643D01*
X126965Y171021D01*
X125984Y171151D01*
D02*
G37*
G36*
X115984D02*
X115004Y171021D01*
X114090Y170643D01*
X113305Y170041D01*
X112704Y169256D01*
X112325Y168343D01*
X112196Y167362D01*
Y163819D01*
X112325Y162838D01*
X112704Y161925D01*
X113305Y161140D01*
X114090Y160538D01*
X115004Y160160D01*
X115984Y160031D01*
X116965Y160160D01*
X117878Y160538D01*
X118663Y161140D01*
X119265Y161925D01*
X119643Y162838D01*
X119773Y163819D01*
Y167362D01*
X119643Y168343D01*
X119265Y169256D01*
X118663Y170041D01*
X117878Y170643D01*
X116965Y171021D01*
X115984Y171151D01*
D02*
G37*
G36*
X224903Y160571D02*
X224231Y160483D01*
X223605Y160223D01*
X223067Y159811D01*
X222654Y159273D01*
X222395Y158647D01*
X222306Y157974D01*
X222395Y157302D01*
X222654Y156676D01*
X223067Y156138D01*
X223605Y155725D01*
X224231Y155466D01*
X224903Y155377D01*
X225576Y155466D01*
X226202Y155725D01*
X226740Y156138D01*
X227152Y156676D01*
X227412Y157302D01*
X227501Y157974D01*
X227412Y158647D01*
X227152Y159273D01*
X226740Y159811D01*
X226202Y160223D01*
X225576Y160483D01*
X224903Y160571D01*
D02*
G37*
G36*
X155886Y159703D02*
X155214Y159615D01*
X154587Y159355D01*
X154049Y158943D01*
X153637Y158405D01*
X153377Y157779D01*
X153289Y157106D01*
X153377Y156434D01*
X153637Y155808D01*
X154049Y155270D01*
X154587Y154857D01*
X155214Y154598D01*
X155886Y154509D01*
X156558Y154598D01*
X157184Y154857D01*
X157722Y155270D01*
X158135Y155808D01*
X158394Y156434D01*
X158483Y157106D01*
X158394Y157779D01*
X158135Y158405D01*
X157722Y158943D01*
X157184Y159355D01*
X156558Y159615D01*
X155886Y159703D01*
D02*
G37*
G36*
X288425Y161480D02*
X287288Y161331D01*
X286228Y160892D01*
X285318Y160194D01*
X284620Y159283D01*
X284181Y158224D01*
X284031Y157087D01*
X284181Y155949D01*
X284620Y154890D01*
X285318Y153980D01*
X286228Y153281D01*
X287288Y152842D01*
X288425Y152693D01*
X289562Y152842D01*
X290622Y153281D01*
X291532Y153980D01*
X292230Y154890D01*
X292669Y155949D01*
X292819Y157087D01*
X292669Y158224D01*
X292230Y159283D01*
X291532Y160194D01*
X290622Y160892D01*
X289562Y161331D01*
X288425Y161480D01*
D02*
G37*
G36*
X278425D02*
X277288Y161331D01*
X276228Y160892D01*
X275318Y160194D01*
X274620Y159283D01*
X274181Y158224D01*
X274031Y157087D01*
X274181Y155949D01*
X274620Y154890D01*
X275318Y153980D01*
X276228Y153281D01*
X277288Y152842D01*
X278425Y152693D01*
X279562Y152842D01*
X280622Y153281D01*
X281532Y153980D01*
X282230Y154890D01*
X282669Y155949D01*
X282819Y157087D01*
X282669Y158224D01*
X282230Y159283D01*
X281532Y160194D01*
X280622Y160892D01*
X279562Y161331D01*
X278425Y161480D01*
D02*
G37*
G36*
X17035Y156886D02*
Y149319D01*
X22683D01*
Y150787D01*
X22565Y151987D01*
X22215Y153140D01*
X21647Y154203D01*
X20883Y155134D01*
X19951Y155899D01*
X18888Y156467D01*
X17735Y156817D01*
X17035Y156886D01*
D02*
G37*
G36*
X16035D02*
X15336Y156817D01*
X14183Y156467D01*
X13120Y155899D01*
X12188Y155134D01*
X11424Y154203D01*
X10856Y153140D01*
X10506Y151987D01*
X10388Y150787D01*
Y149319D01*
X16035D01*
Y156886D01*
D02*
G37*
G36*
X318898Y148266D02*
X318226Y148178D01*
X317599Y147918D01*
X317061Y147506D01*
X316649Y146968D01*
X316389Y146341D01*
X316301Y145669D01*
X316343Y145346D01*
X316004Y144996D01*
X315567Y145147D01*
Y145685D01*
X311992D01*
Y141717D01*
Y137779D01*
X315567D01*
Y138318D01*
X316004Y138469D01*
X316343Y138118D01*
X316301Y137795D01*
X316389Y137123D01*
X316649Y136497D01*
X317061Y135959D01*
X317599Y135546D01*
X318226Y135287D01*
X318898Y135198D01*
X319570Y135287D01*
X320196Y135546D01*
X320734Y135959D01*
X321147Y136497D01*
X321406Y137123D01*
X321495Y137795D01*
X321406Y138467D01*
X321147Y139094D01*
X320734Y139632D01*
X320196Y140044D01*
X319570Y140304D01*
X318898Y140392D01*
X318226Y140304D01*
X318055Y140233D01*
X317727Y140561D01*
X317361Y140806D01*
X316929Y140892D01*
X316929Y140892D01*
X315567D01*
Y142573D01*
X316929D01*
X316929Y142573D01*
X317361Y142659D01*
X317727Y142903D01*
X318055Y143231D01*
X318226Y143161D01*
X318898Y143072D01*
X319570Y143161D01*
X320196Y143420D01*
X320734Y143833D01*
X321147Y144371D01*
X321406Y144997D01*
X321495Y145669D01*
X321406Y146341D01*
X321147Y146968D01*
X320734Y147506D01*
X320196Y147918D01*
X319570Y148178D01*
X318898Y148266D01*
D02*
G37*
G36*
X224410Y148266D02*
X223737Y148178D01*
X223111Y147918D01*
X222573Y147506D01*
X222160Y146968D01*
X221901Y146342D01*
X221812Y145669D01*
X221901Y144997D01*
X222160Y144371D01*
X222573Y143833D01*
X223111Y143420D01*
X223737Y143161D01*
X224410Y143072D01*
X225082Y143161D01*
X225708Y143420D01*
X226246Y143833D01*
X226659Y144371D01*
X226918Y144997D01*
X227007Y145669D01*
X226918Y146342D01*
X226659Y146968D01*
X226246Y147506D01*
X225708Y147918D01*
X225082Y148178D01*
X224410Y148266D01*
D02*
G37*
G36*
X278425Y151480D02*
X277288Y151331D01*
X276228Y150892D01*
X275318Y150194D01*
X274620Y149284D01*
X274181Y148224D01*
X274031Y147087D01*
X274181Y145949D01*
X274620Y144890D01*
X275318Y143980D01*
X276228Y143281D01*
X277288Y142842D01*
X278425Y142693D01*
X279562Y142842D01*
X280622Y143281D01*
X281532Y143980D01*
X282230Y144890D01*
X282669Y145949D01*
X282819Y147087D01*
X282669Y148224D01*
X282230Y149284D01*
X281532Y150194D01*
X280622Y150892D01*
X279562Y151331D01*
X278425Y151480D01*
D02*
G37*
G36*
X98425D02*
X97288Y151331D01*
X96228Y150892D01*
X95318Y150194D01*
X94620Y149284D01*
X94181Y148224D01*
X94031Y147087D01*
X94181Y145949D01*
X94620Y144890D01*
X95318Y143980D01*
X96228Y143281D01*
X97288Y142842D01*
X98425Y142693D01*
X99562Y142842D01*
X100622Y143281D01*
X101532Y143980D01*
X102230Y144890D01*
X102669Y145949D01*
X102819Y147087D01*
X102669Y148224D01*
X102230Y149284D01*
X101532Y150194D01*
X100622Y150892D01*
X99562Y151331D01*
X98425Y151480D01*
D02*
G37*
G36*
X16035Y148319D02*
X10388D01*
Y146850D01*
X10506Y145651D01*
X10856Y144498D01*
X11424Y143435D01*
X12188Y142503D01*
X13120Y141739D01*
X14183Y141171D01*
X15336Y140821D01*
X16035Y140752D01*
Y148319D01*
D02*
G37*
G36*
X22683D02*
X17035D01*
Y140752D01*
X17735Y140821D01*
X18888Y141171D01*
X19951Y141739D01*
X20883Y142503D01*
X21647Y143435D01*
X22215Y144498D01*
X22565Y145651D01*
X22683Y146850D01*
Y148319D01*
D02*
G37*
G36*
X267717Y145146D02*
X267044Y145058D01*
X266418Y144798D01*
X265880Y144386D01*
X265468Y143848D01*
X265208Y143221D01*
X265120Y142549D01*
X265208Y141877D01*
X265468Y141251D01*
X265880Y140713D01*
X266418Y140300D01*
X267044Y140041D01*
X267717Y139952D01*
X268389Y140041D01*
X269015Y140300D01*
X269553Y140713D01*
X269966Y141251D01*
X270225Y141877D01*
X270314Y142549D01*
X270225Y143221D01*
X269966Y143848D01*
X269553Y144386D01*
X269015Y144798D01*
X268389Y145058D01*
X267717Y145146D01*
D02*
G37*
G36*
X349410Y140383D02*
X348737Y140294D01*
X348111Y140034D01*
X347573Y139622D01*
X347160Y139084D01*
X346901Y138458D01*
X346812Y137785D01*
X346901Y137113D01*
X347160Y136487D01*
X347573Y135949D01*
X348111Y135536D01*
X348737Y135277D01*
X349410Y135188D01*
X350082Y135277D01*
X350708Y135536D01*
X351246Y135949D01*
X351659Y136487D01*
X351918Y137113D01*
X352007Y137785D01*
X351918Y138458D01*
X351659Y139084D01*
X351246Y139622D01*
X350708Y140034D01*
X350082Y140294D01*
X349410Y140383D01*
D02*
G37*
G36*
X375984Y141741D02*
X375004Y141612D01*
X374090Y141234D01*
X373306Y140631D01*
X372704Y139847D01*
X372325Y138933D01*
X372196Y137953D01*
X372325Y136972D01*
X372704Y136059D01*
X373306Y135274D01*
X374090Y134672D01*
X375004Y134293D01*
X375984Y134165D01*
X376965Y134293D01*
X377878Y134672D01*
X378663Y135274D01*
X379265Y136059D01*
X379644Y136972D01*
X379773Y137953D01*
X379644Y138933D01*
X379265Y139847D01*
X378663Y140631D01*
X377878Y141234D01*
X376965Y141612D01*
X375984Y141741D01*
D02*
G37*
G36*
X278425Y141481D02*
X277288Y141331D01*
X276228Y140892D01*
X275318Y140194D01*
X274620Y139284D01*
X274181Y138224D01*
X274031Y137087D01*
X274181Y135949D01*
X274620Y134890D01*
X275318Y133980D01*
X276228Y133281D01*
X277288Y132842D01*
X278425Y132693D01*
X279562Y132842D01*
X280622Y133281D01*
X281532Y133980D01*
X282230Y134890D01*
X282669Y135949D01*
X282819Y137087D01*
X282669Y138224D01*
X282230Y139284D01*
X281532Y140194D01*
X280622Y140892D01*
X279562Y141331D01*
X278425Y141481D01*
D02*
G37*
G36*
X98425D02*
X97288Y141331D01*
X96228Y140892D01*
X95318Y140194D01*
X94620Y139284D01*
X94181Y138224D01*
X94031Y137087D01*
X94181Y135949D01*
X94620Y134890D01*
X95318Y133980D01*
X96228Y133281D01*
X97288Y132842D01*
X98425Y132693D01*
X99562Y132842D01*
X100622Y133281D01*
X101532Y133980D01*
X102230Y134890D01*
X102669Y135949D01*
X102819Y137087D01*
X102669Y138224D01*
X102230Y139284D01*
X101532Y140194D01*
X100622Y140892D01*
X99562Y141331D01*
X98425Y141481D01*
D02*
G37*
G36*
X47244Y138044D02*
X46161Y137901D01*
X45151Y137483D01*
X44285Y136818D01*
X43619Y135951D01*
X43201Y134941D01*
X43059Y133858D01*
X43201Y132775D01*
X43619Y131766D01*
X44285Y130899D01*
X45151Y130234D01*
X46161Y129815D01*
X47244Y129673D01*
X48327Y129815D01*
X49337Y130234D01*
X50204Y130899D01*
X50869Y131766D01*
X51287Y132775D01*
X51429Y133858D01*
X51287Y134941D01*
X50869Y135951D01*
X50204Y136818D01*
X49337Y137483D01*
X48327Y137901D01*
X47244Y138044D01*
D02*
G37*
G36*
X376484Y132072D02*
Y128453D01*
X380104D01*
X380027Y129036D01*
X379609Y130045D01*
X378944Y130912D01*
X378077Y131577D01*
X377067Y131996D01*
X376484Y132072D01*
D02*
G37*
G36*
X375484D02*
X374901Y131996D01*
X373891Y131577D01*
X373025Y130912D01*
X372360Y130045D01*
X371941Y129036D01*
X371865Y128453D01*
X375484D01*
Y132072D01*
D02*
G37*
G36*
X380104Y127453D02*
X376484D01*
Y123833D01*
X377067Y123910D01*
X378077Y124328D01*
X378944Y124993D01*
X379609Y125860D01*
X380027Y126869D01*
X380104Y127453D01*
D02*
G37*
G36*
X375484D02*
X371865D01*
X371941Y126869D01*
X372360Y125860D01*
X373025Y124993D01*
X373891Y124328D01*
X374901Y123910D01*
X375484Y123833D01*
Y127453D01*
D02*
G37*
G36*
X215453Y128581D02*
X214781Y128493D01*
X214154Y128233D01*
X213616Y127821D01*
X213204Y127283D01*
X212944Y126656D01*
X212856Y125984D01*
X212944Y125312D01*
X213204Y124686D01*
X213616Y124148D01*
X214154Y123735D01*
X214781Y123476D01*
X215453Y123387D01*
X216125Y123476D01*
X216751Y123735D01*
X217289Y124148D01*
X217702Y124686D01*
X217961Y125312D01*
X218050Y125984D01*
X217961Y126656D01*
X217702Y127283D01*
X217289Y127821D01*
X216751Y128233D01*
X216125Y128493D01*
X215453Y128581D01*
D02*
G37*
G36*
X278425Y131481D02*
X277288Y131331D01*
X276228Y130892D01*
X275318Y130194D01*
X274620Y129283D01*
X274181Y128224D01*
X274031Y127087D01*
X274181Y125949D01*
X274620Y124890D01*
X275318Y123980D01*
X276228Y123281D01*
X277288Y122842D01*
X278425Y122693D01*
X279562Y122842D01*
X280622Y123281D01*
X281532Y123980D01*
X282230Y124890D01*
X282669Y125949D01*
X282819Y127087D01*
X282669Y128224D01*
X282230Y129283D01*
X281532Y130194D01*
X280622Y130892D01*
X279562Y131331D01*
X278425Y131481D01*
D02*
G37*
G36*
X98425D02*
X97288Y131331D01*
X96228Y130892D01*
X95318Y130194D01*
X94620Y129283D01*
X94181Y128224D01*
X94031Y127087D01*
X94181Y125949D01*
X94620Y124890D01*
X95318Y123980D01*
X96228Y123281D01*
X97288Y122842D01*
X98425Y122693D01*
X99562Y122842D01*
X100622Y123281D01*
X101532Y123980D01*
X102230Y124890D01*
X102669Y125949D01*
X102819Y127087D01*
X102669Y128224D01*
X102230Y129283D01*
X101532Y130194D01*
X100622Y130892D01*
X99562Y131331D01*
X98425Y131481D01*
D02*
G37*
G36*
X17035Y126965D02*
Y119398D01*
X22683D01*
Y120866D01*
X22565Y122065D01*
X22215Y123219D01*
X21647Y124282D01*
X20883Y125213D01*
X19951Y125978D01*
X18888Y126546D01*
X17735Y126896D01*
X17035Y126965D01*
D02*
G37*
G36*
X16035D02*
X15336Y126896D01*
X14183Y126546D01*
X13120Y125978D01*
X12188Y125213D01*
X11424Y124282D01*
X10856Y123219D01*
X10506Y122065D01*
X10388Y120866D01*
Y119398D01*
X16035D01*
Y126965D01*
D02*
G37*
G36*
X155886Y124270D02*
X155214Y124182D01*
X154587Y123922D01*
X154050Y123510D01*
X153637Y122972D01*
X153377Y122345D01*
X153289Y121673D01*
X153377Y121001D01*
X153637Y120375D01*
X154050Y119837D01*
X154587Y119424D01*
X155214Y119165D01*
X155886Y119076D01*
X156558Y119165D01*
X157184Y119424D01*
X157722Y119837D01*
X158135Y120375D01*
X158394Y121001D01*
X158483Y121673D01*
X158394Y122345D01*
X158135Y122972D01*
X157722Y123510D01*
X157184Y123922D01*
X156558Y124182D01*
X155886Y124270D01*
D02*
G37*
G36*
X278425Y121481D02*
X277288Y121331D01*
X276228Y120892D01*
X275318Y120194D01*
X274620Y119283D01*
X274181Y118224D01*
X274031Y117087D01*
X274181Y115949D01*
X274620Y114890D01*
X275318Y113980D01*
X276228Y113281D01*
X277288Y112842D01*
X278425Y112693D01*
X279562Y112842D01*
X280622Y113281D01*
X281532Y113980D01*
X282230Y114890D01*
X282669Y115949D01*
X282819Y117087D01*
X282669Y118224D01*
X282230Y119283D01*
X281532Y120194D01*
X280622Y120892D01*
X279562Y121331D01*
X278425Y121481D01*
D02*
G37*
G36*
X98425D02*
X97288Y121331D01*
X96228Y120892D01*
X95318Y120194D01*
X94620Y119283D01*
X94181Y118224D01*
X94031Y117087D01*
X94181Y115949D01*
X94620Y114890D01*
X95318Y113980D01*
X96228Y113281D01*
X97288Y112842D01*
X98425Y112693D01*
X99562Y112842D01*
X100622Y113281D01*
X101532Y113980D01*
X102230Y114890D01*
X102669Y115949D01*
X102819Y117087D01*
X102669Y118224D01*
X102230Y119283D01*
X101532Y120194D01*
X100622Y120892D01*
X99562Y121331D01*
X98425Y121481D01*
D02*
G37*
G36*
X22683Y118398D02*
X17035D01*
Y110831D01*
X17735Y110900D01*
X18888Y111249D01*
X19951Y111818D01*
X20883Y112582D01*
X21647Y113514D01*
X22215Y114576D01*
X22565Y115730D01*
X22683Y116929D01*
Y118398D01*
D02*
G37*
G36*
X16035D02*
X10388D01*
Y116929D01*
X10506Y115730D01*
X10856Y114576D01*
X11424Y113514D01*
X12188Y112582D01*
X13120Y111818D01*
X14183Y111249D01*
X15336Y110900D01*
X16035Y110831D01*
Y118398D01*
D02*
G37*
G36*
X206319Y145696D02*
X205390Y145574D01*
X204524Y145215D01*
X203781Y144645D01*
X203210Y143901D01*
X202851Y143035D01*
X202729Y142106D01*
Y106673D01*
X202851Y105744D01*
X203210Y104878D01*
X203781Y104135D01*
Y104135D01*
X204524Y103564D01*
X205390Y103206D01*
X206319Y103084D01*
X207248Y103206D01*
X208114Y103564D01*
X208857Y104135D01*
X209428Y104878D01*
X209786Y105744D01*
X209909Y106673D01*
Y142106D01*
X209786Y143035D01*
X209428Y143901D01*
X208857Y144645D01*
X208114Y145215D01*
X207248Y145574D01*
X206319Y145696D01*
D02*
G37*
G36*
X98425Y111480D02*
X97288Y111331D01*
X96228Y110892D01*
X95318Y110194D01*
X94620Y109283D01*
X94181Y108224D01*
X94031Y107087D01*
X94181Y105949D01*
X94620Y104890D01*
X95318Y103980D01*
X96228Y103281D01*
X97288Y102842D01*
X98425Y102693D01*
X99562Y102842D01*
X100622Y103281D01*
X101532Y103980D01*
X102230Y104890D01*
X102669Y105949D01*
X102819Y107087D01*
X102669Y108224D01*
X102230Y109283D01*
X101532Y110194D01*
X100622Y110892D01*
X99562Y111331D01*
X98425Y111480D01*
D02*
G37*
G36*
X375984Y101741D02*
X375004Y101612D01*
X374090Y101233D01*
X373306Y100631D01*
X372704Y99847D01*
X372325Y98933D01*
X372196Y97953D01*
X372325Y96972D01*
X372704Y96059D01*
X373306Y95274D01*
X374090Y94672D01*
X375004Y94293D01*
X375984Y94164D01*
X376965Y94293D01*
X377878Y94672D01*
X378663Y95274D01*
X379265Y96059D01*
X379644Y96972D01*
X379773Y97953D01*
X379644Y98933D01*
X379265Y99847D01*
X378663Y100631D01*
X377878Y101233D01*
X376965Y101612D01*
X375984Y101741D01*
D02*
G37*
G36*
X98425Y101480D02*
X97288Y101331D01*
X96228Y100892D01*
X95318Y100194D01*
X94620Y99284D01*
X94181Y98224D01*
X94031Y97087D01*
X94181Y95949D01*
X94620Y94890D01*
X95318Y93980D01*
X96228Y93281D01*
X97288Y92842D01*
X98425Y92693D01*
X99562Y92842D01*
X100622Y93281D01*
X101532Y93980D01*
X102230Y94890D01*
X102669Y95949D01*
X102819Y97087D01*
X102669Y98224D01*
X102230Y99284D01*
X101532Y100194D01*
X100622Y100892D01*
X99562Y101331D01*
X98425Y101480D01*
D02*
G37*
G36*
X376484Y92072D02*
Y88453D01*
X380104D01*
X380027Y89036D01*
X379609Y90045D01*
X378944Y90912D01*
X378077Y91577D01*
X377067Y91996D01*
X376484Y92072D01*
D02*
G37*
G36*
X375484D02*
X374901Y91996D01*
X373891Y91577D01*
X373025Y90912D01*
X372360Y90045D01*
X371941Y89036D01*
X371865Y88453D01*
X375484D01*
Y92072D01*
D02*
G37*
G36*
X16248Y97451D02*
Y87114D01*
X26585D01*
X26490Y88316D01*
X26092Y89975D01*
X25439Y91552D01*
X24547Y93007D01*
X23439Y94305D01*
X22141Y95413D01*
X20686Y96305D01*
X19109Y96958D01*
X17449Y97356D01*
X16248Y97451D01*
D02*
G37*
G36*
X380104Y87453D02*
X376484D01*
Y83833D01*
X377067Y83910D01*
X378077Y84328D01*
X378944Y84993D01*
X379609Y85860D01*
X380027Y86870D01*
X380104Y87453D01*
D02*
G37*
G36*
X375484D02*
X371865D01*
X371941Y86870D01*
X372360Y85860D01*
X373025Y84993D01*
X373891Y84328D01*
X374901Y83910D01*
X375484Y83833D01*
Y87453D01*
D02*
G37*
G36*
X26585Y86114D02*
X16248D01*
Y75778D01*
X17449Y75872D01*
X19109Y76270D01*
X20686Y76924D01*
X22141Y77815D01*
X23439Y78924D01*
X24547Y80221D01*
X25439Y81677D01*
X26092Y83253D01*
X26490Y84913D01*
X26585Y86114D01*
D02*
G37*
G36*
X375984Y81741D02*
X375004Y81612D01*
X374090Y81234D01*
X373306Y80632D01*
X372704Y79847D01*
X372325Y78933D01*
X372196Y77953D01*
X372325Y76972D01*
X372704Y76059D01*
X373306Y75274D01*
X374090Y74672D01*
X375004Y74294D01*
X375984Y74164D01*
X376965Y74294D01*
X377878Y74672D01*
X378663Y75274D01*
X379265Y76059D01*
X379644Y76972D01*
X379773Y77953D01*
X379644Y78933D01*
X379265Y79847D01*
X378663Y80632D01*
X377878Y81234D01*
X376965Y81612D01*
X375984Y81741D01*
D02*
G37*
G36*
X17035Y54524D02*
Y46957D01*
X22683D01*
Y48425D01*
X22565Y49624D01*
X22215Y50778D01*
X21647Y51841D01*
X20883Y52772D01*
X19951Y53537D01*
X18888Y54105D01*
X17735Y54455D01*
X17035Y54524D01*
D02*
G37*
G36*
X16035D02*
X15336Y54455D01*
X14183Y54105D01*
X13120Y53537D01*
X12188Y52772D01*
X11424Y51841D01*
X10856Y50778D01*
X10506Y49624D01*
X10388Y48425D01*
Y46957D01*
X16035D01*
Y54524D01*
D02*
G37*
G36*
X251969Y51429D02*
X250885Y51287D01*
X249876Y50869D01*
X249009Y50204D01*
X248344Y49337D01*
X247926Y48327D01*
X247783Y47244D01*
X247926Y46161D01*
X248344Y45151D01*
X249009Y44285D01*
X249876Y43619D01*
X250885Y43201D01*
X251969Y43059D01*
X253052Y43201D01*
X254061Y43619D01*
X254928Y44285D01*
X255593Y45151D01*
X256011Y46161D01*
X256154Y47244D01*
X256011Y48327D01*
X255593Y49337D01*
X254928Y50204D01*
X254061Y50869D01*
X253052Y51287D01*
X251969Y51429D01*
D02*
G37*
G36*
X141732D02*
X140649Y51287D01*
X139640Y50869D01*
X138773Y50204D01*
X138108Y49337D01*
X137689Y48327D01*
X137547Y47244D01*
X137689Y46161D01*
X138108Y45151D01*
X138773Y44285D01*
X139640Y43619D01*
X140649Y43201D01*
X141732Y43059D01*
X142815Y43201D01*
X143825Y43619D01*
X144692Y44285D01*
X145357Y45151D01*
X145775Y46161D01*
X145918Y47244D01*
X145775Y48327D01*
X145357Y49337D01*
X144692Y50204D01*
X143825Y50869D01*
X142815Y51287D01*
X141732Y51429D01*
D02*
G37*
G36*
X230472Y52804D02*
X229492Y52675D01*
X228578Y52297D01*
X227794Y51695D01*
X227192Y50910D01*
X226813Y49996D01*
X226684Y49016D01*
Y45472D01*
X226813Y44492D01*
X227192Y43578D01*
X227794Y42794D01*
X228578Y42192D01*
X229492Y41813D01*
X230472Y41684D01*
X231453Y41813D01*
X232367Y42192D01*
X233151Y42794D01*
X233753Y43578D01*
X234132Y44492D01*
X234261Y45472D01*
Y49016D01*
X234132Y49996D01*
X233753Y50910D01*
X233151Y51695D01*
X232367Y52297D01*
X231453Y52675D01*
X230472Y52804D01*
D02*
G37*
G36*
X220472D02*
X219492Y52675D01*
X218578Y52297D01*
X217794Y51695D01*
X217192Y50910D01*
X216813Y49996D01*
X216684Y49016D01*
Y45472D01*
X216813Y44492D01*
X217192Y43578D01*
X217794Y42794D01*
X218578Y42192D01*
X219492Y41813D01*
X220472Y41684D01*
X221453Y41813D01*
X222367Y42192D01*
X223151Y42794D01*
X223753Y43578D01*
X224132Y44492D01*
X224261Y45472D01*
Y49016D01*
X224132Y49996D01*
X223753Y50910D01*
X223151Y51695D01*
X222367Y52297D01*
X221453Y52675D01*
X220472Y52804D01*
D02*
G37*
G36*
X210472D02*
X209492Y52675D01*
X208578Y52297D01*
X207794Y51695D01*
X207192Y50910D01*
X206813Y49996D01*
X206684Y49016D01*
Y45472D01*
X206813Y44492D01*
X207192Y43578D01*
X207794Y42794D01*
X208578Y42192D01*
X209492Y41813D01*
X210472Y41684D01*
X211453Y41813D01*
X212367Y42192D01*
X213151Y42794D01*
X213753Y43578D01*
X214132Y44492D01*
X214261Y45472D01*
Y49016D01*
X214132Y49996D01*
X213753Y50910D01*
X213151Y51695D01*
X212367Y52297D01*
X211453Y52675D01*
X210472Y52804D01*
D02*
G37*
G36*
X187165D02*
X186185Y52675D01*
X185271Y52297D01*
X184487Y51695D01*
X183885Y50910D01*
X183506Y49996D01*
X183377Y49016D01*
Y45472D01*
X183506Y44492D01*
X183885Y43578D01*
X184487Y42794D01*
X185271Y42192D01*
X186185Y41813D01*
X187165Y41684D01*
X188146Y41813D01*
X189059Y42192D01*
X189844Y42794D01*
X190446Y43578D01*
X190825Y44492D01*
X190954Y45472D01*
Y49016D01*
X190825Y49996D01*
X190446Y50910D01*
X189844Y51695D01*
X189059Y52297D01*
X188146Y52675D01*
X187165Y52804D01*
D02*
G37*
G36*
X177165D02*
X176185Y52675D01*
X175271Y52297D01*
X174487Y51695D01*
X173885Y50910D01*
X173506Y49996D01*
X173377Y49016D01*
Y45472D01*
X173506Y44492D01*
X173885Y43578D01*
X174487Y42794D01*
X175271Y42192D01*
X176185Y41813D01*
X177165Y41684D01*
X178146Y41813D01*
X179060Y42192D01*
X179844Y42794D01*
X180446Y43578D01*
X180825Y44492D01*
X180954Y45472D01*
Y49016D01*
X180825Y49996D01*
X180446Y50910D01*
X179844Y51695D01*
X179060Y52297D01*
X178146Y52675D01*
X177165Y52804D01*
D02*
G37*
G36*
X167165D02*
X166185Y52675D01*
X165271Y52297D01*
X164487Y51695D01*
X163885Y50910D01*
X163506Y49996D01*
X163377Y49016D01*
Y45472D01*
X163506Y44492D01*
X163885Y43578D01*
X164487Y42794D01*
X165271Y42192D01*
X166185Y41813D01*
X167165Y41684D01*
X168146Y41813D01*
X169060Y42192D01*
X169844Y42794D01*
X170446Y43578D01*
X170825Y44492D01*
X170954Y45472D01*
Y49016D01*
X170825Y49996D01*
X170446Y50910D01*
X169844Y51695D01*
X169060Y52297D01*
X168146Y52675D01*
X167165Y52804D01*
D02*
G37*
G36*
X16035Y45957D02*
X10388D01*
Y44488D01*
X10506Y43289D01*
X10856Y42136D01*
X11424Y41073D01*
X12188Y40141D01*
X13120Y39377D01*
X14183Y38808D01*
X15336Y38459D01*
X16035Y38390D01*
Y45957D01*
D02*
G37*
G36*
X22683D02*
X17035D01*
Y38390D01*
X17735Y38459D01*
X18888Y38808D01*
X19951Y39377D01*
X20883Y40141D01*
X21647Y41073D01*
X22215Y42136D01*
X22565Y43289D01*
X22683Y44488D01*
Y45957D01*
D02*
G37*
G36*
X47244Y35682D02*
X46161Y35539D01*
X45151Y35121D01*
X44285Y34456D01*
X43619Y33589D01*
X43201Y32579D01*
X43059Y31496D01*
X43201Y30413D01*
X43619Y29403D01*
X44285Y28536D01*
X45151Y27871D01*
X46161Y27453D01*
X47244Y27311D01*
X48327Y27453D01*
X49337Y27871D01*
X50204Y28536D01*
X50869Y29403D01*
X51287Y30413D01*
X51429Y31496D01*
X51287Y32579D01*
X50869Y33589D01*
X50204Y34456D01*
X49337Y35121D01*
X48327Y35539D01*
X47244Y35682D01*
D02*
G37*
G36*
X17035Y24602D02*
Y17035D01*
X22683D01*
Y18504D01*
X22565Y19703D01*
X22215Y20857D01*
X21647Y21919D01*
X20883Y22851D01*
X19951Y23616D01*
X18888Y24184D01*
X17735Y24533D01*
X17035Y24602D01*
D02*
G37*
G36*
X16035D02*
X15336Y24533D01*
X14183Y24184D01*
X13120Y23616D01*
X12188Y22851D01*
X11424Y21919D01*
X10856Y20857D01*
X10506Y19703D01*
X10388Y18504D01*
Y17035D01*
X16035D01*
Y24602D01*
D02*
G37*
G36*
X268898Y22683D02*
X267429D01*
Y17035D01*
X274996D01*
X274927Y17735D01*
X274577Y18888D01*
X274009Y19951D01*
X273245Y20883D01*
X272313Y21647D01*
X271250Y22215D01*
X270097Y22565D01*
X268898Y22683D01*
D02*
G37*
G36*
X128740D02*
X127272D01*
Y17035D01*
X134839D01*
X134770Y17735D01*
X134420Y18888D01*
X133852Y19951D01*
X133087Y20883D01*
X132156Y21647D01*
X131093Y22215D01*
X129939Y22565D01*
X128740Y22683D01*
D02*
G37*
G36*
X158661D02*
X157193D01*
Y17035D01*
X164760D01*
X164691Y17735D01*
X164341Y18888D01*
X163773Y19951D01*
X163008Y20883D01*
X162077Y21647D01*
X161014Y22215D01*
X159861Y22565D01*
X158661Y22683D01*
D02*
G37*
G36*
X238976D02*
X237508D01*
Y17035D01*
X245075D01*
X245006Y17735D01*
X244656Y18888D01*
X244088Y19951D01*
X243323Y20883D01*
X242392Y21647D01*
X241329Y22215D01*
X240176Y22565D01*
X238976Y22683D01*
D02*
G37*
G36*
X156193D02*
X154724D01*
X153525Y22565D01*
X152372Y22215D01*
X151309Y21647D01*
X150377Y20883D01*
X149613Y19951D01*
X149045Y18888D01*
X148695Y17735D01*
X148626Y17035D01*
X156193D01*
Y22683D01*
D02*
G37*
G36*
X236508D02*
X235039D01*
X233840Y22565D01*
X232687Y22215D01*
X231624Y21647D01*
X230692Y20883D01*
X229928Y19951D01*
X229360Y18888D01*
X229010Y17735D01*
X228941Y17035D01*
X236508D01*
Y22683D01*
D02*
G37*
G36*
X266429D02*
X264961D01*
X263761Y22565D01*
X262608Y22215D01*
X261545Y21647D01*
X260613Y20883D01*
X259849Y19951D01*
X259281Y18888D01*
X258931Y17735D01*
X258862Y17035D01*
X266429D01*
Y22683D01*
D02*
G37*
G36*
X126272D02*
X124803D01*
X123604Y22565D01*
X122450Y22215D01*
X121388Y21647D01*
X120456Y20883D01*
X119692Y19951D01*
X119123Y18888D01*
X118774Y17735D01*
X118705Y17035D01*
X126272D01*
Y22683D01*
D02*
G37*
G36*
X377453Y26585D02*
X376251Y26490D01*
X374592Y26092D01*
X373015Y25439D01*
X371560Y24547D01*
X370262Y23439D01*
X369154Y22141D01*
X368262Y20686D01*
X367609Y19109D01*
X367211Y17449D01*
X367116Y16248D01*
X377453D01*
Y26585D01*
D02*
G37*
G36*
X274996Y16035D02*
X267429D01*
Y10388D01*
X268898D01*
X270097Y10506D01*
X271250Y10856D01*
X272313Y11424D01*
X273245Y12188D01*
X274009Y13120D01*
X274577Y14183D01*
X274927Y15336D01*
X274996Y16035D01*
D02*
G37*
G36*
X266429D02*
X258862D01*
X258931Y15336D01*
X259281Y14183D01*
X259849Y13120D01*
X260613Y12188D01*
X261545Y11424D01*
X262608Y10856D01*
X263761Y10506D01*
X264961Y10388D01*
X266429D01*
Y16035D01*
D02*
G37*
G36*
X245075D02*
X237508D01*
Y10388D01*
X238976D01*
X240176Y10506D01*
X241329Y10856D01*
X242392Y11424D01*
X243323Y12188D01*
X244088Y13120D01*
X244656Y14183D01*
X245006Y15336D01*
X245075Y16035D01*
D02*
G37*
G36*
X236508D02*
X228941D01*
X229010Y15336D01*
X229360Y14183D01*
X229928Y13120D01*
X230692Y12188D01*
X231624Y11424D01*
X232687Y10856D01*
X233840Y10506D01*
X235039Y10388D01*
X236508D01*
Y16035D01*
D02*
G37*
G36*
X164760D02*
X157193D01*
Y10388D01*
X158661D01*
X159861Y10506D01*
X161014Y10856D01*
X162077Y11424D01*
X163008Y12188D01*
X163773Y13120D01*
X164341Y14183D01*
X164691Y15336D01*
X164760Y16035D01*
D02*
G37*
G36*
X156193D02*
X148626D01*
X148695Y15336D01*
X149045Y14183D01*
X149613Y13120D01*
X150377Y12188D01*
X151309Y11424D01*
X152372Y10856D01*
X153525Y10506D01*
X154724Y10388D01*
X156193D01*
Y16035D01*
D02*
G37*
G36*
X134839D02*
X127272D01*
Y10388D01*
X128740D01*
X129939Y10506D01*
X131093Y10856D01*
X132156Y11424D01*
X133087Y12188D01*
X133852Y13120D01*
X134420Y14183D01*
X134770Y15336D01*
X134839Y16035D01*
D02*
G37*
G36*
X126272D02*
X118705D01*
X118774Y15336D01*
X119123Y14183D01*
X119692Y13120D01*
X120456Y12188D01*
X121388Y11424D01*
X122450Y10856D01*
X123604Y10506D01*
X124803Y10388D01*
X126272D01*
Y16035D01*
D02*
G37*
G36*
X16035Y16035D02*
X10388D01*
Y14567D01*
X10506Y13368D01*
X10856Y12214D01*
X11424Y11151D01*
X12188Y10220D01*
X13120Y9455D01*
X14183Y8887D01*
X15336Y8537D01*
X16035Y8468D01*
Y16035D01*
D02*
G37*
G36*
X22683D02*
X17035D01*
Y8468D01*
X17735Y8537D01*
X18888Y8887D01*
X19951Y9455D01*
X20883Y10220D01*
X21647Y11151D01*
X22215Y12214D01*
X22565Y13368D01*
X22683Y14567D01*
Y16035D01*
D02*
G37*
G36*
X31996Y230705D02*
Y225894D01*
X36807D01*
X36690Y226785D01*
X36152Y228082D01*
X35298Y229196D01*
X34184Y230050D01*
X32888Y230587D01*
X31996Y230705D01*
D02*
G37*
G36*
X30996D02*
X30105Y230587D01*
X28808Y230050D01*
X27694Y229196D01*
X26840Y228082D01*
X26303Y226785D01*
X26185Y225894D01*
X30996D01*
Y230705D01*
D02*
G37*
G36*
X17122Y227256D02*
X12311D01*
Y222445D01*
X13203Y222562D01*
X14499Y223099D01*
X15613Y223954D01*
X16467Y225067D01*
X17005Y226364D01*
X17122Y227256D01*
D02*
G37*
G36*
X30996Y224894D02*
X26185D01*
X26303Y224002D01*
X26840Y222705D01*
X27694Y221592D01*
X28808Y220737D01*
X30105Y220200D01*
X30996Y220083D01*
Y224894D01*
D02*
G37*
G36*
X36807D02*
X31996D01*
Y220083D01*
X32888Y220200D01*
X34184Y220737D01*
X35298Y221592D01*
X36152Y222705D01*
X36690Y224002D01*
X36807Y224894D01*
D02*
G37*
G36*
X31996Y173618D02*
Y168807D01*
X36807D01*
X36690Y169699D01*
X36152Y170995D01*
X35298Y172109D01*
X34184Y172963D01*
X32888Y173501D01*
X31996Y173618D01*
D02*
G37*
G36*
X30996D02*
X30105Y173501D01*
X28808Y172963D01*
X27694Y172109D01*
X26840Y170995D01*
X26303Y169699D01*
X26185Y168807D01*
X30996D01*
Y173618D01*
D02*
G37*
G36*
X12311Y171256D02*
Y166445D01*
X17122D01*
X17005Y167336D01*
X16467Y168633D01*
X15613Y169747D01*
X14499Y170601D01*
X13203Y171138D01*
X12311Y171256D01*
D02*
G37*
G36*
X30996Y167807D02*
X26185D01*
X26303Y166916D01*
X26840Y165619D01*
X27694Y164505D01*
X28808Y163651D01*
X30105Y163114D01*
X30996Y162996D01*
Y167807D01*
D02*
G37*
G36*
X36807D02*
X31996D01*
Y162996D01*
X32888Y163114D01*
X34184Y163651D01*
X35298Y164505D01*
X36152Y165619D01*
X36690Y166916D01*
X36807Y167807D01*
D02*
G37*
%LPD*%
D11*
X208661Y212598D02*
X265748D01*
D13*
X164134Y94488D02*
X169291Y99646D01*
X129921Y66929D02*
X182323D01*
X182697Y67303D01*
X122047Y74803D02*
X129921Y66929D01*
X122047Y74803D02*
Y86614D01*
X129921Y94488D01*
X164134D01*
X192913Y78740D02*
Y149606D01*
X169291Y141732D02*
X208661Y181102D01*
X169291Y99646D02*
Y141732D01*
X291339Y175197D02*
X306890Y190748D01*
Y196850D01*
X285079Y175197D02*
X291339D01*
X265748Y194528D02*
X285079Y175197D01*
X192913Y149606D02*
X208661Y165354D01*
X188602Y245689D02*
X189164Y245127D01*
X191881D01*
X208661Y228346D01*
X173602Y258248D02*
X194508D01*
X208661Y244094D01*
X214921Y190591D02*
X215384D01*
X208661Y196850D02*
X214921Y190591D01*
X314961Y196653D02*
X318898Y192717D01*
X314961Y196653D02*
Y196850D01*
X318898Y188976D02*
Y192717D01*
X314961Y196850D02*
X315158D01*
X318898Y122047D02*
X318898D01*
X316929Y124016D02*
X318898Y122047D01*
X313779Y124016D02*
X316929D01*
X318898Y129921D02*
X318898D01*
X316929Y127953D02*
X318898Y129921D01*
X313779Y127953D02*
X316929D01*
X318898Y137795D02*
X318898D01*
X316929Y139764D02*
X318898Y137795D01*
X313779Y139764D02*
X316929D01*
X318898Y145669D02*
X318898D01*
X316929Y143701D02*
X318898Y145669D01*
X313779Y143701D02*
X316929D01*
X318898Y161417D02*
X318898D01*
X316929Y159449D02*
X318898Y161417D01*
X313779Y159449D02*
X316929D01*
X318898Y153543D02*
X318898D01*
X316929Y155512D02*
X318898Y153543D01*
X313779Y155512D02*
X316929D01*
X318898Y169291D02*
X318898D01*
X316929Y171260D02*
X318898Y169291D01*
X313779Y171260D02*
X316929D01*
X313779Y175197D02*
X316929D01*
X318898Y177165D01*
X318898D01*
X271260Y90158D02*
Y99921D01*
X278425Y107087D01*
X271260Y90158D02*
X274803Y86614D01*
X294488D01*
X311024Y103150D01*
Y127165D01*
X310236Y127953D02*
X311024Y127165D01*
X308268Y127953D02*
X310236D01*
X308268Y127953D02*
X308268Y127953D01*
X290551Y91339D02*
X308268Y109055D01*
Y124016D01*
X284173Y91339D02*
X290551D01*
X278425Y97087D02*
X284173Y91339D01*
X304724Y113386D02*
Y136024D01*
X308268Y139567D01*
Y139764D01*
X288425Y97087D02*
X304724Y113386D01*
X304724Y143701D02*
X308268D01*
X302756Y141732D02*
X304724Y143701D01*
X302756Y121417D02*
Y141732D01*
X288425Y107087D02*
X302756Y121417D01*
X300787Y151181D02*
X305118Y155512D01*
X300787Y129449D02*
Y151181D01*
X288425Y117087D02*
X300787Y129449D01*
X298819Y153118D02*
X305150Y159449D01*
X298819Y137480D02*
Y153118D01*
X288425Y127087D02*
X298819Y137480D01*
X296850Y164961D02*
X303150Y171260D01*
X296850Y145512D02*
Y164961D01*
X288425Y137087D02*
X296850Y145512D01*
X294882Y165748D02*
X304331Y175197D01*
X294882Y153543D02*
Y165748D01*
X288425Y147087D02*
X294882Y153543D01*
X305118Y155512D02*
X308268D01*
X305150Y159449D02*
X308268D01*
X303150Y171260D02*
X308268D01*
X304331Y175197D02*
X308268D01*
D15*
Y143701D02*
D03*
Y139764D02*
D03*
X313779Y143701D02*
D03*
Y139764D02*
D03*
Y155512D02*
D03*
Y159449D02*
D03*
X308268Y155512D02*
D03*
Y159449D02*
D03*
Y175197D02*
D03*
Y171260D02*
D03*
X313779Y175197D02*
D03*
Y171260D02*
D03*
Y124016D02*
D03*
Y127953D02*
D03*
X308268Y124016D02*
D03*
Y127953D02*
D03*
D16*
X315158Y196850D02*
D03*
X306890D02*
D03*
D17*
X208661Y212598D02*
D03*
Y228346D02*
D03*
Y196850D02*
D03*
Y244094D02*
D03*
Y165354D02*
D03*
Y181102D02*
D03*
X132264Y82303D02*
D03*
X182697Y67303D02*
D03*
X318898Y188976D02*
D03*
X318898Y122047D02*
D03*
Y129921D02*
D03*
Y137795D02*
D03*
Y145669D02*
D03*
Y161417D02*
D03*
Y153543D02*
D03*
Y169291D02*
D03*
Y177165D02*
D03*
X137795Y201024D02*
D03*
X255906Y291339D02*
D03*
Y255906D02*
D03*
Y185039D02*
D03*
Y220472D02*
D03*
X215384Y190591D02*
D03*
X224410Y145669D02*
D03*
X224903Y157974D02*
D03*
X215453Y125984D02*
D03*
X137146Y299449D02*
D03*
X114823Y185276D02*
D03*
X114173Y278150D02*
D03*
X349410Y238494D02*
D03*
X348425Y77785D02*
D03*
Y97785D02*
D03*
X349410Y137785D02*
D03*
Y208494D02*
D03*
X188602Y245689D02*
D03*
Y316555D02*
D03*
X173602Y258248D02*
D03*
Y187382D02*
D03*
X261437Y67303D02*
D03*
X155886Y121673D02*
D03*
X211004Y82303D02*
D03*
X206319Y106673D02*
D03*
X206319Y142106D02*
D03*
X155886Y157106D02*
D03*
X267717Y142549D02*
D03*
X214567Y296890D02*
D03*
Y261457D02*
D03*
Y226024D02*
D03*
X246417Y346102D02*
D03*
X265748Y194528D02*
D03*
X265748Y229961D02*
D03*
Y265394D02*
D03*
X265748Y300827D02*
D03*
D18*
X220472Y47244D02*
D03*
X230472D02*
D03*
X210472D02*
D03*
X177165D02*
D03*
X167165D02*
D03*
X187165D02*
D03*
X135984Y319134D02*
D03*
X115984D02*
D03*
X125984D02*
D03*
X135984Y256142D02*
D03*
X115984D02*
D03*
X125984D02*
D03*
X135984Y228583D02*
D03*
X115984D02*
D03*
X125984D02*
D03*
X135984Y165591D02*
D03*
X115984D02*
D03*
X125984D02*
D03*
D19*
X11811Y165945D02*
D03*
Y227756D02*
D03*
X31496Y168307D02*
D03*
Y225394D02*
D03*
D20*
X251969Y47244D02*
D03*
X47244Y259842D02*
D03*
Y362205D02*
D03*
Y31496D02*
D03*
Y133858D02*
D03*
X141732Y47244D02*
D03*
D21*
X266929Y16535D02*
D03*
X237008D02*
D03*
X156693D02*
D03*
X126772D02*
D03*
D22*
X16535Y244882D02*
D03*
Y274803D02*
D03*
Y347244D02*
D03*
Y377165D02*
D03*
Y16535D02*
D03*
Y46457D02*
D03*
Y118898D02*
D03*
Y148819D02*
D03*
D23*
X278425Y97087D02*
D03*
X98425Y227087D02*
D03*
Y217087D02*
D03*
Y197087D02*
D03*
Y207087D02*
D03*
Y177087D02*
D03*
Y187087D02*
D03*
Y167087D02*
D03*
Y127087D02*
D03*
Y147087D02*
D03*
Y137087D02*
D03*
Y97087D02*
D03*
Y117087D02*
D03*
Y107087D02*
D03*
X288425Y97087D02*
D03*
Y117087D02*
D03*
Y107087D02*
D03*
Y127087D02*
D03*
Y147087D02*
D03*
Y137087D02*
D03*
Y157087D02*
D03*
Y167087D02*
D03*
Y253087D02*
D03*
Y243087D02*
D03*
Y223087D02*
D03*
Y233087D02*
D03*
Y213087D02*
D03*
Y193087D02*
D03*
Y203087D02*
D03*
Y183087D02*
D03*
X278425Y107087D02*
D03*
Y117087D02*
D03*
Y127087D02*
D03*
Y137087D02*
D03*
Y147087D02*
D03*
Y157087D02*
D03*
Y167087D02*
D03*
D24*
X375984Y208661D02*
D03*
Y188661D02*
D03*
Y238661D02*
D03*
Y228661D02*
D03*
Y198661D02*
D03*
Y97953D02*
D03*
Y127953D02*
D03*
Y137953D02*
D03*
Y77953D02*
D03*
Y87953D02*
D03*
D25*
X15748Y86614D02*
D03*
Y307087D02*
D03*
X377953Y377953D02*
D03*
Y15748D02*
D03*
D26*
X265748Y212598D02*
Y300827D01*
Y194528D02*
Y212598D01*
X78740Y227087D02*
X98425D01*
X78740Y211699D02*
Y227087D01*
Y227756D02*
Y326772D01*
Y211699D02*
X83353Y207087D01*
X98425D01*
X78740Y326772D02*
X98071Y346102D01*
X246417D01*
X265748Y300827D02*
Y326772D01*
X246417Y346102D02*
X265748Y326772D01*
D27*
X206319Y106673D02*
X206319Y106673D01*
X206319Y106673D02*
Y142106D01*
X192913Y78740D02*
X210472D01*
X135827D02*
X192913D01*
X210472D02*
X329380D01*
X210472D02*
X211004Y79272D01*
Y82303D01*
X132264D02*
X135827Y78740D01*
X329380D02*
X348425Y97785D01*
X182697Y67303D02*
X182697Y67303D01*
X261437D01*
X337943D01*
X348425Y77785D01*
M02*
