G04*
G04 #@! TF.GenerationSoftware,Altium Limited,Altium Designer,19.1.5 (86)*
G04*
G04 Layer_Color=16711935*
%FSLAX25Y25*%
%MOIN*%
G70*
G01*
G75*
%ADD26O,0.10642X0.07099*%
%ADD27C,0.10249*%
%ADD28C,0.07099*%
%ADD29C,0.08300*%
%ADD30C,0.20485*%
D26*
X342520Y108425D02*
D03*
Y88425D02*
D03*
Y98425D02*
D03*
X271654Y108425D02*
D03*
Y88425D02*
D03*
Y98425D02*
D03*
X240158Y108425D02*
D03*
Y88425D02*
D03*
Y98425D02*
D03*
X169291Y108425D02*
D03*
Y88425D02*
D03*
Y98425D02*
D03*
D27*
X114173Y35433D02*
D03*
X124173Y25433D02*
D03*
X104173D02*
D03*
Y45433D02*
D03*
X124173D02*
D03*
X72992D02*
D03*
X52992D02*
D03*
Y25433D02*
D03*
X72992D02*
D03*
X62992Y35433D02*
D03*
X330709Y35433D02*
D03*
X340709Y25433D02*
D03*
X320709D02*
D03*
Y45433D02*
D03*
X340709D02*
D03*
X289528D02*
D03*
X269528D02*
D03*
Y25433D02*
D03*
X289528D02*
D03*
X279528Y35433D02*
D03*
X228346D02*
D03*
X238347Y25433D02*
D03*
X218347D02*
D03*
Y45433D02*
D03*
X238347D02*
D03*
X187165D02*
D03*
X167165D02*
D03*
Y25433D02*
D03*
X187165D02*
D03*
X177165Y35433D02*
D03*
D28*
X33465Y283937D02*
D03*
Y253937D02*
D03*
Y243937D02*
D03*
Y303937D02*
D03*
Y293937D02*
D03*
X356299Y265118D02*
D03*
Y295118D02*
D03*
Y305118D02*
D03*
Y255118D02*
D03*
Y275118D02*
D03*
D29*
X295276Y249150D02*
D03*
Y269150D02*
D03*
Y259150D02*
D03*
Y279150D02*
D03*
Y299150D02*
D03*
Y289150D02*
D03*
Y309150D02*
D03*
Y319150D02*
D03*
Y233150D02*
D03*
Y223150D02*
D03*
Y203150D02*
D03*
Y213150D02*
D03*
Y193150D02*
D03*
Y173150D02*
D03*
Y183150D02*
D03*
Y163150D02*
D03*
X105276Y173150D02*
D03*
Y183150D02*
D03*
Y163150D02*
D03*
X115276D02*
D03*
Y183150D02*
D03*
Y173150D02*
D03*
X105276Y203150D02*
D03*
Y213150D02*
D03*
Y193150D02*
D03*
X115276D02*
D03*
Y213150D02*
D03*
Y203150D02*
D03*
Y263150D02*
D03*
Y243150D02*
D03*
Y253150D02*
D03*
Y233150D02*
D03*
X105276D02*
D03*
Y253150D02*
D03*
Y243150D02*
D03*
Y273150D02*
D03*
Y263150D02*
D03*
Y283150D02*
D03*
Y293150D02*
D03*
Y303150D02*
D03*
X295276Y339150D02*
D03*
Y329150D02*
D03*
X285276Y173150D02*
D03*
Y183150D02*
D03*
Y163150D02*
D03*
Y203150D02*
D03*
Y213150D02*
D03*
Y193150D02*
D03*
Y233150D02*
D03*
Y223150D02*
D03*
Y309150D02*
D03*
Y319150D02*
D03*
Y279150D02*
D03*
Y299150D02*
D03*
Y289150D02*
D03*
Y249150D02*
D03*
Y269150D02*
D03*
Y259150D02*
D03*
D30*
X15748Y15748D02*
D03*
Y338583D02*
D03*
X377953D02*
D03*
Y15748D02*
D03*
M02*
