G04*
G04 #@! TF.GenerationSoftware,Altium Limited,Altium Designer,19.0.10 (269)*
G04*
G04 Layer_Color=32896*
%FSLAX25Y25*%
%MOIN*%
G70*
G01*
G75*
%ADD11C,0.00787*%
%ADD13C,0.01000*%
%ADD54C,0.00984*%
%ADD56C,0.02362*%
D11*
X48425Y160630D02*
Y170079D01*
Y160630D02*
X53937D01*
Y170079D01*
X48425D02*
X53937D01*
X135827Y80709D02*
X139764D01*
X135827D02*
Y88583D01*
X139764D01*
Y80709D02*
Y88583D01*
X151181Y84646D02*
X163779D01*
X151181Y64961D02*
X163779D01*
Y84646D01*
X151181Y64961D02*
Y84646D01*
X175197Y68898D02*
X179134D01*
Y61024D02*
Y68898D01*
X175197Y61024D02*
X179134D01*
X175197D02*
Y68898D01*
X325984Y172047D02*
X335433D01*
X325984Y166535D02*
Y172047D01*
Y166535D02*
X335433D01*
Y172047D01*
X325984Y187795D02*
X335433D01*
X325984Y182283D02*
Y187795D01*
Y182283D02*
X335433D01*
Y187795D01*
X325984Y179921D02*
X335433D01*
X325984Y174409D02*
Y179921D01*
Y174409D02*
X335433D01*
Y179921D01*
X325984Y164173D02*
X335433D01*
X325984Y158661D02*
Y164173D01*
Y158661D02*
X335433D01*
Y164173D01*
X325984Y156299D02*
X335433D01*
X325984Y150787D02*
Y156299D01*
Y150787D02*
X335433D01*
Y156299D01*
X325984Y148425D02*
X335433D01*
X325984Y142913D02*
Y148425D01*
Y142913D02*
X335433D01*
Y148425D01*
X325984Y140551D02*
X335433D01*
X325984Y135039D02*
Y140551D01*
Y135039D02*
X335433D01*
Y140551D01*
X325984Y132677D02*
X335433D01*
X325984Y127165D02*
Y132677D01*
Y127165D02*
X335433D01*
Y132677D01*
X325984Y124803D02*
X335433D01*
X325984Y119291D02*
Y124803D01*
Y119291D02*
X335433D01*
Y124803D01*
X240945Y123622D02*
X247244D01*
Y112598D02*
Y123622D01*
X240945Y112598D02*
X247244D01*
X240945D02*
Y123622D01*
X114961Y119685D02*
X121260D01*
Y108661D02*
Y119685D01*
X114961Y108661D02*
X121260D01*
X114961D02*
Y119685D01*
X137795Y265984D02*
Y269921D01*
X145669D01*
Y265984D02*
Y269921D01*
X137795Y265984D02*
X145669D01*
X150787Y259291D02*
X156299D01*
X150787D02*
Y268740D01*
X156299D01*
Y259291D02*
Y268740D01*
X137795Y218740D02*
Y222677D01*
X145669D01*
Y218740D02*
Y222677D01*
X137795Y218740D02*
X145669D01*
X150787Y219921D02*
Y229370D01*
Y219921D02*
X156299D01*
Y229370D01*
X150787D02*
X156299D01*
X17717Y226378D02*
X25591D01*
X17717Y167323D02*
X25591D01*
X239567Y309252D02*
X248622D01*
X239567Y297047D02*
X248622D01*
Y309252D01*
X239567Y297047D02*
Y309252D01*
Y273819D02*
X248622D01*
X239567Y261614D02*
X248622D01*
Y273819D01*
X239567Y261614D02*
Y273819D01*
X239567Y238386D02*
X248622D01*
X239567Y226181D02*
X248622D01*
Y238386D01*
X239567Y226181D02*
Y238386D01*
Y202953D02*
X248622D01*
X239567Y190748D02*
X248622D01*
Y202953D01*
X239567Y190748D02*
Y202953D01*
X236811Y139567D02*
Y159646D01*
X251378Y139567D02*
Y159646D01*
X236811Y139567D02*
X251378D01*
X236811Y159646D02*
X251378D01*
X171260Y210236D02*
Y222835D01*
X190945Y210236D02*
Y222835D01*
X171260D02*
X190945D01*
X171260Y210236D02*
X190945D01*
X116142Y190787D02*
Y203386D01*
X135827Y190787D02*
Y203386D01*
X116142D02*
X135827D01*
X116142Y190787D02*
X135827D01*
X174803Y139764D02*
X187401D01*
X174803Y159449D02*
X187401D01*
X174803Y139764D02*
Y159449D01*
X187401Y139764D02*
Y159449D01*
X171260Y281102D02*
Y293701D01*
X190945Y281102D02*
Y293701D01*
X171260D02*
X190945D01*
X171260Y281102D02*
X190945D01*
X116142Y281339D02*
Y293937D01*
X135827Y281339D02*
Y293937D01*
X116142D02*
X135827D01*
X116142Y281339D02*
X135827D01*
X229921Y84646D02*
X242520D01*
X229921Y64961D02*
X242520D01*
Y84646D01*
X229921Y64961D02*
Y84646D01*
X174803Y104331D02*
X187402D01*
X174803Y124016D02*
X187402D01*
X174803Y104331D02*
Y124016D01*
X187402Y104331D02*
Y124016D01*
X250197Y329528D02*
Y333465D01*
X246949D02*
X250197D01*
X237992Y329528D02*
Y333465D01*
X241240D01*
X150787Y164803D02*
X156299D01*
X150787D02*
Y174252D01*
X156299D01*
Y164803D02*
Y174252D01*
X343701Y187205D02*
X349213D01*
X343701D02*
Y196653D01*
X349213D01*
Y187205D02*
Y196653D01*
X359842Y229331D02*
Y241142D01*
X352756Y229331D02*
Y241142D01*
Y229331D02*
X359842D01*
X352756Y241142D02*
X359842D01*
X352756Y186024D02*
Y197835D01*
X359842Y186024D02*
Y197835D01*
X352756D02*
X359842D01*
X352756Y186024D02*
X359842D01*
X359842Y199803D02*
Y211614D01*
X352756Y199803D02*
Y211614D01*
Y199803D02*
X359842D01*
X352756Y211614D02*
X359842D01*
X150787Y300236D02*
X156299D01*
Y290787D02*
Y300236D01*
X150787Y290787D02*
X156299D01*
X150787D02*
Y300236D01*
X150787Y180551D02*
X156299D01*
X150787D02*
Y190000D01*
X156299D01*
Y180551D02*
Y190000D01*
X244094Y340551D02*
X251969D01*
Y344488D01*
X244094D02*
X251969D01*
X244094Y340551D02*
Y344488D01*
X359842Y88583D02*
Y100394D01*
X352756Y88583D02*
Y100394D01*
Y88583D02*
X359842D01*
X352756Y100394D02*
X359842D01*
X359842Y128937D02*
Y140748D01*
X352756Y128937D02*
Y140748D01*
Y128937D02*
X359842D01*
X352756Y140748D02*
X359842D01*
X352756Y74803D02*
Y86614D01*
X359842Y74803D02*
Y86614D01*
X352756D02*
X359842D01*
X352756Y74803D02*
X359842D01*
X150787Y204173D02*
Y213622D01*
Y204173D02*
X156299D01*
Y213622D01*
X150787D02*
X156299D01*
X271260Y127953D02*
Y139764D01*
X264173Y127953D02*
Y139764D01*
Y127953D02*
X271260D01*
X264173Y139764D02*
X271260D01*
X156299Y275039D02*
Y284488D01*
X150787D02*
X156299D01*
X150787Y275039D02*
Y284488D01*
Y275039D02*
X156299D01*
X106299Y187244D02*
X114173D01*
X106299Y183307D02*
Y187244D01*
Y183307D02*
X114173D01*
Y187244D01*
X150787Y302598D02*
Y312047D01*
Y302598D02*
X156299D01*
Y312047D01*
X150787D02*
X156299D01*
X137795Y171496D02*
X145669D01*
Y175433D01*
X137795D02*
X145669D01*
X137795Y171496D02*
Y175433D01*
Y305354D02*
X145669D01*
Y309291D01*
X137795D02*
X145669D01*
X137795Y305354D02*
Y309291D01*
X112205Y275827D02*
Y283701D01*
X108268D02*
X112205D01*
X108268Y275827D02*
Y283701D01*
Y275827D02*
X112205D01*
X105512Y158268D02*
X114961D01*
X105512Y152756D02*
Y158268D01*
Y152756D02*
X114961D01*
Y158268D01*
X105512Y242913D02*
X114961D01*
X105512Y237402D02*
Y242913D01*
Y237402D02*
X114961D01*
Y242913D01*
X105512Y270709D02*
X114961D01*
X105512Y265197D02*
Y270709D01*
Y265197D02*
X114961D01*
Y270709D01*
X105512Y310079D02*
X114961D01*
X105512Y304567D02*
Y310079D01*
Y304567D02*
X114961D01*
Y310079D01*
X137795Y206929D02*
X145669D01*
Y210866D01*
X137795D02*
X145669D01*
X137795Y206929D02*
Y210866D01*
Y297480D02*
X145669D01*
Y301417D01*
X137795D02*
X145669D01*
X137795Y297480D02*
Y301417D01*
X253937Y61024D02*
Y68898D01*
Y61024D02*
X257874D01*
Y68898D01*
X253937D02*
X257874D01*
X218504Y185039D02*
Y192913D01*
Y185039D02*
X222441D01*
Y192913D01*
X218504D02*
X222441D01*
X218504Y267717D02*
Y275591D01*
Y267717D02*
X222441D01*
Y275591D01*
X218504D02*
X222441D01*
X202756Y151575D02*
Y159449D01*
X198819D02*
X202756D01*
X198819Y151575D02*
Y159449D01*
Y151575D02*
X202756D01*
X127165Y109449D02*
Y118898D01*
Y109449D02*
X132677D01*
Y118898D01*
X127165D02*
X132677D01*
X144488Y109449D02*
Y118898D01*
X138976D02*
X144488D01*
X138976Y109449D02*
Y118898D01*
Y109449D02*
X144488D01*
X127165Y66142D02*
Y75590D01*
Y66142D02*
X132677D01*
Y75590D01*
X127165D02*
X132677D01*
X212205Y183071D02*
Y194882D01*
X205118Y183071D02*
Y194882D01*
Y183071D02*
X212205D01*
X205118Y194882D02*
X212205D01*
X212205Y218504D02*
Y230315D01*
X205118Y218504D02*
Y230315D01*
Y218504D02*
X212205D01*
X205118Y230315D02*
X212205D01*
Y253937D02*
Y265748D01*
X205118Y253937D02*
Y265748D01*
Y253937D02*
X212205D01*
X205118Y265748D02*
X212205D01*
Y289370D02*
Y301181D01*
X205118Y289370D02*
Y301181D01*
Y289370D02*
X212205D01*
X205118Y301181D02*
X212205D01*
X239370Y166535D02*
X248819D01*
Y172047D01*
X239370D02*
X248819D01*
X239370Y166535D02*
Y172047D01*
X163386Y155512D02*
Y163386D01*
X159449D02*
X163386D01*
X159449Y155512D02*
Y163386D01*
Y155512D02*
X163386D01*
X156299Y109449D02*
Y118898D01*
X150787D02*
X156299D01*
X150787Y109449D02*
Y118898D01*
Y109449D02*
X156299D01*
X163386Y120079D02*
Y127953D01*
X159449D02*
X163386D01*
X159449Y120079D02*
Y127953D01*
Y120079D02*
X163386D01*
X203937Y201969D02*
X213386D01*
Y207480D01*
X203937D02*
X213386D01*
X203937Y201969D02*
Y207480D01*
X218504Y196850D02*
Y204724D01*
Y196850D02*
X222441D01*
Y204724D01*
X218504D02*
X222441D01*
X218504Y232283D02*
Y240158D01*
Y232283D02*
X222441D01*
Y240158D01*
X218504D02*
X222441D01*
X203937Y237402D02*
X213386D01*
Y242913D01*
X203937D02*
X213386D01*
X203937Y237402D02*
Y242913D01*
X218504Y255906D02*
Y263779D01*
Y255906D02*
X222441D01*
Y263779D01*
X218504D02*
X222441D01*
X218504Y303150D02*
Y311024D01*
Y303150D02*
X222441D01*
Y311024D01*
X218504D02*
X222441D01*
X218504Y220472D02*
Y228346D01*
Y220472D02*
X222441D01*
Y228346D01*
X218504D02*
X222441D01*
X203937Y272835D02*
X213386D01*
Y278346D01*
X203937D02*
X213386D01*
X203937Y272835D02*
Y278346D01*
X218504Y291339D02*
Y299213D01*
Y291339D02*
X222441D01*
Y299213D01*
X218504D02*
X222441D01*
X183071Y242126D02*
X190945D01*
X183071Y238189D02*
Y242126D01*
Y238189D02*
X190945D01*
Y242126D01*
X163386Y143347D02*
Y151221D01*
X159449D02*
X163386D01*
X159449Y143347D02*
Y151221D01*
Y143347D02*
X163386D01*
X211417Y113386D02*
Y122835D01*
X205906D02*
X211417D01*
X205906Y113386D02*
Y122835D01*
Y113386D02*
X211417D01*
X223228D02*
Y122835D01*
X217717D02*
X223228D01*
X217717Y113386D02*
Y122835D01*
Y113386D02*
X223228D01*
X205906Y66142D02*
Y75590D01*
Y66142D02*
X211417D01*
Y75590D01*
X205906D02*
X211417D01*
X171260Y261811D02*
X179134D01*
Y265748D01*
X171260D02*
X179134D01*
X171260Y261811D02*
Y265748D01*
X229528Y113386D02*
Y122835D01*
Y113386D02*
X235039D01*
Y122835D01*
X229528D02*
X235039D01*
X267717Y188976D02*
Y196850D01*
Y188976D02*
X271654D01*
Y196850D01*
X267717D02*
X271654D01*
X267717Y224410D02*
Y232283D01*
Y224410D02*
X271654D01*
Y232283D01*
X267717D02*
X271654D01*
X267717Y259842D02*
Y267717D01*
Y259842D02*
X271654D01*
Y267717D01*
X267717D02*
X271654D01*
X267717Y295276D02*
Y303150D01*
Y295276D02*
X271654D01*
Y303150D01*
X267717D02*
X271654D01*
X259842Y188976D02*
Y196850D01*
Y188976D02*
X263779D01*
Y196850D01*
X259842D02*
X263779D01*
X259842Y224410D02*
Y232283D01*
Y224410D02*
X263779D01*
Y232283D01*
X259842D02*
X263779D01*
X259842Y259842D02*
Y267717D01*
Y259842D02*
X263779D01*
Y267717D01*
X259842D02*
X263779D01*
X259842Y295276D02*
Y303150D01*
Y295276D02*
X263779D01*
Y303150D01*
X259842D02*
X263779D01*
X232283Y320866D02*
X240158D01*
X232283Y316929D02*
Y320866D01*
Y316929D02*
X240158D01*
Y320866D01*
X239370Y127165D02*
X248819D01*
Y132677D01*
X239370D02*
X248819D01*
X239370Y127165D02*
Y132677D01*
X269685Y145669D02*
Y153543D01*
X265748D02*
X269685D01*
X265748Y145669D02*
Y153543D01*
Y145669D02*
X269685D01*
X203937Y308268D02*
X213386D01*
Y313779D01*
X203937D02*
X213386D01*
X203937Y308268D02*
Y313779D01*
X183071Y312992D02*
X190945D01*
X183071Y309055D02*
Y312992D01*
Y309055D02*
X190945D01*
Y312992D01*
X198819Y135472D02*
Y143347D01*
Y135472D02*
X202756D01*
Y143347D01*
X198819D02*
X202756D01*
X198819Y100748D02*
Y108622D01*
Y100748D02*
X202756D01*
Y108622D01*
X198819D02*
X202756D01*
X218504Y80709D02*
Y88583D01*
X214567D02*
X218504D01*
X214567Y80709D02*
Y88583D01*
Y80709D02*
X218504D01*
X171260Y190945D02*
X179134D01*
Y194882D01*
X171260D02*
X179134D01*
X171260Y190945D02*
Y194882D01*
X60424Y178031D02*
Y173307D01*
Y178031D02*
X58399D01*
X57724Y177806D01*
X57500Y177581D01*
X57275Y177131D01*
Y176681D01*
X57500Y176231D01*
X57724Y176006D01*
X58399Y175781D01*
X60424D01*
X58849D02*
X57275Y173307D01*
X55993Y176906D02*
Y177131D01*
X55768Y177581D01*
X55543Y177806D01*
X55093Y178031D01*
X54193D01*
X53743Y177806D01*
X53518Y177581D01*
X53294Y177131D01*
Y176681D01*
X53518Y176231D01*
X53968Y175556D01*
X56218Y173307D01*
X53069D01*
X51562Y178031D02*
X49088D01*
X50437Y176231D01*
X49762D01*
X49312Y176006D01*
X49088Y175781D01*
X48863Y175107D01*
Y174657D01*
X49088Y173982D01*
X49537Y173532D01*
X50212Y173307D01*
X50887D01*
X51562Y173532D01*
X51787Y173757D01*
X52012Y174207D01*
X128516Y84307D02*
X128741Y84757D01*
X129191Y85207D01*
X129640Y85432D01*
X130540D01*
X130990Y85207D01*
X131440Y84757D01*
X131665Y84307D01*
X131890Y83633D01*
Y82508D01*
X131665Y81833D01*
X131440Y81383D01*
X130990Y80934D01*
X130540Y80709D01*
X129640D01*
X129191Y80934D01*
X128741Y81383D01*
X128516Y81833D01*
X126964Y84307D02*
Y84532D01*
X126739Y84982D01*
X126514Y85207D01*
X126064Y85432D01*
X125164D01*
X124715Y85207D01*
X124490Y84982D01*
X124265Y84532D01*
Y84083D01*
X124490Y83633D01*
X124940Y82958D01*
X127189Y80709D01*
X124040D01*
X120733Y85432D02*
X122983Y82283D01*
X119609D01*
X120733Y85432D02*
Y80709D01*
X191508Y64622D02*
X191733Y65072D01*
X192183Y65522D01*
X192633Y65747D01*
X193532D01*
X193982Y65522D01*
X194432Y65072D01*
X194657Y64622D01*
X194882Y63948D01*
Y62823D01*
X194657Y62148D01*
X194432Y61698D01*
X193982Y61248D01*
X193532Y61024D01*
X192633D01*
X192183Y61248D01*
X191733Y61698D01*
X191508Y62148D01*
X189956Y64622D02*
Y64847D01*
X189731Y65297D01*
X189506Y65522D01*
X189056Y65747D01*
X188157D01*
X187707Y65522D01*
X187482Y65297D01*
X187257Y64847D01*
Y64398D01*
X187482Y63948D01*
X187932Y63273D01*
X190181Y61024D01*
X187032D01*
X185750Y64622D02*
Y64847D01*
X185525Y65297D01*
X185300Y65522D01*
X184850Y65747D01*
X183951D01*
X183501Y65522D01*
X183276Y65297D01*
X183051Y64847D01*
Y64398D01*
X183276Y63948D01*
X183726Y63273D01*
X185975Y61024D01*
X182826D01*
X163386Y61810D02*
Y58436D01*
X163161Y57761D01*
X162711Y57311D01*
X162036Y57087D01*
X161586D01*
X160912Y57311D01*
X160462Y57761D01*
X160237Y58436D01*
Y61810D01*
X158932Y60910D02*
X158483Y61135D01*
X157808Y61810D01*
Y57087D01*
X152769Y61135D02*
X152994Y61585D01*
X153669Y61810D01*
X154119D01*
X154794Y61585D01*
X155244Y60910D01*
X155468Y59786D01*
Y58661D01*
X155244Y57761D01*
X154794Y57311D01*
X154119Y57087D01*
X153894D01*
X153219Y57311D01*
X152769Y57761D01*
X152544Y58436D01*
Y58661D01*
X152769Y59336D01*
X153219Y59786D01*
X153894Y60011D01*
X154119D01*
X154794Y59786D01*
X155244Y59336D01*
X155468Y58661D01*
X322835Y130708D02*
Y125984D01*
Y130708D02*
X320810D01*
X320136Y130483D01*
X319911Y130258D01*
X319686Y129808D01*
Y129358D01*
X319911Y128908D01*
X320136Y128683D01*
X320810Y128458D01*
X322835D01*
X321260D02*
X319686Y125984D01*
X318179Y130708D02*
X315705D01*
X317054Y128908D01*
X316379D01*
X315930Y128683D01*
X315705Y128458D01*
X315480Y127784D01*
Y127334D01*
X315705Y126659D01*
X316154Y126209D01*
X316829Y125984D01*
X317504D01*
X318179Y126209D01*
X318404Y126434D01*
X318629Y126884D01*
X313298Y130708D02*
X313973Y130483D01*
X314198Y130033D01*
Y129583D01*
X313973Y129133D01*
X313523Y128908D01*
X312623Y128683D01*
X311948Y128458D01*
X311498Y128009D01*
X311274Y127559D01*
Y126884D01*
X311498Y126434D01*
X311723Y126209D01*
X312398Y125984D01*
X313298D01*
X313973Y126209D01*
X314198Y126434D01*
X314422Y126884D01*
Y127559D01*
X314198Y128009D01*
X313748Y128458D01*
X313073Y128683D01*
X312173Y128908D01*
X311723Y129133D01*
X311498Y129583D01*
Y130033D01*
X311723Y130483D01*
X312398Y130708D01*
X313298D01*
X322835Y122834D02*
Y118110D01*
Y122834D02*
X320810D01*
X320136Y122609D01*
X319911Y122384D01*
X319686Y121934D01*
Y121484D01*
X319911Y121034D01*
X320136Y120809D01*
X320810Y120584D01*
X322835D01*
X321260D02*
X319686Y118110D01*
X318179Y122834D02*
X315705D01*
X317054Y121034D01*
X316379D01*
X315930Y120809D01*
X315705Y120584D01*
X315480Y119910D01*
Y119460D01*
X315705Y118785D01*
X316154Y118335D01*
X316829Y118110D01*
X317504D01*
X318179Y118335D01*
X318404Y118560D01*
X318629Y119010D01*
X311274Y122834D02*
X313523Y118110D01*
X314422Y122834D02*
X311274D01*
X322835Y146456D02*
Y141732D01*
Y146456D02*
X320810D01*
X320136Y146231D01*
X319911Y146006D01*
X319686Y145556D01*
Y145106D01*
X319911Y144656D01*
X320136Y144431D01*
X320810Y144206D01*
X322835D01*
X321260D02*
X319686Y141732D01*
X318179Y146456D02*
X315705D01*
X317054Y144656D01*
X316379D01*
X315930Y144431D01*
X315705Y144206D01*
X315480Y143532D01*
Y143082D01*
X315705Y142407D01*
X316154Y141957D01*
X316829Y141732D01*
X317504D01*
X318179Y141957D01*
X318404Y142182D01*
X318629Y142632D01*
X311723Y145781D02*
X311948Y146231D01*
X312623Y146456D01*
X313073D01*
X313748Y146231D01*
X314198Y145556D01*
X314422Y144431D01*
Y143307D01*
X314198Y142407D01*
X313748Y141957D01*
X313073Y141732D01*
X312848D01*
X312173Y141957D01*
X311723Y142407D01*
X311498Y143082D01*
Y143307D01*
X311723Y143982D01*
X312173Y144431D01*
X312848Y144656D01*
X313073D01*
X313748Y144431D01*
X314198Y143982D01*
X314422Y143307D01*
X322835Y138582D02*
Y133858D01*
Y138582D02*
X320810D01*
X320136Y138357D01*
X319911Y138132D01*
X319686Y137682D01*
Y137232D01*
X319911Y136782D01*
X320136Y136557D01*
X320810Y136332D01*
X322835D01*
X321260D02*
X319686Y133858D01*
X318179Y138582D02*
X315705D01*
X317054Y136782D01*
X316379D01*
X315930Y136557D01*
X315705Y136332D01*
X315480Y135658D01*
Y135208D01*
X315705Y134533D01*
X316154Y134083D01*
X316829Y133858D01*
X317504D01*
X318179Y134083D01*
X318404Y134308D01*
X318629Y134758D01*
X311723Y138582D02*
X313973D01*
X314198Y136557D01*
X313973Y136782D01*
X313298Y137007D01*
X312623D01*
X311948Y136782D01*
X311498Y136332D01*
X311274Y135658D01*
Y135208D01*
X311498Y134533D01*
X311948Y134083D01*
X312623Y133858D01*
X313298D01*
X313973Y134083D01*
X314198Y134308D01*
X314422Y134758D01*
X322835Y162204D02*
Y157480D01*
Y162204D02*
X320810D01*
X320136Y161979D01*
X319911Y161754D01*
X319686Y161304D01*
Y160854D01*
X319911Y160404D01*
X320136Y160179D01*
X320810Y159955D01*
X322835D01*
X321260D02*
X319686Y157480D01*
X318179Y162204D02*
X315705D01*
X317054Y160404D01*
X316379D01*
X315930Y160179D01*
X315705Y159955D01*
X315480Y159280D01*
Y158830D01*
X315705Y158155D01*
X316154Y157705D01*
X316829Y157480D01*
X317504D01*
X318179Y157705D01*
X318404Y157930D01*
X318629Y158380D01*
X312173Y162204D02*
X314422Y159055D01*
X311049D01*
X312173Y162204D02*
Y157480D01*
X322835Y185826D02*
Y181102D01*
Y185826D02*
X320810D01*
X320136Y185601D01*
X319911Y185376D01*
X319686Y184926D01*
Y184476D01*
X319911Y184026D01*
X320136Y183801D01*
X320810Y183577D01*
X322835D01*
X321260D02*
X319686Y181102D01*
X318404Y184701D02*
Y184926D01*
X318179Y185376D01*
X317954Y185601D01*
X317504Y185826D01*
X316604D01*
X316154Y185601D01*
X315930Y185376D01*
X315705Y184926D01*
Y184476D01*
X315930Y184026D01*
X316379Y183352D01*
X318629Y181102D01*
X315480D01*
X313073Y185826D02*
X313748Y185601D01*
X314198Y184926D01*
X314422Y183801D01*
Y183127D01*
X314198Y182002D01*
X313748Y181327D01*
X313073Y181102D01*
X312623D01*
X311948Y181327D01*
X311498Y182002D01*
X311274Y183127D01*
Y183801D01*
X311498Y184926D01*
X311948Y185601D01*
X312623Y185826D01*
X313073D01*
X322835Y154330D02*
Y149606D01*
Y154330D02*
X320810D01*
X320136Y154105D01*
X319911Y153880D01*
X319686Y153430D01*
Y152980D01*
X319911Y152530D01*
X320136Y152305D01*
X320810Y152081D01*
X322835D01*
X321260D02*
X319686Y149606D01*
X318629Y153430D02*
X318179Y153655D01*
X317504Y154330D01*
Y149606D01*
X312466Y154330D02*
X314715D01*
X314940Y152305D01*
X314715Y152530D01*
X314040Y152755D01*
X313365D01*
X312691Y152530D01*
X312241Y152081D01*
X312016Y151406D01*
Y150956D01*
X312241Y150281D01*
X312691Y149831D01*
X313365Y149606D01*
X314040D01*
X314715Y149831D01*
X314940Y150056D01*
X315165Y150506D01*
X322835Y177952D02*
Y173228D01*
Y177952D02*
X320810D01*
X320136Y177727D01*
X319911Y177502D01*
X319686Y177052D01*
Y176602D01*
X319911Y176152D01*
X320136Y175927D01*
X320810Y175703D01*
X322835D01*
X321260D02*
X319686Y173228D01*
X318629Y177052D02*
X318179Y177277D01*
X317504Y177952D01*
Y173228D01*
X313815Y177952D02*
X314490Y177727D01*
X314940Y177052D01*
X315165Y175927D01*
Y175253D01*
X314940Y174128D01*
X314490Y173453D01*
X313815Y173228D01*
X313365D01*
X312691Y173453D01*
X312241Y174128D01*
X312016Y175253D01*
Y175927D01*
X312241Y177052D01*
X312691Y177727D01*
X313365Y177952D01*
X313815D01*
X322835Y170078D02*
Y165354D01*
Y170078D02*
X320810D01*
X320136Y169853D01*
X319911Y169628D01*
X319686Y169178D01*
Y168728D01*
X319911Y168278D01*
X320136Y168053D01*
X320810Y167829D01*
X322835D01*
X321260D02*
X319686Y165354D01*
X315930Y170078D02*
X318179D01*
X318404Y168053D01*
X318179Y168278D01*
X317504Y168503D01*
X316829D01*
X316154Y168278D01*
X315705Y167829D01*
X315480Y167154D01*
Y166704D01*
X315705Y166029D01*
X316154Y165579D01*
X316829Y165354D01*
X317504D01*
X318179Y165579D01*
X318404Y165804D01*
X318629Y166254D01*
X303150Y126771D02*
Y122047D01*
Y126771D02*
X301575D01*
X300900Y126546D01*
X300450Y126096D01*
X300226Y125646D01*
X300001Y124971D01*
Y123847D01*
X300226Y123172D01*
X300450Y122722D01*
X300900Y122272D01*
X301575Y122047D01*
X303150D01*
X296245Y126771D02*
X298494D01*
X298719Y124746D01*
X298494Y124971D01*
X297819Y125196D01*
X297144D01*
X296469Y124971D01*
X296020Y124521D01*
X295795Y123847D01*
Y123397D01*
X296020Y122722D01*
X296469Y122272D01*
X297144Y122047D01*
X297819D01*
X298494Y122272D01*
X298719Y122497D01*
X298943Y122947D01*
X303150Y142519D02*
Y137795D01*
Y142519D02*
X301575D01*
X300900Y142294D01*
X300450Y141844D01*
X300226Y141394D01*
X300001Y140719D01*
Y139595D01*
X300226Y138920D01*
X300450Y138470D01*
X300900Y138020D01*
X301575Y137795D01*
X303150D01*
X296694Y142519D02*
X298943Y139370D01*
X295570D01*
X296694Y142519D02*
Y137795D01*
X303150Y158267D02*
Y153543D01*
Y158267D02*
X301575D01*
X300900Y158042D01*
X300450Y157592D01*
X300226Y157142D01*
X300001Y156467D01*
Y155343D01*
X300226Y154668D01*
X300450Y154218D01*
X300900Y153768D01*
X301575Y153543D01*
X303150D01*
X298494Y158267D02*
X296020D01*
X297369Y156467D01*
X296694D01*
X296245Y156242D01*
X296020Y156017D01*
X295795Y155343D01*
Y154893D01*
X296020Y154218D01*
X296469Y153768D01*
X297144Y153543D01*
X297819D01*
X298494Y153768D01*
X298719Y153993D01*
X298943Y154443D01*
X303150Y197637D02*
Y192913D01*
Y197637D02*
X301575D01*
X300900Y197412D01*
X300450Y196962D01*
X300226Y196512D01*
X300001Y195837D01*
Y194713D01*
X300226Y194038D01*
X300450Y193588D01*
X300900Y193138D01*
X301575Y192913D01*
X303150D01*
X298943Y196737D02*
X298494Y196962D01*
X297819Y197637D01*
Y192913D01*
X303150Y177952D02*
Y173228D01*
Y177952D02*
X301575D01*
X300900Y177727D01*
X300450Y177277D01*
X300226Y176827D01*
X300001Y176152D01*
Y175028D01*
X300226Y174353D01*
X300450Y173903D01*
X300900Y173453D01*
X301575Y173228D01*
X303150D01*
X298719Y176827D02*
Y177052D01*
X298494Y177502D01*
X298269Y177727D01*
X297819Y177952D01*
X296919D01*
X296469Y177727D01*
X296245Y177502D01*
X296020Y177052D01*
Y176602D01*
X296245Y176152D01*
X296694Y175478D01*
X298943Y173228D01*
X295795D01*
X119740Y95894D02*
X120190Y95669D01*
X120640Y95219D01*
X120865Y94769D01*
Y93869D01*
X120640Y93419D01*
X120190Y92970D01*
X119740Y92745D01*
X119066Y92520D01*
X117941D01*
X117266Y92745D01*
X116816Y92970D01*
X116367Y93419D01*
X116142Y93869D01*
Y94769D01*
X116367Y95219D01*
X116816Y95669D01*
X117266Y95894D01*
X120865Y97671D02*
Y100145D01*
X119066Y98795D01*
Y99470D01*
X118841Y99920D01*
X118616Y100145D01*
X117941Y100370D01*
X117491D01*
X116816Y100145D01*
X116367Y99695D01*
X116142Y99020D01*
Y98345D01*
X116367Y97671D01*
X116592Y97445D01*
X117041Y97221D01*
X120865Y103676D02*
X117716Y101427D01*
Y104800D01*
X120865Y103676D02*
X116142D01*
X245725Y97862D02*
X246175Y97637D01*
X246624Y97187D01*
X246849Y96737D01*
Y95838D01*
X246624Y95388D01*
X246175Y94938D01*
X245725Y94713D01*
X245050Y94488D01*
X243925D01*
X243251Y94713D01*
X242801Y94938D01*
X242351Y95388D01*
X242126Y95838D01*
Y96737D01*
X242351Y97187D01*
X242801Y97637D01*
X243251Y97862D01*
X246849Y99639D02*
Y102113D01*
X245050Y100764D01*
Y101438D01*
X244825Y101888D01*
X244600Y102113D01*
X243925Y102338D01*
X243476D01*
X242801Y102113D01*
X242351Y101663D01*
X242126Y100988D01*
Y100314D01*
X242351Y99639D01*
X242576Y99414D01*
X243026Y99189D01*
X245725Y103620D02*
X245950D01*
X246399Y103845D01*
X246624Y104070D01*
X246849Y104520D01*
Y105420D01*
X246624Y105869D01*
X246399Y106094D01*
X245950Y106319D01*
X245500D01*
X245050Y106094D01*
X244375Y105644D01*
X242126Y103395D01*
Y106544D01*
X366928Y145669D02*
X363554D01*
X362879Y145894D01*
X362430Y146344D01*
X362205Y147019D01*
Y147469D01*
X362430Y148143D01*
X362879Y148593D01*
X363554Y148818D01*
X366928D01*
X366028Y150123D02*
X366253Y150573D01*
X366928Y151247D01*
X362205D01*
X366928Y155836D02*
X363779Y153587D01*
Y156960D01*
X366928Y155836D02*
X362205D01*
X366928Y248031D02*
X363554D01*
X362879Y248256D01*
X362430Y248706D01*
X362205Y249381D01*
Y249831D01*
X362430Y250506D01*
X362879Y250956D01*
X363554Y251180D01*
X366928D01*
X366028Y252485D02*
X366253Y252935D01*
X366928Y253610D01*
X362205D01*
X366928Y258648D02*
Y256399D01*
X364904Y256174D01*
X365129Y256399D01*
X365354Y257073D01*
Y257748D01*
X365129Y258423D01*
X364679Y258873D01*
X364004Y259098D01*
X363554D01*
X362879Y258873D01*
X362430Y258423D01*
X362205Y257748D01*
Y257073D01*
X362430Y256399D01*
X362655Y256174D01*
X363104Y255949D01*
X357929Y216956D02*
X358379Y216732D01*
X358829Y216282D01*
X359054Y215832D01*
Y214932D01*
X358829Y214482D01*
X358379Y214033D01*
X357929Y213808D01*
X357255Y213583D01*
X356130D01*
X355455Y213808D01*
X355006Y214033D01*
X354556Y214482D01*
X354331Y214932D01*
Y215832D01*
X354556Y216282D01*
X355006Y216732D01*
X355455Y216956D01*
X359054Y220983D02*
Y218733D01*
X357030Y218509D01*
X357255Y218733D01*
X357480Y219408D01*
Y220083D01*
X357255Y220758D01*
X356805Y221208D01*
X356130Y221432D01*
X355680D01*
X355006Y221208D01*
X354556Y220758D01*
X354331Y220083D01*
Y219408D01*
X354556Y218733D01*
X354781Y218509D01*
X355230Y218284D01*
X359054Y224739D02*
X355905Y222490D01*
Y225864D01*
X359054Y224739D02*
X354331D01*
X357929Y171681D02*
X358379Y171456D01*
X358829Y171006D01*
X359054Y170556D01*
Y169657D01*
X358829Y169207D01*
X358379Y168757D01*
X357929Y168532D01*
X357255Y168307D01*
X356130D01*
X355455Y168532D01*
X355006Y168757D01*
X354556Y169207D01*
X354331Y169657D01*
Y170556D01*
X354556Y171006D01*
X355006Y171456D01*
X355455Y171681D01*
X359054Y175707D02*
Y173458D01*
X357030Y173233D01*
X357255Y173458D01*
X357480Y174133D01*
Y174807D01*
X357255Y175482D01*
X356805Y175932D01*
X356130Y176157D01*
X355680D01*
X355006Y175932D01*
X354556Y175482D01*
X354331Y174807D01*
Y174133D01*
X354556Y173458D01*
X354781Y173233D01*
X355230Y173008D01*
X357929Y177439D02*
X358154D01*
X358604Y177664D01*
X358829Y177889D01*
X359054Y178339D01*
Y179238D01*
X358829Y179688D01*
X358604Y179913D01*
X358154Y180138D01*
X357705D01*
X357255Y179913D01*
X356580Y179463D01*
X354331Y177214D01*
Y180363D01*
X357929Y251405D02*
X358379Y251180D01*
X358829Y250731D01*
X359054Y250281D01*
Y249381D01*
X358829Y248931D01*
X358379Y248481D01*
X357929Y248256D01*
X357255Y248031D01*
X356130D01*
X355455Y248256D01*
X355006Y248481D01*
X354556Y248931D01*
X354331Y249381D01*
Y250281D01*
X354556Y250731D01*
X355006Y251180D01*
X355455Y251405D01*
X359054Y255432D02*
Y253182D01*
X357030Y252957D01*
X357255Y253182D01*
X357480Y253857D01*
Y254532D01*
X357255Y255207D01*
X356805Y255656D01*
X356130Y255881D01*
X355680D01*
X355006Y255656D01*
X354556Y255207D01*
X354331Y254532D01*
Y253857D01*
X354556Y253182D01*
X354781Y252957D01*
X355230Y252732D01*
X358154Y256939D02*
X358379Y257388D01*
X359054Y258063D01*
X354331D01*
X145331Y182508D02*
X145781Y182283D01*
X146231Y181833D01*
X146456Y181383D01*
Y180483D01*
X146231Y180034D01*
X145781Y179584D01*
X145331Y179359D01*
X144656Y179134D01*
X143532D01*
X142857Y179359D01*
X142407Y179584D01*
X141957Y180034D01*
X141732Y180483D01*
Y181383D01*
X141957Y181833D01*
X142407Y182283D01*
X142857Y182508D01*
X145556Y183835D02*
X145781Y184285D01*
X146456Y184959D01*
X141732D01*
X228008Y200224D02*
X228458Y199999D01*
X228908Y199549D01*
X229133Y199100D01*
Y198200D01*
X228908Y197750D01*
X228458Y197300D01*
X228008Y197075D01*
X227333Y196850D01*
X226209D01*
X225534Y197075D01*
X225084Y197300D01*
X224634Y197750D01*
X224410Y198200D01*
Y199100D01*
X224634Y199549D01*
X225084Y199999D01*
X225534Y200224D01*
X228008Y201776D02*
X228233D01*
X228683Y202001D01*
X228908Y202226D01*
X229133Y202676D01*
Y203576D01*
X228908Y204026D01*
X228683Y204250D01*
X228233Y204475D01*
X227783D01*
X227333Y204250D01*
X226659Y203801D01*
X224410Y201551D01*
Y204700D01*
X145331Y229752D02*
X145781Y229527D01*
X146231Y229077D01*
X146456Y228627D01*
Y227728D01*
X146231Y227278D01*
X145781Y226828D01*
X145331Y226603D01*
X144656Y226378D01*
X143532D01*
X142857Y226603D01*
X142407Y226828D01*
X141957Y227278D01*
X141732Y227728D01*
Y228627D01*
X141957Y229077D01*
X142407Y229527D01*
X142857Y229752D01*
X146456Y231529D02*
Y234003D01*
X144656Y232653D01*
Y233328D01*
X144431Y233778D01*
X144206Y234003D01*
X143532Y234228D01*
X143082D01*
X142407Y234003D01*
X141957Y233553D01*
X141732Y232878D01*
Y232204D01*
X141957Y231529D01*
X142182Y231304D01*
X142632Y231079D01*
X228008Y235657D02*
X228458Y235432D01*
X228908Y234982D01*
X229133Y234533D01*
Y233633D01*
X228908Y233183D01*
X228458Y232733D01*
X228008Y232508D01*
X227333Y232283D01*
X226209D01*
X225534Y232508D01*
X225084Y232733D01*
X224634Y233183D01*
X224410Y233633D01*
Y234533D01*
X224634Y234982D01*
X225084Y235432D01*
X225534Y235657D01*
X229133Y239234D02*
X225984Y236984D01*
Y240358D01*
X229133Y239234D02*
X224410D01*
X145331Y276996D02*
X145781Y276771D01*
X146231Y276321D01*
X146456Y275871D01*
Y274972D01*
X146231Y274522D01*
X145781Y274072D01*
X145331Y273847D01*
X144656Y273622D01*
X143532D01*
X142857Y273847D01*
X142407Y274072D01*
X141957Y274522D01*
X141732Y274972D01*
Y275871D01*
X141957Y276321D01*
X142407Y276771D01*
X142857Y276996D01*
X146456Y281022D02*
Y278773D01*
X144431Y278548D01*
X144656Y278773D01*
X144881Y279448D01*
Y280122D01*
X144656Y280797D01*
X144206Y281247D01*
X143532Y281472D01*
X143082D01*
X142407Y281247D01*
X141957Y280797D01*
X141732Y280122D01*
Y279448D01*
X141957Y278773D01*
X142182Y278548D01*
X142632Y278323D01*
X228008Y271090D02*
X228458Y270866D01*
X228908Y270416D01*
X229133Y269966D01*
Y269066D01*
X228908Y268616D01*
X228458Y268166D01*
X228008Y267941D01*
X227333Y267717D01*
X226209D01*
X225534Y267941D01*
X225084Y268166D01*
X224634Y268616D01*
X224410Y269066D01*
Y269966D01*
X224634Y270416D01*
X225084Y270866D01*
X225534Y271090D01*
X228458Y275116D02*
X228908Y274892D01*
X229133Y274217D01*
Y273767D01*
X228908Y273092D01*
X228233Y272642D01*
X227109Y272417D01*
X225984D01*
X225084Y272642D01*
X224634Y273092D01*
X224410Y273767D01*
Y273992D01*
X224634Y274667D01*
X225084Y275116D01*
X225759Y275342D01*
X225984D01*
X226659Y275116D01*
X227109Y274667D01*
X227333Y273992D01*
Y273767D01*
X227109Y273092D01*
X226659Y272642D01*
X225984Y272417D01*
X145331Y316366D02*
X145781Y316141D01*
X146231Y315691D01*
X146456Y315241D01*
Y314342D01*
X146231Y313892D01*
X145781Y313442D01*
X145331Y313217D01*
X144656Y312992D01*
X143532D01*
X142857Y313217D01*
X142407Y313442D01*
X141957Y313892D01*
X141732Y314342D01*
Y315241D01*
X141957Y315691D01*
X142407Y316141D01*
X142857Y316366D01*
X146456Y320842D02*
X141732Y318593D01*
X146456Y317693D02*
Y320842D01*
X228008Y306523D02*
X228458Y306298D01*
X228908Y305849D01*
X229133Y305399D01*
Y304499D01*
X228908Y304049D01*
X228458Y303600D01*
X228008Y303375D01*
X227333Y303150D01*
X226209D01*
X225534Y303375D01*
X225084Y303600D01*
X224634Y304049D01*
X224410Y304499D01*
Y305399D01*
X224634Y305849D01*
X225084Y306298D01*
X225534Y306523D01*
X229133Y308975D02*
X228908Y308300D01*
X228458Y308075D01*
X228008D01*
X227558Y308300D01*
X227333Y308750D01*
X227109Y309650D01*
X226884Y310325D01*
X226434Y310774D01*
X225984Y310999D01*
X225309D01*
X224859Y310774D01*
X224634Y310550D01*
X224410Y309875D01*
Y308975D01*
X224634Y308300D01*
X224859Y308075D01*
X225309Y307851D01*
X225984D01*
X226434Y308075D01*
X226884Y308525D01*
X227109Y309200D01*
X227333Y310100D01*
X227558Y310550D01*
X228008Y310774D01*
X228458D01*
X228908Y310550D01*
X229133Y309875D01*
Y308975D01*
X145331Y200224D02*
X145781Y199999D01*
X146231Y199549D01*
X146456Y199100D01*
Y198200D01*
X146231Y197750D01*
X145781Y197300D01*
X145331Y197075D01*
X144656Y196850D01*
X143532D01*
X142857Y197075D01*
X142407Y197300D01*
X141957Y197750D01*
X141732Y198200D01*
Y199100D01*
X141957Y199549D01*
X142407Y199999D01*
X142857Y200224D01*
X144881Y204475D02*
X144206Y204250D01*
X143757Y203801D01*
X143532Y203126D01*
Y202901D01*
X143757Y202226D01*
X144206Y201776D01*
X144881Y201551D01*
X145106D01*
X145781Y201776D01*
X146231Y202226D01*
X146456Y202901D01*
Y203126D01*
X146231Y203801D01*
X145781Y204250D01*
X144881Y204475D01*
X143757D01*
X142632Y204250D01*
X141957Y203801D01*
X141732Y203126D01*
Y202676D01*
X141957Y202001D01*
X142407Y201776D01*
X190607Y251405D02*
X191057Y251180D01*
X191506Y250731D01*
X191731Y250281D01*
Y249381D01*
X191506Y248931D01*
X191057Y248481D01*
X190607Y248256D01*
X189932Y248031D01*
X188807D01*
X188133Y248256D01*
X187683Y248481D01*
X187233Y248931D01*
X187008Y249381D01*
Y250281D01*
X187233Y250731D01*
X187683Y251180D01*
X188133Y251405D01*
X190832Y252732D02*
X191057Y253182D01*
X191731Y253857D01*
X187008D01*
X191731Y257546D02*
X191506Y256871D01*
X190832Y256421D01*
X189707Y256196D01*
X189032D01*
X187908Y256421D01*
X187233Y256871D01*
X187008Y257546D01*
Y257996D01*
X187233Y258670D01*
X187908Y259120D01*
X189032Y259345D01*
X189707D01*
X190832Y259120D01*
X191506Y258670D01*
X191731Y257996D01*
Y257546D01*
X145331Y288807D02*
X145781Y288582D01*
X146231Y288132D01*
X146456Y287682D01*
Y286783D01*
X146231Y286333D01*
X145781Y285883D01*
X145331Y285658D01*
X144656Y285433D01*
X143532D01*
X142857Y285658D01*
X142407Y285883D01*
X141957Y286333D01*
X141732Y286783D01*
Y287682D01*
X141957Y288132D01*
X142407Y288582D01*
X142857Y288807D01*
X145556Y290134D02*
X145781Y290584D01*
X146456Y291259D01*
X141732D01*
X145556Y293598D02*
X145781Y294048D01*
X146456Y294722D01*
X141732D01*
X190607Y322271D02*
X191057Y322047D01*
X191506Y321597D01*
X191731Y321147D01*
Y320247D01*
X191506Y319797D01*
X191057Y319348D01*
X190607Y319123D01*
X189932Y318898D01*
X188807D01*
X188133Y319123D01*
X187683Y319348D01*
X187233Y319797D01*
X187008Y320247D01*
Y321147D01*
X187233Y321597D01*
X187683Y322047D01*
X188133Y322271D01*
X190832Y323599D02*
X191057Y324048D01*
X191731Y324723D01*
X187008D01*
X190607Y327287D02*
X190832D01*
X191281Y327512D01*
X191506Y327737D01*
X191731Y328187D01*
Y329087D01*
X191506Y329537D01*
X191281Y329762D01*
X190832Y329986D01*
X190382D01*
X189932Y329762D01*
X189257Y329312D01*
X187008Y327062D01*
Y330211D01*
X109898Y172665D02*
X110348Y172440D01*
X110798Y171990D01*
X111023Y171541D01*
Y170641D01*
X110798Y170191D01*
X110348Y169741D01*
X109898Y169516D01*
X109223Y169291D01*
X108099D01*
X107424Y169516D01*
X106974Y169741D01*
X106524Y170191D01*
X106299Y170641D01*
Y171541D01*
X106524Y171990D01*
X106974Y172440D01*
X107424Y172665D01*
X110123Y173992D02*
X110348Y174442D01*
X111023Y175117D01*
X106299D01*
X111023Y177906D02*
Y180380D01*
X109223Y179031D01*
Y179705D01*
X108998Y180155D01*
X108773Y180380D01*
X108099Y180605D01*
X107649D01*
X106974Y180380D01*
X106524Y179930D01*
X106299Y179255D01*
Y178581D01*
X106524Y177906D01*
X106749Y177681D01*
X107199Y177456D01*
X186670Y184476D02*
X187119Y184251D01*
X187569Y183801D01*
X187794Y183352D01*
Y182452D01*
X187569Y182002D01*
X187119Y181552D01*
X186670Y181327D01*
X185995Y181102D01*
X184870D01*
X184195Y181327D01*
X183746Y181552D01*
X183296Y182002D01*
X183071Y182452D01*
Y183352D01*
X183296Y183801D01*
X183746Y184251D01*
X184195Y184476D01*
X186895Y185803D02*
X187119Y186253D01*
X187794Y186928D01*
X183071D01*
X187794Y191516D02*
X184645Y189267D01*
Y192641D01*
X187794Y191516D02*
X183071D01*
X103992Y278964D02*
X104442Y278740D01*
X104892Y278290D01*
X105117Y277840D01*
Y276940D01*
X104892Y276490D01*
X104442Y276040D01*
X103992Y275816D01*
X103318Y275590D01*
X102193D01*
X101518Y275816D01*
X101068Y276040D01*
X100619Y276490D01*
X100394Y276940D01*
Y277840D01*
X100619Y278290D01*
X101068Y278740D01*
X101518Y278964D01*
X104217Y280292D02*
X104442Y280741D01*
X105117Y281416D01*
X100394D01*
X105117Y286454D02*
Y284205D01*
X103093Y283980D01*
X103318Y284205D01*
X103543Y284880D01*
Y285555D01*
X103318Y286229D01*
X102868Y286679D01*
X102193Y286904D01*
X101743D01*
X101068Y286679D01*
X100619Y286229D01*
X100394Y285555D01*
Y284880D01*
X100619Y284205D01*
X100844Y283980D01*
X101293Y283755D01*
X178796Y251405D02*
X179245Y251180D01*
X179695Y250731D01*
X179920Y250281D01*
Y249381D01*
X179695Y248931D01*
X179245Y248481D01*
X178796Y248256D01*
X178121Y248031D01*
X176996D01*
X176321Y248256D01*
X175872Y248481D01*
X175422Y248931D01*
X175197Y249381D01*
Y250281D01*
X175422Y250731D01*
X175872Y251180D01*
X176321Y251405D01*
X179021Y252732D02*
X179245Y253182D01*
X179920Y253857D01*
X175197D01*
X179245Y258895D02*
X179695Y258670D01*
X179920Y257996D01*
Y257546D01*
X179695Y256871D01*
X179021Y256421D01*
X177896Y256196D01*
X176771D01*
X175872Y256421D01*
X175422Y256871D01*
X175197Y257546D01*
Y257771D01*
X175422Y258446D01*
X175872Y258895D01*
X176546Y259120D01*
X176771D01*
X177446Y258895D01*
X177896Y258446D01*
X178121Y257771D01*
Y257546D01*
X177896Y256871D01*
X177446Y256421D01*
X176771Y256196D01*
X254275Y83240D02*
X253825Y83465D01*
X253376Y83915D01*
X253151Y84365D01*
Y85265D01*
X253376Y85715D01*
X253825Y86164D01*
X254275Y86389D01*
X254950Y86614D01*
X256075D01*
X256749Y86389D01*
X257199Y86164D01*
X257649Y85715D01*
X257874Y85265D01*
Y84365D01*
X257649Y83915D01*
X257199Y83465D01*
X256749Y83240D01*
X254050Y81913D02*
X253825Y81463D01*
X253151Y80789D01*
X257874D01*
X253151Y75301D02*
X257874Y77550D01*
X253151Y78449D02*
Y75301D01*
X154106Y127614D02*
X154331Y128064D01*
X154781Y128514D01*
X155231Y128739D01*
X156131D01*
X156581Y128514D01*
X157030Y128064D01*
X157255Y127614D01*
X157480Y126940D01*
Y125815D01*
X157255Y125140D01*
X157030Y124690D01*
X156581Y124241D01*
X156131Y124016D01*
X155231D01*
X154781Y124241D01*
X154331Y124690D01*
X154106Y125140D01*
X152779Y127840D02*
X152330Y128064D01*
X151655Y128739D01*
Y124016D01*
X148191Y128739D02*
X148866Y128514D01*
X149091Y128064D01*
Y127614D01*
X148866Y127165D01*
X148416Y126940D01*
X147516Y126715D01*
X146841Y126490D01*
X146392Y126040D01*
X146167Y125590D01*
Y124915D01*
X146392Y124466D01*
X146616Y124241D01*
X147291Y124016D01*
X148191D01*
X148866Y124241D01*
X149091Y124466D01*
X149316Y124915D01*
Y125590D01*
X149091Y126040D01*
X148641Y126490D01*
X147966Y126715D01*
X147066Y126940D01*
X146616Y127165D01*
X146392Y127614D01*
Y128064D01*
X146616Y128514D01*
X147291Y128739D01*
X148191D01*
X207256Y84307D02*
X207481Y84757D01*
X207931Y85207D01*
X208381Y85432D01*
X209280D01*
X209730Y85207D01*
X210180Y84757D01*
X210405Y84307D01*
X210630Y83633D01*
Y82508D01*
X210405Y81833D01*
X210180Y81383D01*
X209730Y80934D01*
X209280Y80709D01*
X208381D01*
X207931Y80934D01*
X207481Y81383D01*
X207256Y81833D01*
X205929Y84532D02*
X205479Y84757D01*
X204804Y85432D01*
Y80709D01*
X199541Y83858D02*
X199766Y83183D01*
X200216Y82733D01*
X200891Y82508D01*
X201116D01*
X201790Y82733D01*
X202240Y83183D01*
X202465Y83858D01*
Y84083D01*
X202240Y84757D01*
X201790Y85207D01*
X201116Y85432D01*
X200891D01*
X200216Y85207D01*
X199766Y84757D01*
X199541Y83858D01*
Y82733D01*
X199766Y81608D01*
X200216Y80934D01*
X200891Y80709D01*
X201341D01*
X202015Y80934D01*
X202240Y81383D01*
X200449Y115579D02*
X200899Y115354D01*
X201349Y114904D01*
X201574Y114454D01*
Y113554D01*
X201349Y113104D01*
X200899Y112655D01*
X200449Y112430D01*
X199774Y112205D01*
X198650D01*
X197975Y112430D01*
X197525Y112655D01*
X197075Y113104D01*
X196850Y113554D01*
Y114454D01*
X197075Y114904D01*
X197525Y115354D01*
X197975Y115579D01*
X200449Y117130D02*
X200674D01*
X201124Y117356D01*
X201349Y117580D01*
X201574Y118030D01*
Y118930D01*
X201349Y119380D01*
X201124Y119605D01*
X200674Y119830D01*
X200224D01*
X199774Y119605D01*
X199100Y119155D01*
X196850Y116906D01*
Y120055D01*
X201574Y122461D02*
X201349Y121786D01*
X200674Y121337D01*
X199549Y121112D01*
X198875D01*
X197750Y121337D01*
X197075Y121786D01*
X196850Y122461D01*
Y122911D01*
X197075Y123586D01*
X197750Y124036D01*
X198875Y124261D01*
X199549D01*
X200674Y124036D01*
X201349Y123586D01*
X201574Y122911D01*
Y122461D01*
X228008Y180539D02*
X228458Y180314D01*
X228908Y179864D01*
X229133Y179415D01*
Y178515D01*
X228908Y178065D01*
X228458Y177615D01*
X228008Y177390D01*
X227333Y177165D01*
X226209D01*
X225534Y177390D01*
X225084Y177615D01*
X224634Y178065D01*
X224410Y178515D01*
Y179415D01*
X224634Y179864D01*
X225084Y180314D01*
X225534Y180539D01*
X228008Y182091D02*
X228233D01*
X228683Y182316D01*
X228908Y182541D01*
X229133Y182991D01*
Y183891D01*
X228908Y184340D01*
X228683Y184565D01*
X228233Y184790D01*
X227783D01*
X227333Y184565D01*
X226659Y184116D01*
X224410Y181866D01*
Y185015D01*
X228233Y186072D02*
X228458Y186522D01*
X229133Y187197D01*
X224410D01*
X228008Y215972D02*
X228458Y215747D01*
X228908Y215298D01*
X229133Y214848D01*
Y213948D01*
X228908Y213498D01*
X228458Y213048D01*
X228008Y212823D01*
X227333Y212598D01*
X226209D01*
X225534Y212823D01*
X225084Y213048D01*
X224634Y213498D01*
X224410Y213948D01*
Y214848D01*
X224634Y215298D01*
X225084Y215747D01*
X225534Y215972D01*
X228008Y217524D02*
X228233D01*
X228683Y217749D01*
X228908Y217974D01*
X229133Y218424D01*
Y219324D01*
X228908Y219774D01*
X228683Y219998D01*
X228233Y220223D01*
X227783D01*
X227333Y219998D01*
X226659Y219549D01*
X224410Y217299D01*
Y220448D01*
X229133Y221955D02*
Y224429D01*
X227333Y223080D01*
Y223755D01*
X227109Y224204D01*
X226884Y224429D01*
X226209Y224654D01*
X225759D01*
X225084Y224429D01*
X224634Y223980D01*
X224410Y223305D01*
Y222630D01*
X224634Y221955D01*
X224859Y221730D01*
X225309Y221505D01*
X263441Y176602D02*
X263891Y176377D01*
X264341Y175927D01*
X264566Y175478D01*
Y174578D01*
X264341Y174128D01*
X263891Y173678D01*
X263441Y173453D01*
X262767Y173228D01*
X261642D01*
X260967Y173453D01*
X260517Y173678D01*
X260068Y174128D01*
X259842Y174578D01*
Y175478D01*
X260068Y175927D01*
X260517Y176377D01*
X260967Y176602D01*
X263441Y178154D02*
X263666D01*
X264116Y178379D01*
X264341Y178604D01*
X264566Y179054D01*
Y179954D01*
X264341Y180403D01*
X264116Y180628D01*
X263666Y180853D01*
X263216D01*
X262767Y180628D01*
X262092Y180178D01*
X259842Y177929D01*
Y181078D01*
X264566Y184834D02*
Y182585D01*
X262542Y182360D01*
X262767Y182585D01*
X262991Y183260D01*
Y183935D01*
X262767Y184609D01*
X262317Y185059D01*
X261642Y185284D01*
X261192D01*
X260517Y185059D01*
X260068Y184609D01*
X259842Y183935D01*
Y183260D01*
X260068Y182585D01*
X260292Y182360D01*
X260742Y182135D01*
X271315Y176602D02*
X271765Y176377D01*
X272215Y175927D01*
X272440Y175478D01*
Y174578D01*
X272215Y174128D01*
X271765Y173678D01*
X271315Y173453D01*
X270640Y173228D01*
X269516D01*
X268841Y173453D01*
X268391Y173678D01*
X267941Y174128D01*
X267717Y174578D01*
Y175478D01*
X267941Y175927D01*
X268391Y176377D01*
X268841Y176602D01*
X271315Y178154D02*
X271540D01*
X271990Y178379D01*
X272215Y178604D01*
X272440Y179054D01*
Y179954D01*
X272215Y180403D01*
X271990Y180628D01*
X271540Y180853D01*
X271090D01*
X270640Y180628D01*
X269966Y180178D01*
X267717Y177929D01*
Y181078D01*
X271765Y184834D02*
X272215Y184609D01*
X272440Y183935D01*
Y183485D01*
X272215Y182810D01*
X271540Y182360D01*
X270416Y182135D01*
X269291D01*
X268391Y182360D01*
X267941Y182810D01*
X267717Y183485D01*
Y183710D01*
X267941Y184385D01*
X268391Y184834D01*
X269066Y185059D01*
X269291D01*
X269966Y184834D01*
X270416Y184385D01*
X270640Y183710D01*
Y183485D01*
X270416Y182810D01*
X269966Y182360D01*
X269291Y182135D01*
X263441Y212035D02*
X263891Y211810D01*
X264341Y211361D01*
X264566Y210911D01*
Y210011D01*
X264341Y209561D01*
X263891Y209111D01*
X263441Y208886D01*
X262767Y208661D01*
X261642D01*
X260967Y208886D01*
X260517Y209111D01*
X260068Y209561D01*
X259842Y210011D01*
Y210911D01*
X260068Y211361D01*
X260517Y211810D01*
X260967Y212035D01*
X263441Y213587D02*
X263666D01*
X264116Y213812D01*
X264341Y214037D01*
X264566Y214487D01*
Y215387D01*
X264341Y215837D01*
X264116Y216061D01*
X263666Y216286D01*
X263216D01*
X262767Y216061D01*
X262092Y215612D01*
X259842Y213362D01*
Y216511D01*
X264566Y220717D02*
X259842Y218468D01*
X264566Y217568D02*
Y220717D01*
X271315Y212035D02*
X271765Y211810D01*
X272215Y211361D01*
X272440Y210911D01*
Y210011D01*
X272215Y209561D01*
X271765Y209111D01*
X271315Y208886D01*
X270640Y208661D01*
X269516D01*
X268841Y208886D01*
X268391Y209111D01*
X267941Y209561D01*
X267717Y210011D01*
Y210911D01*
X267941Y211361D01*
X268391Y211810D01*
X268841Y212035D01*
X271315Y213587D02*
X271540D01*
X271990Y213812D01*
X272215Y214037D01*
X272440Y214487D01*
Y215387D01*
X272215Y215837D01*
X271990Y216061D01*
X271540Y216286D01*
X271090D01*
X270640Y216061D01*
X269966Y215612D01*
X267717Y213362D01*
Y216511D01*
X272440Y218693D02*
X272215Y218018D01*
X271765Y217793D01*
X271315D01*
X270866Y218018D01*
X270640Y218468D01*
X270416Y219368D01*
X270191Y220043D01*
X269741Y220492D01*
X269291Y220717D01*
X268616D01*
X268166Y220492D01*
X267941Y220268D01*
X267717Y219593D01*
Y218693D01*
X267941Y218018D01*
X268166Y217793D01*
X268616Y217568D01*
X269291D01*
X269741Y217793D01*
X270191Y218243D01*
X270416Y218918D01*
X270640Y219818D01*
X270866Y220268D01*
X271315Y220492D01*
X271765D01*
X272215Y220268D01*
X272440Y219593D01*
Y218693D01*
X200449Y184476D02*
X200899Y184251D01*
X201349Y183801D01*
X201574Y183352D01*
Y182452D01*
X201349Y182002D01*
X200899Y181552D01*
X200449Y181327D01*
X199774Y181102D01*
X198650D01*
X197975Y181327D01*
X197525Y181552D01*
X197075Y182002D01*
X196850Y182452D01*
Y183352D01*
X197075Y183801D01*
X197525Y184251D01*
X197975Y184476D01*
X200449Y186028D02*
X200674D01*
X201124Y186253D01*
X201349Y186478D01*
X201574Y186928D01*
Y187828D01*
X201349Y188277D01*
X201124Y188502D01*
X200674Y188727D01*
X200224D01*
X199774Y188502D01*
X199100Y188052D01*
X196850Y185803D01*
Y188952D01*
X199999Y192933D02*
X199325Y192708D01*
X198875Y192259D01*
X198650Y191584D01*
Y191359D01*
X198875Y190684D01*
X199325Y190234D01*
X199999Y190009D01*
X200224D01*
X200899Y190234D01*
X201349Y190684D01*
X201574Y191359D01*
Y191584D01*
X201349Y192259D01*
X200899Y192708D01*
X199999Y192933D01*
X198875D01*
X197750Y192708D01*
X197075Y192259D01*
X196850Y191584D01*
Y191134D01*
X197075Y190459D01*
X197525Y190234D01*
X200449Y219909D02*
X200899Y219684D01*
X201349Y219234D01*
X201574Y218785D01*
Y217885D01*
X201349Y217435D01*
X200899Y216985D01*
X200449Y216760D01*
X199774Y216535D01*
X198650D01*
X197975Y216760D01*
X197525Y216985D01*
X197075Y217435D01*
X196850Y217885D01*
Y218785D01*
X197075Y219234D01*
X197525Y219684D01*
X197975Y219909D01*
X201574Y221686D02*
Y224160D01*
X199774Y222811D01*
Y223486D01*
X199549Y223935D01*
X199325Y224160D01*
X198650Y224385D01*
X198200D01*
X197525Y224160D01*
X197075Y223710D01*
X196850Y223036D01*
Y222361D01*
X197075Y221686D01*
X197300Y221461D01*
X197750Y221236D01*
X201574Y226792D02*
X201349Y226117D01*
X200674Y225667D01*
X199549Y225442D01*
X198875D01*
X197750Y225667D01*
X197075Y226117D01*
X196850Y226792D01*
Y227242D01*
X197075Y227917D01*
X197750Y228366D01*
X198875Y228591D01*
X199549D01*
X200674Y228366D01*
X201349Y227917D01*
X201574Y227242D01*
Y226792D01*
X228008Y251405D02*
X228458Y251180D01*
X228908Y250731D01*
X229133Y250281D01*
Y249381D01*
X228908Y248931D01*
X228458Y248481D01*
X228008Y248256D01*
X227333Y248031D01*
X226209D01*
X225534Y248256D01*
X225084Y248481D01*
X224634Y248931D01*
X224410Y249381D01*
Y250281D01*
X224634Y250731D01*
X225084Y251180D01*
X225534Y251405D01*
X229133Y253182D02*
Y255656D01*
X227333Y254307D01*
Y254982D01*
X227109Y255432D01*
X226884Y255656D01*
X226209Y255881D01*
X225759D01*
X225084Y255656D01*
X224634Y255207D01*
X224410Y254532D01*
Y253857D01*
X224634Y253182D01*
X224859Y252957D01*
X225309Y252732D01*
X228233Y256939D02*
X228458Y257388D01*
X229133Y258063D01*
X224410D01*
X228008Y282901D02*
X228458Y282677D01*
X228908Y282227D01*
X229133Y281777D01*
Y280877D01*
X228908Y280427D01*
X228458Y279977D01*
X228008Y279752D01*
X227333Y279528D01*
X226209D01*
X225534Y279752D01*
X225084Y279977D01*
X224634Y280427D01*
X224410Y280877D01*
Y281777D01*
X224634Y282227D01*
X225084Y282677D01*
X225534Y282901D01*
X229133Y284678D02*
Y287153D01*
X227333Y285803D01*
Y286478D01*
X227109Y286928D01*
X226884Y287153D01*
X226209Y287377D01*
X225759D01*
X225084Y287153D01*
X224634Y286703D01*
X224410Y286028D01*
Y285353D01*
X224634Y284678D01*
X224859Y284453D01*
X225309Y284228D01*
X229133Y288884D02*
Y291359D01*
X227333Y290009D01*
Y290684D01*
X227109Y291134D01*
X226884Y291359D01*
X226209Y291583D01*
X225759D01*
X225084Y291359D01*
X224634Y290909D01*
X224410Y290234D01*
Y289559D01*
X224634Y288884D01*
X224859Y288660D01*
X225309Y288435D01*
X263441Y247468D02*
X263891Y247243D01*
X264341Y246794D01*
X264566Y246344D01*
Y245444D01*
X264341Y244994D01*
X263891Y244544D01*
X263441Y244319D01*
X262767Y244094D01*
X261642D01*
X260967Y244319D01*
X260517Y244544D01*
X260068Y244994D01*
X259842Y245444D01*
Y246344D01*
X260068Y246794D01*
X260517Y247243D01*
X260967Y247468D01*
X264566Y249245D02*
Y251719D01*
X262767Y250370D01*
Y251045D01*
X262542Y251495D01*
X262317Y251719D01*
X261642Y251944D01*
X261192D01*
X260517Y251719D01*
X260068Y251270D01*
X259842Y250595D01*
Y249920D01*
X260068Y249245D01*
X260292Y249020D01*
X260742Y248795D01*
X264566Y255701D02*
Y253451D01*
X262542Y253226D01*
X262767Y253451D01*
X262991Y254126D01*
Y254801D01*
X262767Y255476D01*
X262317Y255925D01*
X261642Y256150D01*
X261192D01*
X260517Y255925D01*
X260068Y255476D01*
X259842Y254801D01*
Y254126D01*
X260068Y253451D01*
X260292Y253226D01*
X260742Y253001D01*
X271315Y247468D02*
X271765Y247243D01*
X272215Y246794D01*
X272440Y246344D01*
Y245444D01*
X272215Y244994D01*
X271765Y244544D01*
X271315Y244319D01*
X270640Y244094D01*
X269516D01*
X268841Y244319D01*
X268391Y244544D01*
X267941Y244994D01*
X267717Y245444D01*
Y246344D01*
X267941Y246794D01*
X268391Y247243D01*
X268841Y247468D01*
X272440Y249245D02*
Y251719D01*
X270640Y250370D01*
Y251045D01*
X270416Y251495D01*
X270191Y251719D01*
X269516Y251944D01*
X269066D01*
X268391Y251719D01*
X267941Y251270D01*
X267717Y250595D01*
Y249920D01*
X267941Y249245D01*
X268166Y249020D01*
X268616Y248795D01*
X271765Y255701D02*
X272215Y255476D01*
X272440Y254801D01*
Y254351D01*
X272215Y253676D01*
X271540Y253226D01*
X270416Y253001D01*
X269291D01*
X268391Y253226D01*
X267941Y253676D01*
X267717Y254351D01*
Y254576D01*
X267941Y255251D01*
X268391Y255701D01*
X269066Y255925D01*
X269291D01*
X269966Y255701D01*
X270416Y255251D01*
X270640Y254576D01*
Y254351D01*
X270416Y253676D01*
X269966Y253226D01*
X269291Y253001D01*
X263441Y282901D02*
X263891Y282677D01*
X264341Y282227D01*
X264566Y281777D01*
Y280877D01*
X264341Y280427D01*
X263891Y279977D01*
X263441Y279752D01*
X262767Y279528D01*
X261642D01*
X260967Y279752D01*
X260517Y279977D01*
X260068Y280427D01*
X259842Y280877D01*
Y281777D01*
X260068Y282227D01*
X260517Y282677D01*
X260967Y282901D01*
X264566Y284678D02*
Y287153D01*
X262767Y285803D01*
Y286478D01*
X262542Y286928D01*
X262317Y287153D01*
X261642Y287377D01*
X261192D01*
X260517Y287153D01*
X260068Y286703D01*
X259842Y286028D01*
Y285353D01*
X260068Y284678D01*
X260292Y284453D01*
X260742Y284228D01*
X264566Y291583D02*
X259842Y289334D01*
X264566Y288435D02*
Y291583D01*
X271315Y282901D02*
X271765Y282677D01*
X272215Y282227D01*
X272440Y281777D01*
Y280877D01*
X272215Y280427D01*
X271765Y279977D01*
X271315Y279752D01*
X270640Y279528D01*
X269516D01*
X268841Y279752D01*
X268391Y279977D01*
X267941Y280427D01*
X267717Y280877D01*
Y281777D01*
X267941Y282227D01*
X268391Y282677D01*
X268841Y282901D01*
X272440Y284678D02*
Y287153D01*
X270640Y285803D01*
Y286478D01*
X270416Y286928D01*
X270191Y287153D01*
X269516Y287377D01*
X269066D01*
X268391Y287153D01*
X267941Y286703D01*
X267717Y286028D01*
Y285353D01*
X267941Y284678D01*
X268166Y284453D01*
X268616Y284228D01*
X272440Y289559D02*
X272215Y288884D01*
X271765Y288660D01*
X271315D01*
X270866Y288884D01*
X270640Y289334D01*
X270416Y290234D01*
X270191Y290909D01*
X269741Y291359D01*
X269291Y291583D01*
X268616D01*
X268166Y291359D01*
X267941Y291134D01*
X267717Y290459D01*
Y289559D01*
X267941Y288884D01*
X268166Y288660D01*
X268616Y288435D01*
X269291D01*
X269741Y288660D01*
X270191Y289109D01*
X270416Y289784D01*
X270640Y290684D01*
X270866Y291134D01*
X271315Y291359D01*
X271765D01*
X272215Y291134D01*
X272440Y290459D01*
Y289559D01*
X200449Y253374D02*
X200899Y253149D01*
X201349Y252699D01*
X201574Y252249D01*
Y251349D01*
X201349Y250900D01*
X200899Y250450D01*
X200449Y250225D01*
X199774Y250000D01*
X198650D01*
X197975Y250225D01*
X197525Y250450D01*
X197075Y250900D01*
X196850Y251349D01*
Y252249D01*
X197075Y252699D01*
X197525Y253149D01*
X197975Y253374D01*
X201574Y255151D02*
Y257625D01*
X199774Y256275D01*
Y256950D01*
X199549Y257400D01*
X199325Y257625D01*
X198650Y257850D01*
X198200D01*
X197525Y257625D01*
X197075Y257175D01*
X196850Y256500D01*
Y255825D01*
X197075Y255151D01*
X197300Y254926D01*
X197750Y254701D01*
X199999Y261831D02*
X199325Y261606D01*
X198875Y261156D01*
X198650Y260481D01*
Y260257D01*
X198875Y259582D01*
X199325Y259132D01*
X199999Y258907D01*
X200224D01*
X200899Y259132D01*
X201349Y259582D01*
X201574Y260257D01*
Y260481D01*
X201349Y261156D01*
X200899Y261606D01*
X199999Y261831D01*
X198875D01*
X197750Y261606D01*
X197075Y261156D01*
X196850Y260481D01*
Y260032D01*
X197075Y259357D01*
X197525Y259132D01*
X200449Y290775D02*
X200899Y290550D01*
X201349Y290101D01*
X201574Y289651D01*
Y288751D01*
X201349Y288301D01*
X200899Y287851D01*
X200449Y287627D01*
X199774Y287402D01*
X198650D01*
X197975Y287627D01*
X197525Y287851D01*
X197075Y288301D01*
X196850Y288751D01*
Y289651D01*
X197075Y290101D01*
X197525Y290550D01*
X197975Y290775D01*
X201574Y294352D02*
X198425Y292103D01*
Y295476D01*
X201574Y294352D02*
X196850D01*
X201574Y297658D02*
X201349Y296983D01*
X200674Y296533D01*
X199549Y296309D01*
X198875D01*
X197750Y296533D01*
X197075Y296983D01*
X196850Y297658D01*
Y298108D01*
X197075Y298783D01*
X197750Y299233D01*
X198875Y299458D01*
X199549D01*
X200674Y299233D01*
X201349Y298783D01*
X201574Y298108D01*
Y297658D01*
X269347Y115579D02*
X269797Y115354D01*
X270247Y114904D01*
X270471Y114454D01*
Y113554D01*
X270247Y113104D01*
X269797Y112655D01*
X269347Y112430D01*
X268672Y112205D01*
X267547D01*
X266873Y112430D01*
X266423Y112655D01*
X265973Y113104D01*
X265748Y113554D01*
Y114454D01*
X265973Y114904D01*
X266423Y115354D01*
X266873Y115579D01*
X270471Y119155D02*
X267322Y116906D01*
Y120280D01*
X270471Y119155D02*
X265748D01*
X269572Y121112D02*
X269797Y121562D01*
X270471Y122236D01*
X265748D01*
X269347Y160854D02*
X269797Y160629D01*
X270247Y160179D01*
X270471Y159730D01*
Y158830D01*
X270247Y158380D01*
X269797Y157930D01*
X269347Y157705D01*
X268672Y157480D01*
X267547D01*
X266873Y157705D01*
X266423Y157930D01*
X265973Y158380D01*
X265748Y158830D01*
Y159730D01*
X265973Y160179D01*
X266423Y160629D01*
X266873Y160854D01*
X270471Y164430D02*
X267322Y162181D01*
Y165555D01*
X270471Y164430D02*
X265748D01*
X269347Y166612D02*
X269572D01*
X270022Y166837D01*
X270247Y167062D01*
X270471Y167512D01*
Y168412D01*
X270247Y168861D01*
X270022Y169086D01*
X269572Y169311D01*
X269122D01*
X268672Y169086D01*
X267997Y168637D01*
X265748Y166387D01*
Y169536D01*
X215130Y155174D02*
X215355Y155623D01*
X215805Y156073D01*
X216255Y156298D01*
X217154D01*
X217604Y156073D01*
X218054Y155623D01*
X218279Y155174D01*
X218504Y154499D01*
Y153374D01*
X218279Y152699D01*
X218054Y152250D01*
X217604Y151800D01*
X217154Y151575D01*
X216255D01*
X215805Y151800D01*
X215355Y152250D01*
X215130Y152699D01*
X211554Y156298D02*
X213803Y153149D01*
X210429D01*
X211554Y156298D02*
Y151575D01*
X209147Y156298D02*
X206673D01*
X208022Y154499D01*
X207348D01*
X206898Y154274D01*
X206673Y154049D01*
X206448Y153374D01*
Y152924D01*
X206673Y152250D01*
X207123Y151800D01*
X207798Y151575D01*
X208472D01*
X209147Y151800D01*
X209372Y152025D01*
X209597Y152474D01*
X152138Y151237D02*
X152363Y151686D01*
X152813Y152136D01*
X153263Y152361D01*
X154162D01*
X154612Y152136D01*
X155062Y151686D01*
X155287Y151237D01*
X155512Y150562D01*
Y149437D01*
X155287Y148762D01*
X155062Y148313D01*
X154612Y147863D01*
X154162Y147638D01*
X153263D01*
X152813Y147863D01*
X152363Y148313D01*
X152138Y148762D01*
X148562Y152361D02*
X150811Y149212D01*
X147437D01*
X148562Y152361D02*
Y147638D01*
X144356Y152361D02*
X146605Y149212D01*
X143231D01*
X144356Y152361D02*
Y147638D01*
X152138Y159111D02*
X152363Y159560D01*
X152813Y160010D01*
X153263Y160235D01*
X154162D01*
X154612Y160010D01*
X155062Y159560D01*
X155287Y159111D01*
X155512Y158436D01*
Y157311D01*
X155287Y156636D01*
X155062Y156187D01*
X154612Y155737D01*
X154162Y155512D01*
X153263D01*
X152813Y155737D01*
X152363Y156187D01*
X152138Y156636D01*
X148562Y160235D02*
X150811Y157086D01*
X147437D01*
X148562Y160235D02*
Y155512D01*
X143906Y160235D02*
X146155D01*
X146380Y158211D01*
X146155Y158436D01*
X145480Y158661D01*
X144805D01*
X144131Y158436D01*
X143681Y157986D01*
X143456Y157311D01*
Y156861D01*
X143681Y156187D01*
X144131Y155737D01*
X144805Y155512D01*
X145480D01*
X146155Y155737D01*
X146380Y155962D01*
X146605Y156412D01*
X215130Y143363D02*
X215355Y143812D01*
X215805Y144262D01*
X216255Y144487D01*
X217154D01*
X217604Y144262D01*
X218054Y143812D01*
X218279Y143363D01*
X218504Y142688D01*
Y141563D01*
X218279Y140888D01*
X218054Y140439D01*
X217604Y139989D01*
X217154Y139764D01*
X216255D01*
X215805Y139989D01*
X215355Y140439D01*
X215130Y140888D01*
X211554Y144487D02*
X213803Y141338D01*
X210429D01*
X211554Y144487D02*
Y139764D01*
X206898Y143812D02*
X207123Y144262D01*
X207798Y144487D01*
X208247D01*
X208922Y144262D01*
X209372Y143588D01*
X209597Y142463D01*
Y141338D01*
X209372Y140439D01*
X208922Y139989D01*
X208247Y139764D01*
X208022D01*
X207348Y139989D01*
X206898Y140439D01*
X206673Y141113D01*
Y141338D01*
X206898Y142013D01*
X207348Y142463D01*
X208022Y142688D01*
X208247D01*
X208922Y142463D01*
X209372Y142013D01*
X209597Y141338D01*
X357929Y149043D02*
X358379Y148818D01*
X358829Y148368D01*
X359054Y147918D01*
Y147019D01*
X358829Y146569D01*
X358379Y146119D01*
X357929Y145894D01*
X357255Y145669D01*
X356130D01*
X355455Y145894D01*
X355006Y146119D01*
X354556Y146569D01*
X354331Y147019D01*
Y147918D01*
X354556Y148368D01*
X355006Y148818D01*
X355455Y149043D01*
X359054Y152619D02*
X355905Y150370D01*
Y153744D01*
X359054Y152619D02*
X354331D01*
X357480Y157500D02*
X356805Y157275D01*
X356355Y156825D01*
X356130Y156151D01*
Y155926D01*
X356355Y155251D01*
X356805Y154801D01*
X357480Y154576D01*
X357705D01*
X358379Y154801D01*
X358829Y155251D01*
X359054Y155926D01*
Y156151D01*
X358829Y156825D01*
X358379Y157275D01*
X357480Y157500D01*
X356355D01*
X355230Y157275D01*
X354556Y156825D01*
X354331Y156151D01*
Y155701D01*
X354556Y155026D01*
X355006Y154801D01*
X357929Y62429D02*
X358379Y62204D01*
X358829Y61754D01*
X359054Y61304D01*
Y60405D01*
X358829Y59955D01*
X358379Y59505D01*
X357929Y59280D01*
X357255Y59055D01*
X356130D01*
X355455Y59280D01*
X355006Y59505D01*
X354556Y59955D01*
X354331Y60405D01*
Y61304D01*
X354556Y61754D01*
X355006Y62204D01*
X355455Y62429D01*
X359054Y66455D02*
Y64206D01*
X357030Y63981D01*
X357255Y64206D01*
X357480Y64881D01*
Y65555D01*
X357255Y66230D01*
X356805Y66680D01*
X356130Y66905D01*
X355680D01*
X355006Y66680D01*
X354556Y66230D01*
X354331Y65555D01*
Y64881D01*
X354556Y64206D01*
X354781Y63981D01*
X355230Y63756D01*
X359054Y69312D02*
X358829Y68637D01*
X358154Y68187D01*
X357030Y67962D01*
X356355D01*
X355230Y68187D01*
X354556Y68637D01*
X354331Y69312D01*
Y69762D01*
X354556Y70436D01*
X355230Y70886D01*
X356355Y71111D01*
X357030D01*
X358154Y70886D01*
X358829Y70436D01*
X359054Y69762D01*
Y69312D01*
X357929Y107705D02*
X358379Y107480D01*
X358829Y107030D01*
X359054Y106580D01*
Y105680D01*
X358829Y105230D01*
X358379Y104781D01*
X357929Y104556D01*
X357255Y104331D01*
X356130D01*
X355455Y104556D01*
X355006Y104781D01*
X354556Y105230D01*
X354331Y105680D01*
Y106580D01*
X354556Y107030D01*
X355006Y107480D01*
X355455Y107705D01*
X359054Y111731D02*
Y109482D01*
X357030Y109256D01*
X357255Y109482D01*
X357480Y110156D01*
Y110831D01*
X357255Y111506D01*
X356805Y111956D01*
X356130Y112180D01*
X355680D01*
X355006Y111956D01*
X354556Y111506D01*
X354331Y110831D01*
Y110156D01*
X354556Y109482D01*
X354781Y109256D01*
X355230Y109032D01*
X359054Y113688D02*
Y116162D01*
X357255Y114812D01*
Y115487D01*
X357030Y115937D01*
X356805Y116162D01*
X356130Y116387D01*
X355680D01*
X355006Y116162D01*
X354556Y115712D01*
X354331Y115037D01*
Y114362D01*
X354556Y113688D01*
X354781Y113463D01*
X355230Y113238D01*
X228910Y344150D02*
X229134Y344600D01*
X229584Y345050D01*
X230034Y345275D01*
X230934D01*
X231384Y345050D01*
X231834Y344600D01*
X232059Y344150D01*
X232283Y343475D01*
Y342351D01*
X232059Y341676D01*
X231834Y341226D01*
X231384Y340776D01*
X230934Y340551D01*
X230034D01*
X229584Y340776D01*
X229134Y341226D01*
X228910Y341676D01*
X225333Y345275D02*
X227583Y342126D01*
X224209D01*
X225333Y345275D02*
Y340551D01*
X220228Y345275D02*
X222477Y340551D01*
X223376Y345275D02*
X220228D01*
X228910Y328402D02*
X229134Y328852D01*
X229584Y329302D01*
X230034Y329526D01*
X230934D01*
X231384Y329302D01*
X231834Y328852D01*
X232059Y328402D01*
X232283Y327727D01*
Y326603D01*
X232059Y325928D01*
X231834Y325478D01*
X231384Y325028D01*
X230934Y324803D01*
X230034D01*
X229584Y325028D01*
X229134Y325478D01*
X228910Y325928D01*
X225333Y329526D02*
X227583Y326378D01*
X224209D01*
X225333Y329526D02*
Y324803D01*
X222252Y329526D02*
X222927Y329302D01*
X223152Y328852D01*
Y328402D01*
X222927Y327952D01*
X222477Y327727D01*
X221577Y327502D01*
X220902Y327277D01*
X220452Y326828D01*
X220228Y326378D01*
Y325703D01*
X220452Y325253D01*
X220677Y325028D01*
X221352Y324803D01*
X222252D01*
X222927Y325028D01*
X223152Y325253D01*
X223376Y325703D01*
Y326378D01*
X223152Y326828D01*
X222702Y327277D01*
X222027Y327502D01*
X221127Y327727D01*
X220677Y327952D01*
X220452Y328402D01*
Y328852D01*
X220677Y329302D01*
X221352Y329526D01*
X222252D01*
X237007Y177165D02*
X233633D01*
X232958Y177390D01*
X232508Y177840D01*
X232283Y178515D01*
Y178965D01*
X232508Y179639D01*
X232958Y180089D01*
X233633Y180314D01*
X237007D01*
Y184768D02*
X232283Y182518D01*
X237007Y181619D02*
Y184768D01*
Y212598D02*
X233633D01*
X232958Y212823D01*
X232508Y213273D01*
X232283Y213948D01*
Y214398D01*
X232508Y215073D01*
X232958Y215522D01*
X233633Y215747D01*
X237007D01*
Y218177D02*
X236782Y217502D01*
X236332Y217277D01*
X235882D01*
X235432Y217502D01*
X235208Y217952D01*
X234982Y218851D01*
X234758Y219526D01*
X234308Y219976D01*
X233858Y220201D01*
X233183D01*
X232733Y219976D01*
X232508Y219751D01*
X232283Y219076D01*
Y218177D01*
X232508Y217502D01*
X232733Y217277D01*
X233183Y217052D01*
X233858D01*
X234308Y217277D01*
X234758Y217727D01*
X234982Y218402D01*
X235208Y219301D01*
X235432Y219751D01*
X235882Y219976D01*
X236332D01*
X236782Y219751D01*
X237007Y219076D01*
Y218177D01*
Y248031D02*
X233633D01*
X232958Y248256D01*
X232508Y248706D01*
X232283Y249381D01*
Y249831D01*
X232508Y250506D01*
X232958Y250956D01*
X233633Y251180D01*
X237007D01*
X235432Y255409D02*
X234758Y255184D01*
X234308Y254734D01*
X234083Y254060D01*
Y253835D01*
X234308Y253160D01*
X234758Y252710D01*
X235432Y252485D01*
X235657D01*
X236332Y252710D01*
X236782Y253160D01*
X237007Y253835D01*
Y254060D01*
X236782Y254734D01*
X236332Y255184D01*
X235432Y255409D01*
X234308D01*
X233183Y255184D01*
X232508Y254734D01*
X232283Y254060D01*
Y253610D01*
X232508Y252935D01*
X232958Y252710D01*
X237007Y279528D02*
X233633D01*
X232958Y279752D01*
X232508Y280202D01*
X232283Y280877D01*
Y281327D01*
X232508Y282002D01*
X232958Y282452D01*
X233633Y282677D01*
X237007D01*
X236107Y283981D02*
X236332Y284431D01*
X237007Y285106D01*
X232283D01*
X237007Y288794D02*
X236782Y288120D01*
X236107Y287670D01*
X234982Y287445D01*
X234308D01*
X233183Y287670D01*
X232508Y288120D01*
X232283Y288794D01*
Y289244D01*
X232508Y289919D01*
X233183Y290369D01*
X234308Y290594D01*
X234982D01*
X236107Y290369D01*
X236782Y289919D01*
X237007Y289244D01*
Y288794D01*
X164172Y181102D02*
X159449D01*
X164172D02*
Y183127D01*
X163947Y183801D01*
X163722Y184026D01*
X163273Y184251D01*
X162823D01*
X162373Y184026D01*
X162148Y183801D01*
X161923Y183127D01*
Y181102D01*
Y182677D02*
X159449Y184251D01*
X163273Y185308D02*
X163497Y185758D01*
X164172Y186433D01*
X159449D01*
X125984Y156298D02*
Y151575D01*
Y156298D02*
X123960D01*
X123285Y156073D01*
X123060Y155848D01*
X122835Y155398D01*
Y154949D01*
X123060Y154499D01*
X123285Y154274D01*
X123960Y154049D01*
X125984D01*
X124410D02*
X122835Y151575D01*
X121553Y155174D02*
Y155398D01*
X121328Y155848D01*
X121103Y156073D01*
X120654Y156298D01*
X119754D01*
X119304Y156073D01*
X119079Y155848D01*
X118854Y155398D01*
Y154949D01*
X119079Y154499D01*
X119529Y153824D01*
X121778Y151575D01*
X118629D01*
X201574Y200787D02*
X196850D01*
X201574D02*
Y202812D01*
X201349Y203486D01*
X201124Y203711D01*
X200674Y203936D01*
X200224D01*
X199774Y203711D01*
X199549Y203486D01*
X199325Y202812D01*
Y200787D01*
Y202362D02*
X196850Y203936D01*
X201574Y205443D02*
Y207917D01*
X199774Y206568D01*
Y207243D01*
X199549Y207693D01*
X199325Y207917D01*
X198650Y208142D01*
X198200D01*
X197525Y207917D01*
X197075Y207468D01*
X196850Y206793D01*
Y206118D01*
X197075Y205443D01*
X197300Y205218D01*
X197750Y204994D01*
X164172Y169291D02*
X159449D01*
X164172D02*
Y171316D01*
X163947Y171990D01*
X163722Y172215D01*
X163273Y172440D01*
X162823D01*
X162373Y172215D01*
X162148Y171990D01*
X161923Y171316D01*
Y169291D01*
Y170866D02*
X159449Y172440D01*
X164172Y175747D02*
X161023Y173497D01*
Y176871D01*
X164172Y175747D02*
X159449D01*
X164172Y204724D02*
X159449D01*
X164172D02*
Y206749D01*
X163947Y207423D01*
X163722Y207648D01*
X163273Y207873D01*
X162823D01*
X162373Y207648D01*
X162148Y207423D01*
X161923Y206749D01*
Y204724D01*
Y206299D02*
X159449Y207873D01*
X163497Y211630D02*
X163947Y211405D01*
X164172Y210730D01*
Y210280D01*
X163947Y209605D01*
X163273Y209155D01*
X162148Y208930D01*
X161023D01*
X160124Y209155D01*
X159674Y209605D01*
X159449Y210280D01*
Y210505D01*
X159674Y211180D01*
X160124Y211630D01*
X160798Y211855D01*
X161023D01*
X161698Y211630D01*
X162148Y211180D01*
X162373Y210505D01*
Y210280D01*
X162148Y209605D01*
X161698Y209155D01*
X161023Y208930D01*
X125984Y242912D02*
Y238189D01*
Y242912D02*
X123960D01*
X123285Y242687D01*
X123060Y242462D01*
X122835Y242013D01*
Y241563D01*
X123060Y241113D01*
X123285Y240888D01*
X123960Y240663D01*
X125984D01*
X124410D02*
X122835Y238189D01*
X118629Y242912D02*
X120879Y238189D01*
X121778Y242912D02*
X118629D01*
X201574Y236221D02*
X196850D01*
X201574D02*
Y238245D01*
X201349Y238919D01*
X201124Y239144D01*
X200674Y239369D01*
X200224D01*
X199774Y239144D01*
X199549Y238919D01*
X199325Y238245D01*
Y236221D01*
Y237795D02*
X196850Y239369D01*
X201574Y241551D02*
X201349Y240876D01*
X200899Y240651D01*
X200449D01*
X199999Y240876D01*
X199774Y241326D01*
X199549Y242226D01*
X199325Y242901D01*
X198875Y243351D01*
X198425Y243576D01*
X197750D01*
X197300Y243351D01*
X197075Y243126D01*
X196850Y242451D01*
Y241551D01*
X197075Y240876D01*
X197300Y240651D01*
X197750Y240426D01*
X198425D01*
X198875Y240651D01*
X199325Y241101D01*
X199549Y241776D01*
X199774Y242676D01*
X199999Y243126D01*
X200449Y243351D01*
X200899D01*
X201349Y243126D01*
X201574Y242451D01*
Y241551D01*
X164172Y220472D02*
X159449D01*
X164172D02*
Y222497D01*
X163947Y223171D01*
X163722Y223396D01*
X163273Y223621D01*
X162823D01*
X162373Y223396D01*
X162148Y223171D01*
X161923Y222497D01*
Y220472D01*
Y222047D02*
X159449Y223621D01*
X162598Y227603D02*
X161923Y227378D01*
X161473Y226928D01*
X161248Y226253D01*
Y226028D01*
X161473Y225353D01*
X161923Y224903D01*
X162598Y224678D01*
X162823D01*
X163497Y224903D01*
X163947Y225353D01*
X164172Y226028D01*
Y226253D01*
X163947Y226928D01*
X163497Y227378D01*
X162598Y227603D01*
X161473D01*
X160348Y227378D01*
X159674Y226928D01*
X159449Y226253D01*
Y225803D01*
X159674Y225128D01*
X160124Y224903D01*
X164172Y273622D02*
X159449D01*
X164172D02*
Y275646D01*
X163947Y276321D01*
X163722Y276546D01*
X163273Y276771D01*
X162823D01*
X162373Y276546D01*
X162148Y276321D01*
X161923Y275646D01*
Y273622D01*
Y275197D02*
X159449Y276771D01*
X163273Y277828D02*
X163497Y278278D01*
X164172Y278953D01*
X159449D01*
X163273Y281292D02*
X163497Y281742D01*
X164172Y282417D01*
X159449D01*
X131890Y270471D02*
Y265748D01*
Y270471D02*
X129866D01*
X129191Y270247D01*
X128966Y270022D01*
X128741Y269572D01*
Y269122D01*
X128966Y268672D01*
X129191Y268447D01*
X129866Y268222D01*
X131890D01*
X130315D02*
X128741Y265748D01*
X127684Y269572D02*
X127234Y269797D01*
X126559Y270471D01*
Y265748D01*
X123995Y269347D02*
Y269572D01*
X123770Y270022D01*
X123545Y270247D01*
X123095Y270471D01*
X122196D01*
X121746Y270247D01*
X121521Y270022D01*
X121296Y269572D01*
Y269122D01*
X121521Y268672D01*
X121971Y267997D01*
X124220Y265748D01*
X121071D01*
X201574Y269685D02*
X196850D01*
X201574D02*
Y271709D01*
X201349Y272384D01*
X201124Y272609D01*
X200674Y272834D01*
X200224D01*
X199774Y272609D01*
X199549Y272384D01*
X199325Y271709D01*
Y269685D01*
Y271259D02*
X196850Y272834D01*
X200674Y273891D02*
X200899Y274341D01*
X201574Y275016D01*
X196850D01*
X201574Y277805D02*
Y280279D01*
X199774Y278929D01*
Y279604D01*
X199549Y280054D01*
X199325Y280279D01*
X198650Y280504D01*
X198200D01*
X197525Y280279D01*
X197075Y279829D01*
X196850Y279154D01*
Y278480D01*
X197075Y277805D01*
X197300Y277580D01*
X197750Y277355D01*
X164172Y255906D02*
X159449D01*
X164172D02*
Y257930D01*
X163947Y258605D01*
X163722Y258829D01*
X163273Y259054D01*
X162823D01*
X162373Y258829D01*
X162148Y258605D01*
X161923Y257930D01*
Y255906D01*
Y257480D02*
X159449Y259054D01*
X163273Y260112D02*
X163497Y260561D01*
X164172Y261236D01*
X159449D01*
X164172Y265825D02*
X161023Y263575D01*
Y266949D01*
X164172Y265825D02*
X159449D01*
X164172Y289370D02*
X159449D01*
X164172D02*
Y291394D01*
X163947Y292069D01*
X163722Y292294D01*
X163273Y292519D01*
X162823D01*
X162373Y292294D01*
X162148Y292069D01*
X161923Y291394D01*
Y289370D01*
Y290945D02*
X159449Y292519D01*
X163273Y293576D02*
X163497Y294026D01*
X164172Y294701D01*
X159449D01*
X163497Y299739D02*
X163947Y299514D01*
X164172Y298839D01*
Y298390D01*
X163947Y297715D01*
X163273Y297265D01*
X162148Y297040D01*
X161023D01*
X160124Y297265D01*
X159674Y297715D01*
X159449Y298390D01*
Y298614D01*
X159674Y299289D01*
X160124Y299739D01*
X160798Y299964D01*
X161023D01*
X161698Y299739D01*
X162148Y299289D01*
X162373Y298614D01*
Y298390D01*
X162148Y297715D01*
X161698Y297265D01*
X161023Y297040D01*
X98425Y309841D02*
Y305118D01*
Y309841D02*
X96401D01*
X95726Y309617D01*
X95501Y309392D01*
X95276Y308942D01*
Y308492D01*
X95501Y308042D01*
X95726Y307817D01*
X96401Y307592D01*
X98425D01*
X96851D02*
X95276Y305118D01*
X94219Y308942D02*
X93769Y309167D01*
X93094Y309841D01*
Y305118D01*
X87606Y309841D02*
X89856Y305118D01*
X90755Y309841D02*
X87606D01*
X201574Y307087D02*
X196850D01*
X201574D02*
Y309111D01*
X201349Y309786D01*
X201124Y310011D01*
X200674Y310236D01*
X200224D01*
X199774Y310011D01*
X199549Y309786D01*
X199325Y309111D01*
Y307087D01*
Y308661D02*
X196850Y310236D01*
X200674Y311293D02*
X200899Y311742D01*
X201574Y312417D01*
X196850D01*
X201574Y315881D02*
X201349Y315206D01*
X200899Y314981D01*
X200449D01*
X199999Y315206D01*
X199774Y315656D01*
X199549Y316556D01*
X199325Y317231D01*
X198875Y317681D01*
X198425Y317905D01*
X197750D01*
X197300Y317681D01*
X197075Y317456D01*
X196850Y316781D01*
Y315881D01*
X197075Y315206D01*
X197300Y314981D01*
X197750Y314756D01*
X198425D01*
X198875Y314981D01*
X199325Y315431D01*
X199549Y316106D01*
X199774Y317006D01*
X199999Y317456D01*
X200449Y317681D01*
X200899D01*
X201349Y317456D01*
X201574Y316781D01*
Y315881D01*
X164172Y307087D02*
X159449D01*
X164172D02*
Y309111D01*
X163947Y309786D01*
X163722Y310011D01*
X163273Y310236D01*
X162823D01*
X162373Y310011D01*
X162148Y309786D01*
X161923Y309111D01*
Y307087D01*
Y308661D02*
X159449Y310236D01*
X163273Y311293D02*
X163497Y311742D01*
X164172Y312417D01*
X159449D01*
X162598Y317681D02*
X161923Y317456D01*
X161473Y317006D01*
X161248Y316331D01*
Y316106D01*
X161473Y315431D01*
X161923Y314981D01*
X162598Y314756D01*
X162823D01*
X163497Y314981D01*
X163947Y315431D01*
X164172Y316106D01*
Y316331D01*
X163947Y317006D01*
X163497Y317456D01*
X162598Y317681D01*
X161473D01*
X160348Y317456D01*
X159674Y317006D01*
X159449Y316331D01*
Y315881D01*
X159674Y315206D01*
X160124Y314981D01*
X223227Y94488D02*
X218504D01*
X223227D02*
Y96513D01*
X223002Y97187D01*
X222778Y97412D01*
X222328Y97637D01*
X221878D01*
X221428Y97412D01*
X221203Y97187D01*
X220978Y96513D01*
Y94488D01*
Y96063D02*
X218504Y97637D01*
X222103Y98919D02*
X222328D01*
X222778Y99144D01*
X223002Y99369D01*
X223227Y99819D01*
Y100719D01*
X223002Y101168D01*
X222778Y101393D01*
X222328Y101618D01*
X221878D01*
X221428Y101393D01*
X220753Y100944D01*
X218504Y98694D01*
Y101843D01*
X222328Y102900D02*
X222553Y103350D01*
X223227Y104025D01*
X218504D01*
X211416Y94488D02*
X206693D01*
X211416D02*
Y96513D01*
X211191Y97187D01*
X210966Y97412D01*
X210517Y97637D01*
X210067D01*
X209617Y97412D01*
X209392Y97187D01*
X209167Y96513D01*
Y94488D01*
Y96063D02*
X206693Y97637D01*
X210292Y98919D02*
X210517D01*
X210966Y99144D01*
X211191Y99369D01*
X211416Y99819D01*
Y100719D01*
X211191Y101168D01*
X210966Y101393D01*
X210517Y101618D01*
X210067D01*
X209617Y101393D01*
X208942Y100944D01*
X206693Y98694D01*
Y101843D01*
X210292Y103125D02*
X210517D01*
X210966Y103350D01*
X211191Y103575D01*
X211416Y104025D01*
Y104925D01*
X211191Y105375D01*
X210966Y105599D01*
X210517Y105824D01*
X210067D01*
X209617Y105599D01*
X208942Y105150D01*
X206693Y102900D01*
Y106049D01*
X235038Y94488D02*
X230315D01*
X235038D02*
Y96513D01*
X234813Y97187D01*
X234589Y97412D01*
X234139Y97637D01*
X233689D01*
X233239Y97412D01*
X233014Y97187D01*
X232789Y96513D01*
Y94488D01*
Y96063D02*
X230315Y97637D01*
X233914Y98919D02*
X234139D01*
X234589Y99144D01*
X234813Y99369D01*
X235038Y99819D01*
Y100719D01*
X234813Y101168D01*
X234589Y101393D01*
X234139Y101618D01*
X233689D01*
X233239Y101393D01*
X232564Y100944D01*
X230315Y98694D01*
Y101843D01*
X235038Y105150D02*
X231889Y102900D01*
Y106274D01*
X235038Y105150D02*
X230315D01*
X202756Y75590D02*
Y70866D01*
Y75590D02*
X200732D01*
X200057Y75365D01*
X199832Y75140D01*
X199607Y74690D01*
Y74240D01*
X199832Y73790D01*
X200057Y73565D01*
X200732Y73340D01*
X202756D01*
X201181D02*
X199607Y70866D01*
X198325Y74465D02*
Y74690D01*
X198100Y75140D01*
X197875Y75365D01*
X197425Y75590D01*
X196526D01*
X196076Y75365D01*
X195851Y75140D01*
X195626Y74690D01*
Y74240D01*
X195851Y73790D01*
X196301Y73115D01*
X198550Y70866D01*
X195401D01*
X191645Y75590D02*
X193894D01*
X194119Y73565D01*
X193894Y73790D01*
X193219Y74015D01*
X192544D01*
X191870Y73790D01*
X191420Y73340D01*
X191195Y72666D01*
Y72216D01*
X191420Y71541D01*
X191870Y71091D01*
X192544Y70866D01*
X193219D01*
X193894Y71091D01*
X194119Y71316D01*
X194344Y71766D01*
X144487Y94488D02*
X139764D01*
X144487D02*
Y96513D01*
X144262Y97187D01*
X144037Y97412D01*
X143588Y97637D01*
X143138D01*
X142688Y97412D01*
X142463Y97187D01*
X142238Y96513D01*
Y94488D01*
Y96063D02*
X139764Y97637D01*
X143363Y98919D02*
X143588D01*
X144037Y99144D01*
X144262Y99369D01*
X144487Y99819D01*
Y100719D01*
X144262Y101168D01*
X144037Y101393D01*
X143588Y101618D01*
X143138D01*
X142688Y101393D01*
X142013Y100944D01*
X139764Y98694D01*
Y101843D01*
X143812Y105599D02*
X144262Y105375D01*
X144487Y104700D01*
Y104250D01*
X144262Y103575D01*
X143588Y103125D01*
X142463Y102900D01*
X141338D01*
X140439Y103125D01*
X139989Y103575D01*
X139764Y104250D01*
Y104475D01*
X139989Y105150D01*
X140439Y105599D01*
X141113Y105824D01*
X141338D01*
X142013Y105599D01*
X142463Y105150D01*
X142688Y104475D01*
Y104250D01*
X142463Y103575D01*
X142013Y103125D01*
X141338Y102900D01*
X156298Y94488D02*
X151575D01*
X156298D02*
Y96513D01*
X156073Y97187D01*
X155848Y97412D01*
X155398Y97637D01*
X154949D01*
X154499Y97412D01*
X154274Y97187D01*
X154049Y96513D01*
Y94488D01*
Y96063D02*
X151575Y97637D01*
X155174Y98919D02*
X155398D01*
X155848Y99144D01*
X156073Y99369D01*
X156298Y99819D01*
Y100719D01*
X156073Y101168D01*
X155848Y101393D01*
X155398Y101618D01*
X154949D01*
X154499Y101393D01*
X153824Y100944D01*
X151575Y98694D01*
Y101843D01*
X156298Y106049D02*
X151575Y103800D01*
X156298Y102900D02*
Y106049D01*
X132676Y94488D02*
X127953D01*
X132676D02*
Y96513D01*
X132451Y97187D01*
X132226Y97412D01*
X131776Y97637D01*
X131327D01*
X130877Y97412D01*
X130652Y97187D01*
X130427Y96513D01*
Y94488D01*
Y96063D02*
X127953Y97637D01*
X131552Y98919D02*
X131776D01*
X132226Y99144D01*
X132451Y99369D01*
X132676Y99819D01*
Y100719D01*
X132451Y101168D01*
X132226Y101393D01*
X131776Y101618D01*
X131327D01*
X130877Y101393D01*
X130202Y100944D01*
X127953Y98694D01*
Y101843D01*
X131102Y105824D02*
X130427Y105599D01*
X129977Y105150D01*
X129752Y104475D01*
Y104250D01*
X129977Y103575D01*
X130427Y103125D01*
X131102Y102900D01*
X131327D01*
X132001Y103125D01*
X132451Y103575D01*
X132676Y104250D01*
Y104475D01*
X132451Y105150D01*
X132001Y105599D01*
X131102Y105824D01*
X129977D01*
X128852Y105599D01*
X128178Y105150D01*
X127953Y104475D01*
Y104025D01*
X128178Y103350D01*
X128628Y103125D01*
X124016Y75590D02*
Y70866D01*
Y75590D02*
X121991D01*
X121317Y75365D01*
X121092Y75140D01*
X120867Y74690D01*
Y74240D01*
X121092Y73790D01*
X121317Y73565D01*
X121991Y73340D01*
X124016D01*
X122441D02*
X120867Y70866D01*
X119360Y75590D02*
X116886D01*
X118235Y73790D01*
X117560D01*
X117111Y73565D01*
X116886Y73340D01*
X116661Y72666D01*
Y72216D01*
X116886Y71541D01*
X117335Y71091D01*
X118010Y70866D01*
X118685D01*
X119360Y71091D01*
X119585Y71316D01*
X119810Y71766D01*
X114254Y75590D02*
X114929Y75365D01*
X115379Y74690D01*
X115604Y73565D01*
Y72890D01*
X115379Y71766D01*
X114929Y71091D01*
X114254Y70866D01*
X113804D01*
X113129Y71091D01*
X112680Y71766D01*
X112455Y72890D01*
Y73565D01*
X112680Y74690D01*
X113129Y75365D01*
X113804Y75590D01*
X114254D01*
X236221Y172046D02*
Y167323D01*
Y172046D02*
X234196D01*
X233521Y171821D01*
X233296Y171596D01*
X233071Y171147D01*
Y170697D01*
X233296Y170247D01*
X233521Y170022D01*
X234196Y169797D01*
X236221D01*
X234646D02*
X233071Y167323D01*
X231565Y172046D02*
X229090D01*
X230440Y170247D01*
X229765D01*
X229315Y170022D01*
X229090Y169797D01*
X228866Y169122D01*
Y168672D01*
X229090Y167998D01*
X229540Y167548D01*
X230215Y167323D01*
X230890D01*
X231565Y167548D01*
X231789Y167773D01*
X232014Y168222D01*
X227808Y171147D02*
X227359Y171371D01*
X226684Y172046D01*
Y167323D01*
X236221Y132676D02*
Y127953D01*
Y132676D02*
X234196D01*
X233521Y132451D01*
X233296Y132226D01*
X233071Y131776D01*
Y131327D01*
X233296Y130877D01*
X233521Y130652D01*
X234196Y130427D01*
X236221D01*
X234646D02*
X233071Y127953D01*
X231565Y132676D02*
X229090D01*
X230440Y130877D01*
X229765D01*
X229315Y130652D01*
X229090Y130427D01*
X228866Y129752D01*
Y129302D01*
X229090Y128628D01*
X229540Y128178D01*
X230215Y127953D01*
X230890D01*
X231565Y128178D01*
X231789Y128403D01*
X232014Y128852D01*
X227583Y131552D02*
Y131776D01*
X227359Y132226D01*
X227134Y132451D01*
X226684Y132676D01*
X225784D01*
X225334Y132451D01*
X225109Y132226D01*
X224884Y131776D01*
Y131327D01*
X225109Y130877D01*
X225559Y130202D01*
X227808Y127953D01*
X224659D01*
X185039Y99212D02*
Y95838D01*
X184815Y95163D01*
X184365Y94713D01*
X183690Y94488D01*
X183240D01*
X182565Y94713D01*
X182115Y95163D01*
X181890Y95838D01*
Y99212D01*
X177887D02*
X180136D01*
X180361Y97187D01*
X180136Y97412D01*
X179461Y97637D01*
X178787D01*
X178112Y97412D01*
X177662Y96962D01*
X177437Y96288D01*
Y95838D01*
X177662Y95163D01*
X178112Y94713D01*
X178787Y94488D01*
X179461D01*
X180136Y94713D01*
X180361Y94938D01*
X180586Y95388D01*
X240158Y61810D02*
Y58436D01*
X239933Y57761D01*
X239483Y57311D01*
X238808Y57087D01*
X238358D01*
X237683Y57311D01*
X237233Y57761D01*
X237009Y58436D01*
Y61810D01*
X233005Y61135D02*
X233230Y61585D01*
X233905Y61810D01*
X234354D01*
X235029Y61585D01*
X235479Y60910D01*
X235704Y59786D01*
Y58661D01*
X235479Y57761D01*
X235029Y57311D01*
X234354Y57087D01*
X234130D01*
X233455Y57311D01*
X233005Y57761D01*
X232780Y58436D01*
Y58661D01*
X233005Y59336D01*
X233455Y59786D01*
X234130Y60011D01*
X234354D01*
X235029Y59786D01*
X235479Y59336D01*
X235704Y58661D01*
X111023Y289606D02*
X107649D01*
X106974Y289831D01*
X106524Y290281D01*
X106299Y290956D01*
Y291406D01*
X106524Y292080D01*
X106974Y292530D01*
X107649Y292755D01*
X111023D01*
Y294510D02*
Y296984D01*
X109223Y295634D01*
Y296309D01*
X108998Y296759D01*
X108773Y296984D01*
X108099Y297209D01*
X107649D01*
X106974Y296984D01*
X106524Y296534D01*
X106299Y295859D01*
Y295184D01*
X106524Y294510D01*
X106749Y294285D01*
X107199Y294060D01*
X174015Y307087D02*
X170641D01*
X169966Y307312D01*
X169516Y307761D01*
X169291Y308436D01*
Y308886D01*
X169516Y309561D01*
X169966Y310011D01*
X170641Y310236D01*
X174015D01*
Y313789D02*
X170866Y311540D01*
Y314914D01*
X174015Y313789D02*
X169291D01*
X256692Y124016D02*
X253318D01*
X252643Y124241D01*
X252193Y124690D01*
X251969Y125365D01*
Y125815D01*
X252193Y126490D01*
X252643Y126940D01*
X253318Y127165D01*
X256692D01*
X255792Y128469D02*
X256017Y128919D01*
X256692Y129594D01*
X251969D01*
X255792Y131933D02*
X256017Y132383D01*
X256692Y133058D01*
X251969D01*
X187008Y134645D02*
Y131271D01*
X186783Y130596D01*
X186333Y130146D01*
X185658Y129921D01*
X185208D01*
X184534Y130146D01*
X184084Y130596D01*
X183859Y131271D01*
Y134645D01*
X182554Y133745D02*
X182105Y133970D01*
X181430Y134645D01*
Y129921D01*
X178866Y133520D02*
Y133745D01*
X178641Y134195D01*
X178416Y134420D01*
X177966Y134645D01*
X177066D01*
X176616Y134420D01*
X176391Y134195D01*
X176166Y133745D01*
Y133295D01*
X176391Y132845D01*
X176841Y132170D01*
X179091Y129921D01*
X175942D01*
X232283Y337401D02*
Y334027D01*
X232059Y333352D01*
X231609Y332902D01*
X230934Y332677D01*
X230484D01*
X229809Y332902D01*
X229360Y333352D01*
X229134Y334027D01*
Y337401D01*
X227830Y336501D02*
X227380Y336726D01*
X226705Y337401D01*
Y332677D01*
X223916Y337401D02*
X221442D01*
X222792Y335601D01*
X222117D01*
X221667Y335376D01*
X221442Y335151D01*
X221217Y334477D01*
Y334027D01*
X221442Y333352D01*
X221892Y332902D01*
X222567Y332677D01*
X223241D01*
X223916Y332902D01*
X224141Y333127D01*
X224366Y333577D01*
X114960Y192913D02*
X111586D01*
X110911Y193138D01*
X110461Y193588D01*
X110236Y194263D01*
Y194713D01*
X110461Y195388D01*
X110911Y195837D01*
X111586Y196062D01*
X114960D01*
X114060Y197367D02*
X114285Y197817D01*
X114960Y198492D01*
X110236D01*
X174015Y236221D02*
X170641D01*
X169966Y236445D01*
X169516Y236895D01*
X169291Y237570D01*
Y238020D01*
X169516Y238695D01*
X169966Y239144D01*
X170641Y239369D01*
X174015D01*
X172890Y240899D02*
X173115D01*
X173565Y241124D01*
X173790Y241349D01*
X174015Y241799D01*
Y242698D01*
X173790Y243148D01*
X173565Y243373D01*
X173115Y243598D01*
X172665D01*
X172215Y243373D01*
X171541Y242923D01*
X169291Y240674D01*
Y243823D01*
X351180Y168307D02*
X346457D01*
X351180D02*
Y170331D01*
X350955Y171006D01*
X350730Y171231D01*
X350280Y171456D01*
X349831D01*
X349381Y171231D01*
X349156Y171006D01*
X348931Y170331D01*
Y168307D01*
Y169881D02*
X346457Y171456D01*
X351180Y172963D02*
Y175437D01*
X349381Y174088D01*
Y174762D01*
X349156Y175212D01*
X348931Y175437D01*
X348256Y175662D01*
X347806D01*
X347131Y175437D01*
X346682Y174987D01*
X346457Y174312D01*
Y173638D01*
X346682Y172963D01*
X346906Y172738D01*
X347356Y172513D01*
X351180Y177169D02*
Y179643D01*
X349381Y178294D01*
Y178969D01*
X349156Y179418D01*
X348931Y179643D01*
X348256Y179868D01*
X347806D01*
X347131Y179643D01*
X346682Y179193D01*
X346457Y178519D01*
Y177844D01*
X346682Y177169D01*
X346906Y176944D01*
X347356Y176719D01*
D13*
X371063Y169291D02*
Y246063D01*
X394685Y169291D02*
Y246063D01*
X371063D02*
X394685D01*
X371063Y169291D02*
X394685D01*
X371063Y68583D02*
X394685D01*
X371063Y145354D02*
X394685D01*
Y68583D02*
Y145354D01*
X371063Y68583D02*
Y145354D01*
D54*
X146850Y63858D02*
G03*
X146850Y63858I-492J0D01*
G01*
X235728Y296457D02*
G03*
X235728Y296457I-492J0D01*
G01*
Y261024D02*
G03*
X235728Y261024I-492J0D01*
G01*
X235728Y225590D02*
G03*
X235728Y225590I-492J0D01*
G01*
Y190157D02*
G03*
X235728Y190157I-492J0D01*
G01*
X232973Y137598D02*
G03*
X232973Y137598I-492J0D01*
G01*
X192539Y205413D02*
G03*
X192539Y205413I-492J0D01*
G01*
X137421Y185965D02*
G03*
X137421Y185965I-492J0D01*
G01*
X192717Y160551D02*
G03*
X192717Y160551I-492J0D01*
G01*
X192539Y276279D02*
G03*
X192539Y276279I-492J0D01*
G01*
X137421Y276516D02*
G03*
X137421Y276516I-492J0D01*
G01*
X225591Y63858D02*
G03*
X225591Y63858I-492J0D01*
G01*
X192717Y125118D02*
G03*
X192717Y125118I-492J0D01*
G01*
X252067Y325984D02*
G03*
X252067Y325984I-492J0D01*
G01*
D56*
X156299Y68898D02*
G03*
X156299Y68898I-1181J0D01*
G01*
X244685Y300984D02*
G03*
X244685Y300984I-1181J0D01*
G01*
Y265551D02*
G03*
X244685Y265551I-1181J0D01*
G01*
X244685Y230118D02*
G03*
X244685Y230118I-1181J0D01*
G01*
Y194685D02*
G03*
X244685Y194685I-1181J0D01*
G01*
X241929Y143504D02*
G03*
X241929Y143504I-1181J0D01*
G01*
X188189Y214173D02*
G03*
X188189Y214173I-1181J0D01*
G01*
X133071Y194724D02*
G03*
X133071Y194724I-1181J0D01*
G01*
X184646Y155512D02*
G03*
X184646Y155512I-1181J0D01*
G01*
X188189Y285039D02*
G03*
X188189Y285039I-1181J0D01*
G01*
X133071Y285276D02*
G03*
X133071Y285276I-1181J0D01*
G01*
X235039Y68898D02*
G03*
X235039Y68898I-1181J0D01*
G01*
X184646Y120079D02*
G03*
X184646Y120079I-1181J0D01*
G01*
M02*
