G04*
G04 #@! TF.GenerationSoftware,Altium Limited,Altium Designer,19.0.10 (269)*
G04*
G04 Layer_Physical_Order=3*
G04 Layer_Color=36540*
%FSLAX25Y25*%
%MOIN*%
G70*
G01*
G75*
%ADD17C,0.03937*%
%ADD23C,0.07500*%
%ADD24C,0.06299*%
%ADD26C,0.07874*%
%ADD39C,0.01968*%
%ADD40C,0.02756*%
%ADD41C,0.05906*%
G36*
X370477Y385540D02*
X370510Y385327D01*
X369473Y384113D01*
X368614Y382711D01*
X367985Y381192D01*
X367601Y379592D01*
X367472Y377953D01*
X367601Y376313D01*
X367985Y374714D01*
X368614Y373194D01*
X369473Y371792D01*
X370542Y370542D01*
X371792Y369473D01*
X373194Y368614D01*
X374714Y367985D01*
X376313Y367601D01*
X377953Y367472D01*
X379592Y367601D01*
X381192Y367985D01*
X382711Y368614D01*
X384113Y369473D01*
X385327Y370510D01*
X385540Y370476D01*
X385827Y370371D01*
X385827Y23330D01*
X385540Y23224D01*
X385327Y23191D01*
X384113Y24227D01*
X382711Y25087D01*
X381192Y25716D01*
X379592Y26100D01*
X377953Y26229D01*
X376313Y26100D01*
X374714Y25716D01*
X373194Y25087D01*
X371792Y24227D01*
X370542Y23159D01*
X369473Y21909D01*
X368614Y20506D01*
X367985Y18987D01*
X367601Y17388D01*
X367472Y15748D01*
X367601Y14108D01*
X367985Y12509D01*
X368614Y10990D01*
X369473Y9587D01*
X370510Y8374D01*
X370477Y8161D01*
X370371Y7874D01*
X7874Y7874D01*
Y79032D01*
X8161Y79138D01*
X8374Y79171D01*
X9587Y78135D01*
X10990Y77275D01*
X12509Y76646D01*
X14108Y76262D01*
X15748Y76133D01*
X17388Y76262D01*
X18987Y76646D01*
X20506Y77275D01*
X21909Y78135D01*
X23159Y79203D01*
X24227Y80453D01*
X25087Y81856D01*
X25716Y83375D01*
X26100Y84975D01*
X26229Y86614D01*
X26100Y88254D01*
X25716Y89853D01*
X25087Y91373D01*
X24227Y92775D01*
X23159Y94025D01*
X21909Y95094D01*
X20506Y95953D01*
X18987Y96582D01*
X17388Y96966D01*
X15748Y97095D01*
X14108Y96966D01*
X12509Y96582D01*
X10990Y95953D01*
X9587Y95094D01*
X8374Y94057D01*
X8161Y94090D01*
X7874Y94196D01*
Y162220D01*
X8374Y162359D01*
X9321Y161632D01*
X10522Y161135D01*
X11811Y160965D01*
X13100Y161135D01*
X14301Y161632D01*
X15332Y162424D01*
X16124Y163455D01*
X16621Y164656D01*
X16791Y165945D01*
X16621Y167234D01*
X16124Y168435D01*
X15332Y169466D01*
X14301Y170257D01*
X13100Y170755D01*
X11811Y170924D01*
X10522Y170755D01*
X9321Y170257D01*
X8374Y169530D01*
X7874Y169669D01*
X7874Y224031D01*
X8374Y224170D01*
X9321Y223443D01*
X10522Y222946D01*
X11811Y222776D01*
X13100Y222946D01*
X14301Y223443D01*
X15332Y224235D01*
X16124Y225266D01*
X16621Y226467D01*
X16791Y227756D01*
X16621Y229045D01*
X16124Y230246D01*
X15332Y231277D01*
X14301Y232068D01*
X13100Y232566D01*
X11811Y232735D01*
X10522Y232566D01*
X9321Y232068D01*
X8374Y231342D01*
X7874Y231481D01*
Y299505D01*
X8161Y299610D01*
X8374Y299643D01*
X9587Y298607D01*
X10990Y297748D01*
X12509Y297118D01*
X14108Y296734D01*
X15748Y296605D01*
X17388Y296734D01*
X18987Y297118D01*
X20506Y297748D01*
X21909Y298607D01*
X23159Y299675D01*
X24227Y300926D01*
X25087Y302328D01*
X25716Y303848D01*
X26100Y305447D01*
X26229Y307087D01*
X26100Y308726D01*
X25716Y310326D01*
X25087Y311845D01*
X24227Y313247D01*
X23159Y314498D01*
X21909Y315566D01*
X20506Y316425D01*
X18987Y317055D01*
X17388Y317439D01*
X15748Y317568D01*
X14108Y317439D01*
X12509Y317055D01*
X10990Y316425D01*
X9587Y315566D01*
X8374Y314530D01*
X8161Y314563D01*
X7874Y314669D01*
Y385827D01*
X370371Y385827D01*
X370477Y385540D01*
D02*
G37*
%LPC*%
G36*
X16535Y384908D02*
X15041Y384711D01*
X13648Y384134D01*
X12453Y383217D01*
X11535Y382021D01*
X10958Y380628D01*
X10762Y379134D01*
Y375197D01*
X10958Y373703D01*
X11535Y372310D01*
X12453Y371114D01*
X13648Y370197D01*
X15041Y369620D01*
X16535Y369423D01*
X18030Y369620D01*
X19422Y370197D01*
X20618Y371114D01*
X21536Y372310D01*
X22113Y373703D01*
X22309Y375197D01*
Y379134D01*
X22113Y380628D01*
X21536Y382021D01*
X20618Y383217D01*
X19422Y384134D01*
X18030Y384711D01*
X16535Y384908D01*
D02*
G37*
G36*
X47244Y366390D02*
X46161Y366248D01*
X45151Y365829D01*
X44285Y365164D01*
X43619Y364297D01*
X43201Y363288D01*
X43059Y362205D01*
X43201Y361122D01*
X43619Y360112D01*
X44285Y359245D01*
X45151Y358580D01*
X46161Y358162D01*
X47244Y358019D01*
X48327Y358162D01*
X49337Y358580D01*
X50204Y359245D01*
X50869Y360112D01*
X51287Y361122D01*
X51429Y362205D01*
X51287Y363288D01*
X50869Y364297D01*
X50204Y365164D01*
X49337Y365829D01*
X48327Y366248D01*
X47244Y366390D01*
D02*
G37*
G36*
X246417Y348699D02*
X245745Y348611D01*
X245119Y348351D01*
X244581Y347939D01*
X244168Y347401D01*
X243909Y346775D01*
X243820Y346102D01*
X243909Y345430D01*
X244168Y344804D01*
X244581Y344266D01*
X245119Y343853D01*
X245745Y343594D01*
X246417Y343505D01*
X247090Y343594D01*
X247716Y343853D01*
X248254Y344266D01*
X248666Y344804D01*
X248926Y345430D01*
X249014Y346102D01*
X248926Y346775D01*
X248666Y347401D01*
X248254Y347939D01*
X247716Y348351D01*
X247090Y348611D01*
X246417Y348699D01*
D02*
G37*
G36*
X16535Y354986D02*
X15041Y354790D01*
X13648Y354213D01*
X12453Y353295D01*
X11535Y352099D01*
X10958Y350707D01*
X10762Y349213D01*
Y345276D01*
X10958Y343781D01*
X11535Y342389D01*
X12453Y341193D01*
X13648Y340275D01*
X15041Y339699D01*
X16535Y339502D01*
X18030Y339699D01*
X19422Y340275D01*
X20618Y341193D01*
X21536Y342389D01*
X22113Y343781D01*
X22309Y345276D01*
Y349213D01*
X22113Y350707D01*
X21536Y352099D01*
X20618Y353295D01*
X19422Y354213D01*
X18030Y354790D01*
X16535Y354986D01*
D02*
G37*
G36*
X189102Y319483D02*
Y317055D01*
X191531D01*
X191495Y317330D01*
X191195Y318052D01*
X190719Y318672D01*
X190099Y319148D01*
X189377Y319447D01*
X189102Y319483D01*
D02*
G37*
G36*
X188102D02*
X187827Y319447D01*
X187105Y319148D01*
X186485Y318672D01*
X186009Y318052D01*
X185710Y317330D01*
X185674Y317055D01*
X188102D01*
Y319483D01*
D02*
G37*
G36*
X191531Y316055D02*
X189102D01*
Y313627D01*
X189377Y313663D01*
X190099Y313962D01*
X190719Y314438D01*
X191195Y315058D01*
X191495Y315780D01*
X191531Y316055D01*
D02*
G37*
G36*
X188102D02*
X185674D01*
X185710Y315780D01*
X186009Y315058D01*
X186485Y314438D01*
X187105Y313962D01*
X187827Y313663D01*
X188102Y313627D01*
Y316055D01*
D02*
G37*
G36*
X135984Y324694D02*
X135004Y324565D01*
X134090Y324186D01*
X133306Y323584D01*
X132703Y322800D01*
X132325Y321886D01*
X132196Y320905D01*
Y317362D01*
X132325Y316382D01*
X132703Y315468D01*
X133306Y314683D01*
X134090Y314081D01*
X135004Y313703D01*
X135984Y313574D01*
X136965Y313703D01*
X137878Y314081D01*
X138663Y314683D01*
X139265Y315468D01*
X139644Y316382D01*
X139773Y317362D01*
Y320905D01*
X139644Y321886D01*
X139265Y322800D01*
X138663Y323584D01*
X137878Y324186D01*
X136965Y324565D01*
X135984Y324694D01*
D02*
G37*
G36*
X125984D02*
X125004Y324565D01*
X124090Y324186D01*
X123305Y323584D01*
X122704Y322800D01*
X122325Y321886D01*
X122196Y320905D01*
Y317362D01*
X122325Y316382D01*
X122704Y315468D01*
X123305Y314683D01*
X124090Y314081D01*
X125004Y313703D01*
X125984Y313574D01*
X126965Y313703D01*
X127878Y314081D01*
X128663Y314683D01*
X129265Y315468D01*
X129643Y316382D01*
X129773Y317362D01*
Y320905D01*
X129643Y321886D01*
X129265Y322800D01*
X128663Y323584D01*
X127878Y324186D01*
X126965Y324565D01*
X125984Y324694D01*
D02*
G37*
G36*
X115984D02*
X115004Y324565D01*
X114090Y324186D01*
X113305Y323584D01*
X112704Y322800D01*
X112325Y321886D01*
X112196Y320905D01*
Y317362D01*
X112325Y316382D01*
X112704Y315468D01*
X113305Y314683D01*
X114090Y314081D01*
X115004Y313703D01*
X115984Y313574D01*
X116965Y313703D01*
X117878Y314081D01*
X118663Y314683D01*
X119265Y315468D01*
X119643Y316382D01*
X119773Y317362D01*
Y320905D01*
X119643Y321886D01*
X119265Y322800D01*
X118663Y323584D01*
X117878Y324186D01*
X116965Y324565D01*
X115984Y324694D01*
D02*
G37*
G36*
X137646Y302377D02*
Y299949D01*
X140074D01*
X140038Y300224D01*
X139739Y300946D01*
X139263Y301566D01*
X138643Y302042D01*
X137921Y302341D01*
X137646Y302377D01*
D02*
G37*
G36*
X136646D02*
X136371Y302341D01*
X135649Y302042D01*
X135029Y301566D01*
X134553Y300946D01*
X134254Y300224D01*
X134217Y299949D01*
X136646D01*
Y302377D01*
D02*
G37*
G36*
X265748Y303424D02*
X265076Y303335D01*
X264450Y303076D01*
X263912Y302663D01*
X263499Y302125D01*
X263240Y301499D01*
X263151Y300827D01*
X263240Y300155D01*
X263499Y299528D01*
X263912Y298990D01*
X264450Y298578D01*
X265076Y298318D01*
X265748Y298230D01*
X266420Y298318D01*
X267046Y298578D01*
X267584Y298990D01*
X267997Y299528D01*
X268257Y300155D01*
X268345Y300827D01*
X268257Y301499D01*
X267997Y302125D01*
X267584Y302663D01*
X267046Y303076D01*
X266420Y303335D01*
X265748Y303424D01*
D02*
G37*
G36*
X140074Y298949D02*
X137646D01*
Y296520D01*
X137921Y296557D01*
X138643Y296856D01*
X139263Y297332D01*
X139739Y297952D01*
X140038Y298674D01*
X140074Y298949D01*
D02*
G37*
G36*
X136646D02*
X134217D01*
X134254Y298674D01*
X134553Y297952D01*
X135029Y297332D01*
X135649Y296856D01*
X136371Y296557D01*
X136646Y296520D01*
Y298949D01*
D02*
G37*
G36*
X214567Y299487D02*
X213895Y299398D01*
X213268Y299139D01*
X212731Y298726D01*
X212318Y298188D01*
X212058Y297562D01*
X211970Y296890D01*
X212058Y296218D01*
X212318Y295591D01*
X212731Y295053D01*
X213268Y294641D01*
X213895Y294381D01*
X214567Y294293D01*
X215239Y294381D01*
X215865Y294641D01*
X216403Y295053D01*
X216816Y295591D01*
X217075Y296218D01*
X217164Y296890D01*
X217075Y297562D01*
X216816Y298188D01*
X216403Y298726D01*
X215865Y299139D01*
X215239Y299398D01*
X214567Y299487D01*
D02*
G37*
G36*
X255906Y293936D02*
X255233Y293847D01*
X254607Y293588D01*
X254069Y293175D01*
X253656Y292637D01*
X253397Y292011D01*
X253309Y291339D01*
X253397Y290666D01*
X253656Y290040D01*
X254069Y289502D01*
X254607Y289089D01*
X255233Y288830D01*
X255906Y288742D01*
X256578Y288830D01*
X257204Y289089D01*
X257742Y289502D01*
X258155Y290040D01*
X258414Y290666D01*
X258503Y291339D01*
X258414Y292011D01*
X258155Y292637D01*
X257742Y293175D01*
X257204Y293588D01*
X256578Y293847D01*
X255906Y293936D01*
D02*
G37*
G36*
X16535Y282545D02*
X15041Y282349D01*
X13648Y281772D01*
X12453Y280854D01*
X11535Y279659D01*
X10958Y278266D01*
X10762Y276772D01*
Y272835D01*
X10958Y271340D01*
X11535Y269948D01*
X12453Y268752D01*
X13648Y267834D01*
X15041Y267258D01*
X16535Y267061D01*
X18030Y267258D01*
X19422Y267834D01*
X20618Y268752D01*
X21536Y269948D01*
X22113Y271340D01*
X22309Y272835D01*
Y276772D01*
X22113Y278266D01*
X21536Y279659D01*
X20618Y280854D01*
X19422Y281772D01*
X18030Y282349D01*
X16535Y282545D01*
D02*
G37*
G36*
X265748Y267991D02*
X265076Y267902D01*
X264450Y267643D01*
X263912Y267230D01*
X263499Y266692D01*
X263240Y266066D01*
X263151Y265394D01*
X263240Y264721D01*
X263499Y264095D01*
X263912Y263557D01*
X264450Y263145D01*
X265076Y262885D01*
X265748Y262797D01*
X266420Y262885D01*
X267047Y263145D01*
X267584Y263557D01*
X267997Y264095D01*
X268257Y264721D01*
X268345Y265394D01*
X268257Y266066D01*
X267997Y266692D01*
X267584Y267230D01*
X267047Y267643D01*
X266420Y267902D01*
X265748Y267991D01*
D02*
G37*
G36*
X214567Y264054D02*
X213895Y263965D01*
X213268Y263706D01*
X212731Y263293D01*
X212318Y262755D01*
X212058Y262129D01*
X211970Y261457D01*
X212058Y260785D01*
X212318Y260158D01*
X212731Y259620D01*
X213268Y259208D01*
X213895Y258948D01*
X214567Y258860D01*
X215239Y258948D01*
X215865Y259208D01*
X216403Y259620D01*
X216816Y260158D01*
X217075Y260785D01*
X217164Y261457D01*
X217075Y262129D01*
X216816Y262755D01*
X216403Y263293D01*
X215865Y263706D01*
X215239Y263965D01*
X214567Y264054D01*
D02*
G37*
G36*
X47244Y264028D02*
X46161Y263885D01*
X45151Y263467D01*
X44285Y262802D01*
X43619Y261935D01*
X43201Y260926D01*
X43059Y259842D01*
X43201Y258759D01*
X43619Y257750D01*
X44285Y256883D01*
X45151Y256218D01*
X46161Y255800D01*
X47244Y255657D01*
X48327Y255800D01*
X49337Y256218D01*
X50204Y256883D01*
X50869Y257750D01*
X51287Y258759D01*
X51429Y259842D01*
X51287Y260926D01*
X50869Y261935D01*
X50204Y262802D01*
X49337Y263467D01*
X48327Y263885D01*
X47244Y264028D01*
D02*
G37*
G36*
X255906Y258503D02*
X255233Y258414D01*
X254607Y258155D01*
X254069Y257742D01*
X253656Y257204D01*
X253397Y256578D01*
X253309Y255906D01*
X253397Y255233D01*
X253656Y254607D01*
X254069Y254069D01*
X254607Y253656D01*
X255233Y253397D01*
X255906Y253309D01*
X256578Y253397D01*
X257204Y253656D01*
X257742Y254069D01*
X258155Y254607D01*
X258414Y255233D01*
X258503Y255906D01*
X258414Y256578D01*
X258155Y257204D01*
X257742Y257742D01*
X257204Y258155D01*
X256578Y258414D01*
X255906Y258503D01*
D02*
G37*
G36*
X135984Y261702D02*
X135004Y261573D01*
X134090Y261194D01*
X133306Y260592D01*
X132703Y259807D01*
X132325Y258894D01*
X132196Y257913D01*
Y254370D01*
X132325Y253390D01*
X132703Y252476D01*
X133306Y251691D01*
X134090Y251089D01*
X135004Y250711D01*
X135984Y250582D01*
X136965Y250711D01*
X137878Y251089D01*
X138663Y251691D01*
X139265Y252476D01*
X139644Y253390D01*
X139773Y254370D01*
Y257913D01*
X139644Y258894D01*
X139265Y259807D01*
X138663Y260592D01*
X137878Y261194D01*
X136965Y261573D01*
X135984Y261702D01*
D02*
G37*
G36*
X125984D02*
X125004Y261573D01*
X124090Y261194D01*
X123305Y260592D01*
X122704Y259807D01*
X122325Y258894D01*
X122196Y257913D01*
Y254370D01*
X122325Y253390D01*
X122704Y252476D01*
X123305Y251691D01*
X124090Y251089D01*
X125004Y250711D01*
X125984Y250582D01*
X126965Y250711D01*
X127878Y251089D01*
X128663Y251691D01*
X129265Y252476D01*
X129643Y253390D01*
X129773Y254370D01*
Y257913D01*
X129643Y258894D01*
X129265Y259807D01*
X128663Y260592D01*
X127878Y261194D01*
X126965Y261573D01*
X125984Y261702D01*
D02*
G37*
G36*
X115984D02*
X115004Y261573D01*
X114090Y261194D01*
X113305Y260592D01*
X112704Y259807D01*
X112325Y258894D01*
X112196Y257913D01*
Y254370D01*
X112325Y253390D01*
X112704Y252476D01*
X113305Y251691D01*
X114090Y251089D01*
X115004Y250711D01*
X115984Y250582D01*
X116965Y250711D01*
X117878Y251089D01*
X118663Y251691D01*
X119265Y252476D01*
X119643Y253390D01*
X119773Y254370D01*
Y257913D01*
X119643Y258894D01*
X119265Y259807D01*
X118663Y260592D01*
X117878Y261194D01*
X116965Y261573D01*
X115984Y261702D01*
D02*
G37*
G36*
X288425Y257481D02*
X287288Y257331D01*
X286228Y256892D01*
X285318Y256194D01*
X284620Y255284D01*
X284181Y254224D01*
X284031Y253087D01*
X284181Y251949D01*
X284620Y250890D01*
X285318Y249980D01*
X286228Y249281D01*
X287288Y248842D01*
X288425Y248693D01*
X289562Y248842D01*
X290622Y249281D01*
X291532Y249980D01*
X292230Y250890D01*
X292669Y251949D01*
X292819Y253087D01*
X292669Y254224D01*
X292230Y255284D01*
X291532Y256194D01*
X290622Y256892D01*
X289562Y257331D01*
X288425Y257481D01*
D02*
G37*
G36*
X189102Y248617D02*
Y246189D01*
X191531D01*
X191495Y246464D01*
X191195Y247186D01*
X190719Y247806D01*
X190099Y248282D01*
X189377Y248581D01*
X189102Y248617D01*
D02*
G37*
G36*
X188102D02*
X187827Y248581D01*
X187105Y248282D01*
X186485Y247806D01*
X186009Y247186D01*
X185710Y246464D01*
X185674Y246189D01*
X188102D01*
Y248617D01*
D02*
G37*
G36*
X191531Y245189D02*
X189102D01*
Y242761D01*
X189377Y242797D01*
X190099Y243096D01*
X190719Y243572D01*
X191195Y244192D01*
X191495Y244914D01*
X191531Y245189D01*
D02*
G37*
G36*
X188102D02*
X185674D01*
X185710Y244914D01*
X186009Y244192D01*
X186485Y243572D01*
X187105Y243096D01*
X187827Y242797D01*
X188102Y242761D01*
Y245189D01*
D02*
G37*
G36*
X376484Y242781D02*
Y239161D01*
X380104D01*
X380027Y239745D01*
X379609Y240754D01*
X378944Y241621D01*
X378077Y242286D01*
X377067Y242704D01*
X376484Y242781D01*
D02*
G37*
G36*
X375484Y242781D02*
X374901Y242704D01*
X373891Y242286D01*
X373025Y241621D01*
X372360Y240754D01*
X371941Y239745D01*
X371865Y239161D01*
X375484D01*
Y242781D01*
D02*
G37*
G36*
X349909Y241422D02*
Y238994D01*
X352338D01*
X352302Y239269D01*
X352002Y239991D01*
X351527Y240611D01*
X350906Y241087D01*
X350184Y241386D01*
X349909Y241422D01*
D02*
G37*
G36*
X348909D02*
X348635Y241386D01*
X347912Y241087D01*
X347292Y240611D01*
X346816Y239991D01*
X346517Y239269D01*
X346481Y238994D01*
X348909D01*
Y241422D01*
D02*
G37*
G36*
X288425Y247481D02*
X287288Y247331D01*
X286228Y246892D01*
X285318Y246194D01*
X284620Y245284D01*
X284181Y244224D01*
X284031Y243087D01*
X284181Y241949D01*
X284620Y240890D01*
X285318Y239980D01*
X286228Y239281D01*
X287288Y238842D01*
X288425Y238693D01*
X289562Y238842D01*
X290622Y239281D01*
X291532Y239980D01*
X292230Y240890D01*
X292669Y241949D01*
X292819Y243087D01*
X292669Y244224D01*
X292230Y245284D01*
X291532Y246194D01*
X290622Y246892D01*
X289562Y247331D01*
X288425Y247481D01*
D02*
G37*
G36*
X16535Y252624D02*
X15041Y252428D01*
X13648Y251851D01*
X12453Y250933D01*
X11535Y249737D01*
X10958Y248345D01*
X10762Y246850D01*
Y242913D01*
X10958Y241419D01*
X11535Y240026D01*
X12453Y238831D01*
X13648Y237913D01*
X15041Y237336D01*
X16535Y237140D01*
X18030Y237336D01*
X19422Y237913D01*
X20618Y238831D01*
X21536Y240026D01*
X22113Y241419D01*
X22309Y242913D01*
Y246850D01*
X22113Y248345D01*
X21536Y249737D01*
X20618Y250933D01*
X19422Y251851D01*
X18030Y252428D01*
X16535Y252624D01*
D02*
G37*
G36*
X352338Y237994D02*
X349909D01*
Y235566D01*
X350184Y235602D01*
X350906Y235901D01*
X351527Y236377D01*
X352002Y236997D01*
X352302Y237719D01*
X352338Y237994D01*
D02*
G37*
G36*
X348909D02*
X346481D01*
X346517Y237719D01*
X346816Y236997D01*
X347292Y236377D01*
X347912Y235901D01*
X348635Y235602D01*
X348909Y235566D01*
Y237994D01*
D02*
G37*
G36*
X380104Y238161D02*
X376484D01*
Y234542D01*
X377067Y234619D01*
X378077Y235037D01*
X378944Y235702D01*
X379609Y236569D01*
X380027Y237578D01*
X380104Y238161D01*
D02*
G37*
G36*
X375484D02*
X371865D01*
X371941Y237578D01*
X372360Y236569D01*
X373025Y235702D01*
X373891Y235037D01*
X374901Y234619D01*
X375484Y234542D01*
Y238161D01*
D02*
G37*
G36*
X288425Y237480D02*
X287288Y237331D01*
X286228Y236892D01*
X285318Y236194D01*
X284620Y235284D01*
X284181Y234224D01*
X284031Y233087D01*
X284181Y231949D01*
X284620Y230890D01*
X285318Y229980D01*
X286228Y229281D01*
X287288Y228842D01*
X288425Y228693D01*
X289562Y228842D01*
X290622Y229281D01*
X291532Y229980D01*
X292230Y230890D01*
X292669Y231949D01*
X292819Y233087D01*
X292669Y234224D01*
X292230Y235284D01*
X291532Y236194D01*
X290622Y236892D01*
X289562Y237331D01*
X288425Y237480D01*
D02*
G37*
G36*
X265748Y232558D02*
X265076Y232469D01*
X264450Y232210D01*
X263912Y231797D01*
X263499Y231259D01*
X263240Y230633D01*
X263151Y229961D01*
X263240Y229289D01*
X263499Y228662D01*
X263912Y228124D01*
X264450Y227712D01*
X265076Y227452D01*
X265748Y227364D01*
X266420Y227452D01*
X267047Y227712D01*
X267584Y228124D01*
X267997Y228662D01*
X268257Y229289D01*
X268345Y229961D01*
X268257Y230633D01*
X267997Y231259D01*
X267584Y231797D01*
X267047Y232210D01*
X266420Y232469D01*
X265748Y232558D01*
D02*
G37*
G36*
X375984Y232450D02*
X375004Y232321D01*
X374090Y231942D01*
X373306Y231340D01*
X372704Y230556D01*
X372325Y229642D01*
X372196Y228661D01*
X372325Y227681D01*
X372704Y226767D01*
X373306Y225983D01*
X374090Y225381D01*
X375004Y225002D01*
X375984Y224873D01*
X376965Y225002D01*
X377878Y225381D01*
X378663Y225983D01*
X379265Y226767D01*
X379644Y227681D01*
X379773Y228661D01*
X379644Y229642D01*
X379265Y230556D01*
X378663Y231340D01*
X377878Y231942D01*
X376965Y232321D01*
X375984Y232450D01*
D02*
G37*
G36*
X214567Y228621D02*
X213895Y228532D01*
X213268Y228273D01*
X212731Y227860D01*
X212318Y227322D01*
X212058Y226696D01*
X211970Y226024D01*
X212058Y225352D01*
X212318Y224725D01*
X212731Y224187D01*
X213268Y223775D01*
X213895Y223515D01*
X214567Y223427D01*
X215239Y223515D01*
X215865Y223775D01*
X216403Y224187D01*
X216816Y224725D01*
X217075Y225352D01*
X217164Y226024D01*
X217075Y226696D01*
X216816Y227322D01*
X216403Y227860D01*
X215865Y228273D01*
X215239Y228532D01*
X214567Y228621D01*
D02*
G37*
G36*
X135984Y234143D02*
X135004Y234014D01*
X134090Y233635D01*
X133306Y233033D01*
X132703Y232248D01*
X132325Y231335D01*
X132196Y230354D01*
Y226811D01*
X132325Y225831D01*
X132703Y224917D01*
X133306Y224132D01*
X134090Y223530D01*
X135004Y223152D01*
X135984Y223023D01*
X136965Y223152D01*
X137878Y223530D01*
X138663Y224132D01*
X139265Y224917D01*
X139644Y225831D01*
X139773Y226811D01*
Y230354D01*
X139644Y231335D01*
X139265Y232248D01*
X138663Y233033D01*
X137878Y233635D01*
X136965Y234014D01*
X135984Y234143D01*
D02*
G37*
G36*
X125984D02*
X125004Y234014D01*
X124090Y233635D01*
X123305Y233033D01*
X122704Y232248D01*
X122325Y231335D01*
X122196Y230354D01*
Y226811D01*
X122325Y225831D01*
X122704Y224917D01*
X123305Y224132D01*
X124090Y223530D01*
X125004Y223152D01*
X125984Y223023D01*
X126965Y223152D01*
X127878Y223530D01*
X128663Y224132D01*
X129265Y224917D01*
X129643Y225831D01*
X129773Y226811D01*
Y230354D01*
X129643Y231335D01*
X129265Y232248D01*
X128663Y233033D01*
X127878Y233635D01*
X126965Y234014D01*
X125984Y234143D01*
D02*
G37*
G36*
X115984D02*
X115004Y234014D01*
X114090Y233635D01*
X113305Y233033D01*
X112704Y232248D01*
X112325Y231335D01*
X112196Y230354D01*
Y226811D01*
X112325Y225831D01*
X112704Y224917D01*
X113305Y224132D01*
X114090Y223530D01*
X115004Y223152D01*
X115984Y223023D01*
X116965Y223152D01*
X117878Y223530D01*
X118663Y224132D01*
X119265Y224917D01*
X119643Y225831D01*
X119773Y226811D01*
Y230354D01*
X119643Y231335D01*
X119265Y232248D01*
X118663Y233033D01*
X117878Y233635D01*
X116965Y234014D01*
X115984Y234143D01*
D02*
G37*
G36*
X98425Y231481D02*
X97288Y231331D01*
X96228Y230892D01*
X95318Y230194D01*
X94620Y229284D01*
X94181Y228224D01*
X94031Y227087D01*
X94181Y225949D01*
X94620Y224890D01*
X95318Y223980D01*
X96228Y223281D01*
X97288Y222842D01*
X98425Y222693D01*
X99562Y222842D01*
X100622Y223281D01*
X101532Y223980D01*
X102230Y224890D01*
X102669Y225949D01*
X102819Y227087D01*
X102669Y228224D01*
X102230Y229284D01*
X101532Y230194D01*
X100622Y230892D01*
X99562Y231331D01*
X98425Y231481D01*
D02*
G37*
G36*
X31496Y230373D02*
X30207Y230204D01*
X29006Y229706D01*
X27975Y228915D01*
X27184Y227884D01*
X26686Y226682D01*
X26516Y225394D01*
X26686Y224105D01*
X27184Y222904D01*
X27975Y221873D01*
X29006Y221081D01*
X30207Y220584D01*
X31496Y220414D01*
X32785Y220584D01*
X33986Y221081D01*
X35017Y221873D01*
X35809Y222904D01*
X36306Y224105D01*
X36476Y225394D01*
X36306Y226682D01*
X35809Y227884D01*
X35017Y228915D01*
X33986Y229706D01*
X32785Y230204D01*
X31496Y230373D01*
D02*
G37*
G36*
X288425Y227481D02*
X287288Y227331D01*
X286228Y226892D01*
X285318Y226194D01*
X284620Y225284D01*
X284181Y224224D01*
X284031Y223087D01*
X284181Y221949D01*
X284620Y220890D01*
X285318Y219980D01*
X286228Y219281D01*
X287288Y218842D01*
X288425Y218693D01*
X289562Y218842D01*
X290622Y219281D01*
X291532Y219980D01*
X292230Y220890D01*
X292669Y221949D01*
X292819Y223087D01*
X292669Y224224D01*
X292230Y225284D01*
X291532Y226194D01*
X290622Y226892D01*
X289562Y227331D01*
X288425Y227481D01*
D02*
G37*
G36*
X255906Y223070D02*
X255233Y222981D01*
X254607Y222722D01*
X254069Y222309D01*
X253656Y221771D01*
X253397Y221145D01*
X253309Y220472D01*
X253397Y219800D01*
X253656Y219174D01*
X254069Y218636D01*
X254607Y218223D01*
X255233Y217964D01*
X255906Y217875D01*
X256578Y217964D01*
X257204Y218223D01*
X257742Y218636D01*
X258155Y219174D01*
X258414Y219800D01*
X258503Y220472D01*
X258414Y221145D01*
X258155Y221771D01*
X257742Y222309D01*
X257204Y222722D01*
X256578Y222981D01*
X255906Y223070D01*
D02*
G37*
G36*
X98425Y221480D02*
X97288Y221331D01*
X96228Y220892D01*
X95318Y220194D01*
X94620Y219284D01*
X94181Y218224D01*
X94031Y217087D01*
X94181Y215949D01*
X94620Y214890D01*
X95318Y213980D01*
X96228Y213281D01*
X97288Y212842D01*
X98425Y212693D01*
X99562Y212842D01*
X100622Y213281D01*
X101532Y213980D01*
X102230Y214890D01*
X102669Y215949D01*
X102819Y217087D01*
X102669Y218224D01*
X102230Y219284D01*
X101532Y220194D01*
X100622Y220892D01*
X99562Y221331D01*
X98425Y221480D01*
D02*
G37*
G36*
X288425Y217480D02*
X287288Y217331D01*
X286228Y216892D01*
X285318Y216194D01*
X284620Y215284D01*
X284181Y214224D01*
X284031Y213087D01*
X284181Y211949D01*
X284620Y210890D01*
X285318Y209980D01*
X286228Y209281D01*
X287288Y208842D01*
X288425Y208693D01*
X289562Y208842D01*
X290622Y209281D01*
X291532Y209980D01*
X292230Y210890D01*
X292669Y211949D01*
X292819Y213087D01*
X292669Y214224D01*
X292230Y215284D01*
X291532Y216194D01*
X290622Y216892D01*
X289562Y217331D01*
X288425Y217480D01*
D02*
G37*
G36*
X181102Y288058D02*
X106299D01*
X105835Y287866D01*
X105643Y287402D01*
Y267717D01*
X105835Y267252D01*
X106299Y267060D01*
X152887D01*
X152887Y194355D01*
X110236D01*
X109772Y194163D01*
X109580Y193699D01*
Y177165D01*
X109772Y176701D01*
X110236Y176509D01*
X170517D01*
Y173326D01*
X170595Y172733D01*
X170673Y172140D01*
X171131Y171035D01*
X171859Y170085D01*
X203079Y138866D01*
X204028Y138138D01*
X205133Y137680D01*
X206319Y137524D01*
X207505Y137680D01*
X208610Y138138D01*
X209559Y138866D01*
X210287Y139815D01*
X210745Y140920D01*
X210901Y142106D01*
X210745Y143292D01*
X210287Y144398D01*
X209559Y145347D01*
X179682Y175224D01*
Y176509D01*
X181102D01*
X181566Y176701D01*
X181759Y177165D01*
Y279875D01*
X272952Y279875D01*
X346871Y205956D01*
X347615Y205385D01*
X348480Y205027D01*
X349410Y204904D01*
X350339Y205027D01*
X351204Y205385D01*
X351948Y205956D01*
X352518Y206699D01*
X352877Y207565D01*
X352999Y208494D01*
X352877Y209423D01*
X352518Y210289D01*
X351948Y211032D01*
X276977Y286003D01*
X276234Y286573D01*
X275368Y286932D01*
X274439Y287054D01*
X181759Y287054D01*
Y287402D01*
X181566Y287866D01*
X181102Y288058D01*
D02*
G37*
G36*
X375984Y212450D02*
X375004Y212321D01*
X374090Y211942D01*
X373306Y211340D01*
X372704Y210556D01*
X372325Y209642D01*
X372196Y208661D01*
X372325Y207681D01*
X372704Y206767D01*
X373306Y205983D01*
X374090Y205381D01*
X375004Y205002D01*
X375984Y204873D01*
X376965Y205002D01*
X377878Y205381D01*
X378663Y205983D01*
X379265Y206767D01*
X379644Y207681D01*
X379773Y208661D01*
X379644Y209642D01*
X379265Y210556D01*
X378663Y211340D01*
X377878Y211942D01*
X376965Y212321D01*
X375984Y212450D01*
D02*
G37*
G36*
X98425Y211480D02*
X97288Y211331D01*
X96228Y210892D01*
X95318Y210194D01*
X94620Y209284D01*
X94181Y208224D01*
X94031Y207087D01*
X94181Y205949D01*
X94620Y204890D01*
X95318Y203980D01*
X96228Y203281D01*
X97288Y202842D01*
X98425Y202693D01*
X99562Y202842D01*
X100622Y203281D01*
X101532Y203980D01*
X102230Y204890D01*
X102669Y205949D01*
X102819Y207087D01*
X102669Y208224D01*
X102230Y209284D01*
X101532Y210194D01*
X100622Y210892D01*
X99562Y211331D01*
X98425Y211480D01*
D02*
G37*
G36*
X138295Y203952D02*
Y201524D01*
X140724D01*
X140687Y201799D01*
X140388Y202521D01*
X139912Y203141D01*
X139292Y203617D01*
X138570Y203916D01*
X138295Y203952D01*
D02*
G37*
G36*
X137295D02*
X137020Y203916D01*
X136298Y203617D01*
X135678Y203141D01*
X135202Y202521D01*
X134903Y201799D01*
X134867Y201524D01*
X137295D01*
Y203952D01*
D02*
G37*
G36*
X288425Y207481D02*
X287288Y207331D01*
X286228Y206892D01*
X285318Y206194D01*
X284620Y205284D01*
X284181Y204224D01*
X284031Y203087D01*
X284181Y201949D01*
X284620Y200890D01*
X285318Y199980D01*
X286228Y199281D01*
X287288Y198842D01*
X288425Y198693D01*
X289562Y198842D01*
X290622Y199281D01*
X291532Y199980D01*
X292230Y200890D01*
X292669Y201949D01*
X292819Y203087D01*
X292669Y204224D01*
X292230Y205284D01*
X291532Y206194D01*
X290622Y206892D01*
X289562Y207331D01*
X288425Y207481D01*
D02*
G37*
G36*
X140724Y200524D02*
X138295D01*
Y198095D01*
X138570Y198132D01*
X139292Y198431D01*
X139912Y198907D01*
X140388Y199527D01*
X140687Y200249D01*
X140724Y200524D01*
D02*
G37*
G36*
X137295D02*
X134867D01*
X134903Y200249D01*
X135202Y199527D01*
X135678Y198907D01*
X136298Y198431D01*
X137020Y198132D01*
X137295Y198095D01*
Y200524D01*
D02*
G37*
G36*
X98925Y201812D02*
Y197587D01*
X103150D01*
X103053Y198327D01*
X102574Y199482D01*
X101813Y200474D01*
X100821Y201236D01*
X99665Y201714D01*
X98925Y201812D01*
D02*
G37*
G36*
X97925D02*
X97185Y201714D01*
X96030Y201236D01*
X95038Y200474D01*
X94276Y199482D01*
X93797Y198327D01*
X93700Y197587D01*
X97925D01*
Y201812D01*
D02*
G37*
G36*
X375984Y202450D02*
X375004Y202321D01*
X374090Y201942D01*
X373306Y201340D01*
X372704Y200556D01*
X372325Y199642D01*
X372196Y198661D01*
X372325Y197681D01*
X372704Y196767D01*
X373306Y195983D01*
X374090Y195381D01*
X375004Y195002D01*
X375984Y194873D01*
X376965Y195002D01*
X377878Y195381D01*
X378663Y195983D01*
X379265Y196767D01*
X379644Y197681D01*
X379773Y198661D01*
X379644Y199642D01*
X379265Y200556D01*
X378663Y201340D01*
X377878Y201942D01*
X376965Y202321D01*
X375984Y202450D01*
D02*
G37*
G36*
X103150Y196587D02*
X98925D01*
Y192361D01*
X99665Y192459D01*
X100821Y192938D01*
X101813Y193699D01*
X102574Y194691D01*
X103053Y195847D01*
X103150Y196587D01*
D02*
G37*
G36*
X97925D02*
X93700D01*
X93797Y195847D01*
X94276Y194691D01*
X95038Y193699D01*
X96030Y192938D01*
X97185Y192459D01*
X97925Y192361D01*
Y196587D01*
D02*
G37*
G36*
X265748Y197125D02*
X265076Y197036D01*
X264450Y196777D01*
X263912Y196364D01*
X263499Y195826D01*
X263240Y195200D01*
X263151Y194528D01*
X263240Y193855D01*
X263499Y193229D01*
X263912Y192691D01*
X264450Y192279D01*
X265076Y192019D01*
X265748Y191930D01*
X266420Y192019D01*
X267046Y192279D01*
X267584Y192691D01*
X267997Y193229D01*
X268257Y193855D01*
X268345Y194528D01*
X268257Y195200D01*
X267997Y195826D01*
X267584Y196364D01*
X267046Y196777D01*
X266420Y197036D01*
X265748Y197125D01*
D02*
G37*
G36*
X288425Y197480D02*
X287288Y197331D01*
X286228Y196892D01*
X285318Y196194D01*
X284620Y195283D01*
X284181Y194224D01*
X284031Y193087D01*
X284181Y191949D01*
X284620Y190890D01*
X285318Y189980D01*
X286228Y189281D01*
X287288Y188842D01*
X288425Y188693D01*
X289562Y188842D01*
X290622Y189281D01*
X291532Y189980D01*
X292230Y190890D01*
X292669Y191949D01*
X292819Y193087D01*
X292669Y194224D01*
X292230Y195283D01*
X291532Y196194D01*
X290622Y196892D01*
X289562Y197331D01*
X288425Y197480D01*
D02*
G37*
G36*
X318898Y191573D02*
X318226Y191485D01*
X317599Y191226D01*
X317061Y190813D01*
X316649Y190275D01*
X316389Y189648D01*
X316301Y188976D01*
X316389Y188304D01*
X316649Y187678D01*
X317061Y187140D01*
X317599Y186727D01*
X318226Y186468D01*
X318898Y186379D01*
X319570Y186468D01*
X320196Y186727D01*
X320734Y187140D01*
X321147Y187678D01*
X321406Y188304D01*
X321495Y188976D01*
X321406Y189648D01*
X321147Y190275D01*
X320734Y190813D01*
X320196Y191226D01*
X319570Y191485D01*
X318898Y191573D01*
D02*
G37*
G36*
X375984Y192450D02*
X375004Y192321D01*
X374090Y191942D01*
X373306Y191340D01*
X372704Y190556D01*
X372325Y189642D01*
X372196Y188661D01*
X372325Y187681D01*
X372704Y186767D01*
X373306Y185983D01*
X374090Y185381D01*
X375004Y185002D01*
X375984Y184873D01*
X376965Y185002D01*
X377878Y185381D01*
X378663Y185983D01*
X379265Y186767D01*
X379644Y187681D01*
X379773Y188661D01*
X379644Y189642D01*
X379265Y190556D01*
X378663Y191340D01*
X377878Y191942D01*
X376965Y192321D01*
X375984Y192450D01*
D02*
G37*
G36*
X98425Y191481D02*
X97288Y191331D01*
X96228Y190892D01*
X95318Y190194D01*
X94620Y189284D01*
X94181Y188224D01*
X94031Y187087D01*
X94181Y185949D01*
X94620Y184890D01*
X95318Y183980D01*
X96228Y183281D01*
X97288Y182842D01*
X98425Y182693D01*
X99562Y182842D01*
X100622Y183281D01*
X101532Y183980D01*
X102230Y184890D01*
X102669Y185949D01*
X102819Y187087D01*
X102669Y188224D01*
X102230Y189284D01*
X101532Y190194D01*
X100622Y190892D01*
X99562Y191331D01*
X98425Y191481D01*
D02*
G37*
G36*
X255906Y187636D02*
X255233Y187548D01*
X254607Y187288D01*
X254069Y186876D01*
X253656Y186338D01*
X253397Y185712D01*
X253309Y185039D01*
X253397Y184367D01*
X253656Y183741D01*
X254069Y183203D01*
X254607Y182790D01*
X255233Y182531D01*
X255906Y182442D01*
X256578Y182531D01*
X257204Y182790D01*
X257742Y183203D01*
X258155Y183741D01*
X258414Y184367D01*
X258503Y185039D01*
X258414Y185712D01*
X258155Y186338D01*
X257742Y186876D01*
X257204Y187288D01*
X256578Y187548D01*
X255906Y187636D01*
D02*
G37*
G36*
X288425Y187480D02*
X287288Y187331D01*
X286228Y186892D01*
X285318Y186194D01*
X284620Y185284D01*
X284181Y184224D01*
X284031Y183087D01*
X284181Y181949D01*
X284620Y180890D01*
X285318Y179980D01*
X286228Y179281D01*
X287288Y178842D01*
X288425Y178693D01*
X289562Y178842D01*
X290622Y179281D01*
X291532Y179980D01*
X292230Y180890D01*
X292669Y181949D01*
X292819Y183087D01*
X292669Y184224D01*
X292230Y185284D01*
X291532Y186194D01*
X290622Y186892D01*
X289562Y187331D01*
X288425Y187480D01*
D02*
G37*
G36*
X318898Y179762D02*
X318226Y179674D01*
X317599Y179414D01*
X317061Y179002D01*
X316649Y178464D01*
X316389Y177838D01*
X316301Y177165D01*
X316389Y176493D01*
X316649Y175867D01*
X317061Y175329D01*
X317599Y174916D01*
X318226Y174657D01*
X318898Y174568D01*
X319570Y174657D01*
X320196Y174916D01*
X320734Y175329D01*
X321147Y175867D01*
X321406Y176493D01*
X321495Y177165D01*
X321406Y177838D01*
X321147Y178464D01*
X320734Y179002D01*
X320196Y179414D01*
X319570Y179674D01*
X318898Y179762D01*
D02*
G37*
G36*
X98425Y181481D02*
X97288Y181331D01*
X96228Y180892D01*
X95318Y180194D01*
X94620Y179283D01*
X94181Y178224D01*
X94031Y177087D01*
X94181Y175949D01*
X94620Y174890D01*
X95318Y173980D01*
X96228Y173281D01*
X97288Y172842D01*
X98425Y172693D01*
X99562Y172842D01*
X100622Y173281D01*
X101532Y173980D01*
X102230Y174890D01*
X102669Y175949D01*
X102819Y177087D01*
X102669Y178224D01*
X102230Y179283D01*
X101532Y180194D01*
X100622Y180892D01*
X99562Y181331D01*
X98425Y181481D01*
D02*
G37*
G36*
X318898Y171888D02*
X318226Y171800D01*
X317599Y171540D01*
X317061Y171128D01*
X316649Y170590D01*
X316389Y169964D01*
X316301Y169291D01*
X316389Y168619D01*
X316649Y167993D01*
X317061Y167455D01*
X317599Y167042D01*
X318226Y166783D01*
X318898Y166694D01*
X319570Y166783D01*
X320196Y167042D01*
X320734Y167455D01*
X321147Y167993D01*
X321406Y168619D01*
X321495Y169291D01*
X321406Y169964D01*
X321147Y170590D01*
X320734Y171128D01*
X320196Y171540D01*
X319570Y171800D01*
X318898Y171888D01*
D02*
G37*
G36*
X31496Y173287D02*
X30207Y173117D01*
X29006Y172620D01*
X27975Y171828D01*
X27184Y170797D01*
X26686Y169596D01*
X26516Y168307D01*
X26686Y167018D01*
X27184Y165817D01*
X27975Y164786D01*
X29006Y163995D01*
X30207Y163497D01*
X31496Y163328D01*
X32785Y163497D01*
X33986Y163995D01*
X35017Y164786D01*
X35809Y165817D01*
X36306Y167018D01*
X36476Y168307D01*
X36306Y169596D01*
X35809Y170797D01*
X35017Y171828D01*
X33986Y172620D01*
X32785Y173117D01*
X31496Y173287D01*
D02*
G37*
G36*
X288425Y171481D02*
X287288Y171331D01*
X286228Y170892D01*
X285318Y170194D01*
X284620Y169283D01*
X284181Y168224D01*
X284031Y167087D01*
X284181Y165949D01*
X284620Y164890D01*
X285318Y163980D01*
X286228Y163281D01*
X287288Y162842D01*
X288425Y162693D01*
X289562Y162842D01*
X290622Y163281D01*
X291532Y163980D01*
X292230Y164890D01*
X292669Y165949D01*
X292819Y167087D01*
X292669Y168224D01*
X292230Y169283D01*
X291532Y170194D01*
X290622Y170892D01*
X289562Y171331D01*
X288425Y171481D01*
D02*
G37*
G36*
X278425D02*
X277288Y171331D01*
X276228Y170892D01*
X275318Y170194D01*
X274620Y169283D01*
X274181Y168224D01*
X274031Y167087D01*
X274181Y165949D01*
X274620Y164890D01*
X275318Y163980D01*
X276228Y163281D01*
X277288Y162842D01*
X278425Y162693D01*
X279562Y162842D01*
X280622Y163281D01*
X281532Y163980D01*
X282230Y164890D01*
X282669Y165949D01*
X282819Y167087D01*
X282669Y168224D01*
X282230Y169283D01*
X281532Y170194D01*
X280622Y170892D01*
X279562Y171331D01*
X278425Y171481D01*
D02*
G37*
G36*
X98425D02*
X97288Y171331D01*
X96228Y170892D01*
X95318Y170194D01*
X94620Y169283D01*
X94181Y168224D01*
X94031Y167087D01*
X94181Y165949D01*
X94620Y164890D01*
X95318Y163980D01*
X96228Y163281D01*
X97288Y162842D01*
X98425Y162693D01*
X99562Y162842D01*
X100622Y163281D01*
X101532Y163980D01*
X102230Y164890D01*
X102669Y165949D01*
X102819Y167087D01*
X102669Y168224D01*
X102230Y169283D01*
X101532Y170194D01*
X100622Y170892D01*
X99562Y171331D01*
X98425Y171481D01*
D02*
G37*
G36*
X135984Y171151D02*
X135004Y171021D01*
X134090Y170643D01*
X133306Y170041D01*
X132703Y169256D01*
X132325Y168343D01*
X132196Y167362D01*
Y163819D01*
X132325Y162838D01*
X132703Y161925D01*
X133306Y161140D01*
X134090Y160538D01*
X135004Y160160D01*
X135984Y160031D01*
X136965Y160160D01*
X137878Y160538D01*
X138663Y161140D01*
X139265Y161925D01*
X139644Y162838D01*
X139773Y163819D01*
Y167362D01*
X139644Y168343D01*
X139265Y169256D01*
X138663Y170041D01*
X137878Y170643D01*
X136965Y171021D01*
X135984Y171151D01*
D02*
G37*
G36*
X125984D02*
X125004Y171021D01*
X124090Y170643D01*
X123305Y170041D01*
X122704Y169256D01*
X122325Y168343D01*
X122196Y167362D01*
Y163819D01*
X122325Y162838D01*
X122704Y161925D01*
X123305Y161140D01*
X124090Y160538D01*
X125004Y160160D01*
X125984Y160031D01*
X126965Y160160D01*
X127878Y160538D01*
X128663Y161140D01*
X129265Y161925D01*
X129643Y162838D01*
X129773Y163819D01*
Y167362D01*
X129643Y168343D01*
X129265Y169256D01*
X128663Y170041D01*
X127878Y170643D01*
X126965Y171021D01*
X125984Y171151D01*
D02*
G37*
G36*
X115984D02*
X115004Y171021D01*
X114090Y170643D01*
X113305Y170041D01*
X112704Y169256D01*
X112325Y168343D01*
X112196Y167362D01*
Y163819D01*
X112325Y162838D01*
X112704Y161925D01*
X113305Y161140D01*
X114090Y160538D01*
X115004Y160160D01*
X115984Y160031D01*
X116965Y160160D01*
X117878Y160538D01*
X118663Y161140D01*
X119265Y161925D01*
X119643Y162838D01*
X119773Y163819D01*
Y167362D01*
X119643Y168343D01*
X119265Y169256D01*
X118663Y170041D01*
X117878Y170643D01*
X116965Y171021D01*
X115984Y171151D01*
D02*
G37*
G36*
X318898Y164014D02*
X318226Y163926D01*
X317599Y163666D01*
X317061Y163254D01*
X316649Y162716D01*
X316389Y162090D01*
X316301Y161417D01*
X316389Y160745D01*
X316649Y160119D01*
X317061Y159581D01*
X317599Y159168D01*
X318226Y158909D01*
X318898Y158820D01*
X319570Y158909D01*
X320196Y159168D01*
X320734Y159581D01*
X321147Y160119D01*
X321406Y160745D01*
X321495Y161417D01*
X321406Y162090D01*
X321147Y162716D01*
X320734Y163254D01*
X320196Y163666D01*
X319570Y163926D01*
X318898Y164014D01*
D02*
G37*
G36*
X156386Y160035D02*
Y157606D01*
X158814D01*
X158778Y157881D01*
X158479Y158603D01*
X158003Y159223D01*
X157383Y159699D01*
X156661Y159998D01*
X156386Y160035D01*
D02*
G37*
G36*
X155386D02*
X155111Y159998D01*
X154389Y159699D01*
X153769Y159223D01*
X153293Y158603D01*
X152994Y157881D01*
X152957Y157606D01*
X155386D01*
Y160035D01*
D02*
G37*
G36*
X158814Y156606D02*
X156386D01*
Y154178D01*
X156661Y154214D01*
X157383Y154513D01*
X158003Y154989D01*
X158479Y155609D01*
X158778Y156331D01*
X158814Y156606D01*
D02*
G37*
G36*
X155386D02*
X152957D01*
X152994Y156331D01*
X153293Y155609D01*
X153769Y154989D01*
X154389Y154513D01*
X155111Y154214D01*
X155386Y154178D01*
Y156606D01*
D02*
G37*
G36*
X288425Y161480D02*
X287288Y161331D01*
X286228Y160892D01*
X285318Y160194D01*
X284620Y159283D01*
X284181Y158224D01*
X284031Y157087D01*
X284181Y155949D01*
X284620Y154890D01*
X285318Y153980D01*
X286228Y153281D01*
X287288Y152842D01*
X288425Y152693D01*
X289562Y152842D01*
X290622Y153281D01*
X291532Y153980D01*
X292230Y154890D01*
X292669Y155949D01*
X292819Y157087D01*
X292669Y158224D01*
X292230Y159283D01*
X291532Y160194D01*
X290622Y160892D01*
X289562Y161331D01*
X288425Y161480D01*
D02*
G37*
G36*
X278425D02*
X277288Y161331D01*
X276228Y160892D01*
X275318Y160194D01*
X274620Y159283D01*
X274181Y158224D01*
X274031Y157087D01*
X274181Y155949D01*
X274620Y154890D01*
X275318Y153980D01*
X276228Y153281D01*
X277288Y152842D01*
X278425Y152693D01*
X279562Y152842D01*
X280622Y153281D01*
X281532Y153980D01*
X282230Y154890D01*
X282669Y155949D01*
X282819Y157087D01*
X282669Y158224D01*
X282230Y159283D01*
X281532Y160194D01*
X280622Y160892D01*
X279562Y161331D01*
X278425Y161480D01*
D02*
G37*
G36*
X318898Y156140D02*
X318226Y156052D01*
X317599Y155792D01*
X317061Y155380D01*
X316649Y154842D01*
X316389Y154216D01*
X316301Y153543D01*
X316389Y152871D01*
X316649Y152245D01*
X317061Y151707D01*
X317599Y151294D01*
X318226Y151035D01*
X318898Y150946D01*
X319570Y151035D01*
X320196Y151294D01*
X320734Y151707D01*
X321147Y152245D01*
X321406Y152871D01*
X321495Y153543D01*
X321406Y154216D01*
X321147Y154842D01*
X320734Y155380D01*
X320196Y155792D01*
X319570Y156052D01*
X318898Y156140D01*
D02*
G37*
G36*
Y148266D02*
X318226Y148178D01*
X317599Y147918D01*
X317061Y147506D01*
X316649Y146968D01*
X316389Y146341D01*
X316301Y145669D01*
X316389Y144997D01*
X316649Y144371D01*
X317061Y143833D01*
X317599Y143420D01*
X318226Y143161D01*
X318898Y143072D01*
X319570Y143161D01*
X320196Y143420D01*
X320734Y143833D01*
X321147Y144371D01*
X321406Y144997D01*
X321495Y145669D01*
X321406Y146341D01*
X321147Y146968D01*
X320734Y147506D01*
X320196Y147918D01*
X319570Y148178D01*
X318898Y148266D01*
D02*
G37*
G36*
X268216Y145477D02*
Y143049D01*
X270645D01*
X270609Y143324D01*
X270309Y144046D01*
X269834Y144666D01*
X269214Y145142D01*
X268492Y145441D01*
X268216Y145477D01*
D02*
G37*
G36*
X267216D02*
X266942Y145441D01*
X266219Y145142D01*
X265599Y144666D01*
X265124Y144046D01*
X264824Y143324D01*
X264788Y143049D01*
X267216D01*
Y145477D01*
D02*
G37*
G36*
X288425Y151480D02*
X287288Y151331D01*
X286228Y150892D01*
X285318Y150194D01*
X284620Y149284D01*
X284181Y148224D01*
X284031Y147087D01*
X284181Y145949D01*
X284620Y144890D01*
X285318Y143980D01*
X286228Y143281D01*
X287288Y142842D01*
X288425Y142693D01*
X289562Y142842D01*
X290622Y143281D01*
X291532Y143980D01*
X292230Y144890D01*
X292669Y145949D01*
X292819Y147087D01*
X292669Y148224D01*
X292230Y149284D01*
X291532Y150194D01*
X290622Y150892D01*
X289562Y151331D01*
X288425Y151480D01*
D02*
G37*
G36*
X278425D02*
X277288Y151331D01*
X276228Y150892D01*
X275318Y150194D01*
X274620Y149284D01*
X274181Y148224D01*
X274031Y147087D01*
X274181Y145949D01*
X274620Y144890D01*
X275318Y143980D01*
X276228Y143281D01*
X277288Y142842D01*
X278425Y142693D01*
X279562Y142842D01*
X280622Y143281D01*
X281532Y143980D01*
X282230Y144890D01*
X282669Y145949D01*
X282819Y147087D01*
X282669Y148224D01*
X282230Y149284D01*
X281532Y150194D01*
X280622Y150892D01*
X279562Y151331D01*
X278425Y151480D01*
D02*
G37*
G36*
X98425D02*
X97288Y151331D01*
X96228Y150892D01*
X95318Y150194D01*
X94620Y149284D01*
X94181Y148224D01*
X94031Y147087D01*
X94181Y145949D01*
X94620Y144890D01*
X95318Y143980D01*
X96228Y143281D01*
X97288Y142842D01*
X98425Y142693D01*
X99562Y142842D01*
X100622Y143281D01*
X101532Y143980D01*
X102230Y144890D01*
X102669Y145949D01*
X102819Y147087D01*
X102669Y148224D01*
X102230Y149284D01*
X101532Y150194D01*
X100622Y150892D01*
X99562Y151331D01*
X98425Y151480D01*
D02*
G37*
G36*
X16535Y156561D02*
X15041Y156365D01*
X13648Y155788D01*
X12453Y154870D01*
X11535Y153674D01*
X10958Y152282D01*
X10762Y150787D01*
Y146850D01*
X10958Y145356D01*
X11535Y143964D01*
X12453Y142768D01*
X13648Y141850D01*
X15041Y141273D01*
X16535Y141077D01*
X18030Y141273D01*
X19422Y141850D01*
X20618Y142768D01*
X21536Y143964D01*
X22113Y145356D01*
X22309Y146850D01*
Y150787D01*
X22113Y152282D01*
X21536Y153674D01*
X20618Y154870D01*
X19422Y155788D01*
X18030Y156365D01*
X16535Y156561D01*
D02*
G37*
G36*
X270645Y142049D02*
X268216D01*
Y139621D01*
X268492Y139657D01*
X269214Y139956D01*
X269834Y140432D01*
X270309Y141052D01*
X270609Y141774D01*
X270645Y142049D01*
D02*
G37*
G36*
X267216D02*
X264788D01*
X264824Y141774D01*
X265124Y141052D01*
X265599Y140432D01*
X266219Y139956D01*
X266942Y139657D01*
X267216Y139621D01*
Y142049D01*
D02*
G37*
G36*
X376484Y142072D02*
Y138453D01*
X380104D01*
X380027Y139036D01*
X379609Y140045D01*
X378944Y140912D01*
X378077Y141577D01*
X377067Y141996D01*
X376484Y142072D01*
D02*
G37*
G36*
X375484D02*
X374901Y141996D01*
X373891Y141577D01*
X373025Y140912D01*
X372360Y140045D01*
X371941Y139036D01*
X371865Y138453D01*
X375484D01*
Y142072D01*
D02*
G37*
G36*
X349909Y140714D02*
Y138285D01*
X352338D01*
X352302Y138560D01*
X352002Y139283D01*
X351527Y139903D01*
X350906Y140378D01*
X350184Y140677D01*
X349909Y140714D01*
D02*
G37*
G36*
X348909D02*
X348635Y140677D01*
X347912Y140378D01*
X347292Y139903D01*
X346816Y139283D01*
X346517Y138560D01*
X346481Y138285D01*
X348909D01*
Y140714D01*
D02*
G37*
G36*
X318898Y140392D02*
X318226Y140304D01*
X317599Y140044D01*
X317061Y139632D01*
X316649Y139094D01*
X316389Y138467D01*
X316301Y137795D01*
X316389Y137123D01*
X316649Y136497D01*
X317061Y135959D01*
X317599Y135546D01*
X318226Y135287D01*
X318898Y135198D01*
X319570Y135287D01*
X320196Y135546D01*
X320734Y135959D01*
X321147Y136497D01*
X321406Y137123D01*
X321495Y137795D01*
X321406Y138467D01*
X321147Y139094D01*
X320734Y139632D01*
X320196Y140044D01*
X319570Y140304D01*
X318898Y140392D01*
D02*
G37*
G36*
X352338Y137285D02*
X349909D01*
Y134857D01*
X350184Y134893D01*
X350906Y135193D01*
X351527Y135668D01*
X352002Y136288D01*
X352302Y137011D01*
X352338Y137285D01*
D02*
G37*
G36*
X348909D02*
X346481D01*
X346517Y137011D01*
X346816Y136288D01*
X347292Y135668D01*
X347912Y135193D01*
X348635Y134893D01*
X348909Y134857D01*
Y137285D01*
D02*
G37*
G36*
X380104Y137453D02*
X376484D01*
Y133833D01*
X377067Y133910D01*
X378077Y134328D01*
X378944Y134993D01*
X379609Y135860D01*
X380027Y136870D01*
X380104Y137453D01*
D02*
G37*
G36*
X375484D02*
X371865D01*
X371941Y136870D01*
X372360Y135860D01*
X373025Y134993D01*
X373891Y134328D01*
X374901Y133910D01*
X375484Y133833D01*
Y137453D01*
D02*
G37*
G36*
X288425Y141481D02*
X287288Y141331D01*
X286228Y140892D01*
X285318Y140194D01*
X284620Y139284D01*
X284181Y138224D01*
X284031Y137087D01*
X284181Y135949D01*
X284620Y134890D01*
X285318Y133980D01*
X286228Y133281D01*
X287288Y132842D01*
X288425Y132693D01*
X289562Y132842D01*
X290622Y133281D01*
X291532Y133980D01*
X292230Y134890D01*
X292669Y135949D01*
X292819Y137087D01*
X292669Y138224D01*
X292230Y139284D01*
X291532Y140194D01*
X290622Y140892D01*
X289562Y141331D01*
X288425Y141481D01*
D02*
G37*
G36*
X278425D02*
X277288Y141331D01*
X276228Y140892D01*
X275318Y140194D01*
X274620Y139284D01*
X274181Y138224D01*
X274031Y137087D01*
X274181Y135949D01*
X274620Y134890D01*
X275318Y133980D01*
X276228Y133281D01*
X277288Y132842D01*
X278425Y132693D01*
X279562Y132842D01*
X280622Y133281D01*
X281532Y133980D01*
X282230Y134890D01*
X282669Y135949D01*
X282819Y137087D01*
X282669Y138224D01*
X282230Y139284D01*
X281532Y140194D01*
X280622Y140892D01*
X279562Y141331D01*
X278425Y141481D01*
D02*
G37*
G36*
X98425D02*
X97288Y141331D01*
X96228Y140892D01*
X95318Y140194D01*
X94620Y139284D01*
X94181Y138224D01*
X94031Y137087D01*
X94181Y135949D01*
X94620Y134890D01*
X95318Y133980D01*
X96228Y133281D01*
X97288Y132842D01*
X98425Y132693D01*
X99562Y132842D01*
X100622Y133281D01*
X101532Y133980D01*
X102230Y134890D01*
X102669Y135949D01*
X102819Y137087D01*
X102669Y138224D01*
X102230Y139284D01*
X101532Y140194D01*
X100622Y140892D01*
X99562Y141331D01*
X98425Y141481D01*
D02*
G37*
G36*
X47244Y138044D02*
X46161Y137901D01*
X45151Y137483D01*
X44285Y136818D01*
X43619Y135951D01*
X43201Y134941D01*
X43059Y133858D01*
X43201Y132775D01*
X43619Y131766D01*
X44285Y130899D01*
X45151Y130234D01*
X46161Y129815D01*
X47244Y129673D01*
X48327Y129815D01*
X49337Y130234D01*
X50204Y130899D01*
X50869Y131766D01*
X51287Y132775D01*
X51429Y133858D01*
X51287Y134941D01*
X50869Y135951D01*
X50204Y136818D01*
X49337Y137483D01*
X48327Y137901D01*
X47244Y138044D01*
D02*
G37*
G36*
X318898Y132518D02*
X318226Y132430D01*
X317599Y132170D01*
X317061Y131758D01*
X316649Y131220D01*
X316389Y130593D01*
X316301Y129921D01*
X316389Y129249D01*
X316649Y128623D01*
X317061Y128085D01*
X317599Y127672D01*
X318226Y127413D01*
X318898Y127324D01*
X319570Y127413D01*
X320196Y127672D01*
X320734Y128085D01*
X321147Y128623D01*
X321406Y129249D01*
X321495Y129921D01*
X321406Y130593D01*
X321147Y131220D01*
X320734Y131758D01*
X320196Y132170D01*
X319570Y132430D01*
X318898Y132518D01*
D02*
G37*
G36*
X375984Y131741D02*
X375004Y131612D01*
X374090Y131234D01*
X373306Y130631D01*
X372704Y129847D01*
X372325Y128933D01*
X372196Y127953D01*
X372325Y126972D01*
X372704Y126059D01*
X373306Y125274D01*
X374090Y124672D01*
X375004Y124293D01*
X375984Y124164D01*
X376965Y124293D01*
X377878Y124672D01*
X378663Y125274D01*
X379265Y126059D01*
X379644Y126972D01*
X379773Y127953D01*
X379644Y128933D01*
X379265Y129847D01*
X378663Y130631D01*
X377878Y131234D01*
X376965Y131612D01*
X375984Y131741D01*
D02*
G37*
G36*
X215384Y193188D02*
X214712Y193099D01*
X214085Y192840D01*
X213547Y192427D01*
X213135Y191889D01*
X212875Y191263D01*
X212787Y190591D01*
X212875Y189918D01*
X213135Y189292D01*
X213547Y188754D01*
X214085Y188341D01*
X214712Y188082D01*
X215384Y187994D01*
X215652Y188029D01*
X222788Y180893D01*
Y159447D01*
X222654Y159273D01*
X222395Y158647D01*
X222306Y157974D01*
X222395Y157302D01*
X222654Y156676D01*
X222788Y156502D01*
Y147670D01*
X222573Y147506D01*
X222160Y146968D01*
X221901Y146342D01*
X221812Y145669D01*
X221901Y144997D01*
X222160Y144371D01*
X222386Y144076D01*
Y135779D01*
X215149Y128541D01*
X214781Y128493D01*
X214154Y128233D01*
X213616Y127821D01*
X213204Y127283D01*
X212944Y126656D01*
X212856Y125984D01*
X212944Y125312D01*
X213204Y124686D01*
X213616Y124148D01*
X214154Y123735D01*
X214781Y123476D01*
X215453Y123387D01*
X216125Y123476D01*
X216751Y123735D01*
X217289Y124148D01*
X217702Y124686D01*
X217961Y125312D01*
X218010Y125680D01*
X225840Y133510D01*
X226279Y134167D01*
X226433Y134941D01*
Y144076D01*
X226659Y144371D01*
X226918Y144997D01*
X227007Y145669D01*
X226918Y146342D01*
X226659Y146968D01*
X226246Y147506D01*
X226031Y147670D01*
Y155655D01*
X226202Y155725D01*
X226740Y156138D01*
X227152Y156676D01*
X227412Y157302D01*
X227501Y157974D01*
X227412Y158647D01*
X227152Y159273D01*
X226740Y159811D01*
X226202Y160223D01*
X226031Y160294D01*
Y181565D01*
X225908Y182186D01*
X225556Y182712D01*
X217946Y190322D01*
X217981Y190591D01*
X217892Y191263D01*
X217633Y191889D01*
X217220Y192427D01*
X216682Y192840D01*
X216056Y193099D01*
X215384Y193188D01*
D02*
G37*
G36*
X288425Y131481D02*
X287288Y131331D01*
X286228Y130892D01*
X285318Y130194D01*
X284620Y129283D01*
X284181Y128224D01*
X284031Y127087D01*
X284181Y125949D01*
X284620Y124890D01*
X285318Y123980D01*
X286228Y123281D01*
X287288Y122842D01*
X288425Y122693D01*
X289562Y122842D01*
X290622Y123281D01*
X291532Y123980D01*
X292230Y124890D01*
X292669Y125949D01*
X292819Y127087D01*
X292669Y128224D01*
X292230Y129283D01*
X291532Y130194D01*
X290622Y130892D01*
X289562Y131331D01*
X288425Y131481D01*
D02*
G37*
G36*
X278425D02*
X277288Y131331D01*
X276228Y130892D01*
X275318Y130194D01*
X274620Y129283D01*
X274181Y128224D01*
X274031Y127087D01*
X274181Y125949D01*
X274620Y124890D01*
X275318Y123980D01*
X276228Y123281D01*
X277288Y122842D01*
X278425Y122693D01*
X279562Y122842D01*
X280622Y123281D01*
X281532Y123980D01*
X282230Y124890D01*
X282669Y125949D01*
X282819Y127087D01*
X282669Y128224D01*
X282230Y129283D01*
X281532Y130194D01*
X280622Y130892D01*
X279562Y131331D01*
X278425Y131481D01*
D02*
G37*
G36*
X98425D02*
X97288Y131331D01*
X96228Y130892D01*
X95318Y130194D01*
X94620Y129283D01*
X94181Y128224D01*
X94031Y127087D01*
X94181Y125949D01*
X94620Y124890D01*
X95318Y123980D01*
X96228Y123281D01*
X97288Y122842D01*
X98425Y122693D01*
X99562Y122842D01*
X100622Y123281D01*
X101532Y123980D01*
X102230Y124890D01*
X102669Y125949D01*
X102819Y127087D01*
X102669Y128224D01*
X102230Y129283D01*
X101532Y130194D01*
X100622Y130892D01*
X99562Y131331D01*
X98425Y131481D01*
D02*
G37*
G36*
X318898Y124644D02*
X318226Y124556D01*
X317599Y124296D01*
X317061Y123884D01*
X316649Y123346D01*
X316389Y122719D01*
X316301Y122047D01*
X316389Y121375D01*
X316649Y120749D01*
X317061Y120211D01*
X317599Y119798D01*
X318226Y119539D01*
X318898Y119450D01*
X319570Y119539D01*
X320196Y119798D01*
X320734Y120211D01*
X321147Y120749D01*
X321406Y121375D01*
X321495Y122047D01*
X321406Y122719D01*
X321147Y123346D01*
X320734Y123884D01*
X320196Y124296D01*
X319570Y124556D01*
X318898Y124644D01*
D02*
G37*
G36*
X155886Y124270D02*
X155214Y124182D01*
X154587Y123922D01*
X154050Y123510D01*
X153637Y122972D01*
X153377Y122345D01*
X153289Y121673D01*
X153377Y121001D01*
X153637Y120375D01*
X154050Y119837D01*
X154587Y119424D01*
X155214Y119165D01*
X155886Y119076D01*
X156558Y119165D01*
X157184Y119424D01*
X157722Y119837D01*
X158135Y120375D01*
X158394Y121001D01*
X158483Y121673D01*
X158394Y122345D01*
X158135Y122972D01*
X157722Y123510D01*
X157184Y123922D01*
X156558Y124182D01*
X155886Y124270D01*
D02*
G37*
G36*
X288425Y121481D02*
X287288Y121331D01*
X286228Y120892D01*
X285318Y120194D01*
X284620Y119283D01*
X284181Y118224D01*
X284031Y117087D01*
X284181Y115949D01*
X284620Y114890D01*
X285318Y113980D01*
X286228Y113281D01*
X287288Y112842D01*
X288425Y112693D01*
X289562Y112842D01*
X290622Y113281D01*
X291532Y113980D01*
X292230Y114890D01*
X292669Y115949D01*
X292819Y117087D01*
X292669Y118224D01*
X292230Y119283D01*
X291532Y120194D01*
X290622Y120892D01*
X289562Y121331D01*
X288425Y121481D01*
D02*
G37*
G36*
X278425D02*
X277288Y121331D01*
X276228Y120892D01*
X275318Y120194D01*
X274620Y119283D01*
X274181Y118224D01*
X274031Y117087D01*
X274181Y115949D01*
X274620Y114890D01*
X275318Y113980D01*
X276228Y113281D01*
X277288Y112842D01*
X278425Y112693D01*
X279562Y112842D01*
X280622Y113281D01*
X281532Y113980D01*
X282230Y114890D01*
X282669Y115949D01*
X282819Y117087D01*
X282669Y118224D01*
X282230Y119283D01*
X281532Y120194D01*
X280622Y120892D01*
X279562Y121331D01*
X278425Y121481D01*
D02*
G37*
G36*
X98425D02*
X97288Y121331D01*
X96228Y120892D01*
X95318Y120194D01*
X94620Y119283D01*
X94181Y118224D01*
X94031Y117087D01*
X94181Y115949D01*
X94620Y114890D01*
X95318Y113980D01*
X96228Y113281D01*
X97288Y112842D01*
X98425Y112693D01*
X99562Y112842D01*
X100622Y113281D01*
X101532Y113980D01*
X102230Y114890D01*
X102669Y115949D01*
X102819Y117087D01*
X102669Y118224D01*
X102230Y119283D01*
X101532Y120194D01*
X100622Y120892D01*
X99562Y121331D01*
X98425Y121481D01*
D02*
G37*
G36*
X16535Y126640D02*
X15041Y126443D01*
X13648Y125866D01*
X12453Y124949D01*
X11535Y123753D01*
X10958Y122361D01*
X10762Y120866D01*
Y116929D01*
X10958Y115435D01*
X11535Y114042D01*
X12453Y112846D01*
X13648Y111929D01*
X15041Y111352D01*
X16535Y111155D01*
X18030Y111352D01*
X19422Y111929D01*
X20618Y112846D01*
X21536Y114042D01*
X22113Y115435D01*
X22309Y116929D01*
Y120866D01*
X22113Y122361D01*
X21536Y123753D01*
X20618Y124949D01*
X19422Y125866D01*
X18030Y126443D01*
X16535Y126640D01*
D02*
G37*
G36*
X206319Y109270D02*
X205647Y109182D01*
X205020Y108922D01*
X204483Y108510D01*
X204070Y107972D01*
X203810Y107345D01*
X203722Y106673D01*
X203810Y106001D01*
X204070Y105375D01*
X204483Y104837D01*
X205020Y104424D01*
X205647Y104165D01*
X206319Y104076D01*
X206991Y104165D01*
X207617Y104424D01*
X208155Y104837D01*
X208568Y105375D01*
X208827Y106001D01*
X208916Y106673D01*
X208827Y107345D01*
X208568Y107972D01*
X208155Y108510D01*
X207617Y108922D01*
X206991Y109182D01*
X206319Y109270D01*
D02*
G37*
G36*
X288425Y111480D02*
X287288Y111331D01*
X286228Y110892D01*
X285318Y110194D01*
X284620Y109283D01*
X284181Y108224D01*
X284031Y107087D01*
X284181Y105949D01*
X284620Y104890D01*
X285318Y103980D01*
X286228Y103281D01*
X287288Y102842D01*
X288425Y102693D01*
X289562Y102842D01*
X290622Y103281D01*
X291532Y103980D01*
X292230Y104890D01*
X292669Y105949D01*
X292819Y107087D01*
X292669Y108224D01*
X292230Y109283D01*
X291532Y110194D01*
X290622Y110892D01*
X289562Y111331D01*
X288425Y111480D01*
D02*
G37*
G36*
X278425D02*
X277288Y111331D01*
X276228Y110892D01*
X275318Y110194D01*
X274620Y109283D01*
X274181Y108224D01*
X274031Y107087D01*
X274181Y105949D01*
X274620Y104890D01*
X275318Y103980D01*
X276228Y103281D01*
X277288Y102842D01*
X278425Y102693D01*
X279562Y102842D01*
X280622Y103281D01*
X281532Y103980D01*
X282230Y104890D01*
X282669Y105949D01*
X282819Y107087D01*
X282669Y108224D01*
X282230Y109283D01*
X281532Y110194D01*
X280622Y110892D01*
X279562Y111331D01*
X278425Y111480D01*
D02*
G37*
G36*
X98425D02*
X97288Y111331D01*
X96228Y110892D01*
X95318Y110194D01*
X94620Y109283D01*
X94181Y108224D01*
X94031Y107087D01*
X94181Y105949D01*
X94620Y104890D01*
X95318Y103980D01*
X96228Y103281D01*
X97288Y102842D01*
X98425Y102693D01*
X99562Y102842D01*
X100622Y103281D01*
X101532Y103980D01*
X102230Y104890D01*
X102669Y105949D01*
X102819Y107087D01*
X102669Y108224D01*
X102230Y109283D01*
X101532Y110194D01*
X100622Y110892D01*
X99562Y111331D01*
X98425Y111480D01*
D02*
G37*
G36*
X348425Y100382D02*
X347753Y100294D01*
X347127Y100034D01*
X346589Y99622D01*
X346176Y99084D01*
X345917Y98458D01*
X345828Y97785D01*
X345917Y97113D01*
X346176Y96487D01*
X346589Y95949D01*
X347127Y95536D01*
X347753Y95277D01*
X348425Y95188D01*
X349097Y95277D01*
X349724Y95536D01*
X350262Y95949D01*
X350674Y96487D01*
X350934Y97113D01*
X351022Y97785D01*
X350934Y98458D01*
X350674Y99084D01*
X350262Y99622D01*
X349724Y100034D01*
X349097Y100294D01*
X348425Y100382D01*
D02*
G37*
G36*
X375984Y101741D02*
X375004Y101612D01*
X374090Y101233D01*
X373306Y100631D01*
X372704Y99847D01*
X372325Y98933D01*
X372196Y97953D01*
X372325Y96972D01*
X372704Y96059D01*
X373306Y95274D01*
X374090Y94672D01*
X375004Y94293D01*
X375984Y94164D01*
X376965Y94293D01*
X377878Y94672D01*
X378663Y95274D01*
X379265Y96059D01*
X379644Y96972D01*
X379773Y97953D01*
X379644Y98933D01*
X379265Y99847D01*
X378663Y100631D01*
X377878Y101233D01*
X376965Y101612D01*
X375984Y101741D01*
D02*
G37*
G36*
X288425Y101480D02*
X287288Y101331D01*
X286228Y100892D01*
X285318Y100194D01*
X284620Y99284D01*
X284181Y98224D01*
X284031Y97087D01*
X284181Y95949D01*
X284620Y94890D01*
X285318Y93980D01*
X286228Y93281D01*
X287288Y92842D01*
X288425Y92693D01*
X289562Y92842D01*
X290622Y93281D01*
X291532Y93980D01*
X292230Y94890D01*
X292669Y95949D01*
X292819Y97087D01*
X292669Y98224D01*
X292230Y99284D01*
X291532Y100194D01*
X290622Y100892D01*
X289562Y101331D01*
X288425Y101480D01*
D02*
G37*
G36*
X278425D02*
X277288Y101331D01*
X276228Y100892D01*
X275318Y100194D01*
X274620Y99284D01*
X274181Y98224D01*
X274031Y97087D01*
X274181Y95949D01*
X274620Y94890D01*
X275318Y93980D01*
X276228Y93281D01*
X277288Y92842D01*
X278425Y92693D01*
X279562Y92842D01*
X280622Y93281D01*
X281532Y93980D01*
X282230Y94890D01*
X282669Y95949D01*
X282819Y97087D01*
X282669Y98224D01*
X282230Y99284D01*
X281532Y100194D01*
X280622Y100892D01*
X279562Y101331D01*
X278425Y101480D01*
D02*
G37*
G36*
X98425D02*
X97288Y101331D01*
X96228Y100892D01*
X95318Y100194D01*
X94620Y99284D01*
X94181Y98224D01*
X94031Y97087D01*
X94181Y95949D01*
X94620Y94890D01*
X95318Y93980D01*
X96228Y93281D01*
X97288Y92842D01*
X98425Y92693D01*
X99562Y92842D01*
X100622Y93281D01*
X101532Y93980D01*
X102230Y94890D01*
X102669Y95949D01*
X102819Y97087D01*
X102669Y98224D01*
X102230Y99284D01*
X101532Y100194D01*
X100622Y100892D01*
X99562Y101331D01*
X98425Y101480D01*
D02*
G37*
G36*
X375984Y91741D02*
X375004Y91612D01*
X374090Y91233D01*
X373306Y90632D01*
X372704Y89847D01*
X372325Y88933D01*
X372196Y87953D01*
X372325Y86972D01*
X372704Y86059D01*
X373306Y85274D01*
X374090Y84672D01*
X375004Y84294D01*
X375984Y84164D01*
X376965Y84294D01*
X377878Y84672D01*
X378663Y85274D01*
X379265Y86059D01*
X379644Y86972D01*
X379773Y87953D01*
X379644Y88933D01*
X379265Y89847D01*
X378663Y90632D01*
X377878Y91233D01*
X376965Y91612D01*
X375984Y91741D01*
D02*
G37*
G36*
X155886Y88837D02*
X155214Y88749D01*
X154587Y88489D01*
X154050Y88077D01*
X153637Y87539D01*
X153377Y86912D01*
X153289Y86240D01*
X153377Y85568D01*
X153637Y84942D01*
X154050Y84404D01*
X154587Y83991D01*
X155214Y83732D01*
X155886Y83643D01*
X156558Y83732D01*
X157184Y83991D01*
X157722Y84404D01*
X158135Y84942D01*
X158394Y85568D01*
X158483Y86240D01*
X158394Y86912D01*
X158135Y87539D01*
X157722Y88077D01*
X157184Y88489D01*
X156558Y88749D01*
X155886Y88837D01*
D02*
G37*
G36*
X348425Y80383D02*
X347753Y80294D01*
X347127Y80035D01*
X346589Y79622D01*
X346176Y79084D01*
X345917Y78458D01*
X345828Y77785D01*
X345917Y77113D01*
X346176Y76487D01*
X346589Y75949D01*
X347127Y75536D01*
X347753Y75277D01*
X348425Y75188D01*
X349097Y75277D01*
X349724Y75536D01*
X350262Y75949D01*
X350674Y76487D01*
X350934Y77113D01*
X351022Y77785D01*
X350934Y78458D01*
X350674Y79084D01*
X350262Y79622D01*
X349724Y80035D01*
X349097Y80294D01*
X348425Y80383D01*
D02*
G37*
G36*
X375984Y81741D02*
X375004Y81612D01*
X374090Y81234D01*
X373306Y80632D01*
X372704Y79847D01*
X372325Y78933D01*
X372196Y77953D01*
X372325Y76972D01*
X372704Y76059D01*
X373306Y75274D01*
X374090Y74672D01*
X375004Y74294D01*
X375984Y74164D01*
X376965Y74294D01*
X377878Y74672D01*
X378663Y75274D01*
X379265Y76059D01*
X379644Y76972D01*
X379773Y77953D01*
X379644Y78933D01*
X379265Y79847D01*
X378663Y80632D01*
X377878Y81234D01*
X376965Y81612D01*
X375984Y81741D01*
D02*
G37*
G36*
X206319Y73837D02*
X205647Y73749D01*
X205020Y73489D01*
X204483Y73076D01*
X204070Y72539D01*
X203810Y71912D01*
X203722Y71240D01*
X203810Y70568D01*
X204070Y69942D01*
X204483Y69404D01*
X205020Y68991D01*
X205647Y68732D01*
X206319Y68643D01*
X206991Y68732D01*
X207617Y68991D01*
X208155Y69404D01*
X208568Y69942D01*
X208827Y70568D01*
X208916Y71240D01*
X208827Y71912D01*
X208568Y72539D01*
X208155Y73076D01*
X207617Y73489D01*
X206991Y73749D01*
X206319Y73837D01*
D02*
G37*
G36*
X251969Y51429D02*
X250885Y51287D01*
X249876Y50869D01*
X249009Y50204D01*
X248344Y49337D01*
X247926Y48327D01*
X247783Y47244D01*
X247926Y46161D01*
X248344Y45151D01*
X249009Y44285D01*
X249876Y43619D01*
X250885Y43201D01*
X251969Y43059D01*
X253052Y43201D01*
X254061Y43619D01*
X254928Y44285D01*
X255593Y45151D01*
X256011Y46161D01*
X256154Y47244D01*
X256011Y48327D01*
X255593Y49337D01*
X254928Y50204D01*
X254061Y50869D01*
X253052Y51287D01*
X251969Y51429D01*
D02*
G37*
G36*
X141732D02*
X140649Y51287D01*
X139640Y50869D01*
X138773Y50204D01*
X138108Y49337D01*
X137689Y48327D01*
X137547Y47244D01*
X137689Y46161D01*
X138108Y45151D01*
X138773Y44285D01*
X139640Y43619D01*
X140649Y43201D01*
X141732Y43059D01*
X142815Y43201D01*
X143825Y43619D01*
X144692Y44285D01*
X145357Y45151D01*
X145775Y46161D01*
X145918Y47244D01*
X145775Y48327D01*
X145357Y49337D01*
X144692Y50204D01*
X143825Y50869D01*
X142815Y51287D01*
X141732Y51429D01*
D02*
G37*
G36*
X16535Y54199D02*
X15041Y54002D01*
X13648Y53426D01*
X12453Y52508D01*
X11535Y51312D01*
X10958Y49920D01*
X10762Y48425D01*
Y44488D01*
X10958Y42994D01*
X11535Y41601D01*
X12453Y40405D01*
X13648Y39488D01*
X15041Y38911D01*
X16535Y38714D01*
X18030Y38911D01*
X19422Y39488D01*
X20618Y40405D01*
X21536Y41601D01*
X22113Y42994D01*
X22309Y44488D01*
Y48425D01*
X22113Y49920D01*
X21536Y51312D01*
X20618Y52508D01*
X19422Y53426D01*
X18030Y54002D01*
X16535Y54199D01*
D02*
G37*
G36*
X47244Y35682D02*
X46161Y35539D01*
X45151Y35121D01*
X44285Y34456D01*
X43619Y33589D01*
X43201Y32579D01*
X43059Y31496D01*
X43201Y30413D01*
X43619Y29403D01*
X44285Y28536D01*
X45151Y27871D01*
X46161Y27453D01*
X47244Y27311D01*
X48327Y27453D01*
X49337Y27871D01*
X50204Y28536D01*
X50869Y29403D01*
X51287Y30413D01*
X51429Y31496D01*
X51287Y32579D01*
X50869Y33589D01*
X50204Y34456D01*
X49337Y35121D01*
X48327Y35539D01*
X47244Y35682D01*
D02*
G37*
G36*
X268898Y22309D02*
X264961D01*
X263466Y22113D01*
X262074Y21536D01*
X260878Y20618D01*
X259960Y19422D01*
X259384Y18030D01*
X259187Y16535D01*
X259384Y15041D01*
X259960Y13648D01*
X260878Y12453D01*
X262074Y11535D01*
X263466Y10958D01*
X264961Y10762D01*
X268898D01*
X270392Y10958D01*
X271784Y11535D01*
X272980Y12453D01*
X273898Y13648D01*
X274475Y15041D01*
X274671Y16535D01*
X274475Y18030D01*
X273898Y19422D01*
X272980Y20618D01*
X271784Y21536D01*
X270392Y22113D01*
X268898Y22309D01*
D02*
G37*
G36*
X238976D02*
X235039D01*
X233545Y22113D01*
X232153Y21536D01*
X230957Y20618D01*
X230039Y19422D01*
X229462Y18030D01*
X229266Y16535D01*
X229462Y15041D01*
X230039Y13648D01*
X230957Y12453D01*
X232153Y11535D01*
X233545Y10958D01*
X235039Y10762D01*
X238976D01*
X240471Y10958D01*
X241863Y11535D01*
X243059Y12453D01*
X243977Y13648D01*
X244553Y15041D01*
X244750Y16535D01*
X244553Y18030D01*
X243977Y19422D01*
X243059Y20618D01*
X241863Y21536D01*
X240471Y22113D01*
X238976Y22309D01*
D02*
G37*
G36*
X158661D02*
X154724D01*
X153230Y22113D01*
X151838Y21536D01*
X150642Y20618D01*
X149724Y19422D01*
X149147Y18030D01*
X148951Y16535D01*
X149147Y15041D01*
X149724Y13648D01*
X150642Y12453D01*
X151838Y11535D01*
X153230Y10958D01*
X154724Y10762D01*
X158661D01*
X160156Y10958D01*
X161548Y11535D01*
X162744Y12453D01*
X163662Y13648D01*
X164239Y15041D01*
X164435Y16535D01*
X164239Y18030D01*
X163662Y19422D01*
X162744Y20618D01*
X161548Y21536D01*
X160156Y22113D01*
X158661Y22309D01*
D02*
G37*
G36*
X128740D02*
X124803D01*
X123309Y22113D01*
X121916Y21536D01*
X120721Y20618D01*
X119803Y19422D01*
X119226Y18030D01*
X119029Y16535D01*
X119226Y15041D01*
X119803Y13648D01*
X120721Y12453D01*
X121916Y11535D01*
X123309Y10958D01*
X124803Y10762D01*
X128740D01*
X130235Y10958D01*
X131627Y11535D01*
X132823Y12453D01*
X133740Y13648D01*
X134317Y15041D01*
X134514Y16535D01*
X134317Y18030D01*
X133740Y19422D01*
X132823Y20618D01*
X131627Y21536D01*
X130235Y22113D01*
X128740Y22309D01*
D02*
G37*
G36*
X16535Y24278D02*
X15041Y24081D01*
X13648Y23504D01*
X12453Y22587D01*
X11535Y21391D01*
X10958Y19998D01*
X10762Y18504D01*
Y14567D01*
X10958Y13073D01*
X11535Y11680D01*
X12453Y10484D01*
X13648Y9567D01*
X15041Y8990D01*
X16535Y8793D01*
X18030Y8990D01*
X19422Y9567D01*
X20618Y10484D01*
X21536Y11680D01*
X22113Y13073D01*
X22309Y14567D01*
Y18504D01*
X22113Y19998D01*
X21536Y21391D01*
X20618Y22587D01*
X19422Y23504D01*
X18030Y24081D01*
X16535Y24278D01*
D02*
G37*
%LPD*%
G36*
X181102Y177165D02*
X110236D01*
Y193699D01*
X153543D01*
X153543Y267717D01*
X106299D01*
Y287402D01*
X181102D01*
Y177165D01*
D02*
G37*
%LPC*%
G36*
X114673Y281078D02*
Y278650D01*
X117102D01*
X117065Y278924D01*
X116766Y279647D01*
X116290Y280267D01*
X115670Y280743D01*
X114948Y281042D01*
X114673Y281078D01*
D02*
G37*
G36*
X113673D02*
X113398Y281042D01*
X112676Y280743D01*
X112056Y280267D01*
X111580Y279647D01*
X111281Y278924D01*
X111245Y278650D01*
X113673D01*
Y281078D01*
D02*
G37*
G36*
X117102Y277650D02*
X114673D01*
Y275221D01*
X114948Y275257D01*
X115670Y275557D01*
X116290Y276032D01*
X116766Y276653D01*
X117065Y277375D01*
X117102Y277650D01*
D02*
G37*
G36*
X113673D02*
X111245D01*
X111281Y277375D01*
X111580Y276653D01*
X112056Y276032D01*
X112676Y275557D01*
X113398Y275257D01*
X113673Y275221D01*
Y277650D01*
D02*
G37*
G36*
X174102Y261176D02*
Y258748D01*
X176531D01*
X176495Y259023D01*
X176195Y259745D01*
X175719Y260365D01*
X175099Y260841D01*
X174377Y261140D01*
X174102Y261176D01*
D02*
G37*
G36*
X173102D02*
X172827Y261140D01*
X172105Y260841D01*
X171485Y260365D01*
X171009Y259745D01*
X170710Y259023D01*
X170674Y258748D01*
X173102D01*
Y261176D01*
D02*
G37*
G36*
X176531Y257748D02*
X174102D01*
Y255320D01*
X174377Y255356D01*
X175099Y255655D01*
X175719Y256131D01*
X176195Y256751D01*
X176495Y257473D01*
X176531Y257748D01*
D02*
G37*
G36*
X173102D02*
X170674D01*
X170710Y257473D01*
X171009Y256751D01*
X171485Y256131D01*
X172105Y255655D01*
X172827Y255356D01*
X173102Y255320D01*
Y257748D01*
D02*
G37*
G36*
X174102Y190310D02*
Y187882D01*
X176531D01*
X176495Y188157D01*
X176195Y188879D01*
X175719Y189499D01*
X175099Y189975D01*
X174377Y190274D01*
X174102Y190310D01*
D02*
G37*
G36*
X173102D02*
X172827Y190274D01*
X172105Y189975D01*
X171485Y189499D01*
X171009Y188879D01*
X170710Y188157D01*
X170674Y187882D01*
X173102D01*
Y190310D01*
D02*
G37*
G36*
X115323Y188204D02*
Y185776D01*
X117751D01*
X117715Y186050D01*
X117416Y186773D01*
X116940Y187393D01*
X116320Y187869D01*
X115598Y188168D01*
X115323Y188204D01*
D02*
G37*
G36*
X114323D02*
X114048Y188168D01*
X113326Y187869D01*
X112706Y187393D01*
X112230Y186773D01*
X111931Y186050D01*
X111895Y185776D01*
X114323D01*
Y188204D01*
D02*
G37*
G36*
X176531Y186882D02*
X174102D01*
Y184454D01*
X174377Y184490D01*
X175099Y184789D01*
X175719Y185265D01*
X176195Y185885D01*
X176495Y186607D01*
X176531Y186882D01*
D02*
G37*
G36*
X173102D02*
X170674D01*
X170710Y186607D01*
X171009Y185885D01*
X171485Y185265D01*
X172105Y184789D01*
X172827Y184490D01*
X173102Y184454D01*
Y186882D01*
D02*
G37*
G36*
X117751Y184776D02*
X115323D01*
Y182347D01*
X115598Y182384D01*
X116320Y182683D01*
X116940Y183158D01*
X117416Y183779D01*
X117715Y184501D01*
X117751Y184776D01*
D02*
G37*
G36*
X114323D02*
X111895D01*
X111931Y184501D01*
X112230Y183779D01*
X112706Y183158D01*
X113326Y182683D01*
X114048Y182384D01*
X114323Y182347D01*
Y184776D01*
D02*
G37*
%LPD*%
D17*
X137795Y201024D02*
D03*
X215384Y190591D02*
D03*
X224410Y145669D02*
D03*
X224903Y157974D02*
D03*
X215453Y125984D02*
D03*
X137146Y299449D02*
D03*
X114823Y185276D02*
D03*
X114173Y278150D02*
D03*
X349410Y238494D02*
D03*
Y137785D02*
D03*
Y208494D02*
D03*
X188602Y245689D02*
D03*
Y316555D02*
D03*
X173602Y258248D02*
D03*
Y187382D02*
D03*
X206319Y142106D02*
D03*
X155886Y157106D02*
D03*
X267717Y142549D02*
D03*
D23*
X98425Y197087D02*
D03*
D24*
X375984Y238661D02*
D03*
Y137953D02*
D03*
D26*
X175099Y173326D02*
Y181694D01*
Y173326D02*
X206319Y142106D01*
D39*
X224410Y145669D02*
Y181565D01*
X215384Y190591D02*
X224410Y181565D01*
D40*
Y134941D02*
Y145669D01*
X215453Y125984D02*
X224410Y134941D01*
D41*
X161417Y283465D02*
X274439Y283465D01*
X349410Y208494D01*
M02*
