G04*
G04 #@! TF.GenerationSoftware,Altium Limited,Altium Designer,19.1.5 (86)*
G04*
G04 Layer_Physical_Order=1*
G04 Layer_Color=255*
%FSLAX25Y25*%
%MOIN*%
G70*
G01*
G75*
%ADD10C,0.00984*%
%ADD14C,0.01968*%
%ADD31R,0.03150X0.03937*%
%ADD32O,0.06496X0.02559*%
%ADD33R,0.03150X0.01772*%
%ADD34R,0.02047X0.02047*%
%ADD35R,0.02047X0.02047*%
%ADD36R,0.03937X0.02559*%
%ADD37R,0.05118X0.03150*%
%ADD38R,0.01772X0.03150*%
%ADD39O,0.01772X0.05512*%
%ADD40O,0.01181X0.05512*%
%ADD41R,0.03150X0.05118*%
%ADD42C,0.02953*%
%ADD43C,0.07874*%
%ADD44C,0.03937*%
%ADD45C,0.05906*%
%ADD46O,0.09843X0.06299*%
%ADD47C,0.09449*%
%ADD48C,0.06299*%
%ADD49C,0.07500*%
%ADD50C,0.19685*%
%ADD51C,0.03150*%
%ADD52C,0.03937*%
G36*
X369992Y345957D02*
X369154Y344975D01*
X368262Y343520D01*
X367609Y341944D01*
X367211Y340284D01*
X367116Y339083D01*
X377953D01*
Y338583D01*
X378453D01*
Y327746D01*
X379654Y327840D01*
X381314Y328239D01*
X382890Y328892D01*
X384346Y329784D01*
X385327Y330622D01*
X385827Y330391D01*
Y23939D01*
X385327Y23709D01*
X384346Y24547D01*
X382890Y25439D01*
X381314Y26092D01*
X379654Y26490D01*
X378453Y26585D01*
Y15748D01*
X377953D01*
Y15248D01*
X367116D01*
X367211Y14047D01*
X367609Y12387D01*
X368262Y10810D01*
X369154Y9355D01*
X369992Y8374D01*
X369761Y7874D01*
X23939Y7874D01*
X23709Y8374D01*
X24547Y9355D01*
X25439Y10810D01*
X26092Y12387D01*
X26490Y14047D01*
X26585Y15248D01*
X15748D01*
Y15748D01*
X15248D01*
Y26585D01*
X14047Y26490D01*
X12387Y26092D01*
X10810Y25439D01*
X9355Y24547D01*
X8374Y23709D01*
X7874Y23939D01*
Y330391D01*
X8374Y330622D01*
X9355Y329784D01*
X10810Y328892D01*
X12387Y328239D01*
X14047Y327840D01*
X15248Y327746D01*
Y338583D01*
X15748D01*
Y339083D01*
X26585D01*
X26490Y340284D01*
X26092Y341944D01*
X25439Y343520D01*
X24547Y344975D01*
X23709Y345957D01*
X23939Y346457D01*
X369761Y346457D01*
X369992Y345957D01*
D02*
G37*
%LPC*%
G36*
X295276Y343544D02*
X294138Y343394D01*
X293079Y342955D01*
X292169Y342257D01*
X291470Y341347D01*
X291031Y340287D01*
X290882Y339150D01*
X291031Y338012D01*
X291470Y336953D01*
X292169Y336043D01*
X293079Y335344D01*
X294138Y334905D01*
X295276Y334756D01*
X296413Y334905D01*
X297473Y335344D01*
X298382Y336043D01*
X299081Y336953D01*
X299520Y338012D01*
X299670Y339150D01*
X299520Y340287D01*
X299081Y341347D01*
X298382Y342257D01*
X297473Y342955D01*
X296413Y343394D01*
X295276Y343544D01*
D02*
G37*
G36*
X377453Y338083D02*
X367116D01*
X367211Y336881D01*
X367609Y335222D01*
X368262Y333645D01*
X369154Y332190D01*
X370262Y330892D01*
X371560Y329784D01*
X373015Y328892D01*
X374592Y328239D01*
X376251Y327840D01*
X377453Y327746D01*
Y338083D01*
D02*
G37*
G36*
X26585D02*
X16248D01*
Y327746D01*
X17449Y327840D01*
X19109Y328239D01*
X20686Y328892D01*
X22141Y329784D01*
X23439Y330892D01*
X24547Y332190D01*
X25439Y333645D01*
X26092Y335222D01*
X26490Y336881D01*
X26585Y338083D01*
D02*
G37*
G36*
X295276Y333543D02*
X294138Y333394D01*
X293079Y332955D01*
X292169Y332257D01*
X291470Y331347D01*
X291031Y330287D01*
X290882Y329150D01*
X291031Y328012D01*
X291470Y326953D01*
X292169Y326043D01*
X293079Y325344D01*
X294138Y324905D01*
X295276Y324756D01*
X296413Y324905D01*
X297473Y325344D01*
X298382Y326043D01*
X299081Y326953D01*
X299520Y328012D01*
X299670Y329150D01*
X299520Y330287D01*
X299081Y331347D01*
X298382Y332257D01*
X297473Y332955D01*
X296413Y333394D01*
X295276Y333543D01*
D02*
G37*
G36*
X285276Y323544D02*
X284138Y323394D01*
X283079Y322955D01*
X282169Y322257D01*
X281470Y321346D01*
X281031Y320287D01*
X281029Y320269D01*
X169937D01*
X169937Y320270D01*
X169508Y320184D01*
X169145Y319941D01*
X125980Y276776D01*
X125737Y276413D01*
X125652Y275984D01*
Y235110D01*
X118040Y227498D01*
X91803D01*
X87406Y231894D01*
X87043Y232137D01*
X86614Y232222D01*
X60236D01*
X60236Y232222D01*
X59808Y232137D01*
X59444Y231894D01*
X50783Y223233D01*
X50540Y222869D01*
X50455Y222441D01*
Y208268D01*
X50540Y207839D01*
X50783Y207476D01*
X54720Y203539D01*
X54720Y203539D01*
X55083Y203296D01*
X55512Y203211D01*
X62096D01*
X62431Y202834D01*
X62357Y202461D01*
Y198721D01*
X62472Y198138D01*
X62802Y197645D01*
X63296Y197315D01*
X63878Y197199D01*
X64460Y197315D01*
X64954Y197645D01*
X65361D01*
X65855Y197315D01*
X66437Y197199D01*
X67019Y197315D01*
X67379Y197555D01*
X67717Y197611D01*
X68054Y197555D01*
X68414Y197315D01*
X68996Y197199D01*
X69578Y197315D01*
X70072Y197645D01*
X70479D01*
X70973Y197315D01*
X71555Y197199D01*
X72137Y197315D01*
X72585Y197614D01*
X72755Y197361D01*
X73378Y196944D01*
X73614Y196897D01*
Y200591D01*
Y204342D01*
X73177Y204658D01*
Y206638D01*
X73949D01*
Y208662D01*
Y210685D01*
X72425D01*
Y210291D01*
X71884D01*
X71208Y210967D01*
Y213370D01*
X71768D01*
Y219701D01*
X71710D01*
Y221597D01*
X79435D01*
X82408Y218625D01*
X82089Y218236D01*
X81560Y218590D01*
X80709Y218759D01*
X79858Y218590D01*
X79158Y218122D01*
X78950Y218164D01*
X78658Y218253D01*
Y220094D01*
X76583D01*
Y216535D01*
Y212976D01*
X78658D01*
Y214818D01*
X78950Y214907D01*
X79158Y214949D01*
X79858Y214481D01*
X80555Y214342D01*
X80774Y213854D01*
X76934Y210014D01*
X76473Y210206D01*
Y210685D01*
X74949D01*
Y208662D01*
Y206638D01*
X75553D01*
Y204368D01*
X75053Y204101D01*
X74850Y204237D01*
X74614Y204284D01*
Y200591D01*
Y196897D01*
X74850Y196944D01*
X75474Y197361D01*
X75643Y197614D01*
X76091Y197315D01*
X76673Y197199D01*
X77255Y197315D01*
X77615Y197555D01*
X77953Y197611D01*
X78290Y197555D01*
X78650Y197315D01*
X79232Y197199D01*
X79814Y197315D01*
X80174Y197555D01*
X80512Y197611D01*
X80850Y197555D01*
X81209Y197315D01*
X81791Y197199D01*
X82374Y197315D01*
X82867Y197645D01*
X83197Y198138D01*
X83313Y198721D01*
Y202461D01*
X83197Y203043D01*
X82911Y203470D01*
Y203768D01*
X86291Y207148D01*
X92126D01*
X92555Y207233D01*
X92918Y207476D01*
X96855Y211413D01*
X97098Y211776D01*
X97183Y212205D01*
Y216072D01*
X99677Y218565D01*
X123706D01*
X124135Y218650D01*
X124498Y218893D01*
X193461Y287856D01*
X281096D01*
X281470Y286953D01*
X282169Y286043D01*
X283079Y285344D01*
X284138Y284905D01*
X285276Y284756D01*
X286413Y284905D01*
X287473Y285344D01*
X288383Y286043D01*
X289081Y286953D01*
X289520Y288012D01*
X289669Y289150D01*
X289520Y290287D01*
X289081Y291347D01*
X288383Y292257D01*
X287473Y292955D01*
X286413Y293394D01*
X285276Y293544D01*
X284138Y293394D01*
X283079Y292955D01*
X282169Y292257D01*
X281470Y291347D01*
X281031Y290287D01*
X281006Y290096D01*
X192997D01*
X192997Y290096D01*
X192569Y290011D01*
X192205Y289768D01*
X192205Y289768D01*
X138535Y236098D01*
X138074Y236344D01*
X138128Y236614D01*
X138128Y236614D01*
Y250745D01*
X185412Y298030D01*
X281029D01*
X281031Y298012D01*
X281470Y296953D01*
X282169Y296043D01*
X283079Y295344D01*
X284138Y294905D01*
X285276Y294756D01*
X286413Y294905D01*
X287473Y295344D01*
X288383Y296043D01*
X289081Y296953D01*
X289520Y298012D01*
X289669Y299150D01*
X289520Y300287D01*
X289081Y301346D01*
X288383Y302257D01*
X287473Y302955D01*
X286413Y303394D01*
X285276Y303543D01*
X284138Y303394D01*
X283079Y302955D01*
X282169Y302257D01*
X281470Y301346D01*
X281031Y300287D01*
X281029Y300270D01*
X184949D01*
X184948Y300270D01*
X184520Y300184D01*
X184157Y299941D01*
X136216Y252001D01*
X135973Y251638D01*
X135888Y251209D01*
Y237078D01*
X121977Y223167D01*
X121097D01*
X120949Y223461D01*
X120920Y223667D01*
X132682Y235429D01*
X132682Y235429D01*
X132924Y235792D01*
X133010Y236221D01*
Y264103D01*
X176936Y308030D01*
X281029D01*
X281031Y308012D01*
X281470Y306953D01*
X282169Y306043D01*
X283079Y305344D01*
X284138Y304905D01*
X285276Y304756D01*
X286413Y304905D01*
X287473Y305344D01*
X288383Y306043D01*
X289081Y306953D01*
X289520Y308012D01*
X289669Y309150D01*
X289520Y310287D01*
X289081Y311347D01*
X288383Y312257D01*
X287473Y312955D01*
X286413Y313394D01*
X285276Y313544D01*
X284138Y313394D01*
X283079Y312955D01*
X282169Y312257D01*
X281470Y311347D01*
X281031Y310287D01*
X281029Y310269D01*
X176472D01*
X176044Y310184D01*
X175680Y309942D01*
X175680Y309942D01*
X131098Y265359D01*
X130855Y264996D01*
X130770Y264567D01*
Y236684D01*
X128320Y234234D01*
X127859Y234480D01*
X127892Y234646D01*
X127892Y234646D01*
Y275520D01*
X170401Y318030D01*
X281029D01*
X281031Y318012D01*
X281470Y316953D01*
X282169Y316043D01*
X283079Y315344D01*
X284138Y314905D01*
X285276Y314756D01*
X286413Y314905D01*
X287473Y315344D01*
X288383Y316043D01*
X289081Y316953D01*
X289520Y318012D01*
X289669Y319150D01*
X289520Y320287D01*
X289081Y321346D01*
X288383Y322257D01*
X287473Y322955D01*
X286413Y323394D01*
X285276Y323544D01*
D02*
G37*
G36*
X295276D02*
X294138Y323394D01*
X293079Y322955D01*
X292169Y322257D01*
X291470Y321346D01*
X291031Y320287D01*
X290882Y319150D01*
X291031Y318012D01*
X291470Y316953D01*
X292169Y316043D01*
X293079Y315344D01*
X294138Y314905D01*
X295276Y314756D01*
X296413Y314905D01*
X297473Y315344D01*
X298382Y316043D01*
X299081Y316953D01*
X299520Y318012D01*
X299670Y319150D01*
X299520Y320287D01*
X299081Y321346D01*
X298382Y322257D01*
X297473Y322955D01*
X296413Y323394D01*
X295276Y323544D01*
D02*
G37*
G36*
X295776Y313875D02*
Y309650D01*
X300001D01*
X299903Y310390D01*
X299425Y311545D01*
X298663Y312537D01*
X297671Y313299D01*
X296516Y313777D01*
X295776Y313875D01*
D02*
G37*
G36*
X294776Y313875D02*
X294036Y313777D01*
X292880Y313299D01*
X291888Y312537D01*
X291126Y311545D01*
X290648Y310390D01*
X290550Y309650D01*
X294776D01*
Y313875D01*
D02*
G37*
G36*
X61024Y308019D02*
X60095Y307897D01*
X59229Y307538D01*
X59214Y307527D01*
X34613D01*
X34445Y307596D01*
X33465Y307725D01*
X32484Y307596D01*
X31570Y307218D01*
X30786Y306616D01*
X30184Y305831D01*
X29805Y304918D01*
X29676Y303937D01*
X29805Y302957D01*
X30184Y302043D01*
X30786Y301258D01*
X31570Y300656D01*
X32484Y300278D01*
X33465Y300149D01*
X34445Y300278D01*
X34613Y300347D01*
X57465D01*
Y298433D01*
X61024D01*
X64583D01*
Y300508D01*
X62730D01*
X62561Y301008D01*
X63070Y301399D01*
X63562Y301891D01*
X63836Y302248D01*
X64189D01*
Y302771D01*
X64491Y303500D01*
X64613Y304429D01*
X64491Y305358D01*
X64189Y306088D01*
Y306610D01*
X63836D01*
X63562Y306967D01*
X62818Y307538D01*
X61953Y307897D01*
X61024Y308019D01*
D02*
G37*
G36*
X300001Y308650D02*
X295776D01*
Y304424D01*
X296516Y304522D01*
X297671Y305000D01*
X298663Y305762D01*
X299425Y306754D01*
X299903Y307910D01*
X300001Y308650D01*
D02*
G37*
G36*
X294776D02*
X290550D01*
X290648Y307910D01*
X291126Y306754D01*
X291888Y305762D01*
X292880Y305000D01*
X294036Y304522D01*
X294776Y304424D01*
Y308650D01*
D02*
G37*
G36*
X356299Y308906D02*
X355319Y308777D01*
X355151Y308708D01*
X329429D01*
X328500Y308586D01*
X327634Y308227D01*
X326891Y307657D01*
X326202Y306967D01*
X325928Y306610D01*
X325575D01*
Y306087D01*
X325273Y305358D01*
X325150Y304429D01*
X325273Y303500D01*
X325575Y302771D01*
Y302248D01*
X325928D01*
X326202Y301891D01*
X326945Y301320D01*
X327700Y301008D01*
X327600Y300508D01*
X325181D01*
Y298433D01*
X328740D01*
Y297933D01*
D01*
Y298433D01*
X332299D01*
Y300508D01*
X329880D01*
X329781Y301008D01*
X330535Y301320D01*
X330806Y301528D01*
X355151D01*
X355319Y301459D01*
X356299Y301330D01*
X357280Y301459D01*
X358193Y301837D01*
X358978Y302439D01*
X359580Y303224D01*
X359958Y304138D01*
X360087Y305118D01*
X359958Y306099D01*
X359580Y307012D01*
X358978Y307797D01*
X358193Y308399D01*
X357280Y308777D01*
X356299Y308906D01*
D02*
G37*
G36*
X105276Y307543D02*
X104138Y307394D01*
X103079Y306955D01*
X102169Y306257D01*
X101470Y305346D01*
X101031Y304287D01*
X100882Y303150D01*
X101031Y302012D01*
X101470Y300953D01*
X102169Y300043D01*
X103079Y299344D01*
X104138Y298905D01*
X105276Y298756D01*
X106413Y298905D01*
X107473Y299344D01*
X108382Y300043D01*
X109081Y300953D01*
X109520Y302012D01*
X109669Y303150D01*
X109520Y304287D01*
X109081Y305346D01*
X108382Y306257D01*
X107473Y306955D01*
X106413Y307394D01*
X105276Y307543D01*
D02*
G37*
G36*
X356799Y299238D02*
Y295618D01*
X360419D01*
X360342Y296201D01*
X359924Y297211D01*
X359259Y298078D01*
X358392Y298743D01*
X357382Y299161D01*
X356799Y299238D01*
D02*
G37*
G36*
X355799Y299238D02*
X355216Y299161D01*
X354206Y298743D01*
X353340Y298078D01*
X352675Y297211D01*
X352256Y296201D01*
X352180Y295618D01*
X355799D01*
Y299238D01*
D02*
G37*
G36*
X64583Y297433D02*
X61524D01*
Y295358D01*
X64583D01*
Y297433D01*
D02*
G37*
G36*
X60524D02*
X57465D01*
Y295358D01*
X60524D01*
Y297433D01*
D02*
G37*
G36*
X332299Y297433D02*
X329240D01*
Y295358D01*
X332299D01*
Y297433D01*
D02*
G37*
G36*
X328240D02*
X325181D01*
Y295358D01*
X328240D01*
Y297433D01*
D02*
G37*
G36*
X295276Y303543D02*
X294138Y303394D01*
X293079Y302955D01*
X292169Y302257D01*
X291470Y301346D01*
X291031Y300287D01*
X290882Y299150D01*
X291031Y298012D01*
X291470Y296953D01*
X292169Y296043D01*
X293079Y295344D01*
X294138Y294905D01*
X295276Y294756D01*
X296413Y294905D01*
X297473Y295344D01*
X298382Y296043D01*
X299081Y296953D01*
X299520Y298012D01*
X299670Y299150D01*
X299520Y300287D01*
X299081Y301346D01*
X298382Y302257D01*
X297473Y302955D01*
X296413Y303394D01*
X295276Y303543D01*
D02*
G37*
G36*
X33965Y298057D02*
Y294437D01*
X37584D01*
X37507Y295020D01*
X37089Y296030D01*
X36424Y296897D01*
X35557Y297562D01*
X34548Y297980D01*
X33965Y298057D01*
D02*
G37*
G36*
X32965D02*
X32381Y297980D01*
X31372Y297562D01*
X30505Y296897D01*
X29840Y296030D01*
X29422Y295020D01*
X29345Y294437D01*
X32965D01*
Y298057D01*
D02*
G37*
G36*
X64583Y293224D02*
X61524D01*
Y291150D01*
X64583D01*
Y293224D01*
D02*
G37*
G36*
X60524D02*
X57465D01*
Y291150D01*
X60524D01*
Y293224D01*
D02*
G37*
G36*
X355799Y294618D02*
X352180D01*
X352256Y294035D01*
X352675Y293025D01*
X353340Y292159D01*
X354206Y291493D01*
X355216Y291075D01*
X355799Y290999D01*
Y294618D01*
D02*
G37*
G36*
X360419D02*
X356799D01*
Y290999D01*
X357382Y291075D01*
X358392Y291493D01*
X359259Y292159D01*
X359924Y293025D01*
X360342Y294035D01*
X360419Y294618D01*
D02*
G37*
G36*
X37584Y293437D02*
X33965D01*
Y289817D01*
X34548Y289894D01*
X35557Y290312D01*
X36424Y290978D01*
X37089Y291844D01*
X37507Y292854D01*
X37584Y293437D01*
D02*
G37*
G36*
X32965D02*
X29345D01*
X29422Y292854D01*
X29840Y291844D01*
X30505Y290978D01*
X31372Y290312D01*
X32381Y289894D01*
X32965Y289817D01*
Y293437D01*
D02*
G37*
G36*
X105276Y297544D02*
X104138Y297394D01*
X103079Y296955D01*
X102169Y296257D01*
X101470Y295346D01*
X101031Y294287D01*
X100882Y293150D01*
X101031Y292012D01*
X101470Y290953D01*
X102169Y290043D01*
X103079Y289344D01*
X104138Y288905D01*
X105276Y288756D01*
X106413Y288905D01*
X107473Y289344D01*
X108382Y290043D01*
X109081Y290953D01*
X109520Y292012D01*
X109669Y293150D01*
X109520Y294287D01*
X109081Y295346D01*
X108382Y296257D01*
X107473Y296955D01*
X106413Y297394D01*
X105276Y297544D01*
D02*
G37*
G36*
X64583Y290150D02*
X57465D01*
Y288075D01*
X59291D01*
X59523Y287575D01*
X59483Y287527D01*
X34613D01*
X34445Y287596D01*
X33465Y287725D01*
X32484Y287596D01*
X31570Y287218D01*
X30786Y286616D01*
X30184Y285831D01*
X29805Y284917D01*
X29676Y283937D01*
X29805Y282957D01*
X30184Y282043D01*
X30786Y281258D01*
X31570Y280656D01*
X32484Y280278D01*
X33465Y280149D01*
X34445Y280278D01*
X34613Y280347D01*
X60807D01*
X61736Y280470D01*
X62602Y280828D01*
X63345Y281399D01*
X63562Y281615D01*
X63836Y281972D01*
X64189D01*
Y282495D01*
X64491Y283224D01*
X64613Y284154D01*
X64491Y285083D01*
X64189Y285812D01*
Y286335D01*
X63836D01*
X63562Y286692D01*
X62818Y287262D01*
X62064Y287575D01*
X62164Y288075D01*
X64583D01*
Y290150D01*
D02*
G37*
G36*
X295276Y293544D02*
X294138Y293394D01*
X293079Y292955D01*
X292169Y292257D01*
X291470Y291347D01*
X291031Y290287D01*
X290882Y289150D01*
X291031Y288012D01*
X291470Y286953D01*
X292169Y286043D01*
X293079Y285344D01*
X294138Y284905D01*
X295276Y284756D01*
X296413Y284905D01*
X297473Y285344D01*
X298382Y286043D01*
X299081Y286953D01*
X299520Y288012D01*
X299670Y289150D01*
X299520Y290287D01*
X299081Y291347D01*
X298382Y292257D01*
X297473Y292955D01*
X296413Y293394D01*
X295276Y293544D01*
D02*
G37*
G36*
X105276Y287544D02*
X104138Y287394D01*
X103079Y286955D01*
X102169Y286257D01*
X101470Y285347D01*
X101031Y284287D01*
X100882Y283150D01*
X101031Y282012D01*
X101470Y280953D01*
X102169Y280043D01*
X103079Y279344D01*
X104138Y278905D01*
X105276Y278756D01*
X106413Y278905D01*
X107473Y279344D01*
X108382Y280043D01*
X109081Y280953D01*
X109520Y282012D01*
X109669Y283150D01*
X109520Y284287D01*
X109081Y285347D01*
X108382Y286257D01*
X107473Y286955D01*
X106413Y287394D01*
X105276Y287544D01*
D02*
G37*
G36*
X295276Y283543D02*
X294138Y283394D01*
X293079Y282955D01*
X292169Y282257D01*
X291470Y281347D01*
X291031Y280287D01*
X290882Y279150D01*
X291031Y278012D01*
X291470Y276953D01*
X292169Y276043D01*
X293079Y275344D01*
X294138Y274905D01*
X295276Y274756D01*
X296413Y274905D01*
X297473Y275344D01*
X298382Y276043D01*
X299081Y276953D01*
X299520Y278012D01*
X299670Y279150D01*
X299520Y280287D01*
X299081Y281347D01*
X298382Y282257D01*
X297473Y282955D01*
X296413Y283394D01*
X295276Y283543D01*
D02*
G37*
G36*
X285276D02*
X284138Y283394D01*
X283079Y282955D01*
X282169Y282257D01*
X281470Y281347D01*
X281031Y280287D01*
X281029Y280270D01*
X208283D01*
X207855Y280184D01*
X207492Y279942D01*
X154245Y226695D01*
X153703Y226860D01*
X153629Y227229D01*
X153147Y227950D01*
X152426Y228432D01*
X151575Y228602D01*
X150724Y228432D01*
X150002Y227950D01*
X149520Y227229D01*
X149351Y226378D01*
X149457Y225844D01*
X148814Y225201D01*
X148572Y224838D01*
X148486Y224410D01*
Y219504D01*
X147986Y219218D01*
X147793Y219332D01*
Y228346D01*
Y230152D01*
X147918Y230316D01*
X148178Y230942D01*
X148266Y231614D01*
X148178Y232286D01*
X147918Y232913D01*
X147506Y233451D01*
X146968Y233863D01*
X146342Y234123D01*
X145669Y234211D01*
X144997Y234123D01*
X144371Y233863D01*
X143833Y233451D01*
X143420Y232913D01*
X143161Y232286D01*
X143072Y231614D01*
X143161Y230942D01*
X143226Y230786D01*
X142948Y230370D01*
X142587D01*
Y228346D01*
Y226323D01*
X143546D01*
Y224465D01*
X142587D01*
Y222441D01*
Y220417D01*
X143546D01*
Y215551D01*
X143708Y214739D01*
X144168Y214050D01*
X144449Y213862D01*
Y213386D01*
X144542Y212919D01*
X144806Y212523D01*
X145202Y212258D01*
X145669Y212165D01*
X146136Y212258D01*
X146284Y212357D01*
X146654Y212482D01*
X147023Y212357D01*
X147171Y212258D01*
X147638Y212165D01*
X148105Y212258D01*
X148253Y212357D01*
X148622Y212482D01*
X148991Y212357D01*
X149139Y212258D01*
X149606Y212165D01*
X150073Y212258D01*
X150221Y212357D01*
X150591Y212482D01*
X150960Y212357D01*
X151108Y212258D01*
X151575Y212165D01*
X152042Y212258D01*
X152190Y212357D01*
X152559Y212482D01*
X152928Y212357D01*
X153076Y212258D01*
X153543Y212165D01*
X154010Y212258D01*
X154406Y212523D01*
X154671Y212919D01*
X154764Y213386D01*
Y217717D01*
X154671Y218183D01*
X154663Y218195D01*
Y219978D01*
X155038Y220311D01*
X155512Y220217D01*
X156363Y220386D01*
X157084Y220868D01*
X157566Y221590D01*
X157736Y222441D01*
X157566Y223292D01*
X157084Y224013D01*
X156363Y224496D01*
X155994Y224569D01*
X155829Y225112D01*
X162791Y232073D01*
X163265Y231840D01*
X163257Y231784D01*
X163346Y231111D01*
X163605Y230485D01*
X164018Y229947D01*
X164556Y229534D01*
X165182Y229275D01*
X165354Y229252D01*
Y231784D01*
X165854D01*
Y232283D01*
X168386D01*
X168363Y232456D01*
X168103Y233082D01*
X167691Y233620D01*
X167153Y234033D01*
X166526Y234292D01*
X165854Y234381D01*
X165798Y234373D01*
X165564Y234847D01*
X208747Y278030D01*
X281029D01*
X281031Y278012D01*
X281470Y276953D01*
X282169Y276043D01*
X283079Y275344D01*
X284138Y274905D01*
X285276Y274756D01*
X286413Y274905D01*
X287473Y275344D01*
X288383Y276043D01*
X289081Y276953D01*
X289520Y278012D01*
X289669Y279150D01*
X289520Y280287D01*
X289081Y281347D01*
X288383Y282257D01*
X287473Y282955D01*
X286413Y283394D01*
X285276Y283543D01*
D02*
G37*
G36*
X356299Y278906D02*
X355319Y278777D01*
X355151Y278708D01*
X328957D01*
X328028Y278586D01*
X327162Y278227D01*
X326418Y277657D01*
X326202Y277440D01*
X325928Y277083D01*
X325575D01*
Y276560D01*
X325273Y275831D01*
X325150Y274902D01*
X325273Y273973D01*
X325575Y273243D01*
Y272721D01*
X325928D01*
X326202Y272363D01*
X326945Y271793D01*
X327700Y271480D01*
X327600Y270980D01*
X325181D01*
Y268905D01*
X328740D01*
X332299D01*
Y270980D01*
X330472D01*
X330240Y271480D01*
X330281Y271528D01*
X355151D01*
X355319Y271459D01*
X356299Y271330D01*
X357280Y271459D01*
X358193Y271837D01*
X358978Y272439D01*
X359580Y273224D01*
X359958Y274138D01*
X360087Y275118D01*
X359958Y276099D01*
X359580Y277012D01*
X358978Y277797D01*
X358193Y278399D01*
X357280Y278777D01*
X356299Y278906D01*
D02*
G37*
G36*
X285276Y273544D02*
X284138Y273394D01*
X283079Y272955D01*
X282169Y272257D01*
X281470Y271346D01*
X281031Y270287D01*
X281029Y270269D01*
X225999D01*
X225999Y270270D01*
X225570Y270184D01*
X225207Y269941D01*
X225207Y269941D01*
X181830Y226565D01*
X181288Y226729D01*
X181188Y227229D01*
X180706Y227950D01*
X179985Y228432D01*
X179134Y228602D01*
X178283Y228432D01*
X177561Y227950D01*
X177079Y227229D01*
X176910Y226378D01*
X177016Y225844D01*
X176374Y225201D01*
X176131Y224838D01*
X176045Y224410D01*
Y219504D01*
X175545Y219218D01*
X175352Y219332D01*
Y228346D01*
Y230152D01*
X175477Y230316D01*
X175737Y230942D01*
X175825Y231614D01*
X175737Y232286D01*
X175477Y232913D01*
X175065Y233451D01*
X174527Y233863D01*
X173900Y234123D01*
X173228Y234211D01*
X172556Y234123D01*
X171930Y233863D01*
X171392Y233451D01*
X170979Y232913D01*
X170720Y232286D01*
X170631Y231614D01*
X170720Y230942D01*
X170784Y230786D01*
X170507Y230370D01*
X170146D01*
Y228346D01*
Y226323D01*
X171105D01*
Y224465D01*
X170146D01*
Y222441D01*
Y220417D01*
X171105D01*
Y215551D01*
X171266Y214739D01*
X171727Y214050D01*
X172008Y213862D01*
Y213386D01*
X172101Y212919D01*
X172365Y212523D01*
X172761Y212258D01*
X173228Y212165D01*
X173695Y212258D01*
X173843Y212357D01*
X174213Y212482D01*
X174582Y212357D01*
X174730Y212258D01*
X175197Y212165D01*
X175664Y212258D01*
X175812Y212357D01*
X176181Y212482D01*
X176550Y212357D01*
X176698Y212258D01*
X177165Y212165D01*
X177632Y212258D01*
X177780Y212357D01*
X178150Y212482D01*
X178519Y212357D01*
X178667Y212258D01*
X179134Y212165D01*
X179601Y212258D01*
X179749Y212357D01*
X180118Y212482D01*
X180487Y212357D01*
X180635Y212258D01*
X181102Y212165D01*
X181569Y212258D01*
X181965Y212523D01*
X182230Y212919D01*
X182323Y213386D01*
Y217717D01*
X182230Y218183D01*
X182222Y218195D01*
Y219978D01*
X182597Y220311D01*
X183071Y220217D01*
X183922Y220386D01*
X184643Y220868D01*
X185125Y221590D01*
X185295Y222441D01*
X185125Y223292D01*
X184643Y224013D01*
X183922Y224496D01*
X183614Y224557D01*
X183468Y225035D01*
X226463Y268030D01*
X281029D01*
X281031Y268012D01*
X281470Y266953D01*
X282169Y266043D01*
X283079Y265344D01*
X284138Y264905D01*
X285276Y264756D01*
X286413Y264905D01*
X287473Y265344D01*
X288383Y266043D01*
X289081Y266953D01*
X289520Y268012D01*
X289669Y269150D01*
X289520Y270287D01*
X289081Y271346D01*
X288383Y272257D01*
X287473Y272955D01*
X286413Y273394D01*
X285276Y273544D01*
D02*
G37*
G36*
X105276Y277543D02*
X104138Y277394D01*
X103079Y276955D01*
X102169Y276257D01*
X101470Y275346D01*
X101031Y274287D01*
X100882Y273150D01*
X101031Y272012D01*
X101470Y270953D01*
X102169Y270043D01*
X103079Y269344D01*
X104138Y268905D01*
X105276Y268756D01*
X106413Y268905D01*
X107473Y269344D01*
X108382Y270043D01*
X109081Y270953D01*
X109520Y272012D01*
X109669Y273150D01*
X109520Y274287D01*
X109081Y275346D01*
X108382Y276257D01*
X107473Y276955D01*
X106413Y277394D01*
X105276Y277543D01*
D02*
G37*
G36*
X332299Y267905D02*
X329240D01*
Y265831D01*
X332299D01*
Y267905D01*
D02*
G37*
G36*
X328240D02*
X325181D01*
Y265831D01*
X328240D01*
Y267905D01*
D02*
G37*
G36*
X356799Y269238D02*
Y265618D01*
X360419D01*
X360342Y266201D01*
X359924Y267211D01*
X359259Y268078D01*
X358392Y268743D01*
X357382Y269161D01*
X356799Y269238D01*
D02*
G37*
G36*
X355799Y269238D02*
X355216Y269161D01*
X354206Y268743D01*
X353340Y268078D01*
X352675Y267211D01*
X352256Y266201D01*
X352180Y265618D01*
X355799D01*
Y269238D01*
D02*
G37*
G36*
X295276Y273544D02*
X294138Y273394D01*
X293079Y272955D01*
X292169Y272257D01*
X291470Y271346D01*
X291031Y270287D01*
X290882Y269150D01*
X291031Y268012D01*
X291470Y266953D01*
X292169Y266043D01*
X293079Y265344D01*
X294138Y264905D01*
X295276Y264756D01*
X296413Y264905D01*
X297473Y265344D01*
X298382Y266043D01*
X299081Y266953D01*
X299520Y268012D01*
X299670Y269150D01*
X299520Y270287D01*
X299081Y271346D01*
X298382Y272257D01*
X297473Y272955D01*
X296413Y273394D01*
X295276Y273544D01*
D02*
G37*
G36*
X332299Y263697D02*
X329240D01*
Y261622D01*
X332299D01*
Y263697D01*
D02*
G37*
G36*
X328240D02*
X325181D01*
Y261622D01*
X328240D01*
Y263697D01*
D02*
G37*
G36*
X370685Y262614D02*
X368610D01*
Y261228D01*
X370685D01*
Y262614D01*
D02*
G37*
G36*
X367610D02*
X365535D01*
Y261228D01*
X367610D01*
Y262614D01*
D02*
G37*
G36*
X355799Y264618D02*
X352180D01*
X352256Y264035D01*
X352675Y263025D01*
X353340Y262159D01*
X354206Y261493D01*
X355216Y261075D01*
X355799Y260999D01*
Y264618D01*
D02*
G37*
G36*
X360419D02*
X356799D01*
Y260999D01*
X357382Y261075D01*
X358392Y261493D01*
X359259Y262159D01*
X359924Y263025D01*
X360342Y264035D01*
X360419Y264618D01*
D02*
G37*
G36*
X115276Y267544D02*
X114138Y267394D01*
X113079Y266955D01*
X112169Y266257D01*
X111470Y265347D01*
X111031Y264287D01*
X110882Y263150D01*
X111031Y262012D01*
X111470Y260953D01*
X112169Y260043D01*
X113079Y259344D01*
X114138Y258905D01*
X115276Y258756D01*
X116413Y258905D01*
X117473Y259344D01*
X118383Y260043D01*
X119081Y260953D01*
X119520Y262012D01*
X119669Y263150D01*
X119520Y264287D01*
X119081Y265347D01*
X118383Y266257D01*
X117473Y266955D01*
X116413Y267394D01*
X115276Y267544D01*
D02*
G37*
G36*
X105276D02*
X104138Y267394D01*
X103079Y266955D01*
X102169Y266257D01*
X101470Y265347D01*
X101031Y264287D01*
X100882Y263150D01*
X101031Y262012D01*
X101470Y260953D01*
X102169Y260043D01*
X103079Y259344D01*
X104138Y258905D01*
X105276Y258756D01*
X106413Y258905D01*
X107473Y259344D01*
X108382Y260043D01*
X109081Y260953D01*
X109520Y262012D01*
X109669Y263150D01*
X109520Y264287D01*
X109081Y265347D01*
X108382Y266257D01*
X107473Y266955D01*
X106413Y267394D01*
X105276Y267544D01*
D02*
G37*
G36*
X295276Y263544D02*
X294138Y263394D01*
X293079Y262955D01*
X292169Y262257D01*
X291470Y261347D01*
X291031Y260287D01*
X290882Y259150D01*
X291031Y258012D01*
X291470Y256953D01*
X292169Y256043D01*
X293079Y255344D01*
X294138Y254905D01*
X295276Y254756D01*
X296413Y254905D01*
X297473Y255344D01*
X298382Y256043D01*
X299081Y256953D01*
X299520Y258012D01*
X299670Y259150D01*
X299520Y260287D01*
X299081Y261347D01*
X298382Y262257D01*
X297473Y262955D01*
X296413Y263394D01*
X295276Y263544D01*
D02*
G37*
G36*
X285276D02*
X284138Y263394D01*
X283079Y262955D01*
X282169Y262257D01*
X281470Y261347D01*
X281031Y260287D01*
X281029Y260269D01*
X270961D01*
X270532Y260184D01*
X270169Y259942D01*
X270169Y259942D01*
X236923Y226695D01*
X236380Y226860D01*
X236307Y227229D01*
X235824Y227950D01*
X235103Y228432D01*
X234252Y228602D01*
X233401Y228432D01*
X232680Y227950D01*
X232197Y227229D01*
X232028Y226378D01*
X232134Y225844D01*
X231492Y225201D01*
X231249Y224838D01*
X231164Y224410D01*
Y219504D01*
X230663Y219218D01*
X230470Y219332D01*
Y230152D01*
X230596Y230316D01*
X230855Y230942D01*
X230943Y231614D01*
X230855Y232286D01*
X230596Y232913D01*
X230183Y233451D01*
X229645Y233863D01*
X229019Y234123D01*
X228346Y234211D01*
X227674Y234123D01*
X227048Y233863D01*
X226510Y233451D01*
X226097Y232913D01*
X225838Y232286D01*
X225749Y231614D01*
X225838Y230942D01*
X225903Y230786D01*
X225625Y230370D01*
X225264D01*
Y228346D01*
X224764D01*
D01*
X225264D01*
Y226323D01*
X226223D01*
Y224465D01*
X225264D01*
Y222441D01*
Y220417D01*
X226223D01*
Y215551D01*
X226385Y214739D01*
X226845Y214050D01*
X227126Y213862D01*
Y213386D01*
X227219Y212919D01*
X227484Y212523D01*
X227880Y212258D01*
X228346Y212165D01*
X228814Y212258D01*
X228961Y212357D01*
X229331Y212482D01*
X229700Y212357D01*
X229848Y212258D01*
X230315Y212165D01*
X230782Y212258D01*
X230930Y212357D01*
X231299Y212482D01*
X231668Y212357D01*
X231817Y212258D01*
X232283Y212165D01*
X232751Y212258D01*
X232898Y212357D01*
X233268Y212482D01*
X233637Y212357D01*
X233785Y212258D01*
X234252Y212165D01*
X234719Y212258D01*
X234867Y212357D01*
X235236Y212482D01*
X235606Y212357D01*
X235753Y212258D01*
X236221Y212165D01*
X236687Y212258D01*
X237083Y212523D01*
X237348Y212919D01*
X237441Y213386D01*
Y217717D01*
X237348Y218183D01*
X237340Y218195D01*
Y219978D01*
X237715Y220311D01*
X238189Y220217D01*
X239040Y220386D01*
X239761Y220868D01*
X240244Y221590D01*
X240413Y222441D01*
X240244Y223292D01*
X239761Y224013D01*
X239040Y224496D01*
X238671Y224569D01*
X238506Y225112D01*
X271425Y258030D01*
X281029D01*
X281031Y258012D01*
X281470Y256953D01*
X282169Y256043D01*
X283079Y255344D01*
X284138Y254905D01*
X285276Y254756D01*
X286413Y254905D01*
X287473Y255344D01*
X288383Y256043D01*
X289081Y256953D01*
X289520Y258012D01*
X289669Y259150D01*
X289520Y260287D01*
X289081Y261347D01*
X288383Y262257D01*
X287473Y262955D01*
X286413Y263394D01*
X285276Y263544D01*
D02*
G37*
G36*
X33965Y258057D02*
Y254437D01*
X37584D01*
X37507Y255020D01*
X37089Y256030D01*
X36424Y256896D01*
X35557Y257562D01*
X34548Y257980D01*
X33965Y258057D01*
D02*
G37*
G36*
X32965D02*
X32381Y257980D01*
X31372Y257562D01*
X30505Y256896D01*
X29840Y256030D01*
X29422Y255020D01*
X29345Y254437D01*
X32965D01*
Y258057D01*
D02*
G37*
G36*
X105776Y257875D02*
Y253650D01*
X110001D01*
X109903Y254390D01*
X109425Y255545D01*
X108663Y256537D01*
X107671Y257299D01*
X106516Y257777D01*
X105776Y257875D01*
D02*
G37*
G36*
X104776D02*
X104036Y257777D01*
X102880Y257299D01*
X101888Y256537D01*
X101127Y255545D01*
X100648Y254390D01*
X100550Y253650D01*
X104776D01*
Y257875D01*
D02*
G37*
G36*
X64583Y253854D02*
X61524D01*
Y251780D01*
X64583D01*
Y253854D01*
D02*
G37*
G36*
X60524D02*
X57465D01*
Y251780D01*
X60524D01*
Y253854D01*
D02*
G37*
G36*
X332299Y260622D02*
X325181D01*
Y258547D01*
X327033D01*
X327203Y258047D01*
X326694Y257657D01*
X326202Y257164D01*
X325928Y256807D01*
X325575D01*
Y256284D01*
X325273Y255555D01*
X325150Y254626D01*
X325273Y253697D01*
X325575Y252968D01*
Y252445D01*
X325928D01*
X326202Y252088D01*
X326945Y251517D01*
X327811Y251159D01*
X328740Y251036D01*
X329669Y251159D01*
X330535Y251517D01*
X330550Y251528D01*
X355151D01*
X355319Y251459D01*
X356299Y251330D01*
X357280Y251459D01*
X357447Y251528D01*
X367363D01*
X368110Y251430D01*
X369039Y251552D01*
X369905Y251911D01*
X370649Y252481D01*
X371219Y253225D01*
X371578Y254091D01*
X371700Y255020D01*
X371578Y255949D01*
X371219Y256815D01*
X370649Y257558D01*
X370550Y257657D01*
X369807Y258227D01*
X369528Y258343D01*
X369627Y258842D01*
X370685D01*
Y260228D01*
X368110D01*
X365535D01*
Y258842D01*
X365091Y258708D01*
X357447D01*
X357280Y258777D01*
X356299Y258906D01*
X355319Y258777D01*
X355151Y258708D01*
X332299D01*
Y260622D01*
D02*
G37*
G36*
X37584Y253437D02*
X33965D01*
Y249817D01*
X34548Y249894D01*
X35557Y250312D01*
X36424Y250977D01*
X37089Y251844D01*
X37507Y252854D01*
X37584Y253437D01*
D02*
G37*
G36*
X32965D02*
X29345D01*
X29422Y252854D01*
X29840Y251844D01*
X30505Y250977D01*
X31372Y250312D01*
X32381Y249894D01*
X32965Y249817D01*
Y253437D01*
D02*
G37*
G36*
X115276Y257543D02*
X114138Y257394D01*
X113079Y256955D01*
X112169Y256257D01*
X111470Y255346D01*
X111031Y254287D01*
X110882Y253150D01*
X111031Y252012D01*
X111470Y250953D01*
X112169Y250043D01*
X113079Y249344D01*
X114138Y248905D01*
X115276Y248756D01*
X116413Y248905D01*
X117473Y249344D01*
X118383Y250043D01*
X119081Y250953D01*
X119520Y252012D01*
X119669Y253150D01*
X119520Y254287D01*
X119081Y255346D01*
X118383Y256257D01*
X117473Y256955D01*
X116413Y257394D01*
X115276Y257543D01*
D02*
G37*
G36*
X295276Y253543D02*
X294138Y253394D01*
X293079Y252955D01*
X292169Y252257D01*
X291470Y251346D01*
X291031Y250287D01*
X290882Y249150D01*
X291031Y248012D01*
X291470Y246953D01*
X292169Y246043D01*
X293079Y245344D01*
X294138Y244905D01*
X295276Y244756D01*
X296413Y244905D01*
X297473Y245344D01*
X298382Y246043D01*
X299081Y246953D01*
X299520Y248012D01*
X299670Y249150D01*
X299520Y250287D01*
X299081Y251346D01*
X298382Y252257D01*
X297473Y252955D01*
X296413Y253394D01*
X295276Y253543D01*
D02*
G37*
G36*
X285276D02*
X284138Y253394D01*
X283079Y252955D01*
X282169Y252257D01*
X281470Y251346D01*
X281031Y250287D01*
X280979Y249885D01*
X268893Y237800D01*
X268650Y237437D01*
X268565Y237008D01*
Y227557D01*
X267242Y226234D01*
X264641D01*
X264511Y226208D01*
X264110Y226351D01*
X263995Y226577D01*
X263866Y227229D01*
X263384Y227950D01*
X262662Y228432D01*
X261811Y228602D01*
X260960Y228432D01*
X260239Y227950D01*
X259756Y227229D01*
X259587Y226378D01*
X259693Y225844D01*
X259051Y225201D01*
X258808Y224838D01*
X258723Y224410D01*
Y219504D01*
X258223Y219218D01*
X258029Y219332D01*
Y230152D01*
X258155Y230316D01*
X258414Y230942D01*
X258503Y231614D01*
X258414Y232286D01*
X258155Y232913D01*
X257742Y233451D01*
X257204Y233863D01*
X256578Y234123D01*
X255906Y234211D01*
X255233Y234123D01*
X254607Y233863D01*
X254069Y233451D01*
X253656Y232913D01*
X253397Y232286D01*
X253309Y231614D01*
X253397Y230942D01*
X253462Y230786D01*
X253184Y230370D01*
X252823D01*
Y228346D01*
Y226323D01*
X253782D01*
Y224465D01*
X252823D01*
Y222441D01*
Y220417D01*
X253782D01*
Y215551D01*
X253944Y214739D01*
X254404Y214050D01*
X254685Y213862D01*
Y213386D01*
X254778Y212919D01*
X255043Y212523D01*
X255438Y212258D01*
X255906Y212165D01*
X256372Y212258D01*
X256521Y212357D01*
X256890Y212482D01*
X257259Y212357D01*
X257407Y212258D01*
X257874Y212165D01*
X258341Y212258D01*
X258489Y212357D01*
X258858Y212482D01*
X259228Y212357D01*
X259376Y212258D01*
X259842Y212165D01*
X260310Y212258D01*
X260457Y212357D01*
X260827Y212482D01*
X261196Y212357D01*
X261344Y212258D01*
X261811Y212165D01*
X262278Y212258D01*
X262426Y212357D01*
X262795Y212482D01*
X263165Y212357D01*
X263313Y212258D01*
X263780Y212165D01*
X264247Y212258D01*
X264642Y212523D01*
X264907Y212919D01*
X265000Y213386D01*
Y217717D01*
X264907Y218183D01*
X264899Y218195D01*
Y219978D01*
X265274Y220311D01*
X265748Y220217D01*
X266599Y220386D01*
X267320Y220868D01*
X267803Y221590D01*
X267972Y222441D01*
X267803Y223292D01*
X267639Y223536D01*
X267908Y224034D01*
X268134Y224079D01*
X268498Y224322D01*
X270477Y226302D01*
X270720Y226665D01*
X270805Y227093D01*
Y236544D01*
X281039Y246778D01*
X281666Y246698D01*
X282169Y246043D01*
X283079Y245344D01*
X284138Y244905D01*
X285276Y244756D01*
X286413Y244905D01*
X287473Y245344D01*
X288383Y246043D01*
X289081Y246953D01*
X289520Y248012D01*
X289669Y249150D01*
X289520Y250287D01*
X289081Y251346D01*
X288383Y252257D01*
X287473Y252955D01*
X286413Y253394D01*
X285276Y253543D01*
D02*
G37*
G36*
X110001Y252650D02*
X105276D01*
X100550D01*
X100648Y251910D01*
X101127Y250754D01*
X101888Y249762D01*
X102880Y249001D01*
X104036Y248522D01*
X104948Y248402D01*
Y247897D01*
X104036Y247777D01*
X102880Y247299D01*
X101888Y246537D01*
X101127Y245545D01*
X100648Y244390D01*
X100550Y243650D01*
X105276D01*
X110001D01*
X109903Y244390D01*
X109425Y245545D01*
X108663Y246537D01*
X107671Y247299D01*
X106516Y247777D01*
X105603Y247897D01*
Y248402D01*
X106516Y248522D01*
X107671Y249001D01*
X108663Y249762D01*
X109425Y250754D01*
X109903Y251910D01*
X110001Y252650D01*
D02*
G37*
G36*
X64583Y250780D02*
X57465D01*
Y248873D01*
X57465Y248705D01*
X57102Y248373D01*
X34311D01*
X33382Y248251D01*
X32516Y247892D01*
X31773Y247322D01*
X31738Y247287D01*
X31570Y247218D01*
X30786Y246616D01*
X30184Y245831D01*
X29805Y244917D01*
X29676Y243937D01*
X29805Y242956D01*
X30184Y242043D01*
X30786Y241258D01*
X31570Y240656D01*
X32484Y240278D01*
X33465Y240149D01*
X34445Y240278D01*
X35359Y240656D01*
X36059Y241194D01*
X61024D01*
X61953Y241316D01*
X62818Y241675D01*
X63562Y242245D01*
X63836Y242602D01*
X64189D01*
Y243125D01*
X64491Y243854D01*
X64613Y244783D01*
X64491Y245713D01*
X64189Y246442D01*
Y246965D01*
X63836D01*
X63562Y247322D01*
X62818Y247892D01*
X62064Y248205D01*
X62164Y248705D01*
X64583D01*
Y250780D01*
D02*
G37*
G36*
X115276Y247544D02*
X114138Y247394D01*
X113079Y246955D01*
X112169Y246257D01*
X111470Y245346D01*
X111031Y244287D01*
X110882Y243150D01*
X111031Y242012D01*
X111470Y240953D01*
X112169Y240043D01*
X113079Y239344D01*
X114138Y238905D01*
X115276Y238756D01*
X116413Y238905D01*
X117473Y239344D01*
X118383Y240043D01*
X119081Y240953D01*
X119520Y242012D01*
X119669Y243150D01*
X119520Y244287D01*
X119081Y245346D01*
X118383Y246257D01*
X117473Y246955D01*
X116413Y247394D01*
X115276Y247544D01*
D02*
G37*
G36*
X110001Y242650D02*
X105776D01*
Y238424D01*
X106516Y238522D01*
X107671Y239001D01*
X108663Y239762D01*
X109425Y240754D01*
X109903Y241910D01*
X110001Y242650D01*
D02*
G37*
G36*
X104776D02*
X100550D01*
X100648Y241910D01*
X101127Y240754D01*
X101888Y239762D01*
X102880Y239001D01*
X104036Y238522D01*
X104776Y238424D01*
Y242650D01*
D02*
G37*
G36*
X168386Y231283D02*
X166354D01*
Y229252D01*
X166526Y229275D01*
X167153Y229534D01*
X167174Y229550D01*
X167622Y229329D01*
Y228847D01*
X169146D01*
Y230370D01*
X168597D01*
X168263Y230870D01*
X168363Y231111D01*
X168386Y231283D01*
D02*
G37*
G36*
X141587Y230370D02*
X140063D01*
Y228847D01*
X141587D01*
Y230370D01*
D02*
G37*
G36*
X247638Y232539D02*
X246787Y232369D01*
X246065Y231887D01*
X245583Y231166D01*
X245414Y230315D01*
X245583Y229464D01*
X246065Y228743D01*
X246787Y228260D01*
X247638Y228091D01*
X248489Y228260D01*
X249210Y228743D01*
X249692Y229464D01*
X249790Y229954D01*
X249799Y230001D01*
X250299Y229952D01*
X250299Y229870D01*
Y228846D01*
X251823D01*
Y230370D01*
X250497D01*
X250497Y230370D01*
X250497Y230370D01*
X250037Y230417D01*
X249834Y230454D01*
X249826Y230492D01*
X249692Y231166D01*
X249210Y231887D01*
X248489Y232369D01*
X247638Y232539D01*
D02*
G37*
G36*
X224264Y230370D02*
X222740D01*
Y228846D01*
X224264D01*
Y230370D01*
D02*
G37*
G36*
X295276Y237544D02*
X294138Y237394D01*
X293079Y236955D01*
X292169Y236257D01*
X291470Y235347D01*
X291031Y234287D01*
X290882Y233150D01*
X291031Y232012D01*
X291470Y230953D01*
X292169Y230043D01*
X293079Y229344D01*
X294138Y228905D01*
X295276Y228756D01*
X296413Y228905D01*
X297473Y229344D01*
X298382Y230043D01*
X299081Y230953D01*
X299520Y232012D01*
X299670Y233150D01*
X299520Y234287D01*
X299081Y235347D01*
X298382Y236257D01*
X297473Y236955D01*
X296413Y237394D01*
X295276Y237544D01*
D02*
G37*
G36*
X285276D02*
X284138Y237394D01*
X283079Y236955D01*
X282169Y236257D01*
X281470Y235347D01*
X281031Y234287D01*
X280882Y233150D01*
X281031Y232012D01*
X281470Y230953D01*
X282169Y230043D01*
X283079Y229344D01*
X284138Y228905D01*
X285276Y228756D01*
X286413Y228905D01*
X287473Y229344D01*
X288383Y230043D01*
X289081Y230953D01*
X289520Y232012D01*
X289669Y233150D01*
X289520Y234287D01*
X289081Y235347D01*
X288383Y236257D01*
X287473Y236955D01*
X286413Y237394D01*
X285276Y237544D01*
D02*
G37*
G36*
X115276D02*
X114138Y237394D01*
X113079Y236955D01*
X112169Y236257D01*
X111470Y235347D01*
X111031Y234287D01*
X110882Y233150D01*
X111031Y232012D01*
X111470Y230953D01*
X112169Y230043D01*
X113079Y229344D01*
X114138Y228905D01*
X115276Y228756D01*
X116413Y228905D01*
X117473Y229344D01*
X118383Y230043D01*
X119081Y230953D01*
X119520Y232012D01*
X119669Y233150D01*
X119520Y234287D01*
X119081Y235347D01*
X118383Y236257D01*
X117473Y236955D01*
X116413Y237394D01*
X115276Y237544D01*
D02*
G37*
G36*
X105276D02*
X104138Y237394D01*
X103079Y236955D01*
X102169Y236257D01*
X101470Y235347D01*
X101031Y234287D01*
X100882Y233150D01*
X101031Y232012D01*
X101470Y230953D01*
X102169Y230043D01*
X103079Y229344D01*
X104138Y228905D01*
X105276Y228756D01*
X106413Y228905D01*
X107473Y229344D01*
X108382Y230043D01*
X109081Y230953D01*
X109520Y232012D01*
X109669Y233150D01*
X109520Y234287D01*
X109081Y235347D01*
X108382Y236257D01*
X107473Y236955D01*
X106413Y237394D01*
X105276Y237544D01*
D02*
G37*
G36*
X141587Y227847D02*
X140063D01*
Y227635D01*
X139563Y227388D01*
X139488Y227446D01*
X138861Y227705D01*
X138689Y227728D01*
Y225697D01*
X140720D01*
X140704Y225823D01*
X140730Y225980D01*
X140960Y226323D01*
X141587D01*
Y227847D01*
D02*
G37*
G36*
X224264Y227846D02*
X222740D01*
Y227292D01*
X222506Y227152D01*
X222240Y227086D01*
X221771Y227446D01*
X221145Y227705D01*
X220972Y227728D01*
Y225697D01*
X223004D01*
X222987Y225823D01*
X223014Y225980D01*
X223243Y226323D01*
X224264D01*
Y227846D01*
D02*
G37*
G36*
X251823D02*
X250299D01*
Y226323D01*
X251823D01*
Y227846D01*
D02*
G37*
G36*
X169146Y227847D02*
X167622D01*
Y226323D01*
X169146D01*
Y227847D01*
D02*
G37*
G36*
X219972Y227728D02*
X219800Y227705D01*
X219174Y227446D01*
X218636Y227033D01*
X218223Y226495D01*
X217964Y225869D01*
X217941Y225697D01*
X219972D01*
Y227728D01*
D02*
G37*
G36*
X137689D02*
X137517Y227705D01*
X136890Y227446D01*
X136353Y227033D01*
X135940Y226495D01*
X135680Y225869D01*
X135658Y225697D01*
X137689D01*
Y227728D01*
D02*
G37*
G36*
X169146Y224465D02*
X167622D01*
Y222941D01*
X169146D01*
Y224465D01*
D02*
G37*
G36*
X140990Y224697D02*
X138689D01*
Y222666D01*
X138861Y222688D01*
X139488Y222948D01*
X139563Y223006D01*
X139694Y222941D01*
X141587D01*
Y224465D01*
X141194D01*
X140990Y224697D01*
D02*
G37*
G36*
X251823Y224465D02*
X250299D01*
Y222941D01*
X251823D01*
Y224465D01*
D02*
G37*
G36*
X223274Y224697D02*
X220972D01*
Y222666D01*
X221145Y222688D01*
X221771Y222948D01*
X222240Y223308D01*
X222506Y223242D01*
X222740Y223101D01*
Y222941D01*
X224264D01*
Y224465D01*
X223477D01*
X223274Y224697D01*
D02*
G37*
G36*
X219972D02*
X217941D01*
X217964Y224525D01*
X218223Y223898D01*
X218636Y223360D01*
X219174Y222948D01*
X219800Y222688D01*
X219972Y222666D01*
Y224697D01*
D02*
G37*
G36*
X137689D02*
X135658D01*
X135680Y224525D01*
X135940Y223898D01*
X136353Y223360D01*
X136890Y222948D01*
X137517Y222688D01*
X137689Y222666D01*
Y224697D01*
D02*
G37*
G36*
X251823Y221941D02*
X250299D01*
Y220417D01*
X251823D01*
Y221941D01*
D02*
G37*
G36*
X224264D02*
X222740D01*
Y220417D01*
X224264D01*
Y221941D01*
D02*
G37*
G36*
X169146Y221941D02*
X167622D01*
Y220417D01*
X169146D01*
Y221941D01*
D02*
G37*
G36*
X141587Y221941D02*
X140063D01*
Y220417D01*
X141587D01*
Y221941D01*
D02*
G37*
G36*
X295276Y227543D02*
X294138Y227394D01*
X293079Y226955D01*
X292169Y226257D01*
X291470Y225346D01*
X291031Y224287D01*
X290882Y223150D01*
X291031Y222012D01*
X291470Y220953D01*
X292169Y220043D01*
X293079Y219344D01*
X294138Y218905D01*
X295276Y218756D01*
X296413Y218905D01*
X297473Y219344D01*
X298382Y220043D01*
X299081Y220953D01*
X299520Y222012D01*
X299670Y223150D01*
X299520Y224287D01*
X299081Y225346D01*
X298382Y226257D01*
X297473Y226955D01*
X296413Y227394D01*
X295276Y227543D01*
D02*
G37*
G36*
X285276D02*
X284138Y227394D01*
X283079Y226955D01*
X282169Y226257D01*
X281470Y225346D01*
X281031Y224287D01*
X280882Y223150D01*
X281031Y222012D01*
X281470Y220953D01*
X282169Y220043D01*
X283079Y219344D01*
X284138Y218905D01*
X285276Y218756D01*
X286413Y218905D01*
X287473Y219344D01*
X288383Y220043D01*
X289081Y220953D01*
X289520Y222012D01*
X289669Y223150D01*
X289520Y224287D01*
X289081Y225346D01*
X288383Y226257D01*
X287473Y226955D01*
X286413Y227394D01*
X285276Y227543D01*
D02*
G37*
G36*
X75583Y220094D02*
X73508D01*
Y217036D01*
X75583D01*
Y220094D01*
D02*
G37*
G36*
X202610Y216590D02*
X201087D01*
Y215067D01*
X202610D01*
Y216590D01*
D02*
G37*
G36*
X75583Y216036D02*
X73508D01*
Y212976D01*
X75583D01*
Y216036D01*
D02*
G37*
G36*
X202610Y214067D02*
X201087D01*
Y212543D01*
X202610D01*
Y214067D01*
D02*
G37*
G36*
X249622Y212516D02*
X246563D01*
Y210441D01*
X249622D01*
Y212516D01*
D02*
G37*
G36*
X245563D02*
X242504D01*
Y210441D01*
X245563D01*
Y212516D01*
D02*
G37*
G36*
X222063D02*
X219004D01*
Y210441D01*
X222063D01*
Y212516D01*
D02*
G37*
G36*
X218004D02*
X214945D01*
Y210441D01*
X218004D01*
Y212516D01*
D02*
G37*
G36*
X139386D02*
X136327D01*
Y210441D01*
X139386D01*
Y212516D01*
D02*
G37*
G36*
X135327D02*
X132268D01*
Y210441D01*
X135327D01*
Y212516D01*
D02*
G37*
G36*
X166945Y212516D02*
X163886D01*
Y210441D01*
X166945D01*
Y212516D01*
D02*
G37*
G36*
X162886D02*
X159827D01*
Y210441D01*
X162886D01*
Y212516D01*
D02*
G37*
G36*
X295276Y217544D02*
X294138Y217394D01*
X293079Y216955D01*
X292169Y216257D01*
X291470Y215347D01*
X291031Y214287D01*
X290882Y213150D01*
X291031Y212012D01*
X291470Y210953D01*
X292169Y210043D01*
X293079Y209344D01*
X294138Y208905D01*
X295276Y208756D01*
X296413Y208905D01*
X297473Y209344D01*
X298382Y210043D01*
X299081Y210953D01*
X299520Y212012D01*
X299670Y213150D01*
X299520Y214287D01*
X299081Y215347D01*
X298382Y216257D01*
X297473Y216955D01*
X296413Y217394D01*
X295276Y217544D01*
D02*
G37*
G36*
X285276D02*
X284138Y217394D01*
X283079Y216955D01*
X282169Y216257D01*
X281470Y215347D01*
X281031Y214287D01*
X280882Y213150D01*
X281031Y212012D01*
X281470Y210953D01*
X282169Y210043D01*
X283079Y209344D01*
X284138Y208905D01*
X285276Y208756D01*
X286413Y208905D01*
X287473Y209344D01*
X288383Y210043D01*
X289081Y210953D01*
X289520Y212012D01*
X289669Y213150D01*
X289520Y214287D01*
X289081Y215347D01*
X288383Y216257D01*
X287473Y216955D01*
X286413Y217394D01*
X285276Y217544D01*
D02*
G37*
G36*
X115276D02*
X114138Y217394D01*
X113079Y216955D01*
X112169Y216257D01*
X111470Y215347D01*
X111031Y214287D01*
X110882Y213150D01*
X111031Y212012D01*
X111470Y210953D01*
X112169Y210043D01*
X113079Y209344D01*
X114138Y208905D01*
X115276Y208756D01*
X116413Y208905D01*
X117473Y209344D01*
X118383Y210043D01*
X119081Y210953D01*
X119520Y212012D01*
X119669Y213150D01*
X119520Y214287D01*
X119081Y215347D01*
X118383Y216257D01*
X117473Y216955D01*
X116413Y217394D01*
X115276Y217544D01*
D02*
G37*
G36*
X105276D02*
X104138Y217394D01*
X103079Y216955D01*
X102169Y216257D01*
X101470Y215347D01*
X101031Y214287D01*
X100882Y213150D01*
X101031Y212012D01*
X101470Y210953D01*
X102169Y210043D01*
X103079Y209344D01*
X104138Y208905D01*
X105276Y208756D01*
X106413Y208905D01*
X107473Y209344D01*
X108382Y210043D01*
X109081Y210953D01*
X109520Y212012D01*
X109669Y213150D01*
X109520Y214287D01*
X109081Y215347D01*
X108382Y216257D01*
X107473Y216955D01*
X106413Y217394D01*
X105276Y217544D01*
D02*
G37*
G36*
X201000Y208776D02*
X198531D01*
Y206996D01*
X201000D01*
Y208776D01*
D02*
G37*
G36*
X197531D02*
X195063D01*
Y206996D01*
X197531D01*
Y208776D01*
D02*
G37*
G36*
X201000Y205996D02*
X198531D01*
Y204217D01*
X201000D01*
Y205996D01*
D02*
G37*
G36*
X197531D02*
X195063D01*
Y204217D01*
X197531D01*
Y205996D01*
D02*
G37*
G36*
X192968Y204425D02*
X191445D01*
Y202902D01*
X192968D01*
Y204425D01*
D02*
G37*
G36*
X190445D02*
X188921D01*
Y202902D01*
X190445D01*
Y204425D01*
D02*
G37*
G36*
X198031Y203598D02*
X196845Y203442D01*
X195740Y202984D01*
X194791Y202256D01*
X194063Y201307D01*
X193851Y200795D01*
X192968D01*
Y201902D01*
X190945D01*
X188921D01*
Y200378D01*
X189315D01*
Y197543D01*
X192575D01*
Y197552D01*
X193449D01*
Y193996D01*
Y188976D01*
X193605Y187790D01*
X194063Y186685D01*
X194791Y185736D01*
X195740Y185008D01*
X196845Y184550D01*
X198031Y184394D01*
X199217Y184550D01*
X200323Y185008D01*
X201272Y185736D01*
X202000Y186685D01*
X202458Y187790D01*
X202614Y188976D01*
Y193996D01*
Y199016D01*
X202458Y200202D01*
X202000Y201307D01*
X201272Y202256D01*
X200323Y202984D01*
X199217Y203442D01*
X198031Y203598D01*
D02*
G37*
G36*
X207480Y221416D02*
X206808Y221327D01*
X206182Y221068D01*
X205644Y220655D01*
X205231Y220117D01*
X204972Y219491D01*
X204883Y218819D01*
X204972Y218147D01*
X205231Y217520D01*
X205357Y217357D01*
Y216998D01*
X205134Y216590D01*
X203610D01*
Y214567D01*
X203110D01*
D01*
X203610D01*
Y212543D01*
X205134D01*
X205357Y212136D01*
Y204642D01*
X204906D01*
Y200870D01*
X206554D01*
X206668Y200794D01*
X207480Y200632D01*
X208293Y200794D01*
X208407Y200870D01*
X210055D01*
Y204642D01*
X209604D01*
Y217357D01*
X209729Y217520D01*
X209989Y218147D01*
X210077Y218819D01*
X209989Y219491D01*
X209729Y220117D01*
X209317Y220655D01*
X208779Y221068D01*
X208153Y221327D01*
X207480Y221416D01*
D02*
G37*
G36*
X295276Y207543D02*
X294138Y207394D01*
X293079Y206955D01*
X292169Y206257D01*
X291470Y205346D01*
X291031Y204287D01*
X290882Y203150D01*
X291031Y202012D01*
X291470Y200953D01*
X292169Y200043D01*
X293079Y199344D01*
X294138Y198905D01*
X295276Y198756D01*
X296413Y198905D01*
X297473Y199344D01*
X298382Y200043D01*
X299081Y200953D01*
X299520Y202012D01*
X299670Y203150D01*
X299520Y204287D01*
X299081Y205346D01*
X298382Y206257D01*
X297473Y206955D01*
X296413Y207394D01*
X295276Y207543D01*
D02*
G37*
G36*
X285276D02*
X284138Y207394D01*
X283079Y206955D01*
X282169Y206257D01*
X281470Y205346D01*
X281031Y204287D01*
X280882Y203150D01*
X281031Y202012D01*
X281470Y200953D01*
X282169Y200043D01*
X283079Y199344D01*
X284138Y198905D01*
X285276Y198756D01*
X286413Y198905D01*
X287473Y199344D01*
X288383Y200043D01*
X289081Y200953D01*
X289520Y202012D01*
X289669Y203150D01*
X289520Y204287D01*
X289081Y205346D01*
X288383Y206257D01*
X287473Y206955D01*
X286413Y207394D01*
X285276Y207543D01*
D02*
G37*
G36*
X115276D02*
X114138Y207394D01*
X113079Y206955D01*
X112169Y206257D01*
X111470Y205346D01*
X111031Y204287D01*
X110882Y203150D01*
X111031Y202012D01*
X111470Y200953D01*
X112169Y200043D01*
X113079Y199344D01*
X114138Y198905D01*
X115276Y198756D01*
X116413Y198905D01*
X117473Y199344D01*
X118383Y200043D01*
X119081Y200953D01*
X119520Y202012D01*
X119669Y203150D01*
X119520Y204287D01*
X119081Y205346D01*
X118383Y206257D01*
X117473Y206955D01*
X116413Y207394D01*
X115276Y207543D01*
D02*
G37*
G36*
X105276D02*
X104138Y207394D01*
X103079Y206955D01*
X102169Y206257D01*
X101470Y205346D01*
X101031Y204287D01*
X100882Y203150D01*
X101031Y202012D01*
X101470Y200953D01*
X102169Y200043D01*
X103079Y199344D01*
X104138Y198905D01*
X105276Y198756D01*
X106413Y198905D01*
X107473Y199344D01*
X108382Y200043D01*
X109081Y200953D01*
X109520Y202012D01*
X109669Y203150D01*
X109520Y204287D01*
X109081Y205346D01*
X108382Y206257D01*
X107473Y206955D01*
X106413Y207394D01*
X105276Y207543D01*
D02*
G37*
G36*
X236720Y201522D02*
Y198335D01*
X237842D01*
Y200000D01*
X237719Y200621D01*
X237367Y201147D01*
X236841Y201498D01*
X236720Y201522D01*
D02*
G37*
G36*
X154043D02*
Y198335D01*
X155165D01*
Y200000D01*
X155042Y200621D01*
X154690Y201147D01*
X154164Y201498D01*
X154043Y201522D01*
D02*
G37*
G36*
X181602D02*
Y198335D01*
X182724D01*
Y200000D01*
X182601Y200621D01*
X182249Y201147D01*
X181723Y201498D01*
X181602Y201522D01*
D02*
G37*
G36*
X264280D02*
Y198335D01*
X265401D01*
Y200000D01*
X265278Y200621D01*
X264926Y201147D01*
X264400Y201498D01*
X264280Y201522D01*
D02*
G37*
G36*
X237842Y197335D02*
X236720D01*
Y194147D01*
X236841Y194171D01*
X237367Y194523D01*
X237719Y195049D01*
X237842Y195669D01*
Y197335D01*
D02*
G37*
G36*
X155165D02*
X154043D01*
Y194147D01*
X154164Y194171D01*
X154690Y194523D01*
X155042Y195049D01*
X155165Y195669D01*
Y197335D01*
D02*
G37*
G36*
X249622Y209441D02*
X242504D01*
Y207366D01*
X244923D01*
X245022Y206866D01*
X244268Y206554D01*
X243525Y205983D01*
X243251Y205626D01*
X242898D01*
Y205103D01*
X242596Y204374D01*
X242473Y203445D01*
X242596Y202516D01*
X242898Y201786D01*
Y201264D01*
X243251D01*
X243525Y200906D01*
X248151Y196281D01*
X248151Y196281D01*
X249135Y195296D01*
X249878Y194726D01*
X250744Y194367D01*
X251673Y194245D01*
X251961D01*
Y192968D01*
X250854D01*
Y190945D01*
Y188921D01*
X251961D01*
Y187063D01*
X250854D01*
Y185039D01*
Y183016D01*
X252378D01*
Y183410D01*
X255213D01*
Y186669D01*
X255204D01*
Y189315D01*
X255213D01*
Y192575D01*
X255204D01*
Y194245D01*
X255693D01*
X256622Y194367D01*
X257268Y194635D01*
X257407Y194542D01*
X257874Y194449D01*
X258341Y194542D01*
X258901Y194315D01*
X259051Y194090D01*
X262660Y190481D01*
Y186669D01*
X262504D01*
Y183409D01*
X262660D01*
Y178657D01*
X261598D01*
Y175673D01*
X265961D01*
Y178657D01*
X264899D01*
Y182869D01*
X265339Y183016D01*
Y183016D01*
X266862D01*
Y185039D01*
Y187063D01*
X265339D01*
Y187063D01*
X264899Y187210D01*
Y190945D01*
X264814Y191374D01*
X264571Y191737D01*
X262826Y193482D01*
X262939Y194076D01*
X263159Y194171D01*
X263159Y194171D01*
X263280Y194147D01*
Y197835D01*
Y201522D01*
X263159Y201498D01*
X262795Y201255D01*
X262432Y201498D01*
X262311Y201522D01*
Y197835D01*
X261311D01*
Y201522D01*
X261190Y201498D01*
X260664Y201147D01*
X260369Y201088D01*
X260310Y201127D01*
X259842Y201220D01*
X259376Y201127D01*
X259228Y201028D01*
X258858Y200904D01*
X258489Y201028D01*
X258341Y201127D01*
X257874Y201220D01*
X257407Y201127D01*
X257268Y201034D01*
X256622Y201302D01*
X255693Y201424D01*
X253160D01*
X249228Y205356D01*
Y205626D01*
X248959D01*
X248601Y205983D01*
X247858Y206554D01*
X247104Y206866D01*
X247203Y207366D01*
X249622D01*
Y209441D01*
D02*
G37*
G36*
X182724Y197335D02*
X181602D01*
Y194147D01*
X181723Y194171D01*
X182249Y194523D01*
X182601Y195049D01*
X182724Y195669D01*
Y197335D01*
D02*
G37*
G36*
X166945Y209441D02*
X159827D01*
Y207366D01*
X162246D01*
X162345Y206866D01*
X161591Y206554D01*
X160847Y205983D01*
X160573Y205626D01*
X160221D01*
Y205103D01*
X159918Y204374D01*
X159796Y203445D01*
X159918Y202516D01*
X160221Y201786D01*
Y201264D01*
X160573D01*
X160847Y200906D01*
X165473Y196281D01*
X166458Y195296D01*
X167201Y194726D01*
X168067Y194367D01*
X168996Y194245D01*
X169284D01*
Y192968D01*
X168177D01*
Y190945D01*
Y188921D01*
X169284D01*
Y187063D01*
X168177D01*
Y185039D01*
Y183016D01*
X169701D01*
Y183410D01*
X172535D01*
Y186669D01*
X172527D01*
Y189315D01*
X172535D01*
Y192575D01*
X172527D01*
Y194245D01*
X173016D01*
X173945Y194367D01*
X174591Y194635D01*
X174730Y194542D01*
X175197Y194449D01*
X175664Y194542D01*
X176224Y194315D01*
X176374Y194090D01*
X179982Y190481D01*
Y186669D01*
X179827D01*
Y183409D01*
X179982D01*
Y178657D01*
X178921D01*
Y175673D01*
X183283D01*
Y178657D01*
X182222D01*
Y182869D01*
X182661Y183016D01*
Y183016D01*
X184185D01*
Y185039D01*
Y187063D01*
X182661D01*
Y187063D01*
X182222Y187210D01*
Y190945D01*
X182137Y191374D01*
X181894Y191737D01*
X180149Y193482D01*
X180262Y194076D01*
X180481Y194171D01*
X180482Y194171D01*
X180602Y194147D01*
Y197835D01*
X181102D01*
D01*
X180602D01*
Y201522D01*
X180482Y201498D01*
X180118Y201255D01*
X179754Y201498D01*
X179634Y201522D01*
Y197835D01*
X178634D01*
Y201522D01*
X178513Y201498D01*
X177987Y201147D01*
X177691Y201088D01*
X177632Y201127D01*
X177165Y201220D01*
X176698Y201127D01*
X176303Y200863D01*
X176060D01*
X175664Y201127D01*
X175197Y201220D01*
X174730Y201127D01*
X174591Y201034D01*
X173945Y201302D01*
X173016Y201424D01*
X170483D01*
X166551Y205356D01*
Y205626D01*
X166281D01*
X165924Y205983D01*
X165181Y206554D01*
X164426Y206866D01*
X164526Y207366D01*
X166945D01*
Y209441D01*
D02*
G37*
G36*
X265401Y197335D02*
X264280D01*
Y194147D01*
X264400Y194171D01*
X264926Y194523D01*
X265278Y195049D01*
X265401Y195669D01*
Y197335D01*
D02*
G37*
G36*
X222063Y209441D02*
X214945D01*
Y207366D01*
X217364D01*
X217463Y206866D01*
X216709Y206554D01*
X215966Y205983D01*
X215691Y205626D01*
X215339D01*
Y205103D01*
X215037Y204374D01*
X214914Y203445D01*
X215037Y202516D01*
X215339Y201786D01*
Y201264D01*
X215691D01*
X215966Y200906D01*
X220592Y196281D01*
X220592Y196281D01*
X221576Y195296D01*
X222319Y194726D01*
X223185Y194367D01*
X224114Y194245D01*
X224402D01*
Y192968D01*
X223295D01*
Y190945D01*
Y188921D01*
X224402D01*
Y187063D01*
X223295D01*
Y185039D01*
X222795D01*
D01*
X223295D01*
Y183016D01*
X224819D01*
Y183410D01*
X227654D01*
Y186669D01*
X227645D01*
Y189315D01*
X227654D01*
Y192575D01*
X227645D01*
Y194245D01*
X228134D01*
X229063Y194367D01*
X229709Y194635D01*
X229848Y194542D01*
X230315Y194449D01*
X230782Y194542D01*
X231342Y194315D01*
X231492Y194090D01*
X235101Y190481D01*
Y186669D01*
X234945D01*
Y183409D01*
X235101D01*
Y178657D01*
X234039D01*
Y175673D01*
X238402D01*
Y178657D01*
X237340D01*
Y182869D01*
X237780Y183016D01*
Y183016D01*
X239303D01*
Y185039D01*
Y187063D01*
X237780D01*
Y187063D01*
X237340Y187210D01*
Y190945D01*
X237255Y191374D01*
X237012Y191737D01*
X235267Y193482D01*
X235380Y194076D01*
X235599Y194171D01*
X235600Y194171D01*
X235720Y194147D01*
Y197835D01*
Y201522D01*
X235600Y201498D01*
X235236Y201255D01*
X234873Y201498D01*
X234752Y201522D01*
Y197835D01*
X233752D01*
Y201522D01*
X233631Y201498D01*
X233105Y201147D01*
X232810Y201088D01*
X232751Y201127D01*
X232283Y201220D01*
X231817Y201127D01*
X231421Y200863D01*
X231178D01*
X230782Y201127D01*
X230315Y201220D01*
X229848Y201127D01*
X229709Y201034D01*
X229063Y201302D01*
X228134Y201424D01*
X225601D01*
X221669Y205356D01*
Y205626D01*
X221399D01*
X221042Y205983D01*
X220299Y206554D01*
X219545Y206866D01*
X219644Y207366D01*
X222063D01*
Y209441D01*
D02*
G37*
G36*
X139386D02*
X132268D01*
Y207366D01*
X134687D01*
X134786Y206866D01*
X134032Y206554D01*
X133288Y205983D01*
X133014Y205626D01*
X132661D01*
Y205103D01*
X132359Y204374D01*
X132237Y203445D01*
X132359Y202516D01*
X132661Y201786D01*
Y201264D01*
X133014D01*
X133288Y200906D01*
X137225Y196969D01*
X138899Y195296D01*
X139642Y194726D01*
X140508Y194367D01*
X141437Y194245D01*
X141725D01*
Y192968D01*
X140618D01*
Y190945D01*
Y188921D01*
X141725D01*
Y187063D01*
X140618D01*
Y185039D01*
Y183016D01*
X142142D01*
Y183410D01*
X144976D01*
Y186669D01*
X144968D01*
Y189315D01*
X144976D01*
Y192575D01*
X144968D01*
Y194245D01*
X145457D01*
X146386Y194367D01*
X147032Y194635D01*
X147171Y194542D01*
X147638Y194449D01*
X148105Y194542D01*
X148664Y194315D01*
X148814Y194090D01*
X152423Y190481D01*
Y186669D01*
X152268D01*
Y183409D01*
X152423D01*
Y178657D01*
X151362D01*
Y175673D01*
X155724D01*
Y178657D01*
X154663D01*
Y182869D01*
X155102Y183016D01*
Y183016D01*
X156626D01*
Y185039D01*
X157126D01*
D01*
X156626D01*
Y187063D01*
X155102D01*
Y187063D01*
X154663Y187210D01*
Y190945D01*
X154578Y191374D01*
X154335Y191737D01*
X152590Y193482D01*
X152703Y194076D01*
X152922Y194171D01*
X152923Y194171D01*
X153043Y194147D01*
Y197835D01*
Y201522D01*
X152923Y201498D01*
X152559Y201255D01*
X152195Y201498D01*
X152075Y201522D01*
Y197835D01*
X151075D01*
Y201522D01*
X150954Y201498D01*
X150428Y201147D01*
X150132Y201088D01*
X150073Y201127D01*
X149606Y201220D01*
X149139Y201127D01*
X148743Y200863D01*
X148501D01*
X148105Y201127D01*
X147638Y201220D01*
X147171Y201127D01*
X147032Y201034D01*
X146386Y201302D01*
X145457Y201424D01*
X142924D01*
X138992Y205356D01*
Y205626D01*
X138722D01*
X138365Y205983D01*
X137622Y206554D01*
X136867Y206866D01*
X136967Y207366D01*
X139386D01*
Y209441D01*
D02*
G37*
G36*
X222295Y192968D02*
X220772D01*
Y191445D01*
X222295D01*
Y192968D01*
D02*
G37*
G36*
X249854D02*
X248331D01*
Y191445D01*
X249854D01*
Y192968D01*
D02*
G37*
G36*
X167177D02*
X165654D01*
Y191445D01*
X167177D01*
Y192968D01*
D02*
G37*
G36*
X139618Y192968D02*
X138094D01*
Y191445D01*
X139618D01*
Y192968D01*
D02*
G37*
G36*
Y190445D02*
X138094D01*
Y188921D01*
X139618D01*
Y190445D01*
D02*
G37*
G36*
X249854Y190445D02*
X248331D01*
Y188921D01*
X249854D01*
Y190445D01*
D02*
G37*
G36*
X222295Y190445D02*
X220772D01*
Y188921D01*
X222295D01*
Y190445D01*
D02*
G37*
G36*
X167177Y190445D02*
X165654D01*
Y188921D01*
X167177D01*
Y190445D01*
D02*
G37*
G36*
X295276Y197544D02*
X294138Y197394D01*
X293079Y196955D01*
X292169Y196257D01*
X291470Y195347D01*
X291031Y194287D01*
X290882Y193150D01*
X291031Y192012D01*
X291470Y190953D01*
X292169Y190043D01*
X293079Y189344D01*
X294138Y188905D01*
X295276Y188756D01*
X296413Y188905D01*
X297473Y189344D01*
X298382Y190043D01*
X299081Y190953D01*
X299520Y192012D01*
X299670Y193150D01*
X299520Y194287D01*
X299081Y195347D01*
X298382Y196257D01*
X297473Y196955D01*
X296413Y197394D01*
X295276Y197544D01*
D02*
G37*
G36*
X285276D02*
X284138Y197394D01*
X283079Y196955D01*
X282169Y196257D01*
X281470Y195347D01*
X281031Y194287D01*
X280882Y193150D01*
X281031Y192012D01*
X281470Y190953D01*
X282169Y190043D01*
X283079Y189344D01*
X284138Y188905D01*
X285276Y188756D01*
X286413Y188905D01*
X287473Y189344D01*
X288383Y190043D01*
X289081Y190953D01*
X289520Y192012D01*
X289669Y193150D01*
X289520Y194287D01*
X289081Y195347D01*
X288383Y196257D01*
X287473Y196955D01*
X286413Y197394D01*
X285276Y197544D01*
D02*
G37*
G36*
X115276D02*
X114138Y197394D01*
X113079Y196955D01*
X112169Y196257D01*
X111470Y195347D01*
X111031Y194287D01*
X110882Y193150D01*
X111031Y192012D01*
X111470Y190953D01*
X112169Y190043D01*
X113079Y189344D01*
X114138Y188905D01*
X115276Y188756D01*
X116413Y188905D01*
X117473Y189344D01*
X118383Y190043D01*
X119081Y190953D01*
X119520Y192012D01*
X119669Y193150D01*
X119520Y194287D01*
X119081Y195347D01*
X118383Y196257D01*
X117473Y196955D01*
X116413Y197394D01*
X115276Y197544D01*
D02*
G37*
G36*
X105276D02*
X104138Y197394D01*
X103079Y196955D01*
X102169Y196257D01*
X101470Y195347D01*
X101031Y194287D01*
X100882Y193150D01*
X101031Y192012D01*
X101470Y190953D01*
X102169Y190043D01*
X103079Y189344D01*
X104138Y188905D01*
X105276Y188756D01*
X106413Y188905D01*
X107473Y189344D01*
X108382Y190043D01*
X109081Y190953D01*
X109520Y192012D01*
X109669Y193150D01*
X109520Y194287D01*
X109081Y195347D01*
X108382Y196257D01*
X107473Y196955D01*
X106413Y197394D01*
X105276Y197544D01*
D02*
G37*
G36*
X222295Y187063D02*
X220772D01*
Y185539D01*
X222295D01*
Y187063D01*
D02*
G37*
G36*
X269386Y187063D02*
X267862D01*
Y185539D01*
X269386D01*
Y187063D01*
D02*
G37*
G36*
X186709D02*
X185185D01*
Y185539D01*
X186709D01*
Y187063D01*
D02*
G37*
G36*
X249854Y187063D02*
X248331D01*
Y185539D01*
X249854D01*
Y187063D01*
D02*
G37*
G36*
X159150Y187063D02*
X157626D01*
Y185539D01*
X159150D01*
Y187063D01*
D02*
G37*
G36*
X139618Y187063D02*
X138094D01*
Y185539D01*
X139618D01*
Y187063D01*
D02*
G37*
G36*
X241827Y187063D02*
X240303D01*
Y185539D01*
X241827D01*
Y187063D01*
D02*
G37*
G36*
X167177Y187063D02*
X165654D01*
Y185539D01*
X167177D01*
Y187063D01*
D02*
G37*
G36*
X249854Y184539D02*
X248331D01*
Y183016D01*
X249854D01*
Y184539D01*
D02*
G37*
G36*
X222295Y184539D02*
X220772D01*
Y183016D01*
X222295D01*
Y184539D01*
D02*
G37*
G36*
X167177Y184539D02*
X165654D01*
Y183016D01*
X167177D01*
Y184539D01*
D02*
G37*
G36*
X139618Y184539D02*
X138094D01*
Y183016D01*
X139618D01*
Y184539D01*
D02*
G37*
G36*
X269386Y184539D02*
X267862D01*
Y183016D01*
X269386D01*
Y184539D01*
D02*
G37*
G36*
X241827Y184539D02*
X240303D01*
Y183016D01*
X241827D01*
Y184539D01*
D02*
G37*
G36*
X186709Y184539D02*
X185185D01*
Y183016D01*
X186709D01*
Y184539D01*
D02*
G37*
G36*
X159150Y184539D02*
X157626D01*
Y183016D01*
X159150D01*
Y184539D01*
D02*
G37*
G36*
X66437Y187144D02*
X65765Y187056D01*
X65139Y186796D01*
X64601Y186384D01*
X64188Y185846D01*
X63929Y185219D01*
X63840Y184547D01*
X63929Y183875D01*
X64188Y183249D01*
X64601Y182711D01*
X64815Y182546D01*
Y180956D01*
X64315Y180667D01*
X63878Y180754D01*
X63296Y180638D01*
X62802Y180308D01*
X62472Y179815D01*
X62357Y179232D01*
Y175492D01*
X62472Y174910D01*
X62758Y174483D01*
Y170921D01*
X61717D01*
Y169245D01*
X60921Y168449D01*
X60678Y168086D01*
X60593Y167657D01*
Y159029D01*
X59744D01*
X59008Y158883D01*
X58385Y158466D01*
X58224Y158226D01*
X50807D01*
X50807Y158226D01*
X50379Y158141D01*
X50015Y157898D01*
X50015Y157898D01*
X36610Y144493D01*
X36367Y144129D01*
X36282Y143701D01*
Y132354D01*
X32673Y128745D01*
X32430Y128381D01*
X32345Y127953D01*
Y126394D01*
X31284D01*
Y123409D01*
X35646D01*
Y126394D01*
X34585D01*
Y127489D01*
X38194Y131098D01*
X38436Y131461D01*
X38522Y131890D01*
Y143237D01*
X51271Y155986D01*
X58224D01*
X58385Y155747D01*
X59008Y155330D01*
X59744Y155183D01*
X63681D01*
X64417Y155330D01*
X64955Y155689D01*
X65455Y155535D01*
Y153745D01*
X65109Y153512D01*
X65029Y153474D01*
X64417Y153883D01*
X63681Y154029D01*
X59744D01*
X59008Y153883D01*
X58385Y153466D01*
X57968Y152842D01*
X57821Y152106D01*
X57968Y151371D01*
X58385Y150747D01*
X59008Y150330D01*
X59744Y150183D01*
X63681D01*
X64417Y150330D01*
X65041Y150747D01*
X65201Y150986D01*
X65492D01*
X65921Y151072D01*
X66284Y151314D01*
X67367Y152397D01*
X67610Y152760D01*
X67695Y153189D01*
Y167661D01*
X68205D01*
Y169337D01*
X69788Y170921D01*
X70031Y171284D01*
X70116Y171713D01*
Y173584D01*
X70616Y173852D01*
X70819Y173716D01*
X71055Y173669D01*
Y177362D01*
Y181056D01*
X70819Y181009D01*
X70196Y180592D01*
X70026Y180339D01*
X69578Y180638D01*
X68996Y180754D01*
X68559Y180667D01*
X68059Y180956D01*
Y182546D01*
X68273Y182711D01*
X68686Y183249D01*
X68946Y183875D01*
X69034Y184547D01*
X68946Y185219D01*
X68686Y185846D01*
X68273Y186384D01*
X67735Y186796D01*
X67109Y187056D01*
X66437Y187144D01*
D02*
G37*
G36*
X76635Y187144D02*
X75963Y187056D01*
X75337Y186796D01*
X74799Y186384D01*
X74386Y185846D01*
X74127Y185219D01*
X74038Y184547D01*
X74127Y183875D01*
X74386Y183249D01*
X74799Y182711D01*
X75067Y182505D01*
X75137Y182152D01*
X75489Y181626D01*
X75875Y181239D01*
X75762Y180701D01*
X75714Y180684D01*
X75413Y180632D01*
X74850Y181009D01*
X74614Y181056D01*
Y177362D01*
Y173669D01*
X74644Y173675D01*
X75144Y173356D01*
Y170921D01*
X73528D01*
Y167661D01*
X74037D01*
Y151221D01*
X74123Y150792D01*
X74366Y150428D01*
X78480Y146314D01*
X78480Y146314D01*
X78843Y146072D01*
X79272Y145986D01*
X79272Y145986D01*
X80468D01*
X80629Y145747D01*
X81252Y145330D01*
X81988Y145184D01*
X85925D01*
X86661Y145330D01*
X87285Y145747D01*
X87702Y146370D01*
X87848Y147106D01*
X87702Y147842D01*
X87285Y148466D01*
X86661Y148883D01*
X85925Y149029D01*
X81988D01*
X81252Y148883D01*
X80629Y148466D01*
X80468Y148226D01*
X79735D01*
X76277Y151684D01*
Y167661D01*
X77266D01*
Y153898D01*
X77351Y153469D01*
X77594Y153106D01*
X79385Y151314D01*
X79385Y151314D01*
X79749Y151072D01*
X80177Y150986D01*
X80468D01*
X80629Y150747D01*
X81252Y150330D01*
X81988Y150183D01*
X85925D01*
X86661Y150330D01*
X87285Y150747D01*
X87445Y150986D01*
X91524D01*
X101242Y141268D01*
Y134689D01*
X100742Y134422D01*
X100423Y134635D01*
X99610Y134797D01*
X49110D01*
X48298Y134635D01*
X47609Y134175D01*
X39837Y126403D01*
X39831Y126394D01*
X39158D01*
Y123409D01*
X39831D01*
X39837Y123400D01*
X40526Y122940D01*
X41339Y122778D01*
X42151Y122940D01*
X42840Y123400D01*
X42849Y123409D01*
X43520D01*
Y124080D01*
X49990Y130550D01*
X92465D01*
Y130067D01*
X94488D01*
X96512D01*
Y130550D01*
X98731D01*
X100652Y128628D01*
X100419Y128155D01*
X100020Y128207D01*
X99348Y128119D01*
X98721Y127859D01*
X98557Y127734D01*
X96512D01*
Y129067D01*
X94488D01*
X92465D01*
Y127734D01*
X83957D01*
X83144Y127572D01*
X83086Y127533D01*
X81988D01*
X81252Y127387D01*
X80629Y126970D01*
X80212Y126346D01*
X80065Y125610D01*
X80212Y124874D01*
X80629Y124251D01*
X81252Y123834D01*
X81988Y123688D01*
X83086D01*
X83144Y123648D01*
X83957Y123487D01*
X98557D01*
X98721Y123361D01*
X99348Y123102D01*
X100020Y123013D01*
X100692Y123102D01*
X101318Y123361D01*
X101707Y123660D01*
X102207Y123458D01*
Y120488D01*
X102150D01*
Y117504D01*
X102823D01*
X102829Y117494D01*
X105082Y115242D01*
X104891Y114779D01*
X102150D01*
Y114407D01*
X98638D01*
Y114779D01*
X94276D01*
Y114407D01*
X91901D01*
X89906Y116402D01*
X89543Y116645D01*
X89114Y116730D01*
X87445D01*
X87285Y116970D01*
X86661Y117387D01*
X85925Y117533D01*
X81988D01*
X81252Y117387D01*
X80629Y116970D01*
X80212Y116346D01*
X80065Y115610D01*
X80212Y114874D01*
X80629Y114251D01*
X81252Y113834D01*
X81988Y113688D01*
X85925D01*
X86661Y113834D01*
X87285Y114251D01*
X87445Y114490D01*
X88650D01*
X90645Y112496D01*
X91008Y112253D01*
X91437Y112168D01*
X94276D01*
Y111795D01*
X98638D01*
Y112168D01*
X102150D01*
Y111795D01*
X106512D01*
Y112168D01*
X110024D01*
Y111795D01*
X111085D01*
Y109843D01*
X111170Y109414D01*
X111413Y109051D01*
X113173Y107290D01*
Y103724D01*
X117535D01*
Y108874D01*
X114757D01*
X113325Y110306D01*
Y111795D01*
X114386D01*
Y114520D01*
X115833D01*
X116110Y113850D01*
X116838Y112901D01*
X117788Y112173D01*
X118893Y111715D01*
X120079Y111559D01*
X121265Y111715D01*
X122370Y112173D01*
X123319Y112901D01*
X131193Y120775D01*
X131921Y121724D01*
X132379Y122830D01*
X132535Y124016D01*
Y181102D01*
X132379Y182288D01*
X131921Y183394D01*
X131193Y184343D01*
X130244Y185071D01*
X129139Y185529D01*
X127953Y185685D01*
X126767Y185529D01*
X125662Y185071D01*
X124712Y184343D01*
X123984Y183394D01*
X123526Y182288D01*
X123370Y181102D01*
Y125914D01*
X116838Y119382D01*
X116110Y118433D01*
X115833Y117763D01*
X114386D01*
Y120488D01*
X113325D01*
Y124016D01*
X113239Y124444D01*
X112997Y124808D01*
X103482Y134322D01*
Y141732D01*
X103482Y141732D01*
X103397Y142161D01*
X103154Y142524D01*
X92780Y152898D01*
X92417Y153141D01*
X91988Y153226D01*
X87445D01*
X87285Y153466D01*
X86661Y153883D01*
X85925Y154029D01*
X81988D01*
X81252Y153883D01*
X80629Y153466D01*
X80422Y153446D01*
X79506Y154361D01*
Y167661D01*
X80016D01*
Y169337D01*
X82583Y171905D01*
X82826Y172268D01*
X82911Y172697D01*
Y174483D01*
X83197Y174910D01*
X83313Y175492D01*
Y179232D01*
X83197Y179815D01*
X82867Y180308D01*
X82374Y180638D01*
X81791Y180754D01*
X81209Y180638D01*
X81130Y180585D01*
X80668Y180776D01*
X80648Y180879D01*
X80296Y181405D01*
X78697Y183004D01*
X78884Y183249D01*
X79144Y183875D01*
X79232Y184547D01*
X79144Y185219D01*
X78884Y185846D01*
X78472Y186384D01*
X77934Y186796D01*
X77307Y187056D01*
X76635Y187144D01*
D02*
G37*
G36*
X295276Y187543D02*
X294138Y187394D01*
X293079Y186955D01*
X292169Y186257D01*
X291470Y185347D01*
X291031Y184287D01*
X290882Y183150D01*
X291031Y182012D01*
X291470Y180953D01*
X292169Y180043D01*
X293079Y179344D01*
X294138Y178905D01*
X295276Y178756D01*
X296413Y178905D01*
X297473Y179344D01*
X298382Y180043D01*
X299081Y180953D01*
X299520Y182012D01*
X299670Y183150D01*
X299520Y184287D01*
X299081Y185347D01*
X298382Y186257D01*
X297473Y186955D01*
X296413Y187394D01*
X295276Y187543D01*
D02*
G37*
G36*
X285276D02*
X284138Y187394D01*
X283079Y186955D01*
X282169Y186257D01*
X281470Y185347D01*
X281031Y184287D01*
X280882Y183150D01*
X281031Y182012D01*
X281470Y180953D01*
X282169Y180043D01*
X283079Y179344D01*
X284138Y178905D01*
X285276Y178756D01*
X286413Y178905D01*
X287473Y179344D01*
X288383Y180043D01*
X289081Y180953D01*
X289520Y182012D01*
X289669Y183150D01*
X289520Y184287D01*
X289081Y185347D01*
X288383Y186257D01*
X287473Y186955D01*
X286413Y187394D01*
X285276Y187543D01*
D02*
G37*
G36*
X115276D02*
X114138Y187394D01*
X113079Y186955D01*
X112169Y186257D01*
X111470Y185347D01*
X111031Y184287D01*
X110882Y183150D01*
X111031Y182012D01*
X111470Y180953D01*
X112169Y180043D01*
X113079Y179344D01*
X114138Y178905D01*
X115276Y178756D01*
X116413Y178905D01*
X117473Y179344D01*
X118383Y180043D01*
X119081Y180953D01*
X119520Y182012D01*
X119669Y183150D01*
X119520Y184287D01*
X119081Y185347D01*
X118383Y186257D01*
X117473Y186955D01*
X116413Y187394D01*
X115276Y187543D01*
D02*
G37*
G36*
X105276D02*
X104138Y187394D01*
X103079Y186955D01*
X102169Y186257D01*
X101470Y185347D01*
X101031Y184287D01*
X100882Y183150D01*
X101031Y182012D01*
X101470Y180953D01*
X102169Y180043D01*
X103079Y179344D01*
X104138Y178905D01*
X105276Y178756D01*
X106413Y178905D01*
X107473Y179344D01*
X108382Y180043D01*
X109081Y180953D01*
X109520Y182012D01*
X109669Y183150D01*
X109520Y184287D01*
X109081Y185347D01*
X108382Y186257D01*
X107473Y186955D01*
X106413Y187394D01*
X105276Y187543D01*
D02*
G37*
G36*
X72055Y181056D02*
Y177362D01*
Y173669D01*
X72291Y173716D01*
X72835Y174079D01*
X73378Y173716D01*
X73614Y173669D01*
Y177362D01*
Y181056D01*
X73378Y181009D01*
X72835Y180645D01*
X72291Y181009D01*
X72055Y181056D01*
D02*
G37*
G36*
X183283Y172949D02*
X178921D01*
Y172577D01*
X178248D01*
X177820Y172491D01*
X177456Y172249D01*
X168499Y163292D01*
X168257Y162929D01*
X168171Y162500D01*
Y153543D01*
X168257Y153115D01*
X168499Y152751D01*
X169936Y151314D01*
X169936Y151314D01*
X170300Y151072D01*
X170728Y150986D01*
X172988D01*
X173148Y150747D01*
X173772Y150330D01*
X174508Y150183D01*
X175356D01*
Y149029D01*
X174508D01*
X173772Y148883D01*
X173148Y148466D01*
X172731Y147842D01*
X172585Y147106D01*
X172731Y146370D01*
X173148Y145747D01*
X173772Y145330D01*
X174508Y145184D01*
X178445D01*
X179181Y145330D01*
X179805Y145747D01*
X180221Y146370D01*
X180368Y147106D01*
X180221Y147842D01*
X179805Y148466D01*
X179181Y148883D01*
X178445Y149029D01*
X177596D01*
Y150183D01*
X178445D01*
X179181Y150330D01*
X179805Y150747D01*
X180221Y151371D01*
X180368Y152106D01*
X180221Y152842D01*
X179805Y153466D01*
X179181Y153883D01*
X178445Y154029D01*
X174508D01*
X173772Y153883D01*
X173148Y153466D01*
X172988Y153226D01*
X171192D01*
X170411Y154007D01*
Y162036D01*
X178421Y170046D01*
X178921Y169965D01*
Y169965D01*
X183283D01*
Y172949D01*
D02*
G37*
G36*
X295276Y177543D02*
X294138Y177394D01*
X293079Y176955D01*
X292169Y176257D01*
X291470Y175347D01*
X291031Y174287D01*
X290882Y173150D01*
X291031Y172012D01*
X291470Y170953D01*
X292169Y170043D01*
X293079Y169344D01*
X294138Y168905D01*
X295276Y168756D01*
X296413Y168905D01*
X297473Y169344D01*
X298382Y170043D01*
X299081Y170953D01*
X299520Y172012D01*
X299670Y173150D01*
X299520Y174287D01*
X299081Y175347D01*
X298382Y176257D01*
X297473Y176955D01*
X296413Y177394D01*
X295276Y177543D01*
D02*
G37*
G36*
X285276D02*
X284138Y177394D01*
X283079Y176955D01*
X282169Y176257D01*
X281470Y175347D01*
X281031Y174287D01*
X280882Y173150D01*
X281031Y172012D01*
X281470Y170953D01*
X282169Y170043D01*
X283079Y169344D01*
X284138Y168905D01*
X285276Y168756D01*
X286413Y168905D01*
X287473Y169344D01*
X288383Y170043D01*
X289081Y170953D01*
X289520Y172012D01*
X289669Y173150D01*
X289520Y174287D01*
X289081Y175347D01*
X288383Y176257D01*
X287473Y176955D01*
X286413Y177394D01*
X285276Y177543D01*
D02*
G37*
G36*
X115276D02*
X114138Y177394D01*
X113079Y176955D01*
X112169Y176257D01*
X111470Y175347D01*
X111031Y174287D01*
X110882Y173150D01*
X111031Y172012D01*
X111470Y170953D01*
X112169Y170043D01*
X113079Y169344D01*
X114138Y168905D01*
X115276Y168756D01*
X116413Y168905D01*
X117473Y169344D01*
X118383Y170043D01*
X119081Y170953D01*
X119520Y172012D01*
X119669Y173150D01*
X119520Y174287D01*
X119081Y175347D01*
X118383Y176257D01*
X117473Y176955D01*
X116413Y177394D01*
X115276Y177543D01*
D02*
G37*
G36*
X105276D02*
X104138Y177394D01*
X103079Y176955D01*
X102169Y176257D01*
X101470Y175347D01*
X101031Y174287D01*
X100882Y173150D01*
X101031Y172012D01*
X101470Y170953D01*
X102169Y170043D01*
X103079Y169344D01*
X104138Y168905D01*
X105276Y168756D01*
X106413Y168905D01*
X107473Y169344D01*
X108382Y170043D01*
X109081Y170953D01*
X109520Y172012D01*
X109669Y173150D01*
X109520Y174287D01*
X109081Y175347D01*
X108382Y176257D01*
X107473Y176955D01*
X106413Y177394D01*
X105276Y177543D01*
D02*
G37*
G36*
X189032Y163087D02*
X187508D01*
Y161563D01*
X189032D01*
Y163087D01*
D02*
G37*
G36*
X96512D02*
X94988D01*
Y161563D01*
X96512D01*
Y163087D01*
D02*
G37*
G36*
X263835D02*
X262311D01*
Y161563D01*
X263835D01*
Y163087D01*
D02*
G37*
G36*
X93988D02*
X92465D01*
Y161563D01*
X93988D01*
Y163087D01*
D02*
G37*
G36*
X261311D02*
X259787D01*
Y161563D01*
X261311D01*
Y163087D01*
D02*
G37*
G36*
X186508D02*
X184984D01*
Y161563D01*
X186508D01*
Y163087D01*
D02*
G37*
G36*
X295276Y167543D02*
X294138Y167394D01*
X293079Y166955D01*
X292169Y166257D01*
X291470Y165347D01*
X291031Y164287D01*
X290882Y163150D01*
X291031Y162012D01*
X291470Y160953D01*
X292169Y160043D01*
X293079Y159344D01*
X294138Y158905D01*
X295276Y158756D01*
X296413Y158905D01*
X297473Y159344D01*
X298382Y160043D01*
X299081Y160953D01*
X299520Y162012D01*
X299670Y163150D01*
X299520Y164287D01*
X299081Y165347D01*
X298382Y166257D01*
X297473Y166955D01*
X296413Y167394D01*
X295276Y167543D01*
D02*
G37*
G36*
X285276D02*
X284138Y167394D01*
X283079Y166955D01*
X282169Y166257D01*
X281470Y165347D01*
X281031Y164287D01*
X280882Y163150D01*
X281031Y162012D01*
X281470Y160953D01*
X282169Y160043D01*
X283079Y159344D01*
X284138Y158905D01*
X285276Y158756D01*
X286413Y158905D01*
X287473Y159344D01*
X288383Y160043D01*
X289081Y160953D01*
X289520Y162012D01*
X289669Y163150D01*
X289520Y164287D01*
X289081Y165347D01*
X288383Y166257D01*
X287473Y166955D01*
X286413Y167394D01*
X285276Y167543D01*
D02*
G37*
G36*
X115276D02*
X114138Y167394D01*
X113079Y166955D01*
X112169Y166257D01*
X111470Y165347D01*
X111031Y164287D01*
X110882Y163150D01*
X111031Y162012D01*
X111470Y160953D01*
X112169Y160043D01*
X113079Y159344D01*
X114138Y158905D01*
X115276Y158756D01*
X116413Y158905D01*
X117473Y159344D01*
X118383Y160043D01*
X119081Y160953D01*
X119520Y162012D01*
X119669Y163150D01*
X119520Y164287D01*
X119081Y165347D01*
X118383Y166257D01*
X117473Y166955D01*
X116413Y167394D01*
X115276Y167543D01*
D02*
G37*
G36*
X105276D02*
X104138Y167394D01*
X103079Y166955D01*
X102169Y166257D01*
X101470Y165347D01*
X101031Y164287D01*
X100882Y163150D01*
X101031Y162012D01*
X101470Y160953D01*
X102169Y160043D01*
X103079Y159344D01*
X104138Y158905D01*
X105276Y158756D01*
X106413Y158905D01*
X107473Y159344D01*
X108382Y160043D01*
X109081Y160953D01*
X109520Y162012D01*
X109669Y163150D01*
X109520Y164287D01*
X109081Y165347D01*
X108382Y166257D01*
X107473Y166955D01*
X106413Y167394D01*
X105276Y167543D01*
D02*
G37*
G36*
X96512Y160563D02*
X94488D01*
X92465D01*
Y159230D01*
X83957D01*
X83144Y159068D01*
X83086Y159029D01*
X81988D01*
X81252Y158883D01*
X80629Y158466D01*
X80212Y157842D01*
X80065Y157106D01*
X80212Y156370D01*
X80629Y155747D01*
X81252Y155330D01*
X81988Y155183D01*
X83086D01*
X83144Y155145D01*
X83957Y154983D01*
X98558D01*
X98721Y154857D01*
X99348Y154598D01*
X100020Y154509D01*
X100692Y154598D01*
X101318Y154857D01*
X101856Y155270D01*
X102269Y155808D01*
X102528Y156434D01*
X102617Y157106D01*
X102528Y157779D01*
X102269Y158405D01*
X101856Y158943D01*
X101318Y159355D01*
X100692Y159615D01*
X100020Y159703D01*
X99348Y159615D01*
X98721Y159355D01*
X98558Y159230D01*
X96512D01*
Y160563D01*
D02*
G37*
G36*
X189032D02*
X187008D01*
X184984D01*
Y159230D01*
X176476D01*
X175664Y159068D01*
X175605Y159029D01*
X174508D01*
X173772Y158883D01*
X173148Y158466D01*
X172731Y157842D01*
X172585Y157106D01*
X172731Y156370D01*
X173148Y155747D01*
X173772Y155330D01*
X174508Y155183D01*
X175605D01*
X175664Y155145D01*
X176476Y154983D01*
X191077D01*
X191241Y154857D01*
X191867Y154598D01*
X192539Y154509D01*
X193211Y154598D01*
X193838Y154857D01*
X194376Y155270D01*
X194788Y155808D01*
X195048Y156434D01*
X195136Y157106D01*
X195048Y157779D01*
X194788Y158405D01*
X194376Y158943D01*
X193838Y159355D01*
X193211Y159615D01*
X192539Y159703D01*
X191867Y159615D01*
X191241Y159355D01*
X191077Y159230D01*
X189032D01*
Y160563D01*
D02*
G37*
G36*
X263835D02*
X261811D01*
X259787D01*
Y159230D01*
X251279D01*
X250467Y159068D01*
X250408Y159029D01*
X249311D01*
X248575Y158883D01*
X247951Y158466D01*
X247535Y157842D01*
X247388Y157106D01*
X247535Y156370D01*
X247951Y155747D01*
X248575Y155330D01*
X249311Y155183D01*
X250408D01*
X250467Y155145D01*
X251279Y154983D01*
X265880D01*
X266044Y154857D01*
X266670Y154598D01*
X267342Y154509D01*
X268015Y154598D01*
X268641Y154857D01*
X269179Y155270D01*
X269592Y155808D01*
X269851Y156434D01*
X269939Y157106D01*
X269851Y157779D01*
X269592Y158405D01*
X269179Y158943D01*
X268641Y159355D01*
X268015Y159615D01*
X267342Y159703D01*
X266670Y159615D01*
X266044Y159355D01*
X265880Y159230D01*
X263835D01*
Y160563D01*
D02*
G37*
G36*
X155724Y172949D02*
X151362D01*
Y169965D01*
X153112D01*
Y159029D01*
X152264D01*
X151528Y158883D01*
X150904Y158466D01*
X150487Y157842D01*
X150341Y157106D01*
X150487Y156370D01*
X150904Y155747D01*
X151528Y155330D01*
X152264Y155183D01*
X153112D01*
Y154029D01*
X152264D01*
X151528Y153883D01*
X150904Y153466D01*
X150487Y152842D01*
X150341Y152106D01*
X150487Y151371D01*
X150904Y150747D01*
X151528Y150330D01*
X152264Y150183D01*
X156201D01*
X156937Y150330D01*
X157560Y150747D01*
X157977Y151371D01*
X158124Y152106D01*
X157977Y152842D01*
X157560Y153466D01*
X156937Y153883D01*
X156201Y154029D01*
X155352D01*
Y155183D01*
X156201D01*
X156937Y155330D01*
X157560Y155747D01*
X157977Y156370D01*
X158124Y157106D01*
X157977Y157842D01*
X157560Y158466D01*
X156937Y158883D01*
X156201Y159029D01*
X155352D01*
Y169965D01*
X155724D01*
Y172949D01*
D02*
G37*
G36*
X238402D02*
X234039D01*
Y169965D01*
X234603D01*
X234810Y169465D01*
X228243Y162898D01*
X228001Y162535D01*
X227916Y162106D01*
Y159029D01*
X227067D01*
X226331Y158883D01*
X225707Y158466D01*
X225290Y157842D01*
X225144Y157106D01*
X225290Y156370D01*
X225707Y155747D01*
X226331Y155330D01*
X227067Y155183D01*
X227916D01*
Y154029D01*
X227067D01*
X226331Y153883D01*
X225707Y153466D01*
X225290Y152842D01*
X225144Y152106D01*
X225290Y151371D01*
X225707Y150747D01*
X226331Y150330D01*
X227067Y150183D01*
X231004D01*
X231740Y150330D01*
X232364Y150747D01*
X232780Y151371D01*
X232927Y152106D01*
X232780Y152842D01*
X232364Y153466D01*
X231740Y153883D01*
X231004Y154029D01*
X230155D01*
Y155183D01*
X231004D01*
X231740Y155330D01*
X232364Y155747D01*
X232780Y156370D01*
X232927Y157106D01*
X232780Y157842D01*
X232364Y158466D01*
X231740Y158883D01*
X231004Y159029D01*
X230155D01*
Y161642D01*
X237012Y168499D01*
X237255Y168863D01*
X237340Y169291D01*
Y169965D01*
X238402D01*
Y172949D01*
D02*
G37*
G36*
X63681Y149431D02*
X62213D01*
Y147606D01*
X65906D01*
X65828Y147996D01*
X65325Y148750D01*
X64570Y149254D01*
X63681Y149431D01*
D02*
G37*
G36*
X61213D02*
X59744D01*
X58855Y149254D01*
X58101Y148750D01*
X57597Y147996D01*
X57519Y147606D01*
X61213D01*
Y149431D01*
D02*
G37*
G36*
X265961Y172949D02*
X261598D01*
Y170860D01*
X261150Y170411D01*
X250000D01*
X249571Y170326D01*
X249208Y170083D01*
X243303Y164178D01*
X243060Y163814D01*
X242974Y163386D01*
Y153543D01*
X243060Y153115D01*
X243303Y152751D01*
X244740Y151314D01*
X245103Y151072D01*
X245532Y150986D01*
X247791D01*
X247951Y150747D01*
X248575Y150330D01*
X249311Y150183D01*
X250160D01*
Y149029D01*
X249311D01*
X248575Y148883D01*
X247951Y148466D01*
X247535Y147842D01*
X247388Y147106D01*
X247535Y146370D01*
X247951Y145747D01*
X248575Y145330D01*
X249311Y145184D01*
X253248D01*
X253984Y145330D01*
X254608Y145747D01*
X255024Y146370D01*
X255171Y147106D01*
X255024Y147842D01*
X254608Y148466D01*
X253984Y148883D01*
X253248Y149029D01*
X252399D01*
Y150183D01*
X253248D01*
X253984Y150330D01*
X254608Y150747D01*
X255024Y151371D01*
X255171Y152106D01*
X255024Y152842D01*
X254608Y153466D01*
X253984Y153883D01*
X253248Y154029D01*
X249311D01*
X248575Y153883D01*
X247951Y153466D01*
X247791Y153226D01*
X245995D01*
X245214Y154007D01*
Y162922D01*
X250464Y168171D01*
X261614D01*
X262043Y168257D01*
X262406Y168499D01*
X263871Y169965D01*
X265961D01*
Y172949D01*
D02*
G37*
G36*
X65906Y146606D02*
X62213D01*
Y144782D01*
X63681D01*
X64570Y144959D01*
X65325Y145463D01*
X65828Y146217D01*
X65906Y146606D01*
D02*
G37*
G36*
X61213D02*
X57519D01*
X57597Y146217D01*
X58101Y145463D01*
X58855Y144959D01*
X59744Y144782D01*
X61213D01*
Y146606D01*
D02*
G37*
G36*
X85925Y144430D02*
X84457D01*
Y142606D01*
X88150D01*
X88073Y142996D01*
X87569Y143750D01*
X86815Y144254D01*
X85925Y144430D01*
D02*
G37*
G36*
X83457D02*
X81988D01*
X81099Y144254D01*
X80345Y143750D01*
X79841Y142996D01*
X79764Y142606D01*
X83457D01*
Y144430D01*
D02*
G37*
G36*
X88150Y141606D02*
X84457D01*
Y139782D01*
X85925D01*
X86815Y139959D01*
X87569Y140463D01*
X88073Y141217D01*
X88150Y141606D01*
D02*
G37*
G36*
X83457D02*
X79764D01*
X79841Y141217D01*
X80345Y140463D01*
X81099Y139959D01*
X81988Y139782D01*
X83457D01*
Y141606D01*
D02*
G37*
G36*
X138169Y144703D02*
X137497Y144615D01*
X136871Y144355D01*
X136333Y143943D01*
X135920Y143405D01*
X135661Y142779D01*
X135572Y142106D01*
X135661Y141434D01*
X135920Y140808D01*
X136333Y140270D01*
X136871Y139857D01*
X137497Y139598D01*
X138169Y139509D01*
X138841Y139598D01*
X139468Y139857D01*
X139631Y139983D01*
X141677D01*
Y138650D01*
X145724D01*
Y139983D01*
X154232D01*
X155045Y140145D01*
X155103Y140183D01*
X156201D01*
X156937Y140330D01*
X157560Y140747D01*
X157977Y141370D01*
X158124Y142106D01*
X157977Y142842D01*
X157560Y143466D01*
X156937Y143883D01*
X156201Y144029D01*
X155103D01*
X155045Y144068D01*
X154232Y144230D01*
X139631D01*
X139468Y144355D01*
X138841Y144615D01*
X138169Y144703D01*
D02*
G37*
G36*
X45650Y144703D02*
X44978Y144615D01*
X44351Y144355D01*
X43813Y143943D01*
X43400Y143405D01*
X43141Y142779D01*
X43053Y142106D01*
X43141Y141434D01*
X43400Y140808D01*
X43813Y140270D01*
X44351Y139857D01*
X44432Y139824D01*
Y139282D01*
X44371Y139257D01*
X43833Y138844D01*
X43420Y138306D01*
X43161Y137680D01*
X43138Y137508D01*
X48201D01*
X48178Y137680D01*
X47918Y138306D01*
X47506Y138844D01*
X47094Y139160D01*
X47047Y139620D01*
X47076Y139752D01*
X47324Y139983D01*
X49158D01*
Y138650D01*
X53205D01*
Y139983D01*
X61713D01*
X62525Y140145D01*
X62584Y140183D01*
X63681D01*
X64417Y140330D01*
X65041Y140747D01*
X65457Y141370D01*
X65604Y142106D01*
X65457Y142842D01*
X65041Y143466D01*
X64417Y143883D01*
X63681Y144029D01*
X62584D01*
X62525Y144068D01*
X61713Y144230D01*
X47112D01*
X46948Y144355D01*
X46322Y144615D01*
X45650Y144703D01*
D02*
G37*
G36*
X220528Y137650D02*
X219004D01*
Y136126D01*
X220528D01*
Y137650D01*
D02*
G37*
G36*
X218004D02*
X216480D01*
Y136126D01*
X218004D01*
Y137650D01*
D02*
G37*
G36*
X145724D02*
X144201D01*
Y136126D01*
X145724D01*
Y137650D01*
D02*
G37*
G36*
X143201D02*
X141677D01*
Y136126D01*
X143201D01*
Y137650D01*
D02*
G37*
G36*
X53205D02*
X51681D01*
Y136126D01*
X53205D01*
Y137650D01*
D02*
G37*
G36*
X50681D02*
X49158D01*
Y136126D01*
X50681D01*
Y137650D01*
D02*
G37*
G36*
X48201Y136508D02*
X46169D01*
Y134477D01*
X46341Y134499D01*
X46968Y134759D01*
X47506Y135171D01*
X47918Y135709D01*
X48178Y136336D01*
X48201Y136508D01*
D02*
G37*
G36*
X45169D02*
X43138D01*
X43161Y136336D01*
X43420Y135709D01*
X43833Y135171D01*
X44371Y134759D01*
X44997Y134499D01*
X45169Y134477D01*
Y136508D01*
D02*
G37*
G36*
X229035Y144230D02*
X219232D01*
X218420Y144068D01*
X217731Y143608D01*
X217131Y143008D01*
X216874D01*
Y142687D01*
X216542Y142191D01*
X216381Y141378D01*
X216521Y140673D01*
X216480Y140173D01*
X216480Y140173D01*
X216480Y140173D01*
Y138650D01*
X220528D01*
Y139983D01*
X226223D01*
Y135320D01*
X226097Y135157D01*
X225838Y134530D01*
X225749Y133858D01*
X225838Y133186D01*
X226097Y132560D01*
X226510Y132022D01*
X227048Y131609D01*
X227674Y131350D01*
X228346Y131261D01*
X229019Y131350D01*
X229645Y131609D01*
X230183Y132022D01*
X230596Y132560D01*
X230855Y133186D01*
X230943Y133858D01*
X230855Y134530D01*
X230596Y135157D01*
X230470Y135320D01*
Y140183D01*
X231004D01*
X231740Y140330D01*
X232364Y140747D01*
X232780Y141370D01*
X232927Y142106D01*
X232780Y142842D01*
X232364Y143466D01*
X231740Y143883D01*
X231004Y144029D01*
X229907D01*
X229848Y144068D01*
X229035Y144230D01*
D02*
G37*
G36*
X63681Y127533D02*
X59744D01*
X59008Y127387D01*
X58385Y126970D01*
X58224Y126730D01*
X56713D01*
X56713Y126730D01*
X56284Y126645D01*
X55921Y126402D01*
X55921Y126402D01*
X55540Y126022D01*
X51394D01*
Y126394D01*
X47032D01*
Y123409D01*
X51394D01*
Y123782D01*
X56004D01*
X56432Y123867D01*
X56796Y124110D01*
X57177Y124490D01*
X58224D01*
X58385Y124251D01*
X59008Y123834D01*
X59744Y123688D01*
X63681D01*
X64417Y123834D01*
X65041Y124251D01*
X65201Y124490D01*
X66839D01*
X69746Y121583D01*
Y108732D01*
X64497Y103482D01*
X57405D01*
X57235Y103982D01*
X57348Y104069D01*
X57761Y104607D01*
X58020Y105233D01*
X58043Y105405D01*
X55512D01*
Y106405D01*
X58043D01*
X58020Y106578D01*
X57761Y107204D01*
X57348Y107742D01*
X57029Y107987D01*
X57199Y108487D01*
X61713D01*
X62525Y108648D01*
X62584Y108687D01*
X63681D01*
X64417Y108834D01*
X65041Y109251D01*
X65457Y109874D01*
X65604Y110610D01*
X65457Y111346D01*
X65041Y111970D01*
X64417Y112387D01*
X63681Y112533D01*
X62584D01*
X62525Y112572D01*
X61713Y112734D01*
X47112D01*
X46948Y112859D01*
X46322Y113119D01*
X45650Y113207D01*
X44978Y113119D01*
X44351Y112859D01*
X43813Y112447D01*
X43400Y111909D01*
X43141Y111282D01*
X43053Y110610D01*
X43141Y109938D01*
X43400Y109312D01*
X43813Y108774D01*
X44351Y108361D01*
X44978Y108102D01*
X45650Y108013D01*
X46322Y108102D01*
X46948Y108361D01*
X47112Y108487D01*
X49158D01*
Y107153D01*
X51181D01*
Y106653D01*
X51681D01*
Y104630D01*
X53205D01*
X53527Y104263D01*
X53675Y104069D01*
X53789Y103982D01*
X53619Y103482D01*
X45276D01*
X44847Y103397D01*
X44484Y103154D01*
X40547Y99217D01*
X40304Y98854D01*
X40300Y98835D01*
X39158D01*
Y95850D01*
X43520D01*
Y98835D01*
X43520Y98835D01*
X43520D01*
X43739Y99242D01*
X45739Y101242D01*
X64961D01*
X65389Y101328D01*
X65753Y101570D01*
X71658Y107476D01*
X71658Y107476D01*
X71901Y107839D01*
X71986Y108268D01*
X71986Y108268D01*
Y122047D01*
X71986Y122047D01*
X71901Y122476D01*
X71658Y122839D01*
X68095Y126402D01*
X67732Y126645D01*
X67303Y126730D01*
X65201D01*
X65041Y126970D01*
X64417Y127387D01*
X63681Y127533D01*
D02*
G37*
G36*
X253248Y144029D02*
X249311D01*
X248575Y143883D01*
X247951Y143466D01*
X247535Y142842D01*
X247388Y142106D01*
X247535Y141370D01*
X247951Y140747D01*
X248575Y140330D01*
X249311Y140183D01*
X253248D01*
X253984Y140330D01*
X254608Y140747D01*
X254768Y140986D01*
X308217D01*
X320829Y128375D01*
Y124228D01*
X320457D01*
Y123167D01*
X317339D01*
Y124228D01*
X314354D01*
Y119866D01*
X317339D01*
Y120927D01*
X320457D01*
Y119866D01*
X320829D01*
Y115059D01*
X320914Y114630D01*
X321157Y114267D01*
X325652Y109772D01*
Y105606D01*
X325142D01*
Y102347D01*
Y99118D01*
X325652D01*
Y94171D01*
X321697D01*
X321537Y94411D01*
X320913Y94828D01*
X320177Y94974D01*
X316240D01*
X315504Y94828D01*
X314881Y94411D01*
X314464Y93787D01*
X314317Y93051D01*
X314464Y92315D01*
X314881Y91692D01*
X315504Y91275D01*
X316240Y91128D01*
X320177D01*
X320913Y91275D01*
X321537Y91692D01*
X321697Y91931D01*
X326417D01*
X326846Y92017D01*
X327209Y92259D01*
X327236Y92286D01*
X331594D01*
X332023Y92371D01*
X332386Y92614D01*
X336744Y96971D01*
X337334Y96854D01*
X337467Y96531D01*
X338069Y95746D01*
X338854Y95144D01*
X339768Y94766D01*
X340748Y94637D01*
X344291D01*
X345272Y94766D01*
X346185Y95144D01*
X346970Y95746D01*
X347572Y96531D01*
X347951Y97445D01*
X348080Y98425D01*
X347951Y99406D01*
X347572Y100319D01*
X346970Y101104D01*
X346185Y101706D01*
X345272Y102084D01*
X344291Y102214D01*
X343640D01*
Y104637D01*
X344291D01*
X345272Y104766D01*
X346185Y105144D01*
X346970Y105746D01*
X347572Y106531D01*
X347951Y107445D01*
X348080Y108425D01*
X347951Y109406D01*
X347572Y110319D01*
X346970Y111104D01*
X346185Y111706D01*
X345272Y112084D01*
X344291Y112214D01*
X340748D01*
X339768Y112084D01*
X338854Y111706D01*
X338069Y111104D01*
X337467Y110319D01*
X337089Y109406D01*
X336960Y108425D01*
X337089Y107445D01*
X337467Y106531D01*
X338069Y105746D01*
X338854Y105144D01*
X339768Y104766D01*
X340748Y104637D01*
X341400D01*
Y102214D01*
X340748D01*
X339768Y102084D01*
X338854Y101706D01*
X338069Y101104D01*
X337467Y100319D01*
X337147Y99545D01*
X336614D01*
X336186Y99460D01*
X335822Y99217D01*
X335822Y99217D01*
X331131Y94525D01*
X327892D01*
Y99118D01*
X328402D01*
Y102347D01*
Y105606D01*
X327892D01*
Y110236D01*
X327892Y110236D01*
X327806Y110665D01*
X327564Y111028D01*
X327564Y111028D01*
X323069Y115523D01*
Y119866D01*
X323441D01*
Y124228D01*
X323069D01*
Y128839D01*
X322984Y129267D01*
X322741Y129630D01*
X309473Y142898D01*
X309110Y143141D01*
X308681Y143226D01*
X254768D01*
X254608Y143466D01*
X253984Y143883D01*
X253248Y144029D01*
D02*
G37*
G36*
X178445Y144029D02*
X174508D01*
X173772Y143883D01*
X173148Y143466D01*
X172731Y142842D01*
X172585Y142106D01*
X172731Y141370D01*
X173148Y140747D01*
X173772Y140330D01*
X174508Y140183D01*
X178445D01*
X179181Y140330D01*
X179805Y140747D01*
X179965Y140986D01*
X203887D01*
X218467Y126406D01*
Y124228D01*
X218094D01*
Y123167D01*
X214976D01*
Y124228D01*
X211992D01*
Y119866D01*
X214976D01*
Y120927D01*
X218094D01*
Y119866D01*
X218467D01*
Y115059D01*
X218552Y114630D01*
X218795Y114267D01*
X223289Y109772D01*
Y105606D01*
X222780D01*
Y102347D01*
Y99118D01*
X223289D01*
Y94171D01*
X219335D01*
X219175Y94411D01*
X218551Y94828D01*
X217815Y94974D01*
X213878D01*
X213142Y94828D01*
X212518Y94411D01*
X212102Y93787D01*
X211955Y93051D01*
X212102Y92315D01*
X212518Y91692D01*
X213142Y91275D01*
X213878Y91128D01*
X217815D01*
X218551Y91275D01*
X219175Y91692D01*
X219335Y91931D01*
X224055D01*
X224484Y92017D01*
X224847Y92259D01*
X224873Y92286D01*
X229232D01*
X229661Y92371D01*
X230024Y92614D01*
X234382Y96971D01*
X234971Y96854D01*
X235105Y96531D01*
X235707Y95746D01*
X236492Y95144D01*
X237405Y94766D01*
X238386Y94637D01*
X241929D01*
X242910Y94766D01*
X243823Y95144D01*
X244608Y95746D01*
X245210Y96531D01*
X245588Y97445D01*
X245718Y98425D01*
X245588Y99406D01*
X245210Y100319D01*
X244608Y101104D01*
X243823Y101706D01*
X242910Y102084D01*
X241929Y102214D01*
X241277D01*
Y104637D01*
X241929D01*
X242910Y104766D01*
X243823Y105144D01*
X244608Y105746D01*
X245210Y106531D01*
X245588Y107445D01*
X245718Y108425D01*
X245588Y109406D01*
X245210Y110319D01*
X244608Y111104D01*
X243823Y111706D01*
X242910Y112084D01*
X241929Y112214D01*
X238386D01*
X237405Y112084D01*
X236492Y111706D01*
X235707Y111104D01*
X235105Y110319D01*
X234727Y109406D01*
X234597Y108425D01*
X234727Y107445D01*
X235105Y106531D01*
X235707Y105746D01*
X236492Y105144D01*
X237405Y104766D01*
X238386Y104637D01*
X239038D01*
Y102214D01*
X238386D01*
X237405Y102084D01*
X236492Y101706D01*
X235707Y101104D01*
X235105Y100319D01*
X234784Y99545D01*
X234252D01*
X233823Y99460D01*
X233460Y99217D01*
X233460Y99217D01*
X228768Y94525D01*
X225529D01*
Y99118D01*
X226039D01*
Y102347D01*
Y105606D01*
X225529D01*
Y110236D01*
X225529Y110236D01*
X225444Y110665D01*
X225201Y111028D01*
X225201Y111028D01*
X220707Y115523D01*
Y119866D01*
X221079D01*
Y124228D01*
X220707D01*
Y126870D01*
X220707Y126870D01*
X220621Y127299D01*
X220378Y127662D01*
X205142Y142898D01*
X204779Y143141D01*
X204350Y143226D01*
X179965D01*
X179805Y143466D01*
X179181Y143883D01*
X178445Y144029D01*
D02*
G37*
G36*
X288402Y124622D02*
X287016D01*
Y122547D01*
X288402D01*
Y124622D01*
D02*
G37*
G36*
X186039D02*
X184653D01*
Y122547D01*
X186039D01*
Y124622D01*
D02*
G37*
G36*
X329543D02*
X328157D01*
Y122547D01*
X329543D01*
Y124622D01*
D02*
G37*
G36*
X227181D02*
X225795D01*
Y122547D01*
X227181D01*
Y124622D01*
D02*
G37*
G36*
X327157D02*
X325772D01*
Y122547D01*
X327157D01*
Y124622D01*
D02*
G37*
G36*
X224795D02*
X223410D01*
Y122547D01*
X224795D01*
Y124622D01*
D02*
G37*
G36*
X286016D02*
X284630D01*
Y122547D01*
X286016D01*
Y124622D01*
D02*
G37*
G36*
X183653D02*
X182268D01*
Y122547D01*
X183653D01*
Y124622D01*
D02*
G37*
G36*
X63681Y122533D02*
X59744D01*
X59008Y122387D01*
X58385Y121970D01*
X58224Y121730D01*
X55650D01*
X55221Y121645D01*
X54858Y121402D01*
X54858Y121402D01*
X53768Y120313D01*
X51394D01*
Y120685D01*
X47032D01*
Y120313D01*
X43520D01*
Y120685D01*
X39158D01*
Y120313D01*
X35646D01*
Y120685D01*
X31284D01*
Y120313D01*
X29248D01*
X28820Y120228D01*
X28456Y119985D01*
X24719Y116248D01*
X21941D01*
Y111098D01*
X26303D01*
Y114664D01*
X29712Y118073D01*
X31284D01*
Y117701D01*
X35646D01*
Y118073D01*
X39158D01*
Y117701D01*
X43520D01*
Y118073D01*
X47032D01*
Y117701D01*
X51394D01*
Y118073D01*
X54232D01*
X54661Y118158D01*
X55024Y118401D01*
X56113Y119490D01*
X58224D01*
X58385Y119251D01*
X59008Y118834D01*
X59744Y118687D01*
X63681D01*
X64417Y118834D01*
X65041Y119251D01*
X65457Y119874D01*
X65604Y120610D01*
X65457Y121346D01*
X65041Y121970D01*
X64417Y122387D01*
X63681Y122533D01*
D02*
G37*
G36*
X231004Y149029D02*
X227067D01*
X226331Y148883D01*
X225707Y148466D01*
X225290Y147842D01*
X225144Y147106D01*
X225290Y146370D01*
X225707Y145747D01*
X226331Y145330D01*
X227067Y145184D01*
X231004D01*
X231740Y145330D01*
X232364Y145747D01*
X232570Y145767D01*
X245271Y133066D01*
X245271Y133066D01*
X245634Y132824D01*
X246063Y132738D01*
X284969D01*
X291105Y126603D01*
Y124228D01*
X290732D01*
Y119866D01*
X291105D01*
Y117491D01*
X286610Y112997D01*
X286367Y112633D01*
X286282Y112205D01*
Y105606D01*
X285772D01*
Y102347D01*
Y99118D01*
X286282D01*
Y94525D01*
X283043D01*
X278351Y99217D01*
X277988Y99460D01*
X277559Y99545D01*
X277027D01*
X276706Y100319D01*
X276104Y101104D01*
X275319Y101706D01*
X274406Y102084D01*
X273425Y102214D01*
X272774D01*
Y104637D01*
X273425D01*
X274406Y104766D01*
X275319Y105144D01*
X276104Y105746D01*
X276706Y106531D01*
X277084Y107445D01*
X277214Y108425D01*
X277084Y109406D01*
X276706Y110319D01*
X276104Y111104D01*
X275319Y111706D01*
X274406Y112084D01*
X273425Y112214D01*
X269882D01*
X268901Y112084D01*
X267988Y111706D01*
X267203Y111104D01*
X266601Y110319D01*
X266223Y109406D01*
X266094Y108425D01*
X266223Y107445D01*
X266601Y106531D01*
X267203Y105746D01*
X267988Y105144D01*
X268901Y104766D01*
X269882Y104637D01*
X270534D01*
Y102214D01*
X269882D01*
X268901Y102084D01*
X267988Y101706D01*
X267203Y101104D01*
X266601Y100319D01*
X266223Y99406D01*
X266094Y98425D01*
X266223Y97445D01*
X266601Y96531D01*
X267203Y95746D01*
X267988Y95144D01*
X268901Y94766D01*
X269882Y94637D01*
X273425D01*
X274406Y94766D01*
X275319Y95144D01*
X276104Y95746D01*
X276706Y96531D01*
X276840Y96854D01*
X277429Y96971D01*
X281787Y92614D01*
X281787Y92614D01*
X282150Y92371D01*
X282579Y92286D01*
X287402D01*
X287830Y92371D01*
X288193Y92614D01*
X288436Y92977D01*
X288522Y93405D01*
Y99118D01*
X289032D01*
X289032Y99118D01*
Y99118D01*
X289379Y98801D01*
X290921Y97259D01*
X290921Y97259D01*
X291284Y97017D01*
X291713Y96931D01*
X291713Y96931D01*
X292476D01*
X292636Y96692D01*
X293260Y96275D01*
X293996Y96128D01*
X297933D01*
X298669Y96275D01*
X299293Y96692D01*
X299710Y97315D01*
X299856Y98051D01*
X299710Y98787D01*
X299293Y99411D01*
X298669Y99828D01*
X297933Y99974D01*
X293996D01*
X293260Y99828D01*
X292636Y99411D01*
X292600Y99356D01*
X292034Y99314D01*
X289808Y101540D01*
X289444Y101783D01*
X289032Y101865D01*
Y105606D01*
X288522D01*
Y111741D01*
X293016Y116236D01*
X293259Y116599D01*
X293344Y117027D01*
X293344Y117028D01*
Y119866D01*
X293717D01*
Y120927D01*
X296835D01*
Y119866D01*
X299819D01*
Y124228D01*
X296835D01*
Y123167D01*
X293717D01*
Y124228D01*
X293344D01*
Y127067D01*
X293344Y127067D01*
X293259Y127496D01*
X293016Y127859D01*
X293016Y127859D01*
X286225Y134650D01*
X285862Y134893D01*
X285433Y134978D01*
X246527D01*
X233607Y147898D01*
X233243Y148141D01*
X232815Y148226D01*
X232524D01*
X232364Y148466D01*
X231740Y148883D01*
X231004Y149029D01*
D02*
G37*
G36*
X156201Y149029D02*
X152264D01*
X151528Y148883D01*
X150904Y148466D01*
X150487Y147842D01*
X150341Y147106D01*
X150487Y146370D01*
X150904Y145747D01*
X151528Y145330D01*
X152264Y145184D01*
X156201D01*
X156937Y145330D01*
X157560Y145747D01*
X157721Y145986D01*
X159516D01*
X172436Y133066D01*
X172800Y132824D01*
X173228Y132738D01*
X173228Y132738D01*
X182607D01*
X188742Y126603D01*
Y124228D01*
X188370D01*
Y119866D01*
X188742D01*
Y115523D01*
X184248Y111028D01*
X184005Y110665D01*
X183920Y110236D01*
Y105606D01*
X183410D01*
Y102347D01*
Y99118D01*
X183920D01*
Y94525D01*
X180680D01*
X175989Y99217D01*
X175625Y99460D01*
X175197Y99545D01*
X174664D01*
X174344Y100319D01*
X173742Y101104D01*
X172957Y101706D01*
X172044Y102084D01*
X171063Y102214D01*
X170411D01*
Y104637D01*
X171063D01*
X172044Y104766D01*
X172957Y105144D01*
X173742Y105746D01*
X174344Y106531D01*
X174722Y107445D01*
X174851Y108425D01*
X174722Y109406D01*
X174344Y110319D01*
X173742Y111104D01*
X172957Y111706D01*
X172044Y112084D01*
X171063Y112214D01*
X167520D01*
X166539Y112084D01*
X165626Y111706D01*
X164841Y111104D01*
X164239Y110319D01*
X163860Y109406D01*
X163731Y108425D01*
X163860Y107445D01*
X164239Y106531D01*
X164841Y105746D01*
X165626Y105144D01*
X166539Y104766D01*
X167520Y104637D01*
X168171D01*
Y102214D01*
X167520D01*
X166539Y102084D01*
X165626Y101706D01*
X164841Y101104D01*
X164239Y100319D01*
X163860Y99406D01*
X163731Y98425D01*
X163860Y97445D01*
X164239Y96531D01*
X164841Y95746D01*
X165626Y95144D01*
X166539Y94766D01*
X167520Y94637D01*
X171063D01*
X172044Y94766D01*
X172957Y95144D01*
X173742Y95746D01*
X174344Y96531D01*
X174477Y96854D01*
X175067Y96971D01*
X179425Y92614D01*
X179425Y92614D01*
X179788Y92371D01*
X180217Y92286D01*
X185039D01*
X185468Y92371D01*
X185831Y92614D01*
X186074Y92977D01*
X186159Y93405D01*
Y99118D01*
X186669D01*
X186669Y99118D01*
Y99118D01*
X187017Y98801D01*
X188558Y97259D01*
X188558Y97259D01*
X188922Y97017D01*
X189350Y96931D01*
X189350Y96931D01*
X190114D01*
X190274Y96692D01*
X190898Y96275D01*
X191634Y96128D01*
X195571D01*
X196307Y96275D01*
X196931Y96692D01*
X197347Y97315D01*
X197494Y98051D01*
X197347Y98787D01*
X196931Y99411D01*
X196307Y99828D01*
X195571Y99974D01*
X191634D01*
X190898Y99828D01*
X190274Y99411D01*
X190238Y99356D01*
X189672Y99314D01*
X187445Y101540D01*
X187082Y101783D01*
X186669Y101865D01*
Y105606D01*
X186159D01*
Y109772D01*
X190654Y114267D01*
X190897Y114630D01*
X190982Y115059D01*
X190982Y115059D01*
Y119866D01*
X191354D01*
Y120927D01*
X194473D01*
Y119866D01*
X197457D01*
Y124228D01*
X194473D01*
Y123167D01*
X191354D01*
Y124228D01*
X190982D01*
Y127067D01*
X190982Y127067D01*
X190897Y127496D01*
X190654Y127859D01*
X190654Y127859D01*
X183863Y134650D01*
X183500Y134893D01*
X183071Y134978D01*
X173692D01*
X160772Y147898D01*
X160409Y148141D01*
X159980Y148226D01*
X157721D01*
X157560Y148466D01*
X156937Y148883D01*
X156201Y149029D01*
D02*
G37*
G36*
X329543Y121547D02*
X328157D01*
Y119473D01*
X329543D01*
Y121547D01*
D02*
G37*
G36*
X327157D02*
X325772D01*
Y119473D01*
X327157D01*
Y121547D01*
D02*
G37*
G36*
X288402D02*
X287016D01*
Y119473D01*
X288402D01*
Y121547D01*
D02*
G37*
G36*
X286016D02*
X284630D01*
Y119473D01*
X286016D01*
Y121547D01*
D02*
G37*
G36*
X227181D02*
X225795D01*
Y119473D01*
X227181D01*
Y121547D01*
D02*
G37*
G36*
X224795D02*
X223410D01*
Y119473D01*
X224795D01*
Y121547D01*
D02*
G37*
G36*
X186039D02*
X184653D01*
Y119473D01*
X186039D01*
Y121547D01*
D02*
G37*
G36*
X183653D02*
X182268D01*
Y119473D01*
X183653D01*
Y121547D01*
D02*
G37*
G36*
X310138Y124644D02*
X304035D01*
X303363Y124556D01*
X302737Y124296D01*
X302648Y124228D01*
X302543D01*
Y124148D01*
X302199Y123884D01*
X301786Y123346D01*
X301527Y122719D01*
X301438Y122047D01*
X301527Y121375D01*
X301786Y120749D01*
X302199Y120211D01*
X302543Y119947D01*
Y119866D01*
X302648D01*
X302737Y119798D01*
X303363Y119539D01*
X304035Y119450D01*
X310138D01*
X310810Y119539D01*
X311436Y119798D01*
X311525Y119866D01*
X311630D01*
Y119947D01*
X311974Y120211D01*
X312387Y120749D01*
X312646Y121375D01*
X312735Y122047D01*
X312646Y122719D01*
X312387Y123346D01*
X311974Y123884D01*
X311630Y124148D01*
Y124228D01*
X311525D01*
X311436Y124296D01*
X310810Y124556D01*
X310138Y124644D01*
D02*
G37*
G36*
X207776D02*
X201673D01*
X201001Y124556D01*
X200375Y124296D01*
X200286Y124228D01*
X200181D01*
Y124148D01*
X199837Y123884D01*
X199424Y123346D01*
X199165Y122719D01*
X199076Y122047D01*
X199165Y121375D01*
X199424Y120749D01*
X199837Y120211D01*
X200181Y119947D01*
Y119866D01*
X200286D01*
X200375Y119798D01*
X201001Y119539D01*
X201673Y119450D01*
X207776D01*
X208448Y119539D01*
X209074Y119798D01*
X209163Y119866D01*
X209268D01*
Y119947D01*
X209612Y120211D01*
X210025Y120749D01*
X210284Y121375D01*
X210373Y122047D01*
X210284Y122719D01*
X210025Y123346D01*
X209612Y123884D01*
X209268Y124148D01*
Y124228D01*
X209163D01*
X209074Y124296D01*
X208448Y124556D01*
X207776Y124644D01*
D02*
G37*
G36*
X85925Y122533D02*
X81988D01*
X81252Y122387D01*
X80629Y121970D01*
X80468Y121730D01*
X77303D01*
X76875Y121645D01*
X76511Y121402D01*
X74011Y118902D01*
X73769Y118539D01*
X73683Y118110D01*
Y110236D01*
X73769Y109808D01*
X74011Y109444D01*
X77948Y105507D01*
X78312Y105264D01*
X78740Y105179D01*
X78740Y105179D01*
X87871D01*
X88041Y104679D01*
X87927Y104592D01*
X87515Y104054D01*
X87255Y103428D01*
X87233Y103256D01*
X89764D01*
Y102256D01*
X87233D01*
X87255Y102084D01*
X87515Y101457D01*
X87927Y100919D01*
X88247Y100675D01*
X88077Y100175D01*
X83957D01*
X83144Y100013D01*
X83086Y99974D01*
X81988D01*
X81252Y99828D01*
X80629Y99411D01*
X80212Y98787D01*
X80065Y98051D01*
X80212Y97315D01*
X80629Y96692D01*
X81252Y96275D01*
X81988Y96128D01*
X83086D01*
X83144Y96089D01*
X83957Y95928D01*
X98557D01*
X98721Y95802D01*
X99348Y95543D01*
X100020Y95454D01*
X100692Y95543D01*
X101318Y95802D01*
X101856Y96215D01*
X102269Y96753D01*
X102528Y97379D01*
X102536Y97440D01*
X103073Y97686D01*
X103211Y97596D01*
Y92929D01*
X102150D01*
Y89945D01*
X106512D01*
Y92929D01*
X105451D01*
Y98425D01*
X105365Y98854D01*
X105123Y99217D01*
X97249Y107091D01*
X96885Y107334D01*
X96457Y107419D01*
X79204D01*
X75923Y110700D01*
Y117646D01*
X77767Y119490D01*
X80468D01*
X80629Y119251D01*
X81252Y118834D01*
X81988Y118687D01*
X85925D01*
X86661Y118834D01*
X87285Y119251D01*
X87445Y119490D01*
X89556D01*
X90842Y118204D01*
X90842Y118204D01*
X91205Y117961D01*
X91634Y117876D01*
X91634Y117876D01*
X94276D01*
Y117504D01*
X98638D01*
Y120488D01*
X94276D01*
Y120116D01*
X92098D01*
X90812Y121402D01*
X90448Y121645D01*
X90020Y121730D01*
X87445D01*
X87285Y121970D01*
X86661Y122387D01*
X85925Y122533D01*
D02*
G37*
G36*
X63681Y117934D02*
X62213D01*
Y116110D01*
X65906D01*
X65828Y116500D01*
X65324Y117254D01*
X64570Y117757D01*
X63681Y117934D01*
D02*
G37*
G36*
X61213D02*
X59744D01*
X58855Y117757D01*
X58101Y117254D01*
X57597Y116500D01*
X57519Y116110D01*
X61213D01*
Y117934D01*
D02*
G37*
G36*
X21185Y116642D02*
X19110D01*
Y114173D01*
X21185D01*
Y116642D01*
D02*
G37*
G36*
X18110D02*
X16035D01*
Y114173D01*
X18110D01*
Y116642D01*
D02*
G37*
G36*
X65906Y115110D02*
X62213D01*
Y113286D01*
X63681D01*
X64570Y113463D01*
X65324Y113967D01*
X65828Y114721D01*
X65906Y115110D01*
D02*
G37*
G36*
X61213D02*
X57519D01*
X57597Y114721D01*
X58101Y113967D01*
X58855Y113463D01*
X59744Y113286D01*
X61213D01*
Y115110D01*
D02*
G37*
G36*
X85925Y112934D02*
X84457D01*
Y111110D01*
X88150D01*
X88073Y111500D01*
X87569Y112254D01*
X86815Y112758D01*
X85925Y112934D01*
D02*
G37*
G36*
X83457D02*
X81988D01*
X81099Y112758D01*
X80345Y112254D01*
X79841Y111500D01*
X79764Y111110D01*
X83457D01*
Y112934D01*
D02*
G37*
G36*
X21185Y113173D02*
X19110D01*
Y110705D01*
X21185D01*
Y113173D01*
D02*
G37*
G36*
X18110D02*
X16035D01*
Y110705D01*
X18110D01*
Y113173D01*
D02*
G37*
G36*
X88150Y110110D02*
X84457D01*
Y108286D01*
X85925D01*
X86815Y108463D01*
X87569Y108967D01*
X88073Y109721D01*
X88150Y110110D01*
D02*
G37*
G36*
X83457D02*
X79764D01*
X79841Y109721D01*
X80345Y108967D01*
X81099Y108463D01*
X81988Y108286D01*
X83457D01*
Y110110D01*
D02*
G37*
G36*
X123441Y109268D02*
X121366D01*
Y106799D01*
X123441D01*
Y109268D01*
D02*
G37*
G36*
X120366D02*
X118291D01*
Y106799D01*
X120366D01*
Y109268D01*
D02*
G37*
G36*
X318209Y112459D02*
X317536Y112371D01*
X316910Y112111D01*
X316372Y111699D01*
X315960Y111161D01*
X315700Y110534D01*
X315612Y109862D01*
X315700Y109190D01*
X315960Y108564D01*
X316085Y108400D01*
Y105961D01*
X315016D01*
Y106354D01*
X313492D01*
Y104331D01*
Y102307D01*
X315016D01*
Y102701D01*
X316085D01*
Y99943D01*
X315504Y99828D01*
X314881Y99411D01*
X314464Y98787D01*
X314317Y98051D01*
X314464Y97315D01*
X314881Y96692D01*
X315504Y96275D01*
X316240Y96128D01*
X317338D01*
X317396Y96089D01*
X318209Y95928D01*
X319021Y96089D01*
X319080Y96128D01*
X320177D01*
X320913Y96275D01*
X321537Y96692D01*
X321954Y97315D01*
X322100Y98051D01*
X321954Y98787D01*
X321537Y99411D01*
X320913Y99828D01*
X320332Y99943D01*
Y108400D01*
X320458Y108564D01*
X320717Y109190D01*
X320806Y109862D01*
X320717Y110534D01*
X320458Y111161D01*
X320045Y111699D01*
X319507Y112111D01*
X318881Y112371D01*
X318209Y112459D01*
D02*
G37*
G36*
X215846D02*
X215174Y112371D01*
X214548Y112111D01*
X214010Y111699D01*
X213597Y111161D01*
X213338Y110534D01*
X213249Y109862D01*
X213338Y109190D01*
X213597Y108564D01*
X213723Y108400D01*
Y105961D01*
X212653D01*
Y106354D01*
X211130D01*
Y104331D01*
Y102307D01*
X212653D01*
Y102701D01*
X213723D01*
Y99943D01*
X213142Y99828D01*
X212518Y99411D01*
X212102Y98787D01*
X211955Y98051D01*
X212102Y97315D01*
X212518Y96692D01*
X213142Y96275D01*
X213878Y96128D01*
X214975D01*
X215034Y96089D01*
X215846Y95928D01*
X216659Y96089D01*
X216718Y96128D01*
X217815D01*
X218551Y96275D01*
X219175Y96692D01*
X219591Y97315D01*
X219738Y98051D01*
X219591Y98787D01*
X219175Y99411D01*
X218551Y99828D01*
X217970Y99943D01*
Y108400D01*
X218096Y108564D01*
X218355Y109190D01*
X218443Y109862D01*
X218355Y110534D01*
X218096Y111161D01*
X217683Y111699D01*
X217145Y112111D01*
X216519Y112371D01*
X215846Y112459D01*
D02*
G37*
G36*
X210130Y106354D02*
X208606D01*
Y104831D01*
X210130D01*
Y106354D01*
D02*
G37*
G36*
X312492D02*
X310968D01*
Y104831D01*
X312492D01*
Y106354D01*
D02*
G37*
G36*
X50681Y106154D02*
X49158D01*
Y104630D01*
X50681D01*
Y106154D01*
D02*
G37*
G36*
X123441Y105799D02*
X121366D01*
Y103331D01*
X123441D01*
Y105799D01*
D02*
G37*
G36*
X120366D02*
X118291D01*
Y103331D01*
X120366D01*
Y105799D01*
D02*
G37*
G36*
X312492Y103831D02*
X310968D01*
Y102307D01*
X312492D01*
Y103831D01*
D02*
G37*
G36*
X210130Y103831D02*
X208606D01*
Y102307D01*
X210130D01*
Y103831D01*
D02*
G37*
G36*
X63681Y99974D02*
X59744D01*
X59008Y99828D01*
X58385Y99411D01*
X58224Y99171D01*
X54744D01*
X54744Y99171D01*
X54316Y99086D01*
X53952Y98843D01*
X53952Y98843D01*
X53572Y98462D01*
X51394D01*
Y98835D01*
X47032D01*
Y95850D01*
X51394D01*
Y96223D01*
X54036D01*
X54464Y96308D01*
X54827Y96551D01*
X55208Y96931D01*
X58224D01*
X58385Y96692D01*
X59008Y96275D01*
X59744Y96128D01*
X63681D01*
X64417Y96275D01*
X65041Y96692D01*
X65201Y96931D01*
X68808D01*
X69746Y95993D01*
Y81173D01*
X62200Y73627D01*
X61957Y73263D01*
X61872Y72835D01*
Y40662D01*
X61601Y40627D01*
X60304Y40089D01*
X59190Y39235D01*
X58336Y38121D01*
X57799Y36825D01*
X57615Y35433D01*
X57799Y34042D01*
X58336Y32745D01*
X59190Y31631D01*
X60304Y30777D01*
X61601Y30240D01*
X62992Y30056D01*
X64384Y30240D01*
X65680Y30777D01*
X66794Y31631D01*
X67649Y32745D01*
X68186Y34042D01*
X68369Y35433D01*
X68186Y36825D01*
X67649Y38121D01*
X66794Y39235D01*
X65680Y40089D01*
X64384Y40627D01*
X64112Y40662D01*
Y72371D01*
X71658Y79917D01*
X71901Y80280D01*
X71986Y80709D01*
Y96457D01*
X71986Y96457D01*
X71901Y96885D01*
X71658Y97249D01*
X70064Y98843D01*
X69700Y99086D01*
X69272Y99171D01*
X65201D01*
X65041Y99411D01*
X64417Y99828D01*
X63681Y99974D01*
D02*
G37*
G36*
Y94974D02*
X59744D01*
X59008Y94828D01*
X58385Y94411D01*
X58224Y94171D01*
X55650D01*
X55221Y94086D01*
X54858Y93843D01*
X54858Y93843D01*
X53768Y92754D01*
X51394D01*
Y93126D01*
X47032D01*
Y92754D01*
X43520D01*
Y93126D01*
X39158D01*
Y90142D01*
X43520D01*
Y90514D01*
X47032D01*
Y90142D01*
X51394D01*
Y90514D01*
X54232D01*
X54661Y90599D01*
X55024Y90842D01*
X56113Y91931D01*
X58224D01*
X58385Y91692D01*
X59008Y91275D01*
X59744Y91128D01*
X63681D01*
X64417Y91275D01*
X65041Y91692D01*
X65457Y92315D01*
X65604Y93051D01*
X65457Y93787D01*
X65041Y94411D01*
X64417Y94828D01*
X63681Y94974D01*
D02*
G37*
G36*
X85925D02*
X81988D01*
X81252Y94828D01*
X80629Y94411D01*
X80468Y94171D01*
X77303D01*
X76875Y94086D01*
X76511Y93843D01*
X74011Y91343D01*
X73769Y90980D01*
X73683Y90551D01*
Y80709D01*
X73769Y80280D01*
X74011Y79917D01*
X81885Y72043D01*
X82249Y71800D01*
X82677Y71715D01*
X97961D01*
X113053Y56623D01*
Y40662D01*
X112782Y40627D01*
X111485Y40089D01*
X110371Y39235D01*
X109517Y38121D01*
X108980Y36825D01*
X108797Y35433D01*
X108980Y34042D01*
X109517Y32745D01*
X110371Y31631D01*
X111485Y30777D01*
X112782Y30240D01*
X114173Y30056D01*
X115565Y30240D01*
X116862Y30777D01*
X117975Y31631D01*
X118830Y32745D01*
X119367Y34042D01*
X119550Y35433D01*
X119367Y36825D01*
X118830Y38121D01*
X117975Y39235D01*
X116862Y40089D01*
X115565Y40627D01*
X115293Y40662D01*
Y57086D01*
X115293Y57087D01*
X115208Y57515D01*
X114965Y57879D01*
X114965Y57879D01*
X99217Y73627D01*
X98854Y73869D01*
X98425Y73955D01*
X83141D01*
X75923Y81173D01*
Y90087D01*
X77767Y91931D01*
X80468D01*
X80629Y91692D01*
X81252Y91275D01*
X81988Y91128D01*
X85925D01*
X86661Y91275D01*
X87285Y91692D01*
X87445Y91931D01*
X89556D01*
X90842Y90645D01*
X91205Y90402D01*
X91634Y90317D01*
X94276D01*
Y89945D01*
X98638D01*
Y92929D01*
X94276D01*
Y92557D01*
X92098D01*
X90812Y93843D01*
X90448Y94086D01*
X90020Y94171D01*
X87445D01*
X87285Y94411D01*
X86661Y94828D01*
X85925Y94974D01*
D02*
G37*
G36*
X344291Y92213D02*
X340748D01*
X339768Y92084D01*
X338854Y91706D01*
X338069Y91104D01*
X337467Y90319D01*
X337089Y89406D01*
X337011Y88817D01*
X327236D01*
X327209Y88843D01*
X326846Y89086D01*
X326417Y89171D01*
X321697D01*
X321537Y89411D01*
X320913Y89828D01*
X320177Y89974D01*
X316240D01*
X315504Y89828D01*
X314881Y89411D01*
X314464Y88787D01*
X314317Y88051D01*
X314464Y87315D01*
X314881Y86692D01*
X315504Y86275D01*
X316240Y86128D01*
X320177D01*
X320913Y86275D01*
X321537Y86692D01*
X321697Y86931D01*
X325652D01*
Y82201D01*
X324591D01*
Y79216D01*
X328953D01*
Y82201D01*
X327892D01*
Y86577D01*
X337448D01*
X337467Y86531D01*
X338069Y85747D01*
X338854Y85144D01*
X339768Y84766D01*
X340748Y84637D01*
X344291D01*
X345272Y84766D01*
X346185Y85144D01*
X346970Y85747D01*
X347572Y86531D01*
X347951Y87445D01*
X348080Y88425D01*
X347951Y89406D01*
X347572Y90319D01*
X346970Y91104D01*
X346185Y91706D01*
X345272Y92084D01*
X344291Y92213D01*
D02*
G37*
G36*
X297933Y94974D02*
X293996D01*
X293260Y94828D01*
X292636Y94411D01*
X292434Y94107D01*
X292327Y94086D01*
X291964Y93843D01*
X291964Y93843D01*
X286938Y88817D01*
X277162D01*
X277084Y89406D01*
X276706Y90319D01*
X276104Y91104D01*
X275319Y91706D01*
X274406Y92084D01*
X273425Y92213D01*
X269882D01*
X268901Y92084D01*
X267988Y91706D01*
X267203Y91104D01*
X266601Y90319D01*
X266223Y89406D01*
X266094Y88425D01*
X266223Y87445D01*
X266601Y86531D01*
X267203Y85747D01*
X267988Y85144D01*
X268901Y84766D01*
X269882Y84637D01*
X273425D01*
X274406Y84766D01*
X275319Y85144D01*
X276104Y85747D01*
X276706Y86531D01*
X276725Y86577D01*
X286282D01*
Y83087D01*
X285221D01*
Y80102D01*
X289583D01*
Y83087D01*
X288522D01*
Y87233D01*
X292843Y91554D01*
X293260Y91275D01*
X293996Y91128D01*
X297933D01*
X298669Y91275D01*
X299293Y91692D01*
X299710Y92315D01*
X299856Y93051D01*
X299710Y93787D01*
X299293Y94411D01*
X298669Y94828D01*
X297933Y94974D01*
D02*
G37*
G36*
X241929Y92213D02*
X238386D01*
X237405Y92084D01*
X236492Y91706D01*
X235707Y91104D01*
X235105Y90319D01*
X234727Y89406D01*
X234649Y88817D01*
X224873D01*
X224847Y88843D01*
X224484Y89086D01*
X224055Y89171D01*
X219335D01*
X219175Y89411D01*
X218551Y89828D01*
X217815Y89974D01*
X213878D01*
X213142Y89828D01*
X212518Y89411D01*
X212102Y88787D01*
X211955Y88051D01*
X212102Y87315D01*
X212518Y86692D01*
X213142Y86275D01*
X213878Y86128D01*
X217815D01*
X218551Y86275D01*
X219175Y86692D01*
X219335Y86931D01*
X223289D01*
Y83087D01*
X222228D01*
Y80102D01*
X226591D01*
Y83087D01*
X225529D01*
Y86577D01*
X235086D01*
X235105Y86531D01*
X235707Y85747D01*
X236492Y85144D01*
X237405Y84766D01*
X238386Y84637D01*
X241929D01*
X242910Y84766D01*
X243823Y85144D01*
X244608Y85747D01*
X245210Y86531D01*
X245588Y87445D01*
X245718Y88425D01*
X245588Y89406D01*
X245210Y90319D01*
X244608Y91104D01*
X243823Y91706D01*
X242910Y92084D01*
X241929Y92213D01*
D02*
G37*
G36*
X195571Y94974D02*
X191634D01*
X190898Y94828D01*
X190274Y94411D01*
X189857Y93787D01*
X189711Y93051D01*
X189741Y92900D01*
X185658Y88817D01*
X174800D01*
X174722Y89406D01*
X174344Y90319D01*
X173742Y91104D01*
X172957Y91706D01*
X172044Y92084D01*
X171063Y92213D01*
X167520D01*
X166539Y92084D01*
X165626Y91706D01*
X164841Y91104D01*
X164239Y90319D01*
X163860Y89406D01*
X163731Y88425D01*
X163860Y87445D01*
X164239Y86531D01*
X164841Y85747D01*
X165626Y85144D01*
X166539Y84766D01*
X167520Y84637D01*
X171063D01*
X172044Y84766D01*
X172957Y85144D01*
X173742Y85747D01*
X174344Y86531D01*
X174363Y86577D01*
X183920D01*
Y83087D01*
X182858D01*
Y80102D01*
X187221D01*
Y83087D01*
X186159D01*
Y86584D01*
X186551Y86662D01*
X186914Y86905D01*
X188984Y88974D01*
X189444Y88728D01*
X189409Y88551D01*
X193102D01*
Y90375D01*
X191634D01*
X190957Y90241D01*
X190710Y90702D01*
X191220Y91211D01*
X191634Y91128D01*
X195571D01*
X196307Y91275D01*
X196931Y91692D01*
X197347Y92315D01*
X197494Y93051D01*
X197347Y93787D01*
X196931Y94411D01*
X196307Y94828D01*
X195571Y94974D01*
D02*
G37*
G36*
X63681Y90375D02*
X62213D01*
Y88551D01*
X65906D01*
X65828Y88941D01*
X65324Y89695D01*
X64570Y90198D01*
X63681Y90375D01*
D02*
G37*
G36*
X61213D02*
X59744D01*
X58855Y90198D01*
X58101Y89695D01*
X57597Y88941D01*
X57519Y88551D01*
X61213D01*
Y90375D01*
D02*
G37*
G36*
X297933Y90375D02*
X296465D01*
Y88551D01*
X300158D01*
X300080Y88941D01*
X299576Y89695D01*
X298822Y90198D01*
X297933Y90375D01*
D02*
G37*
G36*
X195571D02*
X194102D01*
Y88551D01*
X197796D01*
X197718Y88941D01*
X197214Y89695D01*
X196460Y90198D01*
X195571Y90375D01*
D02*
G37*
G36*
X295465D02*
X293996D01*
X293107Y90198D01*
X292353Y89695D01*
X291849Y88941D01*
X291771Y88551D01*
X295465D01*
Y90375D01*
D02*
G37*
G36*
X65906Y87551D02*
X62213D01*
Y85727D01*
X63681D01*
X64570Y85904D01*
X65324Y86408D01*
X65828Y87162D01*
X65906Y87551D01*
D02*
G37*
G36*
X61213D02*
X57519D01*
X57597Y87162D01*
X58101Y86408D01*
X58855Y85904D01*
X59744Y85727D01*
X61213D01*
Y87551D01*
D02*
G37*
G36*
X300158Y87551D02*
X296465D01*
Y85727D01*
X297933D01*
X298822Y85904D01*
X299576Y86408D01*
X300080Y87162D01*
X300158Y87551D01*
D02*
G37*
G36*
X295465D02*
X291771D01*
X291849Y87162D01*
X292353Y86408D01*
X293107Y85904D01*
X293996Y85727D01*
X295465D01*
Y87551D01*
D02*
G37*
G36*
X197796D02*
X194102D01*
Y85727D01*
X195571D01*
X196460Y85904D01*
X197214Y86408D01*
X197718Y87162D01*
X197796Y87551D01*
D02*
G37*
G36*
X193102D02*
X189409D01*
X189487Y87162D01*
X189990Y86408D01*
X190744Y85904D01*
X191634Y85727D01*
X193102D01*
Y87551D01*
D02*
G37*
G36*
X85925Y89974D02*
X81988D01*
X81252Y89828D01*
X80629Y89411D01*
X80212Y88787D01*
X80065Y88051D01*
X80212Y87315D01*
X80629Y86692D01*
X81252Y86275D01*
X81988Y86128D01*
X85925D01*
X86661Y86275D01*
X87285Y86692D01*
X87445Y86931D01*
X88650D01*
X90645Y84936D01*
X91008Y84694D01*
X91437Y84608D01*
X91437Y84608D01*
X94276D01*
Y84236D01*
X98638D01*
Y84608D01*
X102150D01*
Y84236D01*
X106512D01*
Y87221D01*
X102150D01*
Y86848D01*
X98638D01*
Y87221D01*
X94276D01*
Y86848D01*
X91901D01*
X89906Y88843D01*
X89543Y89086D01*
X89114Y89171D01*
X87445D01*
X87285Y89411D01*
X86661Y89828D01*
X85925Y89974D01*
D02*
G37*
G36*
Y85375D02*
X84457D01*
Y83551D01*
X88150D01*
X88073Y83941D01*
X87569Y84695D01*
X86815Y85198D01*
X85925Y85375D01*
D02*
G37*
G36*
X83457D02*
X81988D01*
X81099Y85198D01*
X80345Y84695D01*
X79841Y83941D01*
X79764Y83551D01*
X83457D01*
Y85375D01*
D02*
G37*
G36*
X320177Y85375D02*
X318709D01*
Y83551D01*
X322402D01*
X322324Y83941D01*
X321821Y84695D01*
X321067Y85198D01*
X320177Y85375D01*
D02*
G37*
G36*
X217815D02*
X216347D01*
Y83551D01*
X220040D01*
X219962Y83941D01*
X219458Y84695D01*
X218704Y85198D01*
X217815Y85375D01*
D02*
G37*
G36*
X317709D02*
X316240D01*
X315351Y85198D01*
X314597Y84695D01*
X314093Y83941D01*
X314015Y83551D01*
X317709D01*
Y85375D01*
D02*
G37*
G36*
X215347D02*
X213878D01*
X212988Y85198D01*
X212234Y84695D01*
X211731Y83941D01*
X211653Y83551D01*
X215347D01*
Y85375D01*
D02*
G37*
G36*
X88150Y82551D02*
X84457D01*
Y80727D01*
X85925D01*
X86815Y80904D01*
X87569Y81408D01*
X88073Y82162D01*
X88150Y82551D01*
D02*
G37*
G36*
X83457D02*
X79764D01*
X79841Y82162D01*
X80345Y81408D01*
X81099Y80904D01*
X81988Y80727D01*
X83457D01*
Y82551D01*
D02*
G37*
G36*
X322402Y82551D02*
X318709D01*
Y80727D01*
X320177D01*
X321067Y80904D01*
X321821Y81408D01*
X322324Y82162D01*
X322402Y82551D01*
D02*
G37*
G36*
X317709D02*
X314015D01*
X314093Y82162D01*
X314597Y81408D01*
X315351Y80904D01*
X316240Y80727D01*
X317709D01*
Y82551D01*
D02*
G37*
G36*
X220040D02*
X216347D01*
Y80727D01*
X217815D01*
X218704Y80904D01*
X219458Y81408D01*
X219962Y82162D01*
X220040Y82551D01*
D02*
G37*
G36*
X215347D02*
X211653D01*
X211731Y82162D01*
X212234Y81408D01*
X212988Y80904D01*
X213878Y80727D01*
X215347D01*
Y82551D01*
D02*
G37*
G36*
X302850Y78795D02*
X301327D01*
Y77272D01*
X302850D01*
Y78795D01*
D02*
G37*
G36*
X200488D02*
X198965D01*
Y77272D01*
X200488D01*
Y78795D01*
D02*
G37*
G36*
X50681Y78594D02*
X49158D01*
Y77071D01*
X50681D01*
Y78594D01*
D02*
G37*
G36*
X58043Y77846D02*
X56012D01*
Y75815D01*
X56184Y75838D01*
X56810Y76097D01*
X57348Y76510D01*
X57761Y77048D01*
X58020Y77674D01*
X58043Y77846D01*
D02*
G37*
G36*
X45650Y85648D02*
X44978Y85560D01*
X44351Y85300D01*
X43813Y84888D01*
X43400Y84350D01*
X43141Y83723D01*
X43053Y83051D01*
X43141Y82379D01*
X43400Y81753D01*
X43813Y81215D01*
X44351Y80802D01*
X44978Y80543D01*
X45650Y80454D01*
X46322Y80543D01*
X46948Y80802D01*
X47112Y80928D01*
X49158D01*
Y79594D01*
X51181D01*
Y79094D01*
X51681D01*
Y77071D01*
X53205D01*
X53527Y76704D01*
X53675Y76510D01*
X54213Y76097D01*
X54840Y75838D01*
X55012Y75815D01*
Y78347D01*
X55512D01*
Y78847D01*
X58043D01*
X58020Y79019D01*
X57761Y79645D01*
X57348Y80183D01*
X57029Y80428D01*
X57199Y80928D01*
X61713D01*
X62525Y81089D01*
X62584Y81128D01*
X63681D01*
X64417Y81275D01*
X65041Y81692D01*
X65457Y82315D01*
X65604Y83051D01*
X65457Y83787D01*
X65041Y84411D01*
X64417Y84828D01*
X63681Y84974D01*
X62584D01*
X62525Y85013D01*
X61713Y85175D01*
X47112D01*
X46948Y85300D01*
X46322Y85560D01*
X45650Y85648D01*
D02*
G37*
G36*
X302850Y76272D02*
X301327D01*
Y74748D01*
X302850D01*
Y76272D01*
D02*
G37*
G36*
X295965Y85175D02*
X295152Y85013D01*
X295093Y84974D01*
X293996D01*
X293260Y84828D01*
X292636Y84411D01*
X292220Y83787D01*
X292073Y83051D01*
X292220Y82315D01*
X292636Y81692D01*
X293260Y81275D01*
X293841Y81159D01*
Y72702D01*
X293716Y72539D01*
X293456Y71912D01*
X293368Y71240D01*
X293456Y70568D01*
X293716Y69942D01*
X294128Y69404D01*
X294666Y68991D01*
X295292Y68732D01*
X295965Y68643D01*
X296637Y68732D01*
X297263Y68991D01*
X297801Y69404D01*
X298214Y69942D01*
X298473Y70568D01*
X298562Y71240D01*
X298473Y71912D01*
X298214Y72539D01*
X298088Y72702D01*
Y75142D01*
X298803D01*
Y74748D01*
X300327D01*
Y76772D01*
Y78795D01*
X298803D01*
Y78402D01*
X298088D01*
Y81159D01*
X298669Y81275D01*
X299293Y81692D01*
X299710Y82315D01*
X299856Y83051D01*
X299710Y83787D01*
X299293Y84411D01*
X298669Y84828D01*
X297933Y84974D01*
X296836D01*
X296777Y85013D01*
X295965Y85175D01*
D02*
G37*
G36*
X200488Y76272D02*
X198965D01*
Y74748D01*
X200488D01*
Y76272D01*
D02*
G37*
G36*
X193602Y85175D02*
X192790Y85013D01*
X192731Y84974D01*
X191634D01*
X190898Y84828D01*
X190274Y84411D01*
X189857Y83787D01*
X189711Y83051D01*
X189857Y82315D01*
X190274Y81692D01*
X190898Y81275D01*
X191479Y81159D01*
Y72702D01*
X191353Y72539D01*
X191094Y71912D01*
X191005Y71240D01*
X191094Y70568D01*
X191353Y69942D01*
X191766Y69404D01*
X192304Y68991D01*
X192930Y68732D01*
X193602Y68643D01*
X194274Y68732D01*
X194901Y68991D01*
X195439Y69404D01*
X195852Y69942D01*
X196111Y70568D01*
X196199Y71240D01*
X196111Y71912D01*
X195852Y72539D01*
X195726Y72702D01*
Y75142D01*
X196441D01*
Y74748D01*
X197965D01*
Y76772D01*
Y78795D01*
X196441D01*
Y78402D01*
X195726D01*
Y81159D01*
X196307Y81275D01*
X196931Y81692D01*
X197347Y82315D01*
X197494Y83051D01*
X197347Y83787D01*
X196931Y84411D01*
X196307Y84828D01*
X195571Y84974D01*
X194474D01*
X194415Y85013D01*
X193602Y85175D01*
D02*
G37*
G36*
X104673Y51141D02*
Y45933D01*
X109881D01*
X109750Y46927D01*
X109174Y48320D01*
X108256Y49516D01*
X107060Y50433D01*
X105668Y51010D01*
X104673Y51141D01*
D02*
G37*
G36*
X53492D02*
Y45933D01*
X58700D01*
X58569Y46927D01*
X57992Y48320D01*
X57075Y49516D01*
X55879Y50433D01*
X54487Y51010D01*
X53492Y51141D01*
D02*
G37*
G36*
X103673D02*
X102679Y51010D01*
X101286Y50433D01*
X100091Y49516D01*
X99173Y48320D01*
X98596Y46927D01*
X98465Y45933D01*
X103673D01*
Y51141D01*
D02*
G37*
G36*
X52492D02*
X51498Y51010D01*
X50105Y50433D01*
X48909Y49516D01*
X47992Y48320D01*
X47415Y46927D01*
X47284Y45933D01*
X52492D01*
Y51141D01*
D02*
G37*
G36*
X321209Y51141D02*
Y45933D01*
X326417D01*
X326286Y46927D01*
X325709Y48320D01*
X324791Y49516D01*
X323596Y50433D01*
X322203Y51010D01*
X321209Y51141D01*
D02*
G37*
G36*
X218847D02*
Y45933D01*
X224054D01*
X223923Y46927D01*
X223347Y48320D01*
X222429Y49516D01*
X221233Y50433D01*
X219841Y51010D01*
X218847Y51141D01*
D02*
G37*
G36*
X124673Y51141D02*
Y45933D01*
X129881D01*
X129750Y46927D01*
X129174Y48320D01*
X128256Y49516D01*
X127060Y50433D01*
X125668Y51010D01*
X124673Y51141D01*
D02*
G37*
G36*
X123673D02*
X122679Y51010D01*
X121286Y50433D01*
X120090Y49516D01*
X119173Y48320D01*
X118596Y46927D01*
X118465Y45933D01*
X123673D01*
Y51141D01*
D02*
G37*
G36*
X73492D02*
Y45933D01*
X78700D01*
X78569Y46927D01*
X77992Y48320D01*
X77075Y49516D01*
X75879Y50433D01*
X74487Y51010D01*
X73492Y51141D01*
D02*
G37*
G36*
X72492D02*
X71498Y51010D01*
X70105Y50433D01*
X68909Y49516D01*
X67992Y48320D01*
X67415Y46927D01*
X67284Y45933D01*
X72492D01*
Y51141D01*
D02*
G37*
G36*
X320209Y51141D02*
X319214Y51010D01*
X317822Y50433D01*
X316626Y49516D01*
X315708Y48320D01*
X315132Y46927D01*
X315001Y45933D01*
X320209D01*
Y51141D01*
D02*
G37*
G36*
X217846D02*
X216852Y51010D01*
X215460Y50433D01*
X214264Y49516D01*
X213346Y48320D01*
X212769Y46927D01*
X212638Y45933D01*
X217846D01*
Y51141D01*
D02*
G37*
G36*
X341209D02*
Y45933D01*
X346417D01*
X346286Y46927D01*
X345709Y48320D01*
X344791Y49516D01*
X343596Y50433D01*
X342203Y51010D01*
X341209Y51141D01*
D02*
G37*
G36*
X340209D02*
X339214Y51010D01*
X337822Y50433D01*
X336626Y49516D01*
X335708Y48320D01*
X335132Y46927D01*
X335001Y45933D01*
X340209D01*
Y51141D01*
D02*
G37*
G36*
X290028D02*
Y45933D01*
X295236D01*
X295105Y46927D01*
X294528Y48320D01*
X293610Y49516D01*
X292414Y50433D01*
X291022Y51010D01*
X290028Y51141D01*
D02*
G37*
G36*
X289028D02*
X288033Y51010D01*
X286641Y50433D01*
X285445Y49516D01*
X284527Y48320D01*
X283950Y46927D01*
X283820Y45933D01*
X289028D01*
Y51141D01*
D02*
G37*
G36*
X238846D02*
Y45933D01*
X244054D01*
X243923Y46927D01*
X243347Y48320D01*
X242429Y49516D01*
X241233Y50433D01*
X239841Y51010D01*
X238846Y51141D01*
D02*
G37*
G36*
X237846D02*
X236852Y51010D01*
X235460Y50433D01*
X234264Y49516D01*
X233346Y48320D01*
X232769Y46927D01*
X232639Y45933D01*
X237846D01*
Y51141D01*
D02*
G37*
G36*
X187665D02*
Y45933D01*
X192873D01*
X192742Y46927D01*
X192166Y48320D01*
X191248Y49516D01*
X190052Y50433D01*
X188660Y51010D01*
X187665Y51141D01*
D02*
G37*
G36*
X186665D02*
X185671Y51010D01*
X184279Y50433D01*
X183083Y49516D01*
X182165Y48320D01*
X181588Y46927D01*
X181457Y45933D01*
X186665D01*
Y51141D01*
D02*
G37*
G36*
X270028D02*
Y45933D01*
X275236D01*
X275105Y46927D01*
X274528Y48320D01*
X273610Y49516D01*
X272414Y50433D01*
X271022Y51010D01*
X270028Y51141D01*
D02*
G37*
G36*
X167665D02*
Y45933D01*
X172873D01*
X172742Y46927D01*
X172166Y48320D01*
X171248Y49516D01*
X170052Y50433D01*
X168660Y51010D01*
X167665Y51141D01*
D02*
G37*
G36*
X269028D02*
X268033Y51010D01*
X266641Y50433D01*
X265445Y49516D01*
X264527Y48320D01*
X263950Y46927D01*
X263820Y45933D01*
X269028D01*
Y51141D01*
D02*
G37*
G36*
X166665D02*
X165671Y51010D01*
X164278Y50433D01*
X163083Y49516D01*
X162165Y48320D01*
X161588Y46927D01*
X161457Y45933D01*
X166665D01*
Y51141D01*
D02*
G37*
G36*
X109881Y44933D02*
X104673D01*
Y39725D01*
X105668Y39856D01*
X107060Y40433D01*
X108256Y41350D01*
X109174Y42546D01*
X109750Y43939D01*
X109881Y44933D01*
D02*
G37*
G36*
X58700D02*
X53492D01*
Y39725D01*
X54487Y39856D01*
X55879Y40433D01*
X57075Y41350D01*
X57992Y42546D01*
X58569Y43939D01*
X58700Y44933D01*
D02*
G37*
G36*
X129881Y44933D02*
X124673D01*
Y39725D01*
X125668Y39856D01*
X127060Y40433D01*
X128256Y41350D01*
X129174Y42546D01*
X129750Y43939D01*
X129881Y44933D01*
D02*
G37*
G36*
X123673D02*
X118465D01*
X118596Y43939D01*
X119173Y42546D01*
X120090Y41350D01*
X121286Y40433D01*
X122679Y39856D01*
X123673Y39725D01*
Y44933D01*
D02*
G37*
G36*
X78700D02*
X73492D01*
Y39725D01*
X74487Y39856D01*
X75879Y40433D01*
X77075Y41350D01*
X77992Y42546D01*
X78569Y43939D01*
X78700Y44933D01*
D02*
G37*
G36*
X72492D02*
X67284D01*
X67415Y43939D01*
X67992Y42546D01*
X68909Y41350D01*
X70105Y40433D01*
X71498Y39856D01*
X72492Y39725D01*
Y44933D01*
D02*
G37*
G36*
X103673Y44933D02*
X98465D01*
X98596Y43939D01*
X99173Y42546D01*
X100091Y41350D01*
X101286Y40433D01*
X102679Y39856D01*
X103673Y39725D01*
Y44933D01*
D02*
G37*
G36*
X52492D02*
X47284D01*
X47415Y43939D01*
X47992Y42546D01*
X48909Y41350D01*
X50105Y40433D01*
X51498Y39856D01*
X52492Y39725D01*
Y44933D01*
D02*
G37*
G36*
X275236Y44933D02*
X270028D01*
Y39725D01*
X271022Y39856D01*
X272414Y40433D01*
X273610Y41350D01*
X274528Y42546D01*
X275105Y43939D01*
X275236Y44933D01*
D02*
G37*
G36*
X172873D02*
X167665D01*
Y39725D01*
X168660Y39856D01*
X170052Y40433D01*
X171248Y41350D01*
X172166Y42546D01*
X172742Y43939D01*
X172873Y44933D01*
D02*
G37*
G36*
X320209Y44933D02*
X315001D01*
X315132Y43939D01*
X315708Y42546D01*
X316626Y41350D01*
X317822Y40433D01*
X319214Y39856D01*
X320209Y39725D01*
Y44933D01*
D02*
G37*
G36*
X217846D02*
X212638D01*
X212769Y43939D01*
X213346Y42546D01*
X214264Y41350D01*
X215460Y40433D01*
X216852Y39856D01*
X217846Y39725D01*
Y44933D01*
D02*
G37*
G36*
X346417Y44933D02*
X341209D01*
Y39725D01*
X342203Y39856D01*
X343596Y40433D01*
X344791Y41350D01*
X345709Y42546D01*
X346286Y43939D01*
X346417Y44933D01*
D02*
G37*
G36*
X340209D02*
X335001D01*
X335132Y43939D01*
X335708Y42546D01*
X336626Y41350D01*
X337822Y40433D01*
X339214Y39856D01*
X340209Y39725D01*
Y44933D01*
D02*
G37*
G36*
X295236D02*
X290028D01*
Y39725D01*
X291022Y39856D01*
X292414Y40433D01*
X293610Y41350D01*
X294528Y42546D01*
X295105Y43939D01*
X295236Y44933D01*
D02*
G37*
G36*
X289028D02*
X283820D01*
X283950Y43939D01*
X284527Y42546D01*
X285445Y41350D01*
X286641Y40433D01*
X288033Y39856D01*
X289028Y39725D01*
Y44933D01*
D02*
G37*
G36*
X244054D02*
X238846D01*
Y39725D01*
X239841Y39856D01*
X241233Y40433D01*
X242429Y41350D01*
X243347Y42546D01*
X243923Y43939D01*
X244054Y44933D01*
D02*
G37*
G36*
X237846D02*
X232639D01*
X232769Y43939D01*
X233346Y42546D01*
X234264Y41350D01*
X235460Y40433D01*
X236852Y39856D01*
X237846Y39725D01*
Y44933D01*
D02*
G37*
G36*
X192873D02*
X187665D01*
Y39725D01*
X188660Y39856D01*
X190052Y40433D01*
X191248Y41350D01*
X192166Y42546D01*
X192742Y43939D01*
X192873Y44933D01*
D02*
G37*
G36*
X186665D02*
X181457D01*
X181588Y43939D01*
X182165Y42546D01*
X183083Y41350D01*
X184279Y40433D01*
X185671Y39856D01*
X186665Y39725D01*
Y44933D01*
D02*
G37*
G36*
X326417Y44933D02*
X321209D01*
Y39725D01*
X322203Y39856D01*
X323596Y40433D01*
X324791Y41350D01*
X325709Y42546D01*
X326286Y43939D01*
X326417Y44933D01*
D02*
G37*
G36*
X224054D02*
X218847D01*
Y39725D01*
X219841Y39856D01*
X221233Y40433D01*
X222429Y41350D01*
X223347Y42546D01*
X223923Y43939D01*
X224054Y44933D01*
D02*
G37*
G36*
X269028Y44933D02*
X263820D01*
X263950Y43939D01*
X264527Y42546D01*
X265445Y41350D01*
X266641Y40433D01*
X268033Y39856D01*
X269028Y39725D01*
Y44933D01*
D02*
G37*
G36*
X166665D02*
X161457D01*
X161588Y43939D01*
X162165Y42546D01*
X163083Y41350D01*
X164278Y40433D01*
X165671Y39856D01*
X166665Y39725D01*
Y44933D01*
D02*
G37*
G36*
X328953Y76492D02*
X324591D01*
Y73508D01*
X325652D01*
Y68898D01*
X325737Y68469D01*
X325980Y68106D01*
X329589Y64497D01*
Y40662D01*
X329317Y40627D01*
X328020Y40089D01*
X326907Y39235D01*
X326052Y38121D01*
X325515Y36825D01*
X325332Y35433D01*
X325515Y34042D01*
X326052Y32745D01*
X326907Y31631D01*
X328020Y30777D01*
X329317Y30240D01*
X330709Y30056D01*
X332100Y30240D01*
X333397Y30777D01*
X334511Y31631D01*
X335365Y32745D01*
X335902Y34042D01*
X336085Y35433D01*
X335902Y36825D01*
X335365Y38121D01*
X334511Y39235D01*
X333397Y40089D01*
X332100Y40627D01*
X331829Y40662D01*
Y64961D01*
X331743Y65389D01*
X331501Y65753D01*
X327892Y69362D01*
Y73508D01*
X328953D01*
Y76492D01*
D02*
G37*
G36*
X289583Y77378D02*
X285221D01*
Y74394D01*
X286282D01*
Y73299D01*
X278736Y65753D01*
X278493Y65389D01*
X278408Y64961D01*
Y40662D01*
X278136Y40627D01*
X276839Y40089D01*
X275726Y39235D01*
X274871Y38121D01*
X274334Y36825D01*
X274151Y35433D01*
X274334Y34042D01*
X274871Y32745D01*
X275726Y31631D01*
X276839Y30777D01*
X278136Y30240D01*
X279528Y30056D01*
X280919Y30240D01*
X282216Y30777D01*
X283330Y31631D01*
X284184Y32745D01*
X284721Y34042D01*
X284904Y35433D01*
X284721Y36825D01*
X284184Y38121D01*
X283330Y39235D01*
X282216Y40089D01*
X280919Y40627D01*
X280647Y40662D01*
Y64497D01*
X288193Y72043D01*
X288193Y72043D01*
X288436Y72406D01*
X288522Y72835D01*
X288522Y72835D01*
Y74394D01*
X289583D01*
Y77378D01*
D02*
G37*
G36*
X226591D02*
X222228D01*
Y74394D01*
X223289D01*
Y70866D01*
X223375Y70438D01*
X223618Y70074D01*
X227226Y66465D01*
Y40662D01*
X226955Y40627D01*
X225658Y40089D01*
X224545Y39235D01*
X223690Y38121D01*
X223153Y36825D01*
X222970Y35433D01*
X223153Y34042D01*
X223690Y32745D01*
X224545Y31631D01*
X225658Y30777D01*
X226955Y30240D01*
X228346Y30056D01*
X229738Y30240D01*
X231035Y30777D01*
X232148Y31631D01*
X233003Y32745D01*
X233540Y34042D01*
X233723Y35433D01*
X233540Y36825D01*
X233003Y38121D01*
X232148Y39235D01*
X231035Y40089D01*
X229738Y40627D01*
X229466Y40662D01*
Y66929D01*
X229381Y67358D01*
X229138Y67721D01*
X225529Y71330D01*
Y74394D01*
X226591D01*
Y77378D01*
D02*
G37*
G36*
X187221D02*
X182858D01*
Y74394D01*
X183919D01*
Y71330D01*
X176374Y63784D01*
X176131Y63421D01*
X176045Y62992D01*
Y40662D01*
X175774Y40627D01*
X174477Y40089D01*
X173363Y39235D01*
X172509Y38121D01*
X171972Y36825D01*
X171789Y35433D01*
X171972Y34042D01*
X172509Y32745D01*
X173363Y31631D01*
X174477Y30777D01*
X175774Y30240D01*
X177165Y30056D01*
X178557Y30240D01*
X179854Y30777D01*
X180967Y31631D01*
X181822Y32745D01*
X182359Y34042D01*
X182542Y35433D01*
X182359Y36825D01*
X181822Y38121D01*
X180967Y39235D01*
X179854Y40089D01*
X178557Y40627D01*
X178285Y40662D01*
Y62528D01*
X185831Y70074D01*
X186074Y70438D01*
X186159Y70866D01*
X186159Y70866D01*
Y74394D01*
X187221D01*
Y77378D01*
D02*
G37*
G36*
X104673Y31141D02*
Y25933D01*
X109881D01*
X109750Y26927D01*
X109174Y28320D01*
X108256Y29516D01*
X107060Y30433D01*
X105668Y31010D01*
X104673Y31141D01*
D02*
G37*
G36*
X53492D02*
Y25933D01*
X58700D01*
X58569Y26927D01*
X57992Y28320D01*
X57075Y29516D01*
X55879Y30433D01*
X54487Y31010D01*
X53492Y31141D01*
D02*
G37*
G36*
X103673D02*
X102679Y31010D01*
X101286Y30433D01*
X100091Y29516D01*
X99173Y28320D01*
X98596Y26927D01*
X98465Y25933D01*
X103673D01*
Y31141D01*
D02*
G37*
G36*
X52492D02*
X51498Y31010D01*
X50105Y30433D01*
X48909Y29516D01*
X47992Y28320D01*
X47415Y26927D01*
X47284Y25933D01*
X52492D01*
Y31141D01*
D02*
G37*
G36*
X124673D02*
Y25933D01*
X129881D01*
X129750Y26927D01*
X129174Y28320D01*
X128256Y29516D01*
X127060Y30433D01*
X125668Y31010D01*
X124673Y31141D01*
D02*
G37*
G36*
X73492D02*
Y25933D01*
X78700D01*
X78569Y26927D01*
X77992Y28320D01*
X77075Y29516D01*
X75879Y30433D01*
X74487Y31010D01*
X73492Y31141D01*
D02*
G37*
G36*
X123673D02*
X122679Y31010D01*
X121286Y30433D01*
X120090Y29516D01*
X119173Y28320D01*
X118596Y26927D01*
X118465Y25933D01*
X123673D01*
Y31141D01*
D02*
G37*
G36*
X72492D02*
X71498Y31010D01*
X70105Y30433D01*
X68909Y29516D01*
X67992Y28320D01*
X67415Y26927D01*
X67284Y25933D01*
X72492D01*
Y31141D01*
D02*
G37*
G36*
X290028Y31141D02*
Y25933D01*
X295236D01*
X295105Y26927D01*
X294528Y28320D01*
X293610Y29516D01*
X292414Y30433D01*
X291022Y31010D01*
X290028Y31141D01*
D02*
G37*
G36*
X187665D02*
Y25933D01*
X192873D01*
X192742Y26927D01*
X192166Y28320D01*
X191248Y29516D01*
X190052Y30433D01*
X188660Y31010D01*
X187665Y31141D01*
D02*
G37*
G36*
X289028D02*
X288033Y31010D01*
X286641Y30433D01*
X285445Y29516D01*
X284527Y28320D01*
X283950Y26927D01*
X283820Y25933D01*
X289028D01*
Y31141D01*
D02*
G37*
G36*
X186665D02*
X185671Y31010D01*
X184279Y30433D01*
X183083Y29516D01*
X182165Y28320D01*
X181588Y26927D01*
X181457Y25933D01*
X186665D01*
Y31141D01*
D02*
G37*
G36*
X270028D02*
Y25933D01*
X275236D01*
X275105Y26927D01*
X274528Y28320D01*
X273610Y29516D01*
X272414Y30433D01*
X271022Y31010D01*
X270028Y31141D01*
D02*
G37*
G36*
X167665D02*
Y25933D01*
X172873D01*
X172742Y26927D01*
X172166Y28320D01*
X171248Y29516D01*
X170052Y30433D01*
X168660Y31010D01*
X167665Y31141D01*
D02*
G37*
G36*
X321209Y31141D02*
Y25933D01*
X326417D01*
X326286Y26927D01*
X325709Y28320D01*
X324791Y29516D01*
X323596Y30433D01*
X322203Y31010D01*
X321209Y31141D01*
D02*
G37*
G36*
X218847D02*
Y25933D01*
X224054D01*
X223923Y26927D01*
X223347Y28320D01*
X222429Y29516D01*
X221233Y30433D01*
X219841Y31010D01*
X218847Y31141D01*
D02*
G37*
G36*
X320209Y31141D02*
X319214Y31010D01*
X317822Y30433D01*
X316626Y29516D01*
X315708Y28320D01*
X315132Y26927D01*
X315001Y25933D01*
X320209D01*
Y31141D01*
D02*
G37*
G36*
X217846D02*
X216852Y31010D01*
X215460Y30433D01*
X214264Y29516D01*
X213346Y28320D01*
X212769Y26927D01*
X212638Y25933D01*
X217846D01*
Y31141D01*
D02*
G37*
G36*
X269028Y31141D02*
X268033Y31010D01*
X266641Y30433D01*
X265445Y29516D01*
X264527Y28320D01*
X263950Y26927D01*
X263820Y25933D01*
X269028D01*
Y31141D01*
D02*
G37*
G36*
X166665D02*
X165671Y31010D01*
X164278Y30433D01*
X163083Y29516D01*
X162165Y28320D01*
X161588Y26927D01*
X161457Y25933D01*
X166665D01*
Y31141D01*
D02*
G37*
G36*
X341209Y31141D02*
Y25933D01*
X346417D01*
X346286Y26927D01*
X345709Y28320D01*
X344791Y29516D01*
X343596Y30433D01*
X342203Y31010D01*
X341209Y31141D01*
D02*
G37*
G36*
X238846D02*
Y25933D01*
X244054D01*
X243923Y26927D01*
X243347Y28320D01*
X242429Y29516D01*
X241233Y30433D01*
X239841Y31010D01*
X238846Y31141D01*
D02*
G37*
G36*
X340209D02*
X339214Y31010D01*
X337822Y30433D01*
X336626Y29516D01*
X335708Y28320D01*
X335132Y26927D01*
X335001Y25933D01*
X340209D01*
Y31141D01*
D02*
G37*
G36*
X237846D02*
X236852Y31010D01*
X235460Y30433D01*
X234264Y29516D01*
X233346Y28320D01*
X232769Y26927D01*
X232639Y25933D01*
X237846D01*
Y31141D01*
D02*
G37*
G36*
X72492Y24933D02*
X67284D01*
X67415Y23939D01*
X67992Y22546D01*
X68909Y21350D01*
X70105Y20433D01*
X71498Y19856D01*
X72492Y19725D01*
Y24933D01*
D02*
G37*
G36*
X123673D02*
X118465D01*
X118596Y23939D01*
X119173Y22546D01*
X120090Y21350D01*
X121286Y20433D01*
X122679Y19856D01*
X123673Y19725D01*
Y24933D01*
D02*
G37*
G36*
X109881Y24933D02*
X104673D01*
Y19725D01*
X105668Y19856D01*
X107060Y20433D01*
X108256Y21350D01*
X109174Y22546D01*
X109750Y23939D01*
X109881Y24933D01*
D02*
G37*
G36*
X58700D02*
X53492D01*
Y19725D01*
X54487Y19856D01*
X55879Y20433D01*
X57075Y21350D01*
X57992Y22546D01*
X58569Y23939D01*
X58700Y24933D01*
D02*
G37*
G36*
X103673D02*
X98465D01*
X98596Y23939D01*
X99173Y22546D01*
X100091Y21350D01*
X101286Y20433D01*
X102679Y19856D01*
X103673Y19725D01*
Y24933D01*
D02*
G37*
G36*
X52492D02*
X47284D01*
X47415Y23939D01*
X47992Y22546D01*
X48909Y21350D01*
X50105Y20433D01*
X51498Y19856D01*
X52492Y19725D01*
Y24933D01*
D02*
G37*
G36*
X129881Y24933D02*
X124673D01*
Y19725D01*
X125668Y19856D01*
X127060Y20433D01*
X128256Y21350D01*
X129174Y22546D01*
X129750Y23939D01*
X129881Y24933D01*
D02*
G37*
G36*
X78700D02*
X73492D01*
Y19725D01*
X74487Y19856D01*
X75879Y20433D01*
X77075Y21350D01*
X77992Y22546D01*
X78569Y23939D01*
X78700Y24933D01*
D02*
G37*
G36*
X275236Y24933D02*
X270028D01*
Y19725D01*
X271022Y19856D01*
X272414Y20433D01*
X273610Y21350D01*
X274528Y22546D01*
X275105Y23939D01*
X275236Y24933D01*
D02*
G37*
G36*
X172873D02*
X167665D01*
Y19725D01*
X168660Y19856D01*
X170052Y20433D01*
X171248Y21350D01*
X172166Y22546D01*
X172742Y23939D01*
X172873Y24933D01*
D02*
G37*
G36*
X320209D02*
X315001D01*
X315132Y23939D01*
X315708Y22546D01*
X316626Y21350D01*
X317822Y20433D01*
X319214Y19856D01*
X320209Y19725D01*
Y24933D01*
D02*
G37*
G36*
X217846D02*
X212638D01*
X212769Y23939D01*
X213346Y22546D01*
X214264Y21350D01*
X215460Y20433D01*
X216852Y19856D01*
X217846Y19725D01*
Y24933D01*
D02*
G37*
G36*
X295236Y24933D02*
X290028D01*
Y19725D01*
X291022Y19856D01*
X292414Y20433D01*
X293610Y21350D01*
X294528Y22546D01*
X295105Y23939D01*
X295236Y24933D01*
D02*
G37*
G36*
X192873D02*
X187665D01*
Y19725D01*
X188660Y19856D01*
X190052Y20433D01*
X191248Y21350D01*
X192166Y22546D01*
X192742Y23939D01*
X192873Y24933D01*
D02*
G37*
G36*
X340209Y24933D02*
X335001D01*
X335132Y23939D01*
X335708Y22546D01*
X336626Y21350D01*
X337822Y20433D01*
X339214Y19856D01*
X340209Y19725D01*
Y24933D01*
D02*
G37*
G36*
X237846D02*
X232639D01*
X232769Y23939D01*
X233346Y22546D01*
X234264Y21350D01*
X235460Y20433D01*
X236852Y19856D01*
X237846Y19725D01*
Y24933D01*
D02*
G37*
G36*
X346417D02*
X341209D01*
Y19725D01*
X342203Y19856D01*
X343596Y20433D01*
X344791Y21350D01*
X345709Y22546D01*
X346286Y23939D01*
X346417Y24933D01*
D02*
G37*
G36*
X244054D02*
X238846D01*
Y19725D01*
X239841Y19856D01*
X241233Y20433D01*
X242429Y21350D01*
X243347Y22546D01*
X243923Y23939D01*
X244054Y24933D01*
D02*
G37*
G36*
X289028Y24933D02*
X283820D01*
X283950Y23939D01*
X284527Y22546D01*
X285445Y21350D01*
X286641Y20433D01*
X288033Y19856D01*
X289028Y19725D01*
Y24933D01*
D02*
G37*
G36*
X186665D02*
X181457D01*
X181588Y23939D01*
X182165Y22546D01*
X183083Y21350D01*
X184279Y20433D01*
X185671Y19856D01*
X186665Y19725D01*
Y24933D01*
D02*
G37*
G36*
X326417Y24933D02*
X321209D01*
Y19725D01*
X322203Y19856D01*
X323596Y20433D01*
X324791Y21350D01*
X325709Y22546D01*
X326286Y23939D01*
X326417Y24933D01*
D02*
G37*
G36*
X224054D02*
X218847D01*
Y19725D01*
X219841Y19856D01*
X221233Y20433D01*
X222429Y21350D01*
X223347Y22546D01*
X223923Y23939D01*
X224054Y24933D01*
D02*
G37*
G36*
X269028D02*
X263820D01*
X263950Y23939D01*
X264527Y22546D01*
X265445Y21350D01*
X266641Y20433D01*
X268033Y19856D01*
X269028Y19725D01*
Y24933D01*
D02*
G37*
G36*
X166665D02*
X161457D01*
X161588Y23939D01*
X162165Y22546D01*
X163083Y21350D01*
X164278Y20433D01*
X165671Y19856D01*
X166665Y19725D01*
Y24933D01*
D02*
G37*
G36*
X377453Y26585D02*
X376251Y26490D01*
X374592Y26092D01*
X373015Y25439D01*
X371560Y24547D01*
X370262Y23439D01*
X369154Y22141D01*
X368262Y20686D01*
X367609Y19109D01*
X367211Y17449D01*
X367116Y16248D01*
X377453D01*
Y26585D01*
D02*
G37*
G36*
X16248D02*
Y16248D01*
X26585D01*
X26490Y17449D01*
X26092Y19109D01*
X25439Y20686D01*
X24547Y22141D01*
X23439Y23439D01*
X22141Y24547D01*
X20686Y25439D01*
X19109Y26092D01*
X17449Y26490D01*
X16248Y26585D01*
D02*
G37*
%LPD*%
G36*
X90103Y226029D02*
X89896Y225529D01*
X88653D01*
X85831Y228351D01*
X85468Y228594D01*
X85039Y228679D01*
X62205D01*
X62205Y228679D01*
X61776Y228594D01*
X61413Y228351D01*
X54720Y221658D01*
X54477Y221295D01*
X54392Y220866D01*
Y209842D01*
X54477Y209414D01*
X54720Y209051D01*
X56295Y207476D01*
X56295Y207476D01*
X56658Y207233D01*
X57087Y207148D01*
X62922D01*
X65317Y204753D01*
Y203849D01*
X65263Y203803D01*
X64817Y203628D01*
X64811Y203632D01*
X64670Y203843D01*
X64670Y203843D01*
X63390Y205123D01*
X63027Y205365D01*
X62598Y205451D01*
X55976D01*
X52695Y208732D01*
Y221977D01*
X60700Y229982D01*
X86150D01*
X90103Y226029D01*
D02*
G37*
G36*
X87397Y223618D02*
X87760Y223375D01*
X88189Y223289D01*
X96226D01*
X96374Y222996D01*
X96403Y222790D01*
X89300Y215687D01*
X89195D01*
X88795Y215929D01*
Y218913D01*
X88122D01*
X88116Y218923D01*
X81817Y225222D01*
X81128Y225682D01*
X80315Y225844D01*
X71358D01*
X71288Y225958D01*
X71547Y226439D01*
X84575D01*
X87397Y223618D01*
D02*
G37*
G36*
X84433Y216599D02*
Y215929D01*
X84033Y215687D01*
X83274D01*
X82915Y216026D01*
X82857Y216154D01*
X82933Y216535D01*
X82763Y217387D01*
X82410Y217916D01*
X82798Y218234D01*
X84433Y216599D01*
D02*
G37*
G36*
X98342Y220634D02*
X98371Y220427D01*
X95271Y217327D01*
X95028Y216964D01*
X94943Y216535D01*
Y212669D01*
X91662Y209388D01*
X85827D01*
X85827Y209388D01*
X85398Y209302D01*
X85035Y209060D01*
X85035Y209060D01*
X80999Y205024D01*
X80852Y204804D01*
X80352Y204956D01*
Y206721D01*
X83933Y210302D01*
X84433Y210221D01*
Y210221D01*
X88795D01*
Y213205D01*
X89195Y213447D01*
X89764D01*
X90192Y213532D01*
X90556Y213775D01*
X97708Y220927D01*
X98195D01*
X98342Y220634D01*
D02*
G37*
G36*
X67885Y225958D02*
X67815Y225844D01*
X67323D01*
X66510Y225682D01*
X65821Y225222D01*
X65821Y225222D01*
X59522Y218923D01*
X59516Y218913D01*
X58842D01*
Y215929D01*
X59516D01*
X59522Y215920D01*
X60211Y215459D01*
X61024Y215298D01*
X61836Y215459D01*
X62525Y215920D01*
X62535Y215929D01*
X63205D01*
Y216599D01*
X67001Y220396D01*
X67463Y220204D01*
Y219701D01*
X67405D01*
Y213370D01*
X67965D01*
Y210295D01*
X68059Y209823D01*
X67599Y209575D01*
X64670Y212505D01*
X64306Y212747D01*
X63878Y212832D01*
X63205D01*
Y213205D01*
X58842D01*
Y210221D01*
X63205D01*
Y210221D01*
X63705Y210302D01*
X67622Y206385D01*
X67604Y206314D01*
X67601Y206311D01*
X67055Y206182D01*
X64178Y209060D01*
X63814Y209302D01*
X63386Y209388D01*
X57551D01*
X56632Y210306D01*
Y220402D01*
X62669Y226439D01*
X67627D01*
X67885Y225958D01*
D02*
G37*
G36*
X65855Y174087D02*
X66437Y173971D01*
X67019Y174087D01*
X67376Y174325D01*
X67822Y174150D01*
X67876Y174104D01*
Y172177D01*
X66621Y170921D01*
X64998D01*
Y174104D01*
X65052Y174150D01*
X65498Y174325D01*
X65855Y174087D01*
D02*
G37*
G36*
X65455Y158678D02*
X64955Y158523D01*
X64417Y158883D01*
X63681Y159029D01*
X62833D01*
Y167194D01*
X63300Y167661D01*
X65455D01*
Y158678D01*
D02*
G37*
G36*
X78290Y174327D02*
X78650Y174087D01*
X79232Y173971D01*
X79814Y174087D01*
X80171Y174325D01*
X80618Y174150D01*
X80671Y174104D01*
Y173161D01*
X78432Y170921D01*
X77384D01*
Y174172D01*
X77615Y174327D01*
X77953Y174383D01*
X78290Y174327D01*
D02*
G37*
G36*
X111085Y123552D02*
Y120488D01*
X110024D01*
Y118569D01*
X109653Y118265D01*
X108065D01*
X106512Y119818D01*
Y120488D01*
X106454D01*
Y127475D01*
X106954Y127682D01*
X111085Y123552D01*
D02*
G37*
G36*
X96732Y104440D02*
X96434Y104032D01*
X94988D01*
Y102508D01*
X96512D01*
Y103953D01*
X96921Y104251D01*
X100055Y101117D01*
X99840Y100625D01*
X99348Y100560D01*
X98721Y100300D01*
X98557Y100175D01*
X96512D01*
Y101508D01*
X94488D01*
Y102008D01*
X93988D01*
Y104032D01*
X92465D01*
X92465Y104032D01*
X91988Y104087D01*
X91600Y104592D01*
X91487Y104679D01*
X91657Y105179D01*
X95993D01*
X96732Y104440D01*
D02*
G37*
G36*
X92190Y101378D02*
X92465Y101256D01*
Y100175D01*
X91451D01*
X91281Y100675D01*
X91600Y100919D01*
X91965Y101394D01*
X92190Y101378D01*
D02*
G37*
D10*
X112205Y109843D02*
X115354Y106693D01*
Y106299D02*
Y106693D01*
X112205Y109843D02*
Y113287D01*
X24122Y114067D02*
X29248Y119193D01*
X24122Y113673D02*
Y114067D01*
X29248Y119193D02*
X33465D01*
X92815Y102756D02*
X93032Y102539D01*
X93957D01*
X94488Y102008D01*
X89764Y102756D02*
X92815D01*
X263779Y177165D02*
Y190945D01*
X181102Y177165D02*
Y190945D01*
X236221Y177165D02*
Y190945D01*
X153543Y177165D02*
Y190945D01*
X261614Y169291D02*
X263780Y171457D01*
X250000Y169291D02*
X261614D01*
X244094Y163386D02*
X250000Y169291D01*
X236221D02*
Y171457D01*
X229035Y162106D02*
X236221Y169291D01*
X178248Y171457D02*
X181102D01*
X154232Y157106D02*
Y171457D01*
X169291Y162500D02*
X178248Y171457D01*
X74114Y208327D02*
X74449Y208661D01*
X74114Y200591D02*
Y208327D01*
X137008Y236614D02*
Y251209D01*
X122441Y222047D02*
X137008Y236614D01*
X97244Y222047D02*
X122441D01*
X131890Y236221D02*
Y264567D01*
X120079Y224410D02*
X131890Y236221D01*
X88189Y224410D02*
X120079D01*
X126772Y234646D02*
Y275984D01*
X118504Y226378D02*
X126772Y234646D01*
X91339Y226378D02*
X118504D01*
X176472Y309150D02*
X285276D01*
X131890Y264567D02*
X176472Y309150D01*
X179134Y222285D02*
X225999Y269150D01*
X151575Y222441D02*
X208283Y279150D01*
X184948Y299150D02*
X285276D01*
X137008Y251209D02*
X184948Y299150D01*
X169937Y319150D02*
X285276D01*
X126772Y275984D02*
X169937Y319150D01*
X192997Y288976D02*
X285102D01*
X123706Y219685D02*
X192997Y288976D01*
X89764Y214567D02*
X97244Y222047D01*
X99213Y219685D02*
X123706D01*
X96063Y216535D02*
X99213Y219685D01*
X285102Y288976D02*
X285276Y289150D01*
X208283Y279150D02*
X285276D01*
X225999Y269150D02*
X285276D01*
X179134Y215551D02*
Y222285D01*
X234252Y222441D02*
X270961Y259150D01*
X285276D01*
X269685Y227093D02*
Y237008D01*
X281827Y249150D01*
X285276D01*
X236221Y220472D02*
X238189Y222441D01*
X259842Y224410D02*
X261811Y226378D01*
X86614Y231102D02*
X91339Y226378D01*
X62598Y204331D02*
X63878Y203051D01*
Y200591D02*
Y203051D01*
X51575Y222441D02*
X60236Y231102D01*
X86614D01*
X51575Y208268D02*
Y222441D01*
X55512Y204331D02*
X62598D01*
X51575Y208268D02*
X55512Y204331D01*
X85039Y227559D02*
X88189Y224410D01*
X63386Y208268D02*
X66437Y205217D01*
Y200591D02*
Y205217D01*
X55512Y220866D02*
X62205Y227559D01*
X85039D01*
X55512Y209842D02*
Y220866D01*
X57087Y208268D02*
X63386D01*
X55512Y209842D02*
X57087Y208268D01*
X83071Y214567D02*
X89764D01*
X76673Y208169D02*
X83071Y214567D01*
X76673Y200591D02*
Y208169D01*
X92126Y208268D02*
X96063Y212205D01*
Y216535D01*
X85827Y208268D02*
X92126D01*
X81791Y204232D02*
X85827Y208268D01*
X81791Y200591D02*
Y204232D01*
X149606Y224410D02*
X151575Y226378D01*
X153543Y220472D02*
X155512Y222441D01*
X151575Y215551D02*
Y222441D01*
X234252Y215551D02*
Y222441D01*
X267706Y225114D02*
X269685Y227093D01*
X264641Y225114D02*
X267706D01*
X262091Y222564D02*
X264641Y225114D01*
X262091Y215831D02*
Y222564D01*
X261811Y215551D02*
X262091Y215831D01*
X149606Y215551D02*
Y224410D01*
X153543Y215551D02*
Y220472D01*
X177165Y215551D02*
Y224410D01*
X179134Y226378D01*
X181102Y215551D02*
Y220472D01*
X183071Y222441D01*
X259842Y215551D02*
Y224410D01*
X263780Y215551D02*
Y220472D01*
X265748Y222441D01*
X236221Y215551D02*
Y220472D01*
X232283Y224410D02*
X234252Y226378D01*
X232283Y215551D02*
Y224410D01*
X271654Y98425D02*
X277559D01*
X282579Y93405D01*
X287402D01*
X342520Y98425D02*
Y108268D01*
X271654Y98425D02*
Y108268D01*
X240158Y98425D02*
Y108268D01*
X169291Y98425D02*
Y108268D01*
X331594Y93405D02*
X336614Y98425D01*
X185039Y81595D02*
Y87697D01*
X204350Y142106D02*
X219587Y126870D01*
X104331Y113287D02*
X112205D01*
X102362Y133858D02*
X112205Y124016D01*
Y118996D02*
Y124016D01*
X186122Y87697D02*
X191476Y93051D01*
X232283Y194882D02*
X236221Y190945D01*
X285433Y133858D02*
X292224Y127067D01*
X246063Y133858D02*
X285433D01*
X292224Y122047D02*
Y127067D01*
X70866Y108268D02*
Y122047D01*
X61713Y125610D02*
X67303D01*
X83957Y120610D02*
X90020D01*
X77303D02*
X83957D01*
X54744Y98051D02*
X61713D01*
X77303Y93051D02*
X83957D01*
X177165Y194882D02*
Y197835D01*
X259842Y194882D02*
X263779Y190945D01*
X259842Y194882D02*
Y197835D01*
X232283Y194882D02*
Y197835D01*
X177165Y194882D02*
X181102Y190945D01*
X149606Y194882D02*
X153543Y190945D01*
X149606Y194882D02*
Y197835D01*
X244094Y153543D02*
Y163386D01*
Y153543D02*
X245532Y152106D01*
X251279D01*
Y147106D02*
Y152106D01*
X229035Y157106D02*
Y162106D01*
Y152106D02*
Y157106D01*
X169291Y153543D02*
Y162500D01*
Y153543D02*
X170728Y152106D01*
X176476D01*
Y147106D02*
Y152106D01*
X154232D02*
Y157106D01*
X251279Y142106D02*
X308681D01*
X321949Y128839D01*
Y122047D02*
Y128839D01*
X229035Y147106D02*
X232815D01*
X246063Y133858D01*
X176476Y142106D02*
X204350D01*
X219587Y122047D02*
Y126870D01*
X154232Y147106D02*
X159980D01*
X173228Y133858D01*
X183071D01*
X189862Y127067D01*
Y122047D02*
Y127067D01*
X292224Y117027D02*
Y122047D01*
X287402Y112205D02*
X292224Y117027D01*
X287402Y103976D02*
Y112205D01*
X321949Y115059D02*
Y122047D01*
Y115059D02*
X326772Y110236D01*
Y103976D02*
Y110236D01*
X292224Y122047D02*
X298327D01*
X315846D02*
X321949D01*
X189862Y115059D02*
Y122047D01*
X185039Y110236D02*
X189862Y115059D01*
X185039Y103976D02*
Y110236D01*
X219587Y115059D02*
Y122047D01*
Y115059D02*
X224410Y110236D01*
Y103976D02*
Y110236D01*
X213484Y122047D02*
X219587D01*
X189862D02*
X195965D01*
X177165Y35433D02*
Y62992D01*
X185039Y70866D01*
Y75886D01*
X185039Y75886D01*
X228346Y35433D02*
Y66929D01*
X224410Y70866D02*
X228346Y66929D01*
X224410Y70866D02*
Y75886D01*
X279528Y35433D02*
Y64961D01*
X287402Y72835D01*
Y75886D01*
X330709Y35433D02*
Y64961D01*
X326772Y68898D02*
X330709Y64961D01*
X326772Y68898D02*
Y75000D01*
Y80709D02*
Y87697D01*
X336614Y98425D02*
X342520D01*
X326772Y93405D02*
X331594D01*
X341634Y87697D02*
X342520Y88583D01*
X326772Y87697D02*
X341634D01*
X326772Y93405D02*
Y100748D01*
X326417Y93051D02*
X326772Y93405D01*
X318209Y93051D02*
X326417D01*
Y88051D02*
X326772Y87697D01*
X318209Y88051D02*
X326417D01*
X234252Y98425D02*
X240158D01*
X229232Y93405D02*
X234252Y98425D01*
X224410Y93405D02*
X229232D01*
X224410Y100748D02*
X224410Y100748D01*
X224410Y93405D02*
Y100748D01*
X224055Y93051D02*
X224410Y93405D01*
X215846Y93051D02*
X224055D01*
X169291Y98425D02*
X175197D01*
X180217Y93405D01*
X185039D01*
Y100748D02*
X186653D01*
X189350Y98051D01*
X193602D01*
X185039Y93405D02*
Y100748D01*
X287402D02*
X289016D01*
X291713Y98051D01*
X295965D01*
X287402Y93405D02*
Y100748D01*
X271654Y88583D02*
X272539Y87697D01*
X287402D01*
Y81595D02*
Y87697D01*
X292756Y93051D01*
X295965D01*
X169291Y88583D02*
X170177Y87697D01*
X185039D01*
X186122D01*
X191476Y93051D02*
X193602D01*
X224410Y87697D02*
X224410Y87697D01*
Y81595D02*
Y87697D01*
X239272Y87697D02*
X240158Y88583D01*
X224410Y87697D02*
X239272D01*
X224055Y88051D02*
X224410Y87697D01*
X215846Y88051D02*
X224055D01*
X83760Y211713D02*
X86614D01*
X79232Y207185D02*
X83760Y211713D01*
X79232Y200591D02*
Y207185D01*
X61024Y211713D02*
X63878D01*
X68996Y206594D01*
Y200591D02*
Y206594D01*
X102362Y133858D02*
Y141732D01*
X91988Y152106D02*
X102362Y141732D01*
X83957Y152106D02*
X91988D01*
X50807Y157106D02*
X61713D01*
X37402Y143701D02*
X50807Y157106D01*
X37402Y131890D02*
Y143701D01*
X78386Y169291D02*
X81791Y172697D01*
Y177362D01*
X75157Y169291D02*
X76264Y170398D01*
Y176953D01*
X76673Y177362D01*
X79272Y147106D02*
X83957D01*
X75157Y151221D02*
X79272Y147106D01*
X75157Y151221D02*
Y169291D01*
X80177Y152106D02*
X83957D01*
X78386Y153898D02*
X80177Y152106D01*
X78386Y153898D02*
Y169291D01*
X61713Y157106D02*
Y167657D01*
X63346Y169291D01*
X61713Y152106D02*
X65492D01*
X66575Y153189D01*
Y169291D01*
X68996Y171713D01*
Y177362D01*
X63346Y169291D02*
X63878Y169823D01*
Y177362D01*
X78740Y106299D02*
X96457D01*
X74803Y110236D02*
X78740Y106299D01*
X74803Y110236D02*
Y118110D01*
X77303Y120610D01*
X33465Y127953D02*
X37402Y131890D01*
X33465Y124902D02*
Y127953D01*
X74803Y90551D02*
X77303Y93051D01*
X74803Y80709D02*
Y90551D01*
Y80709D02*
X82677Y72835D01*
X98425D01*
X114173Y57087D01*
Y35433D02*
Y57087D01*
X61713Y98051D02*
X69272D01*
X70866Y96457D01*
Y80709D02*
Y96457D01*
X62992Y72835D02*
X70866Y80709D01*
X62992Y35433D02*
Y72835D01*
X96457Y106299D02*
X104331Y98425D01*
Y91437D02*
Y98425D01*
X67303Y125610D02*
X70866Y122047D01*
X64961Y102362D02*
X70866Y108268D01*
X45276Y102362D02*
X64961D01*
X41339Y98425D02*
X45276Y102362D01*
X41339Y97342D02*
Y98425D01*
X49213Y124902D02*
X56004D01*
X56713Y125610D01*
X61713D01*
X91634Y118996D02*
X96457D01*
X90020Y120610D02*
X91634Y118996D01*
X112205Y113287D02*
X112205Y113287D01*
X96457Y113287D02*
X104331D01*
X91437D02*
X96457D01*
X89114Y115610D02*
X91437Y113287D01*
X83957Y115610D02*
X89114D01*
X33465Y119193D02*
X41339D01*
X49213D01*
X54232D01*
X55650Y120610D01*
X61713D01*
X91634Y91437D02*
X96457D01*
X90020Y93051D02*
X91634Y91437D01*
X83957Y93051D02*
X90020D01*
X96457Y85728D02*
X104331D01*
X91437D02*
X96457D01*
X89114Y88051D02*
X91437Y85728D01*
X83957Y88051D02*
X89114D01*
X54036Y97342D02*
X54744Y98051D01*
X49213Y97342D02*
X54036D01*
X55650Y93051D02*
X61713D01*
X54232Y91634D02*
X55650Y93051D01*
X49213Y91634D02*
X54232D01*
X41339D02*
X49213D01*
D14*
X170905Y185039D02*
Y196850D01*
X143347Y185039D02*
Y195925D01*
X109653Y116142D02*
X120079D01*
X76635Y182772D02*
X79150Y180258D01*
X76635Y182772D02*
Y184547D01*
X79150Y177445D02*
Y180258D01*
Y177445D02*
X79232Y177362D01*
X66437D02*
Y184547D01*
X197874Y199173D02*
X198031Y199016D01*
X190945Y199173D02*
X197874D01*
X253583Y190945D02*
Y196850D01*
Y185039D02*
Y190945D01*
X226024D02*
Y196850D01*
Y185039D02*
Y190945D01*
X141437Y197835D02*
X143347Y195925D01*
Y185039D02*
X143347Y185039D01*
X69587Y210295D02*
Y216535D01*
Y210295D02*
X71220Y208661D01*
X71555Y208327D01*
Y200591D02*
Y208327D01*
X253583Y185039D02*
X253583Y185039D01*
D31*
X18610Y113673D02*
D03*
X24122D02*
D03*
X120866Y106299D02*
D03*
X115354D02*
D03*
D32*
X229035Y157106D02*
D03*
Y152106D02*
D03*
Y147106D02*
D03*
Y142106D02*
D03*
X251279Y157106D02*
D03*
Y152106D02*
D03*
Y147106D02*
D03*
Y142106D02*
D03*
X154232Y157106D02*
D03*
Y152106D02*
D03*
Y147106D02*
D03*
Y142106D02*
D03*
X176476Y157106D02*
D03*
Y152106D02*
D03*
Y147106D02*
D03*
Y142106D02*
D03*
X193602Y98051D02*
D03*
Y93051D02*
D03*
Y88051D02*
D03*
Y83051D02*
D03*
X215846Y98051D02*
D03*
Y93051D02*
D03*
Y88051D02*
D03*
Y83051D02*
D03*
X295965Y98051D02*
D03*
Y93051D02*
D03*
Y88051D02*
D03*
Y83051D02*
D03*
X318209Y98051D02*
D03*
Y93051D02*
D03*
Y88051D02*
D03*
Y83051D02*
D03*
X61713Y157106D02*
D03*
Y152106D02*
D03*
Y147106D02*
D03*
Y142106D02*
D03*
X83957Y157106D02*
D03*
Y152106D02*
D03*
Y147106D02*
D03*
Y142106D02*
D03*
X61713Y125610D02*
D03*
Y120610D02*
D03*
Y115610D02*
D03*
Y110610D02*
D03*
X83957Y125610D02*
D03*
Y120610D02*
D03*
Y115610D02*
D03*
Y110610D02*
D03*
X61713Y98051D02*
D03*
Y93051D02*
D03*
Y88051D02*
D03*
Y83051D02*
D03*
X83957Y98051D02*
D03*
Y93051D02*
D03*
Y88051D02*
D03*
Y83051D02*
D03*
D33*
X368110Y260728D02*
D03*
Y255020D02*
D03*
X326772Y75000D02*
D03*
Y80709D02*
D03*
X287402Y75886D02*
D03*
Y81595D02*
D03*
X224410Y75886D02*
D03*
Y81595D02*
D03*
X185039Y75886D02*
D03*
Y81595D02*
D03*
X236221Y177165D02*
D03*
Y171457D02*
D03*
X263780Y177165D02*
D03*
Y171457D02*
D03*
X181102Y177165D02*
D03*
Y171457D02*
D03*
X153543Y177165D02*
D03*
Y171457D02*
D03*
X61024Y211713D02*
D03*
Y217421D02*
D03*
X86614Y211713D02*
D03*
Y217421D02*
D03*
X96457Y118996D02*
D03*
Y113287D02*
D03*
X104331Y118996D02*
D03*
Y113287D02*
D03*
X112205Y113287D02*
D03*
Y118996D02*
D03*
X49213Y124902D02*
D03*
Y119193D02*
D03*
X41339Y124902D02*
D03*
Y119193D02*
D03*
X33465D02*
D03*
Y124902D02*
D03*
X49213Y97342D02*
D03*
Y91634D02*
D03*
X41339D02*
D03*
Y97342D02*
D03*
X96457Y91437D02*
D03*
Y85728D02*
D03*
X104331D02*
D03*
Y91437D02*
D03*
D34*
X250354Y185039D02*
D03*
X253583D02*
D03*
X250354Y190945D02*
D03*
X253583D02*
D03*
X312992Y104331D02*
D03*
X316220D02*
D03*
X210630D02*
D03*
X213858D02*
D03*
X300827Y76772D02*
D03*
X297598D02*
D03*
X198465D02*
D03*
X195236D02*
D03*
X236575Y185039D02*
D03*
X239803D02*
D03*
X264134D02*
D03*
X267362D02*
D03*
X222795Y185039D02*
D03*
X226024D02*
D03*
X222795Y190945D02*
D03*
X226024D02*
D03*
X181457Y185039D02*
D03*
X184685D02*
D03*
X167677Y185039D02*
D03*
X170905D02*
D03*
X167677Y190945D02*
D03*
X170905D02*
D03*
X153898Y185039D02*
D03*
X157126D02*
D03*
X140118Y185039D02*
D03*
X143347D02*
D03*
X140118Y190945D02*
D03*
X143347D02*
D03*
X74449Y208661D02*
D03*
X71220D02*
D03*
X63346Y169291D02*
D03*
X66575D02*
D03*
X78386D02*
D03*
X75157D02*
D03*
X252323Y228346D02*
D03*
X255551D02*
D03*
X252323Y222441D02*
D03*
X255551D02*
D03*
X224764Y228346D02*
D03*
X227992D02*
D03*
X224764Y222441D02*
D03*
X227992D02*
D03*
X142087D02*
D03*
X145315D02*
D03*
X169646Y228346D02*
D03*
X172874D02*
D03*
X169646Y222441D02*
D03*
X172874D02*
D03*
X142087Y228346D02*
D03*
X145315D02*
D03*
X203110Y214567D02*
D03*
X206339D02*
D03*
D35*
X261811Y161063D02*
D03*
Y157835D02*
D03*
X326772Y103976D02*
D03*
Y100748D02*
D03*
X287402Y103976D02*
D03*
Y100748D02*
D03*
X224410Y103976D02*
D03*
Y100748D02*
D03*
X185039Y103976D02*
D03*
Y100748D02*
D03*
X218504Y138150D02*
D03*
Y141378D02*
D03*
X143701Y138150D02*
D03*
Y141378D02*
D03*
X187008Y161063D02*
D03*
Y157835D02*
D03*
X190945Y202402D02*
D03*
Y199173D02*
D03*
X51181Y138150D02*
D03*
Y141378D02*
D03*
X94488Y161063D02*
D03*
Y157835D02*
D03*
Y129567D02*
D03*
Y126339D02*
D03*
X51181Y106653D02*
D03*
Y109882D02*
D03*
Y79094D02*
D03*
Y82323D02*
D03*
X94488Y102008D02*
D03*
Y98779D02*
D03*
D36*
X207480Y202756D02*
D03*
X198031Y199016D02*
D03*
Y206496D02*
D03*
D37*
X246063Y203445D02*
D03*
Y209941D02*
D03*
X218504Y203445D02*
D03*
Y209941D02*
D03*
X163386Y203445D02*
D03*
Y209941D02*
D03*
X135827Y203445D02*
D03*
Y209941D02*
D03*
X328740Y261122D02*
D03*
Y254626D02*
D03*
X328740Y268406D02*
D03*
Y274902D02*
D03*
X328740Y297933D02*
D03*
Y304429D02*
D03*
X61024Y244783D02*
D03*
Y251279D02*
D03*
Y284154D02*
D03*
Y290650D02*
D03*
X61024Y304429D02*
D03*
Y297933D02*
D03*
D38*
X304035Y122047D02*
D03*
X298327D02*
D03*
X321949D02*
D03*
X327658D02*
D03*
X292224D02*
D03*
X286516D02*
D03*
X201673D02*
D03*
X195965D02*
D03*
X189862D02*
D03*
X184153D02*
D03*
X207776D02*
D03*
X213484D02*
D03*
X219587D02*
D03*
X225295D02*
D03*
X310138D02*
D03*
X315846D02*
D03*
D39*
X81791Y200591D02*
D03*
X79232D02*
D03*
X76673D02*
D03*
X74114D02*
D03*
X71555D02*
D03*
X68996D02*
D03*
X66437D02*
D03*
X63878D02*
D03*
X81791Y177362D02*
D03*
X79232D02*
D03*
X76673D02*
D03*
X74114D02*
D03*
X71555D02*
D03*
X68996D02*
D03*
X66437D02*
D03*
X63878D02*
D03*
D40*
X255906Y197835D02*
D03*
X257874D02*
D03*
X259842D02*
D03*
X261811D02*
D03*
X263780D02*
D03*
X255906Y215551D02*
D03*
X257874D02*
D03*
X259842D02*
D03*
X261811D02*
D03*
X263780D02*
D03*
X228346Y197835D02*
D03*
X230315D02*
D03*
X232283D02*
D03*
X234252D02*
D03*
X236221D02*
D03*
X228346Y215551D02*
D03*
X230315D02*
D03*
X232283D02*
D03*
X234252D02*
D03*
X236221D02*
D03*
X173228Y197835D02*
D03*
X175197D02*
D03*
X177165D02*
D03*
X179134D02*
D03*
X181102D02*
D03*
X173228Y215551D02*
D03*
X175197D02*
D03*
X177165D02*
D03*
X179134D02*
D03*
X181102D02*
D03*
X145669Y197835D02*
D03*
X147638D02*
D03*
X149606D02*
D03*
X151575D02*
D03*
X153543D02*
D03*
X145669Y215551D02*
D03*
X147638D02*
D03*
X149606D02*
D03*
X151575D02*
D03*
X153543D02*
D03*
D41*
X69587Y216535D02*
D03*
X76083D02*
D03*
D42*
X295965Y71240D02*
Y83051D01*
X138169Y142106D02*
X154232D01*
X45650Y142106D02*
X61713D01*
X193602Y71240D02*
Y83051D01*
X251279Y157106D02*
X267342D01*
X176476Y157106D02*
X192539D01*
X318209Y98051D02*
Y109862D01*
X215846Y98051D02*
Y109862D01*
X83957Y157106D02*
X100020D01*
X255906Y215551D02*
Y231614D01*
X228346Y215551D02*
Y231614D01*
X207480Y202756D02*
Y218819D01*
X173228Y228346D02*
Y231614D01*
X145669Y228346D02*
Y231614D01*
X173228Y215551D02*
Y228346D01*
X145669Y215551D02*
Y228346D01*
X45650Y83051D02*
X61713D01*
X45650Y110610D02*
X61713D01*
X83957Y125610D02*
X100020D01*
X83957Y98051D02*
X100020D01*
X99610Y132673D02*
X104331Y127953D01*
X41339Y124902D02*
X49110Y132673D01*
X99610D01*
X218504Y141378D02*
X219232Y142106D01*
X229035D01*
X228346Y133858D02*
Y141417D01*
X229035Y142106D01*
X80315Y223721D02*
X86614Y217421D01*
X69587Y223721D02*
X80315D01*
X67323D02*
X69587D01*
X61024Y217421D02*
X67323Y223721D01*
X107185Y116142D02*
X109653D01*
X104331Y118996D02*
X107185Y116142D01*
X104331Y118996D02*
Y127953D01*
X69587Y216535D02*
Y223721D01*
D43*
X120079Y116142D02*
X127953Y124016D01*
Y181102D01*
X198031Y193996D02*
Y199016D01*
Y188976D02*
Y193996D01*
D44*
X204724Y122047D02*
X207776D01*
X201673D02*
X204724D01*
X307087D02*
X310138D01*
X304035D02*
X307087D01*
D45*
X250689Y198819D02*
X251673Y197835D01*
X246063Y203445D02*
X250689Y198819D01*
X223130D02*
X224114Y197835D01*
X218504Y203445D02*
X223130Y198819D01*
X224114Y197835D02*
X228134D01*
X168012Y198819D02*
X168996Y197835D01*
X163386Y203445D02*
X168012Y198819D01*
X139764Y199508D02*
X141437Y197835D01*
X135827Y203445D02*
X139764Y199508D01*
X251673Y197835D02*
X255693D01*
X168996Y197835D02*
X173016D01*
X141437Y197835D02*
X145457D01*
X328740Y254626D02*
X329232Y255118D01*
X356299D01*
X328740Y274902D02*
X328957Y275118D01*
X356299D01*
X328740Y304429D02*
X329429Y305118D01*
X356299D01*
X33465Y243937D02*
X34311Y244783D01*
X61024D01*
X60807Y283937D02*
X61024Y284154D01*
X33465Y283937D02*
X60807D01*
X60532Y303937D02*
X61024Y304429D01*
X33465Y303937D02*
X60532D01*
X356299Y255118D02*
X368012D01*
X368110Y255020D01*
D46*
X342520Y108425D02*
D03*
Y88425D02*
D03*
Y98425D02*
D03*
X271654Y108425D02*
D03*
Y88425D02*
D03*
Y98425D02*
D03*
X240158Y108425D02*
D03*
Y88425D02*
D03*
Y98425D02*
D03*
X169291Y108425D02*
D03*
Y88425D02*
D03*
Y98425D02*
D03*
D47*
X114173Y35433D02*
D03*
X124173Y25433D02*
D03*
X104173D02*
D03*
Y45433D02*
D03*
X124173D02*
D03*
X72992D02*
D03*
X52992D02*
D03*
Y25433D02*
D03*
X72992D02*
D03*
X62992Y35433D02*
D03*
X330709Y35433D02*
D03*
X340709Y25433D02*
D03*
X320709D02*
D03*
Y45433D02*
D03*
X340709D02*
D03*
X289528D02*
D03*
X269528D02*
D03*
Y25433D02*
D03*
X289528D02*
D03*
X279528Y35433D02*
D03*
X228346D02*
D03*
X238347Y25433D02*
D03*
X218347D02*
D03*
Y45433D02*
D03*
X238347D02*
D03*
X187165D02*
D03*
X167165D02*
D03*
Y25433D02*
D03*
X187165D02*
D03*
X177165Y35433D02*
D03*
D48*
X33465Y283937D02*
D03*
Y253937D02*
D03*
Y243937D02*
D03*
Y303937D02*
D03*
Y293937D02*
D03*
X356299Y265118D02*
D03*
Y295118D02*
D03*
Y305118D02*
D03*
Y255118D02*
D03*
Y275118D02*
D03*
D49*
X295276Y249150D02*
D03*
Y269150D02*
D03*
Y259150D02*
D03*
Y279150D02*
D03*
Y299150D02*
D03*
Y289150D02*
D03*
Y309150D02*
D03*
Y319150D02*
D03*
Y233150D02*
D03*
Y223150D02*
D03*
Y203150D02*
D03*
Y213150D02*
D03*
Y193150D02*
D03*
Y173150D02*
D03*
Y183150D02*
D03*
Y163150D02*
D03*
X105276Y173150D02*
D03*
Y183150D02*
D03*
Y163150D02*
D03*
X115276D02*
D03*
Y183150D02*
D03*
Y173150D02*
D03*
X105276Y203150D02*
D03*
Y213150D02*
D03*
Y193150D02*
D03*
X115276D02*
D03*
Y213150D02*
D03*
Y203150D02*
D03*
Y263150D02*
D03*
Y243150D02*
D03*
Y253150D02*
D03*
Y233150D02*
D03*
X105276D02*
D03*
Y253150D02*
D03*
Y243150D02*
D03*
Y273150D02*
D03*
Y263150D02*
D03*
Y283150D02*
D03*
Y293150D02*
D03*
Y303150D02*
D03*
X295276Y339150D02*
D03*
Y329150D02*
D03*
X285276Y173150D02*
D03*
Y183150D02*
D03*
Y163150D02*
D03*
Y203150D02*
D03*
Y213150D02*
D03*
Y193150D02*
D03*
Y233150D02*
D03*
Y223150D02*
D03*
Y309150D02*
D03*
Y319150D02*
D03*
Y279150D02*
D03*
Y299150D02*
D03*
Y289150D02*
D03*
Y249150D02*
D03*
Y269150D02*
D03*
Y259150D02*
D03*
D50*
X15748Y15748D02*
D03*
Y338583D02*
D03*
X377953D02*
D03*
Y15748D02*
D03*
D51*
X247638Y230315D02*
D03*
X220472Y225197D02*
D03*
X165854Y231784D02*
D03*
X138189Y225197D02*
D03*
X45669Y137008D02*
D03*
X80709Y216535D02*
D03*
X89764Y102756D02*
D03*
X55512Y78347D02*
D03*
Y105905D02*
D03*
X238189Y222441D02*
D03*
X261811Y226378D02*
D03*
X151575D02*
D03*
X155512Y222441D02*
D03*
X183071D02*
D03*
X179134Y226378D02*
D03*
X265748Y222441D02*
D03*
X234252Y226378D02*
D03*
D52*
X145669Y231614D02*
D03*
X76635Y184547D02*
D03*
X66437Y184547D02*
D03*
X228346Y133858D02*
D03*
X204724Y122047D02*
D03*
X307087D02*
D03*
X127953Y181102D02*
D03*
X138169Y142106D02*
D03*
X198031Y193996D02*
D03*
Y188976D02*
D03*
X250689Y198819D02*
D03*
X223130D02*
D03*
X139764Y199508D02*
D03*
X207480Y218819D02*
D03*
X255906Y231614D02*
D03*
X228346D02*
D03*
X173228D02*
D03*
X215846Y109862D02*
D03*
X318209D02*
D03*
X295965Y71240D02*
D03*
X193602D02*
D03*
X69587Y223721D02*
D03*
X100020Y157106D02*
D03*
X45650Y142106D02*
D03*
X100020Y98051D02*
D03*
Y125610D02*
D03*
X45650Y110610D02*
D03*
Y83051D02*
D03*
X267342Y157106D02*
D03*
X192539Y157106D02*
D03*
X168012Y198819D02*
D03*
M02*
