G04*
G04 #@! TF.GenerationSoftware,Altium Limited,Altium Designer,19.1.5 (86)*
G04*
G04 Layer_Color=8388736*
%FSLAX25Y25*%
%MOIN*%
G70*
G01*
G75*
%ADD15R,0.02362X0.02756*%
%ADD16R,0.03937X0.04724*%
%ADD17C,0.03937*%
%ADD18O,0.06299X0.09843*%
%ADD19C,0.08661*%
%ADD20C,0.07087*%
%ADD21O,0.14173X0.10236*%
%ADD22O,0.10236X0.14173*%
%ADD23C,0.07500*%
%ADD24C,0.06299*%
%ADD25C,0.19685*%
D15*
X308268Y143701D02*
D03*
Y139764D02*
D03*
X313779Y143701D02*
D03*
Y139764D02*
D03*
Y155512D02*
D03*
Y159449D02*
D03*
X308268Y155512D02*
D03*
Y159449D02*
D03*
Y175197D02*
D03*
Y171260D02*
D03*
X313779Y175197D02*
D03*
Y171260D02*
D03*
Y124016D02*
D03*
Y127953D02*
D03*
X308268Y124016D02*
D03*
Y127953D02*
D03*
D16*
X315158Y196850D02*
D03*
X306890D02*
D03*
D17*
X208661Y212598D02*
D03*
Y228346D02*
D03*
Y196850D02*
D03*
Y244094D02*
D03*
Y165354D02*
D03*
Y181102D02*
D03*
D18*
X220472Y47244D02*
D03*
X230472D02*
D03*
X210472D02*
D03*
X177165D02*
D03*
X167165D02*
D03*
X187165D02*
D03*
X135984Y319134D02*
D03*
X115984D02*
D03*
X125984D02*
D03*
X135984Y256142D02*
D03*
X115984D02*
D03*
X125984D02*
D03*
X135984Y228583D02*
D03*
X115984D02*
D03*
X125984D02*
D03*
X135984Y165591D02*
D03*
X115984D02*
D03*
X125984D02*
D03*
D19*
X11811Y165945D02*
D03*
Y227756D02*
D03*
X31496Y168307D02*
D03*
Y225394D02*
D03*
D20*
X251969Y47244D02*
D03*
X47244Y259842D02*
D03*
Y362205D02*
D03*
Y31496D02*
D03*
Y133858D02*
D03*
X141732Y47244D02*
D03*
D21*
X266929Y16535D02*
D03*
X237008D02*
D03*
X156693D02*
D03*
X126772D02*
D03*
D22*
X16535Y244882D02*
D03*
Y274803D02*
D03*
Y347244D02*
D03*
Y377165D02*
D03*
Y16535D02*
D03*
Y46457D02*
D03*
Y118898D02*
D03*
Y148819D02*
D03*
D23*
X278425Y97087D02*
D03*
X98425Y227087D02*
D03*
Y217087D02*
D03*
Y197087D02*
D03*
Y207087D02*
D03*
Y177087D02*
D03*
Y187087D02*
D03*
Y167087D02*
D03*
Y127087D02*
D03*
Y147087D02*
D03*
Y137087D02*
D03*
Y97087D02*
D03*
Y117087D02*
D03*
Y107087D02*
D03*
X288425Y97087D02*
D03*
Y117087D02*
D03*
Y107087D02*
D03*
Y127087D02*
D03*
Y147087D02*
D03*
Y137087D02*
D03*
Y157087D02*
D03*
Y167087D02*
D03*
Y253087D02*
D03*
Y243087D02*
D03*
Y223087D02*
D03*
Y233087D02*
D03*
Y213087D02*
D03*
Y193087D02*
D03*
Y203087D02*
D03*
Y183087D02*
D03*
X278425Y107087D02*
D03*
Y117087D02*
D03*
Y127087D02*
D03*
Y137087D02*
D03*
Y147087D02*
D03*
Y157087D02*
D03*
Y167087D02*
D03*
D24*
X375984Y208661D02*
D03*
Y188661D02*
D03*
Y238661D02*
D03*
Y228661D02*
D03*
Y198661D02*
D03*
Y97953D02*
D03*
Y127953D02*
D03*
Y137953D02*
D03*
Y77953D02*
D03*
Y87953D02*
D03*
D25*
X15748Y86614D02*
D03*
Y307087D02*
D03*
X377953Y377953D02*
D03*
Y15748D02*
D03*
M02*
