M48
;Layer_Color=9474304
;FILE_FORMAT=2:5
INCH,LZ
;TYPE=PLATED
T1F00S00C0.02362
T2F00S00C0.03543
T3F00S00C0.03622
T4F00S00C0.04000
T5F00S00C0.04331
T6F00S00C0.06299
T7F00S00C0.07087
T8F00S00C0.12402
%
T01
X0348425Y0077785
Y0097785
X0261437Y0067303
X0211004Y0082303
X0182697Y0067303
X0132264Y0082303
X0114823Y0185276
X0137795Y0201024
X0173602Y0187382
X0215384Y0190591
X0214567Y0226024
Y0261457
X0188602Y0245689
X0173602Y0258248
X0255906Y0255906
Y0220472
X0265748Y0229961
X0265748Y0194528
X0255906Y0185039
X0267717Y0142549
X022441Y0145669
X0224903Y0157974
X0206319Y0142106
X0215453Y0125984
X0206319Y0106673
X0155886Y0121673
X0155886Y0157106
X0318898Y0153543
Y0161417
Y0169291
Y0177165
X0318898Y0188976
X0318898Y0145669
Y0137795
Y0129921
Y0122047
X034941Y0137785
Y0208494
Y0238494
X0265748Y0265394
X0265748Y0300827
X0255906Y0291339
X0214567Y029689
X0188602Y0316555
X0137146Y0299449
X0246417Y0346102
X0114173Y027815
T02
X0167165Y0047244
X0177165
X0187165
X0210472
X0220472
X0230472
X0135984Y0165591
X0125984
X0115984
Y0228583
X0125984
X0135984
Y0256142
X0125984
X0115984
Y0319134
X0125984
X0135984
T03
X0141732Y0047244
X0251969
X0047244Y0031496
Y0133858
Y0259842
Y0362205
T04
X0278425Y0097087
X0288425
X0098425
Y0107087
Y0117087
Y0127087
Y0137087
Y0147087
Y0167087
Y0177087
Y0187087
Y0197087
Y0207087
Y0217087
Y0227087
X0288425Y0223087
Y0233087
Y0243087
Y0253087
Y0213087
Y0203087
Y0193087
Y0183087
Y0167087
Y0157087
Y0147087
Y0137087
Y0127087
Y0117087
Y0107087
X0278425
Y0117087
Y0127087
Y0137087
Y0147087
Y0157087
Y0167087
T05
X0375984Y0077953
Y0087953
Y0097953
Y0127953
Y0137953
Y0188661
Y0198661
Y0208661
Y0228661
Y0238661
T06
X0011811Y0165945
X0031496Y0168307
Y0225394
X0011811Y0227756
T07
X0126772Y0016535
X0156693
X0237008
X0266929
X0016535
Y0046457
Y0118898
Y0148819
Y0244882
Y0274803
Y0347244
Y0377165
T08
X0377953Y0015748
X0015748Y0086614
X0377953Y0377953
X0015748Y0307087
M30
