G04*
G04 #@! TF.GenerationSoftware,Altium Limited,Altium Designer,19.1.5 (86)*
G04*
G04 Layer_Color=16711935*
%FSLAX25Y25*%
%MOIN*%
G70*
G01*
G75*
%ADD18O,0.06299X0.09843*%
%ADD19C,0.08661*%
%ADD20C,0.07087*%
%ADD21O,0.14173X0.10236*%
%ADD22O,0.10236X0.14173*%
%ADD23C,0.07500*%
%ADD24C,0.06299*%
%ADD25C,0.19685*%
%ADD42R,0.03150X0.01772*%
%ADD43R,0.02047X0.02047*%
%ADD44O,0.06496X0.02559*%
%ADD45R,0.01772X0.03150*%
%ADD46R,0.03937X0.03150*%
%ADD47R,0.02047X0.02047*%
%ADD48O,0.07874X0.01181*%
%ADD49O,0.05512X0.01181*%
%ADD50O,0.05512X0.01772*%
%ADD51O,0.02559X0.06496*%
%ADD52R,0.02559X0.03937*%
%ADD53R,0.05118X0.03150*%
D18*
X220472Y47244D02*
D03*
X230472D02*
D03*
X210472D02*
D03*
X177165D02*
D03*
X167165D02*
D03*
X187165D02*
D03*
X135984Y319134D02*
D03*
X115984D02*
D03*
X125984D02*
D03*
X135984Y256142D02*
D03*
X115984D02*
D03*
X125984D02*
D03*
X135984Y228583D02*
D03*
X115984D02*
D03*
X125984D02*
D03*
X135984Y165591D02*
D03*
X115984D02*
D03*
X125984D02*
D03*
D19*
X11811Y165945D02*
D03*
Y227756D02*
D03*
X31496Y168307D02*
D03*
Y225394D02*
D03*
D20*
X251969Y47244D02*
D03*
X47244Y259842D02*
D03*
Y362205D02*
D03*
Y31496D02*
D03*
Y133858D02*
D03*
X141732Y47244D02*
D03*
D21*
X266929Y16535D02*
D03*
X237008D02*
D03*
X156693D02*
D03*
X126772D02*
D03*
D22*
X16535Y244882D02*
D03*
Y274803D02*
D03*
Y347244D02*
D03*
Y377165D02*
D03*
Y16535D02*
D03*
Y46457D02*
D03*
Y118898D02*
D03*
Y148819D02*
D03*
D23*
X278425Y97087D02*
D03*
X98425Y227087D02*
D03*
Y217087D02*
D03*
Y197087D02*
D03*
Y207087D02*
D03*
Y177087D02*
D03*
Y187087D02*
D03*
Y167087D02*
D03*
Y127087D02*
D03*
Y147087D02*
D03*
Y137087D02*
D03*
Y97087D02*
D03*
Y117087D02*
D03*
Y107087D02*
D03*
X288425Y97087D02*
D03*
Y117087D02*
D03*
Y107087D02*
D03*
Y127087D02*
D03*
Y147087D02*
D03*
Y137087D02*
D03*
Y157087D02*
D03*
Y167087D02*
D03*
Y253087D02*
D03*
Y243087D02*
D03*
Y223087D02*
D03*
Y233087D02*
D03*
Y213087D02*
D03*
Y193087D02*
D03*
Y203087D02*
D03*
Y183087D02*
D03*
X278425Y107087D02*
D03*
Y117087D02*
D03*
Y127087D02*
D03*
Y137087D02*
D03*
Y147087D02*
D03*
Y157087D02*
D03*
Y167087D02*
D03*
D24*
X375984Y208661D02*
D03*
Y188661D02*
D03*
Y238661D02*
D03*
Y228661D02*
D03*
Y198661D02*
D03*
Y97953D02*
D03*
Y127953D02*
D03*
Y137953D02*
D03*
Y77953D02*
D03*
Y87953D02*
D03*
D25*
X15748Y86614D02*
D03*
Y307087D02*
D03*
X377953Y377953D02*
D03*
Y15748D02*
D03*
D42*
X51181Y168209D02*
D03*
Y162500D02*
D03*
X153543Y266870D02*
D03*
Y261161D02*
D03*
Y227500D02*
D03*
Y221791D02*
D03*
Y172382D02*
D03*
Y166673D02*
D03*
X346457Y194783D02*
D03*
Y189075D02*
D03*
X153543Y292657D02*
D03*
Y298366D02*
D03*
X153543Y188130D02*
D03*
Y182421D02*
D03*
Y211752D02*
D03*
Y206043D02*
D03*
Y276909D02*
D03*
Y282618D02*
D03*
Y310177D02*
D03*
Y304468D02*
D03*
X129921Y117027D02*
D03*
Y111319D02*
D03*
X141732D02*
D03*
Y117027D02*
D03*
X129921Y73721D02*
D03*
Y68012D02*
D03*
X153543Y111319D02*
D03*
Y117027D02*
D03*
X208661Y115256D02*
D03*
Y120965D02*
D03*
X220472Y115256D02*
D03*
Y120965D02*
D03*
X208661Y73721D02*
D03*
Y68012D02*
D03*
X232283Y120965D02*
D03*
Y115256D02*
D03*
D43*
X137795Y86260D02*
D03*
Y83031D02*
D03*
X177165Y63346D02*
D03*
Y66575D02*
D03*
X110236Y278150D02*
D03*
Y281378D02*
D03*
X255906Y66575D02*
D03*
Y63346D02*
D03*
X220472Y190591D02*
D03*
Y187362D02*
D03*
Y273268D02*
D03*
Y270039D02*
D03*
X200787Y153898D02*
D03*
Y157126D02*
D03*
X161417Y157835D02*
D03*
Y161063D02*
D03*
Y122402D02*
D03*
Y125630D02*
D03*
X220472Y202402D02*
D03*
Y199173D02*
D03*
Y237835D02*
D03*
Y234606D02*
D03*
Y261457D02*
D03*
Y258228D02*
D03*
Y308701D02*
D03*
Y305472D02*
D03*
Y226024D02*
D03*
Y222795D02*
D03*
Y296890D02*
D03*
Y293661D02*
D03*
X161417Y145669D02*
D03*
Y148898D02*
D03*
X269685Y194528D02*
D03*
Y191299D02*
D03*
Y229961D02*
D03*
Y226732D02*
D03*
Y265394D02*
D03*
Y262165D02*
D03*
Y300827D02*
D03*
Y297598D02*
D03*
X261811Y194528D02*
D03*
Y191299D02*
D03*
Y229961D02*
D03*
Y226732D02*
D03*
Y265394D02*
D03*
Y262165D02*
D03*
Y300827D02*
D03*
Y297598D02*
D03*
X267717Y147992D02*
D03*
Y151221D02*
D03*
X200787Y141024D02*
D03*
Y137795D02*
D03*
Y106299D02*
D03*
Y103071D02*
D03*
X216535Y83031D02*
D03*
Y86260D02*
D03*
D44*
X168602Y82303D02*
D03*
Y77303D02*
D03*
Y72303D02*
D03*
Y67303D02*
D03*
X146358Y82303D02*
D03*
Y77303D02*
D03*
Y72303D02*
D03*
Y67303D02*
D03*
X169980Y142106D02*
D03*
Y147106D02*
D03*
Y152106D02*
D03*
Y157106D02*
D03*
X192224Y142106D02*
D03*
Y147106D02*
D03*
Y152106D02*
D03*
Y157106D02*
D03*
X247342Y82303D02*
D03*
Y77303D02*
D03*
Y72303D02*
D03*
Y67303D02*
D03*
X225098Y82303D02*
D03*
Y77303D02*
D03*
Y72303D02*
D03*
Y67303D02*
D03*
X169980Y106673D02*
D03*
Y111673D02*
D03*
Y116673D02*
D03*
Y121673D02*
D03*
X192224Y106673D02*
D03*
Y111673D02*
D03*
Y116673D02*
D03*
Y121673D02*
D03*
D45*
X333563Y169291D02*
D03*
X327854D02*
D03*
X333563Y185039D02*
D03*
X327854D02*
D03*
X333563Y177165D02*
D03*
X327854D02*
D03*
X333563Y161417D02*
D03*
X327854D02*
D03*
X333563Y153543D02*
D03*
X327854D02*
D03*
X333563Y145669D02*
D03*
X327854D02*
D03*
X333563Y137795D02*
D03*
X327854D02*
D03*
X333563Y129921D02*
D03*
X327854D02*
D03*
X333563Y122047D02*
D03*
X327854D02*
D03*
X113091Y155512D02*
D03*
X107382D02*
D03*
X113091Y240158D02*
D03*
X107382D02*
D03*
X113091Y267953D02*
D03*
X107382D02*
D03*
X113091Y307323D02*
D03*
X107382D02*
D03*
X241240Y169291D02*
D03*
X246949D02*
D03*
X205807Y204724D02*
D03*
X211516D02*
D03*
X205807Y240158D02*
D03*
X211516D02*
D03*
X205807Y275591D02*
D03*
X211516D02*
D03*
X241240Y129921D02*
D03*
X246949D02*
D03*
X205807Y311024D02*
D03*
X211516D02*
D03*
D46*
X244094Y120866D02*
D03*
Y115354D02*
D03*
X118110Y116929D02*
D03*
Y111417D02*
D03*
D47*
X143347Y267953D02*
D03*
X140118D02*
D03*
X143347Y220709D02*
D03*
X140118D02*
D03*
X246417Y342520D02*
D03*
X249646D02*
D03*
X111850Y185276D02*
D03*
X108622D02*
D03*
X140118Y173465D02*
D03*
X143347D02*
D03*
X140118Y307323D02*
D03*
X143347D02*
D03*
X140118Y208898D02*
D03*
X143347D02*
D03*
X140118Y299449D02*
D03*
X143347D02*
D03*
X188622Y240158D02*
D03*
X185394D02*
D03*
X173583Y263779D02*
D03*
X176811D02*
D03*
X237835Y318898D02*
D03*
X234606D02*
D03*
X188622Y311024D02*
D03*
X185394D02*
D03*
X173583Y192913D02*
D03*
X176811D02*
D03*
D48*
X35433Y180118D02*
D03*
Y211614D02*
D03*
Y209646D02*
D03*
Y203740D02*
D03*
Y201772D02*
D03*
Y187992D02*
D03*
Y186024D02*
D03*
Y195866D02*
D03*
Y193898D02*
D03*
Y184055D02*
D03*
Y182087D02*
D03*
Y191929D02*
D03*
Y189961D02*
D03*
Y215551D02*
D03*
Y213583D02*
D03*
Y207677D02*
D03*
Y205709D02*
D03*
Y197835D02*
D03*
Y199803D02*
D03*
D49*
X252953Y307087D02*
D03*
Y305118D02*
D03*
Y303150D02*
D03*
Y301181D02*
D03*
Y299213D02*
D03*
X235236Y307087D02*
D03*
Y305118D02*
D03*
Y303150D02*
D03*
Y301181D02*
D03*
Y299213D02*
D03*
X252953Y271654D02*
D03*
Y269685D02*
D03*
Y267717D02*
D03*
Y265748D02*
D03*
Y263779D02*
D03*
X235236Y271654D02*
D03*
Y269685D02*
D03*
Y267717D02*
D03*
Y265748D02*
D03*
Y263779D02*
D03*
X252953Y236221D02*
D03*
Y234252D02*
D03*
Y232283D02*
D03*
Y230315D02*
D03*
Y228346D02*
D03*
X235236Y236221D02*
D03*
Y234252D02*
D03*
Y232283D02*
D03*
Y230315D02*
D03*
Y228346D02*
D03*
X252953Y200787D02*
D03*
Y198819D02*
D03*
Y196850D02*
D03*
Y194882D02*
D03*
Y192913D02*
D03*
X235236Y200787D02*
D03*
Y198819D02*
D03*
Y196850D02*
D03*
Y194882D02*
D03*
Y192913D02*
D03*
D50*
X232480Y140650D02*
D03*
Y143209D02*
D03*
Y145768D02*
D03*
Y148327D02*
D03*
Y150886D02*
D03*
Y153445D02*
D03*
Y156004D02*
D03*
Y158563D02*
D03*
X255709Y140650D02*
D03*
Y143209D02*
D03*
Y145768D02*
D03*
Y148327D02*
D03*
Y150886D02*
D03*
Y153445D02*
D03*
Y156004D02*
D03*
Y158563D02*
D03*
D51*
X173602Y227658D02*
D03*
X178602D02*
D03*
X183602D02*
D03*
X188602D02*
D03*
X173602Y205413D02*
D03*
X178602D02*
D03*
X183602D02*
D03*
X188602D02*
D03*
X118484Y208209D02*
D03*
X123484D02*
D03*
X128484D02*
D03*
X133484D02*
D03*
X118484Y185965D02*
D03*
X123484D02*
D03*
X128484D02*
D03*
X133484D02*
D03*
X173602Y298524D02*
D03*
X178602D02*
D03*
X183602D02*
D03*
X188602D02*
D03*
X173602Y276279D02*
D03*
X178602D02*
D03*
X183602D02*
D03*
X188602D02*
D03*
X118484Y298760D02*
D03*
X123484D02*
D03*
X128484D02*
D03*
X133484D02*
D03*
X118484Y276516D02*
D03*
X123484D02*
D03*
X128484D02*
D03*
X133484D02*
D03*
D52*
X247835Y325984D02*
D03*
X240354D02*
D03*
X244094Y335433D02*
D03*
D53*
X356299Y231988D02*
D03*
Y238484D02*
D03*
Y195177D02*
D03*
Y188681D02*
D03*
Y202461D02*
D03*
Y208957D02*
D03*
X356299Y91240D02*
D03*
Y97736D02*
D03*
X356299Y131595D02*
D03*
Y138091D02*
D03*
X356299Y83957D02*
D03*
Y77461D02*
D03*
X267717Y130610D02*
D03*
Y137106D02*
D03*
X208661Y185728D02*
D03*
Y192224D02*
D03*
X208661Y221161D02*
D03*
Y227658D02*
D03*
Y256594D02*
D03*
Y263091D02*
D03*
Y292028D02*
D03*
Y298524D02*
D03*
M02*
