G04 Layer_Color=8388736*
%FSLAX25Y25*%
%MOIN*%
G70*
G01*
G75*
%ADD48R,0.02572X0.03950*%
%ADD49R,0.02847X0.02847*%
%ADD50R,0.03950X0.05918*%
%ADD51R,0.05918X0.03950*%
%ADD52O,0.01981X0.06312*%
%ADD53R,0.03950X0.02572*%
%ADD54R,0.02847X0.02847*%
%ADD55O,0.07296X0.03359*%
%ADD56O,0.02572X0.06312*%
%ADD57R,0.04737X0.03359*%
%ADD58C,0.20485*%
%ADD59C,0.06800*%
%ADD60C,0.07099*%
%ADD61C,0.08300*%
%ADD62C,0.10249*%
D48*
X315846Y122047D02*
D03*
X310138D02*
D03*
X225295D02*
D03*
X219587D02*
D03*
X213484D02*
D03*
X207776D02*
D03*
X184153D02*
D03*
X189862D02*
D03*
X195965D02*
D03*
X201673D02*
D03*
X286516D02*
D03*
X292224D02*
D03*
X327658D02*
D03*
X321949D02*
D03*
X298327D02*
D03*
X304035D02*
D03*
D49*
X206339Y214567D02*
D03*
X203110D02*
D03*
X145315Y228346D02*
D03*
X142087D02*
D03*
X172874Y222441D02*
D03*
X169646D02*
D03*
X172874Y228346D02*
D03*
X169646D02*
D03*
X145315Y222441D02*
D03*
X142087D02*
D03*
X227992D02*
D03*
X224764D02*
D03*
X227992Y228346D02*
D03*
X224764D02*
D03*
X255551Y222441D02*
D03*
X252323D02*
D03*
X255551Y228346D02*
D03*
X252323D02*
D03*
X75157Y169291D02*
D03*
X78386D02*
D03*
X66575D02*
D03*
X63346D02*
D03*
X71220Y208661D02*
D03*
X74449D02*
D03*
X143347Y190945D02*
D03*
X140118D02*
D03*
X143347Y185039D02*
D03*
X140118D02*
D03*
X157126Y185039D02*
D03*
X153898D02*
D03*
X170905Y190945D02*
D03*
X167677D02*
D03*
X170905Y185039D02*
D03*
X167677D02*
D03*
X184685Y185039D02*
D03*
X181457D02*
D03*
X226024Y190945D02*
D03*
X222795D02*
D03*
X226024Y185039D02*
D03*
X222795D02*
D03*
X267362Y185039D02*
D03*
X264134D02*
D03*
X239803D02*
D03*
X236575D02*
D03*
X195236Y76772D02*
D03*
X198465D02*
D03*
X297598D02*
D03*
X300827D02*
D03*
X213858Y104331D02*
D03*
X210630D02*
D03*
X316220D02*
D03*
X312992D02*
D03*
X253583Y190945D02*
D03*
X250354D02*
D03*
X253583Y185039D02*
D03*
X250354D02*
D03*
D50*
X76083Y216535D02*
D03*
X69587D02*
D03*
D51*
X61024Y297933D02*
D03*
Y304429D02*
D03*
X61024Y290650D02*
D03*
Y284154D02*
D03*
Y251279D02*
D03*
Y244783D02*
D03*
X328740Y304429D02*
D03*
Y297933D02*
D03*
X328740Y274902D02*
D03*
Y268406D02*
D03*
X328740Y254626D02*
D03*
Y261122D02*
D03*
X135827Y209941D02*
D03*
Y203445D02*
D03*
X163386Y209941D02*
D03*
Y203445D02*
D03*
X218504Y209941D02*
D03*
Y203445D02*
D03*
X246063Y209941D02*
D03*
Y203445D02*
D03*
D52*
X153543Y215551D02*
D03*
X151575D02*
D03*
X149606D02*
D03*
X147638D02*
D03*
X145669D02*
D03*
X153543Y197835D02*
D03*
X151575D02*
D03*
X149606D02*
D03*
X147638D02*
D03*
X145669D02*
D03*
X181102Y215551D02*
D03*
X179134D02*
D03*
X177165D02*
D03*
X175197D02*
D03*
X173228D02*
D03*
X181102Y197835D02*
D03*
X179134D02*
D03*
X177165D02*
D03*
X175197D02*
D03*
X173228D02*
D03*
X236221Y215551D02*
D03*
X234252D02*
D03*
X232283D02*
D03*
X230315D02*
D03*
X228346D02*
D03*
X236221Y197835D02*
D03*
X234252D02*
D03*
X232283D02*
D03*
X230315D02*
D03*
X228346D02*
D03*
X263780Y215551D02*
D03*
X261811D02*
D03*
X259842D02*
D03*
X257874D02*
D03*
X255906D02*
D03*
X263780Y197835D02*
D03*
X261811D02*
D03*
X259842D02*
D03*
X257874D02*
D03*
X255906D02*
D03*
D53*
X104331Y91437D02*
D03*
Y85728D02*
D03*
X96457D02*
D03*
Y91437D02*
D03*
X41339Y97342D02*
D03*
Y91634D02*
D03*
X49213D02*
D03*
Y97342D02*
D03*
X33465Y124902D02*
D03*
Y119193D02*
D03*
X41339D02*
D03*
Y124902D02*
D03*
X49213Y119193D02*
D03*
Y124902D02*
D03*
X112205Y118996D02*
D03*
Y113287D02*
D03*
X104331Y113287D02*
D03*
Y118996D02*
D03*
X96457Y113287D02*
D03*
Y118996D02*
D03*
X86614Y217421D02*
D03*
Y211713D02*
D03*
X61024Y217421D02*
D03*
Y211713D02*
D03*
X287402Y87697D02*
D03*
Y93405D02*
D03*
X153543Y171457D02*
D03*
Y177165D02*
D03*
X181102Y171457D02*
D03*
Y177165D02*
D03*
X263780Y171457D02*
D03*
Y177165D02*
D03*
X236221Y171457D02*
D03*
Y177165D02*
D03*
X185039Y81595D02*
D03*
Y75886D02*
D03*
Y87697D02*
D03*
Y93405D02*
D03*
X224410Y81595D02*
D03*
Y75886D02*
D03*
X224410Y87697D02*
D03*
Y93405D02*
D03*
X287402Y81595D02*
D03*
Y75886D02*
D03*
X326772Y87697D02*
D03*
Y93405D02*
D03*
Y80709D02*
D03*
Y75000D02*
D03*
X368110Y255020D02*
D03*
Y260728D02*
D03*
D54*
X94488Y98779D02*
D03*
Y102008D02*
D03*
X51181Y82323D02*
D03*
Y79094D02*
D03*
Y109882D02*
D03*
Y106653D02*
D03*
X94488Y126339D02*
D03*
Y129567D02*
D03*
Y157835D02*
D03*
Y161063D02*
D03*
X51181Y141378D02*
D03*
Y138150D02*
D03*
X190945Y199173D02*
D03*
Y202402D02*
D03*
X187008Y157835D02*
D03*
Y161063D02*
D03*
X143701Y141378D02*
D03*
Y138150D02*
D03*
X218504Y141378D02*
D03*
Y138150D02*
D03*
X185039Y100748D02*
D03*
Y103976D02*
D03*
X224410Y100748D02*
D03*
Y103976D02*
D03*
X287402Y100748D02*
D03*
Y103976D02*
D03*
X326772Y100748D02*
D03*
Y103976D02*
D03*
X261811Y157835D02*
D03*
Y161063D02*
D03*
D55*
X83957Y83051D02*
D03*
Y88051D02*
D03*
Y93051D02*
D03*
Y98051D02*
D03*
X61713Y83051D02*
D03*
Y88051D02*
D03*
Y93051D02*
D03*
Y98051D02*
D03*
X83957Y110610D02*
D03*
Y115610D02*
D03*
Y120610D02*
D03*
Y125610D02*
D03*
X61713Y110610D02*
D03*
Y115610D02*
D03*
Y120610D02*
D03*
Y125610D02*
D03*
X83957Y142106D02*
D03*
Y147106D02*
D03*
Y152106D02*
D03*
Y157106D02*
D03*
X61713Y142106D02*
D03*
Y147106D02*
D03*
Y152106D02*
D03*
Y157106D02*
D03*
X318209Y83051D02*
D03*
Y88051D02*
D03*
Y93051D02*
D03*
Y98051D02*
D03*
X295965Y83051D02*
D03*
Y88051D02*
D03*
Y93051D02*
D03*
Y98051D02*
D03*
X215846Y83051D02*
D03*
Y88051D02*
D03*
Y93051D02*
D03*
Y98051D02*
D03*
X193602Y83051D02*
D03*
Y88051D02*
D03*
Y93051D02*
D03*
Y98051D02*
D03*
X176476Y142106D02*
D03*
Y147106D02*
D03*
Y152106D02*
D03*
Y157106D02*
D03*
X154232Y142106D02*
D03*
Y147106D02*
D03*
Y152106D02*
D03*
Y157106D02*
D03*
X251279Y142106D02*
D03*
Y147106D02*
D03*
Y152106D02*
D03*
Y157106D02*
D03*
X229035Y142106D02*
D03*
Y147106D02*
D03*
Y152106D02*
D03*
Y157106D02*
D03*
D56*
X63878Y177362D02*
D03*
X66437D02*
D03*
X68996D02*
D03*
X71555D02*
D03*
X74114D02*
D03*
X76673D02*
D03*
X79232D02*
D03*
X81791D02*
D03*
X63878Y200591D02*
D03*
X66437D02*
D03*
X68996D02*
D03*
X71555D02*
D03*
X74114D02*
D03*
X76673D02*
D03*
X79232D02*
D03*
X81791D02*
D03*
D57*
X198031Y206496D02*
D03*
Y199016D02*
D03*
X207480Y202756D02*
D03*
D58*
X377953Y15748D02*
D03*
Y338583D02*
D03*
X15748D02*
D03*
Y15748D02*
D03*
D59*
X342520Y98425D02*
D03*
Y88583D02*
D03*
Y108268D02*
D03*
X271654D02*
D03*
Y88583D02*
D03*
Y98425D02*
D03*
X240158D02*
D03*
Y88583D02*
D03*
Y108268D02*
D03*
X169291D02*
D03*
Y88583D02*
D03*
Y98425D02*
D03*
D60*
X356299Y275118D02*
D03*
Y255118D02*
D03*
Y305118D02*
D03*
Y295118D02*
D03*
Y265118D02*
D03*
X33465Y293937D02*
D03*
Y303937D02*
D03*
Y243937D02*
D03*
Y253937D02*
D03*
Y283937D02*
D03*
D61*
X285276Y259150D02*
D03*
Y269150D02*
D03*
Y249150D02*
D03*
Y289150D02*
D03*
Y299150D02*
D03*
Y279150D02*
D03*
Y319150D02*
D03*
Y309150D02*
D03*
Y223150D02*
D03*
Y233150D02*
D03*
Y193150D02*
D03*
Y213150D02*
D03*
Y203150D02*
D03*
Y163150D02*
D03*
Y183150D02*
D03*
Y173150D02*
D03*
X295276Y329150D02*
D03*
Y339150D02*
D03*
X105276Y303150D02*
D03*
Y293150D02*
D03*
Y283150D02*
D03*
Y263150D02*
D03*
Y273150D02*
D03*
Y243150D02*
D03*
Y253150D02*
D03*
Y233150D02*
D03*
X115276D02*
D03*
Y253150D02*
D03*
Y243150D02*
D03*
Y263150D02*
D03*
Y203150D02*
D03*
Y213150D02*
D03*
Y193150D02*
D03*
X105276D02*
D03*
Y213150D02*
D03*
Y203150D02*
D03*
X115276Y173150D02*
D03*
Y183150D02*
D03*
Y163150D02*
D03*
X105276D02*
D03*
Y183150D02*
D03*
Y173150D02*
D03*
X295276Y163150D02*
D03*
Y183150D02*
D03*
Y173150D02*
D03*
Y193150D02*
D03*
Y213150D02*
D03*
Y203150D02*
D03*
Y223150D02*
D03*
Y233150D02*
D03*
Y319150D02*
D03*
Y309150D02*
D03*
Y289150D02*
D03*
Y299150D02*
D03*
Y279150D02*
D03*
Y259150D02*
D03*
Y269150D02*
D03*
Y249150D02*
D03*
D62*
X177165Y35433D02*
D03*
X187165Y25433D02*
D03*
X167165D02*
D03*
Y45433D02*
D03*
X187165D02*
D03*
X238347D02*
D03*
X218347D02*
D03*
Y25433D02*
D03*
X238347D02*
D03*
X228346Y35433D02*
D03*
X279528D02*
D03*
X289528Y25433D02*
D03*
X269528D02*
D03*
Y45433D02*
D03*
X289528D02*
D03*
X340709D02*
D03*
X320709D02*
D03*
Y25433D02*
D03*
X340709D02*
D03*
X330709Y35433D02*
D03*
X62992Y35433D02*
D03*
X72992Y25433D02*
D03*
X52992D02*
D03*
Y45433D02*
D03*
X72992D02*
D03*
X124173D02*
D03*
X104173D02*
D03*
Y25433D02*
D03*
X124173D02*
D03*
X114173Y35433D02*
D03*
M02*
