G04*
G04 #@! TF.GenerationSoftware,Altium Limited,Altium Designer,19.1.5 (86)*
G04*
G04 Layer_Physical_Order=2*
G04 Layer_Color=32768*
%FSLAX25Y25*%
%MOIN*%
G70*
G01*
G75*
%ADD51C,0.04000*%
%ADD52C,0.07000*%
%ADD53C,0.09906*%
G04:AMPARAMS|DCode=54|XSize=122.992mil|YSize=122.992mil|CornerRadius=0mil|HoleSize=0mil|Usage=FLASHONLY|Rotation=0.000|XOffset=0mil|YOffset=0mil|HoleType=Round|Shape=Relief|Width=10mil|Gap=10mil|Entries=4|*
%AMTHD54*
7,0,0,0.12299,0.10299,0.01000,45*
%
%ADD54THD54*%
%ADD55C,0.08331*%
G04:AMPARAMS|DCode=56|XSize=103.307mil|YSize=103.307mil|CornerRadius=0mil|HoleSize=0mil|Usage=FLASHONLY|Rotation=0.000|XOffset=0mil|YOffset=0mil|HoleType=Round|Shape=Relief|Width=10mil|Gap=10mil|Entries=4|*
%AMTHD56*
7,0,0,0.10331,0.08331,0.01000,45*
%
%ADD56THD56*%
%ADD57C,0.08000*%
G04:AMPARAMS|DCode=58|XSize=100mil|YSize=100mil|CornerRadius=0mil|HoleSize=0mil|Usage=FLASHONLY|Rotation=0.000|XOffset=0mil|YOffset=0mil|HoleType=Round|Shape=Relief|Width=10mil|Gap=10mil|Entries=4|*
%AMTHD58*
7,0,0,0.10000,0.08000,0.01000,45*
%
%ADD58THD58*%
G04:AMPARAMS|DCode=59|XSize=184.016mil|YSize=184.016mil|CornerRadius=0mil|HoleSize=0mil|Usage=FLASHONLY|Rotation=0.000|XOffset=0mil|YOffset=0mil|HoleType=Round|Shape=Relief|Width=10mil|Gap=10mil|Entries=4|*
%AMTHD59*
7,0,0,0.18402,0.16402,0.01000,45*
%
%ADD59THD59*%
%ADD60C,0.05575*%
G04:AMPARAMS|DCode=61|XSize=75.748mil|YSize=75.748mil|CornerRadius=0mil|HoleSize=0mil|Usage=FLASHONLY|Rotation=0.000|XOffset=0mil|YOffset=0mil|HoleType=Round|Shape=Relief|Width=10mil|Gap=10mil|Entries=4|*
%AMTHD61*
7,0,0,0.07575,0.05575,0.01000,45*
%
%ADD61THD61*%
%ADD62C,0.05969*%
D51*
X-0Y354331D02*
X0Y-0D01*
X-0Y354331D02*
X393701D01*
X393701Y0D01*
X0Y-0D02*
X393701Y0D01*
D52*
X169291Y98425D02*
D03*
Y88583D02*
D03*
Y108268D02*
D03*
X240158D02*
D03*
Y88583D02*
D03*
Y98425D02*
D03*
X271654D02*
D03*
Y88583D02*
D03*
Y108268D02*
D03*
X342520D02*
D03*
Y88583D02*
D03*
Y98425D02*
D03*
D53*
X114173Y35433D02*
D03*
X62992D02*
D03*
X330709Y35433D02*
D03*
X279528D02*
D03*
X228346D02*
D03*
X177165D02*
D03*
D54*
X124173Y25433D02*
D03*
X104173D02*
D03*
Y45433D02*
D03*
X124173D02*
D03*
X72992D02*
D03*
X52992D02*
D03*
Y25433D02*
D03*
X72992D02*
D03*
X340709Y25433D02*
D03*
X320709D02*
D03*
Y45433D02*
D03*
X340709D02*
D03*
X289528D02*
D03*
X269528D02*
D03*
Y25433D02*
D03*
X289528D02*
D03*
X238347D02*
D03*
X218347D02*
D03*
Y45433D02*
D03*
X238347D02*
D03*
X187165D02*
D03*
X167165D02*
D03*
Y25433D02*
D03*
X187165D02*
D03*
D55*
X33465Y283937D02*
D03*
Y243937D02*
D03*
Y303937D02*
D03*
X356299Y305118D02*
D03*
Y255118D02*
D03*
Y275118D02*
D03*
D56*
X33465Y253937D02*
D03*
Y293937D02*
D03*
X356299Y265118D02*
D03*
Y295118D02*
D03*
D57*
X295276Y249150D02*
D03*
Y269150D02*
D03*
Y259150D02*
D03*
Y279150D02*
D03*
Y299150D02*
D03*
Y289150D02*
D03*
Y319150D02*
D03*
Y233150D02*
D03*
Y223150D02*
D03*
Y203150D02*
D03*
Y213150D02*
D03*
Y193150D02*
D03*
Y173150D02*
D03*
Y183150D02*
D03*
Y163150D02*
D03*
X105276Y173150D02*
D03*
Y183150D02*
D03*
Y163150D02*
D03*
X115276D02*
D03*
Y183150D02*
D03*
Y173150D02*
D03*
X105276Y203150D02*
D03*
Y213150D02*
D03*
Y193150D02*
D03*
X115276D02*
D03*
Y213150D02*
D03*
Y203150D02*
D03*
Y263150D02*
D03*
Y243150D02*
D03*
Y253150D02*
D03*
Y233150D02*
D03*
X105276D02*
D03*
Y273150D02*
D03*
Y263150D02*
D03*
Y283150D02*
D03*
Y293150D02*
D03*
Y303150D02*
D03*
X295276Y339150D02*
D03*
Y329150D02*
D03*
X285276Y173150D02*
D03*
Y183150D02*
D03*
Y163150D02*
D03*
Y203150D02*
D03*
Y213150D02*
D03*
Y193150D02*
D03*
Y233150D02*
D03*
Y223150D02*
D03*
Y309150D02*
D03*
Y319150D02*
D03*
Y279150D02*
D03*
Y299150D02*
D03*
Y289150D02*
D03*
Y249150D02*
D03*
Y269150D02*
D03*
Y259150D02*
D03*
D58*
X295276Y309150D02*
D03*
X105276Y253150D02*
D03*
Y243150D02*
D03*
D59*
X15748Y15748D02*
D03*
Y338583D02*
D03*
X377953D02*
D03*
Y15748D02*
D03*
D60*
X247638Y230315D02*
D03*
X80709Y216535D02*
D03*
X238189Y222441D02*
D03*
X261811Y226378D02*
D03*
X151575D02*
D03*
X155512Y222441D02*
D03*
X183071D02*
D03*
X179134Y226378D02*
D03*
X265748Y222441D02*
D03*
X234252Y226378D02*
D03*
D61*
X220472Y225197D02*
D03*
X165854Y231784D02*
D03*
X138189Y225197D02*
D03*
X45669Y137008D02*
D03*
X89764Y102756D02*
D03*
X55512Y78347D02*
D03*
Y105905D02*
D03*
D62*
X145669Y231614D02*
D03*
X76635Y184547D02*
D03*
X66437Y184547D02*
D03*
X228346Y133858D02*
D03*
X204724Y122047D02*
D03*
X307087D02*
D03*
X127953Y181102D02*
D03*
X138169Y142106D02*
D03*
X198031Y193996D02*
D03*
Y188976D02*
D03*
X250689Y198819D02*
D03*
X223130D02*
D03*
X139764Y199508D02*
D03*
X207480Y218819D02*
D03*
X255906Y231614D02*
D03*
X228346D02*
D03*
X173228D02*
D03*
X215846Y109862D02*
D03*
X318209D02*
D03*
X295965Y71240D02*
D03*
X193602D02*
D03*
X69587Y223721D02*
D03*
X100020Y157106D02*
D03*
X45650Y142106D02*
D03*
X100020Y98051D02*
D03*
Y125610D02*
D03*
X45650Y110610D02*
D03*
Y83051D02*
D03*
X267342Y157106D02*
D03*
X192539Y157106D02*
D03*
X168012Y198819D02*
D03*
M02*
