G04*
G04 #@! TF.GenerationSoftware,Altium Limited,Altium Designer,19.1.5 (86)*
G04*
G04 Layer_Physical_Order=3*
G04 Layer_Color=36540*
%FSLAX25Y25*%
%MOIN*%
G70*
G01*
G75*
%ADD41C,0.07874*%
%ADD46C,0.06299*%
%ADD47C,0.07500*%
%ADD50C,0.03937*%
G36*
X370477Y346169D02*
X370510Y345957D01*
X369473Y344743D01*
X368614Y343341D01*
X367985Y341822D01*
X367601Y340222D01*
X367472Y338583D01*
X367601Y336943D01*
X367985Y335344D01*
X368614Y333824D01*
X369473Y332422D01*
X370542Y331171D01*
X371792Y330103D01*
X373194Y329244D01*
X374714Y328614D01*
X376313Y328231D01*
X377953Y328101D01*
X379592Y328231D01*
X381192Y328614D01*
X382711Y329244D01*
X384113Y330103D01*
X385327Y331139D01*
X385540Y331106D01*
X385827Y331001D01*
X385827Y23330D01*
X385540Y23224D01*
X385327Y23191D01*
X384113Y24227D01*
X382711Y25087D01*
X381192Y25716D01*
X379592Y26100D01*
X377953Y26229D01*
X376313Y26100D01*
X374714Y25716D01*
X373194Y25087D01*
X371792Y24227D01*
X370542Y23159D01*
X369473Y21909D01*
X368614Y20506D01*
X367985Y18987D01*
X367601Y17388D01*
X367472Y15748D01*
X367601Y14108D01*
X367985Y12509D01*
X368614Y10990D01*
X369473Y9587D01*
X370510Y8374D01*
X370477Y8161D01*
X370371Y7874D01*
X23330Y7874D01*
X23224Y8161D01*
X23191Y8374D01*
X24227Y9587D01*
X25087Y10990D01*
X25716Y12509D01*
X26100Y14108D01*
X26229Y15748D01*
X26100Y17388D01*
X25716Y18987D01*
X25087Y20506D01*
X24227Y21909D01*
X23159Y23159D01*
X21909Y24227D01*
X20506Y25087D01*
X18987Y25716D01*
X17388Y26100D01*
X15748Y26229D01*
X14108Y26100D01*
X12509Y25716D01*
X10990Y25087D01*
X9587Y24227D01*
X8374Y23191D01*
X8161Y23224D01*
X7874Y23330D01*
X7874Y331001D01*
X8161Y331106D01*
X8374Y331140D01*
X9587Y330103D01*
X10990Y329244D01*
X12509Y328614D01*
X14108Y328231D01*
X15748Y328101D01*
X17388Y328231D01*
X18987Y328614D01*
X20506Y329244D01*
X21909Y330103D01*
X23159Y331171D01*
X24227Y332422D01*
X25087Y333824D01*
X25716Y335344D01*
X26100Y336943D01*
X26229Y338583D01*
X26100Y340222D01*
X25716Y341822D01*
X25087Y343341D01*
X24227Y344743D01*
X23191Y345957D01*
X23224Y346170D01*
X23330Y346457D01*
X370371Y346457D01*
X370477Y346169D01*
D02*
G37*
%LPC*%
G36*
X295276Y343544D02*
X294138Y343394D01*
X293079Y342955D01*
X292169Y342257D01*
X291470Y341347D01*
X291031Y340287D01*
X290882Y339150D01*
X291031Y338012D01*
X291470Y336953D01*
X292169Y336043D01*
X293079Y335344D01*
X294138Y334905D01*
X295276Y334756D01*
X296413Y334905D01*
X297473Y335344D01*
X298382Y336043D01*
X299081Y336953D01*
X299520Y338012D01*
X299670Y339150D01*
X299520Y340287D01*
X299081Y341347D01*
X298382Y342257D01*
X297473Y342955D01*
X296413Y343394D01*
X295276Y343544D01*
D02*
G37*
G36*
Y333543D02*
X294138Y333394D01*
X293079Y332955D01*
X292169Y332257D01*
X291470Y331347D01*
X291031Y330287D01*
X290882Y329150D01*
X291031Y328012D01*
X291470Y326953D01*
X292169Y326043D01*
X293079Y325344D01*
X294138Y324905D01*
X295276Y324756D01*
X296413Y324905D01*
X297473Y325344D01*
X298382Y326043D01*
X299081Y326953D01*
X299520Y328012D01*
X299670Y329150D01*
X299520Y330287D01*
X299081Y331347D01*
X298382Y332257D01*
X297473Y332955D01*
X296413Y333394D01*
X295276Y333543D01*
D02*
G37*
G36*
Y323544D02*
X294138Y323394D01*
X293079Y322955D01*
X292169Y322257D01*
X291470Y321346D01*
X291031Y320287D01*
X290882Y319150D01*
X291031Y318012D01*
X291470Y316953D01*
X292169Y316043D01*
X293079Y315344D01*
X294138Y314905D01*
X295276Y314756D01*
X296413Y314905D01*
X297473Y315344D01*
X298382Y316043D01*
X299081Y316953D01*
X299520Y318012D01*
X299670Y319150D01*
X299520Y320287D01*
X299081Y321346D01*
X298382Y322257D01*
X297473Y322955D01*
X296413Y323394D01*
X295276Y323544D01*
D02*
G37*
G36*
X285276D02*
X284138Y323394D01*
X283079Y322955D01*
X282169Y322257D01*
X281470Y321346D01*
X281031Y320287D01*
X280882Y319150D01*
X281031Y318012D01*
X281470Y316953D01*
X282169Y316043D01*
X283079Y315344D01*
X284138Y314905D01*
X285276Y314756D01*
X286413Y314905D01*
X287473Y315344D01*
X288383Y316043D01*
X289081Y316953D01*
X289520Y318012D01*
X289669Y319150D01*
X289520Y320287D01*
X289081Y321346D01*
X288383Y322257D01*
X287473Y322955D01*
X286413Y323394D01*
X285276Y323544D01*
D02*
G37*
G36*
X356799Y309238D02*
Y305618D01*
X360419D01*
X360342Y306201D01*
X359924Y307211D01*
X359259Y308078D01*
X358392Y308743D01*
X357382Y309161D01*
X356799Y309238D01*
D02*
G37*
G36*
X355799Y309238D02*
X355216Y309161D01*
X354206Y308743D01*
X353340Y308078D01*
X352675Y307211D01*
X352256Y306201D01*
X352180Y305618D01*
X355799D01*
Y309238D01*
D02*
G37*
G36*
X295276Y313544D02*
X294138Y313394D01*
X293079Y312955D01*
X292169Y312257D01*
X291470Y311347D01*
X291031Y310287D01*
X290882Y309150D01*
X291031Y308012D01*
X291470Y306953D01*
X292169Y306043D01*
X293079Y305344D01*
X294138Y304905D01*
X295276Y304756D01*
X296413Y304905D01*
X297473Y305344D01*
X298382Y306043D01*
X299081Y306953D01*
X299520Y308012D01*
X299670Y309150D01*
X299520Y310287D01*
X299081Y311347D01*
X298382Y312257D01*
X297473Y312955D01*
X296413Y313394D01*
X295276Y313544D01*
D02*
G37*
G36*
X285276D02*
X284138Y313394D01*
X283079Y312955D01*
X282169Y312257D01*
X281470Y311347D01*
X281031Y310287D01*
X280882Y309150D01*
X281031Y308012D01*
X281470Y306953D01*
X282169Y306043D01*
X283079Y305344D01*
X284138Y304905D01*
X285276Y304756D01*
X286413Y304905D01*
X287473Y305344D01*
X288383Y306043D01*
X289081Y306953D01*
X289520Y308012D01*
X289669Y309150D01*
X289520Y310287D01*
X289081Y311347D01*
X288383Y312257D01*
X287473Y312955D01*
X286413Y313394D01*
X285276Y313544D01*
D02*
G37*
G36*
X355799Y304618D02*
X352180D01*
X352256Y304035D01*
X352675Y303025D01*
X353340Y302159D01*
X354206Y301493D01*
X355216Y301075D01*
X355799Y300998D01*
Y304618D01*
D02*
G37*
G36*
X360419D02*
X356799D01*
Y300998D01*
X357382Y301075D01*
X358392Y301493D01*
X359259Y302159D01*
X359924Y303025D01*
X360342Y304035D01*
X360419Y304618D01*
D02*
G37*
G36*
X33465Y307725D02*
X32484Y307596D01*
X31570Y307218D01*
X30786Y306616D01*
X30184Y305831D01*
X29805Y304918D01*
X29676Y303937D01*
X29805Y302957D01*
X30184Y302043D01*
X30786Y301258D01*
X31570Y300656D01*
X32484Y300278D01*
X33465Y300149D01*
X34445Y300278D01*
X35359Y300656D01*
X36143Y301258D01*
X36745Y302043D01*
X37124Y302957D01*
X37253Y303937D01*
X37124Y304918D01*
X36745Y305831D01*
X36143Y306616D01*
X35359Y307218D01*
X34445Y307596D01*
X33465Y307725D01*
D02*
G37*
G36*
X295276Y303543D02*
X294138Y303394D01*
X293079Y302955D01*
X292169Y302257D01*
X291470Y301346D01*
X291031Y300287D01*
X290882Y299150D01*
X291031Y298012D01*
X291470Y296953D01*
X292169Y296043D01*
X293079Y295344D01*
X294138Y294905D01*
X295276Y294756D01*
X296413Y294905D01*
X297473Y295344D01*
X298382Y296043D01*
X299081Y296953D01*
X299520Y298012D01*
X299670Y299150D01*
X299520Y300287D01*
X299081Y301346D01*
X298382Y302257D01*
X297473Y302955D01*
X296413Y303394D01*
X295276Y303543D01*
D02*
G37*
G36*
X285276D02*
X284138Y303394D01*
X283079Y302955D01*
X282169Y302257D01*
X281470Y301346D01*
X281031Y300287D01*
X280882Y299150D01*
X281031Y298012D01*
X281470Y296953D01*
X282169Y296043D01*
X283079Y295344D01*
X284138Y294905D01*
X285276Y294756D01*
X286413Y294905D01*
X287473Y295344D01*
X288383Y296043D01*
X289081Y296953D01*
X289520Y298012D01*
X289669Y299150D01*
X289520Y300287D01*
X289081Y301346D01*
X288383Y302257D01*
X287473Y302955D01*
X286413Y303394D01*
X285276Y303543D01*
D02*
G37*
G36*
X356299Y298906D02*
X355319Y298777D01*
X354405Y298399D01*
X353621Y297797D01*
X353018Y297012D01*
X352640Y296099D01*
X352511Y295118D01*
X352640Y294138D01*
X353018Y293224D01*
X353621Y292439D01*
X354405Y291837D01*
X355319Y291459D01*
X356299Y291330D01*
X357280Y291459D01*
X358193Y291837D01*
X358978Y292439D01*
X359580Y293224D01*
X359958Y294138D01*
X360087Y295118D01*
X359958Y296099D01*
X359580Y297012D01*
X358978Y297797D01*
X358193Y298399D01*
X357280Y298777D01*
X356299Y298906D01*
D02*
G37*
G36*
X33465Y297725D02*
X32484Y297596D01*
X31570Y297218D01*
X30786Y296616D01*
X30184Y295831D01*
X29805Y294917D01*
X29676Y293937D01*
X29805Y292956D01*
X30184Y292043D01*
X30786Y291258D01*
X31570Y290656D01*
X32484Y290278D01*
X33465Y290149D01*
X34445Y290278D01*
X35359Y290656D01*
X36143Y291258D01*
X36745Y292043D01*
X37124Y292956D01*
X37253Y293937D01*
X37124Y294917D01*
X36745Y295831D01*
X36143Y296616D01*
X35359Y297218D01*
X34445Y297596D01*
X33465Y297725D01*
D02*
G37*
G36*
X295276Y293544D02*
X294138Y293394D01*
X293079Y292955D01*
X292169Y292257D01*
X291470Y291347D01*
X291031Y290287D01*
X290882Y289150D01*
X291031Y288012D01*
X291470Y286953D01*
X292169Y286043D01*
X293079Y285344D01*
X294138Y284905D01*
X295276Y284756D01*
X296413Y284905D01*
X297473Y285344D01*
X298382Y286043D01*
X299081Y286953D01*
X299520Y288012D01*
X299670Y289150D01*
X299520Y290287D01*
X299081Y291347D01*
X298382Y292257D01*
X297473Y292955D01*
X296413Y293394D01*
X295276Y293544D01*
D02*
G37*
G36*
X285276D02*
X284138Y293394D01*
X283079Y292955D01*
X282169Y292257D01*
X281470Y291347D01*
X281031Y290287D01*
X280882Y289150D01*
X281031Y288012D01*
X281470Y286953D01*
X282169Y286043D01*
X283079Y285344D01*
X284138Y284905D01*
X285276Y284756D01*
X286413Y284905D01*
X287473Y285344D01*
X288383Y286043D01*
X289081Y286953D01*
X289520Y288012D01*
X289669Y289150D01*
X289520Y290287D01*
X289081Y291347D01*
X288383Y292257D01*
X287473Y292955D01*
X286413Y293394D01*
X285276Y293544D01*
D02*
G37*
G36*
X33465Y287725D02*
X32484Y287596D01*
X31570Y287218D01*
X30786Y286616D01*
X30184Y285831D01*
X29805Y284917D01*
X29676Y283937D01*
X29805Y282957D01*
X30184Y282043D01*
X30786Y281258D01*
X31570Y280656D01*
X32484Y280278D01*
X33465Y280149D01*
X34445Y280278D01*
X35359Y280656D01*
X36143Y281258D01*
X36745Y282043D01*
X37124Y282957D01*
X37253Y283937D01*
X37124Y284917D01*
X36745Y285831D01*
X36143Y286616D01*
X35359Y287218D01*
X34445Y287596D01*
X33465Y287725D01*
D02*
G37*
G36*
X295276Y283543D02*
X294138Y283394D01*
X293079Y282955D01*
X292169Y282257D01*
X291470Y281347D01*
X291031Y280287D01*
X290882Y279150D01*
X291031Y278012D01*
X291470Y276953D01*
X292169Y276043D01*
X293079Y275344D01*
X294138Y274905D01*
X295276Y274756D01*
X296413Y274905D01*
X297473Y275344D01*
X298382Y276043D01*
X299081Y276953D01*
X299520Y278012D01*
X299670Y279150D01*
X299520Y280287D01*
X299081Y281347D01*
X298382Y282257D01*
X297473Y282955D01*
X296413Y283394D01*
X295276Y283543D01*
D02*
G37*
G36*
X285276D02*
X284138Y283394D01*
X283079Y282955D01*
X282169Y282257D01*
X281470Y281347D01*
X281031Y280287D01*
X280882Y279150D01*
X281031Y278012D01*
X281470Y276953D01*
X282169Y276043D01*
X283079Y275344D01*
X284138Y274905D01*
X285276Y274756D01*
X286413Y274905D01*
X287473Y275344D01*
X288383Y276043D01*
X289081Y276953D01*
X289520Y278012D01*
X289669Y279150D01*
X289520Y280287D01*
X289081Y281347D01*
X288383Y282257D01*
X287473Y282955D01*
X286413Y283394D01*
X285276Y283543D01*
D02*
G37*
G36*
X295276Y273544D02*
X294138Y273394D01*
X293079Y272955D01*
X292169Y272257D01*
X291470Y271346D01*
X291031Y270287D01*
X290882Y269150D01*
X291031Y268012D01*
X291470Y266953D01*
X292169Y266043D01*
X293079Y265344D01*
X294138Y264905D01*
X295276Y264756D01*
X296413Y264905D01*
X297473Y265344D01*
X298382Y266043D01*
X299081Y266953D01*
X299520Y268012D01*
X299670Y269150D01*
X299520Y270287D01*
X299081Y271346D01*
X298382Y272257D01*
X297473Y272955D01*
X296413Y273394D01*
X295276Y273544D01*
D02*
G37*
G36*
X285276D02*
X284138Y273394D01*
X283079Y272955D01*
X282169Y272257D01*
X281470Y271346D01*
X281031Y270287D01*
X280882Y269150D01*
X281031Y268012D01*
X281470Y266953D01*
X282169Y266043D01*
X283079Y265344D01*
X284138Y264905D01*
X285276Y264756D01*
X286413Y264905D01*
X287473Y265344D01*
X288383Y266043D01*
X289081Y266953D01*
X289520Y268012D01*
X289669Y269150D01*
X289520Y270287D01*
X289081Y271346D01*
X288383Y272257D01*
X287473Y272955D01*
X286413Y273394D01*
X285276Y273544D01*
D02*
G37*
G36*
X295276Y263544D02*
X294138Y263394D01*
X293079Y262955D01*
X292169Y262257D01*
X291470Y261347D01*
X291031Y260287D01*
X290882Y259150D01*
X291031Y258012D01*
X291470Y256953D01*
X292169Y256043D01*
X293079Y255344D01*
X294138Y254905D01*
X295276Y254756D01*
X296413Y254905D01*
X297473Y255344D01*
X298382Y256043D01*
X299081Y256953D01*
X299520Y258012D01*
X299670Y259150D01*
X299520Y260287D01*
X299081Y261347D01*
X298382Y262257D01*
X297473Y262955D01*
X296413Y263394D01*
X295276Y263544D01*
D02*
G37*
G36*
X285276D02*
X284138Y263394D01*
X283079Y262955D01*
X282169Y262257D01*
X281470Y261347D01*
X281031Y260287D01*
X280882Y259150D01*
X281031Y258012D01*
X281470Y256953D01*
X282169Y256043D01*
X283079Y255344D01*
X284138Y254905D01*
X285276Y254756D01*
X286413Y254905D01*
X287473Y255344D01*
X288383Y256043D01*
X289081Y256953D01*
X289520Y258012D01*
X289669Y259150D01*
X289520Y260287D01*
X289081Y261347D01*
X288383Y262257D01*
X287473Y262955D01*
X286413Y263394D01*
X285276Y263544D01*
D02*
G37*
G36*
X33465Y257725D02*
X32484Y257596D01*
X31570Y257218D01*
X30786Y256616D01*
X30184Y255831D01*
X29805Y254918D01*
X29676Y253937D01*
X29805Y252957D01*
X30184Y252043D01*
X30786Y251258D01*
X31570Y250656D01*
X32484Y250278D01*
X33465Y250149D01*
X34445Y250278D01*
X35359Y250656D01*
X36143Y251258D01*
X36745Y252043D01*
X37124Y252957D01*
X37253Y253937D01*
X37124Y254918D01*
X36745Y255831D01*
X36143Y256616D01*
X35359Y257218D01*
X34445Y257596D01*
X33465Y257725D01*
D02*
G37*
G36*
X295276Y253543D02*
X294138Y253394D01*
X293079Y252955D01*
X292169Y252257D01*
X291470Y251346D01*
X291031Y250287D01*
X290882Y249150D01*
X291031Y248012D01*
X291470Y246953D01*
X292169Y246043D01*
X293079Y245344D01*
X294138Y244905D01*
X295276Y244756D01*
X296413Y244905D01*
X297473Y245344D01*
X298382Y246043D01*
X299081Y246953D01*
X299520Y248012D01*
X299670Y249150D01*
X299520Y250287D01*
X299081Y251346D01*
X298382Y252257D01*
X297473Y252955D01*
X296413Y253394D01*
X295276Y253543D01*
D02*
G37*
G36*
X285276D02*
X284138Y253394D01*
X283079Y252955D01*
X282169Y252257D01*
X281470Y251346D01*
X281031Y250287D01*
X280882Y249150D01*
X281031Y248012D01*
X281470Y246953D01*
X282169Y246043D01*
X283079Y245344D01*
X284138Y244905D01*
X285276Y244756D01*
X286413Y244905D01*
X287473Y245344D01*
X288383Y246043D01*
X289081Y246953D01*
X289520Y248012D01*
X289669Y249150D01*
X289520Y250287D01*
X289081Y251346D01*
X288383Y252257D01*
X287473Y252955D01*
X286413Y253394D01*
X285276Y253543D01*
D02*
G37*
G36*
X33965Y248057D02*
Y244437D01*
X37584D01*
X37507Y245020D01*
X37089Y246030D01*
X36424Y246897D01*
X35557Y247562D01*
X34548Y247980D01*
X33965Y248057D01*
D02*
G37*
G36*
X32965D02*
X32381Y247980D01*
X31372Y247562D01*
X30505Y246897D01*
X29840Y246030D01*
X29422Y245020D01*
X29345Y244437D01*
X32965D01*
Y248057D01*
D02*
G37*
G36*
X37584Y243437D02*
X33965D01*
Y239817D01*
X34548Y239894D01*
X35557Y240312D01*
X36424Y240978D01*
X37089Y241844D01*
X37507Y242854D01*
X37584Y243437D01*
D02*
G37*
G36*
X32965D02*
X29345D01*
X29422Y242854D01*
X29840Y241844D01*
X30505Y240978D01*
X31372Y240312D01*
X32381Y239894D01*
X32965Y239817D01*
Y243437D01*
D02*
G37*
G36*
X295276Y237544D02*
X294138Y237394D01*
X293079Y236955D01*
X292169Y236257D01*
X291470Y235347D01*
X291031Y234287D01*
X290882Y233150D01*
X291031Y232012D01*
X291470Y230953D01*
X292169Y230043D01*
X293079Y229344D01*
X294138Y228905D01*
X295276Y228756D01*
X296413Y228905D01*
X297473Y229344D01*
X298382Y230043D01*
X299081Y230953D01*
X299520Y232012D01*
X299670Y233150D01*
X299520Y234287D01*
X299081Y235347D01*
X298382Y236257D01*
X297473Y236955D01*
X296413Y237394D01*
X295276Y237544D01*
D02*
G37*
G36*
X285276D02*
X284138Y237394D01*
X283079Y236955D01*
X282169Y236257D01*
X281470Y235347D01*
X281031Y234287D01*
X280882Y233150D01*
X281031Y232012D01*
X281470Y230953D01*
X282169Y230043D01*
X283079Y229344D01*
X284138Y228905D01*
X285276Y228756D01*
X286413Y228905D01*
X287473Y229344D01*
X288383Y230043D01*
X289081Y230953D01*
X289520Y232012D01*
X289669Y233150D01*
X289520Y234287D01*
X289081Y235347D01*
X288383Y236257D01*
X287473Y236955D01*
X286413Y237394D01*
X285276Y237544D01*
D02*
G37*
G36*
X70087Y226649D02*
Y224220D01*
X72515D01*
X72479Y224495D01*
X72180Y225218D01*
X71704Y225838D01*
X71084Y226313D01*
X70362Y226613D01*
X70087Y226649D01*
D02*
G37*
G36*
X69087D02*
X68812Y226613D01*
X68090Y226313D01*
X67470Y225838D01*
X66994Y225218D01*
X66694Y224495D01*
X66658Y224220D01*
X69087D01*
Y226649D01*
D02*
G37*
G36*
X72515Y223220D02*
X70087D01*
Y220792D01*
X70362Y220828D01*
X71084Y221128D01*
X71704Y221603D01*
X72180Y222223D01*
X72479Y222945D01*
X72515Y223220D01*
D02*
G37*
G36*
X69087D02*
X66658D01*
X66694Y222945D01*
X66994Y222223D01*
X67470Y221603D01*
X68090Y221128D01*
X68812Y220828D01*
X69087Y220792D01*
Y223220D01*
D02*
G37*
G36*
X295276Y227543D02*
X294138Y227394D01*
X293079Y226955D01*
X292169Y226257D01*
X291470Y225346D01*
X291031Y224287D01*
X290882Y223150D01*
X291031Y222012D01*
X291470Y220953D01*
X292169Y220043D01*
X293079Y219344D01*
X294138Y218905D01*
X295276Y218756D01*
X296413Y218905D01*
X297473Y219344D01*
X298382Y220043D01*
X299081Y220953D01*
X299520Y222012D01*
X299670Y223150D01*
X299520Y224287D01*
X299081Y225346D01*
X298382Y226257D01*
X297473Y226955D01*
X296413Y227394D01*
X295276Y227543D01*
D02*
G37*
G36*
X285276D02*
X284138Y227394D01*
X283079Y226955D01*
X282169Y226257D01*
X281470Y225346D01*
X281031Y224287D01*
X280882Y223150D01*
X281031Y222012D01*
X281470Y220953D01*
X282169Y220043D01*
X283079Y219344D01*
X284138Y218905D01*
X285276Y218756D01*
X286413Y218905D01*
X287473Y219344D01*
X288383Y220043D01*
X289081Y220953D01*
X289520Y222012D01*
X289669Y223150D01*
X289520Y224287D01*
X289081Y225346D01*
X288383Y226257D01*
X287473Y226955D01*
X286413Y227394D01*
X285276Y227543D01*
D02*
G37*
G36*
X80709Y218759D02*
X79858Y218590D01*
X79136Y218108D01*
X78654Y217387D01*
X78485Y216535D01*
X78654Y215684D01*
X79136Y214963D01*
X79858Y214481D01*
X80709Y214312D01*
X81560Y214481D01*
X82281Y214963D01*
X82763Y215684D01*
X82933Y216535D01*
X82763Y217387D01*
X82281Y218108D01*
X81560Y218590D01*
X80709Y218759D01*
D02*
G37*
G36*
X275591Y335302D02*
X78740D01*
X78276Y335110D01*
X78084Y334646D01*
Y267732D01*
X78276Y267268D01*
X78740Y267076D01*
X101812D01*
X101973Y266602D01*
X101888Y266537D01*
X101127Y265545D01*
X100648Y264390D01*
X100550Y263650D01*
X105276D01*
Y262650D01*
X100550D01*
X100648Y261910D01*
X101127Y260754D01*
X101888Y259762D01*
X101973Y259697D01*
X101812Y259223D01*
X98425D01*
X97961Y259031D01*
X97769Y258567D01*
Y211286D01*
X55118Y211286D01*
X54654Y211094D01*
X54462Y210630D01*
X54462Y173556D01*
X54654Y173092D01*
X55118Y172900D01*
X100915Y172900D01*
X101031Y172012D01*
X101470Y170953D01*
X102169Y170043D01*
X103079Y169344D01*
X104138Y168905D01*
X105276Y168756D01*
X106413Y168905D01*
X107473Y169344D01*
X108382Y170043D01*
X109081Y170953D01*
X109520Y172012D01*
X109637Y172900D01*
X110915D01*
X111031Y172012D01*
X111470Y170953D01*
X112169Y170043D01*
X113079Y169344D01*
X114138Y168905D01*
X115276Y168756D01*
X116413Y168905D01*
X117473Y169344D01*
X118383Y170043D01*
X119081Y170953D01*
X119520Y172012D01*
X119637Y172900D01*
X275590Y172900D01*
X276055Y173092D01*
X276247Y173556D01*
X276247Y209974D01*
X276111Y210302D01*
X276247Y210630D01*
Y334646D01*
X276055Y335110D01*
X275591Y335302D01*
D02*
G37*
G36*
X295276Y217544D02*
X294138Y217394D01*
X293079Y216955D01*
X292169Y216257D01*
X291470Y215347D01*
X291031Y214287D01*
X290882Y213150D01*
X291031Y212012D01*
X291470Y210953D01*
X292169Y210043D01*
X293079Y209344D01*
X294138Y208905D01*
X295276Y208756D01*
X296413Y208905D01*
X297473Y209344D01*
X298382Y210043D01*
X299081Y210953D01*
X299520Y212012D01*
X299670Y213150D01*
X299520Y214287D01*
X299081Y215347D01*
X298382Y216257D01*
X297473Y216955D01*
X296413Y217394D01*
X295276Y217544D01*
D02*
G37*
G36*
X285276D02*
X284138Y217394D01*
X283079Y216955D01*
X282169Y216257D01*
X281470Y215347D01*
X281031Y214287D01*
X280882Y213150D01*
X281031Y212012D01*
X281470Y210953D01*
X282169Y210043D01*
X283079Y209344D01*
X284138Y208905D01*
X285276Y208756D01*
X286413Y208905D01*
X287473Y209344D01*
X288383Y210043D01*
X289081Y210953D01*
X289520Y212012D01*
X289669Y213150D01*
X289520Y214287D01*
X289081Y215347D01*
X288383Y216257D01*
X287473Y216955D01*
X286413Y217394D01*
X285276Y217544D01*
D02*
G37*
G36*
X295276Y207543D02*
X294138Y207394D01*
X293079Y206955D01*
X292169Y206257D01*
X291470Y205346D01*
X291031Y204287D01*
X290882Y203150D01*
X291031Y202012D01*
X291470Y200953D01*
X292169Y200043D01*
X293079Y199344D01*
X294138Y198905D01*
X295276Y198756D01*
X296413Y198905D01*
X297473Y199344D01*
X298382Y200043D01*
X299081Y200953D01*
X299520Y202012D01*
X299670Y203150D01*
X299520Y204287D01*
X299081Y205346D01*
X298382Y206257D01*
X297473Y206955D01*
X296413Y207394D01*
X295276Y207543D01*
D02*
G37*
G36*
X285276D02*
X284138Y207394D01*
X283079Y206955D01*
X282169Y206257D01*
X281470Y205346D01*
X281031Y204287D01*
X280882Y203150D01*
X281031Y202012D01*
X281470Y200953D01*
X282169Y200043D01*
X283079Y199344D01*
X284138Y198905D01*
X285276Y198756D01*
X286413Y198905D01*
X287473Y199344D01*
X288383Y200043D01*
X289081Y200953D01*
X289520Y202012D01*
X289669Y203150D01*
X289520Y204287D01*
X289081Y205346D01*
X288383Y206257D01*
X287473Y206955D01*
X286413Y207394D01*
X285276Y207543D01*
D02*
G37*
G36*
X295276Y197544D02*
X294138Y197394D01*
X293079Y196955D01*
X292169Y196257D01*
X291470Y195347D01*
X291031Y194287D01*
X290882Y193150D01*
X291031Y192012D01*
X291470Y190953D01*
X292169Y190043D01*
X293079Y189344D01*
X294138Y188905D01*
X295276Y188756D01*
X296413Y188905D01*
X297473Y189344D01*
X298382Y190043D01*
X299081Y190953D01*
X299520Y192012D01*
X299670Y193150D01*
X299520Y194287D01*
X299081Y195347D01*
X298382Y196257D01*
X297473Y196955D01*
X296413Y197394D01*
X295276Y197544D01*
D02*
G37*
G36*
X285276D02*
X284138Y197394D01*
X283079Y196955D01*
X282169Y196257D01*
X281470Y195347D01*
X281031Y194287D01*
X280882Y193150D01*
X281031Y192012D01*
X281470Y190953D01*
X282169Y190043D01*
X283079Y189344D01*
X284138Y188905D01*
X285276Y188756D01*
X286413Y188905D01*
X287473Y189344D01*
X288383Y190043D01*
X289081Y190953D01*
X289520Y192012D01*
X289669Y193150D01*
X289520Y194287D01*
X289081Y195347D01*
X288383Y196257D01*
X287473Y196955D01*
X286413Y197394D01*
X285276Y197544D01*
D02*
G37*
G36*
X295276Y187543D02*
X294138Y187394D01*
X293079Y186955D01*
X292169Y186257D01*
X291470Y185347D01*
X291031Y184287D01*
X290882Y183150D01*
X291031Y182012D01*
X291470Y180953D01*
X292169Y180043D01*
X293079Y179344D01*
X294138Y178905D01*
X295276Y178756D01*
X296413Y178905D01*
X297473Y179344D01*
X298382Y180043D01*
X299081Y180953D01*
X299520Y182012D01*
X299670Y183150D01*
X299520Y184287D01*
X299081Y185347D01*
X298382Y186257D01*
X297473Y186955D01*
X296413Y187394D01*
X295276Y187543D01*
D02*
G37*
G36*
X285276D02*
X284138Y187394D01*
X283079Y186955D01*
X282169Y186257D01*
X281470Y185347D01*
X281031Y184287D01*
X280882Y183150D01*
X281031Y182012D01*
X281470Y180953D01*
X282169Y180043D01*
X283079Y179344D01*
X284138Y178905D01*
X285276Y178756D01*
X286413Y178905D01*
X287473Y179344D01*
X288383Y180043D01*
X289081Y180953D01*
X289520Y182012D01*
X289669Y183150D01*
X289520Y184287D01*
X289081Y185347D01*
X288383Y186257D01*
X287473Y186955D01*
X286413Y187394D01*
X285276Y187543D01*
D02*
G37*
G36*
X295276Y177543D02*
X294138Y177394D01*
X293079Y176955D01*
X292169Y176257D01*
X291470Y175347D01*
X291031Y174287D01*
X290882Y173150D01*
X291031Y172012D01*
X291470Y170953D01*
X292169Y170043D01*
X293079Y169344D01*
X294138Y168905D01*
X295276Y168756D01*
X296413Y168905D01*
X297473Y169344D01*
X298382Y170043D01*
X299081Y170953D01*
X299520Y172012D01*
X299670Y173150D01*
X299520Y174287D01*
X299081Y175347D01*
X298382Y176257D01*
X297473Y176955D01*
X296413Y177394D01*
X295276Y177543D01*
D02*
G37*
G36*
X285276D02*
X284138Y177394D01*
X283079Y176955D01*
X282169Y176257D01*
X281470Y175347D01*
X281031Y174287D01*
X280882Y173150D01*
X281031Y172012D01*
X281470Y170953D01*
X282169Y170043D01*
X283079Y169344D01*
X284138Y168905D01*
X285276Y168756D01*
X286413Y168905D01*
X287473Y169344D01*
X288383Y170043D01*
X289081Y170953D01*
X289520Y172012D01*
X289669Y173150D01*
X289520Y174287D01*
X289081Y175347D01*
X288383Y176257D01*
X287473Y176955D01*
X286413Y177394D01*
X285276Y177543D01*
D02*
G37*
G36*
X295276Y167543D02*
X294138Y167394D01*
X293079Y166955D01*
X292169Y166257D01*
X291470Y165347D01*
X291031Y164287D01*
X290882Y163150D01*
X291031Y162012D01*
X291470Y160953D01*
X292169Y160043D01*
X293079Y159344D01*
X294138Y158905D01*
X295276Y158756D01*
X296413Y158905D01*
X297473Y159344D01*
X298382Y160043D01*
X299081Y160953D01*
X299520Y162012D01*
X299670Y163150D01*
X299520Y164287D01*
X299081Y165347D01*
X298382Y166257D01*
X297473Y166955D01*
X296413Y167394D01*
X295276Y167543D01*
D02*
G37*
G36*
X285276D02*
X284138Y167394D01*
X283079Y166955D01*
X282169Y166257D01*
X281470Y165347D01*
X281031Y164287D01*
X280882Y163150D01*
X281031Y162012D01*
X281470Y160953D01*
X282169Y160043D01*
X283079Y159344D01*
X284138Y158905D01*
X285276Y158756D01*
X286413Y158905D01*
X287473Y159344D01*
X288383Y160043D01*
X289081Y160953D01*
X289520Y162012D01*
X289669Y163150D01*
X289520Y164287D01*
X289081Y165347D01*
X288383Y166257D01*
X287473Y166955D01*
X286413Y167394D01*
X285276Y167543D01*
D02*
G37*
G36*
X115276D02*
X114138Y167394D01*
X113079Y166955D01*
X112169Y166257D01*
X111470Y165347D01*
X111031Y164287D01*
X110882Y163150D01*
X111031Y162012D01*
X111470Y160953D01*
X112169Y160043D01*
X113079Y159344D01*
X114138Y158905D01*
X115276Y158756D01*
X116413Y158905D01*
X117473Y159344D01*
X118383Y160043D01*
X119081Y160953D01*
X119520Y162012D01*
X119669Y163150D01*
X119520Y164287D01*
X119081Y165347D01*
X118383Y166257D01*
X117473Y166955D01*
X116413Y167394D01*
X115276Y167543D01*
D02*
G37*
G36*
X105276D02*
X104138Y167394D01*
X103079Y166955D01*
X102169Y166257D01*
X101470Y165347D01*
X101031Y164287D01*
X100882Y163150D01*
X101031Y162012D01*
X101470Y160953D01*
X102169Y160043D01*
X103079Y159344D01*
X104138Y158905D01*
X105276Y158756D01*
X106413Y158905D01*
X107473Y159344D01*
X108382Y160043D01*
X109081Y160953D01*
X109520Y162012D01*
X109669Y163150D01*
X109520Y164287D01*
X109081Y165347D01*
X108382Y166257D01*
X107473Y166955D01*
X106413Y167394D01*
X105276Y167543D01*
D02*
G37*
G36*
X100520Y160035D02*
Y157606D01*
X102948D01*
X102912Y157881D01*
X102613Y158603D01*
X102137Y159223D01*
X101517Y159699D01*
X100795Y159998D01*
X100520Y160035D01*
D02*
G37*
G36*
X99520D02*
X99245Y159998D01*
X98523Y159699D01*
X97903Y159223D01*
X97427Y158603D01*
X97128Y157881D01*
X97091Y157606D01*
X99520D01*
Y160035D01*
D02*
G37*
G36*
X193039Y160035D02*
Y157606D01*
X195468D01*
X195431Y157881D01*
X195132Y158603D01*
X194657Y159223D01*
X194036Y159699D01*
X193314Y159998D01*
X193039Y160035D01*
D02*
G37*
G36*
X192039D02*
X191764Y159998D01*
X191042Y159699D01*
X190422Y159223D01*
X189946Y158603D01*
X189647Y157881D01*
X189611Y157606D01*
X192039D01*
Y160035D01*
D02*
G37*
G36*
X267843Y160035D02*
Y157606D01*
X270271D01*
X270235Y157881D01*
X269935Y158603D01*
X269460Y159223D01*
X268840Y159699D01*
X268117Y159998D01*
X267843Y160035D01*
D02*
G37*
G36*
X266843D02*
X266568Y159998D01*
X265845Y159699D01*
X265225Y159223D01*
X264750Y158603D01*
X264450Y157881D01*
X264414Y157606D01*
X266843D01*
Y160035D01*
D02*
G37*
G36*
X102948Y156606D02*
X100520D01*
Y154178D01*
X100795Y154214D01*
X101517Y154513D01*
X102137Y154989D01*
X102613Y155609D01*
X102912Y156331D01*
X102948Y156606D01*
D02*
G37*
G36*
X99520D02*
X97091D01*
X97128Y156331D01*
X97427Y155609D01*
X97903Y154989D01*
X98523Y154513D01*
X99245Y154214D01*
X99520Y154178D01*
Y156606D01*
D02*
G37*
G36*
X195468Y156606D02*
X193039D01*
Y154178D01*
X193314Y154214D01*
X194036Y154513D01*
X194657Y154989D01*
X195132Y155609D01*
X195431Y156331D01*
X195468Y156606D01*
D02*
G37*
G36*
X192039D02*
X189611D01*
X189647Y156331D01*
X189946Y155609D01*
X190422Y154989D01*
X191042Y154513D01*
X191764Y154214D01*
X192039Y154178D01*
Y156606D01*
D02*
G37*
G36*
X270271Y156606D02*
X267843D01*
Y154178D01*
X268117Y154214D01*
X268840Y154513D01*
X269460Y154989D01*
X269935Y155609D01*
X270235Y156331D01*
X270271Y156606D01*
D02*
G37*
G36*
X266843D02*
X264414D01*
X264450Y156331D01*
X264750Y155609D01*
X265225Y154989D01*
X265845Y154513D01*
X266568Y154214D01*
X266843Y154178D01*
Y156606D01*
D02*
G37*
G36*
X100020Y128207D02*
X99348Y128119D01*
X98721Y127859D01*
X98183Y127447D01*
X97771Y126909D01*
X97511Y126282D01*
X97423Y125610D01*
X97511Y124938D01*
X97771Y124312D01*
X98183Y123774D01*
X98721Y123361D01*
X99348Y123102D01*
X100020Y123013D01*
X100692Y123102D01*
X101318Y123361D01*
X101856Y123774D01*
X102269Y124312D01*
X102528Y124938D01*
X102617Y125610D01*
X102528Y126282D01*
X102269Y126909D01*
X101856Y127447D01*
X101318Y127859D01*
X100692Y128119D01*
X100020Y128207D01*
D02*
G37*
G36*
X318709Y112791D02*
Y110362D01*
X321137D01*
X321101Y110637D01*
X320802Y111359D01*
X320326Y111979D01*
X319706Y112455D01*
X318984Y112754D01*
X318709Y112791D01*
D02*
G37*
G36*
X317709D02*
X317434Y112754D01*
X316712Y112455D01*
X316091Y111979D01*
X315616Y111359D01*
X315317Y110637D01*
X315280Y110362D01*
X317709D01*
Y112791D01*
D02*
G37*
G36*
X216347D02*
Y110362D01*
X218775D01*
X218739Y110637D01*
X218439Y111359D01*
X217964Y111979D01*
X217343Y112455D01*
X216621Y112754D01*
X216347Y112791D01*
D02*
G37*
G36*
X215347D02*
X215072Y112754D01*
X214349Y112455D01*
X213729Y111979D01*
X213253Y111359D01*
X212954Y110637D01*
X212918Y110362D01*
X215347D01*
Y112791D01*
D02*
G37*
G36*
X45650Y113207D02*
X44978Y113119D01*
X44351Y112859D01*
X43813Y112447D01*
X43400Y111909D01*
X43141Y111282D01*
X43053Y110610D01*
X43141Y109938D01*
X43400Y109312D01*
X43813Y108774D01*
X44351Y108361D01*
X44978Y108102D01*
X45650Y108013D01*
X46322Y108102D01*
X46948Y108361D01*
X47486Y108774D01*
X47899Y109312D01*
X48158Y109938D01*
X48247Y110610D01*
X48158Y111282D01*
X47899Y111909D01*
X47486Y112447D01*
X46948Y112859D01*
X46322Y113119D01*
X45650Y113207D01*
D02*
G37*
G36*
X321137Y109362D02*
X318709D01*
Y106934D01*
X318984Y106970D01*
X319706Y107269D01*
X320326Y107745D01*
X320802Y108365D01*
X321101Y109087D01*
X321137Y109362D01*
D02*
G37*
G36*
X317709D02*
X315280D01*
X315317Y109087D01*
X315616Y108365D01*
X316091Y107745D01*
X316712Y107269D01*
X317434Y106970D01*
X317709Y106934D01*
Y109362D01*
D02*
G37*
G36*
X218775D02*
X216347D01*
Y106934D01*
X216621Y106970D01*
X217343Y107269D01*
X217964Y107745D01*
X218439Y108365D01*
X218739Y109087D01*
X218775Y109362D01*
D02*
G37*
G36*
X215347D02*
X212918D01*
X212954Y109087D01*
X213253Y108365D01*
X213729Y107745D01*
X214349Y107269D01*
X215072Y106970D01*
X215347Y106934D01*
Y109362D01*
D02*
G37*
G36*
X55512Y108129D02*
X54661Y107960D01*
X53939Y107478D01*
X53457Y106756D01*
X53288Y105905D01*
X53457Y105054D01*
X53939Y104333D01*
X54661Y103851D01*
X55512Y103682D01*
X56363Y103851D01*
X57084Y104333D01*
X57566Y105054D01*
X57736Y105905D01*
X57566Y106756D01*
X57084Y107478D01*
X56363Y107960D01*
X55512Y108129D01*
D02*
G37*
G36*
X89764Y104980D02*
X88913Y104811D01*
X88191Y104328D01*
X87709Y103607D01*
X87540Y102756D01*
X87709Y101905D01*
X88191Y101183D01*
X88913Y100701D01*
X89764Y100532D01*
X90615Y100701D01*
X91336Y101183D01*
X91818Y101905D01*
X91988Y102756D01*
X91818Y103607D01*
X91336Y104328D01*
X90615Y104811D01*
X89764Y104980D01*
D02*
G37*
G36*
X100020Y100648D02*
X99348Y100560D01*
X98721Y100300D01*
X98183Y99888D01*
X97771Y99350D01*
X97511Y98723D01*
X97423Y98051D01*
X97511Y97379D01*
X97771Y96753D01*
X98183Y96215D01*
X98721Y95802D01*
X99348Y95543D01*
X100020Y95454D01*
X100692Y95543D01*
X101318Y95802D01*
X101856Y96215D01*
X102269Y96753D01*
X102528Y97379D01*
X102617Y98051D01*
X102528Y98723D01*
X102269Y99350D01*
X101856Y99888D01*
X101318Y100300D01*
X100692Y100560D01*
X100020Y100648D01*
D02*
G37*
G36*
X374016Y284121D02*
X334646Y284121D01*
X334182Y283929D01*
X333989Y283465D01*
X333989Y87270D01*
X307743D01*
Y119450D01*
X308176Y119711D01*
X308385Y119798D01*
X308923Y120211D01*
X309336Y120749D01*
X309595Y121375D01*
X309684Y122047D01*
X309595Y122719D01*
X309336Y123346D01*
X308923Y123884D01*
X308385Y124296D01*
X308176Y124383D01*
X307743Y124644D01*
Y149606D01*
X307551Y150070D01*
X307087Y150263D01*
X220472D01*
X220008Y150070D01*
X219816Y149606D01*
Y91207D01*
X205381D01*
Y119450D01*
X205814Y119711D01*
X206023Y119798D01*
X206561Y120211D01*
X206974Y120749D01*
X207233Y121375D01*
X207322Y122047D01*
X207233Y122719D01*
X206974Y123346D01*
X206561Y123884D01*
X206023Y124296D01*
X205814Y124383D01*
X205381Y124644D01*
Y149606D01*
X205188Y150070D01*
X204724Y150263D01*
X41339D01*
X40874Y150070D01*
X40682Y149606D01*
Y133858D01*
X40874Y133394D01*
X41339Y133202D01*
X117454D01*
Y59055D01*
X117646Y58591D01*
X118110Y58399D01*
X374016D01*
X374480Y58591D01*
X374672Y59055D01*
X374672Y283465D01*
X374480Y283929D01*
X374016Y284121D01*
D02*
G37*
G36*
X45650Y85648D02*
X44978Y85560D01*
X44351Y85300D01*
X43813Y84888D01*
X43400Y84350D01*
X43141Y83723D01*
X43053Y83051D01*
X43141Y82379D01*
X43400Y81753D01*
X43813Y81215D01*
X44351Y80802D01*
X44978Y80543D01*
X45650Y80454D01*
X46322Y80543D01*
X46948Y80802D01*
X47486Y81215D01*
X47899Y81753D01*
X48158Y82379D01*
X48247Y83051D01*
X48158Y83723D01*
X47899Y84350D01*
X47486Y84888D01*
X46948Y85300D01*
X46322Y85560D01*
X45650Y85648D01*
D02*
G37*
G36*
X55512Y80570D02*
X54661Y80401D01*
X53939Y79919D01*
X53457Y79198D01*
X53288Y78347D01*
X53457Y77495D01*
X53939Y76774D01*
X54661Y76292D01*
X55512Y76123D01*
X56363Y76292D01*
X57084Y76774D01*
X57566Y77495D01*
X57736Y78347D01*
X57566Y79198D01*
X57084Y79919D01*
X56363Y80401D01*
X55512Y80570D01*
D02*
G37*
G36*
X124173Y50810D02*
X122782Y50627D01*
X121485Y50089D01*
X120371Y49235D01*
X119517Y48121D01*
X118980Y46825D01*
X118797Y45433D01*
X118980Y44041D01*
X119517Y42745D01*
X120371Y41631D01*
X121485Y40777D01*
X122782Y40240D01*
X124173Y40056D01*
X125565Y40240D01*
X126862Y40777D01*
X127975Y41631D01*
X128830Y42745D01*
X129367Y44041D01*
X129550Y45433D01*
X129367Y46825D01*
X128830Y48121D01*
X127975Y49235D01*
X126862Y50089D01*
X125565Y50627D01*
X124173Y50810D01*
D02*
G37*
G36*
X104173D02*
X102782Y50627D01*
X101485Y50089D01*
X100371Y49235D01*
X99517Y48121D01*
X98980Y46825D01*
X98796Y45433D01*
X98980Y44041D01*
X99517Y42745D01*
X100371Y41631D01*
X101485Y40777D01*
X102782Y40240D01*
X104173Y40056D01*
X105565Y40240D01*
X106862Y40777D01*
X107975Y41631D01*
X108830Y42745D01*
X109367Y44041D01*
X109550Y45433D01*
X109367Y46825D01*
X108830Y48121D01*
X107975Y49235D01*
X106862Y50089D01*
X105565Y50627D01*
X104173Y50810D01*
D02*
G37*
G36*
X72992D02*
X71601Y50627D01*
X70304Y50089D01*
X69190Y49235D01*
X68336Y48121D01*
X67799Y46825D01*
X67615Y45433D01*
X67799Y44041D01*
X68336Y42745D01*
X69190Y41631D01*
X70304Y40777D01*
X71601Y40240D01*
X72992Y40056D01*
X74384Y40240D01*
X75681Y40777D01*
X76794Y41631D01*
X77649Y42745D01*
X78186Y44041D01*
X78369Y45433D01*
X78186Y46825D01*
X77649Y48121D01*
X76794Y49235D01*
X75681Y50089D01*
X74384Y50627D01*
X72992Y50810D01*
D02*
G37*
G36*
X52992D02*
X51600Y50627D01*
X50304Y50089D01*
X49190Y49235D01*
X48336Y48121D01*
X47799Y46825D01*
X47615Y45433D01*
X47799Y44041D01*
X48336Y42745D01*
X49190Y41631D01*
X50304Y40777D01*
X51600Y40240D01*
X52992Y40056D01*
X54384Y40240D01*
X55681Y40777D01*
X56794Y41631D01*
X57648Y42745D01*
X58186Y44041D01*
X58369Y45433D01*
X58186Y46825D01*
X57648Y48121D01*
X56794Y49235D01*
X55681Y50089D01*
X54384Y50627D01*
X52992Y50810D01*
D02*
G37*
G36*
X340709Y50810D02*
X339317Y50627D01*
X338020Y50089D01*
X336907Y49235D01*
X336052Y48121D01*
X335515Y46825D01*
X335332Y45433D01*
X335515Y44041D01*
X336052Y42745D01*
X336907Y41631D01*
X338020Y40777D01*
X339317Y40240D01*
X340709Y40056D01*
X342100Y40240D01*
X343397Y40777D01*
X344511Y41631D01*
X345365Y42745D01*
X345902Y44041D01*
X346085Y45433D01*
X345902Y46825D01*
X345365Y48121D01*
X344511Y49235D01*
X343397Y50089D01*
X342100Y50627D01*
X340709Y50810D01*
D02*
G37*
G36*
X320709D02*
X319317Y50627D01*
X318020Y50089D01*
X316907Y49235D01*
X316052Y48121D01*
X315515Y46825D01*
X315332Y45433D01*
X315515Y44041D01*
X316052Y42745D01*
X316907Y41631D01*
X318020Y40777D01*
X319317Y40240D01*
X320709Y40056D01*
X322100Y40240D01*
X323397Y40777D01*
X324511Y41631D01*
X325365Y42745D01*
X325902Y44041D01*
X326085Y45433D01*
X325902Y46825D01*
X325365Y48121D01*
X324511Y49235D01*
X323397Y50089D01*
X322100Y50627D01*
X320709Y50810D01*
D02*
G37*
G36*
X289528D02*
X288136Y50627D01*
X286839Y50089D01*
X285726Y49235D01*
X284871Y48121D01*
X284334Y46825D01*
X284151Y45433D01*
X284334Y44041D01*
X284871Y42745D01*
X285726Y41631D01*
X286839Y40777D01*
X288136Y40240D01*
X289528Y40056D01*
X290919Y40240D01*
X292216Y40777D01*
X293330Y41631D01*
X294184Y42745D01*
X294721Y44041D01*
X294904Y45433D01*
X294721Y46825D01*
X294184Y48121D01*
X293330Y49235D01*
X292216Y50089D01*
X290919Y50627D01*
X289528Y50810D01*
D02*
G37*
G36*
X269528D02*
X268136Y50627D01*
X266839Y50089D01*
X265726Y49235D01*
X264871Y48121D01*
X264334Y46825D01*
X264151Y45433D01*
X264334Y44041D01*
X264871Y42745D01*
X265726Y41631D01*
X266839Y40777D01*
X268136Y40240D01*
X269528Y40056D01*
X270919Y40240D01*
X272216Y40777D01*
X273329Y41631D01*
X274184Y42745D01*
X274721Y44041D01*
X274904Y45433D01*
X274721Y46825D01*
X274184Y48121D01*
X273329Y49235D01*
X272216Y50089D01*
X270919Y50627D01*
X269528Y50810D01*
D02*
G37*
G36*
X238347D02*
X236955Y50627D01*
X235658Y50089D01*
X234545Y49235D01*
X233690Y48121D01*
X233153Y46825D01*
X232970Y45433D01*
X233153Y44041D01*
X233690Y42745D01*
X234545Y41631D01*
X235658Y40777D01*
X236955Y40240D01*
X238347Y40056D01*
X239738Y40240D01*
X241035Y40777D01*
X242148Y41631D01*
X243003Y42745D01*
X243540Y44041D01*
X243723Y45433D01*
X243540Y46825D01*
X243003Y48121D01*
X242148Y49235D01*
X241035Y50089D01*
X239738Y50627D01*
X238347Y50810D01*
D02*
G37*
G36*
X218347D02*
X216955Y50627D01*
X215658Y50089D01*
X214545Y49235D01*
X213690Y48121D01*
X213153Y46825D01*
X212970Y45433D01*
X213153Y44041D01*
X213690Y42745D01*
X214545Y41631D01*
X215658Y40777D01*
X216955Y40240D01*
X218347Y40056D01*
X219738Y40240D01*
X221035Y40777D01*
X222148Y41631D01*
X223003Y42745D01*
X223540Y44041D01*
X223723Y45433D01*
X223540Y46825D01*
X223003Y48121D01*
X222148Y49235D01*
X221035Y50089D01*
X219738Y50627D01*
X218347Y50810D01*
D02*
G37*
G36*
X187165D02*
X185774Y50627D01*
X184477Y50089D01*
X183363Y49235D01*
X182509Y48121D01*
X181972Y46825D01*
X181789Y45433D01*
X181972Y44041D01*
X182509Y42745D01*
X183363Y41631D01*
X184477Y40777D01*
X185774Y40240D01*
X187165Y40056D01*
X188557Y40240D01*
X189854Y40777D01*
X190967Y41631D01*
X191822Y42745D01*
X192359Y44041D01*
X192542Y45433D01*
X192359Y46825D01*
X191822Y48121D01*
X190967Y49235D01*
X189854Y50089D01*
X188557Y50627D01*
X187165Y50810D01*
D02*
G37*
G36*
X167165D02*
X165774Y50627D01*
X164477Y50089D01*
X163364Y49235D01*
X162509Y48121D01*
X161972Y46825D01*
X161789Y45433D01*
X161972Y44041D01*
X162509Y42745D01*
X163364Y41631D01*
X164477Y40777D01*
X165774Y40240D01*
X167165Y40056D01*
X168557Y40240D01*
X169854Y40777D01*
X170967Y41631D01*
X171822Y42745D01*
X172359Y44041D01*
X172542Y45433D01*
X172359Y46825D01*
X171822Y48121D01*
X170967Y49235D01*
X169854Y50089D01*
X168557Y50627D01*
X167165Y50810D01*
D02*
G37*
G36*
X114173Y40810D02*
X112782Y40627D01*
X111485Y40089D01*
X110371Y39235D01*
X109517Y38121D01*
X108980Y36825D01*
X108797Y35433D01*
X108980Y34042D01*
X109517Y32745D01*
X110371Y31631D01*
X111485Y30777D01*
X112782Y30240D01*
X114173Y30056D01*
X115565Y30240D01*
X116862Y30777D01*
X117975Y31631D01*
X118830Y32745D01*
X119367Y34042D01*
X119550Y35433D01*
X119367Y36825D01*
X118830Y38121D01*
X117975Y39235D01*
X116862Y40089D01*
X115565Y40627D01*
X114173Y40810D01*
D02*
G37*
G36*
X62992D02*
X61601Y40627D01*
X60304Y40089D01*
X59190Y39235D01*
X58336Y38121D01*
X57799Y36825D01*
X57615Y35433D01*
X57799Y34042D01*
X58336Y32745D01*
X59190Y31631D01*
X60304Y30777D01*
X61601Y30240D01*
X62992Y30056D01*
X64384Y30240D01*
X65680Y30777D01*
X66794Y31631D01*
X67649Y32745D01*
X68186Y34042D01*
X68369Y35433D01*
X68186Y36825D01*
X67649Y38121D01*
X66794Y39235D01*
X65680Y40089D01*
X64384Y40627D01*
X62992Y40810D01*
D02*
G37*
G36*
X330709Y40810D02*
X329317Y40627D01*
X328020Y40089D01*
X326907Y39235D01*
X326052Y38121D01*
X325515Y36825D01*
X325332Y35433D01*
X325515Y34042D01*
X326052Y32745D01*
X326907Y31631D01*
X328020Y30777D01*
X329317Y30240D01*
X330709Y30056D01*
X332100Y30240D01*
X333397Y30777D01*
X334511Y31631D01*
X335365Y32745D01*
X335902Y34042D01*
X336085Y35433D01*
X335902Y36825D01*
X335365Y38121D01*
X334511Y39235D01*
X333397Y40089D01*
X332100Y40627D01*
X330709Y40810D01*
D02*
G37*
G36*
X279528D02*
X278136Y40627D01*
X276839Y40089D01*
X275726Y39235D01*
X274871Y38121D01*
X274334Y36825D01*
X274151Y35433D01*
X274334Y34042D01*
X274871Y32745D01*
X275726Y31631D01*
X276839Y30777D01*
X278136Y30240D01*
X279528Y30056D01*
X280919Y30240D01*
X282216Y30777D01*
X283330Y31631D01*
X284184Y32745D01*
X284721Y34042D01*
X284904Y35433D01*
X284721Y36825D01*
X284184Y38121D01*
X283330Y39235D01*
X282216Y40089D01*
X280919Y40627D01*
X279528Y40810D01*
D02*
G37*
G36*
X228346D02*
X226955Y40627D01*
X225658Y40089D01*
X224545Y39235D01*
X223690Y38121D01*
X223153Y36825D01*
X222970Y35433D01*
X223153Y34042D01*
X223690Y32745D01*
X224545Y31631D01*
X225658Y30777D01*
X226955Y30240D01*
X228346Y30056D01*
X229738Y30240D01*
X231035Y30777D01*
X232148Y31631D01*
X233003Y32745D01*
X233540Y34042D01*
X233723Y35433D01*
X233540Y36825D01*
X233003Y38121D01*
X232148Y39235D01*
X231035Y40089D01*
X229738Y40627D01*
X228346Y40810D01*
D02*
G37*
G36*
X177165D02*
X175774Y40627D01*
X174477Y40089D01*
X173363Y39235D01*
X172509Y38121D01*
X171972Y36825D01*
X171789Y35433D01*
X171972Y34042D01*
X172509Y32745D01*
X173363Y31631D01*
X174477Y30777D01*
X175774Y30240D01*
X177165Y30056D01*
X178557Y30240D01*
X179854Y30777D01*
X180967Y31631D01*
X181822Y32745D01*
X182359Y34042D01*
X182542Y35433D01*
X182359Y36825D01*
X181822Y38121D01*
X180967Y39235D01*
X179854Y40089D01*
X178557Y40627D01*
X177165Y40810D01*
D02*
G37*
G36*
X124173Y30810D02*
X122782Y30627D01*
X121485Y30089D01*
X120371Y29235D01*
X119517Y28121D01*
X118980Y26825D01*
X118797Y25433D01*
X118980Y24042D01*
X119517Y22745D01*
X120371Y21631D01*
X121485Y20777D01*
X122782Y20240D01*
X124173Y20056D01*
X125565Y20240D01*
X126862Y20777D01*
X127975Y21631D01*
X128830Y22745D01*
X129367Y24042D01*
X129550Y25433D01*
X129367Y26825D01*
X128830Y28121D01*
X127975Y29235D01*
X126862Y30089D01*
X125565Y30627D01*
X124173Y30810D01*
D02*
G37*
G36*
X104173D02*
X102782Y30627D01*
X101485Y30089D01*
X100371Y29235D01*
X99517Y28121D01*
X98980Y26825D01*
X98796Y25433D01*
X98980Y24042D01*
X99517Y22745D01*
X100371Y21631D01*
X101485Y20777D01*
X102782Y20240D01*
X104173Y20056D01*
X105565Y20240D01*
X106862Y20777D01*
X107975Y21631D01*
X108830Y22745D01*
X109367Y24042D01*
X109550Y25433D01*
X109367Y26825D01*
X108830Y28121D01*
X107975Y29235D01*
X106862Y30089D01*
X105565Y30627D01*
X104173Y30810D01*
D02*
G37*
G36*
X72992D02*
X71601Y30627D01*
X70304Y30089D01*
X69190Y29235D01*
X68336Y28121D01*
X67799Y26825D01*
X67615Y25433D01*
X67799Y24042D01*
X68336Y22745D01*
X69190Y21631D01*
X70304Y20777D01*
X71601Y20240D01*
X72992Y20056D01*
X74384Y20240D01*
X75681Y20777D01*
X76794Y21631D01*
X77649Y22745D01*
X78186Y24042D01*
X78369Y25433D01*
X78186Y26825D01*
X77649Y28121D01*
X76794Y29235D01*
X75681Y30089D01*
X74384Y30627D01*
X72992Y30810D01*
D02*
G37*
G36*
X52992D02*
X51600Y30627D01*
X50304Y30089D01*
X49190Y29235D01*
X48336Y28121D01*
X47799Y26825D01*
X47615Y25433D01*
X47799Y24042D01*
X48336Y22745D01*
X49190Y21631D01*
X50304Y20777D01*
X51600Y20240D01*
X52992Y20056D01*
X54384Y20240D01*
X55681Y20777D01*
X56794Y21631D01*
X57648Y22745D01*
X58186Y24042D01*
X58369Y25433D01*
X58186Y26825D01*
X57648Y28121D01*
X56794Y29235D01*
X55681Y30089D01*
X54384Y30627D01*
X52992Y30810D01*
D02*
G37*
G36*
X340709Y30810D02*
X339317Y30627D01*
X338020Y30089D01*
X336907Y29235D01*
X336052Y28121D01*
X335515Y26825D01*
X335332Y25433D01*
X335515Y24042D01*
X336052Y22745D01*
X336907Y21631D01*
X338020Y20777D01*
X339317Y20240D01*
X340709Y20056D01*
X342100Y20240D01*
X343397Y20777D01*
X344511Y21631D01*
X345365Y22745D01*
X345902Y24042D01*
X346085Y25433D01*
X345902Y26825D01*
X345365Y28121D01*
X344511Y29235D01*
X343397Y30089D01*
X342100Y30627D01*
X340709Y30810D01*
D02*
G37*
G36*
X320709D02*
X319317Y30627D01*
X318020Y30089D01*
X316907Y29235D01*
X316052Y28121D01*
X315515Y26825D01*
X315332Y25433D01*
X315515Y24042D01*
X316052Y22745D01*
X316907Y21631D01*
X318020Y20777D01*
X319317Y20240D01*
X320709Y20056D01*
X322100Y20240D01*
X323397Y20777D01*
X324511Y21631D01*
X325365Y22745D01*
X325902Y24042D01*
X326085Y25433D01*
X325902Y26825D01*
X325365Y28121D01*
X324511Y29235D01*
X323397Y30089D01*
X322100Y30627D01*
X320709Y30810D01*
D02*
G37*
G36*
X289528D02*
X288136Y30627D01*
X286839Y30089D01*
X285726Y29235D01*
X284871Y28121D01*
X284334Y26825D01*
X284151Y25433D01*
X284334Y24042D01*
X284871Y22745D01*
X285726Y21631D01*
X286839Y20777D01*
X288136Y20240D01*
X289528Y20056D01*
X290919Y20240D01*
X292216Y20777D01*
X293330Y21631D01*
X294184Y22745D01*
X294721Y24042D01*
X294904Y25433D01*
X294721Y26825D01*
X294184Y28121D01*
X293330Y29235D01*
X292216Y30089D01*
X290919Y30627D01*
X289528Y30810D01*
D02*
G37*
G36*
X269528D02*
X268136Y30627D01*
X266839Y30089D01*
X265726Y29235D01*
X264871Y28121D01*
X264334Y26825D01*
X264151Y25433D01*
X264334Y24042D01*
X264871Y22745D01*
X265726Y21631D01*
X266839Y20777D01*
X268136Y20240D01*
X269528Y20056D01*
X270919Y20240D01*
X272216Y20777D01*
X273329Y21631D01*
X274184Y22745D01*
X274721Y24042D01*
X274904Y25433D01*
X274721Y26825D01*
X274184Y28121D01*
X273329Y29235D01*
X272216Y30089D01*
X270919Y30627D01*
X269528Y30810D01*
D02*
G37*
G36*
X238347D02*
X236955Y30627D01*
X235658Y30089D01*
X234545Y29235D01*
X233690Y28121D01*
X233153Y26825D01*
X232970Y25433D01*
X233153Y24042D01*
X233690Y22745D01*
X234545Y21631D01*
X235658Y20777D01*
X236955Y20240D01*
X238347Y20056D01*
X239738Y20240D01*
X241035Y20777D01*
X242148Y21631D01*
X243003Y22745D01*
X243540Y24042D01*
X243723Y25433D01*
X243540Y26825D01*
X243003Y28121D01*
X242148Y29235D01*
X241035Y30089D01*
X239738Y30627D01*
X238347Y30810D01*
D02*
G37*
G36*
X218347D02*
X216955Y30627D01*
X215658Y30089D01*
X214545Y29235D01*
X213690Y28121D01*
X213153Y26825D01*
X212970Y25433D01*
X213153Y24042D01*
X213690Y22745D01*
X214545Y21631D01*
X215658Y20777D01*
X216955Y20240D01*
X218347Y20056D01*
X219738Y20240D01*
X221035Y20777D01*
X222148Y21631D01*
X223003Y22745D01*
X223540Y24042D01*
X223723Y25433D01*
X223540Y26825D01*
X223003Y28121D01*
X222148Y29235D01*
X221035Y30089D01*
X219738Y30627D01*
X218347Y30810D01*
D02*
G37*
G36*
X187165D02*
X185774Y30627D01*
X184477Y30089D01*
X183363Y29235D01*
X182509Y28121D01*
X181972Y26825D01*
X181789Y25433D01*
X181972Y24042D01*
X182509Y22745D01*
X183363Y21631D01*
X184477Y20777D01*
X185774Y20240D01*
X187165Y20056D01*
X188557Y20240D01*
X189854Y20777D01*
X190967Y21631D01*
X191822Y22745D01*
X192359Y24042D01*
X192542Y25433D01*
X192359Y26825D01*
X191822Y28121D01*
X190967Y29235D01*
X189854Y30089D01*
X188557Y30627D01*
X187165Y30810D01*
D02*
G37*
G36*
X167165D02*
X165774Y30627D01*
X164477Y30089D01*
X163364Y29235D01*
X162509Y28121D01*
X161972Y26825D01*
X161789Y25433D01*
X161972Y24042D01*
X162509Y22745D01*
X163364Y21631D01*
X164477Y20777D01*
X165774Y20240D01*
X167165Y20056D01*
X168557Y20240D01*
X169854Y20777D01*
X170967Y21631D01*
X171822Y22745D01*
X172359Y24042D01*
X172542Y25433D01*
X172359Y26825D01*
X171822Y28121D01*
X170967Y29235D01*
X169854Y30089D01*
X168557Y30627D01*
X167165Y30810D01*
D02*
G37*
%LPD*%
G36*
X275591Y210630D02*
X119411D01*
X119154Y211130D01*
X119520Y212012D01*
X119669Y213150D01*
X119520Y214287D01*
X119081Y215347D01*
X118383Y216257D01*
X117473Y216955D01*
X116413Y217394D01*
X115276Y217544D01*
X114138Y217394D01*
X113079Y216955D01*
X112169Y216257D01*
X111470Y215347D01*
X111031Y214287D01*
X110882Y213150D01*
X111031Y212012D01*
X111397Y211130D01*
X111140Y210630D01*
X109411D01*
X109154Y211130D01*
X109520Y212012D01*
X109669Y213150D01*
X109520Y214287D01*
X109081Y215347D01*
X108382Y216257D01*
X107473Y216955D01*
X106413Y217394D01*
X105276Y217544D01*
X104138Y217394D01*
X103079Y216955D01*
X102169Y216257D01*
X101470Y215347D01*
X101031Y214287D01*
X100882Y213150D01*
X101031Y212012D01*
X101397Y211130D01*
X101140Y210630D01*
X98425D01*
Y258567D01*
X105276D01*
X106462Y258723D01*
X107567Y259181D01*
X108516Y259909D01*
X109244Y260858D01*
X109702Y261964D01*
X109858Y263150D01*
X109702Y264336D01*
X109244Y265441D01*
X108516Y266390D01*
X107567Y267118D01*
X106462Y267576D01*
X105276Y267732D01*
X78740D01*
Y334646D01*
X275591D01*
Y210630D01*
D02*
G37*
G36*
X97769D02*
X97961Y210166D01*
X98425Y209974D01*
X101140D01*
X101236Y210014D01*
X101340Y210005D01*
X101460Y210106D01*
X101604Y210166D01*
X102034Y210131D01*
X102125Y210100D01*
X102169Y210043D01*
X103079Y209344D01*
X104138Y208905D01*
X105276Y208756D01*
X106413Y208905D01*
X107473Y209344D01*
X108382Y210043D01*
X108426Y210100D01*
X108517Y210131D01*
X108947Y210166D01*
X109092Y210106D01*
X109211Y210005D01*
X109315Y210014D01*
X109411Y209974D01*
X111140D01*
X111236Y210014D01*
X111340Y210005D01*
X111460Y210106D01*
X111604Y210166D01*
X112034Y210131D01*
X112125Y210100D01*
X112169Y210043D01*
X113079Y209344D01*
X114138Y208905D01*
X115276Y208756D01*
X116413Y208905D01*
X117473Y209344D01*
X118383Y210043D01*
X118427Y210100D01*
X118517Y210131D01*
X118947Y210166D01*
X119092Y210106D01*
X119211Y210005D01*
X119315Y210014D01*
X119411Y209974D01*
X275590D01*
X275590Y173556D01*
X119616Y173556D01*
X119520Y174287D01*
X119081Y175347D01*
X118383Y176257D01*
X117473Y176955D01*
X116413Y177394D01*
X115276Y177543D01*
X114138Y177394D01*
X113079Y176955D01*
X112169Y176257D01*
X111470Y175347D01*
X111031Y174287D01*
X110935Y173556D01*
X109616D01*
X109520Y174287D01*
X109081Y175347D01*
X108382Y176257D01*
X107473Y176955D01*
X106413Y177394D01*
X105276Y177543D01*
X104138Y177394D01*
X103079Y176955D01*
X102169Y176257D01*
X101470Y175347D01*
X101031Y174287D01*
X100935Y173556D01*
X55118Y173556D01*
X55118Y210630D01*
X97769Y210630D01*
D02*
G37*
%LPC*%
G36*
X105276Y307543D02*
X104138Y307394D01*
X103079Y306955D01*
X102169Y306257D01*
X101470Y305346D01*
X101031Y304287D01*
X100882Y303150D01*
X101031Y302012D01*
X101470Y300953D01*
X102169Y300043D01*
X103079Y299344D01*
X104138Y298905D01*
X105276Y298756D01*
X106413Y298905D01*
X107473Y299344D01*
X108382Y300043D01*
X109081Y300953D01*
X109520Y302012D01*
X109669Y303150D01*
X109520Y304287D01*
X109081Y305346D01*
X108382Y306257D01*
X107473Y306955D01*
X106413Y307394D01*
X105276Y307543D01*
D02*
G37*
G36*
X105776Y297875D02*
Y293650D01*
X110001D01*
X109903Y294390D01*
X109425Y295545D01*
X108663Y296537D01*
X107671Y297299D01*
X106516Y297777D01*
X105776Y297875D01*
D02*
G37*
G36*
X104776D02*
X104036Y297777D01*
X102880Y297299D01*
X101888Y296537D01*
X101127Y295545D01*
X100648Y294390D01*
X100550Y293650D01*
X104776D01*
Y297875D01*
D02*
G37*
G36*
X110001Y292650D02*
X105776D01*
Y288424D01*
X106516Y288522D01*
X107671Y289001D01*
X108663Y289762D01*
X109425Y290754D01*
X109903Y291910D01*
X110001Y292650D01*
D02*
G37*
G36*
X104776D02*
X100550D01*
X100648Y291910D01*
X101127Y290754D01*
X101888Y289762D01*
X102880Y289001D01*
X104036Y288522D01*
X104776Y288424D01*
Y292650D01*
D02*
G37*
G36*
X105276Y287544D02*
X104138Y287394D01*
X103079Y286955D01*
X102169Y286257D01*
X101470Y285347D01*
X101031Y284287D01*
X100882Y283150D01*
X101031Y282012D01*
X101470Y280953D01*
X102169Y280043D01*
X103079Y279344D01*
X104138Y278905D01*
X105276Y278756D01*
X106413Y278905D01*
X107473Y279344D01*
X108382Y280043D01*
X109081Y280953D01*
X109520Y282012D01*
X109669Y283150D01*
X109520Y284287D01*
X109081Y285347D01*
X108382Y286257D01*
X107473Y286955D01*
X106413Y287394D01*
X105276Y287544D01*
D02*
G37*
G36*
X105776Y277875D02*
Y273650D01*
X110001D01*
X109903Y274390D01*
X109425Y275545D01*
X108663Y276537D01*
X107671Y277299D01*
X106516Y277777D01*
X105776Y277875D01*
D02*
G37*
G36*
X104776D02*
X104036Y277777D01*
X102880Y277299D01*
X101888Y276537D01*
X101127Y275545D01*
X100648Y274390D01*
X100550Y273650D01*
X104776D01*
Y277875D01*
D02*
G37*
G36*
X110001Y272650D02*
X105776D01*
Y268424D01*
X106516Y268522D01*
X107671Y269001D01*
X108663Y269762D01*
X109425Y270754D01*
X109903Y271910D01*
X110001Y272650D01*
D02*
G37*
G36*
X104776D02*
X100550D01*
X100648Y271910D01*
X101127Y270754D01*
X101888Y269762D01*
X102880Y269001D01*
X104036Y268522D01*
X104776Y268424D01*
Y272650D01*
D02*
G37*
G36*
X115276Y267544D02*
X114138Y267394D01*
X113079Y266955D01*
X112169Y266257D01*
X111470Y265347D01*
X111031Y264287D01*
X110882Y263150D01*
X111031Y262012D01*
X111470Y260953D01*
X112169Y260043D01*
X113079Y259344D01*
X114138Y258905D01*
X115276Y258756D01*
X116413Y258905D01*
X117473Y259344D01*
X118383Y260043D01*
X119081Y260953D01*
X119520Y262012D01*
X119669Y263150D01*
X119520Y264287D01*
X119081Y265347D01*
X118383Y266257D01*
X117473Y266955D01*
X116413Y267394D01*
X115276Y267544D01*
D02*
G37*
G36*
Y257543D02*
X114138Y257394D01*
X113079Y256955D01*
X112169Y256257D01*
X111470Y255346D01*
X111031Y254287D01*
X110882Y253150D01*
X111031Y252012D01*
X111470Y250953D01*
X112169Y250043D01*
X113079Y249344D01*
X114138Y248905D01*
X115276Y248756D01*
X116413Y248905D01*
X117473Y249344D01*
X118383Y250043D01*
X119081Y250953D01*
X119520Y252012D01*
X119669Y253150D01*
X119520Y254287D01*
X119081Y255346D01*
X118383Y256257D01*
X117473Y256955D01*
X116413Y257394D01*
X115276Y257543D01*
D02*
G37*
G36*
X105276D02*
X104138Y257394D01*
X103079Y256955D01*
X102169Y256257D01*
X101470Y255346D01*
X101031Y254287D01*
X100882Y253150D01*
X101031Y252012D01*
X101470Y250953D01*
X102169Y250043D01*
X103079Y249344D01*
X104138Y248905D01*
X105276Y248756D01*
X106413Y248905D01*
X107473Y249344D01*
X108382Y250043D01*
X109081Y250953D01*
X109520Y252012D01*
X109669Y253150D01*
X109520Y254287D01*
X109081Y255346D01*
X108382Y256257D01*
X107473Y256955D01*
X106413Y257394D01*
X105276Y257543D01*
D02*
G37*
G36*
X115276Y247544D02*
X114138Y247394D01*
X113079Y246955D01*
X112169Y246257D01*
X111470Y245346D01*
X111031Y244287D01*
X110882Y243150D01*
X111031Y242012D01*
X111470Y240953D01*
X112169Y240043D01*
X113079Y239344D01*
X114138Y238905D01*
X115276Y238756D01*
X116413Y238905D01*
X117473Y239344D01*
X118383Y240043D01*
X119081Y240953D01*
X119520Y242012D01*
X119669Y243150D01*
X119520Y244287D01*
X119081Y245346D01*
X118383Y246257D01*
X117473Y246955D01*
X116413Y247394D01*
X115276Y247544D01*
D02*
G37*
G36*
X105276D02*
X104138Y247394D01*
X103079Y246955D01*
X102169Y246257D01*
X101470Y245346D01*
X101031Y244287D01*
X100882Y243150D01*
X101031Y242012D01*
X101470Y240953D01*
X102169Y240043D01*
X103079Y239344D01*
X104138Y238905D01*
X105276Y238756D01*
X106413Y238905D01*
X107473Y239344D01*
X108382Y240043D01*
X109081Y240953D01*
X109520Y242012D01*
X109669Y243150D01*
X109520Y244287D01*
X109081Y245346D01*
X108382Y246257D01*
X107473Y246955D01*
X106413Y247394D01*
X105276Y247544D01*
D02*
G37*
G36*
X256405Y234542D02*
Y232114D01*
X258834D01*
X258798Y232389D01*
X258499Y233111D01*
X258023Y233731D01*
X257403Y234207D01*
X256680Y234506D01*
X256405Y234542D01*
D02*
G37*
G36*
X255405D02*
X255131Y234506D01*
X254409Y234207D01*
X253788Y233731D01*
X253313Y233111D01*
X253013Y232389D01*
X252977Y232114D01*
X255405D01*
Y234542D01*
D02*
G37*
G36*
X228847D02*
Y232114D01*
X231275D01*
X231239Y232389D01*
X230939Y233111D01*
X230464Y233731D01*
X229843Y234207D01*
X229121Y234506D01*
X228847Y234542D01*
D02*
G37*
G36*
X227847D02*
X227572Y234506D01*
X226849Y234207D01*
X226229Y233731D01*
X225753Y233111D01*
X225454Y232389D01*
X225418Y232114D01*
X227847D01*
Y234542D01*
D02*
G37*
G36*
X173728D02*
Y232114D01*
X176157D01*
X176120Y232389D01*
X175821Y233111D01*
X175346Y233731D01*
X174725Y234207D01*
X174003Y234506D01*
X173728Y234542D01*
D02*
G37*
G36*
X172728D02*
X172453Y234506D01*
X171731Y234207D01*
X171111Y233731D01*
X170635Y233111D01*
X170336Y232389D01*
X170300Y232114D01*
X172728D01*
Y234542D01*
D02*
G37*
G36*
X146169D02*
Y232114D01*
X148598D01*
X148561Y232389D01*
X148262Y233111D01*
X147786Y233731D01*
X147166Y234207D01*
X146444Y234506D01*
X146169Y234542D01*
D02*
G37*
G36*
X145169D02*
X144894Y234506D01*
X144172Y234207D01*
X143552Y233731D01*
X143076Y233111D01*
X142777Y232389D01*
X142741Y232114D01*
X145169D01*
Y234542D01*
D02*
G37*
G36*
X165854Y234007D02*
X165003Y233838D01*
X164282Y233356D01*
X163800Y232634D01*
X163630Y231784D01*
X163800Y230932D01*
X164282Y230211D01*
X165003Y229729D01*
X165854Y229560D01*
X166705Y229729D01*
X167427Y230211D01*
X167909Y230932D01*
X168078Y231784D01*
X167909Y232634D01*
X167427Y233356D01*
X166705Y233838D01*
X165854Y234007D01*
D02*
G37*
G36*
X115276Y237544D02*
X114138Y237394D01*
X113079Y236955D01*
X112169Y236257D01*
X111470Y235347D01*
X111031Y234287D01*
X110882Y233150D01*
X111031Y232012D01*
X111470Y230953D01*
X112169Y230043D01*
X113079Y229344D01*
X114138Y228905D01*
X115276Y228756D01*
X116413Y228905D01*
X117473Y229344D01*
X118383Y230043D01*
X119081Y230953D01*
X119520Y232012D01*
X119669Y233150D01*
X119520Y234287D01*
X119081Y235347D01*
X118383Y236257D01*
X117473Y236955D01*
X116413Y237394D01*
X115276Y237544D01*
D02*
G37*
G36*
X105276D02*
X104138Y237394D01*
X103079Y236955D01*
X102169Y236257D01*
X101470Y235347D01*
X101031Y234287D01*
X100882Y233150D01*
X101031Y232012D01*
X101470Y230953D01*
X102169Y230043D01*
X103079Y229344D01*
X104138Y228905D01*
X105276Y228756D01*
X106413Y228905D01*
X107473Y229344D01*
X108382Y230043D01*
X109081Y230953D01*
X109520Y232012D01*
X109669Y233150D01*
X109520Y234287D01*
X109081Y235347D01*
X108382Y236257D01*
X107473Y236955D01*
X106413Y237394D01*
X105276Y237544D01*
D02*
G37*
G36*
X258834Y231114D02*
X256405D01*
Y228686D01*
X256680Y228722D01*
X257403Y229021D01*
X258023Y229497D01*
X258499Y230117D01*
X258798Y230839D01*
X258834Y231114D01*
D02*
G37*
G36*
X255405D02*
X252977D01*
X253013Y230839D01*
X253313Y230117D01*
X253788Y229497D01*
X254409Y229021D01*
X255131Y228722D01*
X255405Y228686D01*
Y231114D01*
D02*
G37*
G36*
X231275D02*
X228847D01*
Y228686D01*
X229121Y228722D01*
X229843Y229021D01*
X230464Y229497D01*
X230939Y230117D01*
X231239Y230839D01*
X231275Y231114D01*
D02*
G37*
G36*
X227847D02*
X225418D01*
X225454Y230839D01*
X225753Y230117D01*
X226229Y229497D01*
X226849Y229021D01*
X227572Y228722D01*
X227847Y228686D01*
Y231114D01*
D02*
G37*
G36*
X176157D02*
X173728D01*
Y228686D01*
X174003Y228722D01*
X174725Y229021D01*
X175346Y229497D01*
X175821Y230117D01*
X176120Y230839D01*
X176157Y231114D01*
D02*
G37*
G36*
X172728D02*
X170300D01*
X170336Y230839D01*
X170635Y230117D01*
X171111Y229497D01*
X171731Y229021D01*
X172453Y228722D01*
X172728Y228686D01*
Y231114D01*
D02*
G37*
G36*
X148598D02*
X146169D01*
Y228686D01*
X146444Y228722D01*
X147166Y229021D01*
X147786Y229497D01*
X148262Y230117D01*
X148561Y230839D01*
X148598Y231114D01*
D02*
G37*
G36*
X145169D02*
X142741D01*
X142777Y230839D01*
X143076Y230117D01*
X143552Y229497D01*
X144172Y229021D01*
X144894Y228722D01*
X145169Y228686D01*
Y231114D01*
D02*
G37*
G36*
X247638Y232539D02*
X246787Y232369D01*
X246065Y231887D01*
X245583Y231166D01*
X245414Y230315D01*
X245583Y229464D01*
X246065Y228743D01*
X246787Y228260D01*
X247638Y228091D01*
X248489Y228260D01*
X249210Y228743D01*
X249692Y229464D01*
X249862Y230315D01*
X249692Y231166D01*
X249210Y231887D01*
X248489Y232369D01*
X247638Y232539D01*
D02*
G37*
G36*
X261811Y228602D02*
X260960Y228432D01*
X260239Y227950D01*
X259756Y227229D01*
X259587Y226378D01*
X259756Y225527D01*
X260239Y224805D01*
X260960Y224323D01*
X261811Y224154D01*
X262662Y224323D01*
X263384Y224805D01*
X263866Y225527D01*
X264035Y226378D01*
X263866Y227229D01*
X263384Y227950D01*
X262662Y228432D01*
X261811Y228602D01*
D02*
G37*
G36*
X234252D02*
X233401Y228432D01*
X232680Y227950D01*
X232197Y227229D01*
X232028Y226378D01*
X232197Y225527D01*
X232680Y224805D01*
X233401Y224323D01*
X234252Y224154D01*
X235103Y224323D01*
X235824Y224805D01*
X236307Y225527D01*
X236476Y226378D01*
X236307Y227229D01*
X235824Y227950D01*
X235103Y228432D01*
X234252Y228602D01*
D02*
G37*
G36*
X179134D02*
X178283Y228432D01*
X177561Y227950D01*
X177079Y227229D01*
X176910Y226378D01*
X177079Y225527D01*
X177561Y224805D01*
X178283Y224323D01*
X179134Y224154D01*
X179985Y224323D01*
X180706Y224805D01*
X181188Y225527D01*
X181358Y226378D01*
X181188Y227229D01*
X180706Y227950D01*
X179985Y228432D01*
X179134Y228602D01*
D02*
G37*
G36*
X151575D02*
X150724Y228432D01*
X150002Y227950D01*
X149520Y227229D01*
X149351Y226378D01*
X149520Y225527D01*
X150002Y224805D01*
X150724Y224323D01*
X151575Y224154D01*
X152426Y224323D01*
X153147Y224805D01*
X153629Y225527D01*
X153799Y226378D01*
X153629Y227229D01*
X153147Y227950D01*
X152426Y228432D01*
X151575Y228602D01*
D02*
G37*
G36*
X220472Y227421D02*
X219621Y227251D01*
X218900Y226769D01*
X218418Y226048D01*
X218249Y225197D01*
X218418Y224346D01*
X218900Y223624D01*
X219621Y223142D01*
X220472Y222973D01*
X221323Y223142D01*
X222045Y223624D01*
X222527Y224346D01*
X222696Y225197D01*
X222527Y226048D01*
X222045Y226769D01*
X221323Y227251D01*
X220472Y227421D01*
D02*
G37*
G36*
X138189D02*
X137338Y227251D01*
X136617Y226769D01*
X136134Y226048D01*
X135965Y225197D01*
X136134Y224346D01*
X136617Y223624D01*
X137338Y223142D01*
X138189Y222973D01*
X139040Y223142D01*
X139761Y223624D01*
X140243Y224346D01*
X140413Y225197D01*
X140243Y226048D01*
X139761Y226769D01*
X139040Y227251D01*
X138189Y227421D01*
D02*
G37*
G36*
X265748Y224665D02*
X264897Y224496D01*
X264176Y224013D01*
X263693Y223292D01*
X263524Y222441D01*
X263693Y221590D01*
X264176Y220868D01*
X264897Y220386D01*
X265748Y220217D01*
X266599Y220386D01*
X267320Y220868D01*
X267803Y221590D01*
X267972Y222441D01*
X267803Y223292D01*
X267320Y224013D01*
X266599Y224496D01*
X265748Y224665D01*
D02*
G37*
G36*
X238189D02*
X237338Y224496D01*
X236616Y224013D01*
X236134Y223292D01*
X235965Y222441D01*
X236134Y221590D01*
X236616Y220868D01*
X237338Y220386D01*
X238189Y220217D01*
X239040Y220386D01*
X239761Y220868D01*
X240244Y221590D01*
X240413Y222441D01*
X240244Y223292D01*
X239761Y224013D01*
X239040Y224496D01*
X238189Y224665D01*
D02*
G37*
G36*
X183071D02*
X182220Y224496D01*
X181498Y224013D01*
X181016Y223292D01*
X180847Y222441D01*
X181016Y221590D01*
X181498Y220868D01*
X182220Y220386D01*
X183071Y220217D01*
X183922Y220386D01*
X184643Y220868D01*
X185125Y221590D01*
X185295Y222441D01*
X185125Y223292D01*
X184643Y224013D01*
X183922Y224496D01*
X183071Y224665D01*
D02*
G37*
G36*
X155512D02*
X154661Y224496D01*
X153939Y224013D01*
X153457Y223292D01*
X153288Y222441D01*
X153457Y221590D01*
X153939Y220868D01*
X154661Y220386D01*
X155512Y220217D01*
X156363Y220386D01*
X157084Y220868D01*
X157566Y221590D01*
X157736Y222441D01*
X157566Y223292D01*
X157084Y224013D01*
X156363Y224496D01*
X155512Y224665D01*
D02*
G37*
G36*
X207980Y221747D02*
Y219319D01*
X210409D01*
X210372Y219594D01*
X210073Y220316D01*
X209597Y220936D01*
X208977Y221412D01*
X208255Y221711D01*
X207980Y221747D01*
D02*
G37*
G36*
X206980D02*
X206705Y221711D01*
X205983Y221412D01*
X205363Y220936D01*
X204887Y220316D01*
X204588Y219594D01*
X204552Y219319D01*
X206980D01*
Y221747D01*
D02*
G37*
G36*
X210409Y218319D02*
X207980D01*
Y215891D01*
X208255Y215927D01*
X208977Y216226D01*
X209597Y216702D01*
X210073Y217322D01*
X210372Y218044D01*
X210409Y218319D01*
D02*
G37*
G36*
X206980D02*
X204552D01*
X204588Y218044D01*
X204887Y217322D01*
X205363Y216702D01*
X205983Y216226D01*
X206705Y215927D01*
X206980Y215891D01*
Y218319D01*
D02*
G37*
G36*
X140264Y202436D02*
Y200008D01*
X142692D01*
X142656Y200283D01*
X142357Y201005D01*
X141881Y201625D01*
X141261Y202101D01*
X140539Y202400D01*
X140264Y202436D01*
D02*
G37*
G36*
X139264D02*
X138989Y202400D01*
X138267Y202101D01*
X137647Y201625D01*
X137171Y201005D01*
X136872Y200283D01*
X136836Y200008D01*
X139264D01*
Y202436D01*
D02*
G37*
G36*
X251189Y201747D02*
Y199319D01*
X253617D01*
X253581Y199594D01*
X253282Y200316D01*
X252806Y200936D01*
X252186Y201412D01*
X251464Y201711D01*
X251189Y201747D01*
D02*
G37*
G36*
X250189D02*
X249914Y201711D01*
X249192Y201412D01*
X248572Y200936D01*
X248096Y200316D01*
X247797Y199594D01*
X247761Y199319D01*
X250189D01*
Y201747D01*
D02*
G37*
G36*
X223630D02*
Y199319D01*
X226058D01*
X226022Y199594D01*
X225723Y200316D01*
X225247Y200936D01*
X224627Y201412D01*
X223905Y201711D01*
X223630Y201747D01*
D02*
G37*
G36*
X222630D02*
X222355Y201711D01*
X221633Y201412D01*
X221013Y200936D01*
X220537Y200316D01*
X220238Y199594D01*
X220202Y199319D01*
X222630D01*
Y201747D01*
D02*
G37*
G36*
X168512D02*
Y199319D01*
X170940D01*
X170904Y199594D01*
X170605Y200316D01*
X170129Y200936D01*
X169509Y201412D01*
X168787Y201711D01*
X168512Y201747D01*
D02*
G37*
G36*
X167512D02*
X167237Y201711D01*
X166515Y201412D01*
X165895Y200936D01*
X165419Y200316D01*
X165120Y199594D01*
X165084Y199319D01*
X167512D01*
Y201747D01*
D02*
G37*
G36*
X115276Y207543D02*
X114138Y207394D01*
X113079Y206955D01*
X112169Y206257D01*
X111470Y205346D01*
X111031Y204287D01*
X110882Y203150D01*
X111031Y202012D01*
X111470Y200953D01*
X112169Y200043D01*
X113079Y199344D01*
X114138Y198905D01*
X115276Y198756D01*
X116413Y198905D01*
X117473Y199344D01*
X118383Y200043D01*
X119081Y200953D01*
X119520Y202012D01*
X119669Y203150D01*
X119520Y204287D01*
X119081Y205346D01*
X118383Y206257D01*
X117473Y206955D01*
X116413Y207394D01*
X115276Y207543D01*
D02*
G37*
G36*
X105276D02*
X104138Y207394D01*
X103079Y206955D01*
X102169Y206257D01*
X101470Y205346D01*
X101031Y204287D01*
X100882Y203150D01*
X101031Y202012D01*
X101470Y200953D01*
X102169Y200043D01*
X103079Y199344D01*
X104138Y198905D01*
X105276Y198756D01*
X106413Y198905D01*
X107473Y199344D01*
X108382Y200043D01*
X109081Y200953D01*
X109520Y202012D01*
X109669Y203150D01*
X109520Y204287D01*
X109081Y205346D01*
X108382Y206257D01*
X107473Y206955D01*
X106413Y207394D01*
X105276Y207543D01*
D02*
G37*
G36*
X142692Y199008D02*
X140264D01*
Y196580D01*
X140539Y196616D01*
X141261Y196915D01*
X141881Y197391D01*
X142357Y198011D01*
X142656Y198733D01*
X142692Y199008D01*
D02*
G37*
G36*
X139264D02*
X136836D01*
X136872Y198733D01*
X137171Y198011D01*
X137647Y197391D01*
X138267Y196915D01*
X138989Y196616D01*
X139264Y196580D01*
Y199008D01*
D02*
G37*
G36*
X253617Y198319D02*
X251189D01*
Y195891D01*
X251464Y195927D01*
X252186Y196226D01*
X252806Y196702D01*
X253282Y197322D01*
X253581Y198044D01*
X253617Y198319D01*
D02*
G37*
G36*
X250189D02*
X247761D01*
X247797Y198044D01*
X248096Y197322D01*
X248572Y196702D01*
X249192Y196226D01*
X249914Y195927D01*
X250189Y195891D01*
Y198319D01*
D02*
G37*
G36*
X226058D02*
X223630D01*
Y195891D01*
X223905Y195927D01*
X224627Y196226D01*
X225247Y196702D01*
X225723Y197322D01*
X226022Y198044D01*
X226058Y198319D01*
D02*
G37*
G36*
X222630D02*
X220202D01*
X220238Y198044D01*
X220537Y197322D01*
X221013Y196702D01*
X221633Y196226D01*
X222355Y195927D01*
X222630Y195891D01*
Y198319D01*
D02*
G37*
G36*
X170940D02*
X168512D01*
Y195891D01*
X168787Y195927D01*
X169509Y196226D01*
X170129Y196702D01*
X170605Y197322D01*
X170904Y198044D01*
X170940Y198319D01*
D02*
G37*
G36*
X167512D02*
X165084D01*
X165120Y198044D01*
X165419Y197322D01*
X165895Y196702D01*
X166515Y196226D01*
X167237Y195927D01*
X167512Y195891D01*
Y198319D01*
D02*
G37*
G36*
X198531Y196924D02*
Y194496D01*
X200960D01*
X200924Y194771D01*
X200624Y195493D01*
X200149Y196113D01*
X199529Y196589D01*
X198806Y196888D01*
X198531Y196924D01*
D02*
G37*
G36*
X197531D02*
X197257Y196888D01*
X196534Y196589D01*
X195914Y196113D01*
X195439Y195493D01*
X195139Y194771D01*
X195103Y194496D01*
X197531D01*
Y196924D01*
D02*
G37*
G36*
X200960Y193496D02*
X195103D01*
X195139Y193221D01*
X195439Y192499D01*
X195914Y191879D01*
X196100Y191736D01*
Y191236D01*
X195914Y191094D01*
X195439Y190473D01*
X195139Y189751D01*
X195103Y189476D01*
X200960D01*
X200924Y189751D01*
X200624Y190473D01*
X200149Y191094D01*
X199963Y191236D01*
Y191736D01*
X200149Y191879D01*
X200624Y192499D01*
X200924Y193221D01*
X200960Y193496D01*
D02*
G37*
G36*
X115276Y197544D02*
X114138Y197394D01*
X113079Y196955D01*
X112169Y196257D01*
X111470Y195347D01*
X111031Y194287D01*
X110882Y193150D01*
X111031Y192012D01*
X111470Y190953D01*
X112169Y190043D01*
X113079Y189344D01*
X114138Y188905D01*
X115276Y188756D01*
X116413Y188905D01*
X117473Y189344D01*
X118383Y190043D01*
X119081Y190953D01*
X119520Y192012D01*
X119669Y193150D01*
X119520Y194287D01*
X119081Y195347D01*
X118383Y196257D01*
X117473Y196955D01*
X116413Y197394D01*
X115276Y197544D01*
D02*
G37*
G36*
X105276D02*
X104138Y197394D01*
X103079Y196955D01*
X102169Y196257D01*
X101470Y195347D01*
X101031Y194287D01*
X100882Y193150D01*
X101031Y192012D01*
X101470Y190953D01*
X102169Y190043D01*
X103079Y189344D01*
X104138Y188905D01*
X105276Y188756D01*
X106413Y188905D01*
X107473Y189344D01*
X108382Y190043D01*
X109081Y190953D01*
X109520Y192012D01*
X109669Y193150D01*
X109520Y194287D01*
X109081Y195347D01*
X108382Y196257D01*
X107473Y196955D01*
X106413Y197394D01*
X105276Y197544D01*
D02*
G37*
G36*
X200960Y188476D02*
X198531D01*
Y186048D01*
X198806Y186084D01*
X199529Y186383D01*
X200149Y186859D01*
X200624Y187479D01*
X200924Y188201D01*
X200960Y188476D01*
D02*
G37*
G36*
X197531D02*
X195103D01*
X195139Y188201D01*
X195439Y187479D01*
X195914Y186859D01*
X196534Y186383D01*
X197257Y186084D01*
X197531Y186048D01*
Y188476D01*
D02*
G37*
G36*
X66937Y187476D02*
Y185047D01*
X69365D01*
X69329Y185322D01*
X69030Y186044D01*
X68554Y186664D01*
X67934Y187140D01*
X67212Y187439D01*
X66937Y187476D01*
D02*
G37*
G36*
X65937D02*
X65662Y187439D01*
X64940Y187140D01*
X64320Y186664D01*
X63844Y186044D01*
X63545Y185322D01*
X63509Y185047D01*
X65937D01*
Y187476D01*
D02*
G37*
G36*
X77135Y187476D02*
Y185047D01*
X79564D01*
X79527Y185322D01*
X79228Y186044D01*
X78752Y186664D01*
X78132Y187140D01*
X77410Y187439D01*
X77135Y187476D01*
D02*
G37*
G36*
X76135D02*
X75860Y187439D01*
X75138Y187140D01*
X74518Y186664D01*
X74042Y186044D01*
X73743Y185322D01*
X73707Y185047D01*
X76135D01*
Y187476D01*
D02*
G37*
G36*
X69365Y184047D02*
X66937D01*
Y181619D01*
X67212Y181655D01*
X67934Y181954D01*
X68554Y182430D01*
X69030Y183050D01*
X69329Y183772D01*
X69365Y184047D01*
D02*
G37*
G36*
X65937D02*
X63509D01*
X63545Y183772D01*
X63844Y183050D01*
X64320Y182430D01*
X64940Y181954D01*
X65662Y181655D01*
X65937Y181619D01*
Y184047D01*
D02*
G37*
G36*
X79564Y184047D02*
X77135D01*
Y181619D01*
X77410Y181655D01*
X78132Y181954D01*
X78752Y182430D01*
X79228Y183050D01*
X79527Y183772D01*
X79564Y184047D01*
D02*
G37*
G36*
X76135D02*
X73707D01*
X73743Y183772D01*
X74042Y183050D01*
X74518Y182430D01*
X75138Y181954D01*
X75860Y181655D01*
X76135Y181619D01*
Y184047D01*
D02*
G37*
G36*
X128453Y184031D02*
Y181602D01*
X130881D01*
X130845Y181877D01*
X130546Y182599D01*
X130070Y183220D01*
X129450Y183695D01*
X128728Y183994D01*
X128453Y184031D01*
D02*
G37*
G36*
X127453D02*
X127178Y183994D01*
X126456Y183695D01*
X125836Y183220D01*
X125360Y182599D01*
X125061Y181877D01*
X125024Y181602D01*
X127453D01*
Y184031D01*
D02*
G37*
G36*
X115276Y187543D02*
X114138Y187394D01*
X113079Y186955D01*
X112169Y186257D01*
X111470Y185347D01*
X111031Y184287D01*
X110882Y183150D01*
X111031Y182012D01*
X111470Y180953D01*
X112169Y180043D01*
X113079Y179344D01*
X114138Y178905D01*
X115276Y178756D01*
X116413Y178905D01*
X117473Y179344D01*
X118383Y180043D01*
X119081Y180953D01*
X119520Y182012D01*
X119669Y183150D01*
X119520Y184287D01*
X119081Y185347D01*
X118383Y186257D01*
X117473Y186955D01*
X116413Y187394D01*
X115276Y187543D01*
D02*
G37*
G36*
X105276D02*
X104138Y187394D01*
X103079Y186955D01*
X102169Y186257D01*
X101470Y185347D01*
X101031Y184287D01*
X100882Y183150D01*
X101031Y182012D01*
X101470Y180953D01*
X102169Y180043D01*
X103079Y179344D01*
X104138Y178905D01*
X105276Y178756D01*
X106413Y178905D01*
X107473Y179344D01*
X108382Y180043D01*
X109081Y180953D01*
X109520Y182012D01*
X109669Y183150D01*
X109520Y184287D01*
X109081Y185347D01*
X108382Y186257D01*
X107473Y186955D01*
X106413Y187394D01*
X105276Y187543D01*
D02*
G37*
G36*
X130881Y180602D02*
X128453D01*
Y178174D01*
X128728Y178210D01*
X129450Y178509D01*
X130070Y178985D01*
X130546Y179605D01*
X130845Y180327D01*
X130881Y180602D01*
D02*
G37*
G36*
X127453D02*
X125024D01*
X125061Y180327D01*
X125360Y179605D01*
X125836Y178985D01*
X126456Y178509D01*
X127178Y178210D01*
X127453Y178174D01*
Y180602D01*
D02*
G37*
%LPD*%
G36*
X374016Y59055D02*
X118110D01*
Y133858D01*
X41339D01*
Y149606D01*
X204724D01*
Y124644D01*
X204052Y124556D01*
X203426Y124296D01*
X202888Y123884D01*
X202475Y123346D01*
X202216Y122719D01*
X202127Y122047D01*
X202216Y121375D01*
X202475Y120749D01*
X202888Y120211D01*
X203426Y119798D01*
X204052Y119539D01*
X204724Y119450D01*
Y90551D01*
X220472D01*
Y149606D01*
X307087D01*
Y124644D01*
X306415Y124556D01*
X305788Y124296D01*
X305250Y123884D01*
X304837Y123346D01*
X304578Y122719D01*
X304490Y122047D01*
X304578Y121375D01*
X304837Y120749D01*
X305250Y120211D01*
X305788Y119798D01*
X306415Y119539D01*
X307087Y119450D01*
Y86614D01*
X334646D01*
X334646Y283465D01*
X374016Y283465D01*
X374016Y59055D01*
D02*
G37*
%LPC*%
G36*
X356799Y279238D02*
Y275618D01*
X360419D01*
X360342Y276201D01*
X359924Y277211D01*
X359259Y278078D01*
X358392Y278743D01*
X357382Y279161D01*
X356799Y279238D01*
D02*
G37*
G36*
X355799Y279238D02*
X355216Y279161D01*
X354206Y278743D01*
X353340Y278078D01*
X352675Y277211D01*
X352256Y276201D01*
X352180Y275618D01*
X355799D01*
Y279238D01*
D02*
G37*
G36*
Y274618D02*
X352180D01*
X352256Y274035D01*
X352675Y273025D01*
X353340Y272159D01*
X354206Y271493D01*
X355216Y271075D01*
X355799Y270999D01*
Y274618D01*
D02*
G37*
G36*
X360419D02*
X356799D01*
Y270999D01*
X357382Y271075D01*
X358392Y271493D01*
X359259Y272159D01*
X359924Y273025D01*
X360342Y274035D01*
X360419Y274618D01*
D02*
G37*
G36*
X356299Y268906D02*
X355319Y268777D01*
X354405Y268399D01*
X353621Y267797D01*
X353018Y267012D01*
X352640Y266099D01*
X352511Y265118D01*
X352640Y264138D01*
X353018Y263224D01*
X353621Y262439D01*
X354405Y261837D01*
X355319Y261459D01*
X356299Y261330D01*
X357280Y261459D01*
X358193Y261837D01*
X358978Y262439D01*
X359580Y263224D01*
X359958Y264138D01*
X360087Y265118D01*
X359958Y266099D01*
X359580Y267012D01*
X358978Y267797D01*
X358193Y268399D01*
X357280Y268777D01*
X356299Y268906D01*
D02*
G37*
G36*
Y258906D02*
X355319Y258777D01*
X354405Y258399D01*
X353621Y257797D01*
X353018Y257012D01*
X352640Y256099D01*
X352511Y255118D01*
X352640Y254138D01*
X353018Y253224D01*
X353621Y252439D01*
X354405Y251837D01*
X355319Y251459D01*
X356299Y251330D01*
X357280Y251459D01*
X358193Y251837D01*
X358978Y252439D01*
X359580Y253224D01*
X359958Y254138D01*
X360087Y255118D01*
X359958Y256099D01*
X359580Y257012D01*
X358978Y257797D01*
X358193Y258399D01*
X357280Y258777D01*
X356299Y258906D01*
D02*
G37*
G36*
X46150Y145035D02*
Y142606D01*
X48578D01*
X48542Y142881D01*
X48243Y143603D01*
X47767Y144223D01*
X47147Y144699D01*
X46425Y144998D01*
X46150Y145035D01*
D02*
G37*
G36*
X45150D02*
X44875Y144998D01*
X44153Y144699D01*
X43532Y144223D01*
X43057Y143603D01*
X42757Y142881D01*
X42721Y142606D01*
X45150D01*
Y145035D01*
D02*
G37*
G36*
X138669Y145035D02*
Y142606D01*
X141098D01*
X141061Y142881D01*
X140762Y143603D01*
X140287Y144223D01*
X139666Y144699D01*
X138944Y144998D01*
X138669Y145035D01*
D02*
G37*
G36*
X137669D02*
X137394Y144998D01*
X136672Y144699D01*
X136052Y144223D01*
X135576Y143603D01*
X135277Y142881D01*
X135241Y142606D01*
X137669D01*
Y145035D01*
D02*
G37*
G36*
X141098Y141606D02*
X138669D01*
Y139178D01*
X138944Y139214D01*
X139666Y139513D01*
X140287Y139989D01*
X140762Y140609D01*
X141061Y141331D01*
X141098Y141606D01*
D02*
G37*
G36*
X137669D02*
X135241D01*
X135277Y141331D01*
X135576Y140609D01*
X136052Y139989D01*
X136672Y139513D01*
X137394Y139214D01*
X137669Y139178D01*
Y141606D01*
D02*
G37*
G36*
X48578Y141606D02*
X42721D01*
X42757Y141331D01*
X43057Y140609D01*
X43532Y139989D01*
X44153Y139513D01*
X44425Y139401D01*
X44480Y138837D01*
X44097Y138580D01*
X43615Y137859D01*
X43446Y137008D01*
X43615Y136157D01*
X44097Y135435D01*
X44818Y134953D01*
X45669Y134784D01*
X46520Y134953D01*
X47242Y135435D01*
X47724Y136157D01*
X47893Y137008D01*
X47724Y137859D01*
X47242Y138580D01*
X46843Y138847D01*
X46899Y139411D01*
X47147Y139513D01*
X47767Y139989D01*
X48243Y140609D01*
X48542Y141331D01*
X48578Y141606D01*
D02*
G37*
G36*
X228847Y136787D02*
Y134358D01*
X231275D01*
X231239Y134633D01*
X230939Y135355D01*
X230464Y135975D01*
X229843Y136451D01*
X229121Y136750D01*
X228847Y136787D01*
D02*
G37*
G36*
X227847D02*
X227572Y136750D01*
X226849Y136451D01*
X226229Y135975D01*
X225753Y135355D01*
X225454Y134633D01*
X225418Y134358D01*
X227847D01*
Y136787D01*
D02*
G37*
G36*
X231275Y133358D02*
X228847D01*
Y130930D01*
X229121Y130966D01*
X229843Y131265D01*
X230464Y131741D01*
X230939Y132361D01*
X231239Y133083D01*
X231275Y133358D01*
D02*
G37*
G36*
X227847D02*
X225418D01*
X225454Y133083D01*
X225753Y132361D01*
X226229Y131741D01*
X226849Y131265D01*
X227572Y130966D01*
X227847Y130930D01*
Y133358D01*
D02*
G37*
G36*
X342520Y111905D02*
X341578Y111781D01*
X340701Y111418D01*
X339948Y110840D01*
X339370Y110086D01*
X339006Y109209D01*
X338882Y108268D01*
X339006Y107326D01*
X339370Y106449D01*
X339948Y105696D01*
X340701Y105118D01*
X341578Y104754D01*
X342520Y104630D01*
X343461Y104754D01*
X344338Y105118D01*
X345092Y105696D01*
X345670Y106449D01*
X346033Y107326D01*
X346157Y108268D01*
X346033Y109209D01*
X345670Y110086D01*
X345092Y110840D01*
X344338Y111418D01*
X343461Y111781D01*
X342520Y111905D01*
D02*
G37*
G36*
X271654D02*
X270712Y111781D01*
X269835Y111418D01*
X269081Y110840D01*
X268503Y110086D01*
X268140Y109209D01*
X268016Y108268D01*
X268140Y107326D01*
X268503Y106449D01*
X269081Y105696D01*
X269835Y105118D01*
X270712Y104754D01*
X271654Y104630D01*
X272595Y104754D01*
X273472Y105118D01*
X274226Y105696D01*
X274804Y106449D01*
X275167Y107326D01*
X275291Y108268D01*
X275167Y109209D01*
X274804Y110086D01*
X274226Y110840D01*
X273472Y111418D01*
X272595Y111781D01*
X271654Y111905D01*
D02*
G37*
G36*
X240158D02*
X239216Y111781D01*
X238339Y111418D01*
X237585Y110840D01*
X237007Y110086D01*
X236644Y109209D01*
X236520Y108268D01*
X236644Y107326D01*
X237007Y106449D01*
X237585Y105696D01*
X238339Y105118D01*
X239216Y104754D01*
X240158Y104630D01*
X241099Y104754D01*
X241976Y105118D01*
X242729Y105696D01*
X243308Y106449D01*
X243671Y107326D01*
X243795Y108268D01*
X243671Y109209D01*
X243308Y110086D01*
X242729Y110840D01*
X241976Y111418D01*
X241099Y111781D01*
X240158Y111905D01*
D02*
G37*
G36*
X169291D02*
X168350Y111781D01*
X167473Y111418D01*
X166719Y110840D01*
X166141Y110086D01*
X165778Y109209D01*
X165654Y108268D01*
X165778Y107326D01*
X166141Y106449D01*
X166719Y105696D01*
X167473Y105118D01*
X168350Y104754D01*
X169291Y104630D01*
X170233Y104754D01*
X171110Y105118D01*
X171863Y105696D01*
X172441Y106449D01*
X172805Y107326D01*
X172929Y108268D01*
X172805Y109209D01*
X172441Y110086D01*
X171863Y110840D01*
X171110Y111418D01*
X170233Y111781D01*
X169291Y111905D01*
D02*
G37*
G36*
X342520Y102063D02*
X341578Y101939D01*
X340701Y101575D01*
X339948Y100997D01*
X339370Y100244D01*
X339006Y99367D01*
X338882Y98425D01*
X339006Y97484D01*
X339370Y96606D01*
X339948Y95853D01*
X340701Y95275D01*
X341578Y94912D01*
X342520Y94788D01*
X343461Y94912D01*
X344338Y95275D01*
X345092Y95853D01*
X345670Y96606D01*
X346033Y97484D01*
X346157Y98425D01*
X346033Y99367D01*
X345670Y100244D01*
X345092Y100997D01*
X344338Y101575D01*
X343461Y101939D01*
X342520Y102063D01*
D02*
G37*
G36*
X271654D02*
X270712Y101939D01*
X269835Y101575D01*
X269081Y100997D01*
X268503Y100244D01*
X268140Y99367D01*
X268016Y98425D01*
X268140Y97484D01*
X268503Y96606D01*
X269081Y95853D01*
X269835Y95275D01*
X270712Y94912D01*
X271654Y94788D01*
X272595Y94912D01*
X273472Y95275D01*
X274226Y95853D01*
X274804Y96606D01*
X275167Y97484D01*
X275291Y98425D01*
X275167Y99367D01*
X274804Y100244D01*
X274226Y100997D01*
X273472Y101575D01*
X272595Y101939D01*
X271654Y102063D01*
D02*
G37*
G36*
X240158D02*
X239216Y101939D01*
X238339Y101575D01*
X237585Y100997D01*
X237007Y100244D01*
X236644Y99367D01*
X236520Y98425D01*
X236644Y97484D01*
X237007Y96606D01*
X237585Y95853D01*
X238339Y95275D01*
X239216Y94912D01*
X240158Y94788D01*
X241099Y94912D01*
X241976Y95275D01*
X242729Y95853D01*
X243308Y96606D01*
X243671Y97484D01*
X243795Y98425D01*
X243671Y99367D01*
X243308Y100244D01*
X242729Y100997D01*
X241976Y101575D01*
X241099Y101939D01*
X240158Y102063D01*
D02*
G37*
G36*
X169291D02*
X168350Y101939D01*
X167473Y101575D01*
X166719Y100997D01*
X166141Y100244D01*
X165778Y99367D01*
X165654Y98425D01*
X165778Y97484D01*
X166141Y96606D01*
X166719Y95853D01*
X167473Y95275D01*
X168350Y94912D01*
X169291Y94788D01*
X170233Y94912D01*
X171110Y95275D01*
X171863Y95853D01*
X172441Y96606D01*
X172805Y97484D01*
X172929Y98425D01*
X172805Y99367D01*
X172441Y100244D01*
X171863Y100997D01*
X171110Y101575D01*
X170233Y101939D01*
X169291Y102063D01*
D02*
G37*
G36*
X342520Y92220D02*
X341578Y92096D01*
X340701Y91733D01*
X339948Y91155D01*
X339370Y90401D01*
X339006Y89524D01*
X338882Y88583D01*
X339006Y87641D01*
X339370Y86764D01*
X339948Y86011D01*
X340701Y85433D01*
X341578Y85069D01*
X342520Y84945D01*
X343461Y85069D01*
X344338Y85433D01*
X345092Y86011D01*
X345670Y86764D01*
X346033Y87641D01*
X346157Y88583D01*
X346033Y89524D01*
X345670Y90401D01*
X345092Y91155D01*
X344338Y91733D01*
X343461Y92096D01*
X342520Y92220D01*
D02*
G37*
G36*
X271654D02*
X270712Y92096D01*
X269835Y91733D01*
X269081Y91155D01*
X268503Y90401D01*
X268140Y89524D01*
X268016Y88583D01*
X268140Y87641D01*
X268503Y86764D01*
X269081Y86011D01*
X269835Y85433D01*
X270712Y85069D01*
X271654Y84945D01*
X272595Y85069D01*
X273472Y85433D01*
X274226Y86011D01*
X274804Y86764D01*
X275167Y87641D01*
X275291Y88583D01*
X275167Y89524D01*
X274804Y90401D01*
X274226Y91155D01*
X273472Y91733D01*
X272595Y92096D01*
X271654Y92220D01*
D02*
G37*
G36*
X240158D02*
X239216Y92096D01*
X238339Y91733D01*
X237585Y91155D01*
X237007Y90401D01*
X236644Y89524D01*
X236520Y88583D01*
X236644Y87641D01*
X237007Y86764D01*
X237585Y86011D01*
X238339Y85433D01*
X239216Y85069D01*
X240158Y84945D01*
X241099Y85069D01*
X241976Y85433D01*
X242729Y86011D01*
X243308Y86764D01*
X243671Y87641D01*
X243795Y88583D01*
X243671Y89524D01*
X243308Y90401D01*
X242729Y91155D01*
X241976Y91733D01*
X241099Y92096D01*
X240158Y92220D01*
D02*
G37*
G36*
X169291D02*
X168350Y92096D01*
X167473Y91733D01*
X166719Y91155D01*
X166141Y90401D01*
X165778Y89524D01*
X165654Y88583D01*
X165778Y87641D01*
X166141Y86764D01*
X166719Y86011D01*
X167473Y85433D01*
X168350Y85069D01*
X169291Y84945D01*
X170233Y85069D01*
X171110Y85433D01*
X171863Y86011D01*
X172441Y86764D01*
X172805Y87641D01*
X172929Y88583D01*
X172805Y89524D01*
X172441Y90401D01*
X171863Y91155D01*
X171110Y91733D01*
X170233Y92096D01*
X169291Y92220D01*
D02*
G37*
G36*
X296465Y74168D02*
Y71740D01*
X298893D01*
X298857Y72015D01*
X298558Y72737D01*
X298082Y73357D01*
X297462Y73833D01*
X296740Y74132D01*
X296465Y74168D01*
D02*
G37*
G36*
X295465D02*
X295190Y74132D01*
X294467Y73833D01*
X293847Y73357D01*
X293372Y72737D01*
X293073Y72015D01*
X293036Y71740D01*
X295465D01*
Y74168D01*
D02*
G37*
G36*
X194102D02*
Y71740D01*
X196531D01*
X196494Y72015D01*
X196195Y72737D01*
X195720Y73357D01*
X195099Y73833D01*
X194377Y74132D01*
X194102Y74168D01*
D02*
G37*
G36*
X193102D02*
X192827Y74132D01*
X192105Y73833D01*
X191485Y73357D01*
X191009Y72737D01*
X190710Y72015D01*
X190674Y71740D01*
X193102D01*
Y74168D01*
D02*
G37*
G36*
X298893Y70740D02*
X296465D01*
Y68312D01*
X296740Y68348D01*
X297462Y68647D01*
X298082Y69123D01*
X298558Y69743D01*
X298857Y70465D01*
X298893Y70740D01*
D02*
G37*
G36*
X295465D02*
X293036D01*
X293073Y70465D01*
X293372Y69743D01*
X293847Y69123D01*
X294467Y68647D01*
X295190Y68348D01*
X295465Y68312D01*
Y70740D01*
D02*
G37*
G36*
X196531D02*
X194102D01*
Y68312D01*
X194377Y68348D01*
X195099Y68647D01*
X195720Y69123D01*
X196195Y69743D01*
X196494Y70465D01*
X196531Y70740D01*
D02*
G37*
G36*
X193102D02*
X190674D01*
X190710Y70465D01*
X191009Y69743D01*
X191485Y69123D01*
X192105Y68647D01*
X192827Y68348D01*
X193102Y68312D01*
Y70740D01*
D02*
G37*
%LPD*%
D41*
X74173Y263150D02*
X105276D01*
D46*
X33465Y243937D02*
D03*
X356299Y305118D02*
D03*
Y275118D02*
D03*
D47*
X105276Y273150D02*
D03*
Y263150D02*
D03*
Y293150D02*
D03*
D50*
X145669Y231614D02*
D03*
X76635Y184547D02*
D03*
X66437Y184547D02*
D03*
X228346Y133858D02*
D03*
X127953Y181102D02*
D03*
X138169Y142106D02*
D03*
X198031Y193996D02*
D03*
Y188976D02*
D03*
X250689Y198819D02*
D03*
X223130D02*
D03*
X139764Y199508D02*
D03*
X207480Y218819D02*
D03*
X255906Y231614D02*
D03*
X228346D02*
D03*
X173228D02*
D03*
X215846Y109862D02*
D03*
X318209D02*
D03*
X295965Y71240D02*
D03*
X193602D02*
D03*
X69587Y223721D02*
D03*
X100020Y157106D02*
D03*
X45650Y142106D02*
D03*
X267342Y157106D02*
D03*
X192539Y157106D02*
D03*
X168012Y198819D02*
D03*
M02*
