M48
;Layer_Color=9474304
;FILE_FORMAT=2:5
INCH,LZ
;TYPE=PLATED
T1F00S00C0.01575
T2F00S00C0.01968
T3F00S00C0.03000
T4F00S00C0.04000
T5F00S00C0.04331
T6F00S00C0.05906
T7F00S00C0.06299
T8F00S00C0.12402
%
T01
X0055512Y0078347
X0089764Y0102756
X0055512Y0105905
X0045669Y0137008
X0080709Y0216535
X0138189Y0225197
X0151575Y0226378
X0155512Y0222441
X0165854Y0231784
X0179134Y0226378
X0183071Y0222441
X0220472Y0225197
X0234252Y0226378
X0238189Y0222441
X0247638Y0230315
X0261811Y0226378
X0265748Y0222441
T02
X0295965Y007124
X0193602
X010002Y0098051
X004565Y0083051
Y011061
X004565Y0142106
X0066437Y0184547
X0076635Y0184547
X0069587Y0223721
X010002Y0157106
X010002Y012561
X0138169Y0142106
X0127953Y0181102
X0139764Y0199508
X0168012Y0198819
X0198031Y0193996
Y0188976
X022313Y0198819
X0250689
X0255906Y0231614
X0228346
X020748Y0218819
X0173228Y0231614
X0145669
X0192539Y0157106
X0204724Y0122047
X0215846Y0109862
X0228346Y0133858
X0267342Y0157106
X0307087Y0122047
X0318209Y0109862
T03
X034252Y0088583
Y0098425
X0271654
Y0088583
X0240158
Y0098425
X0169291
Y0088583
Y0108268
X0240158
X0271654
X034252
T04
X0105276Y016315
Y017315
Y018315
X0115276
Y017315
Y016315
Y019315
X0105276
Y020315
Y021315
X0115276
Y020315
Y023315
Y024315
Y025315
X0105276
Y024315
Y023315
X0285276
X0295276
Y022315
Y021315
Y020315
Y019315
Y018315
Y017315
Y016315
X0285276
Y017315
Y018315
Y019315
Y020315
Y021315
Y022315
Y024915
X0295276
Y025915
X0285276
Y026915
X0295276
Y027915
Y028915
Y029915
Y030915
Y031915
Y032915
Y033915
X0285276Y031915
Y030915
Y029915
Y028915
Y027915
X0105276Y028315
Y027315
Y026315
X0115276
X0105276Y029315
Y030315
T05
X0033465Y0243937
Y0253937
X0356299Y0255118
Y0265118
Y0275118
Y0295118
Y0305118
X0033465Y0303937
Y0293937
Y0283937
T06
X0279528Y0035433
X0330709
X0228346
X0177165
X0114173Y0035433
X0062992
T07
X0289528Y0025433
Y0045433
X0320709
Y0025433
X0340709
Y0045433
X0269528
Y0025433
X0238347
X0218347
Y0045433
X0238347
X0187165
X0167165
Y0025433
X0187165
X0124173Y0025433
Y0045433
X0104173
Y0025433
X0072992
Y0045433
X0052992
Y0025433
T08
X0377953Y0015748
X0015748
X0377953Y0338583
X0015748
M30
